<svg version="1.1" viewBox="0.0 0.0 788.0 504.0" fill="none" stroke="none" stroke-linecap="square" stroke-miterlimit="10" width="788" height="504" xmlns:xlink="http://www.w3.org/1999/xlink" xmlns="http://www.w3.org/2000/svg"><path fill="#ffffff" d="M0 0L788.0 0L788.0 504.0L0 504.0L0 0Z" fill-rule="nonzero"/><path stroke="#333333" stroke-width="1.0" stroke-linecap="butt" d="M52.5 471.5L619.5 471.5" fill-rule="nonzero"/><path stroke="#cccccc" stroke-width="1.0" stroke-linecap="butt" d="M52.5 372.5L619.5 372.5" fill-rule="nonzero"/><path stroke="#cccccc" stroke-width="1.0" stroke-linecap="butt" d="M52.5 272.5L619.5 272.5" fill-rule="nonzero"/><path stroke="#cccccc" stroke-width="1.0" stroke-linecap="butt" d="M52.5 172.5L619.5 172.5" fill-rule="nonzero"/><path stroke="#cccccc" stroke-width="1.0" stroke-linecap="butt" d="M52.5 73.5L619.5 73.5" fill-rule="nonzero"/><clipPath id="id_0"><path d="M52.2 73.0L619.28 73.0L619.28 471.8L52.2 471.8L52.2 73.0Z" clip-rule="nonzero"/></clipPath><path stroke="#000000" stroke-width="0.0" stroke-linecap="butt" stroke-opacity="0.0" clip-path="url(#id_0)" d="M243.0 472.0L198.0 472.0L198.0 366.0C198.0 364.89542 198.89543 364.0 200.0 364.0L241.0 364.0C242.10457 364.0 243.0 364.89542 243.0 366.0Z" fill-rule="nonzero"/><path fill="#4285f4" clip-path="url(#id_0)" d="M243.0 472.0L198.0 472.0L198.0 366.0C198.0 364.89542 198.89543 364.0 200.0 364.0L241.0 364.0C242.10457 364.0 243.0 364.89542 243.0 366.0Z" fill-rule="nonzero"/><path stroke="#000000" stroke-width="0.0" stroke-linecap="butt" stroke-opacity="0.0" clip-path="url(#id_0)" d="M289.0 472.0L244.0 472.0L244.0 369.0C244.0 367.89542 244.89543 367.0 246.0 367.0L287.0 367.0C288.10458 367.0 289.0 367.89542 289.0 369.0Z" fill-rule="nonzero"/><path fill="#ea4335" clip-path="url(#id_0)" d="M289.0 472.0L244.0 472.0L244.0 369.0C244.0 367.89542 244.89543 367.0 246.0 367.0L287.0 367.0C288.10458 367.0 289.0 367.89542 289.0 369.0Z" fill-rule="nonzero"/><path stroke="#000000" stroke-width="0.0" stroke-linecap="butt" stroke-opacity="0.0" clip-path="url(#id_0)" d="M335.0 472.0L290.0 472.0L290.0 309.0C290.0 307.89542 290.89542 307.0 292.0 307.0L333.0 307.0C334.10458 307.0 335.0 307.89542 335.0 309.0Z" fill-rule="nonzero"/><path fill="#fbbc04" clip-path="url(#id_0)" d="M335.0 472.0L290.0 472.0L290.0 309.0C290.0 307.89542 290.89542 307.0 292.0 307.0L333.0 307.0C334.10458 307.0 335.0 307.89542 335.0 309.0Z" fill-rule="nonzero"/><path stroke="#000000" stroke-width="0.0" stroke-linecap="butt" stroke-opacity="0.0" clip-path="url(#id_0)" d="M381.0 472.0L336.0 472.0L336.0 226.0C336.0 224.89543 336.89542 224.0 338.0 224.0L379.0 224.0C380.10458 224.0 381.0 224.89543 381.0 226.0Z" fill-rule="nonzero"/><path fill="#34a853" clip-path="url(#id_0)" d="M381.0 472.0L336.0 472.0L336.0 226.0C336.0 224.89543 336.89542 224.0 338.0 224.0L379.0 224.0C380.10458 224.0 381.0 224.89543 381.0 226.0Z" fill-rule="nonzero"/><path stroke="#000000" stroke-width="0.0" stroke-linecap="butt" stroke-opacity="0.0" clip-path="url(#id_0)" d="M427.0 472.0L382.0 472.0L382.0 144.0C382.0 142.89543 382.89542 142.0 384.0 142.0L425.0 142.0C426.10458 142.0 427.0 142.89543 427.0 144.0Z" fill-rule="nonzero"/><path fill="#ff6d01" clip-path="url(#id_0)" d="M427.0 472.0L382.0 472.0L382.0 144.0C382.0 142.89543 382.89542 142.0 384.0 142.0L425.0 142.0C426.10458 142.0 427.0 142.89543 427.0 144.0Z" fill-rule="nonzero"/><path stroke="#000000" stroke-width="0.0" stroke-linecap="butt" stroke-opacity="0.0" clip-path="url(#id_0)" d="M473.0 472.0L428.0 472.0L428.0 349.0C428.0 347.89542 428.89542 347.0 430.0 347.0L471.0 347.0C472.10458 347.0 473.0 347.89542 473.0 349.0Z" fill-rule="nonzero"/><path fill="#46bdc6" clip-path="url(#id_0)" d="M473.0 472.0L428.0 472.0L428.0 349.0C428.0 347.89542 428.89542 347.0 430.0 347.0L471.0 347.0C472.10458 347.0 473.0 347.89542 473.0 349.0Z" fill-rule="nonzero"/><path stroke="#4285f4" stroke-width="3.0" stroke-linejoin="round" stroke-linecap="round" d="M203.20312 376.6667L203.64062 372.4167L208.01562 372.4167L208.01562 373.4167L204.5625 373.4167L204.29688 375.7448Q204.9375 375.3698 205.73438 375.3698Q206.89062 375.3698 207.57812 376.15106Q208.26562 376.9167 208.26562 378.2292Q208.26562 379.5417 207.54688 380.3073Q206.84375 381.07294 205.5625 381.07294Q204.4375 381.07294 203.71875 380.44794Q203.0 379.8073 202.90625 378.69794L203.92188 378.69794Q204.03125 379.4323 204.45312 379.8073Q204.875 380.1823 205.5625 380.1823Q206.3125 380.1823 206.75 379.6667Q207.1875 379.15106 207.1875 378.2448Q207.1875 377.38544 206.71875 376.8698Q206.25 376.3542 205.46875 376.3542Q204.76562 376.3542 204.35938 376.65106L204.07812 376.88544L203.20312 376.6667ZM211.28125 376.15106L212.09375 376.15106Q212.875 376.13544 213.3125 375.7448Q213.75 375.3542 213.75 374.6823Q213.75 373.1823 212.25 373.1823Q211.54688 373.1823 211.125 373.58856Q210.71875 373.9948 210.71875 374.65106L209.625 374.65106Q209.625 373.63544 210.35938 372.96356Q211.10938 372.2917 212.25 372.2917Q213.45312 372.2917 214.14062 372.9323Q214.82812 373.57294 214.82812 374.71356Q214.82812 375.27606 214.46875 375.7917Q214.10938 376.3073 213.48438 376.57294Q214.1875 376.7917 214.5625 377.3073Q214.95312 377.82294 214.95312 378.57294Q214.95312 379.71356 214.20312 380.40106Q213.45312 381.07294 212.25 381.07294Q211.0625 381.07294 210.29688 380.4167Q209.54688 379.76044 209.54688 378.69794L210.64062 378.69794Q210.64062 379.3698 211.07812 379.77606Q211.51562 380.1823 212.26562 380.1823Q213.04688 380.1823 213.45312 379.77606Q213.875 379.3542 213.875 378.58856Q213.875 377.8542 213.42188 377.46356Q212.96875 377.0573 212.09375 377.0417L211.28125 377.0417L211.28125 376.15106ZM216.84375 380.38544Q216.84375 380.1042 217.0 379.9167Q217.17188 379.7292 217.5 379.7292Q217.84375 379.7292 218.01562 379.9167Q218.1875 380.1042 218.1875 380.38544Q218.1875 380.65106 218.01562 380.83856Q217.84375 381.01044 217.5 381.01044Q217.17188 381.01044 217.0 380.83856Q216.84375 380.65106 216.84375 380.38544ZM223.85938 377.19794Q223.53125 377.6042 223.04688 377.8542Q222.57812 378.08856 222.01562 378.08856Q221.28125 378.08856 220.73438 377.7292Q220.1875 377.3698 219.89062 376.71356Q219.59375 376.0417 219.59375 375.2448Q219.59375 374.40106 219.90625 373.71356Q220.23438 373.02606 220.82812 372.6667Q221.4375 372.2917 222.23438 372.2917Q223.5 372.2917 224.21875 373.2448Q224.95312 374.19794 224.95312 375.82294L224.95312 376.13544Q224.95312 378.63544 223.96875 379.77606Q222.98438 380.9167 221.0 380.94794L220.78125 380.94794L220.78125 380.0417L221.01562 380.0417Q222.35938 380.01044 223.07812 379.33856Q223.79688 378.6667 223.85938 377.19794ZM222.1875 377.19794Q222.73438 377.19794 223.1875 376.8698Q223.65625 376.52606 223.875 376.0417L223.875 375.6042Q223.875 374.5417 223.40625 373.8698Q222.9375 373.19794 222.23438 373.19794Q221.51562 373.19794 221.07812 373.7448Q220.65625 374.2917 220.65625 375.19794Q220.65625 376.07294 221.0625 376.63544Q221.48438 377.19794 222.1875 377.19794ZM231.89062 374.63544Q231.89062 375.27606 231.54688 375.77606Q231.20312 376.27606 230.64062 376.5573Q231.29688 376.83856 231.6875 377.40106Q232.07812 377.94794 232.07812 378.65106Q232.07812 379.7448 231.32812 380.4167Q230.59375 381.07294 229.375 381.07294Q228.14062 381.07294 227.39062 380.4167Q226.65625 379.7448 226.65625 378.65106Q226.65625 377.94794 227.03125 377.40106Q227.40625 376.83856 228.07812 376.5573Q227.51562 376.27606 227.1875 375.77606Q226.85938 375.27606 226.85938 374.63544Q226.85938 373.5573 227.54688 372.9323Q228.23438 372.2917 229.375 372.2917Q230.5 372.2917 231.1875 372.9323Q231.89062 373.5573 231.89062 374.63544ZM231.0 378.6198Q231.0 377.90106 230.54688 377.46356Q230.09375 377.01044 229.35938 377.01044Q228.625 377.01044 228.17188 377.46356Q227.73438 377.90106 227.73438 378.63544Q227.73438 379.3542 228.17188 379.77606Q228.60938 380.1823 229.375 380.1823Q230.125 380.1823 230.5625 379.76044Q231.0 379.33856 231.0 378.6198ZM229.375 373.1823Q228.73438 373.1823 228.32812 373.58856Q227.9375 373.9792 227.9375 374.6667Q227.9375 375.3073 228.32812 375.71356Q228.71875 376.1198 229.35938 376.1198Q230.01562 376.1198 230.40625 375.71356Q230.79688 375.3073 230.79688 374.6667Q230.79688 374.01044 230.39062 373.6042Q229.98438 373.1823 229.375 373.1823ZM238.89062 374.63544Q238.89062 375.27606 238.54688 375.77606Q238.20312 376.27606 237.64062 376.5573Q238.29688 376.83856 238.6875 377.40106Q239.07812 377.94794 239.07812 378.65106Q239.07812 379.7448 238.32812 380.4167Q237.59375 381.07294 236.375 381.07294Q235.14062 381.07294 234.39062 380.4167Q233.65625 379.7448 233.65625 378.65106Q233.65625 377.94794 234.03125 377.40106Q234.40625 376.83856 235.07812 376.5573Q234.51562 376.27606 234.1875 375.77606Q233.85938 375.27606 233.85938 374.63544Q233.85938 373.5573 234.54688 372.9323Q235.23438 372.2917 236.375 372.2917Q237.5 372.2917 238.1875 372.9323Q238.89062 373.5573 238.89062 374.63544ZM238.0 378.6198Q238.0 377.90106 237.54688 377.46356Q237.09375 377.01044 236.35938 377.01044Q235.625 377.01044 235.17188 377.46356Q234.73438 377.90106 234.73438 378.63544Q234.73438 379.3542 235.17188 379.77606Q235.60938 380.1823 236.375 380.1823Q237.125 380.1823 237.5625 379.76044Q238.0 379.33856 238.0 378.6198ZM236.375 373.1823Q235.73438 373.1823 235.32812 373.58856Q234.9375 373.9792 234.9375 374.6667Q234.9375 375.3073 235.32812 375.71356Q235.71875 376.1198 236.35938 376.1198Q237.01562 376.1198 237.40625 375.71356Q237.79688 375.3073 237.79688 374.6667Q237.79688 374.01044 237.39062 373.6042Q236.98438 373.1823 236.375 373.1823Z" fill-rule="nonzero"/><path fill="#ffffff" d="M203.20312 376.6667L203.64062 372.4167L208.01562 372.4167L208.01562 373.4167L204.5625 373.4167L204.29688 375.7448Q204.9375 375.3698 205.73438 375.3698Q206.89062 375.3698 207.57812 376.15106Q208.26562 376.9167 208.26562 378.2292Q208.26562 379.5417 207.54688 380.3073Q206.84375 381.07294 205.5625 381.07294Q204.4375 381.07294 203.71875 380.44794Q203.0 379.8073 202.90625 378.69794L203.92188 378.69794Q204.03125 379.4323 204.45312 379.8073Q204.875 380.1823 205.5625 380.1823Q206.3125 380.1823 206.75 379.6667Q207.1875 379.15106 207.1875 378.2448Q207.1875 377.38544 206.71875 376.8698Q206.25 376.3542 205.46875 376.3542Q204.76562 376.3542 204.35938 376.65106L204.07812 376.88544L203.20312 376.6667ZM211.28125 376.15106L212.09375 376.15106Q212.875 376.13544 213.3125 375.7448Q213.75 375.3542 213.75 374.6823Q213.75 373.1823 212.25 373.1823Q211.54688 373.1823 211.125 373.58856Q210.71875 373.9948 210.71875 374.65106L209.625 374.65106Q209.625 373.63544 210.35938 372.96356Q211.10938 372.2917 212.25 372.2917Q213.45312 372.2917 214.14062 372.9323Q214.82812 373.57294 214.82812 374.71356Q214.82812 375.27606 214.46875 375.7917Q214.10938 376.3073 213.48438 376.57294Q214.1875 376.7917 214.5625 377.3073Q214.95312 377.82294 214.95312 378.57294Q214.95312 379.71356 214.20312 380.40106Q213.45312 381.07294 212.25 381.07294Q211.0625 381.07294 210.29688 380.4167Q209.54688 379.76044 209.54688 378.69794L210.64062 378.69794Q210.64062 379.3698 211.07812 379.77606Q211.51562 380.1823 212.26562 380.1823Q213.04688 380.1823 213.45312 379.77606Q213.875 379.3542 213.875 378.58856Q213.875 377.8542 213.42188 377.46356Q212.96875 377.0573 212.09375 377.0417L211.28125 377.0417L211.28125 376.15106ZM216.84375 380.38544Q216.84375 380.1042 217.0 379.9167Q217.17188 379.7292 217.5 379.7292Q217.84375 379.7292 218.01562 379.9167Q218.1875 380.1042 218.1875 380.38544Q218.1875 380.65106 218.01562 380.83856Q217.84375 381.01044 217.5 381.01044Q217.17188 381.01044 217.0 380.83856Q216.84375 380.65106 216.84375 380.38544ZM223.85938 377.19794Q223.53125 377.6042 223.04688 377.8542Q222.57812 378.08856 222.01562 378.08856Q221.28125 378.08856 220.73438 377.7292Q220.1875 377.3698 219.89062 376.71356Q219.59375 376.0417 219.59375 375.2448Q219.59375 374.40106 219.90625 373.71356Q220.23438 373.02606 220.82812 372.6667Q221.4375 372.2917 222.23438 372.2917Q223.5 372.2917 224.21875 373.2448Q224.95312 374.19794 224.95312 375.82294L224.95312 376.13544Q224.95312 378.63544 223.96875 379.77606Q222.98438 380.9167 221.0 380.94794L220.78125 380.94794L220.78125 380.0417L221.01562 380.0417Q222.35938 380.01044 223.07812 379.33856Q223.79688 378.6667 223.85938 377.19794ZM222.1875 377.19794Q222.73438 377.19794 223.1875 376.8698Q223.65625 376.52606 223.875 376.0417L223.875 375.6042Q223.875 374.5417 223.40625 373.8698Q222.9375 373.19794 222.23438 373.19794Q221.51562 373.19794 221.07812 373.7448Q220.65625 374.2917 220.65625 375.19794Q220.65625 376.07294 221.0625 376.63544Q221.48438 377.19794 222.1875 377.19794ZM231.89062 374.63544Q231.89062 375.27606 231.54688 375.77606Q231.20312 376.27606 230.64062 376.5573Q231.29688 376.83856 231.6875 377.40106Q232.07812 377.94794 232.07812 378.65106Q232.07812 379.7448 231.32812 380.4167Q230.59375 381.07294 229.375 381.07294Q228.14062 381.07294 227.39062 380.4167Q226.65625 379.7448 226.65625 378.65106Q226.65625 377.94794 227.03125 377.40106Q227.40625 376.83856 228.07812 376.5573Q227.51562 376.27606 227.1875 375.77606Q226.85938 375.27606 226.85938 374.63544Q226.85938 373.5573 227.54688 372.9323Q228.23438 372.2917 229.375 372.2917Q230.5 372.2917 231.1875 372.9323Q231.89062 373.5573 231.89062 374.63544ZM231.0 378.6198Q231.0 377.90106 230.54688 377.46356Q230.09375 377.01044 229.35938 377.01044Q228.625 377.01044 228.17188 377.46356Q227.73438 377.90106 227.73438 378.63544Q227.73438 379.3542 228.17188 379.77606Q228.60938 380.1823 229.375 380.1823Q230.125 380.1823 230.5625 379.76044Q231.0 379.33856 231.0 378.6198ZM229.375 373.1823Q228.73438 373.1823 228.32812 373.58856Q227.9375 373.9792 227.9375 374.6667Q227.9375 375.3073 228.32812 375.71356Q228.71875 376.1198 229.35938 376.1198Q230.01562 376.1198 230.40625 375.71356Q230.79688 375.3073 230.79688 374.6667Q230.79688 374.01044 230.39062 373.6042Q229.98438 373.1823 229.375 373.1823ZM238.89062 374.63544Q238.89062 375.27606 238.54688 375.77606Q238.20312 376.27606 237.64062 376.5573Q238.29688 376.83856 238.6875 377.40106Q239.07812 377.94794 239.07812 378.65106Q239.07812 379.7448 238.32812 380.4167Q237.59375 381.07294 236.375 381.07294Q235.14062 381.07294 234.39062 380.4167Q233.65625 379.7448 233.65625 378.65106Q233.65625 377.94794 234.03125 377.40106Q234.40625 376.83856 235.07812 376.5573Q234.51562 376.27606 234.1875 375.77606Q233.85938 375.27606 233.85938 374.63544Q233.85938 373.5573 234.54688 372.9323Q235.23438 372.2917 236.375 372.2917Q237.5 372.2917 238.1875 372.9323Q238.89062 373.5573 238.89062 374.63544ZM238.0 378.6198Q238.0 377.90106 237.54688 377.46356Q237.09375 377.01044 236.35938 377.01044Q235.625 377.01044 235.17188 377.46356Q234.73438 377.90106 234.73438 378.63544Q234.73438 379.3542 235.17188 379.77606Q235.60938 380.1823 236.375 380.1823Q237.125 380.1823 237.5625 379.76044Q238.0 379.33856 238.0 378.6198ZM236.375 373.1823Q235.73438 373.1823 235.32812 373.58856Q234.9375 373.9792 234.9375 374.6667Q234.9375 375.3073 235.32812 375.71356Q235.71875 376.1198 236.35938 376.1198Q237.01562 376.1198 237.40625 375.71356Q237.79688 375.3073 237.79688 374.6667Q237.79688 374.01044 237.39062 373.6042Q236.98438 373.1823 236.375 373.1823Z" fill-rule="nonzero"/><path stroke="#ea4335" stroke-width="3.0" stroke-linejoin="round" stroke-linecap="round" d="M252.70312 379.4144L253.14062 375.1644L257.51562 375.1644L257.51562 376.1644L254.0625 376.1644L253.79688 378.49252Q254.4375 378.11752 255.23438 378.11752Q256.39062 378.11752 257.07812 378.89877Q257.76562 379.6644 257.76562 380.9769Q257.76562 382.2894 257.04688 383.05502Q256.34375 383.82065 255.0625 383.82065Q253.9375 383.82065 253.21875 383.19565Q252.5 382.55502 252.40625 381.44565L253.42188 381.44565Q253.53125 382.18002 253.95312 382.55502Q254.375 382.93002 255.0625 382.93002Q255.8125 382.93002 256.25 382.4144Q256.6875 381.89877 256.6875 380.99252Q256.6875 380.13315 256.21875 379.61752Q255.75 379.1019 254.96875 379.1019Q254.26562 379.1019 253.85938 379.39877L253.57812 379.63315L252.70312 379.4144ZM264.79688 383.69565L259.20312 383.69565L259.20312 382.9144L262.15625 379.63315Q262.8125 378.88315 263.0625 378.43002Q263.3125 377.96127 263.3125 377.46127Q263.3125 376.7894 262.90625 376.36752Q262.51562 375.93002 261.82812 375.93002Q261.03125 375.93002 260.57812 376.39877Q260.125 376.8519 260.125 377.68002L259.04688 377.68002Q259.04688 376.49252 259.79688 375.77377Q260.5625 375.0394 261.82812 375.0394Q263.03125 375.0394 263.71875 375.6644Q264.40625 376.2894 264.40625 377.33627Q264.40625 378.58627 262.79688 380.33627L260.51562 382.80502L264.79688 382.80502L264.79688 383.69565ZM266.34375 383.13315Q266.34375 382.8519 266.5 382.6644Q266.67188 382.4769 267.0 382.4769Q267.34375 382.4769 267.51562 382.6644Q267.6875 382.8519 267.6875 383.13315Q267.6875 383.39877 267.51562 383.58627Q267.34375 383.75815 267.0 383.75815Q266.67188 383.75815 266.5 383.58627Q266.34375 383.39877 266.34375 383.13315ZM273.46875 375.1644L273.46875 376.07065L273.26562 376.07065Q272.0 376.1019 271.25 376.83627Q270.5 377.55502 270.375 378.86752Q271.0625 378.1019 272.21875 378.1019Q273.32812 378.1019 274.0 378.88315Q274.67188 379.6644 274.67188 380.9144Q274.67188 382.2269 273.95312 383.02377Q273.23438 383.82065 272.01562 383.82065Q270.79688 383.82065 270.03125 382.88315Q269.28125 381.93002 269.28125 380.44565L269.28125 380.0394Q269.28125 377.68002 270.28125 376.43002Q271.28125 375.18002 273.26562 375.1644L273.46875 375.1644ZM272.04688 379.00815Q271.48438 379.00815 271.01562 379.33627Q270.54688 379.6644 270.35938 380.18002L270.35938 380.57065Q270.35938 381.63315 270.82812 382.27377Q271.3125 382.9144 272.01562 382.9144Q272.75 382.9144 273.17188 382.38315Q273.59375 381.83627 273.59375 380.96127Q273.59375 380.08627 273.17188 379.55502Q272.75 379.00815 272.04688 379.00815ZM279.76562 383.69565L278.6875 383.69565L278.6875 376.4769L276.5 377.27377L276.5 376.2894L279.60938 375.11752L279.76562 375.11752L279.76562 383.69565Z" fill-rule="nonzero"/><path fill="#ffffff" d="M252.70312 379.4144L253.14062 375.1644L257.51562 375.1644L257.51562 376.1644L254.0625 376.1644L253.79688 378.49252Q254.4375 378.11752 255.23438 378.11752Q256.39062 378.11752 257.07812 378.89877Q257.76562 379.6644 257.76562 380.9769Q257.76562 382.2894 257.04688 383.05502Q256.34375 383.82065 255.0625 383.82065Q253.9375 383.82065 253.21875 383.19565Q252.5 382.55502 252.40625 381.44565L253.42188 381.44565Q253.53125 382.18002 253.95312 382.55502Q254.375 382.93002 255.0625 382.93002Q255.8125 382.93002 256.25 382.4144Q256.6875 381.89877 256.6875 380.99252Q256.6875 380.13315 256.21875 379.61752Q255.75 379.1019 254.96875 379.1019Q254.26562 379.1019 253.85938 379.39877L253.57812 379.63315L252.70312 379.4144ZM264.79688 383.69565L259.20312 383.69565L259.20312 382.9144L262.15625 379.63315Q262.8125 378.88315 263.0625 378.43002Q263.3125 377.96127 263.3125 377.46127Q263.3125 376.7894 262.90625 376.36752Q262.51562 375.93002 261.82812 375.93002Q261.03125 375.93002 260.57812 376.39877Q260.125 376.8519 260.125 377.68002L259.04688 377.68002Q259.04688 376.49252 259.79688 375.77377Q260.5625 375.0394 261.82812 375.0394Q263.03125 375.0394 263.71875 375.6644Q264.40625 376.2894 264.40625 377.33627Q264.40625 378.58627 262.79688 380.33627L260.51562 382.80502L264.79688 382.80502L264.79688 383.69565ZM266.34375 383.13315Q266.34375 382.8519 266.5 382.6644Q266.67188 382.4769 267.0 382.4769Q267.34375 382.4769 267.51562 382.6644Q267.6875 382.8519 267.6875 383.13315Q267.6875 383.39877 267.51562 383.58627Q267.34375 383.75815 267.0 383.75815Q266.67188 383.75815 266.5 383.58627Q266.34375 383.39877 266.34375 383.13315ZM273.46875 375.1644L273.46875 376.07065L273.26562 376.07065Q272.0 376.1019 271.25 376.83627Q270.5 377.55502 270.375 378.86752Q271.0625 378.1019 272.21875 378.1019Q273.32812 378.1019 274.0 378.88315Q274.67188 379.6644 274.67188 380.9144Q274.67188 382.2269 273.95312 383.02377Q273.23438 383.82065 272.01562 383.82065Q270.79688 383.82065 270.03125 382.88315Q269.28125 381.93002 269.28125 380.44565L269.28125 380.0394Q269.28125 377.68002 270.28125 376.43002Q271.28125 375.18002 273.26562 375.1644L273.46875 375.1644ZM272.04688 379.00815Q271.48438 379.00815 271.01562 379.33627Q270.54688 379.6644 270.35938 380.18002L270.35938 380.57065Q270.35938 381.63315 270.82812 382.27377Q271.3125 382.9144 272.01562 382.9144Q272.75 382.9144 273.17188 382.38315Q273.59375 381.83627 273.59375 380.96127Q273.59375 380.08627 273.17188 379.55502Q272.75 379.00815 272.04688 379.00815ZM279.76562 383.69565L278.6875 383.69565L278.6875 376.4769L276.5 377.27377L276.5 376.2894L279.60938 375.11752L279.76562 375.11752L279.76562 383.69565Z" fill-rule="nonzero"/><path stroke="#fbbc04" stroke-width="3.0" stroke-linejoin="round" stroke-linecap="round" d="M303.39062 317.2441Q303.39062 317.88474 303.04688 318.38474Q302.70312 318.88474 302.14062 319.166Q302.79688 319.44724 303.1875 320.00974Q303.57812 320.5566 303.57812 321.25974Q303.57812 322.3535 302.82812 323.02536Q302.09375 323.6816 300.875 323.6816Q299.64062 323.6816 298.89062 323.02536Q298.15625 322.3535 298.15625 321.25974Q298.15625 320.5566 298.53125 320.00974Q298.90625 319.44724 299.57812 319.166Q299.01562 318.88474 298.6875 318.38474Q298.35938 317.88474 298.35938 317.2441Q298.35938 316.166 299.04688 315.541Q299.73438 314.90036 300.875 314.90036Q302.0 314.90036 302.6875 315.541Q303.39062 316.166 303.39062 317.2441ZM302.5 321.2285Q302.5 320.50974 302.04688 320.07224Q301.59375 319.6191 300.85938 319.6191Q300.125 319.6191 299.67188 320.07224Q299.23438 320.50974 299.23438 321.2441Q299.23438 321.96286 299.67188 322.38474Q300.10938 322.791 300.875 322.791Q301.625 322.791 302.0625 322.3691Q302.5 321.94724 302.5 321.2285ZM300.875 315.791Q300.23438 315.791 299.82812 316.19724Q299.4375 316.58786 299.4375 317.27536Q299.4375 317.916 299.82812 318.32224Q300.21875 318.7285 300.85938 318.7285Q301.51562 318.7285 301.90625 318.32224Q302.29688 317.916 302.29688 317.27536Q302.29688 316.6191 301.89062 316.21286Q301.48438 315.791 300.875 315.791ZM310.79688 323.5566L305.20312 323.5566L305.20312 322.77536L308.15625 319.4941Q308.8125 318.7441 309.0625 318.291Q309.3125 317.82224 309.3125 317.32224Q309.3125 316.65036 308.90625 316.2285Q308.51562 315.791 307.82812 315.791Q307.03125 315.791 306.57812 316.25974Q306.125 316.71286 306.125 317.541L305.04688 317.541Q305.04688 316.3535 305.79688 315.63474Q306.5625 314.90036 307.82812 314.90036Q309.03125 314.90036 309.71875 315.52536Q310.40625 316.15036 310.40625 317.19724Q310.40625 318.44724 308.79688 320.19724L306.51562 322.666L310.79688 322.666L310.79688 323.5566ZM312.34375 322.9941Q312.34375 322.71286 312.5 322.52536Q312.67188 322.33786 313.0 322.33786Q313.34375 322.33786 313.51562 322.52536Q313.6875 322.71286 313.6875 322.9941Q313.6875 323.25974 313.51562 323.44724Q313.34375 323.6191 313.0 323.6191Q312.67188 323.6191 312.5 323.44724Q312.34375 323.25974 312.34375 322.9941ZM320.71875 315.63474L317.1875 323.5566L316.04688 323.5566L319.5625 315.916L314.95312 315.916L314.95312 315.02536L320.71875 315.02536L320.71875 315.63474ZM327.71875 315.63474L324.1875 323.5566L323.04688 323.5566L326.5625 315.916L321.95312 315.916L321.95312 315.02536L327.71875 315.02536L327.71875 315.63474Z" fill-rule="nonzero"/><path fill="#000000" d="M303.39062 317.2441Q303.39062 317.88474 303.04688 318.38474Q302.70312 318.88474 302.14062 319.166Q302.79688 319.44724 303.1875 320.00974Q303.57812 320.5566 303.57812 321.25974Q303.57812 322.3535 302.82812 323.02536Q302.09375 323.6816 300.875 323.6816Q299.64062 323.6816 298.89062 323.02536Q298.15625 322.3535 298.15625 321.25974Q298.15625 320.5566 298.53125 320.00974Q298.90625 319.44724 299.57812 319.166Q299.01562 318.88474 298.6875 318.38474Q298.35938 317.88474 298.35938 317.2441Q298.35938 316.166 299.04688 315.541Q299.73438 314.90036 300.875 314.90036Q302.0 314.90036 302.6875 315.541Q303.39062 316.166 303.39062 317.2441ZM302.5 321.2285Q302.5 320.50974 302.04688 320.07224Q301.59375 319.6191 300.85938 319.6191Q300.125 319.6191 299.67188 320.07224Q299.23438 320.50974 299.23438 321.2441Q299.23438 321.96286 299.67188 322.38474Q300.10938 322.791 300.875 322.791Q301.625 322.791 302.0625 322.3691Q302.5 321.94724 302.5 321.2285ZM300.875 315.791Q300.23438 315.791 299.82812 316.19724Q299.4375 316.58786 299.4375 317.27536Q299.4375 317.916 299.82812 318.32224Q300.21875 318.7285 300.85938 318.7285Q301.51562 318.7285 301.90625 318.32224Q302.29688 317.916 302.29688 317.27536Q302.29688 316.6191 301.89062 316.21286Q301.48438 315.791 300.875 315.791ZM310.79688 323.5566L305.20312 323.5566L305.20312 322.77536L308.15625 319.4941Q308.8125 318.7441 309.0625 318.291Q309.3125 317.82224 309.3125 317.32224Q309.3125 316.65036 308.90625 316.2285Q308.51562 315.791 307.82812 315.791Q307.03125 315.791 306.57812 316.25974Q306.125 316.71286 306.125 317.541L305.04688 317.541Q305.04688 316.3535 305.79688 315.63474Q306.5625 314.90036 307.82812 314.90036Q309.03125 314.90036 309.71875 315.52536Q310.40625 316.15036 310.40625 317.19724Q310.40625 318.44724 308.79688 320.19724L306.51562 322.666L310.79688 322.666L310.79688 323.5566ZM312.34375 322.9941Q312.34375 322.71286 312.5 322.52536Q312.67188 322.33786 313.0 322.33786Q313.34375 322.33786 313.51562 322.52536Q313.6875 322.71286 313.6875 322.9941Q313.6875 323.25974 313.51562 323.44724Q313.34375 323.6191 313.0 323.6191Q312.67188 323.6191 312.5 323.44724Q312.34375 323.25974 312.34375 322.9941ZM320.71875 315.63474L317.1875 323.5566L316.04688 323.5566L319.5625 315.916L314.95312 315.916L314.95312 315.02536L320.71875 315.02536L320.71875 315.63474ZM327.71875 315.63474L324.1875 323.5566L323.04688 323.5566L326.5625 315.916L321.95312 315.916L321.95312 315.02536L327.71875 315.02536L327.71875 315.63474Z" fill-rule="nonzero"/><path stroke="#34a853" stroke-width="3.0" stroke-linejoin="round" stroke-linecap="round" d="M347.76562 240.5464L346.6875 240.5464L346.6875 233.32765L344.5 234.12453L344.5 233.14015L347.60938 231.96828L347.76562 231.96828L347.76562 240.5464ZM356.79688 240.5464L351.20312 240.5464L351.20312 239.76515L354.15625 236.4839Q354.8125 235.7339 355.0625 235.28078Q355.3125 234.81203 355.3125 234.31203Q355.3125 233.64015 354.90625 233.21828Q354.51562 232.78078 353.82812 232.78078Q353.03125 232.78078 352.57812 233.24953Q352.125 233.70265 352.125 234.53078L351.04688 234.53078Q351.04688 233.34328 351.79688 232.62453Q352.5625 231.89015 353.82812 231.89015Q355.03125 231.89015 355.71875 232.51515Q356.40625 233.14015 356.40625 234.18703Q356.40625 235.43703 354.79688 237.18703L352.51562 239.65578L356.79688 239.65578L356.79688 240.5464ZM362.78125 237.68703L363.96875 237.68703L363.96875 238.56203L362.78125 238.56203L362.78125 240.5464L361.70312 240.5464L361.70312 238.56203L357.8125 238.56203L357.8125 237.9214L361.625 232.01515L362.78125 232.01515L362.78125 237.68703ZM359.04688 237.68703L361.70312 237.68703L361.70312 233.49953L361.5625 233.7339L359.04688 237.68703ZM365.34375 239.9839Q365.34375 239.70265 365.5 239.51515Q365.67188 239.32765 366.0 239.32765Q366.34375 239.32765 366.51562 239.51515Q366.6875 239.70265 366.6875 239.9839Q366.6875 240.24953 366.51562 240.43703Q366.34375 240.6089 366.0 240.6089Q365.67188 240.6089 365.5 240.43703Q365.34375 240.24953 365.34375 239.9839ZM372.78125 237.68703L373.96875 237.68703L373.96875 238.56203L372.78125 238.56203L372.78125 240.5464L371.70312 240.5464L371.70312 238.56203L367.8125 238.56203L367.8125 237.9214L371.625 232.01515L372.78125 232.01515L372.78125 237.68703ZM369.04688 237.68703L371.70312 237.68703L371.70312 233.49953L371.5625 233.7339L369.04688 237.68703Z" fill-rule="nonzero"/><path fill="#ffffff" d="M347.76562 240.5464L346.6875 240.5464L346.6875 233.32765L344.5 234.12453L344.5 233.14015L347.60938 231.96828L347.76562 231.96828L347.76562 240.5464ZM356.79688 240.5464L351.20312 240.5464L351.20312 239.76515L354.15625 236.4839Q354.8125 235.7339 355.0625 235.28078Q355.3125 234.81203 355.3125 234.31203Q355.3125 233.64015 354.90625 233.21828Q354.51562 232.78078 353.82812 232.78078Q353.03125 232.78078 352.57812 233.24953Q352.125 233.70265 352.125 234.53078L351.04688 234.53078Q351.04688 233.34328 351.79688 232.62453Q352.5625 231.89015 353.82812 231.89015Q355.03125 231.89015 355.71875 232.51515Q356.40625 233.14015 356.40625 234.18703Q356.40625 235.43703 354.79688 237.18703L352.51562 239.65578L356.79688 239.65578L356.79688 240.5464ZM362.78125 237.68703L363.96875 237.68703L363.96875 238.56203L362.78125 238.56203L362.78125 240.5464L361.70312 240.5464L361.70312 238.56203L357.8125 238.56203L357.8125 237.9214L361.625 232.01515L362.78125 232.01515L362.78125 237.68703ZM359.04688 237.68703L361.70312 237.68703L361.70312 233.49953L361.5625 233.7339L359.04688 237.68703ZM365.34375 239.9839Q365.34375 239.70265 365.5 239.51515Q365.67188 239.32765 366.0 239.32765Q366.34375 239.32765 366.51562 239.51515Q366.6875 239.70265 366.6875 239.9839Q366.6875 240.24953 366.51562 240.43703Q366.34375 240.6089 366.0 240.6089Q365.67188 240.6089 365.5 240.43703Q365.34375 240.24953 365.34375 239.9839ZM372.78125 237.68703L373.96875 237.68703L373.96875 238.56203L372.78125 238.56203L372.78125 240.5464L371.70312 240.5464L371.70312 238.56203L367.8125 238.56203L367.8125 237.9214L371.625 232.01515L372.78125 232.01515L372.78125 237.68703ZM369.04688 237.68703L371.70312 237.68703L371.70312 233.49953L371.5625 233.7339L369.04688 237.68703Z" fill-rule="nonzero"/><path stroke="#ff6d01" stroke-width="3.0" stroke-linejoin="round" stroke-linecap="round" d="M390.26562 158.57306L389.1875 158.57306L389.1875 151.35431L387.0 152.15118L387.0 151.16681L390.10938 149.99493L390.26562 149.99493L390.26562 158.57306ZM397.96875 150.04181L397.96875 150.94806L397.76562 150.94806Q396.5 150.97931 395.75 151.71368Q395.0 152.43243 394.875 153.74493Q395.5625 152.97931 396.71875 152.97931Q397.82812 152.97931 398.5 153.76056Q399.17188 154.54181 399.17188 155.79181Q399.17188 157.10431 398.45312 157.90118Q397.73438 158.69806 396.51562 158.69806Q395.29688 158.69806 394.53125 157.76056Q393.78125 156.80743 393.78125 155.32306L393.78125 154.91681Q393.78125 152.55743 394.78125 151.30743Q395.78125 150.05743 397.76562 150.04181L397.96875 150.04181ZM396.54688 153.88556Q395.98438 153.88556 395.51562 154.21368Q395.04688 154.54181 394.85938 155.05743L394.85938 155.44806Q394.85938 156.51056 395.32812 157.15118Q395.8125 157.79181 396.51562 157.79181Q397.25 157.79181 397.67188 157.26056Q398.09375 156.71368 398.09375 155.83868Q398.09375 154.96368 397.67188 154.43243Q397.25 153.88556 396.54688 153.88556ZM401.20312 154.29181L401.64062 150.04181L406.01562 150.04181L406.01562 151.04181L402.5625 151.04181L402.29688 153.36993Q402.9375 152.99493 403.73438 152.99493Q404.89062 152.99493 405.57812 153.77618Q406.26562 154.54181 406.26562 155.85431Q406.26562 157.16681 405.54688 157.93243Q404.84375 158.69806 403.5625 158.69806Q402.4375 158.69806 401.71875 158.07306Q401.0 157.43243 400.90625 156.32306L401.92188 156.32306Q402.03125 157.05743 402.45312 157.43243Q402.875 157.80743 403.5625 157.80743Q404.3125 157.80743 404.75 157.29181Q405.1875 156.77618 405.1875 155.86993Q405.1875 155.01056 404.71875 154.49493Q404.25 153.97931 403.46875 153.97931Q402.76562 153.97931 402.35938 154.27618L402.07812 154.51056L401.20312 154.29181ZM407.84375 158.01056Q407.84375 157.72931 408.0 157.54181Q408.17188 157.35431 408.5 157.35431Q408.84375 157.35431 409.01562 157.54181Q409.1875 157.72931 409.1875 158.01056Q409.1875 158.27618 409.01562 158.46368Q408.84375 158.63556 408.5 158.63556Q408.17188 158.63556 408.0 158.46368Q407.84375 158.27618 407.84375 158.01056ZM411.20312 154.29181L411.64062 150.04181L416.01562 150.04181L416.01562 151.04181L412.5625 151.04181L412.29688 153.36993Q412.9375 152.99493 413.73438 152.99493Q414.89062 152.99493 415.57812 153.77618Q416.26562 154.54181 416.26562 155.85431Q416.26562 157.16681 415.54688 157.93243Q414.84375 158.69806 413.5625 158.69806Q412.4375 158.69806 411.71875 158.07306Q411.0 157.43243 410.90625 156.32306L411.92188 156.32306Q412.03125 157.05743 412.45312 157.43243Q412.875 157.80743 413.5625 157.80743Q414.3125 157.80743 414.75 157.29181Q415.1875 156.77618 415.1875 155.86993Q415.1875 155.01056 414.71875 154.49493Q414.25 153.97931 413.46875 153.97931Q412.76562 153.97931 412.35938 154.27618L412.07812 154.51056L411.20312 154.29181ZM421.26562 158.57306L420.1875 158.57306L420.1875 151.35431L418.0 152.15118L418.0 151.16681L421.10938 149.99493L421.26562 149.99493L421.26562 158.57306Z" fill-rule="nonzero"/><path fill="#000000" d="M390.26562 158.57306L389.1875 158.57306L389.1875 151.35431L387.0 152.15118L387.0 151.16681L390.10938 149.99493L390.26562 149.99493L390.26562 158.57306ZM397.96875 150.04181L397.96875 150.94806L397.76562 150.94806Q396.5 150.97931 395.75 151.71368Q395.0 152.43243 394.875 153.74493Q395.5625 152.97931 396.71875 152.97931Q397.82812 152.97931 398.5 153.76056Q399.17188 154.54181 399.17188 155.79181Q399.17188 157.10431 398.45312 157.90118Q397.73438 158.69806 396.51562 158.69806Q395.29688 158.69806 394.53125 157.76056Q393.78125 156.80743 393.78125 155.32306L393.78125 154.91681Q393.78125 152.55743 394.78125 151.30743Q395.78125 150.05743 397.76562 150.04181L397.96875 150.04181ZM396.54688 153.88556Q395.98438 153.88556 395.51562 154.21368Q395.04688 154.54181 394.85938 155.05743L394.85938 155.44806Q394.85938 156.51056 395.32812 157.15118Q395.8125 157.79181 396.51562 157.79181Q397.25 157.79181 397.67188 157.26056Q398.09375 156.71368 398.09375 155.83868Q398.09375 154.96368 397.67188 154.43243Q397.25 153.88556 396.54688 153.88556ZM401.20312 154.29181L401.64062 150.04181L406.01562 150.04181L406.01562 151.04181L402.5625 151.04181L402.29688 153.36993Q402.9375 152.99493 403.73438 152.99493Q404.89062 152.99493 405.57812 153.77618Q406.26562 154.54181 406.26562 155.85431Q406.26562 157.16681 405.54688 157.93243Q404.84375 158.69806 403.5625 158.69806Q402.4375 158.69806 401.71875 158.07306Q401.0 157.43243 400.90625 156.32306L401.92188 156.32306Q402.03125 157.05743 402.45312 157.43243Q402.875 157.80743 403.5625 157.80743Q404.3125 157.80743 404.75 157.29181Q405.1875 156.77618 405.1875 155.86993Q405.1875 155.01056 404.71875 154.49493Q404.25 153.97931 403.46875 153.97931Q402.76562 153.97931 402.35938 154.27618L402.07812 154.51056L401.20312 154.29181ZM407.84375 158.01056Q407.84375 157.72931 408.0 157.54181Q408.17188 157.35431 408.5 157.35431Q408.84375 157.35431 409.01562 157.54181Q409.1875 157.72931 409.1875 158.01056Q409.1875 158.27618 409.01562 158.46368Q408.84375 158.63556 408.5 158.63556Q408.17188 158.63556 408.0 158.46368Q407.84375 158.27618 407.84375 158.01056ZM411.20312 154.29181L411.64062 150.04181L416.01562 150.04181L416.01562 151.04181L412.5625 151.04181L412.29688 153.36993Q412.9375 152.99493 413.73438 152.99493Q414.89062 152.99493 415.57812 153.77618Q416.26562 154.54181 416.26562 155.85431Q416.26562 157.16681 415.54688 157.93243Q414.84375 158.69806 413.5625 158.69806Q412.4375 158.69806 411.71875 158.07306Q411.0 157.43243 410.90625 156.32306L411.92188 156.32306Q412.03125 157.05743 412.45312 157.43243Q412.875 157.80743 413.5625 157.80743Q414.3125 157.80743 414.75 157.29181Q415.1875 156.77618 415.1875 155.86993Q415.1875 155.01056 414.71875 154.49493Q414.25 153.97931 413.46875 153.97931Q412.76562 153.97931 412.35938 154.27618L412.07812 154.51056L411.20312 154.29181ZM421.26562 158.57306L420.1875 158.57306L420.1875 151.35431L418.0 152.15118L418.0 151.16681L421.10938 149.99493L421.26562 149.99493L421.26562 158.57306Z" fill-rule="nonzero"/><path stroke="#46bdc6" stroke-width="3.0" stroke-linejoin="round" stroke-linecap="round" d="M440.46875 354.92532L440.46875 355.83157L440.26562 355.83157Q439.0 355.86282 438.25 356.5972Q437.5 357.31595 437.375 358.62845Q438.0625 357.86282 439.21875 357.86282Q440.32812 357.86282 441.0 358.64407Q441.67188 359.42532 441.67188 360.67532Q441.67188 361.98782 440.95312 362.7847Q440.23438 363.58157 439.01562 363.58157Q437.79688 363.58157 437.03125 362.64407Q436.28125 361.69095 436.28125 360.20657L436.28125 359.80032Q436.28125 357.44095 437.28125 356.19095Q438.28125 354.94095 440.26562 354.92532L440.46875 354.92532ZM439.04688 358.76907Q438.48438 358.76907 438.01562 359.0972Q437.54688 359.42532 437.35938 359.94095L437.35938 360.33157Q437.35938 361.39407 437.82812 362.0347Q438.3125 362.67532 439.01562 362.67532Q439.75 362.67532 440.17188 362.14407Q440.59375 361.5972 440.59375 360.7222Q440.59375 359.8472 440.17188 359.31595Q439.75 358.76907 439.04688 358.76907ZM448.79688 363.45657L443.20312 363.45657L443.20312 362.67532L446.15625 359.39407Q446.8125 358.64407 447.0625 358.19095Q447.3125 357.7222 447.3125 357.2222Q447.3125 356.55032 446.90625 356.12845Q446.51562 355.69095 445.82812 355.69095Q445.03125 355.69095 444.57812 356.1597Q444.125 356.61282 444.125 357.44095L443.04688 357.44095Q443.04688 356.25345 443.79688 355.5347Q444.5625 354.80032 445.82812 354.80032Q447.03125 354.80032 447.71875 355.42532Q448.40625 356.05032 448.40625 357.0972Q448.40625 358.3472 446.79688 360.0972L444.51562 362.56595L448.79688 362.56595L448.79688 363.45657ZM450.34375 362.89407Q450.34375 362.61282 450.5 362.42532Q450.67188 362.23782 451.0 362.23782Q451.34375 362.23782 451.51562 362.42532Q451.6875 362.61282 451.6875 362.89407Q451.6875 363.1597 451.51562 363.3472Q451.34375 363.51907 451.0 363.51907Q450.67188 363.51907 450.5 363.3472Q450.34375 363.1597 450.34375 362.89407ZM458.71875 355.5347L455.1875 363.45657L454.04688 363.45657L457.5625 355.81595L452.95312 355.81595L452.95312 354.92532L458.71875 354.92532L458.71875 355.5347ZM464.46875 354.92532L464.46875 355.83157L464.26562 355.83157Q463.0 355.86282 462.25 356.5972Q461.5 357.31595 461.375 358.62845Q462.0625 357.86282 463.21875 357.86282Q464.32812 357.86282 465.0 358.64407Q465.67188 359.42532 465.67188 360.67532Q465.67188 361.98782 464.95312 362.7847Q464.23438 363.58157 463.01562 363.58157Q461.79688 363.58157 461.03125 362.64407Q460.28125 361.69095 460.28125 360.20657L460.28125 359.80032Q460.28125 357.44095 461.28125 356.19095Q462.28125 354.94095 464.26562 354.92532L464.46875 354.92532ZM463.04688 358.76907Q462.48438 358.76907 462.01562 359.0972Q461.54688 359.42532 461.35938 359.94095L461.35938 360.33157Q461.35938 361.39407 461.82812 362.0347Q462.3125 362.67532 463.01562 362.67532Q463.75 362.67532 464.17188 362.14407Q464.59375 361.5972 464.59375 360.7222Q464.59375 359.8472 464.17188 359.31595Q463.75 358.76907 463.04688 358.76907Z" fill-rule="nonzero"/><path fill="#000000" d="M440.46875 354.92532L440.46875 355.83157L440.26562 355.83157Q439.0 355.86282 438.25 356.5972Q437.5 357.31595 437.375 358.62845Q438.0625 357.86282 439.21875 357.86282Q440.32812 357.86282 441.0 358.64407Q441.67188 359.42532 441.67188 360.67532Q441.67188 361.98782 440.95312 362.7847Q440.23438 363.58157 439.01562 363.58157Q437.79688 363.58157 437.03125 362.64407Q436.28125 361.69095 436.28125 360.20657L436.28125 359.80032Q436.28125 357.44095 437.28125 356.19095Q438.28125 354.94095 440.26562 354.92532L440.46875 354.92532ZM439.04688 358.76907Q438.48438 358.76907 438.01562 359.0972Q437.54688 359.42532 437.35938 359.94095L437.35938 360.33157Q437.35938 361.39407 437.82812 362.0347Q438.3125 362.67532 439.01562 362.67532Q439.75 362.67532 440.17188 362.14407Q440.59375 361.5972 440.59375 360.7222Q440.59375 359.8472 440.17188 359.31595Q439.75 358.76907 439.04688 358.76907ZM448.79688 363.45657L443.20312 363.45657L443.20312 362.67532L446.15625 359.39407Q446.8125 358.64407 447.0625 358.19095Q447.3125 357.7222 447.3125 357.2222Q447.3125 356.55032 446.90625 356.12845Q446.51562 355.69095 445.82812 355.69095Q445.03125 355.69095 444.57812 356.1597Q444.125 356.61282 444.125 357.44095L443.04688 357.44095Q443.04688 356.25345 443.79688 355.5347Q444.5625 354.80032 445.82812 354.80032Q447.03125 354.80032 447.71875 355.42532Q448.40625 356.05032 448.40625 357.0972Q448.40625 358.3472 446.79688 360.0972L444.51562 362.56595L448.79688 362.56595L448.79688 363.45657ZM450.34375 362.89407Q450.34375 362.61282 450.5 362.42532Q450.67188 362.23782 451.0 362.23782Q451.34375 362.23782 451.51562 362.42532Q451.6875 362.61282 451.6875 362.89407Q451.6875 363.1597 451.51562 363.3472Q451.34375 363.51907 451.0 363.51907Q450.67188 363.51907 450.5 363.3472Q450.34375 363.1597 450.34375 362.89407ZM458.71875 355.5347L455.1875 363.45657L454.04688 363.45657L457.5625 355.81595L452.95312 355.81595L452.95312 354.92532L458.71875 354.92532L458.71875 355.5347ZM464.46875 354.92532L464.46875 355.83157L464.26562 355.83157Q463.0 355.86282 462.25 356.5972Q461.5 357.31595 461.375 358.62845Q462.0625 357.86282 463.21875 357.86282Q464.32812 357.86282 465.0 358.64407Q465.67188 359.42532 465.67188 360.67532Q465.67188 361.98782 464.95312 362.7847Q464.23438 363.58157 463.01562 363.58157Q461.79688 363.58157 461.03125 362.64407Q460.28125 361.69095 460.28125 360.20657L460.28125 359.80032Q460.28125 357.44095 461.28125 356.19095Q462.28125 354.94095 464.26562 354.92532L464.46875 354.92532ZM463.04688 358.76907Q462.48438 358.76907 462.01562 359.0972Q461.54688 359.42532 461.35938 359.94095L461.35938 360.33157Q461.35938 361.39407 461.82812 362.0347Q462.3125 362.67532 463.01562 362.67532Q463.75 362.67532 464.17188 362.14407Q464.59375 361.5972 464.59375 360.7222Q464.59375 359.8472 464.17188 359.31595Q463.75 358.76907 463.04688 358.76907Z" fill-rule="nonzero"/><path fill="#000000" d="M39.7 471.5656Q39.7 470.03436 40.0125 469.1125Q40.325 468.175 40.934376 467.675Q41.559376 467.175 42.496876 467.175Q43.184376 467.175 43.7 467.45624Q44.23125 467.7375 44.575 468.26874Q44.91875 468.78436 45.10625 469.53436Q45.29375 470.28436 45.29375 471.5656Q45.29375 473.08124 44.98125 474.0031Q44.684376 474.925 44.059376 475.4406Q43.45 475.9406 42.496876 475.9406Q41.2625 475.9406 40.54375 475.05Q39.7 473.9875 39.7 471.5656ZM40.778126 471.5656Q40.778126 473.675 41.278126 474.3781Q41.778126 475.08124 42.496876 475.08124Q43.23125 475.08124 43.715626 474.3781Q44.215626 473.675 44.215626 471.5656Q44.215626 469.4406 43.715626 468.7531Q43.23125 468.05 42.48125 468.05Q41.7625 468.05 41.325 468.65936Q40.778126 469.4406 40.778126 471.5656Z" fill-rule="nonzero"/><path fill="#000000" d="M32.7 373.85L33.809376 373.75626Q33.934376 374.56876 34.371876 374.975Q34.825 375.38126 35.465626 375.38126Q36.215626 375.38126 36.746876 374.80313Q37.278126 374.225 37.278126 373.2875Q37.278126 372.38126 36.7625 371.86563Q36.2625 371.33438 35.434376 371.33438Q34.934376 371.33438 34.5125 371.56876Q34.10625 371.80313 33.871876 372.1625L32.8875 372.0375L33.715626 367.63126L37.996876 367.63126L37.996876 368.63126L34.559376 368.63126L34.10625 370.94376Q34.871876 370.39688 35.715626 370.39688Q36.840626 370.39688 37.60625 371.17813Q38.3875 371.95938 38.3875 373.19376Q38.3875 374.35 37.715626 375.20938Q36.8875 376.24063 35.465626 376.24063Q34.29375 376.24063 33.54375 375.58438Q32.809376 374.92813 32.7 373.85ZM39.7 371.86563Q39.7 370.33438 40.0125 369.4125Q40.325 368.475 40.934376 367.975Q41.559376 367.475 42.496876 367.475Q43.184376 367.475 43.7 367.75626Q44.23125 368.0375 44.575 368.56876Q44.91875 369.08438 45.10625 369.83438Q45.29375 370.58438 45.29375 371.86563Q45.29375 373.38126 44.98125 374.30313Q44.684376 375.225 44.059376 375.74063Q43.45 376.24063 42.496876 376.24063Q41.2625 376.24063 40.54375 375.35Q39.7 374.2875 39.7 371.86563ZM40.778126 371.86563Q40.778126 373.975 41.278126 374.67813Q41.778126 375.38126 42.496876 375.38126Q43.23125 375.38126 43.715626 374.67813Q44.215626 373.975 44.215626 371.86563Q44.215626 369.74063 43.715626 369.05313Q43.23125 368.35 42.48125 368.35Q41.7625 368.35 41.325 368.95938Q40.778126 369.74063 40.778126 371.86563Z" fill-rule="nonzero"/><path fill="#000000" d="M29.66875 276.4L28.621876 276.4L28.621876 269.68124Q28.23125 270.04062 27.60625 270.41562Q26.996876 270.775 26.5125 270.94687L26.5125 269.93124Q27.3875 269.50937 28.04375 268.93124Q28.715626 268.3375 28.996876 267.775L29.66875 267.775L29.66875 276.4ZM32.7 272.16562Q32.7 270.63437 33.0125 269.7125Q33.325 268.775 33.934376 268.275Q34.559376 267.775 35.496876 267.775Q36.184376 267.775 36.7 268.05624Q37.23125 268.3375 37.575 268.86874Q37.91875 269.38437 38.10625 270.13437Q38.29375 270.88437 38.29375 272.16562Q38.29375 273.68124 37.98125 274.60312Q37.684376 275.525 37.059376 276.04062Q36.45 276.54062 35.496876 276.54062Q34.2625 276.54062 33.54375 275.65Q32.7 274.5875 32.7 272.16562ZM33.778126 272.16562Q33.778126 274.275 34.278126 274.97812Q34.778126 275.68124 35.496876 275.68124Q36.23125 275.68124 36.715626 274.97812Q37.215626 274.275 37.215626 272.16562Q37.215626 270.04062 36.715626 269.35312Q36.23125 268.65 35.48125 268.65Q34.7625 268.65 34.325 269.25937Q33.778126 270.04062 33.778126 272.16562ZM39.7 272.16562Q39.7 270.63437 40.0125 269.7125Q40.325 268.775 40.934376 268.275Q41.559376 267.775 42.496876 267.775Q43.184376 267.775 43.7 268.05624Q44.23125 268.3375 44.575 268.86874Q44.91875 269.38437 45.10625 270.13437Q45.29375 270.88437 45.29375 272.16562Q45.29375 273.68124 44.98125 274.60312Q44.684376 275.525 44.059376 276.04062Q43.45 276.54062 42.496876 276.54062Q41.2625 276.54062 40.54375 275.65Q39.7 274.5875 39.7 272.16562ZM40.778126 272.16562Q40.778126 274.275 41.278126 274.97812Q41.778126 275.68124 42.496876 275.68124Q43.23125 275.68124 43.715626 274.97812Q44.215626 274.275 44.215626 272.16562Q44.215626 270.04062 43.715626 269.35312Q43.23125 268.65 42.48125 268.65Q41.7625 268.65 41.325 269.25937Q40.778126 270.04062 40.778126 272.16562Z" fill-rule="nonzero"/><path fill="#000000" d="M29.66875 176.7L28.621876 176.7L28.621876 169.98125Q28.23125 170.34062 27.60625 170.71562Q26.996876 171.075 26.5125 171.24687L26.5125 170.23125Q27.3875 169.80937 28.04375 169.23125Q28.715626 168.6375 28.996876 168.075L29.66875 168.075L29.66875 176.7ZM32.7 174.45L33.809376 174.35625Q33.934376 175.16875 34.371876 175.575Q34.825 175.98125 35.465626 175.98125Q36.215626 175.98125 36.746876 175.40312Q37.278126 174.825 37.278126 173.8875Q37.278126 172.98125 36.7625 172.46562Q36.2625 171.93437 35.434376 171.93437Q34.934376 171.93437 34.5125 172.16875Q34.10625 172.40312 33.871876 172.7625L32.8875 172.6375L33.715626 168.23125L37.996876 168.23125L37.996876 169.23125L34.559376 169.23125L34.10625 171.54375Q34.871876 170.99687 35.715626 170.99687Q36.840626 170.99687 37.60625 171.77812Q38.3875 172.55937 38.3875 173.79375Q38.3875 174.95 37.715626 175.80937Q36.8875 176.84062 35.465626 176.84062Q34.29375 176.84062 33.54375 176.18437Q32.809376 175.52812 32.7 174.45ZM39.7 172.46562Q39.7 170.93437 40.0125 170.0125Q40.325 169.075 40.934376 168.575Q41.559376 168.075 42.496876 168.075Q43.184376 168.075 43.7 168.35625Q44.23125 168.6375 44.575 169.16875Q44.91875 169.68437 45.10625 170.43437Q45.29375 171.18437 45.29375 172.46562Q45.29375 173.98125 44.98125 174.90312Q44.684376 175.825 44.059376 176.34062Q43.45 176.84062 42.496876 176.84062Q41.2625 176.84062 40.54375 175.95Q39.7 174.8875 39.7 172.46562ZM40.778126 172.46562Q40.778126 174.575 41.278126 175.27812Q41.778126 175.98125 42.496876 175.98125Q43.23125 175.98125 43.715626 175.27812Q44.215626 174.575 44.215626 172.46562Q44.215626 170.34062 43.715626 169.65312Q43.23125 168.95 42.48125 168.95Q41.7625 168.95 41.325 169.55937Q40.778126 170.34062 40.778126 172.46562Z" fill-rule="nonzero"/><path fill="#000000" d="M31.246876 75.984375L31.246876 77.0L25.559376 77.0Q25.559376 76.625 25.684376 76.265625Q25.903126 75.6875 26.371876 75.125Q26.85625 74.5625 27.7625 73.828125Q29.16875 72.671875 29.653126 72.0Q30.153126 71.328125 30.153126 70.734375Q30.153126 70.109375 29.7 69.6875Q29.246876 69.25 28.528126 69.25Q27.7625 69.25 27.309376 69.703125Q26.85625 70.15625 26.840626 70.96875L25.7625 70.859375Q25.871876 69.640625 26.590626 69.015625Q27.325 68.375 28.559376 68.375Q29.79375 68.375 30.5125 69.0625Q31.23125 69.75 31.23125 70.765625Q31.23125 71.28125 31.0125 71.78125Q30.809376 72.265625 30.309376 72.828125Q29.825 73.375 28.7 74.328125Q27.746876 75.125 27.465626 75.421875Q27.2 75.703125 27.028126 75.984375L31.246876 75.984375ZM32.7 72.765625Q32.7 71.234375 33.0125 70.3125Q33.325 69.375 33.934376 68.875Q34.559376 68.375 35.496876 68.375Q36.184376 68.375 36.7 68.65625Q37.23125 68.9375 37.575 69.46875Q37.91875 69.984375 38.10625 70.734375Q38.29375 71.484375 38.29375 72.765625Q38.29375 74.28125 37.98125 75.203125Q37.684376 76.125 37.059376 76.640625Q36.45 77.140625 35.496876 77.140625Q34.2625 77.140625 33.54375 76.25Q32.7 75.1875 32.7 72.765625ZM33.778126 72.765625Q33.778126 74.875 34.278126 75.578125Q34.778126 76.28125 35.496876 76.28125Q36.23125 76.28125 36.715626 75.578125Q37.215626 74.875 37.215626 72.765625Q37.215626 70.640625 36.715626 69.953125Q36.23125 69.25 35.48125 69.25Q34.7625 69.25 34.325 69.859375Q33.778126 70.640625 33.778126 72.765625ZM39.7 72.765625Q39.7 71.234375 40.0125 70.3125Q40.325 69.375 40.934376 68.875Q41.559376 68.375 42.496876 68.375Q43.184376 68.375 43.7 68.65625Q44.23125 68.9375 44.575 69.46875Q44.91875 69.984375 45.10625 70.734375Q45.29375 71.484375 45.29375 72.765625Q45.29375 74.28125 44.98125 75.203125Q44.684376 76.125 44.059376 76.640625Q43.45 77.140625 42.496876 77.140625Q41.2625 77.140625 40.54375 76.25Q39.7 75.1875 39.7 72.765625ZM40.778126 72.765625Q40.778126 74.875 41.278126 75.578125Q41.778126 76.28125 42.496876 76.28125Q43.23125 76.28125 43.715626 75.578125Q44.215626 74.875 44.215626 72.765625Q44.215626 70.640625 43.715626 69.953125Q43.23125 69.25 42.48125 69.25Q41.7625 69.25 41.325 69.859375Q40.778126 70.640625 40.778126 72.765625Z" fill-rule="nonzero"/><path fill="#4285f4" d="M646.8 73.0C646.8 72.447716 647.24774 72.0 647.8 72.0L657.8 72.0C658.3523 72.0 658.8 72.447716 658.8 73.0L658.8 83.0C658.8 83.552284 658.3523 84.0 657.8 84.0L647.8 84.0C647.24774 84.0 646.8 83.552284 646.8 83.0Z" fill-rule="nonzero"/><path fill="#1a1a1a" d="M668.1281 72.703125L668.1281 70.6875L669.89374 70.6875L669.89374 72.703125L668.1281 72.703125ZM668.1281 85.0L668.1281 74.625L669.89374 74.625L669.89374 85.0L668.1281 85.0ZM671.7531 72.5625L671.7531 70.875L681.01874 70.875L681.01874 72.234375Q679.64374 73.6875 678.3 76.109375Q676.95624 78.515625 676.2375 81.0625Q675.70624 82.859375 675.55 85.0L673.7531 85.0Q673.78436 83.3125 674.40936 80.921875Q675.05 78.53125 676.2375 76.3125Q677.425 74.078125 678.7531 72.5625L671.7531 72.5625ZM682.4406 80.703125L682.4406 78.9375L687.83124 78.9375L687.83124 80.703125L682.4406 80.703125ZM692.33124 77.234375Q691.2375 76.828125 690.70624 76.09375Q690.1906 75.34375 690.1906 74.3125Q690.1906 72.75 691.3156 71.6875Q692.4406 70.625 694.3 70.625Q696.175 70.625 697.3156 71.71875Q698.45624 72.796875 698.45624 74.359375Q698.45624 75.359375 697.925 76.09375Q697.40936 76.828125 696.34686 77.234375Q697.675 77.671875 698.3625 78.625Q699.05 79.578125 699.05 80.90625Q699.05 82.75 697.7375 84.0Q696.4406 85.25 694.33124 85.25Q692.20624 85.25 690.90936 84.0Q689.6125 82.734375 689.6125 80.859375Q689.6125 79.46875 690.3156 78.53125Q691.03436 77.578125 692.33124 77.234375ZM691.9875 74.25Q691.9875 75.265625 692.64374 75.921875Q693.3 76.5625 694.33124 76.5625Q695.34686 76.5625 696.0031 75.921875Q696.65936 75.28125 696.65936 74.359375Q696.65936 73.390625 695.9875 72.734375Q695.3156 72.0625 694.3156 72.0625Q693.3156 72.0625 692.64374 72.71875Q691.9875 73.359375 691.9875 74.25ZM691.425 80.875Q691.425 81.625 691.76874 82.328125Q692.1281 83.03125 692.83124 83.421875Q693.53436 83.796875 694.34686 83.796875Q695.6125 83.796875 696.425 82.984375Q697.2531 82.171875 697.2531 80.921875Q697.2531 79.65625 696.40936 78.828125Q695.5656 78.0 694.28436 78.0Q693.05 78.0 692.2375 78.828125Q691.425 79.640625 691.425 80.875ZM700.7531 72.5625L700.7531 70.875L710.01874 70.875L710.01874 72.234375Q708.64374 73.6875 707.3 76.109375Q705.95624 78.515625 705.2375 81.0625Q704.70624 82.859375 704.55 85.0L702.7531 85.0Q702.78436 83.3125 703.40936 80.921875Q704.05 78.53125 705.2375 76.3125Q706.425 74.078125 707.7531 72.5625L700.7531 72.5625ZM711.6281 77.9375Q711.6281 75.40625 712.14374 73.859375Q712.675 72.296875 713.70624 71.46875Q714.7375 70.625 716.3 70.625Q717.45624 70.625 718.3156 71.09375Q719.1906 71.546875 719.7531 72.421875Q720.3156 73.296875 720.64374 74.5625Q720.97186 75.8125 720.97186 77.9375Q720.97186 80.453125 720.4406 82.0Q719.925 83.546875 718.89374 84.40625Q717.8781 85.25 716.3 85.25Q714.22186 85.25 713.05 83.765625Q711.6281 81.96875 711.6281 77.9375ZM713.4406 77.9375Q713.4406 81.46875 714.2531 82.640625Q715.08124 83.796875 716.3 83.796875Q717.5031 83.796875 718.33124 82.625Q719.15936 81.453125 719.15936 77.9375Q719.15936 74.40625 718.33124 73.25Q717.5031 72.078125 716.28436 72.078125Q715.0656 72.078125 714.34686 73.109375Q713.4406 74.40625 713.4406 77.9375ZM722.6281 77.9375Q722.6281 75.40625 723.14374 73.859375Q723.675 72.296875 724.70624 71.46875Q725.7375 70.625 727.3 70.625Q728.45624 70.625 729.3156 71.09375Q730.1906 71.546875 730.7531 72.421875Q731.3156 73.296875 731.64374 74.5625Q731.97186 75.8125 731.97186 77.9375Q731.97186 80.453125 731.4406 82.0Q730.925 83.546875 729.89374 84.40625Q728.8781 85.25 727.3 85.25Q725.22186 85.25 724.05 83.765625Q722.6281 81.96875 722.6281 77.9375ZM724.4406 77.9375Q724.4406 81.46875 725.2531 82.640625Q726.08124 83.796875 727.3 83.796875Q728.5031 83.796875 729.33124 82.625Q730.15936 81.453125 730.15936 77.9375Q730.15936 74.40625 729.33124 73.25Q728.5031 72.078125 727.28436 72.078125Q726.0656 72.078125 725.34686 73.109375Q724.4406 74.40625 724.4406 77.9375ZM734.26874 85.0L734.26874 70.6875L736.15936 70.6875L736.15936 77.78125L743.26874 70.6875L745.83124 70.6875L739.83124 76.484375L746.09686 85.0L743.59686 85.0L738.5031 77.75L736.15936 80.03125L736.15936 85.0L734.26874 85.0Z" fill-rule="nonzero"/><path fill="#ea4335" d="M646.8 107.0C646.8 106.447716 647.24774 106.0 647.8 106.0L657.8 106.0C658.3523 106.0 658.8 106.447716 658.8 107.0L658.8 117.0C658.8 117.552284 658.3523 118.0 657.8 118.0L647.8 118.0C647.24774 118.0 646.8 117.552284 646.8 117.0Z" fill-rule="nonzero"/><path fill="#1a1a1a" d="M667.64374 115.21875L669.39374 114.984375Q669.70624 116.484375 670.425 117.140625Q671.15936 117.796875 672.20624 117.796875Q673.4406 117.796875 674.28436 116.9375Q675.14374 116.078125 675.14374 114.8125Q675.14374 113.59375 674.34686 112.8125Q673.5656 112.03125 672.34686 112.03125Q671.84686 112.03125 671.1125 112.21875L671.3 110.671875Q671.47186 110.703125 671.58124 110.703125Q672.70624 110.703125 673.59686 110.125Q674.5031 109.53125 674.5031 108.3125Q674.5031 107.34375 673.84686 106.703125Q673.1906 106.0625 672.15936 106.0625Q671.14374 106.0625 670.45624 106.71875Q669.76874 107.359375 669.58124 108.640625L667.8156 108.328125Q668.14374 106.5625 669.28436 105.59375Q670.425 104.625 672.1281 104.625Q673.3 104.625 674.28436 105.125Q675.26874 105.625 675.78436 106.5Q676.3156 107.375 676.3156 108.34375Q676.3156 109.265625 675.8156 110.03125Q675.3156 110.796875 674.34686 111.25Q675.6125 111.53125 676.3156 112.46875Q677.01874 113.390625 677.01874 114.765625Q677.01874 116.640625 675.64374 117.953125Q674.28436 119.25 672.1906 119.25Q670.3 119.25 669.05 118.125Q667.8156 117.0 667.64374 115.21875ZM678.89374 115.6875L680.58124 115.53125Q680.8 116.71875 681.39374 117.265625Q682.0031 117.796875 682.95624 117.796875Q683.76874 117.796875 684.3781 117.4375Q684.9875 117.0625 685.3781 116.4375Q685.76874 115.8125 686.03436 114.765625Q686.3 113.703125 686.3 112.609375Q686.3 112.5 686.28436 112.265625Q685.7531 113.09375 684.84686 113.625Q683.9406 114.140625 682.8625 114.140625Q681.09686 114.140625 679.8625 112.859375Q678.6281 111.5625 678.6281 109.453125Q678.6281 107.28125 679.90936 105.953125Q681.20624 104.625 683.1281 104.625Q684.53436 104.625 685.6906 105.375Q686.84686 106.125 687.4406 107.515625Q688.05 108.90625 688.05 111.546875Q688.05 114.296875 687.4406 115.921875Q686.84686 117.546875 685.675 118.40625Q684.5031 119.25 682.925 119.25Q681.2375 119.25 680.175 118.3125Q679.1125 117.375 678.89374 115.6875ZM686.09686 109.375Q686.09686 107.859375 685.28436 106.96875Q684.4875 106.078125 683.34686 106.078125Q682.175 106.078125 681.3 107.046875Q680.4406 108.0 680.4406 109.515625Q680.4406 110.890625 681.2531 111.75Q682.08124 112.59375 683.3 112.59375Q684.51874 112.59375 685.3 111.75Q686.09686 110.890625 686.09686 109.375ZM689.6281 115.25L691.47186 115.09375Q691.675 116.4375 692.425 117.125Q693.175 117.796875 694.2375 117.796875Q695.5031 117.796875 696.3781 116.84375Q697.2531 115.890625 697.2531 114.296875Q697.2531 112.796875 696.40936 111.9375Q695.5656 111.0625 694.20624 111.0625Q693.34686 111.0625 692.65936 111.453125Q691.9875 111.828125 691.59686 112.453125L689.9406 112.234375L691.33124 104.875L698.45624 104.875L698.45624 106.5625L692.7375 106.5625L691.97186 110.40625Q693.2531 109.5 694.675 109.5Q696.55 109.5 697.83124 110.8125Q699.1281 112.109375 699.1281 114.140625Q699.1281 116.09375 697.9875 117.5Q696.6125 119.25 694.2375 119.25Q692.28436 119.25 691.03436 118.15625Q689.8 117.0625 689.6281 115.25ZM700.6281 111.9375Q700.6281 109.40625 701.14374 107.859375Q701.675 106.296875 702.70624 105.46875Q703.7375 104.625 705.3 104.625Q706.45624 104.625 707.3156 105.09375Q708.1906 105.546875 708.7531 106.421875Q709.3156 107.296875 709.64374 108.5625Q709.97186 109.8125 709.97186 111.9375Q709.97186 114.453125 709.4406 116.0Q708.925 117.546875 707.89374 118.40625Q706.8781 119.25 705.3 119.25Q703.22186 119.25 702.05 117.765625Q700.6281 115.96875 700.6281 111.9375ZM702.4406 111.9375Q702.4406 115.46875 703.2531 116.640625Q704.08124 117.796875 705.3 117.796875Q706.5031 117.796875 707.33124 116.625Q708.15936 115.453125 708.15936 111.9375Q708.15936 108.40625 707.33124 107.25Q706.5031 106.078125 705.28436 106.078125Q704.0656 106.078125 703.34686 107.109375Q702.4406 108.40625 702.4406 111.9375ZM710.9406 119.0L714.7375 113.609375L711.2375 108.625L713.425 108.625L715.01874 111.0625Q715.47186 111.75 715.7375 112.21875Q716.175 111.578125 716.53436 111.078125L718.28436 108.625L720.3781 108.625L716.8 113.515625L720.65936 119.0L718.5031 119.0L716.3625 115.78125L715.8 114.90625L713.08124 119.0L710.9406 119.0Z" fill-rule="nonzero"/><path fill="#fbbc04" d="M646.8 141.0C646.8 140.44771 647.24774 140.0 647.8 140.0L657.8 140.0C658.3523 140.0 658.8 140.44771 658.8 141.0L658.8 151.0C658.8 151.55229 658.3523 152.0 657.8 152.0L647.8 152.0C647.24774 152.0 646.8 151.55229 646.8 151.0Z" fill-rule="nonzero"/><path fill="#1a1a1a" d="M668.1281 140.70312L668.1281 138.6875L669.89374 138.6875L669.89374 140.70312L668.1281 140.70312ZM668.1281 153.0L668.1281 142.625L669.89374 142.625L669.89374 153.0L668.1281 153.0ZM671.89374 149.6875L673.58124 149.53125Q673.8 150.71875 674.39374 151.26562Q675.0031 151.79688 675.95624 151.79688Q676.76874 151.79688 677.3781 151.4375Q677.9875 151.0625 678.3781 150.4375Q678.76874 149.8125 679.03436 148.76562Q679.3 147.70312 679.3 146.60938Q679.3 146.5 679.28436 146.26562Q678.7531 147.09375 677.84686 147.625Q676.9406 148.14062 675.8625 148.14062Q674.09686 148.14062 672.8625 146.85938Q671.6281 145.5625 671.6281 143.45312Q671.6281 141.28125 672.90936 139.95312Q674.20624 138.625 676.1281 138.625Q677.53436 138.625 678.6906 139.375Q679.84686 140.125 680.4406 141.51562Q681.05 142.90625 681.05 145.54688Q681.05 148.29688 680.4406 149.92188Q679.84686 151.54688 678.675 152.40625Q677.5031 153.25 675.925 153.25Q674.2375 153.25 673.175 152.3125Q672.1125 151.375 671.89374 149.6875ZM679.09686 143.375Q679.09686 141.85938 678.28436 140.96875Q677.4875 140.07812 676.34686 140.07812Q675.175 140.07812 674.3 141.04688Q673.4406 142.0 673.4406 143.51562Q673.4406 144.89062 674.2531 145.75Q675.08124 146.59375 676.3 146.59375Q677.51874 146.59375 678.3 145.75Q679.09686 144.89062 679.09686 143.375ZM682.4406 148.70312L682.4406 146.9375L687.83124 146.9375L687.83124 148.70312L682.4406 148.70312ZM692.33124 145.23438Q691.2375 144.82812 690.70624 144.09375Q690.1906 143.34375 690.1906 142.3125Q690.1906 140.75 691.3156 139.6875Q692.4406 138.625 694.3 138.625Q696.175 138.625 697.3156 139.71875Q698.45624 140.79688 698.45624 142.35938Q698.45624 143.35938 697.925 144.09375Q697.40936 144.82812 696.34686 145.23438Q697.675 145.67188 698.3625 146.625Q699.05 147.57812 699.05 148.90625Q699.05 150.75 697.7375 152.0Q696.4406 153.25 694.33124 153.25Q692.20624 153.25 690.90936 152.0Q689.6125 150.73438 689.6125 148.85938Q689.6125 147.46875 690.3156 146.53125Q691.03436 145.57812 692.33124 145.23438ZM691.9875 142.25Q691.9875 143.26562 692.64374 143.92188Q693.3 144.5625 694.33124 144.5625Q695.34686 144.5625 696.0031 143.92188Q696.65936 143.28125 696.65936 142.35938Q696.65936 141.39062 695.9875 140.73438Q695.3156 140.0625 694.3156 140.0625Q693.3156 140.0625 692.64374 140.71875Q691.9875 141.35938 691.9875 142.25ZM691.425 148.875Q691.425 149.625 691.76874 150.32812Q692.1281 151.03125 692.83124 151.42188Q693.53436 151.79688 694.34686 151.79688Q695.6125 151.79688 696.425 150.98438Q697.2531 150.17188 697.2531 148.92188Q697.2531 147.65625 696.40936 146.82812Q695.5656 146.0 694.28436 146.0Q693.05 146.0 692.2375 146.82812Q691.425 147.64062 691.425 148.875ZM700.89374 149.6875L702.58124 149.53125Q702.8 150.71875 703.39374 151.26562Q704.0031 151.79688 704.95624 151.79688Q705.76874 151.79688 706.3781 151.4375Q706.9875 151.0625 707.3781 150.4375Q707.76874 149.8125 708.03436 148.76562Q708.3 147.70312 708.3 146.60938Q708.3 146.5 708.28436 146.26562Q707.7531 147.09375 706.84686 147.625Q705.9406 148.14062 704.8625 148.14062Q703.09686 148.14062 701.8625 146.85938Q700.6281 145.5625 700.6281 143.45312Q700.6281 141.28125 701.90936 139.95312Q703.20624 138.625 705.1281 138.625Q706.53436 138.625 707.6906 139.375Q708.84686 140.125 709.4406 141.51562Q710.05 142.90625 710.05 145.54688Q710.05 148.29688 709.4406 149.92188Q708.84686 151.54688 707.675 152.40625Q706.5031 153.25 704.925 153.25Q703.2375 153.25 702.175 152.3125Q701.1125 151.375 700.89374 149.6875ZM708.09686 143.375Q708.09686 141.85938 707.28436 140.96875Q706.4875 140.07812 705.34686 140.07812Q704.175 140.07812 703.3 141.04688Q702.4406 142.0 702.4406 143.51562Q702.4406 144.89062 703.2531 145.75Q704.08124 146.59375 705.3 146.59375Q706.51874 146.59375 707.3 145.75Q708.09686 144.89062 708.09686 143.375ZM711.6281 149.25L713.47186 149.09375Q713.675 150.4375 714.425 151.125Q715.175 151.79688 716.2375 151.79688Q717.5031 151.79688 718.3781 150.84375Q719.2531 149.89062 719.2531 148.29688Q719.2531 146.79688 718.40936 145.9375Q717.5656 145.0625 716.20624 145.0625Q715.34686 145.0625 714.65936 145.45312Q713.9875 145.82812 713.59686 146.45312L711.9406 146.23438L713.33124 138.875L720.45624 138.875L720.45624 140.5625L714.7375 140.5625L713.97186 144.40625Q715.2531 143.5 716.675 143.5Q718.55 143.5 719.83124 144.8125Q721.1281 146.10938 721.1281 148.14062Q721.1281 150.09375 719.9875 151.5Q718.6125 153.25 716.2375 153.25Q714.28436 153.25 713.03436 152.15625Q711.8 151.0625 711.6281 149.25ZM722.6281 145.9375Q722.6281 143.40625 723.14374 141.85938Q723.675 140.29688 724.70624 139.46875Q725.7375 138.625 727.3 138.625Q728.45624 138.625 729.3156 139.09375Q730.1906 139.54688 730.7531 140.42188Q731.3156 141.29688 731.64374 142.5625Q731.97186 143.8125 731.97186 145.9375Q731.97186 148.45312 731.4406 150.0Q730.925 151.54688 729.89374 152.40625Q728.8781 153.25 727.3 153.25Q725.22186 153.25 724.05 151.76562Q722.6281 149.96875 722.6281 145.9375ZM724.4406 145.9375Q724.4406 149.46875 725.2531 150.64062Q726.08124 151.79688 727.3 151.79688Q728.5031 151.79688 729.33124 150.625Q730.15936 149.45312 730.15936 145.9375Q730.15936 142.40625 729.33124 141.25Q728.5031 140.07812 727.28436 140.07812Q726.0656 140.07812 725.34686 141.10938Q724.4406 142.40625 724.4406 145.9375ZM734.40936 153.0L734.40936 138.6875L736.3 138.6875L736.3 144.5625L743.7375 144.5625L743.7375 138.6875L745.6281 138.6875L745.6281 153.0L743.7375 153.0L743.7375 146.25L736.3 146.25L736.3 153.0L734.40936 153.0ZM748.26874 153.0L748.26874 138.6875L750.15936 138.6875L750.15936 145.78125L757.26874 138.6875L759.83124 138.6875L753.83124 144.48438L760.09686 153.0L757.59686 153.0L752.5031 145.75L750.15936 148.03125L750.15936 153.0L748.26874 153.0Z" fill-rule="nonzero"/><path fill="#34a853" d="M646.8 175.0C646.8 174.44771 647.24774 174.0 647.8 174.0L657.8 174.0C658.3523 174.0 658.8 174.44771 658.8 175.0L658.8 185.0C658.8 185.55229 658.3523 186.0 657.8 186.0L647.8 186.0C647.24774 186.0 646.8 185.55229 646.8 185.0Z" fill-rule="nonzero"/><path fill="#1a1a1a" d="M668.1281 174.70312L668.1281 172.6875L669.89374 172.6875L669.89374 174.70312L668.1281 174.70312ZM668.1281 187.0L668.1281 176.625L669.89374 176.625L669.89374 187.0L668.1281 187.0ZM671.7531 174.5625L671.7531 172.875L681.01874 172.875L681.01874 174.23438Q679.64374 175.6875 678.3 178.10938Q676.95624 180.51562 676.2375 183.0625Q675.70624 184.85938 675.55 187.0L673.7531 187.0Q673.78436 185.3125 674.40936 182.92188Q675.05 180.53125 676.2375 178.3125Q677.425 176.07812 678.7531 174.5625L671.7531 174.5625ZM682.4406 182.70312L682.4406 180.9375L687.83124 180.9375L687.83124 182.70312L682.4406 182.70312ZM695.26874 187.0L695.26874 183.57812L689.05 183.57812L689.05 181.95312L695.58124 172.6875L697.01874 172.6875L697.01874 181.95312L698.95624 181.95312L698.95624 183.57812L697.01874 183.57812L697.01874 187.0L695.26874 187.0ZM695.26874 181.95312L695.26874 175.5L690.78436 181.95312L695.26874 181.95312ZM700.89374 183.6875L702.58124 183.53125Q702.8 184.71875 703.39374 185.26562Q704.0031 185.79688 704.95624 185.79688Q705.76874 185.79688 706.3781 185.4375Q706.9875 185.0625 707.3781 184.4375Q707.76874 183.8125 708.03436 182.76562Q708.3 181.70312 708.3 180.60938Q708.3 180.5 708.28436 180.26562Q707.7531 181.09375 706.84686 181.625Q705.9406 182.14062 704.8625 182.14062Q703.09686 182.14062 701.8625 180.85938Q700.6281 179.5625 700.6281 177.45312Q700.6281 175.28125 701.90936 173.95312Q703.20624 172.625 705.1281 172.625Q706.53436 172.625 707.6906 173.375Q708.84686 174.125 709.4406 175.51562Q710.05 176.90625 710.05 179.54688Q710.05 182.29688 709.4406 183.92188Q708.84686 185.54688 707.675 186.40625Q706.5031 187.25 704.925 187.25Q703.2375 187.25 702.175 186.3125Q701.1125 185.375 700.89374 183.6875ZM708.09686 177.375Q708.09686 175.85938 707.28436 174.96875Q706.4875 174.07812 705.34686 174.07812Q704.175 174.07812 703.3 175.04688Q702.4406 176.0 702.4406 177.51562Q702.4406 178.89062 703.2531 179.75Q704.08124 180.59375 705.3 180.59375Q706.51874 180.59375 707.3 179.75Q708.09686 178.89062 708.09686 177.375ZM720.7531 176.1875L719.0031 176.32812Q718.76874 175.29688 718.34686 174.82812Q717.6281 174.0625 716.58124 174.0625Q715.7375 174.0625 715.1125 174.53125Q714.28436 175.14062 713.8 176.3125Q713.3156 177.46875 713.3 179.60938Q713.9406 178.65625 714.84686 178.1875Q715.76874 177.71875 716.78436 177.71875Q718.53436 177.71875 719.76874 179.01562Q721.0031 180.29688 721.0031 182.34375Q721.0031 183.70312 720.425 184.85938Q719.84686 186.01562 718.83124 186.64062Q717.8156 187.25 716.51874 187.25Q714.33124 187.25 712.9406 185.64062Q711.55 184.01562 711.55 180.29688Q711.55 176.15625 713.08124 174.26562Q714.425 172.625 716.6906 172.625Q718.3781 172.625 719.45624 173.57812Q720.53436 174.51562 720.7531 176.1875ZM713.58124 182.35938Q713.58124 183.26562 713.95624 184.09375Q714.34686 184.92188 715.03436 185.35938Q715.7375 185.79688 716.4875 185.79688Q717.6125 185.79688 718.40936 184.90625Q719.20624 184.0 719.20624 182.45312Q719.20624 180.96875 718.40936 180.125Q717.6281 179.26562 716.425 179.26562Q715.2375 179.26562 714.40936 180.125Q713.58124 180.96875 713.58124 182.35938ZM722.6281 179.9375Q722.6281 177.40625 723.14374 175.85938Q723.675 174.29688 724.70624 173.46875Q725.7375 172.625 727.3 172.625Q728.45624 172.625 729.3156 173.09375Q730.1906 173.54688 730.7531 174.42188Q731.3156 175.29688 731.64374 176.5625Q731.97186 177.8125 731.97186 179.9375Q731.97186 182.45312 731.4406 184.0Q730.925 185.54688 729.89374 186.40625Q728.8781 187.25 727.3 187.25Q725.22186 187.25 724.05 185.76562Q722.6281 183.96875 722.6281 179.9375ZM724.4406 179.9375Q724.4406 183.46875 725.2531 184.64062Q726.08124 185.79688 727.3 185.79688Q728.5031 185.79688 729.33124 184.625Q730.15936 183.45312 730.15936 179.9375Q730.15936 176.40625 729.33124 175.25Q728.5031 174.07812 727.28436 174.07812Q726.0656 174.07812 725.34686 175.10938Q724.4406 176.40625 724.4406 179.9375ZM734.40936 187.0L734.40936 172.6875L736.3 172.6875L736.3 178.5625L743.7375 178.5625L743.7375 172.6875L745.6281 172.6875L745.6281 187.0L743.7375 187.0L743.7375 180.25L736.3 180.25L736.3 187.0L734.40936 187.0ZM759.1906 185.46875Q760.51874 186.375 761.6281 186.79688L761.0656 188.10938Q759.51874 187.5625 757.9875 186.35938Q756.39374 187.25 754.47186 187.25Q752.53436 187.25 750.9406 186.3125Q749.3625 185.375 748.5031 183.67188Q747.65936 181.96875 747.65936 179.84375Q747.65936 177.71875 748.51874 175.98438Q749.3781 174.25 750.95624 173.34375Q752.55 172.42188 754.51874 172.42188Q756.5031 172.42188 758.08124 173.375Q759.675 174.3125 760.5031 176.01562Q761.34686 177.70312 761.34686 179.82812Q761.34686 181.59375 760.8156 183.01562Q760.28436 184.42188 759.1906 185.46875ZM755.01874 183.04688Q756.65936 183.5 757.72186 184.40625Q759.39374 182.89062 759.39374 179.82812Q759.39374 178.09375 758.8 176.79688Q758.22186 175.5 757.08124 174.78125Q755.9406 174.0625 754.51874 174.0625Q752.40936 174.0625 751.0031 175.51562Q749.6125 176.95312 749.6125 179.84375Q749.6125 182.64062 750.9875 184.14062Q752.3781 185.625 754.51874 185.625Q755.53436 185.625 756.4406 185.23438Q755.55 184.67188 754.5656 184.42188L755.01874 183.04688Z" fill-rule="nonzero"/><path fill="#ff6d01" d="M646.8 209.0C646.8 208.44771 647.24774 208.0 647.8 208.0L657.8 208.0C658.3523 208.0 658.8 208.44771 658.8 209.0L658.8 219.0C658.8 219.55229 658.3523 220.0 657.8 220.0L647.8 220.0C647.24774 220.0 646.8 219.55229 646.8 219.0Z" fill-rule="nonzero"/><path fill="#1a1a1a" d="M668.1281 208.70312L668.1281 206.6875L669.89374 206.6875L669.89374 208.70312L668.1281 208.70312ZM668.1281 221.0L668.1281 210.625L669.89374 210.625L669.89374 221.0L668.1281 221.0ZM671.6281 217.25L673.47186 217.09375Q673.675 218.4375 674.425 219.125Q675.175 219.79688 676.2375 219.79688Q677.5031 219.79688 678.3781 218.84375Q679.2531 217.89062 679.2531 216.29688Q679.2531 214.79688 678.40936 213.9375Q677.5656 213.0625 676.20624 213.0625Q675.34686 213.0625 674.65936 213.45312Q673.9875 213.82812 673.59686 214.45312L671.9406 214.23438L673.33124 206.875L680.45624 206.875L680.45624 208.5625L674.7375 208.5625L673.97186 212.40625Q675.2531 211.5 676.675 211.5Q678.55 211.5 679.83124 212.8125Q681.1281 214.10938 681.1281 216.14062Q681.1281 218.09375 679.9875 219.5Q678.6125 221.25 676.2375 221.25Q674.28436 221.25 673.03436 220.15625Q671.8 219.0625 671.6281 217.25ZM682.4406 216.70312L682.4406 214.9375L687.83124 214.9375L687.83124 216.70312L682.4406 216.70312ZM689.7531 208.5625L689.7531 206.875L699.01874 206.875L699.01874 208.23438Q697.64374 209.6875 696.3 212.10938Q694.95624 214.51562 694.2375 217.0625Q693.70624 218.85938 693.55 221.0L691.7531 221.0Q691.78436 219.3125 692.40936 216.92188Q693.05 214.53125 694.2375 212.3125Q695.425 210.07812 696.7531 208.5625L689.7531 208.5625ZM700.6281 217.25L702.47186 217.09375Q702.675 218.4375 703.425 219.125Q704.175 219.79688 705.2375 219.79688Q706.5031 219.79688 707.3781 218.84375Q708.2531 217.89062 708.2531 216.29688Q708.2531 214.79688 707.40936 213.9375Q706.5656 213.0625 705.20624 213.0625Q704.34686 213.0625 703.65936 213.45312Q702.9875 213.82812 702.59686 214.45312L700.9406 214.23438L702.33124 206.875L709.45624 206.875L709.45624 208.5625L703.7375 208.5625L702.97186 212.40625Q704.2531 211.5 705.675 211.5Q707.55 211.5 708.83124 212.8125Q710.1281 214.10938 710.1281 216.14062Q710.1281 218.09375 708.9875 219.5Q707.6125 221.25 705.2375 221.25Q703.28436 221.25 702.03436 220.15625Q700.8 219.0625 700.6281 217.25ZM711.6281 213.9375Q711.6281 211.40625 712.14374 209.85938Q712.675 208.29688 713.70624 207.46875Q714.7375 206.625 716.3 206.625Q717.45624 206.625 718.3156 207.09375Q719.1906 207.54688 719.7531 208.42188Q720.3156 209.29688 720.64374 210.5625Q720.97186 211.8125 720.97186 213.9375Q720.97186 216.45312 720.4406 218.0Q719.925 219.54688 718.89374 220.40625Q717.8781 221.25 716.3 221.25Q714.22186 221.25 713.05 219.76562Q711.6281 217.96875 711.6281 213.9375ZM713.4406 213.9375Q713.4406 217.46875 714.2531 218.64062Q715.08124 219.79688 716.3 219.79688Q717.5031 219.79688 718.33124 218.625Q719.15936 217.45312 719.15936 213.9375Q719.15936 210.40625 718.33124 209.25Q717.5031 208.07812 716.28436 208.07812Q715.0656 208.07812 714.34686 209.10938Q713.4406 210.40625 713.4406 213.9375ZM722.6281 213.9375Q722.6281 211.40625 723.14374 209.85938Q723.675 208.29688 724.70624 207.46875Q725.7375 206.625 727.3 206.625Q728.45624 206.625 729.3156 207.09375Q730.1906 207.54688 730.7531 208.42188Q731.3156 209.29688 731.64374 210.5625Q731.97186 211.8125 731.97186 213.9375Q731.97186 216.45312 731.4406 218.0Q730.925 219.54688 729.89374 220.40625Q728.8781 221.25 727.3 221.25Q725.22186 221.25 724.05 219.76562Q722.6281 217.96875 722.6281 213.9375ZM724.4406 213.9375Q724.4406 217.46875 725.2531 218.64062Q726.08124 219.79688 727.3 219.79688Q728.5031 219.79688 729.33124 218.625Q730.15936 217.45312 730.15936 213.9375Q730.15936 210.40625 729.33124 209.25Q728.5031 208.07812 727.28436 208.07812Q726.0656 208.07812 725.34686 209.10938Q724.4406 210.40625 724.4406 213.9375Z" fill-rule="nonzero"/><path fill="#46bdc6" d="M646.8 243.0C646.8 242.44771 647.24774 242.0 647.8 242.0L657.8 242.0C658.3523 242.0 658.8 242.44771 658.8 243.0L658.8 253.0C658.8 253.55229 658.3523 254.0 657.8 254.0L647.8 254.0C647.24774 254.0 646.8 253.55229 646.8 253.0Z" fill-rule="nonzero"/><path fill="#1a1a1a" d="M667.64374 251.21875L669.39374 250.98438Q669.70624 252.48438 670.425 253.14062Q671.15936 253.79688 672.20624 253.79688Q673.4406 253.79688 674.28436 252.9375Q675.14374 252.07812 675.14374 250.8125Q675.14374 249.59375 674.34686 248.8125Q673.5656 248.03125 672.34686 248.03125Q671.84686 248.03125 671.1125 248.21875L671.3 246.67188Q671.47186 246.70312 671.58124 246.70312Q672.70624 246.70312 673.59686 246.125Q674.5031 245.53125 674.5031 244.3125Q674.5031 243.34375 673.84686 242.70312Q673.1906 242.0625 672.15936 242.0625Q671.14374 242.0625 670.45624 242.71875Q669.76874 243.35938 669.58124 244.64062L667.8156 244.32812Q668.14374 242.5625 669.28436 241.59375Q670.425 240.625 672.1281 240.625Q673.3 240.625 674.28436 241.125Q675.26874 241.625 675.78436 242.5Q676.3156 243.375 676.3156 244.34375Q676.3156 245.26562 675.8156 246.03125Q675.3156 246.79688 674.34686 247.25Q675.6125 247.53125 676.3156 248.46875Q677.01874 249.39062 677.01874 250.76562Q677.01874 252.64062 675.64374 253.95312Q674.28436 255.25 672.1906 255.25Q670.3 255.25 669.05 254.125Q667.8156 253.0 667.64374 251.21875ZM687.7531 244.1875L686.0031 244.32812Q685.76874 243.29688 685.34686 242.82812Q684.6281 242.0625 683.58124 242.0625Q682.7375 242.0625 682.1125 242.53125Q681.28436 243.14062 680.8 244.3125Q680.3156 245.46875 680.3 247.60938Q680.9406 246.65625 681.84686 246.1875Q682.76874 245.71875 683.78436 245.71875Q685.53436 245.71875 686.76874 247.01562Q688.0031 248.29688 688.0031 250.34375Q688.0031 251.70312 687.425 252.85938Q686.84686 254.01562 685.83124 254.64062Q684.8156 255.25 683.51874 255.25Q681.33124 255.25 679.9406 253.64062Q678.55 252.01562 678.55 248.29688Q678.55 244.15625 680.08124 242.26562Q681.425 240.625 683.6906 240.625Q685.3781 240.625 686.45624 241.57812Q687.53436 242.51562 687.7531 244.1875ZM680.58124 250.35938Q680.58124 251.26562 680.95624 252.09375Q681.34686 252.92188 682.03436 253.35938Q682.7375 253.79688 683.4875 253.79688Q684.6125 253.79688 685.40936 252.90625Q686.20624 252.0 686.20624 250.45312Q686.20624 248.96875 685.40936 248.125Q684.6281 247.26562 683.425 247.26562Q682.2375 247.26562 681.40936 248.125Q680.58124 248.96875 680.58124 250.35938ZM689.6281 247.9375Q689.6281 245.40625 690.14374 243.85938Q690.675 242.29688 691.70624 241.46875Q692.7375 240.625 694.3 240.625Q695.45624 240.625 696.3156 241.09375Q697.1906 241.54688 697.7531 242.42188Q698.3156 243.29688 698.64374 244.5625Q698.97186 245.8125 698.97186 247.9375Q698.97186 250.45312 698.4406 252.0Q697.925 253.54688 696.89374 254.40625Q695.8781 255.25 694.3 255.25Q692.22186 255.25 691.05 253.76562Q689.6281 251.96875 689.6281 247.9375ZM691.4406 247.9375Q691.4406 251.46875 692.2531 252.64062Q693.08124 253.79688 694.3 253.79688Q695.5031 253.79688 696.33124 252.625Q697.15936 251.45312 697.15936 247.9375Q697.15936 244.40625 696.33124 243.25Q695.5031 242.07812 694.28436 242.07812Q693.0656 242.07812 692.34686 243.10938Q691.4406 244.40625 691.4406 247.9375ZM700.6281 247.9375Q700.6281 245.40625 701.14374 243.85938Q701.675 242.29688 702.70624 241.46875Q703.7375 240.625 705.3 240.625Q706.45624 240.625 707.3156 241.09375Q708.1906 241.54688 708.7531 242.42188Q709.3156 243.29688 709.64374 244.5625Q709.97186 245.8125 709.97186 247.9375Q709.97186 250.45312 709.4406 252.0Q708.925 253.54688 707.89374 254.40625Q706.8781 255.25 705.3 255.25Q703.22186 255.25 702.05 253.76562Q700.6281 251.96875 700.6281 247.9375ZM702.4406 247.9375Q702.4406 251.46875 703.2531 252.64062Q704.08124 253.79688 705.3 253.79688Q706.5031 253.79688 707.33124 252.625Q708.15936 251.45312 708.15936 247.9375Q708.15936 244.40625 707.33124 243.25Q706.5031 242.07812 705.28436 242.07812Q704.0656 242.07812 703.34686 243.10938Q702.4406 244.40625 702.4406 247.9375Z" fill-rule="nonzero"/><path fill="#757575" d="M30.3875 44.2L30.3875 31.575L25.66875 31.575L25.66875 29.8875L37.0125 29.8875L37.0125 31.575L32.278126 31.575L32.278126 44.2L30.3875 44.2ZM38.528126 31.903126L38.528126 29.8875L40.29375 29.8875L40.29375 31.903126L38.528126 31.903126ZM38.528126 44.2L38.528126 33.825L40.29375 33.825L40.29375 44.2L38.528126 44.2ZM45.403126 44.2L41.45 33.825L43.309376 33.825L45.54375 40.04375Q45.903126 41.04375 46.2 42.121876Q46.434376 41.309376 46.85625 40.153126L49.153126 33.825L50.965626 33.825L47.04375 44.2L45.403126 44.2ZM52.528126 31.903126L52.528126 29.8875L54.29375 29.8875L54.29375 31.903126L52.528126 31.903126ZM52.528126 44.2L52.528126 33.825L54.29375 33.825L54.29375 44.2L52.528126 44.2ZM62.934376 44.2L62.934376 35.2L61.3875 35.2L61.3875 33.825L62.934376 33.825L62.934376 32.73125Q62.934376 31.684376 63.121876 31.16875Q63.371876 30.48125 64.0125 30.059376Q64.65312 29.6375 65.80937 29.6375Q66.55937 29.6375 67.45 29.809376L67.18437 31.340626Q66.6375 31.246876 66.15312 31.246876Q65.35625 31.246876 65.0125 31.590626Q64.68437 31.934376 64.68437 32.871876L64.68437 33.825L66.71562 33.825L66.71562 35.2L64.68437 35.2L64.68437 44.2L62.934376 44.2ZM75.30937 44.2L75.30937 42.66875Q74.10625 44.434376 72.02812 44.434376Q71.10625 44.434376 70.30937 44.090626Q69.5125 43.73125 69.12187 43.2Q68.74687 42.66875 68.59062 41.8875Q68.48125 41.371876 68.48125 40.246876L68.48125 33.825L70.23125 33.825L70.23125 39.575Q70.23125 40.95 70.34062 41.434376Q70.5125 42.121876 71.04375 42.528126Q71.59062 42.91875 72.37187 42.91875Q73.16875 42.91875 73.85625 42.5125Q74.55937 42.10625 74.84062 41.41875Q75.1375 40.715626 75.1375 39.3875L75.1375 33.825L76.8875 33.825L76.8875 44.2L75.30937 44.2ZM79.48125 44.2L79.48125 29.8875L81.23125 29.8875L81.23125 44.2L79.48125 44.2ZM83.48125 44.2L83.48125 29.8875L85.23125 29.8875L85.23125 44.2L83.48125 44.2ZM95.1375 44.2L93.5125 44.2L93.5125 29.8875L95.2625 29.8875L95.2625 34.996876Q96.3875 33.590626 98.10625 33.590626Q99.05937 33.590626 99.91875 33.98125Q100.77812 34.371876 101.325 35.075Q101.87187 35.7625 102.18437 36.746876Q102.49687 37.73125 102.49687 38.85625Q102.49687 41.528126 101.18437 42.98125Q99.87187 44.434376 98.02812 44.434376Q96.18437 44.434376 95.1375 42.903126L95.1375 44.2ZM95.12187 38.934376Q95.12187 40.79375 95.62187 41.6375Q96.46562 42.98125 97.87187 42.98125Q99.02812 42.98125 99.85625 41.98125Q100.7 40.98125 100.7 38.996876Q100.7 36.965626 99.8875 36.0125Q99.09062 35.04375 97.95 35.04375Q96.79375 35.04375 95.95 36.04375Q95.12187 37.04375 95.12187 38.934376ZM111.30937 44.2L111.30937 42.66875Q110.10625 44.434376 108.02812 44.434376Q107.10625 44.434376 106.30937 44.090626Q105.5125 43.73125 105.12187 43.2Q104.74687 42.66875 104.59062 41.8875Q104.48125 41.371876 104.48125 40.246876L104.48125 33.825L106.23125 33.825L106.23125 39.575Q106.23125 40.95 106.34062 41.434376Q106.5125 42.121876 107.04375 42.528126Q107.59062 42.91875 108.37187 42.91875Q109.16875 42.91875 109.85625 42.5125Q110.55937 42.10625 110.84062 41.41875Q111.1375 40.715626 111.1375 39.3875L111.1375 33.825L112.8875 33.825L112.8875 44.2L111.30937 44.2ZM115.52812 31.903126L115.52812 29.8875L117.29375 29.8875L117.29375 31.903126L115.52812 31.903126ZM115.52812 44.2L115.52812 33.825L117.29375 33.825L117.29375 44.2L115.52812 44.2ZM119.48125 44.2L119.48125 29.8875L121.23125 29.8875L121.23125 44.2L119.48125 44.2ZM130.24687 44.2L130.24687 42.8875Q129.2625 44.434376 127.34062 44.434376Q126.10625 44.434376 125.05937 43.746876Q124.02812 43.059376 123.45 41.840626Q122.8875 40.621876 122.8875 39.028126Q122.8875 37.465626 123.40312 36.2Q123.91875 34.934376 124.95 34.2625Q125.99687 33.590626 127.2625 33.590626Q128.2 33.590626 128.93437 33.996876Q129.66875 34.3875 130.1375 35.0125L130.1375 29.8875L131.87187 29.8875L131.87187 44.2L130.24687 44.2ZM124.68437 39.028126Q124.68437 41.0125 125.52812 41.996876Q126.37187 42.98125 127.5125 42.98125Q128.66875 42.98125 129.46562 42.04375Q130.27812 41.10625 130.27812 39.16875Q130.27812 37.04375 129.45 36.04375Q128.6375 35.04375 127.43437 35.04375Q126.2625 35.04375 125.46562 36.0125Q124.68437 36.965626 124.68437 39.028126ZM140.52812 31.903126L140.52812 29.8875L142.29375 29.8875L142.29375 31.903126L140.52812 31.903126ZM140.52812 44.2L140.52812 33.825L142.29375 33.825L142.29375 44.2L140.52812 44.2ZM144.5125 44.2L144.5125 33.825L146.10625 33.825L146.10625 35.309376Q147.24687 33.590626 149.40312 33.590626Q150.34062 33.590626 151.12187 33.934376Q151.91875 34.2625 152.30937 34.809376Q152.7 35.35625 152.85625 36.10625Q152.95 36.60625 152.95 37.825L152.95 44.2L151.18437 44.2L151.18437 37.8875Q151.18437 36.809376 150.98125 36.278126Q150.77812 35.746876 150.24687 35.434376Q149.73125 35.121876 149.02812 35.121876Q147.90312 35.121876 147.09062 35.840626Q146.27812 36.54375 146.27812 38.528126L146.27812 44.2L144.5125 44.2ZM160.80937 41.10625L162.55937 40.825Q162.7 41.871876 163.37187 42.434376Q164.04375 42.98125 165.24687 42.98125Q166.45 42.98125 167.02812 42.496876Q167.62187 41.996876 167.62187 41.340626Q167.62187 40.746876 167.10625 40.403126Q166.74687 40.16875 165.30937 39.809376Q163.37187 39.309376 162.62187 38.965626Q161.8875 38.60625 161.49687 37.98125Q161.10625 37.340626 161.10625 36.575Q161.10625 35.8875 161.41875 35.29375Q161.74687 34.7 162.29375 34.309376Q162.7 34.0125 163.40312 33.809376Q164.12187 33.590626 164.93437 33.590626Q166.15312 33.590626 167.075 33.95Q167.99687 34.29375 168.43437 34.903126Q168.87187 35.496876 169.04375 36.496876L167.325 36.73125Q167.2 35.934376 166.6375 35.496876Q166.075 35.04375 165.05937 35.04375Q163.84062 35.04375 163.325 35.45Q162.80937 35.840626 162.80937 36.371876Q162.80937 36.715626 163.02812 36.996876Q163.23125 37.278126 163.7 37.465626Q163.96562 37.559376 165.24687 37.903126Q167.12187 38.403126 167.85625 38.73125Q168.59062 39.04375 169.0125 39.653126Q169.43437 40.246876 169.43437 41.153126Q169.43437 42.028126 168.91875 42.809376Q168.40312 43.590626 167.43437 44.0125Q166.46562 44.434376 165.24687 44.434376Q163.23125 44.434376 162.16875 43.590626Q161.10625 42.746876 160.80937 41.10625ZM178.62187 40.85625L180.43437 41.090626Q180.0125 42.66875 178.84062 43.559376Q177.68437 44.434376 175.87187 44.434376Q173.60625 44.434376 172.2625 43.04375Q170.93437 41.6375 170.93437 39.10625Q170.93437 36.48125 172.27812 35.04375Q173.62187 33.590626 175.77812 33.590626Q177.85625 33.590626 179.16875 35.0125Q180.49687 36.41875 180.49687 38.996876Q180.49687 39.153126 180.48125 39.465626L172.74687 39.465626Q172.84062 41.16875 173.71562 42.075Q174.59062 42.98125 175.8875 42.98125Q176.85625 42.98125 177.52812 42.48125Q178.21562 41.965626 178.62187 40.85625ZM172.84062 38.0125L178.6375 38.0125Q178.52812 36.715626 177.98125 36.059376Q177.1375 35.04375 175.79375 35.04375Q174.59062 35.04375 173.7625 35.85625Q172.93437 36.653126 172.84062 38.0125ZM189.29375 40.403126L191.0125 40.621876Q190.73125 42.41875 189.55937 43.434376Q188.40312 44.434376 186.7 44.434376Q184.575 44.434376 183.27812 43.04375Q181.98125 41.653126 181.98125 39.059376Q181.98125 37.371876 182.52812 36.121876Q183.09062 34.85625 184.23125 34.23125Q185.37187 33.590626 186.71562 33.590626Q188.40312 33.590626 189.46562 34.45Q190.54375 35.309376 190.85625 36.871876L189.1375 37.1375Q188.90312 36.090626 188.27812 35.575Q187.65312 35.04375 186.77812 35.04375Q185.45 35.04375 184.62187 35.996876Q183.79375 36.95 183.79375 38.996876Q183.79375 41.090626 184.59062 42.04375Q185.3875 42.98125 186.68437 42.98125Q187.71562 42.98125 188.40312 42.35625Q189.10625 41.715626 189.29375 40.403126ZM191.87187 39.0125Q191.87187 36.1375 193.46562 34.746876Q194.80937 33.590626 196.73125 33.590626Q198.87187 33.590626 200.21562 34.996876Q201.575 36.403126 201.575 38.871876Q201.575 40.871876 200.98125 42.028126Q200.3875 43.16875 199.23125 43.809376Q198.09062 44.434376 196.73125 44.434376Q194.54375 44.434376 193.2 43.04375Q191.87187 41.6375 191.87187 39.0125ZM193.66875 39.0125Q193.66875 41.0125 194.52812 41.996876Q195.40312 42.98125 196.73125 42.98125Q198.04375 42.98125 198.90312 41.996876Q199.77812 40.996876 199.77812 38.95Q199.77812 37.028126 198.90312 36.04375Q198.02812 35.04375 196.73125 35.04375Q195.40312 35.04375 194.52812 36.04375Q193.66875 37.028126 193.66875 39.0125ZM203.5125 44.2L203.5125 33.825L205.10625 33.825L205.10625 35.309376Q206.24687 33.590626 208.40312 33.590626Q209.34062 33.590626 210.12187 33.934376Q210.91875 34.2625 211.30937 34.809376Q211.7 35.35625 211.85625 36.10625Q211.95 36.60625 211.95 37.825L211.95 44.2L210.18437 44.2L210.18437 37.8875Q210.18437 36.809376 209.98125 36.278126Q209.77812 35.746876 209.24687 35.434376Q208.73125 35.121876 208.02812 35.121876Q206.90312 35.121876 206.09062 35.840626Q205.27812 36.54375 205.27812 38.528126L205.27812 44.2L203.5125 44.2ZM221.24687 44.2L221.24687 42.8875Q220.2625 44.434376 218.34062 44.434376Q217.10625 44.434376 216.05937 43.746876Q215.02812 43.059376 214.45 41.840626Q213.8875 40.621876 213.8875 39.028126Q213.8875 37.465626 214.40312 36.2Q214.91875 34.934376 215.95 34.2625Q216.99687 33.590626 218.2625 33.590626Q219.2 33.590626 219.93437 33.996876Q220.66875 34.3875 221.1375 35.0125L221.1375 29.8875L222.87187 29.8875L222.87187 44.2L221.24687 44.2ZM215.68437 39.028126Q215.68437 41.0125 216.52812 41.996876Q217.37187 42.98125 218.5125 42.98125Q219.66875 42.98125 220.46562 42.04375Q221.27812 41.10625 221.27812 39.16875Q221.27812 37.04375 220.45 36.04375Q219.6375 35.04375 218.43437 35.04375Q217.2625 35.04375 216.46562 36.0125Q215.68437 36.965626 215.68437 39.028126ZM224.80937 41.10625L226.55937 40.825Q226.7 41.871876 227.37187 42.434376Q228.04375 42.98125 229.24687 42.98125Q230.45 42.98125 231.02812 42.496876Q231.62187 41.996876 231.62187 41.340626Q231.62187 40.746876 231.10625 40.403126Q230.74687 40.16875 229.30937 39.809376Q227.37187 39.309376 226.62187 38.965626Q225.8875 38.60625 225.49687 37.98125Q225.10625 37.340626 225.10625 36.575Q225.10625 35.8875 225.41875 35.29375Q225.74687 34.7 226.29375 34.309376Q226.7 34.0125 227.40312 33.809376Q228.12187 33.590626 228.93437 33.590626Q230.15312 33.590626 231.075 33.95Q231.99687 34.29375 232.43437 34.903126Q232.87187 35.496876 233.04375 36.496876L231.325 36.73125Q231.2 35.934376 230.6375 35.496876Q230.075 35.04375 229.05937 35.04375Q227.84062 35.04375 227.325 35.45Q226.80937 35.840626 226.80937 36.371876Q226.80937 36.715626 227.02812 36.996876Q227.23125 37.278126 227.7 37.465626Q227.96562 37.559376 229.24687 37.903126Q231.12187 38.403126 231.85625 38.73125Q232.59062 39.04375 233.0125 39.653126Q233.43437 40.246876 233.43437 41.153126Q233.43437 42.028126 232.91875 42.809376Q232.40312 43.590626 231.43437 44.0125Q230.46562 44.434376 229.24687 44.434376Q227.23125 44.434376 226.16875 43.590626Q225.10625 42.746876 224.80937 41.10625Z" fill-rule="nonzero"/></svg>