<svg version="1.1" viewBox="0.0 0.0 788.0 504.0" fill="none" stroke="none" stroke-linecap="square" stroke-miterlimit="10" width="788" height="504" xmlns:xlink="http://www.w3.org/1999/xlink" xmlns="http://www.w3.org/2000/svg"><path fill="#ffffff" d="M0 0L788.0 0L788.0 504.0L0 504.0L0 0Z" fill-rule="nonzero"/><path stroke="#333333" stroke-width="1.0" stroke-linecap="butt" d="M52.5 471.5L619.5 471.5" fill-rule="nonzero"/><path stroke="#cccccc" stroke-width="1.0" stroke-linecap="butt" d="M52.5 338.5L619.5 338.5" fill-rule="nonzero"/><path stroke="#cccccc" stroke-width="1.0" stroke-linecap="butt" d="M52.5 205.5L619.5 205.5" fill-rule="nonzero"/><path stroke="#cccccc" stroke-width="1.0" stroke-linecap="butt" d="M52.5 73.5L619.5 73.5" fill-rule="nonzero"/><clipPath id="id_0"><path d="M52.2 73.0L619.28 73.0L619.28 471.8L52.2 471.8L52.2 73.0Z" clip-rule="nonzero"/></clipPath><path stroke="#000000" stroke-width="0.0" stroke-linecap="butt" stroke-opacity="0.0" clip-path="url(#id_0)" d="M243.0 472.0L198.0 472.0L198.0 261.0C198.0 259.89542 198.89543 259.0 200.0 259.0L241.0 259.0C242.10457 259.0 243.0 259.89542 243.0 261.0Z" fill-rule="nonzero"/><path fill="#4285f4" clip-path="url(#id_0)" d="M243.0 472.0L198.0 472.0L198.0 261.0C198.0 259.89542 198.89543 259.0 200.0 259.0L241.0 259.0C242.10457 259.0 243.0 259.89542 243.0 261.0Z" fill-rule="nonzero"/><path stroke="#000000" stroke-width="0.0" stroke-linecap="butt" stroke-opacity="0.0" clip-path="url(#id_0)" d="M289.0 472.0L244.0 472.0L244.0 286.0C244.0 284.89542 244.89543 284.0 246.0 284.0L287.0 284.0C288.10458 284.0 289.0 284.89542 289.0 286.0Z" fill-rule="nonzero"/><path fill="#ea4335" clip-path="url(#id_0)" d="M289.0 472.0L244.0 472.0L244.0 286.0C244.0 284.89542 244.89543 284.0 246.0 284.0L287.0 284.0C288.10458 284.0 289.0 284.89542 289.0 286.0Z" fill-rule="nonzero"/><path stroke="#000000" stroke-width="0.0" stroke-linecap="butt" stroke-opacity="0.0" clip-path="url(#id_0)" d="M335.0 472.0L290.0 472.0L290.0 193.0C290.0 191.89543 290.89542 191.0 292.0 191.0L333.0 191.0C334.10458 191.0 335.0 191.89543 335.0 193.0Z" fill-rule="nonzero"/><path fill="#fbbc04" clip-path="url(#id_0)" d="M335.0 472.0L290.0 472.0L290.0 193.0C290.0 191.89543 290.89542 191.0 292.0 191.0L333.0 191.0C334.10458 191.0 335.0 191.89543 335.0 193.0Z" fill-rule="nonzero"/><path stroke="#000000" stroke-width="0.0" stroke-linecap="butt" stroke-opacity="0.0" clip-path="url(#id_0)" d="M381.0 472.0L336.0 472.0L336.0 183.0C336.0 181.89543 336.89542 181.0 338.0 181.0L379.0 181.0C380.10458 181.0 381.0 181.89543 381.0 183.0Z" fill-rule="nonzero"/><path fill="#34a853" clip-path="url(#id_0)" d="M381.0 472.0L336.0 472.0L336.0 183.0C336.0 181.89543 336.89542 181.0 338.0 181.0L379.0 181.0C380.10458 181.0 381.0 181.89543 381.0 183.0Z" fill-rule="nonzero"/><path stroke="#000000" stroke-width="0.0" stroke-linecap="butt" stroke-opacity="0.0" clip-path="url(#id_0)" d="M427.0 472.0L382.0 472.0L382.0 121.0C382.0 119.89543 382.89542 119.0 384.0 119.0L425.0 119.0C426.10458 119.0 427.0 119.89543 427.0 121.0Z" fill-rule="nonzero"/><path fill="#ff6d01" clip-path="url(#id_0)" d="M427.0 472.0L382.0 472.0L382.0 121.0C382.0 119.89543 382.89542 119.0 384.0 119.0L425.0 119.0C426.10458 119.0 427.0 119.89543 427.0 121.0Z" fill-rule="nonzero"/><path stroke="#000000" stroke-width="0.0" stroke-linecap="butt" stroke-opacity="0.0" clip-path="url(#id_0)" d="M473.0 472.0L428.0 472.0L428.0 260.0C428.0 258.89542 428.89542 258.0 430.0 258.0L471.0 258.0C472.10458 258.0 473.0 258.89542 473.0 260.0Z" fill-rule="nonzero"/><path fill="#46bdc6" clip-path="url(#id_0)" d="M473.0 472.0L428.0 472.0L428.0 260.0C428.0 258.89542 428.89542 258.0 430.0 258.0L471.0 258.0C472.10458 258.0 473.0 258.89542 473.0 260.0Z" fill-rule="nonzero"/><path stroke="#4285f4" stroke-width="3.0" stroke-linejoin="round" stroke-linecap="round" d="M211.71875 268.1709L208.1875 276.09277L207.04688 276.09277L210.5625 268.45215L205.95312 268.45215L205.95312 267.56152L211.71875 267.56152L211.71875 268.1709ZM213.34375 275.53027Q213.34375 275.24902 213.5 275.06152Q213.67188 274.87402 214.0 274.87402Q214.34375 274.87402 214.51562 275.06152Q214.6875 275.24902 214.6875 275.53027Q214.6875 275.7959 214.51562 275.9834Q214.34375 276.15527 214.0 276.15527Q213.67188 276.15527 213.5 275.9834Q213.34375 275.7959 213.34375 275.53027ZM220.35938 272.34277Q220.03125 272.74902 219.54688 272.99902Q219.07812 273.2334 218.51562 273.2334Q217.78125 273.2334 217.23438 272.87402Q216.6875 272.51465 216.39062 271.8584Q216.09375 271.18652 216.09375 270.38965Q216.09375 269.5459 216.40625 268.8584Q216.73438 268.1709 217.32812 267.81152Q217.9375 267.43652 218.73438 267.43652Q220.0 267.43652 220.71875 268.38965Q221.45312 269.34277 221.45312 270.96777L221.45312 271.28027Q221.45312 273.78027 220.46875 274.9209Q219.48438 276.06152 217.5 276.09277L217.28125 276.09277L217.28125 275.18652L217.51562 275.18652Q218.85938 275.15527 219.57812 274.4834Q220.29688 273.81152 220.35938 272.34277ZM218.6875 272.34277Q219.23438 272.34277 219.6875 272.01465Q220.15625 271.6709 220.375 271.18652L220.375 270.74902Q220.375 269.68652 219.90625 269.01465Q219.4375 268.34277 218.73438 268.34277Q218.01562 268.34277 217.57812 268.88965Q217.15625 269.43652 217.15625 270.34277Q217.15625 271.21777 217.5625 271.78027Q217.98438 272.34277 218.6875 272.34277ZM227.35938 272.34277Q227.03125 272.74902 226.54688 272.99902Q226.07812 273.2334 225.51562 273.2334Q224.78125 273.2334 224.23438 272.87402Q223.6875 272.51465 223.39062 271.8584Q223.09375 271.18652 223.09375 270.38965Q223.09375 269.5459 223.40625 268.8584Q223.73438 268.1709 224.32812 267.81152Q224.9375 267.43652 225.73438 267.43652Q227.0 267.43652 227.71875 268.38965Q228.45312 269.34277 228.45312 270.96777L228.45312 271.28027Q228.45312 273.78027 227.46875 274.9209Q226.48438 276.06152 224.5 276.09277L224.28125 276.09277L224.28125 275.18652L224.51562 275.18652Q225.85938 275.15527 226.57812 274.4834Q227.29688 273.81152 227.35938 272.34277ZM225.6875 272.34277Q226.23438 272.34277 226.6875 272.01465Q227.15625 271.6709 227.375 271.18652L227.375 270.74902Q227.375 269.68652 226.90625 269.01465Q226.4375 268.34277 225.73438 268.34277Q225.01562 268.34277 224.57812 268.88965Q224.15625 269.43652 224.15625 270.34277Q224.15625 271.21777 224.5625 271.78027Q224.98438 272.34277 225.6875 272.34277ZM231.78125 271.2959L232.59375 271.2959Q233.375 271.28027 233.8125 270.88965Q234.25 270.49902 234.25 269.82715Q234.25 268.32715 232.75 268.32715Q232.04688 268.32715 231.625 268.7334Q231.21875 269.13965 231.21875 269.7959L230.125 269.7959Q230.125 268.78027 230.85938 268.1084Q231.60938 267.43652 232.75 267.43652Q233.95312 267.43652 234.64062 268.07715Q235.32812 268.71777 235.32812 269.8584Q235.32812 270.4209 234.96875 270.93652Q234.60938 271.45215 233.98438 271.71777Q234.6875 271.93652 235.0625 272.45215Q235.45312 272.96777 235.45312 273.71777Q235.45312 274.8584 234.70312 275.5459Q233.95312 276.21777 232.75 276.21777Q231.5625 276.21777 230.79688 275.56152Q230.04688 274.90527 230.04688 273.84277L231.14062 273.84277Q231.14062 274.51465 231.57812 274.9209Q232.01562 275.32715 232.76562 275.32715Q233.54688 275.32715 233.95312 274.9209Q234.375 274.49902 234.375 273.7334Q234.375 272.99902 233.92188 272.6084Q233.46875 272.20215 232.59375 272.18652L231.78125 272.18652L231.78125 271.2959Z" fill-rule="nonzero"/><path fill="#ffffff" d="M211.71875 268.1709L208.1875 276.09277L207.04688 276.09277L210.5625 268.45215L205.95312 268.45215L205.95312 267.56152L211.71875 267.56152L211.71875 268.1709ZM213.34375 275.53027Q213.34375 275.24902 213.5 275.06152Q213.67188 274.87402 214.0 274.87402Q214.34375 274.87402 214.51562 275.06152Q214.6875 275.24902 214.6875 275.53027Q214.6875 275.7959 214.51562 275.9834Q214.34375 276.15527 214.0 276.15527Q213.67188 276.15527 213.5 275.9834Q213.34375 275.7959 213.34375 275.53027ZM220.35938 272.34277Q220.03125 272.74902 219.54688 272.99902Q219.07812 273.2334 218.51562 273.2334Q217.78125 273.2334 217.23438 272.87402Q216.6875 272.51465 216.39062 271.8584Q216.09375 271.18652 216.09375 270.38965Q216.09375 269.5459 216.40625 268.8584Q216.73438 268.1709 217.32812 267.81152Q217.9375 267.43652 218.73438 267.43652Q220.0 267.43652 220.71875 268.38965Q221.45312 269.34277 221.45312 270.96777L221.45312 271.28027Q221.45312 273.78027 220.46875 274.9209Q219.48438 276.06152 217.5 276.09277L217.28125 276.09277L217.28125 275.18652L217.51562 275.18652Q218.85938 275.15527 219.57812 274.4834Q220.29688 273.81152 220.35938 272.34277ZM218.6875 272.34277Q219.23438 272.34277 219.6875 272.01465Q220.15625 271.6709 220.375 271.18652L220.375 270.74902Q220.375 269.68652 219.90625 269.01465Q219.4375 268.34277 218.73438 268.34277Q218.01562 268.34277 217.57812 268.88965Q217.15625 269.43652 217.15625 270.34277Q217.15625 271.21777 217.5625 271.78027Q217.98438 272.34277 218.6875 272.34277ZM227.35938 272.34277Q227.03125 272.74902 226.54688 272.99902Q226.07812 273.2334 225.51562 273.2334Q224.78125 273.2334 224.23438 272.87402Q223.6875 272.51465 223.39062 271.8584Q223.09375 271.18652 223.09375 270.38965Q223.09375 269.5459 223.40625 268.8584Q223.73438 268.1709 224.32812 267.81152Q224.9375 267.43652 225.73438 267.43652Q227.0 267.43652 227.71875 268.38965Q228.45312 269.34277 228.45312 270.96777L228.45312 271.28027Q228.45312 273.78027 227.46875 274.9209Q226.48438 276.06152 224.5 276.09277L224.28125 276.09277L224.28125 275.18652L224.51562 275.18652Q225.85938 275.15527 226.57812 274.4834Q227.29688 273.81152 227.35938 272.34277ZM225.6875 272.34277Q226.23438 272.34277 226.6875 272.01465Q227.15625 271.6709 227.375 271.18652L227.375 270.74902Q227.375 269.68652 226.90625 269.01465Q226.4375 268.34277 225.73438 268.34277Q225.01562 268.34277 224.57812 268.88965Q224.15625 269.43652 224.15625 270.34277Q224.15625 271.21777 224.5625 271.78027Q224.98438 272.34277 225.6875 272.34277ZM231.78125 271.2959L232.59375 271.2959Q233.375 271.28027 233.8125 270.88965Q234.25 270.49902 234.25 269.82715Q234.25 268.32715 232.75 268.32715Q232.04688 268.32715 231.625 268.7334Q231.21875 269.13965 231.21875 269.7959L230.125 269.7959Q230.125 268.78027 230.85938 268.1084Q231.60938 267.43652 232.75 267.43652Q233.95312 267.43652 234.64062 268.07715Q235.32812 268.71777 235.32812 269.8584Q235.32812 270.4209 234.96875 270.93652Q234.60938 271.45215 233.98438 271.71777Q234.6875 271.93652 235.0625 272.45215Q235.45312 272.96777 235.45312 273.71777Q235.45312 274.8584 234.70312 275.5459Q233.95312 276.21777 232.75 276.21777Q231.5625 276.21777 230.79688 275.56152Q230.04688 274.90527 230.04688 273.84277L231.14062 273.84277Q231.14062 274.51465 231.57812 274.9209Q232.01562 275.32715 232.76562 275.32715Q233.54688 275.32715 233.95312 274.9209Q234.375 274.49902 234.375 273.7334Q234.375 272.99902 233.92188 272.6084Q233.46875 272.20215 232.59375 272.18652L231.78125 272.18652L231.78125 271.2959Z" fill-rule="nonzero"/><path stroke="#ea4335" stroke-width="3.0" stroke-linejoin="round" stroke-linecap="round" d="M257.71875 292.4711L254.1875 300.39297L253.04688 300.39297L256.5625 292.75235L251.95312 292.75235L251.95312 291.86172L257.71875 291.86172L257.71875 292.4711ZM259.34375 299.83047Q259.34375 299.54922 259.5 299.36172Q259.67188 299.17422 260.0 299.17422Q260.34375 299.17422 260.51562 299.36172Q260.6875 299.54922 260.6875 299.83047Q260.6875 300.0961 260.51562 300.2836Q260.34375 300.45547 260.0 300.45547Q259.67188 300.45547 259.5 300.2836Q259.34375 300.0961 259.34375 299.83047ZM267.5625 296.75235Q267.5625 298.6586 266.90625 299.5961Q266.26562 300.51797 264.875 300.51797Q263.51562 300.51797 262.85938 299.61172Q262.20312 298.70547 262.17188 296.89297L262.17188 295.45547Q262.17188 293.56485 262.8125 292.6586Q263.46875 291.73672 264.85938 291.73672Q266.23438 291.73672 266.89062 292.62735Q267.54688 293.50235 267.5625 295.3461L267.5625 296.75235ZM266.46875 295.26797Q266.46875 293.89297 266.07812 293.26797Q265.70312 292.62735 264.85938 292.62735Q264.03125 292.62735 263.64062 293.26797Q263.26562 293.89297 263.26562 295.18985L263.26562 296.92422Q263.26562 298.29922 263.65625 298.9711Q264.0625 299.62735 264.875 299.62735Q265.67188 299.62735 266.0625 299.00235Q266.45312 298.37735 266.46875 297.04922L266.46875 295.26797ZM274.71875 292.4711L271.1875 300.39297L270.04688 300.39297L273.5625 292.75235L268.95312 292.75235L268.95312 291.86172L274.71875 291.86172L274.71875 292.4711ZM280.35938 296.64297Q280.03125 297.04922 279.54688 297.29922Q279.07812 297.5336 278.51562 297.5336Q277.78125 297.5336 277.23438 297.17422Q276.6875 296.81485 276.39062 296.1586Q276.09375 295.48672 276.09375 294.68985Q276.09375 293.8461 276.40625 293.1586Q276.73438 292.4711 277.32812 292.11172Q277.9375 291.73672 278.73438 291.73672Q280.0 291.73672 280.71875 292.68985Q281.45312 293.64297 281.45312 295.26797L281.45312 295.58047Q281.45312 298.08047 280.46875 299.2211Q279.48438 300.36172 277.5 300.39297L277.28125 300.39297L277.28125 299.48672L277.51562 299.48672Q278.85938 299.45547 279.57812 298.7836Q280.29688 298.11172 280.35938 296.64297ZM278.6875 296.64297Q279.23438 296.64297 279.6875 296.31485Q280.15625 295.9711 280.375 295.48672L280.375 295.04922Q280.375 293.98672 279.90625 293.31485Q279.4375 292.64297 278.73438 292.64297Q278.01562 292.64297 277.57812 293.18985Q277.15625 293.73672 277.15625 294.64297Q277.15625 295.51797 277.5625 296.08047Q277.98438 296.64297 278.6875 296.64297Z" fill-rule="nonzero"/><path fill="#ffffff" d="M257.71875 292.4711L254.1875 300.39297L253.04688 300.39297L256.5625 292.75235L251.95312 292.75235L251.95312 291.86172L257.71875 291.86172L257.71875 292.4711ZM259.34375 299.83047Q259.34375 299.54922 259.5 299.36172Q259.67188 299.17422 260.0 299.17422Q260.34375 299.17422 260.51562 299.36172Q260.6875 299.54922 260.6875 299.83047Q260.6875 300.0961 260.51562 300.2836Q260.34375 300.45547 260.0 300.45547Q259.67188 300.45547 259.5 300.2836Q259.34375 300.0961 259.34375 299.83047ZM267.5625 296.75235Q267.5625 298.6586 266.90625 299.5961Q266.26562 300.51797 264.875 300.51797Q263.51562 300.51797 262.85938 299.61172Q262.20312 298.70547 262.17188 296.89297L262.17188 295.45547Q262.17188 293.56485 262.8125 292.6586Q263.46875 291.73672 264.85938 291.73672Q266.23438 291.73672 266.89062 292.62735Q267.54688 293.50235 267.5625 295.3461L267.5625 296.75235ZM266.46875 295.26797Q266.46875 293.89297 266.07812 293.26797Q265.70312 292.62735 264.85938 292.62735Q264.03125 292.62735 263.64062 293.26797Q263.26562 293.89297 263.26562 295.18985L263.26562 296.92422Q263.26562 298.29922 263.65625 298.9711Q264.0625 299.62735 264.875 299.62735Q265.67188 299.62735 266.0625 299.00235Q266.45312 298.37735 266.46875 297.04922L266.46875 295.26797ZM274.71875 292.4711L271.1875 300.39297L270.04688 300.39297L273.5625 292.75235L268.95312 292.75235L268.95312 291.86172L274.71875 291.86172L274.71875 292.4711ZM280.35938 296.64297Q280.03125 297.04922 279.54688 297.29922Q279.07812 297.5336 278.51562 297.5336Q277.78125 297.5336 277.23438 297.17422Q276.6875 296.81485 276.39062 296.1586Q276.09375 295.48672 276.09375 294.68985Q276.09375 293.8461 276.40625 293.1586Q276.73438 292.4711 277.32812 292.11172Q277.9375 291.73672 278.73438 291.73672Q280.0 291.73672 280.71875 292.68985Q281.45312 293.64297 281.45312 295.26797L281.45312 295.58047Q281.45312 298.08047 280.46875 299.2211Q279.48438 300.36172 277.5 300.39297L277.28125 300.39297L277.28125 299.48672L277.51562 299.48672Q278.85938 299.45547 279.57812 298.7836Q280.29688 298.11172 280.35938 296.64297ZM278.6875 296.64297Q279.23438 296.64297 279.6875 296.31485Q280.15625 295.9711 280.375 295.48672L280.375 295.04922Q280.375 293.98672 279.90625 293.31485Q279.4375 292.64297 278.73438 292.64297Q278.01562 292.64297 277.57812 293.18985Q277.15625 293.73672 277.15625 294.64297Q277.15625 295.51797 277.5625 296.08047Q277.98438 296.64297 278.6875 296.64297Z" fill-rule="nonzero"/><path stroke="#fbbc04" stroke-width="3.0" stroke-linejoin="round" stroke-linecap="round" d="M298.26562 207.41942L297.1875 207.41942L297.1875 200.20067L295.0 200.99754L295.0 200.01317L298.10938 198.8413L298.26562 198.8413L298.26562 207.41942ZM307.0625 203.7788Q307.0625 205.68504 306.40625 206.62254Q305.76562 207.54442 304.375 207.54442Q303.01562 207.54442 302.35938 206.63817Q301.70312 205.73192 301.67188 203.91942L301.67188 202.48192Q301.67188 200.5913 302.3125 199.68504Q302.96875 198.76317 304.35938 198.76317Q305.73438 198.76317 306.39062 199.6538Q307.04688 200.5288 307.0625 202.37254L307.0625 203.7788ZM305.96875 202.29442Q305.96875 200.91942 305.57812 200.29442Q305.20312 199.6538 304.35938 199.6538Q303.53125 199.6538 303.14062 200.29442Q302.76562 200.91942 302.76562 202.2163L302.76562 203.95067Q302.76562 205.32567 303.15625 205.99754Q303.5625 206.6538 304.375 206.6538Q305.17188 206.6538 305.5625 206.0288Q305.95312 205.4038 305.96875 204.07567L305.96875 202.29442ZM308.84375 206.85692Q308.84375 206.57567 309.0 206.38817Q309.17188 206.20067 309.5 206.20067Q309.84375 206.20067 310.01562 206.38817Q310.1875 206.57567 310.1875 206.85692Q310.1875 207.12254 310.01562 207.31004Q309.84375 207.48192 309.5 207.48192Q309.17188 207.48192 309.0 207.31004Q308.84375 207.12254 308.84375 206.85692ZM312.20312 203.13817L312.64062 198.88817L317.01562 198.88817L317.01562 199.88817L313.5625 199.88817L313.29688 202.2163Q313.9375 201.8413 314.73438 201.8413Q315.89062 201.8413 316.57812 202.62254Q317.26562 203.38817 317.26562 204.70067Q317.26562 206.01317 316.54688 206.7788Q315.84375 207.54442 314.5625 207.54442Q313.4375 207.54442 312.71875 206.91942Q312.0 206.2788 311.90625 205.16942L312.92188 205.16942Q313.03125 205.9038 313.45312 206.2788Q313.875 206.6538 314.5625 206.6538Q315.3125 206.6538 315.75 206.13817Q316.1875 205.62254 316.1875 204.7163Q316.1875 203.85692 315.71875 203.3413Q315.25 202.82567 314.46875 202.82567Q313.76562 202.82567 313.35938 203.12254L313.07812 203.35692L312.20312 203.13817ZM324.21875 199.49754L320.6875 207.41942L319.54688 207.41942L323.0625 199.7788L318.45312 199.7788L318.45312 198.88817L324.21875 198.88817L324.21875 199.49754ZM329.96875 198.88817L329.96875 199.79442L329.76562 199.79442Q328.5 199.82567 327.75 200.56004Q327.0 201.2788 326.875 202.5913Q327.5625 201.82567 328.71875 201.82567Q329.82812 201.82567 330.5 202.60692Q331.17188 203.38817 331.17188 204.63817Q331.17188 205.95067 330.45312 206.74754Q329.73438 207.54442 328.51562 207.54442Q327.29688 207.54442 326.53125 206.60692Q325.78125 205.6538 325.78125 204.16942L325.78125 203.76317Q325.78125 201.4038 326.78125 200.1538Q327.78125 198.9038 329.76562 198.88817L329.96875 198.88817ZM328.54688 202.73192Q327.98438 202.73192 327.51562 203.06004Q327.04688 203.38817 326.85938 203.9038L326.85938 204.29442Q326.85938 205.35692 327.32812 205.99754Q327.8125 206.63817 328.51562 206.63817Q329.25 206.63817 329.67188 206.10692Q330.09375 205.56004 330.09375 204.68504Q330.09375 203.81004 329.67188 203.2788Q329.25 202.73192 328.54688 202.73192Z" fill-rule="nonzero"/><path fill="#000000" d="M298.26562 207.41942L297.1875 207.41942L297.1875 200.20067L295.0 200.99754L295.0 200.01317L298.10938 198.8413L298.26562 198.8413L298.26562 207.41942ZM307.0625 203.7788Q307.0625 205.68504 306.40625 206.62254Q305.76562 207.54442 304.375 207.54442Q303.01562 207.54442 302.35938 206.63817Q301.70312 205.73192 301.67188 203.91942L301.67188 202.48192Q301.67188 200.5913 302.3125 199.68504Q302.96875 198.76317 304.35938 198.76317Q305.73438 198.76317 306.39062 199.6538Q307.04688 200.5288 307.0625 202.37254L307.0625 203.7788ZM305.96875 202.29442Q305.96875 200.91942 305.57812 200.29442Q305.20312 199.6538 304.35938 199.6538Q303.53125 199.6538 303.14062 200.29442Q302.76562 200.91942 302.76562 202.2163L302.76562 203.95067Q302.76562 205.32567 303.15625 205.99754Q303.5625 206.6538 304.375 206.6538Q305.17188 206.6538 305.5625 206.0288Q305.95312 205.4038 305.96875 204.07567L305.96875 202.29442ZM308.84375 206.85692Q308.84375 206.57567 309.0 206.38817Q309.17188 206.20067 309.5 206.20067Q309.84375 206.20067 310.01562 206.38817Q310.1875 206.57567 310.1875 206.85692Q310.1875 207.12254 310.01562 207.31004Q309.84375 207.48192 309.5 207.48192Q309.17188 207.48192 309.0 207.31004Q308.84375 207.12254 308.84375 206.85692ZM312.20312 203.13817L312.64062 198.88817L317.01562 198.88817L317.01562 199.88817L313.5625 199.88817L313.29688 202.2163Q313.9375 201.8413 314.73438 201.8413Q315.89062 201.8413 316.57812 202.62254Q317.26562 203.38817 317.26562 204.70067Q317.26562 206.01317 316.54688 206.7788Q315.84375 207.54442 314.5625 207.54442Q313.4375 207.54442 312.71875 206.91942Q312.0 206.2788 311.90625 205.16942L312.92188 205.16942Q313.03125 205.9038 313.45312 206.2788Q313.875 206.6538 314.5625 206.6538Q315.3125 206.6538 315.75 206.13817Q316.1875 205.62254 316.1875 204.7163Q316.1875 203.85692 315.71875 203.3413Q315.25 202.82567 314.46875 202.82567Q313.76562 202.82567 313.35938 203.12254L313.07812 203.35692L312.20312 203.13817ZM324.21875 199.49754L320.6875 207.41942L319.54688 207.41942L323.0625 199.7788L318.45312 199.7788L318.45312 198.88817L324.21875 198.88817L324.21875 199.49754ZM329.96875 198.88817L329.96875 199.79442L329.76562 199.79442Q328.5 199.82567 327.75 200.56004Q327.0 201.2788 326.875 202.5913Q327.5625 201.82567 328.71875 201.82567Q329.82812 201.82567 330.5 202.60692Q331.17188 203.38817 331.17188 204.63817Q331.17188 205.95067 330.45312 206.74754Q329.73438 207.54442 328.51562 207.54442Q327.29688 207.54442 326.53125 206.60692Q325.78125 205.6538 325.78125 204.16942L325.78125 203.76317Q325.78125 201.4038 326.78125 200.1538Q327.78125 198.9038 329.76562 198.88817L329.96875 198.88817ZM328.54688 202.73192Q327.98438 202.73192 327.51562 203.06004Q327.04688 203.38817 326.85938 203.9038L326.85938 204.29442Q326.85938 205.35692 327.32812 205.99754Q327.8125 206.63817 328.51562 206.63817Q329.25 206.63817 329.67188 206.10692Q330.09375 205.56004 330.09375 204.68504Q330.09375 203.81004 329.67188 203.2788Q329.25 202.73192 328.54688 202.73192Z" fill-rule="nonzero"/><path stroke="#34a853" stroke-width="3.0" stroke-linejoin="round" stroke-linecap="round" d="M344.26562 197.31648L343.1875 197.31648L343.1875 190.09773L341.0 190.8946L341.0 189.91023L344.10938 188.73836L344.26562 188.73836L344.26562 197.31648ZM353.0625 193.67586Q353.0625 195.5821 352.40625 196.5196Q351.76562 197.44148 350.375 197.44148Q349.01562 197.44148 348.35938 196.53523Q347.70312 195.62898 347.67188 193.81648L347.67188 192.37898Q347.67188 190.48836 348.3125 189.5821Q348.96875 188.66023 350.35938 188.66023Q351.73438 188.66023 352.39062 189.55086Q353.04688 190.42586 353.0625 192.2696L353.0625 193.67586ZM351.96875 192.19148Q351.96875 190.81648 351.57812 190.19148Q351.20312 189.55086 350.35938 189.55086Q349.53125 189.55086 349.14062 190.19148Q348.76562 190.81648 348.76562 192.11336L348.76562 193.84773Q348.76562 195.22273 349.15625 195.8946Q349.5625 196.55086 350.375 196.55086Q351.17188 196.55086 351.5625 195.92586Q351.95312 195.30086 351.96875 193.97273L351.96875 192.19148ZM354.84375 196.75398Q354.84375 196.47273 355.0 196.28523Q355.17188 196.09773 355.5 196.09773Q355.84375 196.09773 356.01562 196.28523Q356.1875 196.47273 356.1875 196.75398Q356.1875 197.0196 356.01562 197.2071Q355.84375 197.37898 355.5 197.37898Q355.17188 197.37898 355.0 197.2071Q354.84375 197.0196 354.84375 196.75398ZM361.85938 193.56648Q361.53125 193.97273 361.04688 194.22273Q360.57812 194.4571 360.01562 194.4571Q359.28125 194.4571 358.73438 194.09773Q358.1875 193.73836 357.89062 193.0821Q357.59375 192.41023 357.59375 191.61336Q357.59375 190.7696 357.90625 190.0821Q358.23438 189.3946 358.82812 189.03523Q359.4375 188.66023 360.23438 188.66023Q361.5 188.66023 362.21875 189.61336Q362.95312 190.56648 362.95312 192.19148L362.95312 192.50398Q362.95312 195.00398 361.96875 196.1446Q360.98438 197.28523 359.0 197.31648L358.78125 197.31648L358.78125 196.41023L359.01562 196.41023Q360.35938 196.37898 361.07812 195.7071Q361.79688 195.03523 361.85938 193.56648ZM360.1875 193.56648Q360.73438 193.56648 361.1875 193.23836Q361.65625 192.8946 361.875 192.41023L361.875 191.97273Q361.875 190.91023 361.40625 190.23836Q360.9375 189.56648 360.23438 189.56648Q359.51562 189.56648 359.07812 190.11336Q358.65625 190.66023 358.65625 191.56648Q358.65625 192.44148 359.0625 193.00398Q359.48438 193.56648 360.1875 193.56648ZM365.20312 193.03523L365.64062 188.78523L370.01562 188.78523L370.01562 189.78523L366.5625 189.78523L366.29688 192.11336Q366.9375 191.73836 367.73438 191.73836Q368.89062 191.73836 369.57812 192.5196Q370.26562 193.28523 370.26562 194.59773Q370.26562 195.91023 369.54688 196.67586Q368.84375 197.44148 367.5625 197.44148Q366.4375 197.44148 365.71875 196.81648Q365.0 196.17586 364.90625 195.06648L365.92188 195.06648Q366.03125 195.80086 366.45312 196.17586Q366.875 196.55086 367.5625 196.55086Q368.3125 196.55086 368.75 196.03523Q369.1875 195.5196 369.1875 194.61336Q369.1875 193.75398 368.71875 193.23836Q368.25 192.72273 367.46875 192.72273Q366.76562 192.72273 366.35938 193.0196L366.07812 193.25398L365.20312 193.03523ZM375.96875 188.78523L375.96875 189.69148L375.76562 189.69148Q374.5 189.72273 373.75 190.4571Q373.0 191.17586 372.875 192.48836Q373.5625 191.72273 374.71875 191.72273Q375.82812 191.72273 376.5 192.50398Q377.17188 193.28523 377.17188 194.53523Q377.17188 195.84773 376.45312 196.6446Q375.73438 197.44148 374.51562 197.44148Q373.29688 197.44148 372.53125 196.50398Q371.78125 195.55086 371.78125 194.06648L371.78125 193.66023Q371.78125 191.30086 372.78125 190.05086Q373.78125 188.80086 375.76562 188.78523L375.96875 188.78523ZM374.54688 192.62898Q373.98438 192.62898 373.51562 192.9571Q373.04688 193.28523 372.85938 193.80086L372.85938 194.19148Q372.85938 195.25398 373.32812 195.8946Q373.8125 196.53523 374.51562 196.53523Q375.25 196.53523 375.67188 196.00398Q376.09375 195.4571 376.09375 194.5821Q376.09375 193.7071 375.67188 193.17586Q375.25 192.62898 374.54688 192.62898Z" fill-rule="nonzero"/><path fill="#ffffff" d="M344.26562 197.31648L343.1875 197.31648L343.1875 190.09773L341.0 190.8946L341.0 189.91023L344.10938 188.73836L344.26562 188.73836L344.26562 197.31648ZM353.0625 193.67586Q353.0625 195.5821 352.40625 196.5196Q351.76562 197.44148 350.375 197.44148Q349.01562 197.44148 348.35938 196.53523Q347.70312 195.62898 347.67188 193.81648L347.67188 192.37898Q347.67188 190.48836 348.3125 189.5821Q348.96875 188.66023 350.35938 188.66023Q351.73438 188.66023 352.39062 189.55086Q353.04688 190.42586 353.0625 192.2696L353.0625 193.67586ZM351.96875 192.19148Q351.96875 190.81648 351.57812 190.19148Q351.20312 189.55086 350.35938 189.55086Q349.53125 189.55086 349.14062 190.19148Q348.76562 190.81648 348.76562 192.11336L348.76562 193.84773Q348.76562 195.22273 349.15625 195.8946Q349.5625 196.55086 350.375 196.55086Q351.17188 196.55086 351.5625 195.92586Q351.95312 195.30086 351.96875 193.97273L351.96875 192.19148ZM354.84375 196.75398Q354.84375 196.47273 355.0 196.28523Q355.17188 196.09773 355.5 196.09773Q355.84375 196.09773 356.01562 196.28523Q356.1875 196.47273 356.1875 196.75398Q356.1875 197.0196 356.01562 197.2071Q355.84375 197.37898 355.5 197.37898Q355.17188 197.37898 355.0 197.2071Q354.84375 197.0196 354.84375 196.75398ZM361.85938 193.56648Q361.53125 193.97273 361.04688 194.22273Q360.57812 194.4571 360.01562 194.4571Q359.28125 194.4571 358.73438 194.09773Q358.1875 193.73836 357.89062 193.0821Q357.59375 192.41023 357.59375 191.61336Q357.59375 190.7696 357.90625 190.0821Q358.23438 189.3946 358.82812 189.03523Q359.4375 188.66023 360.23438 188.66023Q361.5 188.66023 362.21875 189.61336Q362.95312 190.56648 362.95312 192.19148L362.95312 192.50398Q362.95312 195.00398 361.96875 196.1446Q360.98438 197.28523 359.0 197.31648L358.78125 197.31648L358.78125 196.41023L359.01562 196.41023Q360.35938 196.37898 361.07812 195.7071Q361.79688 195.03523 361.85938 193.56648ZM360.1875 193.56648Q360.73438 193.56648 361.1875 193.23836Q361.65625 192.8946 361.875 192.41023L361.875 191.97273Q361.875 190.91023 361.40625 190.23836Q360.9375 189.56648 360.23438 189.56648Q359.51562 189.56648 359.07812 190.11336Q358.65625 190.66023 358.65625 191.56648Q358.65625 192.44148 359.0625 193.00398Q359.48438 193.56648 360.1875 193.56648ZM365.20312 193.03523L365.64062 188.78523L370.01562 188.78523L370.01562 189.78523L366.5625 189.78523L366.29688 192.11336Q366.9375 191.73836 367.73438 191.73836Q368.89062 191.73836 369.57812 192.5196Q370.26562 193.28523 370.26562 194.59773Q370.26562 195.91023 369.54688 196.67586Q368.84375 197.44148 367.5625 197.44148Q366.4375 197.44148 365.71875 196.81648Q365.0 196.17586 364.90625 195.06648L365.92188 195.06648Q366.03125 195.80086 366.45312 196.17586Q366.875 196.55086 367.5625 196.55086Q368.3125 196.55086 368.75 196.03523Q369.1875 195.5196 369.1875 194.61336Q369.1875 193.75398 368.71875 193.23836Q368.25 192.72273 367.46875 192.72273Q366.76562 192.72273 366.35938 193.0196L366.07812 193.25398L365.20312 193.03523ZM375.96875 188.78523L375.96875 189.69148L375.76562 189.69148Q374.5 189.72273 373.75 190.4571Q373.0 191.17586 372.875 192.48836Q373.5625 191.72273 374.71875 191.72273Q375.82812 191.72273 376.5 192.50398Q377.17188 193.28523 377.17188 194.53523Q377.17188 195.84773 376.45312 196.6446Q375.73438 197.44148 374.51562 197.44148Q373.29688 197.44148 372.53125 196.50398Q371.78125 195.55086 371.78125 194.06648L371.78125 193.66023Q371.78125 191.30086 372.78125 190.05086Q373.78125 188.80086 375.76562 188.78523L375.96875 188.78523ZM374.54688 192.62898Q373.98438 192.62898 373.51562 192.9571Q373.04688 193.28523 372.85938 193.80086L372.85938 194.19148Q372.85938 195.25398 373.32812 195.8946Q373.8125 196.53523 374.51562 196.53523Q375.25 196.53523 375.67188 196.00398Q376.09375 195.4571 376.09375 194.5821Q376.09375 193.7071 375.67188 193.17586Q375.25 192.62898 374.54688 192.62898Z" fill-rule="nonzero"/><path stroke="#ff6d01" stroke-width="3.0" stroke-linejoin="round" stroke-linecap="round" d="M390.26562 135.662L389.1875 135.662L389.1875 128.44325L387.0 129.24013L387.0 128.25575L390.10938 127.08388L390.26562 127.08388L390.26562 135.662ZM395.28125 130.86513L396.09375 130.86513Q396.875 130.8495 397.3125 130.45888Q397.75 130.06825 397.75 129.39638Q397.75 127.89638 396.25 127.89638Q395.54688 127.89638 395.125 128.30263Q394.71875 128.70888 394.71875 129.36513L393.625 129.36513Q393.625 128.3495 394.35938 127.67763Q395.10938 127.00575 396.25 127.00575Q397.45312 127.00575 398.14062 127.64638Q398.82812 128.287 398.82812 129.42763Q398.82812 129.99013 398.46875 130.50575Q398.10938 131.02138 397.48438 131.287Q398.1875 131.50575 398.5625 132.02138Q398.95312 132.537 398.95312 133.287Q398.95312 134.42763 398.20312 135.11513Q397.45312 135.787 396.25 135.787Q395.0625 135.787 394.29688 135.13075Q393.54688 134.4745 393.54688 133.412L394.64062 133.412Q394.64062 134.08388 395.07812 134.49013Q395.51562 134.89638 396.26562 134.89638Q397.04688 134.89638 397.45312 134.49013Q397.875 134.06825 397.875 133.30263Q397.875 132.56825 397.42188 132.17763Q396.96875 131.77138 396.09375 131.75575L395.28125 131.75575L395.28125 130.86513ZM400.84375 135.0995Q400.84375 134.81825 401.0 134.63075Q401.17188 134.44325 401.5 134.44325Q401.84375 134.44325 402.01562 134.63075Q402.1875 134.81825 402.1875 135.0995Q402.1875 135.36513 402.01562 135.55263Q401.84375 135.7245 401.5 135.7245Q401.17188 135.7245 401.0 135.55263Q400.84375 135.36513 400.84375 135.0995ZM409.29688 135.662L403.70312 135.662L403.70312 134.88075L406.65625 131.5995Q407.3125 130.8495 407.5625 130.39638Q407.8125 129.92763 407.8125 129.42763Q407.8125 128.75575 407.40625 128.33388Q407.01562 127.89638 406.32812 127.89638Q405.53125 127.89638 405.07812 128.36513Q404.625 128.81825 404.625 129.64638L403.54688 129.64638Q403.54688 128.45888 404.29688 127.74013Q405.0625 127.00575 406.32812 127.00575Q407.53125 127.00575 408.21875 127.63075Q408.90625 128.25575 408.90625 129.30263Q408.90625 130.55263 407.29688 132.30263L405.01562 134.77138L409.29688 134.77138L409.29688 135.662ZM416.21875 127.74013L412.6875 135.662L411.54688 135.662L415.0625 128.02138L410.45312 128.02138L410.45312 127.13075L416.21875 127.13075L416.21875 127.74013ZM418.20312 131.38075L418.64062 127.13075L423.01562 127.13075L423.01562 128.13075L419.5625 128.13075L419.29688 130.45888Q419.9375 130.08388 420.73438 130.08388Q421.89062 130.08388 422.57812 130.86513Q423.26562 131.63075 423.26562 132.94325Q423.26562 134.25575 422.54688 135.02138Q421.84375 135.787 420.5625 135.787Q419.4375 135.787 418.71875 135.162Q418.0 134.52138 417.90625 133.412L418.92188 133.412Q419.03125 134.14638 419.45312 134.52138Q419.875 134.89638 420.5625 134.89638Q421.3125 134.89638 421.75 134.38075Q422.1875 133.86513 422.1875 132.95888Q422.1875 132.0995 421.71875 131.58388Q421.25 131.06825 420.46875 131.06825Q419.76562 131.06825 419.35938 131.36513L419.07812 131.5995L418.20312 131.38075Z" fill-rule="nonzero"/><path fill="#000000" d="M390.26562 135.662L389.1875 135.662L389.1875 128.44325L387.0 129.24013L387.0 128.25575L390.10938 127.08388L390.26562 127.08388L390.26562 135.662ZM395.28125 130.86513L396.09375 130.86513Q396.875 130.8495 397.3125 130.45888Q397.75 130.06825 397.75 129.39638Q397.75 127.89638 396.25 127.89638Q395.54688 127.89638 395.125 128.30263Q394.71875 128.70888 394.71875 129.36513L393.625 129.36513Q393.625 128.3495 394.35938 127.67763Q395.10938 127.00575 396.25 127.00575Q397.45312 127.00575 398.14062 127.64638Q398.82812 128.287 398.82812 129.42763Q398.82812 129.99013 398.46875 130.50575Q398.10938 131.02138 397.48438 131.287Q398.1875 131.50575 398.5625 132.02138Q398.95312 132.537 398.95312 133.287Q398.95312 134.42763 398.20312 135.11513Q397.45312 135.787 396.25 135.787Q395.0625 135.787 394.29688 135.13075Q393.54688 134.4745 393.54688 133.412L394.64062 133.412Q394.64062 134.08388 395.07812 134.49013Q395.51562 134.89638 396.26562 134.89638Q397.04688 134.89638 397.45312 134.49013Q397.875 134.06825 397.875 133.30263Q397.875 132.56825 397.42188 132.17763Q396.96875 131.77138 396.09375 131.75575L395.28125 131.75575L395.28125 130.86513ZM400.84375 135.0995Q400.84375 134.81825 401.0 134.63075Q401.17188 134.44325 401.5 134.44325Q401.84375 134.44325 402.01562 134.63075Q402.1875 134.81825 402.1875 135.0995Q402.1875 135.36513 402.01562 135.55263Q401.84375 135.7245 401.5 135.7245Q401.17188 135.7245 401.0 135.55263Q400.84375 135.36513 400.84375 135.0995ZM409.29688 135.662L403.70312 135.662L403.70312 134.88075L406.65625 131.5995Q407.3125 130.8495 407.5625 130.39638Q407.8125 129.92763 407.8125 129.42763Q407.8125 128.75575 407.40625 128.33388Q407.01562 127.89638 406.32812 127.89638Q405.53125 127.89638 405.07812 128.36513Q404.625 128.81825 404.625 129.64638L403.54688 129.64638Q403.54688 128.45888 404.29688 127.74013Q405.0625 127.00575 406.32812 127.00575Q407.53125 127.00575 408.21875 127.63075Q408.90625 128.25575 408.90625 129.30263Q408.90625 130.55263 407.29688 132.30263L405.01562 134.77138L409.29688 134.77138L409.29688 135.662ZM416.21875 127.74013L412.6875 135.662L411.54688 135.662L415.0625 128.02138L410.45312 128.02138L410.45312 127.13075L416.21875 127.13075L416.21875 127.74013ZM418.20312 131.38075L418.64062 127.13075L423.01562 127.13075L423.01562 128.13075L419.5625 128.13075L419.29688 130.45888Q419.9375 130.08388 420.73438 130.08388Q421.89062 130.08388 422.57812 130.86513Q423.26562 131.63075 423.26562 132.94325Q423.26562 134.25575 422.54688 135.02138Q421.84375 135.787 420.5625 135.787Q419.4375 135.787 418.71875 135.162Q418.0 134.52138 417.90625 133.412L418.92188 133.412Q419.03125 134.14638 419.45312 134.52138Q419.875 134.89638 420.5625 134.89638Q421.3125 134.89638 421.75 134.38075Q422.1875 133.86513 422.1875 132.95888Q422.1875 132.0995 421.71875 131.58388Q421.25 131.06825 420.46875 131.06825Q419.76562 131.06825 419.35938 131.36513L419.07812 131.5995L418.20312 131.38075Z" fill-rule="nonzero"/><path stroke="#46bdc6" stroke-width="3.0" stroke-linejoin="round" stroke-linecap="round" d="M441.39062 268.8763Q441.39062 269.51694 441.04688 270.01694Q440.70312 270.51694 440.14062 270.7982Q440.79688 271.07944 441.1875 271.64194Q441.57812 272.1888 441.57812 272.89194Q441.57812 273.9857 440.82812 274.65756Q440.09375 275.3138 438.875 275.3138Q437.64062 275.3138 436.89062 274.65756Q436.15625 273.9857 436.15625 272.89194Q436.15625 272.1888 436.53125 271.64194Q436.90625 271.07944 437.57812 270.7982Q437.01562 270.51694 436.6875 270.01694Q436.35938 269.51694 436.35938 268.8763Q436.35938 267.7982 437.04688 267.1732Q437.73438 266.53256 438.875 266.53256Q440.0 266.53256 440.6875 267.1732Q441.39062 267.7982 441.39062 268.8763ZM440.5 272.8607Q440.5 272.14194 440.04688 271.70444Q439.59375 271.2513 438.85938 271.2513Q438.125 271.2513 437.67188 271.70444Q437.23438 272.14194 437.23438 272.8763Q437.23438 273.59506 437.67188 274.01694Q438.10938 274.4232 438.875 274.4232Q439.625 274.4232 440.0625 274.0013Q440.5 273.57944 440.5 272.8607ZM438.875 267.4232Q438.23438 267.4232 437.82812 267.82944Q437.4375 268.22006 437.4375 268.90756Q437.4375 269.5482 437.82812 269.95444Q438.21875 270.3607 438.85938 270.3607Q439.51562 270.3607 439.90625 269.95444Q440.29688 269.5482 440.29688 268.90756Q440.29688 268.2513 439.89062 267.84506Q439.48438 267.4232 438.875 267.4232ZM443.34375 274.6263Q443.34375 274.34506 443.5 274.15756Q443.67188 273.97006 444.0 273.97006Q444.34375 273.97006 444.51562 274.15756Q444.6875 274.34506 444.6875 274.6263Q444.6875 274.89194 444.51562 275.07944Q444.34375 275.2513 444.0 275.2513Q443.67188 275.2513 443.5 275.07944Q443.34375 274.89194 443.34375 274.6263ZM451.5625 271.5482Q451.5625 273.45444 450.90625 274.39194Q450.26562 275.3138 448.875 275.3138Q447.51562 275.3138 446.85938 274.40756Q446.20312 273.5013 446.17188 271.6888L446.17188 270.2513Q446.17188 268.3607 446.8125 267.45444Q447.46875 266.53256 448.85938 266.53256Q450.23438 266.53256 450.89062 267.4232Q451.54688 268.2982 451.5625 270.14194L451.5625 271.5482ZM450.46875 270.0638Q450.46875 268.6888 450.07812 268.0638Q449.70312 267.4232 448.85938 267.4232Q448.03125 267.4232 447.64062 268.0638Q447.26562 268.6888 447.26562 269.9857L447.26562 271.72006Q447.26562 273.09506 447.65625 273.76694Q448.0625 274.4232 448.875 274.4232Q449.67188 274.4232 450.0625 273.7982Q450.45312 273.1732 450.46875 271.84506L450.46875 270.0638ZM458.79688 275.1888L453.20312 275.1888L453.20312 274.40756L456.15625 271.1263Q456.8125 270.3763 457.0625 269.9232Q457.3125 269.45444 457.3125 268.95444Q457.3125 268.28256 456.90625 267.8607Q456.51562 267.4232 455.82812 267.4232Q455.03125 267.4232 454.57812 267.89194Q454.125 268.34506 454.125 269.1732L453.04688 269.1732Q453.04688 267.9857 453.79688 267.26694Q454.5625 266.53256 455.82812 266.53256Q457.03125 266.53256 457.71875 267.15756Q458.40625 267.78256 458.40625 268.82944Q458.40625 270.07944 456.79688 271.82944L454.51562 274.2982L458.79688 274.2982L458.79688 275.1888ZM465.71875 267.26694L462.1875 275.1888L461.04688 275.1888L464.5625 267.5482L459.95312 267.5482L459.95312 266.65756L465.71875 266.65756L465.71875 267.26694Z" fill-rule="nonzero"/><path fill="#000000" d="M441.39062 268.8763Q441.39062 269.51694 441.04688 270.01694Q440.70312 270.51694 440.14062 270.7982Q440.79688 271.07944 441.1875 271.64194Q441.57812 272.1888 441.57812 272.89194Q441.57812 273.9857 440.82812 274.65756Q440.09375 275.3138 438.875 275.3138Q437.64062 275.3138 436.89062 274.65756Q436.15625 273.9857 436.15625 272.89194Q436.15625 272.1888 436.53125 271.64194Q436.90625 271.07944 437.57812 270.7982Q437.01562 270.51694 436.6875 270.01694Q436.35938 269.51694 436.35938 268.8763Q436.35938 267.7982 437.04688 267.1732Q437.73438 266.53256 438.875 266.53256Q440.0 266.53256 440.6875 267.1732Q441.39062 267.7982 441.39062 268.8763ZM440.5 272.8607Q440.5 272.14194 440.04688 271.70444Q439.59375 271.2513 438.85938 271.2513Q438.125 271.2513 437.67188 271.70444Q437.23438 272.14194 437.23438 272.8763Q437.23438 273.59506 437.67188 274.01694Q438.10938 274.4232 438.875 274.4232Q439.625 274.4232 440.0625 274.0013Q440.5 273.57944 440.5 272.8607ZM438.875 267.4232Q438.23438 267.4232 437.82812 267.82944Q437.4375 268.22006 437.4375 268.90756Q437.4375 269.5482 437.82812 269.95444Q438.21875 270.3607 438.85938 270.3607Q439.51562 270.3607 439.90625 269.95444Q440.29688 269.5482 440.29688 268.90756Q440.29688 268.2513 439.89062 267.84506Q439.48438 267.4232 438.875 267.4232ZM443.34375 274.6263Q443.34375 274.34506 443.5 274.15756Q443.67188 273.97006 444.0 273.97006Q444.34375 273.97006 444.51562 274.15756Q444.6875 274.34506 444.6875 274.6263Q444.6875 274.89194 444.51562 275.07944Q444.34375 275.2513 444.0 275.2513Q443.67188 275.2513 443.5 275.07944Q443.34375 274.89194 443.34375 274.6263ZM451.5625 271.5482Q451.5625 273.45444 450.90625 274.39194Q450.26562 275.3138 448.875 275.3138Q447.51562 275.3138 446.85938 274.40756Q446.20312 273.5013 446.17188 271.6888L446.17188 270.2513Q446.17188 268.3607 446.8125 267.45444Q447.46875 266.53256 448.85938 266.53256Q450.23438 266.53256 450.89062 267.4232Q451.54688 268.2982 451.5625 270.14194L451.5625 271.5482ZM450.46875 270.0638Q450.46875 268.6888 450.07812 268.0638Q449.70312 267.4232 448.85938 267.4232Q448.03125 267.4232 447.64062 268.0638Q447.26562 268.6888 447.26562 269.9857L447.26562 271.72006Q447.26562 273.09506 447.65625 273.76694Q448.0625 274.4232 448.875 274.4232Q449.67188 274.4232 450.0625 273.7982Q450.45312 273.1732 450.46875 271.84506L450.46875 270.0638ZM458.79688 275.1888L453.20312 275.1888L453.20312 274.40756L456.15625 271.1263Q456.8125 270.3763 457.0625 269.9232Q457.3125 269.45444 457.3125 268.95444Q457.3125 268.28256 456.90625 267.8607Q456.51562 267.4232 455.82812 267.4232Q455.03125 267.4232 454.57812 267.89194Q454.125 268.34506 454.125 269.1732L453.04688 269.1732Q453.04688 267.9857 453.79688 267.26694Q454.5625 266.53256 455.82812 266.53256Q457.03125 266.53256 457.71875 267.15756Q458.40625 267.78256 458.40625 268.82944Q458.40625 270.07944 456.79688 271.82944L454.51562 274.2982L458.79688 274.2982L458.79688 275.1888ZM465.71875 267.26694L462.1875 275.1888L461.04688 275.1888L464.5625 267.5482L459.95312 267.5482L459.95312 266.65756L465.71875 266.65756L465.71875 267.26694Z" fill-rule="nonzero"/><path fill="#000000" d="M39.7 471.5656Q39.7 470.03436 40.0125 469.1125Q40.325 468.175 40.934376 467.675Q41.559376 467.175 42.496876 467.175Q43.184376 467.175 43.7 467.45624Q44.23125 467.7375 44.575 468.26874Q44.91875 468.78436 45.10625 469.53436Q45.29375 470.28436 45.29375 471.5656Q45.29375 473.08124 44.98125 474.0031Q44.684376 474.925 44.059376 475.4406Q43.45 475.9406 42.496876 475.9406Q41.2625 475.9406 40.54375 475.05Q39.7 473.9875 39.7 471.5656ZM40.778126 471.5656Q40.778126 473.675 41.278126 474.3781Q41.778126 475.08124 42.496876 475.08124Q43.23125 475.08124 43.715626 474.3781Q44.215626 473.675 44.215626 471.5656Q44.215626 469.4406 43.715626 468.7531Q43.23125 468.05 42.48125 468.05Q41.7625 468.05 41.325 468.65936Q40.778126 469.4406 40.778126 471.5656Z" fill-rule="nonzero"/><path fill="#000000" d="M39.7 340.61667L40.809376 340.52292Q40.934376 341.33542 41.371876 341.74167Q41.825 342.14792 42.465626 342.14792Q43.215626 342.14792 43.746876 341.5698Q44.278126 340.99167 44.278126 340.05417Q44.278126 339.14792 43.7625 338.6323Q43.2625 338.10104 42.434376 338.10104Q41.934376 338.10104 41.5125 338.33542Q41.10625 338.5698 40.871876 338.92917L39.8875 338.80417L40.715626 334.39792L44.996876 334.39792L44.996876 335.39792L41.559376 335.39792L41.10625 337.71042Q41.871876 337.16354 42.715626 337.16354Q43.840626 337.16354 44.60625 337.9448Q45.3875 338.72604 45.3875 339.96042Q45.3875 341.11667 44.715626 341.97604Q43.8875 343.0073 42.465626 343.0073Q41.29375 343.0073 40.54375 342.35104Q39.809376 341.6948 39.7 340.61667Z" fill-rule="nonzero"/><path fill="#000000" d="M36.66875 209.93333L35.621876 209.93333L35.621876 203.21458Q35.23125 203.57396 34.60625 203.94896Q33.996876 204.30833 33.5125 204.48021L33.5125 203.46458Q34.3875 203.04271 35.04375 202.46458Q35.715626 201.87083 35.996876 201.30833L36.66875 201.30833L36.66875 209.93333ZM39.7 205.69896Q39.7 204.16771 40.0125 203.24583Q40.325 202.30833 40.934376 201.80833Q41.559376 201.30833 42.496876 201.30833Q43.184376 201.30833 43.7 201.58958Q44.23125 201.87083 44.575 202.40208Q44.91875 202.91771 45.10625 203.66771Q45.29375 204.41771 45.29375 205.69896Q45.29375 207.21458 44.98125 208.13646Q44.684376 209.05833 44.059376 209.57396Q43.45 210.07396 42.496876 210.07396Q41.2625 210.07396 40.54375 209.18333Q39.7 208.12083 39.7 205.69896ZM40.778126 205.69896Q40.778126 207.80833 41.278126 208.51146Q41.778126 209.21458 42.496876 209.21458Q43.23125 209.21458 43.715626 208.51146Q44.215626 207.80833 44.215626 205.69896Q44.215626 203.57396 43.715626 202.88646Q43.23125 202.18333 42.48125 202.18333Q41.7625 202.18333 41.325 202.79271Q40.778126 203.57396 40.778126 205.69896Z" fill-rule="nonzero"/><path fill="#000000" d="M36.66875 77.0L35.621876 77.0L35.621876 70.28125Q35.23125 70.640625 34.60625 71.015625Q33.996876 71.375 33.5125 71.546875L33.5125 70.53125Q34.3875 70.109375 35.04375 69.53125Q35.715626 68.9375 35.996876 68.375L36.66875 68.375L36.66875 77.0ZM39.7 74.75L40.809376 74.65625Q40.934376 75.46875 41.371876 75.875Q41.825 76.28125 42.465626 76.28125Q43.215626 76.28125 43.746876 75.703125Q44.278126 75.125 44.278126 74.1875Q44.278126 73.28125 43.7625 72.765625Q43.2625 72.234375 42.434376 72.234375Q41.934376 72.234375 41.5125 72.46875Q41.10625 72.703125 40.871876 73.0625L39.8875 72.9375L40.715626 68.53125L44.996876 68.53125L44.996876 69.53125L41.559376 69.53125L41.10625 71.84375Q41.871876 71.296875 42.715626 71.296875Q43.840626 71.296875 44.60625 72.078125Q45.3875 72.859375 45.3875 74.09375Q45.3875 75.25 44.715626 76.109375Q43.8875 77.140625 42.465626 77.140625Q41.29375 77.140625 40.54375 76.484375Q39.809376 75.828125 39.7 74.75Z" fill-rule="nonzero"/><path fill="#4285f4" d="M646.8 73.0C646.8 72.447716 647.24774 72.0 647.8 72.0L657.8 72.0C658.3523 72.0 658.8 72.447716 658.8 73.0L658.8 83.0C658.8 83.552284 658.3523 84.0 657.8 84.0L647.8 84.0C647.24774 84.0 646.8 83.552284 646.8 83.0Z" fill-rule="nonzero"/><path fill="#1a1a1a" d="M668.1281 72.703125L668.1281 70.6875L669.89374 70.6875L669.89374 72.703125L668.1281 72.703125ZM668.1281 85.0L668.1281 74.625L669.89374 74.625L669.89374 85.0L668.1281 85.0ZM671.7531 72.5625L671.7531 70.875L681.01874 70.875L681.01874 72.234375Q679.64374 73.6875 678.3 76.109375Q676.95624 78.515625 676.2375 81.0625Q675.70624 82.859375 675.55 85.0L673.7531 85.0Q673.78436 83.3125 674.40936 80.921875Q675.05 78.53125 676.2375 76.3125Q677.425 74.078125 678.7531 72.5625L671.7531 72.5625ZM682.4406 80.703125L682.4406 78.9375L687.83124 78.9375L687.83124 80.703125L682.4406 80.703125ZM692.33124 77.234375Q691.2375 76.828125 690.70624 76.09375Q690.1906 75.34375 690.1906 74.3125Q690.1906 72.75 691.3156 71.6875Q692.4406 70.625 694.3 70.625Q696.175 70.625 697.3156 71.71875Q698.45624 72.796875 698.45624 74.359375Q698.45624 75.359375 697.925 76.09375Q697.40936 76.828125 696.34686 77.234375Q697.675 77.671875 698.3625 78.625Q699.05 79.578125 699.05 80.90625Q699.05 82.75 697.7375 84.0Q696.4406 85.25 694.33124 85.25Q692.20624 85.25 690.90936 84.0Q689.6125 82.734375 689.6125 80.859375Q689.6125 79.46875 690.3156 78.53125Q691.03436 77.578125 692.33124 77.234375ZM691.9875 74.25Q691.9875 75.265625 692.64374 75.921875Q693.3 76.5625 694.33124 76.5625Q695.34686 76.5625 696.0031 75.921875Q696.65936 75.28125 696.65936 74.359375Q696.65936 73.390625 695.9875 72.734375Q695.3156 72.0625 694.3156 72.0625Q693.3156 72.0625 692.64374 72.71875Q691.9875 73.359375 691.9875 74.25ZM691.425 80.875Q691.425 81.625 691.76874 82.328125Q692.1281 83.03125 692.83124 83.421875Q693.53436 83.796875 694.34686 83.796875Q695.6125 83.796875 696.425 82.984375Q697.2531 82.171875 697.2531 80.921875Q697.2531 79.65625 696.40936 78.828125Q695.5656 78.0 694.28436 78.0Q693.05 78.0 692.2375 78.828125Q691.425 79.640625 691.425 80.875ZM700.7531 72.5625L700.7531 70.875L710.01874 70.875L710.01874 72.234375Q708.64374 73.6875 707.3 76.109375Q705.95624 78.515625 705.2375 81.0625Q704.70624 82.859375 704.55 85.0L702.7531 85.0Q702.78436 83.3125 703.40936 80.921875Q704.05 78.53125 705.2375 76.3125Q706.425 74.078125 707.7531 72.5625L700.7531 72.5625ZM711.6281 77.9375Q711.6281 75.40625 712.14374 73.859375Q712.675 72.296875 713.70624 71.46875Q714.7375 70.625 716.3 70.625Q717.45624 70.625 718.3156 71.09375Q719.1906 71.546875 719.7531 72.421875Q720.3156 73.296875 720.64374 74.5625Q720.97186 75.8125 720.97186 77.9375Q720.97186 80.453125 720.4406 82.0Q719.925 83.546875 718.89374 84.40625Q717.8781 85.25 716.3 85.25Q714.22186 85.25 713.05 83.765625Q711.6281 81.96875 711.6281 77.9375ZM713.4406 77.9375Q713.4406 81.46875 714.2531 82.640625Q715.08124 83.796875 716.3 83.796875Q717.5031 83.796875 718.33124 82.625Q719.15936 81.453125 719.15936 77.9375Q719.15936 74.40625 718.33124 73.25Q717.5031 72.078125 716.28436 72.078125Q715.0656 72.078125 714.34686 73.109375Q713.4406 74.40625 713.4406 77.9375ZM722.6281 77.9375Q722.6281 75.40625 723.14374 73.859375Q723.675 72.296875 724.70624 71.46875Q725.7375 70.625 727.3 70.625Q728.45624 70.625 729.3156 71.09375Q730.1906 71.546875 730.7531 72.421875Q731.3156 73.296875 731.64374 74.5625Q731.97186 75.8125 731.97186 77.9375Q731.97186 80.453125 731.4406 82.0Q730.925 83.546875 729.89374 84.40625Q728.8781 85.25 727.3 85.25Q725.22186 85.25 724.05 83.765625Q722.6281 81.96875 722.6281 77.9375ZM724.4406 77.9375Q724.4406 81.46875 725.2531 82.640625Q726.08124 83.796875 727.3 83.796875Q728.5031 83.796875 729.33124 82.625Q730.15936 81.453125 730.15936 77.9375Q730.15936 74.40625 729.33124 73.25Q728.5031 72.078125 727.28436 72.078125Q726.0656 72.078125 725.34686 73.109375Q724.4406 74.40625 724.4406 77.9375ZM734.26874 85.0L734.26874 70.6875L736.15936 70.6875L736.15936 77.78125L743.26874 70.6875L745.83124 70.6875L739.83124 76.484375L746.09686 85.0L743.59686 85.0L738.5031 77.75L736.15936 80.03125L736.15936 85.0L734.26874 85.0Z" fill-rule="nonzero"/><path fill="#ea4335" d="M646.8 107.0C646.8 106.447716 647.24774 106.0 647.8 106.0L657.8 106.0C658.3523 106.0 658.8 106.447716 658.8 107.0L658.8 117.0C658.8 117.552284 658.3523 118.0 657.8 118.0L647.8 118.0C647.24774 118.0 646.8 117.552284 646.8 117.0Z" fill-rule="nonzero"/><path fill="#1a1a1a" d="M667.64374 115.21875L669.39374 114.984375Q669.70624 116.484375 670.425 117.140625Q671.15936 117.796875 672.20624 117.796875Q673.4406 117.796875 674.28436 116.9375Q675.14374 116.078125 675.14374 114.8125Q675.14374 113.59375 674.34686 112.8125Q673.5656 112.03125 672.34686 112.03125Q671.84686 112.03125 671.1125 112.21875L671.3 110.671875Q671.47186 110.703125 671.58124 110.703125Q672.70624 110.703125 673.59686 110.125Q674.5031 109.53125 674.5031 108.3125Q674.5031 107.34375 673.84686 106.703125Q673.1906 106.0625 672.15936 106.0625Q671.14374 106.0625 670.45624 106.71875Q669.76874 107.359375 669.58124 108.640625L667.8156 108.328125Q668.14374 106.5625 669.28436 105.59375Q670.425 104.625 672.1281 104.625Q673.3 104.625 674.28436 105.125Q675.26874 105.625 675.78436 106.5Q676.3156 107.375 676.3156 108.34375Q676.3156 109.265625 675.8156 110.03125Q675.3156 110.796875 674.34686 111.25Q675.6125 111.53125 676.3156 112.46875Q677.01874 113.390625 677.01874 114.765625Q677.01874 116.640625 675.64374 117.953125Q674.28436 119.25 672.1906 119.25Q670.3 119.25 669.05 118.125Q667.8156 117.0 667.64374 115.21875ZM678.89374 115.6875L680.58124 115.53125Q680.8 116.71875 681.39374 117.265625Q682.0031 117.796875 682.95624 117.796875Q683.76874 117.796875 684.3781 117.4375Q684.9875 117.0625 685.3781 116.4375Q685.76874 115.8125 686.03436 114.765625Q686.3 113.703125 686.3 112.609375Q686.3 112.5 686.28436 112.265625Q685.7531 113.09375 684.84686 113.625Q683.9406 114.140625 682.8625 114.140625Q681.09686 114.140625 679.8625 112.859375Q678.6281 111.5625 678.6281 109.453125Q678.6281 107.28125 679.90936 105.953125Q681.20624 104.625 683.1281 104.625Q684.53436 104.625 685.6906 105.375Q686.84686 106.125 687.4406 107.515625Q688.05 108.90625 688.05 111.546875Q688.05 114.296875 687.4406 115.921875Q686.84686 117.546875 685.675 118.40625Q684.5031 119.25 682.925 119.25Q681.2375 119.25 680.175 118.3125Q679.1125 117.375 678.89374 115.6875ZM686.09686 109.375Q686.09686 107.859375 685.28436 106.96875Q684.4875 106.078125 683.34686 106.078125Q682.175 106.078125 681.3 107.046875Q680.4406 108.0 680.4406 109.515625Q680.4406 110.890625 681.2531 111.75Q682.08124 112.59375 683.3 112.59375Q684.51874 112.59375 685.3 111.75Q686.09686 110.890625 686.09686 109.375ZM689.6281 115.25L691.47186 115.09375Q691.675 116.4375 692.425 117.125Q693.175 117.796875 694.2375 117.796875Q695.5031 117.796875 696.3781 116.84375Q697.2531 115.890625 697.2531 114.296875Q697.2531 112.796875 696.40936 111.9375Q695.5656 111.0625 694.20624 111.0625Q693.34686 111.0625 692.65936 111.453125Q691.9875 111.828125 691.59686 112.453125L689.9406 112.234375L691.33124 104.875L698.45624 104.875L698.45624 106.5625L692.7375 106.5625L691.97186 110.40625Q693.2531 109.5 694.675 109.5Q696.55 109.5 697.83124 110.8125Q699.1281 112.109375 699.1281 114.140625Q699.1281 116.09375 697.9875 117.5Q696.6125 119.25 694.2375 119.25Q692.28436 119.25 691.03436 118.15625Q689.8 117.0625 689.6281 115.25ZM700.6281 111.9375Q700.6281 109.40625 701.14374 107.859375Q701.675 106.296875 702.70624 105.46875Q703.7375 104.625 705.3 104.625Q706.45624 104.625 707.3156 105.09375Q708.1906 105.546875 708.7531 106.421875Q709.3156 107.296875 709.64374 108.5625Q709.97186 109.8125 709.97186 111.9375Q709.97186 114.453125 709.4406 116.0Q708.925 117.546875 707.89374 118.40625Q706.8781 119.25 705.3 119.25Q703.22186 119.25 702.05 117.765625Q700.6281 115.96875 700.6281 111.9375ZM702.4406 111.9375Q702.4406 115.46875 703.2531 116.640625Q704.08124 117.796875 705.3 117.796875Q706.5031 117.796875 707.33124 116.625Q708.15936 115.453125 708.15936 111.9375Q708.15936 108.40625 707.33124 107.25Q706.5031 106.078125 705.28436 106.078125Q704.0656 106.078125 703.34686 107.109375Q702.4406 108.40625 702.4406 111.9375ZM710.9406 119.0L714.7375 113.609375L711.2375 108.625L713.425 108.625L715.01874 111.0625Q715.47186 111.75 715.7375 112.21875Q716.175 111.578125 716.53436 111.078125L718.28436 108.625L720.3781 108.625L716.8 113.515625L720.65936 119.0L718.5031 119.0L716.3625 115.78125L715.8 114.90625L713.08124 119.0L710.9406 119.0Z" fill-rule="nonzero"/><path fill="#fbbc04" d="M646.8 141.0C646.8 140.44771 647.24774 140.0 647.8 140.0L657.8 140.0C658.3523 140.0 658.8 140.44771 658.8 141.0L658.8 151.0C658.8 151.55229 658.3523 152.0 657.8 152.0L647.8 152.0C647.24774 152.0 646.8 151.55229 646.8 151.0Z" fill-rule="nonzero"/><path fill="#1a1a1a" d="M668.1281 140.70312L668.1281 138.6875L669.89374 138.6875L669.89374 140.70312L668.1281 140.70312ZM668.1281 153.0L668.1281 142.625L669.89374 142.625L669.89374 153.0L668.1281 153.0ZM671.89374 149.6875L673.58124 149.53125Q673.8 150.71875 674.39374 151.26562Q675.0031 151.79688 675.95624 151.79688Q676.76874 151.79688 677.3781 151.4375Q677.9875 151.0625 678.3781 150.4375Q678.76874 149.8125 679.03436 148.76562Q679.3 147.70312 679.3 146.60938Q679.3 146.5 679.28436 146.26562Q678.7531 147.09375 677.84686 147.625Q676.9406 148.14062 675.8625 148.14062Q674.09686 148.14062 672.8625 146.85938Q671.6281 145.5625 671.6281 143.45312Q671.6281 141.28125 672.90936 139.95312Q674.20624 138.625 676.1281 138.625Q677.53436 138.625 678.6906 139.375Q679.84686 140.125 680.4406 141.51562Q681.05 142.90625 681.05 145.54688Q681.05 148.29688 680.4406 149.92188Q679.84686 151.54688 678.675 152.40625Q677.5031 153.25 675.925 153.25Q674.2375 153.25 673.175 152.3125Q672.1125 151.375 671.89374 149.6875ZM679.09686 143.375Q679.09686 141.85938 678.28436 140.96875Q677.4875 140.07812 676.34686 140.07812Q675.175 140.07812 674.3 141.04688Q673.4406 142.0 673.4406 143.51562Q673.4406 144.89062 674.2531 145.75Q675.08124 146.59375 676.3 146.59375Q677.51874 146.59375 678.3 145.75Q679.09686 144.89062 679.09686 143.375ZM682.4406 148.70312L682.4406 146.9375L687.83124 146.9375L687.83124 148.70312L682.4406 148.70312ZM692.33124 145.23438Q691.2375 144.82812 690.70624 144.09375Q690.1906 143.34375 690.1906 142.3125Q690.1906 140.75 691.3156 139.6875Q692.4406 138.625 694.3 138.625Q696.175 138.625 697.3156 139.71875Q698.45624 140.79688 698.45624 142.35938Q698.45624 143.35938 697.925 144.09375Q697.40936 144.82812 696.34686 145.23438Q697.675 145.67188 698.3625 146.625Q699.05 147.57812 699.05 148.90625Q699.05 150.75 697.7375 152.0Q696.4406 153.25 694.33124 153.25Q692.20624 153.25 690.90936 152.0Q689.6125 150.73438 689.6125 148.85938Q689.6125 147.46875 690.3156 146.53125Q691.03436 145.57812 692.33124 145.23438ZM691.9875 142.25Q691.9875 143.26562 692.64374 143.92188Q693.3 144.5625 694.33124 144.5625Q695.34686 144.5625 696.0031 143.92188Q696.65936 143.28125 696.65936 142.35938Q696.65936 141.39062 695.9875 140.73438Q695.3156 140.0625 694.3156 140.0625Q693.3156 140.0625 692.64374 140.71875Q691.9875 141.35938 691.9875 142.25ZM691.425 148.875Q691.425 149.625 691.76874 150.32812Q692.1281 151.03125 692.83124 151.42188Q693.53436 151.79688 694.34686 151.79688Q695.6125 151.79688 696.425 150.98438Q697.2531 150.17188 697.2531 148.92188Q697.2531 147.65625 696.40936 146.82812Q695.5656 146.0 694.28436 146.0Q693.05 146.0 692.2375 146.82812Q691.425 147.64062 691.425 148.875ZM700.89374 149.6875L702.58124 149.53125Q702.8 150.71875 703.39374 151.26562Q704.0031 151.79688 704.95624 151.79688Q705.76874 151.79688 706.3781 151.4375Q706.9875 151.0625 707.3781 150.4375Q707.76874 149.8125 708.03436 148.76562Q708.3 147.70312 708.3 146.60938Q708.3 146.5 708.28436 146.26562Q707.7531 147.09375 706.84686 147.625Q705.9406 148.14062 704.8625 148.14062Q703.09686 148.14062 701.8625 146.85938Q700.6281 145.5625 700.6281 143.45312Q700.6281 141.28125 701.90936 139.95312Q703.20624 138.625 705.1281 138.625Q706.53436 138.625 707.6906 139.375Q708.84686 140.125 709.4406 141.51562Q710.05 142.90625 710.05 145.54688Q710.05 148.29688 709.4406 149.92188Q708.84686 151.54688 707.675 152.40625Q706.5031 153.25 704.925 153.25Q703.2375 153.25 702.175 152.3125Q701.1125 151.375 700.89374 149.6875ZM708.09686 143.375Q708.09686 141.85938 707.28436 140.96875Q706.4875 140.07812 705.34686 140.07812Q704.175 140.07812 703.3 141.04688Q702.4406 142.0 702.4406 143.51562Q702.4406 144.89062 703.2531 145.75Q704.08124 146.59375 705.3 146.59375Q706.51874 146.59375 707.3 145.75Q708.09686 144.89062 708.09686 143.375ZM711.6281 149.25L713.47186 149.09375Q713.675 150.4375 714.425 151.125Q715.175 151.79688 716.2375 151.79688Q717.5031 151.79688 718.3781 150.84375Q719.2531 149.89062 719.2531 148.29688Q719.2531 146.79688 718.40936 145.9375Q717.5656 145.0625 716.20624 145.0625Q715.34686 145.0625 714.65936 145.45312Q713.9875 145.82812 713.59686 146.45312L711.9406 146.23438L713.33124 138.875L720.45624 138.875L720.45624 140.5625L714.7375 140.5625L713.97186 144.40625Q715.2531 143.5 716.675 143.5Q718.55 143.5 719.83124 144.8125Q721.1281 146.10938 721.1281 148.14062Q721.1281 150.09375 719.9875 151.5Q718.6125 153.25 716.2375 153.25Q714.28436 153.25 713.03436 152.15625Q711.8 151.0625 711.6281 149.25ZM722.6281 145.9375Q722.6281 143.40625 723.14374 141.85938Q723.675 140.29688 724.70624 139.46875Q725.7375 138.625 727.3 138.625Q728.45624 138.625 729.3156 139.09375Q730.1906 139.54688 730.7531 140.42188Q731.3156 141.29688 731.64374 142.5625Q731.97186 143.8125 731.97186 145.9375Q731.97186 148.45312 731.4406 150.0Q730.925 151.54688 729.89374 152.40625Q728.8781 153.25 727.3 153.25Q725.22186 153.25 724.05 151.76562Q722.6281 149.96875 722.6281 145.9375ZM724.4406 145.9375Q724.4406 149.46875 725.2531 150.64062Q726.08124 151.79688 727.3 151.79688Q728.5031 151.79688 729.33124 150.625Q730.15936 149.45312 730.15936 145.9375Q730.15936 142.40625 729.33124 141.25Q728.5031 140.07812 727.28436 140.07812Q726.0656 140.07812 725.34686 141.10938Q724.4406 142.40625 724.4406 145.9375ZM734.40936 153.0L734.40936 138.6875L736.3 138.6875L736.3 144.5625L743.7375 144.5625L743.7375 138.6875L745.6281 138.6875L745.6281 153.0L743.7375 153.0L743.7375 146.25L736.3 146.25L736.3 153.0L734.40936 153.0ZM748.26874 153.0L748.26874 138.6875L750.15936 138.6875L750.15936 145.78125L757.26874 138.6875L759.83124 138.6875L753.83124 144.48438L760.09686 153.0L757.59686 153.0L752.5031 145.75L750.15936 148.03125L750.15936 153.0L748.26874 153.0Z" fill-rule="nonzero"/><path fill="#34a853" d="M646.8 175.0C646.8 174.44771 647.24774 174.0 647.8 174.0L657.8 174.0C658.3523 174.0 658.8 174.44771 658.8 175.0L658.8 185.0C658.8 185.55229 658.3523 186.0 657.8 186.0L647.8 186.0C647.24774 186.0 646.8 185.55229 646.8 185.0Z" fill-rule="nonzero"/><path fill="#1a1a1a" d="M668.1281 174.70312L668.1281 172.6875L669.89374 172.6875L669.89374 174.70312L668.1281 174.70312ZM668.1281 187.0L668.1281 176.625L669.89374 176.625L669.89374 187.0L668.1281 187.0ZM671.7531 174.5625L671.7531 172.875L681.01874 172.875L681.01874 174.23438Q679.64374 175.6875 678.3 178.10938Q676.95624 180.51562 676.2375 183.0625Q675.70624 184.85938 675.55 187.0L673.7531 187.0Q673.78436 185.3125 674.40936 182.92188Q675.05 180.53125 676.2375 178.3125Q677.425 176.07812 678.7531 174.5625L671.7531 174.5625ZM682.4406 182.70312L682.4406 180.9375L687.83124 180.9375L687.83124 182.70312L682.4406 182.70312ZM695.26874 187.0L695.26874 183.57812L689.05 183.57812L689.05 181.95312L695.58124 172.6875L697.01874 172.6875L697.01874 181.95312L698.95624 181.95312L698.95624 183.57812L697.01874 183.57812L697.01874 187.0L695.26874 187.0ZM695.26874 181.95312L695.26874 175.5L690.78436 181.95312L695.26874 181.95312ZM700.89374 183.6875L702.58124 183.53125Q702.8 184.71875 703.39374 185.26562Q704.0031 185.79688 704.95624 185.79688Q705.76874 185.79688 706.3781 185.4375Q706.9875 185.0625 707.3781 184.4375Q707.76874 183.8125 708.03436 182.76562Q708.3 181.70312 708.3 180.60938Q708.3 180.5 708.28436 180.26562Q707.7531 181.09375 706.84686 181.625Q705.9406 182.14062 704.8625 182.14062Q703.09686 182.14062 701.8625 180.85938Q700.6281 179.5625 700.6281 177.45312Q700.6281 175.28125 701.90936 173.95312Q703.20624 172.625 705.1281 172.625Q706.53436 172.625 707.6906 173.375Q708.84686 174.125 709.4406 175.51562Q710.05 176.90625 710.05 179.54688Q710.05 182.29688 709.4406 183.92188Q708.84686 185.54688 707.675 186.40625Q706.5031 187.25 704.925 187.25Q703.2375 187.25 702.175 186.3125Q701.1125 185.375 700.89374 183.6875ZM708.09686 177.375Q708.09686 175.85938 707.28436 174.96875Q706.4875 174.07812 705.34686 174.07812Q704.175 174.07812 703.3 175.04688Q702.4406 176.0 702.4406 177.51562Q702.4406 178.89062 703.2531 179.75Q704.08124 180.59375 705.3 180.59375Q706.51874 180.59375 707.3 179.75Q708.09686 178.89062 708.09686 177.375ZM720.7531 176.1875L719.0031 176.32812Q718.76874 175.29688 718.34686 174.82812Q717.6281 174.0625 716.58124 174.0625Q715.7375 174.0625 715.1125 174.53125Q714.28436 175.14062 713.8 176.3125Q713.3156 177.46875 713.3 179.60938Q713.9406 178.65625 714.84686 178.1875Q715.76874 177.71875 716.78436 177.71875Q718.53436 177.71875 719.76874 179.01562Q721.0031 180.29688 721.0031 182.34375Q721.0031 183.70312 720.425 184.85938Q719.84686 186.01562 718.83124 186.64062Q717.8156 187.25 716.51874 187.25Q714.33124 187.25 712.9406 185.64062Q711.55 184.01562 711.55 180.29688Q711.55 176.15625 713.08124 174.26562Q714.425 172.625 716.6906 172.625Q718.3781 172.625 719.45624 173.57812Q720.53436 174.51562 720.7531 176.1875ZM713.58124 182.35938Q713.58124 183.26562 713.95624 184.09375Q714.34686 184.92188 715.03436 185.35938Q715.7375 185.79688 716.4875 185.79688Q717.6125 185.79688 718.40936 184.90625Q719.20624 184.0 719.20624 182.45312Q719.20624 180.96875 718.40936 180.125Q717.6281 179.26562 716.425 179.26562Q715.2375 179.26562 714.40936 180.125Q713.58124 180.96875 713.58124 182.35938ZM722.6281 179.9375Q722.6281 177.40625 723.14374 175.85938Q723.675 174.29688 724.70624 173.46875Q725.7375 172.625 727.3 172.625Q728.45624 172.625 729.3156 173.09375Q730.1906 173.54688 730.7531 174.42188Q731.3156 175.29688 731.64374 176.5625Q731.97186 177.8125 731.97186 179.9375Q731.97186 182.45312 731.4406 184.0Q730.925 185.54688 729.89374 186.40625Q728.8781 187.25 727.3 187.25Q725.22186 187.25 724.05 185.76562Q722.6281 183.96875 722.6281 179.9375ZM724.4406 179.9375Q724.4406 183.46875 725.2531 184.64062Q726.08124 185.79688 727.3 185.79688Q728.5031 185.79688 729.33124 184.625Q730.15936 183.45312 730.15936 179.9375Q730.15936 176.40625 729.33124 175.25Q728.5031 174.07812 727.28436 174.07812Q726.0656 174.07812 725.34686 175.10938Q724.4406 176.40625 724.4406 179.9375ZM734.40936 187.0L734.40936 172.6875L736.3 172.6875L736.3 178.5625L743.7375 178.5625L743.7375 172.6875L745.6281 172.6875L745.6281 187.0L743.7375 187.0L743.7375 180.25L736.3 180.25L736.3 187.0L734.40936 187.0ZM759.1906 185.46875Q760.51874 186.375 761.6281 186.79688L761.0656 188.10938Q759.51874 187.5625 757.9875 186.35938Q756.39374 187.25 754.47186 187.25Q752.53436 187.25 750.9406 186.3125Q749.3625 185.375 748.5031 183.67188Q747.65936 181.96875 747.65936 179.84375Q747.65936 177.71875 748.51874 175.98438Q749.3781 174.25 750.95624 173.34375Q752.55 172.42188 754.51874 172.42188Q756.5031 172.42188 758.08124 173.375Q759.675 174.3125 760.5031 176.01562Q761.34686 177.70312 761.34686 179.82812Q761.34686 181.59375 760.8156 183.01562Q760.28436 184.42188 759.1906 185.46875ZM755.01874 183.04688Q756.65936 183.5 757.72186 184.40625Q759.39374 182.89062 759.39374 179.82812Q759.39374 178.09375 758.8 176.79688Q758.22186 175.5 757.08124 174.78125Q755.9406 174.0625 754.51874 174.0625Q752.40936 174.0625 751.0031 175.51562Q749.6125 176.95312 749.6125 179.84375Q749.6125 182.64062 750.9875 184.14062Q752.3781 185.625 754.51874 185.625Q755.53436 185.625 756.4406 185.23438Q755.55 184.67188 754.5656 184.42188L755.01874 183.04688Z" fill-rule="nonzero"/><path fill="#ff6d01" d="M646.8 209.0C646.8 208.44771 647.24774 208.0 647.8 208.0L657.8 208.0C658.3523 208.0 658.8 208.44771 658.8 209.0L658.8 219.0C658.8 219.55229 658.3523 220.0 657.8 220.0L647.8 220.0C647.24774 220.0 646.8 219.55229 646.8 219.0Z" fill-rule="nonzero"/><path fill="#1a1a1a" d="M668.1281 208.70312L668.1281 206.6875L669.89374 206.6875L669.89374 208.70312L668.1281 208.70312ZM668.1281 221.0L668.1281 210.625L669.89374 210.625L669.89374 221.0L668.1281 221.0ZM671.6281 217.25L673.47186 217.09375Q673.675 218.4375 674.425 219.125Q675.175 219.79688 676.2375 219.79688Q677.5031 219.79688 678.3781 218.84375Q679.2531 217.89062 679.2531 216.29688Q679.2531 214.79688 678.40936 213.9375Q677.5656 213.0625 676.20624 213.0625Q675.34686 213.0625 674.65936 213.45312Q673.9875 213.82812 673.59686 214.45312L671.9406 214.23438L673.33124 206.875L680.45624 206.875L680.45624 208.5625L674.7375 208.5625L673.97186 212.40625Q675.2531 211.5 676.675 211.5Q678.55 211.5 679.83124 212.8125Q681.1281 214.10938 681.1281 216.14062Q681.1281 218.09375 679.9875 219.5Q678.6125 221.25 676.2375 221.25Q674.28436 221.25 673.03436 220.15625Q671.8 219.0625 671.6281 217.25ZM682.4406 216.70312L682.4406 214.9375L687.83124 214.9375L687.83124 216.70312L682.4406 216.70312ZM689.7531 208.5625L689.7531 206.875L699.01874 206.875L699.01874 208.23438Q697.64374 209.6875 696.3 212.10938Q694.95624 214.51562 694.2375 217.0625Q693.70624 218.85938 693.55 221.0L691.7531 221.0Q691.78436 219.3125 692.40936 216.92188Q693.05 214.53125 694.2375 212.3125Q695.425 210.07812 696.7531 208.5625L689.7531 208.5625ZM700.6281 217.25L702.47186 217.09375Q702.675 218.4375 703.425 219.125Q704.175 219.79688 705.2375 219.79688Q706.5031 219.79688 707.3781 218.84375Q708.2531 217.89062 708.2531 216.29688Q708.2531 214.79688 707.40936 213.9375Q706.5656 213.0625 705.20624 213.0625Q704.34686 213.0625 703.65936 213.45312Q702.9875 213.82812 702.59686 214.45312L700.9406 214.23438L702.33124 206.875L709.45624 206.875L709.45624 208.5625L703.7375 208.5625L702.97186 212.40625Q704.2531 211.5 705.675 211.5Q707.55 211.5 708.83124 212.8125Q710.1281 214.10938 710.1281 216.14062Q710.1281 218.09375 708.9875 219.5Q707.6125 221.25 705.2375 221.25Q703.28436 221.25 702.03436 220.15625Q700.8 219.0625 700.6281 217.25ZM711.6281 213.9375Q711.6281 211.40625 712.14374 209.85938Q712.675 208.29688 713.70624 207.46875Q714.7375 206.625 716.3 206.625Q717.45624 206.625 718.3156 207.09375Q719.1906 207.54688 719.7531 208.42188Q720.3156 209.29688 720.64374 210.5625Q720.97186 211.8125 720.97186 213.9375Q720.97186 216.45312 720.4406 218.0Q719.925 219.54688 718.89374 220.40625Q717.8781 221.25 716.3 221.25Q714.22186 221.25 713.05 219.76562Q711.6281 217.96875 711.6281 213.9375ZM713.4406 213.9375Q713.4406 217.46875 714.2531 218.64062Q715.08124 219.79688 716.3 219.79688Q717.5031 219.79688 718.33124 218.625Q719.15936 217.45312 719.15936 213.9375Q719.15936 210.40625 718.33124 209.25Q717.5031 208.07812 716.28436 208.07812Q715.0656 208.07812 714.34686 209.10938Q713.4406 210.40625 713.4406 213.9375ZM722.6281 213.9375Q722.6281 211.40625 723.14374 209.85938Q723.675 208.29688 724.70624 207.46875Q725.7375 206.625 727.3 206.625Q728.45624 206.625 729.3156 207.09375Q730.1906 207.54688 730.7531 208.42188Q731.3156 209.29688 731.64374 210.5625Q731.97186 211.8125 731.97186 213.9375Q731.97186 216.45312 731.4406 218.0Q730.925 219.54688 729.89374 220.40625Q728.8781 221.25 727.3 221.25Q725.22186 221.25 724.05 219.76562Q722.6281 217.96875 722.6281 213.9375ZM724.4406 213.9375Q724.4406 217.46875 725.2531 218.64062Q726.08124 219.79688 727.3 219.79688Q728.5031 219.79688 729.33124 218.625Q730.15936 217.45312 730.15936 213.9375Q730.15936 210.40625 729.33124 209.25Q728.5031 208.07812 727.28436 208.07812Q726.0656 208.07812 725.34686 209.10938Q724.4406 210.40625 724.4406 213.9375Z" fill-rule="nonzero"/><path fill="#46bdc6" d="M646.8 243.0C646.8 242.44771 647.24774 242.0 647.8 242.0L657.8 242.0C658.3523 242.0 658.8 242.44771 658.8 243.0L658.8 253.0C658.8 253.55229 658.3523 254.0 657.8 254.0L647.8 254.0C647.24774 254.0 646.8 253.55229 646.8 253.0Z" fill-rule="nonzero"/><path fill="#1a1a1a" d="M667.64374 251.21875L669.39374 250.98438Q669.70624 252.48438 670.425 253.14062Q671.15936 253.79688 672.20624 253.79688Q673.4406 253.79688 674.28436 252.9375Q675.14374 252.07812 675.14374 250.8125Q675.14374 249.59375 674.34686 248.8125Q673.5656 248.03125 672.34686 248.03125Q671.84686 248.03125 671.1125 248.21875L671.3 246.67188Q671.47186 246.70312 671.58124 246.70312Q672.70624 246.70312 673.59686 246.125Q674.5031 245.53125 674.5031 244.3125Q674.5031 243.34375 673.84686 242.70312Q673.1906 242.0625 672.15936 242.0625Q671.14374 242.0625 670.45624 242.71875Q669.76874 243.35938 669.58124 244.64062L667.8156 244.32812Q668.14374 242.5625 669.28436 241.59375Q670.425 240.625 672.1281 240.625Q673.3 240.625 674.28436 241.125Q675.26874 241.625 675.78436 242.5Q676.3156 243.375 676.3156 244.34375Q676.3156 245.26562 675.8156 246.03125Q675.3156 246.79688 674.34686 247.25Q675.6125 247.53125 676.3156 248.46875Q677.01874 249.39062 677.01874 250.76562Q677.01874 252.64062 675.64374 253.95312Q674.28436 255.25 672.1906 255.25Q670.3 255.25 669.05 254.125Q667.8156 253.0 667.64374 251.21875ZM687.7531 244.1875L686.0031 244.32812Q685.76874 243.29688 685.34686 242.82812Q684.6281 242.0625 683.58124 242.0625Q682.7375 242.0625 682.1125 242.53125Q681.28436 243.14062 680.8 244.3125Q680.3156 245.46875 680.3 247.60938Q680.9406 246.65625 681.84686 246.1875Q682.76874 245.71875 683.78436 245.71875Q685.53436 245.71875 686.76874 247.01562Q688.0031 248.29688 688.0031 250.34375Q688.0031 251.70312 687.425 252.85938Q686.84686 254.01562 685.83124 254.64062Q684.8156 255.25 683.51874 255.25Q681.33124 255.25 679.9406 253.64062Q678.55 252.01562 678.55 248.29688Q678.55 244.15625 680.08124 242.26562Q681.425 240.625 683.6906 240.625Q685.3781 240.625 686.45624 241.57812Q687.53436 242.51562 687.7531 244.1875ZM680.58124 250.35938Q680.58124 251.26562 680.95624 252.09375Q681.34686 252.92188 682.03436 253.35938Q682.7375 253.79688 683.4875 253.79688Q684.6125 253.79688 685.40936 252.90625Q686.20624 252.0 686.20624 250.45312Q686.20624 248.96875 685.40936 248.125Q684.6281 247.26562 683.425 247.26562Q682.2375 247.26562 681.40936 248.125Q680.58124 248.96875 680.58124 250.35938ZM689.6281 247.9375Q689.6281 245.40625 690.14374 243.85938Q690.675 242.29688 691.70624 241.46875Q692.7375 240.625 694.3 240.625Q695.45624 240.625 696.3156 241.09375Q697.1906 241.54688 697.7531 242.42188Q698.3156 243.29688 698.64374 244.5625Q698.97186 245.8125 698.97186 247.9375Q698.97186 250.45312 698.4406 252.0Q697.925 253.54688 696.89374 254.40625Q695.8781 255.25 694.3 255.25Q692.22186 255.25 691.05 253.76562Q689.6281 251.96875 689.6281 247.9375ZM691.4406 247.9375Q691.4406 251.46875 692.2531 252.64062Q693.08124 253.79688 694.3 253.79688Q695.5031 253.79688 696.33124 252.625Q697.15936 251.45312 697.15936 247.9375Q697.15936 244.40625 696.33124 243.25Q695.5031 242.07812 694.28436 242.07812Q693.0656 242.07812 692.34686 243.10938Q691.4406 244.40625 691.4406 247.9375ZM700.6281 247.9375Q700.6281 245.40625 701.14374 243.85938Q701.675 242.29688 702.70624 241.46875Q703.7375 240.625 705.3 240.625Q706.45624 240.625 707.3156 241.09375Q708.1906 241.54688 708.7531 242.42188Q709.3156 243.29688 709.64374 244.5625Q709.97186 245.8125 709.97186 247.9375Q709.97186 250.45312 709.4406 252.0Q708.925 253.54688 707.89374 254.40625Q706.8781 255.25 705.3 255.25Q703.22186 255.25 702.05 253.76562Q700.6281 251.96875 700.6281 247.9375ZM702.4406 247.9375Q702.4406 251.46875 703.2531 252.64062Q704.08124 253.79688 705.3 253.79688Q706.5031 253.79688 707.33124 252.625Q708.15936 251.45312 708.15936 247.9375Q708.15936 244.40625 707.33124 243.25Q706.5031 242.07812 705.28436 242.07812Q704.0656 242.07812 703.34686 243.10938Q702.4406 244.40625 702.4406 247.9375Z" fill-rule="nonzero"/><path fill="#757575" d="M26.746876 44.2L26.746876 29.8875L32.1375 29.8875Q33.575 29.8875 34.325 30.0125Q35.371876 30.2 36.090626 30.7Q36.809376 31.184376 37.23125 32.075Q37.66875 32.965626 37.66875 34.028126Q37.66875 35.85625 36.496876 37.121876Q35.340626 38.371876 32.309376 38.371876L28.6375 38.371876L28.6375 44.2L26.746876 44.2ZM28.6375 36.684376L32.340626 36.684376Q34.16875 36.684376 34.934376 36.0125Q35.715626 35.325 35.715626 34.075Q35.715626 33.184376 35.2625 32.54375Q34.809376 31.903126 34.075 31.7Q33.590626 31.575 32.29375 31.575L28.6375 31.575L28.6375 36.684376ZM39.48125 44.2L39.48125 29.8875L41.23125 29.8875L41.23125 44.2L39.48125 44.2ZM50.29375 42.91875Q49.309376 43.746876 48.403126 44.090626Q47.496876 44.434376 46.465626 44.434376Q44.7625 44.434376 43.840626 43.60625Q42.91875 42.7625 42.91875 41.465626Q42.91875 40.7 43.2625 40.075Q43.621876 39.45 44.184376 39.075Q44.746876 38.684376 45.45 38.48125Q45.965626 38.35625 47.0125 38.215626Q49.1375 37.965626 50.1375 37.621876Q50.153126 37.2625 50.153126 37.153126Q50.153126 36.090626 49.653126 35.6375Q48.98125 35.04375 47.653126 35.04375Q46.403126 35.04375 45.809376 35.48125Q45.23125 35.91875 44.95 37.028126L43.23125 36.79375Q43.465626 35.684376 43.996876 35.0125Q44.528126 34.325 45.54375 33.965626Q46.559376 33.590626 47.903126 33.590626Q49.23125 33.590626 50.059376 33.903126Q50.8875 34.215626 51.278126 34.7Q51.66875 35.16875 51.825 35.8875Q51.91875 36.340626 51.91875 37.5125L51.91875 39.85625Q51.91875 42.309376 52.028126 42.965626Q52.1375 43.60625 52.48125 44.2L50.6375 44.2Q50.371876 43.653126 50.29375 42.91875ZM50.1375 38.996876Q49.184376 39.3875 47.2625 39.653126Q46.184376 39.809376 45.73125 40.0125Q45.29375 40.2 45.04375 40.575Q44.79375 40.95 44.79375 41.41875Q44.79375 42.121876 45.325 42.590626Q45.85625 43.059376 46.8875 43.059376Q47.903126 43.059376 48.684376 42.621876Q49.48125 42.16875 49.85625 41.403126Q50.1375 40.79375 50.1375 39.6375L50.1375 38.996876ZM54.528126 31.903126L54.528126 29.8875L56.29375 29.8875L56.29375 31.903126L54.528126 31.903126ZM54.528126 44.2L54.528126 33.825L56.29375 33.825L56.29375 44.2L54.528126 44.2ZM65.24687 44.2L65.24687 42.8875Q64.2625 44.434376 62.340626 44.434376Q61.10625 44.434376 60.059376 43.746876Q59.028126 43.059376 58.45 41.840626Q57.8875 40.621876 57.8875 39.028126Q57.8875 37.465626 58.403126 36.2Q58.91875 34.934376 59.95 34.2625Q60.996876 33.590626 62.2625 33.590626Q63.2 33.590626 63.934376 33.996876Q64.66875 34.3875 65.1375 35.0125L65.1375 29.8875L66.87187 29.8875L66.87187 44.2L65.24687 44.2ZM59.684376 39.028126Q59.684376 41.0125 60.528126 41.996876Q61.371876 42.98125 62.5125 42.98125Q63.66875 42.98125 64.46562 42.04375Q65.27812 41.10625 65.27812 39.16875Q65.27812 37.04375 64.45 36.04375Q63.6375 35.04375 62.434376 35.04375Q61.2625 35.04375 60.465626 36.0125Q59.684376 36.965626 59.684376 39.028126ZM75.52812 31.903126L75.52812 29.8875L77.29375 29.8875L77.29375 31.903126L75.52812 31.903126ZM75.52812 44.2L75.52812 33.825L77.29375 33.825L77.29375 44.2L75.52812 44.2ZM79.5125 44.2L79.5125 33.825L81.10625 33.825L81.10625 35.309376Q82.24687 33.590626 84.40312 33.590626Q85.34062 33.590626 86.12187 33.934376Q86.91875 34.2625 87.30937 34.809376Q87.7 35.35625 87.85625 36.10625Q87.95 36.60625 87.95 37.825L87.95 44.2L86.18437 44.2L86.18437 37.8875Q86.18437 36.809376 85.98125 36.278126Q85.77812 35.746876 85.24687 35.434376Q84.73125 35.121876 84.02812 35.121876Q82.90312 35.121876 82.09062 35.840626Q81.27812 36.54375 81.27812 38.528126L81.27812 44.2L79.5125 44.2ZM97.29375 40.403126L99.0125 40.621876Q98.73125 42.41875 97.55937 43.434376Q96.40312 44.434376 94.7 44.434376Q92.575 44.434376 91.27812 43.04375Q89.98125 41.653126 89.98125 39.059376Q89.98125 37.371876 90.52812 36.121876Q91.09062 34.85625 92.23125 34.23125Q93.37187 33.590626 94.71562 33.590626Q96.40312 33.590626 97.46562 34.45Q98.54375 35.309376 98.85625 36.871876L97.1375 37.1375Q96.90312 36.090626 96.27812 35.575Q95.65312 35.04375 94.77812 35.04375Q93.45 35.04375 92.62187 35.996876Q91.79375 36.95 91.79375 38.996876Q91.79375 41.090626 92.59062 42.04375Q93.3875 42.98125 94.68437 42.98125Q95.71562 42.98125 96.40312 42.35625Q97.10625 41.715626 97.29375 40.403126ZM100.49687 44.2L100.49687 33.825L102.075 33.825L102.075 35.403126Q102.68437 34.29375 103.2 33.95Q103.71562 33.590626 104.325 33.590626Q105.21562 33.590626 106.1375 34.153126L105.52812 35.79375Q104.8875 35.403126 104.24687 35.403126Q103.66875 35.403126 103.2 35.7625Q102.74687 36.10625 102.54375 36.715626Q102.2625 37.653126 102.2625 38.7625L102.2625 44.2L100.49687 44.2ZM114.62187 40.85625L116.43437 41.090626Q116.0125 42.66875 114.84062 43.559376Q113.68437 44.434376 111.87187 44.434376Q109.60625 44.434376 108.2625 43.04375Q106.93437 41.6375 106.93437 39.10625Q106.93437 36.48125 108.27812 35.04375Q109.62187 33.590626 111.77812 33.590626Q113.85625 33.590626 115.16875 35.0125Q116.49687 36.41875 116.49687 38.996876Q116.49687 39.153126 116.48125 39.465626L108.74687 39.465626Q108.84062 41.16875 109.71562 42.075Q110.59062 42.98125 111.8875 42.98125Q112.85625 42.98125 113.52812 42.48125Q114.21562 41.965626 114.62187 40.85625ZM108.84062 38.0125L114.6375 38.0125Q114.52812 36.715626 113.98125 36.059376Q113.1375 35.04375 111.79375 35.04375Q110.59062 35.04375 109.7625 35.85625Q108.93437 36.653126 108.84062 38.0125ZM118.5125 44.2L118.5125 33.825L120.09062 33.825L120.09062 35.278126Q120.575 34.528126 121.3875 34.059376Q122.2 33.590626 123.23125 33.590626Q124.3875 33.590626 125.12187 34.075Q125.85625 34.54375 126.16875 35.403126Q127.40312 33.590626 129.37187 33.590626Q130.91875 33.590626 131.74687 34.45Q132.575 35.309376 132.575 37.075L132.575 44.2L130.825 44.2L130.825 37.66875Q130.825 36.60625 130.65312 36.153126Q130.48125 35.684376 130.02812 35.403126Q129.59062 35.121876 128.98125 35.121876Q127.8875 35.121876 127.15312 35.85625Q126.43437 36.575 126.43437 38.16875L126.43437 44.2L124.68437 44.2L124.68437 37.465626Q124.68437 36.29375 124.24687 35.715626Q123.825 35.121876 122.84062 35.121876Q122.10625 35.121876 121.46562 35.5125Q120.84062 35.903126 120.55937 36.653126Q120.27812 37.403126 120.27812 38.825L120.27812 44.2L118.5125 44.2ZM142.62187 40.85625L144.43437 41.090626Q144.0125 42.66875 142.84062 43.559376Q141.68437 44.434376 139.87187 44.434376Q137.60625 44.434376 136.2625 43.04375Q134.93437 41.6375 134.93437 39.10625Q134.93437 36.48125 136.27812 35.04375Q137.62187 33.590626 139.77812 33.590626Q141.85625 33.590626 143.16875 35.0125Q144.49687 36.41875 144.49687 38.996876Q144.49687 39.153126 144.48125 39.465626L136.74687 39.465626Q136.84062 41.16875 137.71562 42.075Q138.59062 42.98125 139.8875 42.98125Q140.85625 42.98125 141.52812 42.48125Q142.21562 41.965626 142.62187 40.85625ZM136.84062 38.0125L142.6375 38.0125Q142.52812 36.715626 141.98125 36.059376Q141.1375 35.04375 139.79375 35.04375Q138.59062 35.04375 137.7625 35.85625Q136.93437 36.653126 136.84062 38.0125ZM146.5125 44.2L146.5125 33.825L148.10625 33.825L148.10625 35.309376Q149.24687 33.590626 151.40312 33.590626Q152.34062 33.590626 153.12187 33.934376Q153.91875 34.2625 154.30937 34.809376Q154.7 35.35625 154.85625 36.10625Q154.95 36.60625 154.95 37.825L154.95 44.2L153.18437 44.2L153.18437 37.8875Q153.18437 36.809376 152.98125 36.278126Q152.77812 35.746876 152.24687 35.434376Q151.73125 35.121876 151.02812 35.121876Q149.90312 35.121876 149.09062 35.840626Q148.27812 36.54375 148.27812 38.528126L148.27812 44.2L146.5125 44.2ZM161.35625 42.621876L161.60625 44.184376Q160.87187 44.340626 160.27812 44.340626Q159.325 44.340626 158.79375 44.04375Q158.27812 43.73125 158.05937 43.246876Q157.84062 42.746876 157.84062 41.16875L157.84062 35.2L156.55937 35.2L156.55937 33.825L157.84062 33.825L157.84062 31.2625L159.59062 30.2L159.59062 33.825L161.35625 33.825L161.35625 35.2L159.59062 35.2L159.59062 41.2625Q159.59062 42.0125 159.68437 42.23125Q159.77812 42.434376 159.98125 42.575Q160.2 42.7 160.59062 42.7Q160.87187 42.7 161.35625 42.621876ZM170.29375 42.91875Q169.30937 43.746876 168.40312 44.090626Q167.49687 44.434376 166.46562 44.434376Q164.7625 44.434376 163.84062 43.60625Q162.91875 42.7625 162.91875 41.465626Q162.91875 40.7 163.2625 40.075Q163.62187 39.45 164.18437 39.075Q164.74687 38.684376 165.45 38.48125Q165.96562 38.35625 167.0125 38.215626Q169.1375 37.965626 170.1375 37.621876Q170.15312 37.2625 170.15312 37.153126Q170.15312 36.090626 169.65312 35.6375Q168.98125 35.04375 167.65312 35.04375Q166.40312 35.04375 165.80937 35.48125Q165.23125 35.91875 164.95 37.028126L163.23125 36.79375Q163.46562 35.684376 163.99687 35.0125Q164.52812 34.325 165.54375 33.965626Q166.55937 33.590626 167.90312 33.590626Q169.23125 33.590626 170.05937 33.903126Q170.8875 34.215626 171.27812 34.7Q171.66875 35.16875 171.825 35.8875Q171.91875 36.340626 171.91875 37.5125L171.91875 39.85625Q171.91875 42.309376 172.02812 42.965626Q172.1375 43.60625 172.48125 44.2L170.6375 44.2Q170.37187 43.653126 170.29375 42.91875ZM170.1375 38.996876Q169.18437 39.3875 167.2625 39.653126Q166.18437 39.809376 165.73125 40.0125Q165.29375 40.2 165.04375 40.575Q164.79375 40.95 164.79375 41.41875Q164.79375 42.121876 165.325 42.590626Q165.85625 43.059376 166.8875 43.059376Q167.90312 43.059376 168.68437 42.621876Q169.48125 42.16875 169.85625 41.403126Q170.1375 40.79375 170.1375 39.6375L170.1375 38.996876ZM174.48125 44.2L174.48125 29.8875L176.23125 29.8875L176.23125 44.2L174.48125 44.2ZM186.1375 44.2L184.5125 44.2L184.5125 29.8875L186.2625 29.8875L186.2625 34.996876Q187.3875 33.590626 189.10625 33.590626Q190.05937 33.590626 190.91875 33.98125Q191.77812 34.371876 192.325 35.075Q192.87187 35.7625 193.18437 36.746876Q193.49687 37.73125 193.49687 38.85625Q193.49687 41.528126 192.18437 42.98125Q190.87187 44.434376 189.02812 44.434376Q187.18437 44.434376 186.1375 42.903126L186.1375 44.2ZM186.12187 38.934376Q186.12187 40.79375 186.62187 41.6375Q187.46562 42.98125 188.87187 42.98125Q190.02812 42.98125 190.85625 41.98125Q191.7 40.98125 191.7 38.996876Q191.7 36.965626 190.8875 36.0125Q190.09062 35.04375 188.95 35.04375Q187.79375 35.04375 186.95 36.04375Q186.12187 37.04375 186.12187 38.934376ZM202.30937 44.2L202.30937 42.66875Q201.10625 44.434376 199.02812 44.434376Q198.10625 44.434376 197.30937 44.090626Q196.5125 43.73125 196.12187 43.2Q195.74687 42.66875 195.59062 41.8875Q195.48125 41.371876 195.48125 40.246876L195.48125 33.825L197.23125 33.825L197.23125 39.575Q197.23125 40.95 197.34062 41.434376Q197.5125 42.121876 198.04375 42.528126Q198.59062 42.91875 199.37187 42.91875Q200.16875 42.91875 200.85625 42.5125Q201.55937 42.10625 201.84062 41.41875Q202.1375 40.715626 202.1375 39.3875L202.1375 33.825L203.8875 33.825L203.8875 44.2L202.30937 44.2ZM206.52812 31.903126L206.52812 29.8875L208.29375 29.8875L208.29375 31.903126L206.52812 31.903126ZM206.52812 44.2L206.52812 33.825L208.29375 33.825L208.29375 44.2L206.52812 44.2ZM210.48125 44.2L210.48125 29.8875L212.23125 29.8875L212.23125 44.2L210.48125 44.2ZM221.24687 44.2L221.24687 42.8875Q220.2625 44.434376 218.34062 44.434376Q217.10625 44.434376 216.05937 43.746876Q215.02812 43.059376 214.45 41.840626Q213.8875 40.621876 213.8875 39.028126Q213.8875 37.465626 214.40312 36.2Q214.91875 34.934376 215.95 34.2625Q216.99687 33.590626 218.2625 33.590626Q219.2 33.590626 219.93437 33.996876Q220.66875 34.3875 221.1375 35.0125L221.1375 29.8875L222.87187 29.8875L222.87187 44.2L221.24687 44.2ZM215.68437 39.028126Q215.68437 41.0125 216.52812 41.996876Q217.37187 42.98125 218.5125 42.98125Q219.66875 42.98125 220.46562 42.04375Q221.27812 41.10625 221.27812 39.16875Q221.27812 37.04375 220.45 36.04375Q219.6375 35.04375 218.43437 35.04375Q217.2625 35.04375 216.46562 36.0125Q215.68437 36.965626 215.68437 39.028126ZM231.52812 31.903126L231.52812 29.8875L233.29375 29.8875L233.29375 31.903126L231.52812 31.903126ZM231.52812 44.2L231.52812 33.825L233.29375 33.825L233.29375 44.2L231.52812 44.2ZM235.5125 44.2L235.5125 33.825L237.10625 33.825L237.10625 35.309376Q238.24687 33.590626 240.40312 33.590626Q241.34062 33.590626 242.12187 33.934376Q242.91875 34.2625 243.30937 34.809376Q243.7 35.35625 243.85625 36.10625Q243.95 36.60625 243.95 37.825L243.95 44.2L242.18437 44.2L242.18437 37.8875Q242.18437 36.809376 241.98125 36.278126Q241.77812 35.746876 241.24687 35.434376Q240.73125 35.121876 240.02812 35.121876Q238.90312 35.121876 238.09062 35.840626Q237.27812 36.54375 237.27812 38.528126L237.27812 44.2L235.5125 44.2ZM251.80937 41.10625L253.55937 40.825Q253.7 41.871876 254.37187 42.434376Q255.04375 42.98125 256.2469 42.98125Q257.45 42.98125 258.02814 42.496876Q258.6219 41.996876 258.6219 41.340626Q258.6219 40.746876 258.10626 40.403126Q257.7469 40.16875 256.3094 39.809376Q254.37187 39.309376 253.62187 38.965626Q252.8875 38.60625 252.49687 37.98125Q252.10625 37.340626 252.10625 36.575Q252.10625 35.8875 252.41875 35.29375Q252.74687 34.7 253.29375 34.309376Q253.7 34.0125 254.40312 33.809376Q255.12187 33.590626 255.93437 33.590626Q257.15314 33.590626 258.075 33.95Q258.9969 34.29375 259.4344 34.903126Q259.8719 35.496876 260.04376 36.496876L258.325 36.73125Q258.2 35.934376 257.6375 35.496876Q257.075 35.04375 256.0594 35.04375Q254.84062 35.04375 254.325 35.45Q253.80937 35.840626 253.80937 36.371876Q253.80937 36.715626 254.02812 36.996876Q254.23125 37.278126 254.7 37.465626Q254.96562 37.559376 256.2469 37.903126Q258.1219 38.403126 258.85626 38.73125Q259.59064 39.04375 260.0125 39.653126Q260.4344 40.246876 260.4344 41.153126Q260.4344 42.028126 259.91876 42.809376Q259.40314 43.590626 258.4344 44.0125Q257.46564 44.434376 256.2469 44.434376Q254.23125 44.434376 253.16875 43.590626Q252.10625 42.746876 251.80937 41.10625ZM269.6219 40.85625L271.4344 41.090626Q271.0125 42.66875 269.84064 43.559376Q268.6844 44.434376 266.8719 44.434376Q264.60626 44.434376 263.2625 43.04375Q261.9344 41.6375 261.9344 39.10625Q261.9344 36.48125 263.27814 35.04375Q264.6219 33.590626 266.77814 33.590626Q268.85626 33.590626 270.16876 35.0125Q271.4969 36.41875 271.4969 38.996876Q271.4969 39.153126 271.48126 39.465626L263.7469 39.465626Q263.84064 41.16875 264.71564 42.075Q265.59064 42.98125 266.8875 42.98125Q267.85626 42.98125 268.52814 42.48125Q269.21564 41.965626 269.6219 40.85625ZM263.84064 38.0125L269.6375 38.0125Q269.52814 36.715626 268.98126 36.059376Q268.1375 35.04375 266.79376 35.04375Q265.59064 35.04375 264.7625 35.85625Q263.9344 36.653126 263.84064 38.0125ZM280.29376 40.403126L282.0125 40.621876Q281.73126 42.41875 280.5594 43.434376Q279.40314 44.434376 277.7 44.434376Q275.575 44.434376 274.27814 43.04375Q272.98126 41.653126 272.98126 39.059376Q272.98126 37.371876 273.52814 36.121876Q274.09064 34.85625 275.23126 34.23125Q276.3719 33.590626 277.71564 33.590626Q279.40314 33.590626 280.46564 34.45Q281.54376 35.309376 281.85626 36.871876L280.1375 37.1375Q279.90314 36.090626 279.27814 35.575Q278.65314 35.04375 277.77814 35.04375Q276.45 35.04375 275.6219 35.996876Q274.79376 36.95 274.79376 38.996876Q274.79376 41.090626 275.59064 42.04375Q276.3875 42.98125 277.6844 42.98125Q278.71564 42.98125 279.40314 42.35625Q280.10626 41.715626 280.29376 40.403126ZM282.8719 39.0125Q282.8719 36.1375 284.46564 34.746876Q285.8094 33.590626 287.73126 33.590626Q289.8719 33.590626 291.21564 34.996876Q292.575 36.403126 292.575 38.871876Q292.575 40.871876 291.98126 42.028126Q291.3875 43.16875 290.23126 43.809376Q289.09064 44.434376 287.73126 44.434376Q285.54376 44.434376 284.2 43.04375Q282.8719 41.6375 282.8719 39.0125ZM284.66876 39.0125Q284.66876 41.0125 285.52814 41.996876Q286.40314 42.98125 287.73126 42.98125Q289.04376 42.98125 289.90314 41.996876Q290.77814 40.996876 290.77814 38.95Q290.77814 37.028126 289.90314 36.04375Q289.02814 35.04375 287.73126 35.04375Q286.40314 35.04375 285.52814 36.04375Q284.66876 37.028126 284.66876 39.0125ZM294.5125 44.2L294.5125 33.825L296.10626 33.825L296.10626 35.309376Q297.2469 33.590626 299.40314 33.590626Q300.34064 33.590626 301.1219 33.934376Q301.91876 34.2625 302.3094 34.809376Q302.7 35.35625 302.85626 36.10625Q302.95 36.60625 302.95 37.825L302.95 44.2L301.1844 44.2L301.1844 37.8875Q301.1844 36.809376 300.98126 36.278126Q300.77814 35.746876 300.2469 35.434376Q299.73126 35.121876 299.02814 35.121876Q297.90314 35.121876 297.09064 35.840626Q296.27814 36.54375 296.27814 38.528126L296.27814 44.2L294.5125 44.2ZM312.2469 44.2L312.2469 42.8875Q311.2625 44.434376 309.34064 44.434376Q308.10626 44.434376 307.0594 43.746876Q306.02814 43.059376 305.45 41.840626Q304.8875 40.621876 304.8875 39.028126Q304.8875 37.465626 305.40314 36.2Q305.91876 34.934376 306.95 34.2625Q307.9969 33.590626 309.2625 33.590626Q310.2 33.590626 310.9344 33.996876Q311.66876 34.3875 312.1375 35.0125L312.1375 29.8875L313.8719 29.8875L313.8719 44.2L312.2469 44.2ZM306.6844 39.028126Q306.6844 41.0125 307.52814 41.996876Q308.3719 42.98125 309.5125 42.98125Q310.66876 42.98125 311.46564 42.04375Q312.27814 41.10625 312.27814 39.16875Q312.27814 37.04375 311.45 36.04375Q310.6375 35.04375 309.4344 35.04375Q308.2625 35.04375 307.46564 36.0125Q306.6844 36.965626 306.6844 39.028126ZM315.8094 41.10625L317.5594 40.825Q317.7 41.871876 318.3719 42.434376Q319.04376 42.98125 320.2469 42.98125Q321.45 42.98125 322.02814 42.496876Q322.6219 41.996876 322.6219 41.340626Q322.6219 40.746876 322.10626 40.403126Q321.7469 40.16875 320.3094 39.809376Q318.3719 39.309376 317.6219 38.965626Q316.8875 38.60625 316.4969 37.98125Q316.10626 37.340626 316.10626 36.575Q316.10626 35.8875 316.41876 35.29375Q316.7469 34.7 317.29376 34.309376Q317.7 34.0125 318.40314 33.809376Q319.1219 33.590626 319.9344 33.590626Q321.15314 33.590626 322.075 33.95Q322.9969 34.29375 323.4344 34.903126Q323.8719 35.496876 324.04376 36.496876L322.325 36.73125Q322.2 35.934376 321.6375 35.496876Q321.075 35.04375 320.0594 35.04375Q318.84064 35.04375 318.325 35.45Q317.8094 35.840626 317.8094 36.371876Q317.8094 36.715626 318.02814 36.996876Q318.23126 37.278126 318.7 37.465626Q318.96564 37.559376 320.2469 37.903126Q322.1219 38.403126 322.85626 38.73125Q323.59064 39.04375 324.0125 39.653126Q324.4344 40.246876 324.4344 41.153126Q324.4344 42.028126 323.91876 42.809376Q323.40314 43.590626 322.4344 44.0125Q321.46564 44.434376 320.2469 44.434376Q318.23126 44.434376 317.16876 43.590626Q316.10626 42.746876 315.8094 41.10625Z" fill-rule="nonzero"/></svg>