<svg version="1.1" viewBox="0.0 0.0 788.0 504.0" fill="none" stroke="none" stroke-linecap="square" stroke-miterlimit="10" width="788" height="504" xmlns:xlink="http://www.w3.org/1999/xlink" xmlns="http://www.w3.org/2000/svg"><path fill="#ffffff" d="M0 0L788.0 0L788.0 504.0L0 504.0L0 0Z" fill-rule="nonzero"/><path stroke="#333333" stroke-width="1.0" stroke-linecap="butt" d="M52.5 471.5L619.5 471.5" fill-rule="nonzero"/><path stroke="#cccccc" stroke-width="1.0" stroke-linecap="butt" d="M52.5 338.5L619.5 338.5" fill-rule="nonzero"/><path stroke="#cccccc" stroke-width="1.0" stroke-linecap="butt" d="M52.5 205.5L619.5 205.5" fill-rule="nonzero"/><path stroke="#cccccc" stroke-width="1.0" stroke-linecap="butt" d="M52.5 73.5L619.5 73.5" fill-rule="nonzero"/><clipPath id="id_0"><path d="M52.2 73.0L619.28 73.0L619.28 471.8L52.2 471.8L52.2 73.0Z" clip-rule="nonzero"/></clipPath><path stroke="#000000" stroke-width="0.0" stroke-linecap="butt" stroke-opacity="0.0" clip-path="url(#id_0)" d="M243.0 472.0L198.0 472.0L198.0 348.0C198.0 346.89542 198.89543 346.0 200.0 346.0L241.0 346.0C242.10457 346.0 243.0 346.89542 243.0 348.0Z" fill-rule="nonzero"/><path fill="#4285f4" clip-path="url(#id_0)" d="M243.0 472.0L198.0 472.0L198.0 348.0C198.0 346.89542 198.89543 346.0 200.0 346.0L241.0 346.0C242.10457 346.0 243.0 346.89542 243.0 348.0Z" fill-rule="nonzero"/><path stroke="#000000" stroke-width="0.0" stroke-linecap="butt" stroke-opacity="0.0" clip-path="url(#id_0)" d="M289.0 472.0L244.0 472.0L244.0 348.0C244.0 346.89542 244.89543 346.0 246.0 346.0L287.0 346.0C288.10458 346.0 289.0 346.89542 289.0 348.0Z" fill-rule="nonzero"/><path fill="#ea4335" clip-path="url(#id_0)" d="M289.0 472.0L244.0 472.0L244.0 348.0C244.0 346.89542 244.89543 346.0 246.0 346.0L287.0 346.0C288.10458 346.0 289.0 346.89542 289.0 348.0Z" fill-rule="nonzero"/><path stroke="#000000" stroke-width="0.0" stroke-linecap="butt" stroke-opacity="0.0" clip-path="url(#id_0)" d="M335.0 472.0L290.0 472.0L290.0 297.0C290.0 295.89542 290.89542 295.0 292.0 295.0L333.0 295.0C334.10458 295.0 335.0 295.89542 335.0 297.0Z" fill-rule="nonzero"/><path fill="#fbbc04" clip-path="url(#id_0)" d="M335.0 472.0L290.0 472.0L290.0 297.0C290.0 295.89542 290.89542 295.0 292.0 295.0L333.0 295.0C334.10458 295.0 335.0 295.89542 335.0 297.0Z" fill-rule="nonzero"/><path stroke="#000000" stroke-width="0.0" stroke-linecap="butt" stroke-opacity="0.0" clip-path="url(#id_0)" d="M381.0 472.0L336.0 472.0L336.0 284.0C336.0 282.89542 336.89542 282.0 338.0 282.0L379.0 282.0C380.10458 282.0 381.0 282.89542 381.0 284.0Z" fill-rule="nonzero"/><path fill="#34a853" clip-path="url(#id_0)" d="M381.0 472.0L336.0 472.0L336.0 284.0C336.0 282.89542 336.89542 282.0 338.0 282.0L379.0 282.0C380.10458 282.0 381.0 282.89542 381.0 284.0Z" fill-rule="nonzero"/><path stroke="#000000" stroke-width="0.0" stroke-linecap="butt" stroke-opacity="0.0" clip-path="url(#id_0)" d="M427.0 472.0L382.0 472.0L382.0 129.0C382.0 127.89543 382.89542 127.0 384.0 127.0L425.0 127.0C426.10458 127.0 427.0 127.89543 427.0 129.0Z" fill-rule="nonzero"/><path fill="#ff6d01" clip-path="url(#id_0)" d="M427.0 472.0L382.0 472.0L382.0 129.0C382.0 127.89543 382.89542 127.0 384.0 127.0L425.0 127.0C426.10458 127.0 427.0 127.89543 427.0 129.0Z" fill-rule="nonzero"/><path stroke="#000000" stroke-width="0.0" stroke-linecap="butt" stroke-opacity="0.0" clip-path="url(#id_0)" d="M473.0 472.0L428.0 472.0L428.0 330.0C428.0 328.89542 428.89542 328.0 430.0 328.0L471.0 328.0C472.10458 328.0 473.0 328.89542 473.0 330.0Z" fill-rule="nonzero"/><path fill="#46bdc6" clip-path="url(#id_0)" d="M473.0 472.0L428.0 472.0L428.0 330.0C428.0 328.89542 428.89542 328.0 430.0 328.0L471.0 328.0C472.10458 328.0 473.0 328.89542 473.0 330.0Z" fill-rule="nonzero"/><path stroke="#4285f4" stroke-width="3.0" stroke-linejoin="round" stroke-linecap="round" d="M206.26562 362.91818L205.1875 362.91818L205.1875 355.69943L203.0 356.4963L203.0 355.51193L206.10938 354.34006L206.26562 354.34006L206.26562 362.91818ZM214.89062 356.60568Q214.89062 357.2463 214.54688 357.7463Q214.20312 358.2463 213.64062 358.52756Q214.29688 358.8088 214.6875 359.3713Q215.07812 359.91818 215.07812 360.6213Q215.07812 361.71506 214.32812 362.38693Q213.59375 363.04318 212.375 363.04318Q211.14062 363.04318 210.39062 362.38693Q209.65625 361.71506 209.65625 360.6213Q209.65625 359.91818 210.03125 359.3713Q210.40625 358.8088 211.07812 358.52756Q210.51562 358.2463 210.1875 357.7463Q209.85938 357.2463 209.85938 356.60568Q209.85938 355.52756 210.54688 354.90256Q211.23438 354.26193 212.375 354.26193Q213.5 354.26193 214.1875 354.90256Q214.89062 355.52756 214.89062 356.60568ZM214.0 360.59006Q214.0 359.8713 213.54688 359.4338Q213.09375 358.98068 212.35938 358.98068Q211.625 358.98068 211.17188 359.4338Q210.73438 359.8713 210.73438 360.60568Q210.73438 361.32443 211.17188 361.7463Q211.60938 362.15256 212.375 362.15256Q213.125 362.15256 213.5625 361.73068Q214.0 361.3088 214.0 360.59006ZM212.375 355.15256Q211.73438 355.15256 211.32812 355.5588Q210.9375 355.94943 210.9375 356.63693Q210.9375 357.27756 211.32812 357.6838Q211.71875 358.09006 212.35938 358.09006Q213.01562 358.09006 213.40625 357.6838Q213.79688 357.27756 213.79688 356.63693Q213.79688 355.98068 213.39062 355.57443Q212.98438 355.15256 212.375 355.15256ZM216.84375 362.35568Q216.84375 362.07443 217.0 361.88693Q217.17188 361.69943 217.5 361.69943Q217.84375 361.69943 218.01562 361.88693Q218.1875 362.07443 218.1875 362.35568Q218.1875 362.6213 218.01562 362.8088Q217.84375 362.98068 217.5 362.98068Q217.17188 362.98068 217.0 362.8088Q216.84375 362.6213 216.84375 362.35568ZM223.85938 359.16818Q223.53125 359.57443 223.04688 359.82443Q222.57812 360.0588 222.01562 360.0588Q221.28125 360.0588 220.73438 359.69943Q220.1875 359.34006 219.89062 358.6838Q219.59375 358.01193 219.59375 357.21506Q219.59375 356.3713 219.90625 355.6838Q220.23438 354.9963 220.82812 354.63693Q221.4375 354.26193 222.23438 354.26193Q223.5 354.26193 224.21875 355.21506Q224.95312 356.16818 224.95312 357.79318L224.95312 358.10568Q224.95312 360.60568 223.96875 361.7463Q222.98438 362.88693 221.0 362.91818L220.78125 362.91818L220.78125 362.01193L221.01562 362.01193Q222.35938 361.98068 223.07812 361.3088Q223.79688 360.63693 223.85938 359.16818ZM222.1875 359.16818Q222.73438 359.16818 223.1875 358.84006Q223.65625 358.4963 223.875 358.01193L223.875 357.57443Q223.875 356.51193 223.40625 355.84006Q222.9375 355.16818 222.23438 355.16818Q221.51562 355.16818 221.07812 355.71506Q220.65625 356.26193 220.65625 357.16818Q220.65625 358.04318 221.0625 358.60568Q221.48438 359.16818 222.1875 359.16818ZM232.0625 359.27756Q232.0625 361.1838 231.40625 362.1213Q230.76562 363.04318 229.375 363.04318Q228.01562 363.04318 227.35938 362.13693Q226.70312 361.23068 226.67188 359.41818L226.67188 357.98068Q226.67188 356.09006 227.3125 355.1838Q227.96875 354.26193 229.35938 354.26193Q230.73438 354.26193 231.39062 355.15256Q232.04688 356.02756 232.0625 357.8713L232.0625 359.27756ZM230.96875 357.79318Q230.96875 356.41818 230.57812 355.79318Q230.20312 355.15256 229.35938 355.15256Q228.53125 355.15256 228.14062 355.79318Q227.76562 356.41818 227.76562 357.71506L227.76562 359.44943Q227.76562 360.82443 228.15625 361.4963Q228.5625 362.15256 229.375 362.15256Q230.17188 362.15256 230.5625 361.52756Q230.95312 360.90256 230.96875 359.57443L230.96875 357.79318ZM237.85938 359.16818Q237.53125 359.57443 237.04688 359.82443Q236.57812 360.0588 236.01562 360.0588Q235.28125 360.0588 234.73438 359.69943Q234.1875 359.34006 233.89062 358.6838Q233.59375 358.01193 233.59375 357.21506Q233.59375 356.3713 233.90625 355.6838Q234.23438 354.9963 234.82812 354.63693Q235.4375 354.26193 236.23438 354.26193Q237.5 354.26193 238.21875 355.21506Q238.95312 356.16818 238.95312 357.79318L238.95312 358.10568Q238.95312 360.60568 237.96875 361.7463Q236.98438 362.88693 235.0 362.91818L234.78125 362.91818L234.78125 362.01193L235.01562 362.01193Q236.35938 361.98068 237.07812 361.3088Q237.79688 360.63693 237.85938 359.16818ZM236.1875 359.16818Q236.73438 359.16818 237.1875 358.84006Q237.65625 358.4963 237.875 358.01193L237.875 357.57443Q237.875 356.51193 237.40625 355.84006Q236.9375 355.16818 236.23438 355.16818Q235.51562 355.16818 235.07812 355.71506Q234.65625 356.26193 234.65625 357.16818Q234.65625 358.04318 235.0625 358.60568Q235.48438 359.16818 236.1875 359.16818Z" fill-rule="nonzero"/><path fill="#ffffff" d="M206.26562 362.91818L205.1875 362.91818L205.1875 355.69943L203.0 356.4963L203.0 355.51193L206.10938 354.34006L206.26562 354.34006L206.26562 362.91818ZM214.89062 356.60568Q214.89062 357.2463 214.54688 357.7463Q214.20312 358.2463 213.64062 358.52756Q214.29688 358.8088 214.6875 359.3713Q215.07812 359.91818 215.07812 360.6213Q215.07812 361.71506 214.32812 362.38693Q213.59375 363.04318 212.375 363.04318Q211.14062 363.04318 210.39062 362.38693Q209.65625 361.71506 209.65625 360.6213Q209.65625 359.91818 210.03125 359.3713Q210.40625 358.8088 211.07812 358.52756Q210.51562 358.2463 210.1875 357.7463Q209.85938 357.2463 209.85938 356.60568Q209.85938 355.52756 210.54688 354.90256Q211.23438 354.26193 212.375 354.26193Q213.5 354.26193 214.1875 354.90256Q214.89062 355.52756 214.89062 356.60568ZM214.0 360.59006Q214.0 359.8713 213.54688 359.4338Q213.09375 358.98068 212.35938 358.98068Q211.625 358.98068 211.17188 359.4338Q210.73438 359.8713 210.73438 360.60568Q210.73438 361.32443 211.17188 361.7463Q211.60938 362.15256 212.375 362.15256Q213.125 362.15256 213.5625 361.73068Q214.0 361.3088 214.0 360.59006ZM212.375 355.15256Q211.73438 355.15256 211.32812 355.5588Q210.9375 355.94943 210.9375 356.63693Q210.9375 357.27756 211.32812 357.6838Q211.71875 358.09006 212.35938 358.09006Q213.01562 358.09006 213.40625 357.6838Q213.79688 357.27756 213.79688 356.63693Q213.79688 355.98068 213.39062 355.57443Q212.98438 355.15256 212.375 355.15256ZM216.84375 362.35568Q216.84375 362.07443 217.0 361.88693Q217.17188 361.69943 217.5 361.69943Q217.84375 361.69943 218.01562 361.88693Q218.1875 362.07443 218.1875 362.35568Q218.1875 362.6213 218.01562 362.8088Q217.84375 362.98068 217.5 362.98068Q217.17188 362.98068 217.0 362.8088Q216.84375 362.6213 216.84375 362.35568ZM223.85938 359.16818Q223.53125 359.57443 223.04688 359.82443Q222.57812 360.0588 222.01562 360.0588Q221.28125 360.0588 220.73438 359.69943Q220.1875 359.34006 219.89062 358.6838Q219.59375 358.01193 219.59375 357.21506Q219.59375 356.3713 219.90625 355.6838Q220.23438 354.9963 220.82812 354.63693Q221.4375 354.26193 222.23438 354.26193Q223.5 354.26193 224.21875 355.21506Q224.95312 356.16818 224.95312 357.79318L224.95312 358.10568Q224.95312 360.60568 223.96875 361.7463Q222.98438 362.88693 221.0 362.91818L220.78125 362.91818L220.78125 362.01193L221.01562 362.01193Q222.35938 361.98068 223.07812 361.3088Q223.79688 360.63693 223.85938 359.16818ZM222.1875 359.16818Q222.73438 359.16818 223.1875 358.84006Q223.65625 358.4963 223.875 358.01193L223.875 357.57443Q223.875 356.51193 223.40625 355.84006Q222.9375 355.16818 222.23438 355.16818Q221.51562 355.16818 221.07812 355.71506Q220.65625 356.26193 220.65625 357.16818Q220.65625 358.04318 221.0625 358.60568Q221.48438 359.16818 222.1875 359.16818ZM232.0625 359.27756Q232.0625 361.1838 231.40625 362.1213Q230.76562 363.04318 229.375 363.04318Q228.01562 363.04318 227.35938 362.13693Q226.70312 361.23068 226.67188 359.41818L226.67188 357.98068Q226.67188 356.09006 227.3125 355.1838Q227.96875 354.26193 229.35938 354.26193Q230.73438 354.26193 231.39062 355.15256Q232.04688 356.02756 232.0625 357.8713L232.0625 359.27756ZM230.96875 357.79318Q230.96875 356.41818 230.57812 355.79318Q230.20312 355.15256 229.35938 355.15256Q228.53125 355.15256 228.14062 355.79318Q227.76562 356.41818 227.76562 357.71506L227.76562 359.44943Q227.76562 360.82443 228.15625 361.4963Q228.5625 362.15256 229.375 362.15256Q230.17188 362.15256 230.5625 361.52756Q230.95312 360.90256 230.96875 359.57443L230.96875 357.79318ZM237.85938 359.16818Q237.53125 359.57443 237.04688 359.82443Q236.57812 360.0588 236.01562 360.0588Q235.28125 360.0588 234.73438 359.69943Q234.1875 359.34006 233.89062 358.6838Q233.59375 358.01193 233.59375 357.21506Q233.59375 356.3713 233.90625 355.6838Q234.23438 354.9963 234.82812 354.63693Q235.4375 354.26193 236.23438 354.26193Q237.5 354.26193 238.21875 355.21506Q238.95312 356.16818 238.95312 357.79318L238.95312 358.10568Q238.95312 360.60568 237.96875 361.7463Q236.98438 362.88693 235.0 362.91818L234.78125 362.91818L234.78125 362.01193L235.01562 362.01193Q236.35938 361.98068 237.07812 361.3088Q237.79688 360.63693 237.85938 359.16818ZM236.1875 359.16818Q236.73438 359.16818 237.1875 358.84006Q237.65625 358.4963 237.875 358.01193L237.875 357.57443Q237.875 356.51193 237.40625 355.84006Q236.9375 355.16818 236.23438 355.16818Q235.51562 355.16818 235.07812 355.71506Q234.65625 356.26193 234.65625 357.16818Q234.65625 358.04318 235.0625 358.60568Q235.48438 359.16818 236.1875 359.16818Z" fill-rule="nonzero"/><path stroke="#ea4335" stroke-width="3.0" stroke-linejoin="round" stroke-linecap="round" d="M255.76562 362.64566L254.6875 362.64566L254.6875 355.4269L252.5 356.2238L252.5 355.2394L255.60938 354.06754L255.76562 354.06754L255.76562 362.64566ZM264.39062 356.33316Q264.39062 356.9738 264.04688 357.4738Q263.70312 357.9738 263.14062 358.25504Q263.79688 358.5363 264.1875 359.0988Q264.57812 359.64566 264.57812 360.3488Q264.57812 361.44254 263.82812 362.1144Q263.09375 362.77066 261.875 362.77066Q260.64062 362.77066 259.89062 362.1144Q259.15625 361.44254 259.15625 360.3488Q259.15625 359.64566 259.53125 359.0988Q259.90625 358.5363 260.57812 358.25504Q260.01562 357.9738 259.6875 357.4738Q259.35938 356.9738 259.35938 356.33316Q259.35938 355.25504 260.04688 354.63004Q260.73438 353.9894 261.875 353.9894Q263.0 353.9894 263.6875 354.63004Q264.39062 355.25504 264.39062 356.33316ZM263.5 360.31754Q263.5 359.5988 263.04688 359.1613Q262.59375 358.70816 261.85938 358.70816Q261.125 358.70816 260.67188 359.1613Q260.23438 359.5988 260.23438 360.33316Q260.23438 361.0519 260.67188 361.4738Q261.10938 361.88004 261.875 361.88004Q262.625 361.88004 263.0625 361.45816Q263.5 361.0363 263.5 360.31754ZM261.875 354.88004Q261.23438 354.88004 260.82812 355.2863Q260.4375 355.6769 260.4375 356.3644Q260.4375 357.00504 260.82812 357.4113Q261.21875 357.81754 261.85938 357.81754Q262.51562 357.81754 262.90625 357.4113Q263.29688 357.00504 263.29688 356.3644Q263.29688 355.70816 262.89062 355.3019Q262.48438 354.88004 261.875 354.88004ZM266.34375 362.08316Q266.34375 361.8019 266.5 361.6144Q266.67188 361.4269 267.0 361.4269Q267.34375 361.4269 267.51562 361.6144Q267.6875 361.8019 267.6875 362.08316Q267.6875 362.3488 267.51562 362.5363Q267.34375 362.70816 267.0 362.70816Q266.67188 362.70816 266.5 362.5363Q266.34375 362.3488 266.34375 362.08316ZM273.35938 358.89566Q273.03125 359.3019 272.54688 359.5519Q272.07812 359.7863 271.51562 359.7863Q270.78125 359.7863 270.23438 359.4269Q269.6875 359.06754 269.39062 358.4113Q269.09375 357.7394 269.09375 356.94254Q269.09375 356.0988 269.40625 355.4113Q269.73438 354.7238 270.32812 354.3644Q270.9375 353.9894 271.73438 353.9894Q273.0 353.9894 273.71875 354.94254Q274.45312 355.89566 274.45312 357.52066L274.45312 357.83316Q274.45312 360.33316 273.46875 361.4738Q272.48438 362.6144 270.5 362.64566L270.28125 362.64566L270.28125 361.7394L270.51562 361.7394Q271.85938 361.70816 272.57812 361.0363Q273.29688 360.3644 273.35938 358.89566ZM271.6875 358.89566Q272.23438 358.89566 272.6875 358.56754Q273.15625 358.2238 273.375 357.7394L273.375 357.3019Q273.375 356.2394 272.90625 355.56754Q272.4375 354.89566 271.73438 354.89566Q271.01562 354.89566 270.57812 355.44254Q270.15625 355.9894 270.15625 356.89566Q270.15625 357.77066 270.5625 358.33316Q270.98438 358.89566 271.6875 358.89566ZM276.70312 358.3644L277.14062 354.1144L281.51562 354.1144L281.51562 355.1144L278.0625 355.1144L277.79688 357.44254Q278.4375 357.06754 279.23438 357.06754Q280.39062 357.06754 281.07812 357.8488Q281.76562 358.6144 281.76562 359.9269Q281.76562 361.2394 281.04688 362.00504Q280.34375 362.77066 279.0625 362.77066Q277.9375 362.77066 277.21875 362.14566Q276.5 361.50504 276.40625 360.39566L277.42188 360.39566Q277.53125 361.13004 277.95312 361.50504Q278.375 361.88004 279.0625 361.88004Q279.8125 361.88004 280.25 361.3644Q280.6875 360.8488 280.6875 359.94254Q280.6875 359.08316 280.21875 358.56754Q279.75 358.0519 278.96875 358.0519Q278.26562 358.0519 277.85938 358.3488L277.57812 358.58316L276.70312 358.3644Z" fill-rule="nonzero"/><path fill="#ffffff" d="M255.76562 362.64566L254.6875 362.64566L254.6875 355.4269L252.5 356.2238L252.5 355.2394L255.60938 354.06754L255.76562 354.06754L255.76562 362.64566ZM264.39062 356.33316Q264.39062 356.9738 264.04688 357.4738Q263.70312 357.9738 263.14062 358.25504Q263.79688 358.5363 264.1875 359.0988Q264.57812 359.64566 264.57812 360.3488Q264.57812 361.44254 263.82812 362.1144Q263.09375 362.77066 261.875 362.77066Q260.64062 362.77066 259.89062 362.1144Q259.15625 361.44254 259.15625 360.3488Q259.15625 359.64566 259.53125 359.0988Q259.90625 358.5363 260.57812 358.25504Q260.01562 357.9738 259.6875 357.4738Q259.35938 356.9738 259.35938 356.33316Q259.35938 355.25504 260.04688 354.63004Q260.73438 353.9894 261.875 353.9894Q263.0 353.9894 263.6875 354.63004Q264.39062 355.25504 264.39062 356.33316ZM263.5 360.31754Q263.5 359.5988 263.04688 359.1613Q262.59375 358.70816 261.85938 358.70816Q261.125 358.70816 260.67188 359.1613Q260.23438 359.5988 260.23438 360.33316Q260.23438 361.0519 260.67188 361.4738Q261.10938 361.88004 261.875 361.88004Q262.625 361.88004 263.0625 361.45816Q263.5 361.0363 263.5 360.31754ZM261.875 354.88004Q261.23438 354.88004 260.82812 355.2863Q260.4375 355.6769 260.4375 356.3644Q260.4375 357.00504 260.82812 357.4113Q261.21875 357.81754 261.85938 357.81754Q262.51562 357.81754 262.90625 357.4113Q263.29688 357.00504 263.29688 356.3644Q263.29688 355.70816 262.89062 355.3019Q262.48438 354.88004 261.875 354.88004ZM266.34375 362.08316Q266.34375 361.8019 266.5 361.6144Q266.67188 361.4269 267.0 361.4269Q267.34375 361.4269 267.51562 361.6144Q267.6875 361.8019 267.6875 362.08316Q267.6875 362.3488 267.51562 362.5363Q267.34375 362.70816 267.0 362.70816Q266.67188 362.70816 266.5 362.5363Q266.34375 362.3488 266.34375 362.08316ZM273.35938 358.89566Q273.03125 359.3019 272.54688 359.5519Q272.07812 359.7863 271.51562 359.7863Q270.78125 359.7863 270.23438 359.4269Q269.6875 359.06754 269.39062 358.4113Q269.09375 357.7394 269.09375 356.94254Q269.09375 356.0988 269.40625 355.4113Q269.73438 354.7238 270.32812 354.3644Q270.9375 353.9894 271.73438 353.9894Q273.0 353.9894 273.71875 354.94254Q274.45312 355.89566 274.45312 357.52066L274.45312 357.83316Q274.45312 360.33316 273.46875 361.4738Q272.48438 362.6144 270.5 362.64566L270.28125 362.64566L270.28125 361.7394L270.51562 361.7394Q271.85938 361.70816 272.57812 361.0363Q273.29688 360.3644 273.35938 358.89566ZM271.6875 358.89566Q272.23438 358.89566 272.6875 358.56754Q273.15625 358.2238 273.375 357.7394L273.375 357.3019Q273.375 356.2394 272.90625 355.56754Q272.4375 354.89566 271.73438 354.89566Q271.01562 354.89566 270.57812 355.44254Q270.15625 355.9894 270.15625 356.89566Q270.15625 357.77066 270.5625 358.33316Q270.98438 358.89566 271.6875 358.89566ZM276.70312 358.3644L277.14062 354.1144L281.51562 354.1144L281.51562 355.1144L278.0625 355.1144L277.79688 357.44254Q278.4375 357.06754 279.23438 357.06754Q280.39062 357.06754 281.07812 357.8488Q281.76562 358.6144 281.76562 359.9269Q281.76562 361.2394 281.04688 362.00504Q280.34375 362.77066 279.0625 362.77066Q277.9375 362.77066 277.21875 362.14566Q276.5 361.50504 276.40625 360.39566L277.42188 360.39566Q277.53125 361.13004 277.95312 361.50504Q278.375 361.88004 279.0625 361.88004Q279.8125 361.88004 280.25 361.3644Q280.6875 360.8488 280.6875 359.94254Q280.6875 359.08316 280.21875 358.56754Q279.75 358.0519 278.96875 358.0519Q278.26562 358.0519 277.85938 358.3488L277.57812 358.58316L276.70312 358.3644Z" fill-rule="nonzero"/><path stroke="#fbbc04" stroke-width="3.0" stroke-linejoin="round" stroke-linecap="round" d="M300.29688 312.09113L294.70312 312.09113L294.70312 311.30988L297.65625 308.02863Q298.3125 307.27863 298.5625 306.8255Q298.8125 306.35675 298.8125 305.85675Q298.8125 305.18488 298.40625 304.763Q298.01562 304.3255 297.32812 304.3255Q296.53125 304.3255 296.07812 304.79425Q295.625 305.24738 295.625 306.0755L294.54688 306.0755Q294.54688 304.888 295.29688 304.16925Q296.0625 303.43488 297.32812 303.43488Q298.53125 303.43488 299.21875 304.05988Q299.90625 304.68488 299.90625 305.73175Q299.90625 306.98175 298.29688 308.73175L296.01562 311.2005L300.29688 311.2005L300.29688 312.09113ZM305.96875 303.55988L305.96875 304.46613L305.76562 304.46613Q304.5 304.49738 303.75 305.23175Q303.0 305.9505 302.875 307.263Q303.5625 306.49738 304.71875 306.49738Q305.82812 306.49738 306.5 307.27863Q307.17188 308.05988 307.17188 309.30988Q307.17188 310.62238 306.45312 311.41925Q305.73438 312.21613 304.51562 312.21613Q303.29688 312.21613 302.53125 311.27863Q301.78125 310.3255 301.78125 308.84113L301.78125 308.43488Q301.78125 306.0755 302.78125 304.8255Q303.78125 303.5755 305.76562 303.55988L305.96875 303.55988ZM304.54688 307.40363Q303.98438 307.40363 303.51562 307.73175Q303.04688 308.05988 302.85938 308.5755L302.85938 308.96613Q302.85938 310.02863 303.32812 310.66925Q303.8125 311.30988 304.51562 311.30988Q305.25 311.30988 305.67188 310.77863Q306.09375 310.23175 306.09375 309.35675Q306.09375 308.48175 305.67188 307.9505Q305.25 307.40363 304.54688 307.40363ZM308.84375 311.52863Q308.84375 311.24738 309.0 311.05988Q309.17188 310.87238 309.5 310.87238Q309.84375 310.87238 310.01562 311.05988Q310.1875 311.24738 310.1875 311.52863Q310.1875 311.79425 310.01562 311.98175Q309.84375 312.15363 309.5 312.15363Q309.17188 312.15363 309.0 311.98175Q308.84375 311.79425 308.84375 311.52863ZM312.20312 307.80988L312.64062 303.55988L317.01562 303.55988L317.01562 304.55988L313.5625 304.55988L313.29688 306.888Q313.9375 306.513 314.73438 306.513Q315.89062 306.513 316.57812 307.29425Q317.26562 308.05988 317.26562 309.37238Q317.26562 310.68488 316.54688 311.4505Q315.84375 312.21613 314.5625 312.21613Q313.4375 312.21613 312.71875 311.59113Q312.0 310.9505 311.90625 309.84113L312.92188 309.84113Q313.03125 310.5755 313.45312 310.9505Q313.875 311.3255 314.5625 311.3255Q315.3125 311.3255 315.75 310.80988Q316.1875 310.29425 316.1875 309.388Q316.1875 308.52863 315.71875 308.013Q315.25 307.49738 314.46875 307.49738Q313.76562 307.49738 313.35938 307.79425L313.07812 308.02863L312.20312 307.80988ZM319.20312 307.80988L319.64062 303.55988L324.01562 303.55988L324.01562 304.55988L320.5625 304.55988L320.29688 306.888Q320.9375 306.513 321.73438 306.513Q322.89062 306.513 323.57812 307.29425Q324.26562 308.05988 324.26562 309.37238Q324.26562 310.68488 323.54688 311.4505Q322.84375 312.21613 321.5625 312.21613Q320.4375 312.21613 319.71875 311.59113Q319.0 310.9505 318.90625 309.84113L319.92188 309.84113Q320.03125 310.5755 320.45312 310.9505Q320.875 311.3255 321.5625 311.3255Q322.3125 311.3255 322.75 310.80988Q323.1875 310.29425 323.1875 309.388Q323.1875 308.52863 322.71875 308.013Q322.25 307.49738 321.46875 307.49738Q320.76562 307.49738 320.35938 307.79425L320.07812 308.02863L319.20312 307.80988ZM329.96875 303.55988L329.96875 304.46613L329.76562 304.46613Q328.5 304.49738 327.75 305.23175Q327.0 305.9505 326.875 307.263Q327.5625 306.49738 328.71875 306.49738Q329.82812 306.49738 330.5 307.27863Q331.17188 308.05988 331.17188 309.30988Q331.17188 310.62238 330.45312 311.41925Q329.73438 312.21613 328.51562 312.21613Q327.29688 312.21613 326.53125 311.27863Q325.78125 310.3255 325.78125 308.84113L325.78125 308.43488Q325.78125 306.0755 326.78125 304.8255Q327.78125 303.5755 329.76562 303.55988L329.96875 303.55988ZM328.54688 307.40363Q327.98438 307.40363 327.51562 307.73175Q327.04688 308.05988 326.85938 308.5755L326.85938 308.96613Q326.85938 310.02863 327.32812 310.66925Q327.8125 311.30988 328.51562 311.30988Q329.25 311.30988 329.67188 310.77863Q330.09375 310.23175 330.09375 309.35675Q330.09375 308.48175 329.67188 307.9505Q329.25 307.40363 328.54688 307.40363Z" fill-rule="nonzero"/><path fill="#000000" d="M300.29688 312.09113L294.70312 312.09113L294.70312 311.30988L297.65625 308.02863Q298.3125 307.27863 298.5625 306.8255Q298.8125 306.35675 298.8125 305.85675Q298.8125 305.18488 298.40625 304.763Q298.01562 304.3255 297.32812 304.3255Q296.53125 304.3255 296.07812 304.79425Q295.625 305.24738 295.625 306.0755L294.54688 306.0755Q294.54688 304.888 295.29688 304.16925Q296.0625 303.43488 297.32812 303.43488Q298.53125 303.43488 299.21875 304.05988Q299.90625 304.68488 299.90625 305.73175Q299.90625 306.98175 298.29688 308.73175L296.01562 311.2005L300.29688 311.2005L300.29688 312.09113ZM305.96875 303.55988L305.96875 304.46613L305.76562 304.46613Q304.5 304.49738 303.75 305.23175Q303.0 305.9505 302.875 307.263Q303.5625 306.49738 304.71875 306.49738Q305.82812 306.49738 306.5 307.27863Q307.17188 308.05988 307.17188 309.30988Q307.17188 310.62238 306.45312 311.41925Q305.73438 312.21613 304.51562 312.21613Q303.29688 312.21613 302.53125 311.27863Q301.78125 310.3255 301.78125 308.84113L301.78125 308.43488Q301.78125 306.0755 302.78125 304.8255Q303.78125 303.5755 305.76562 303.55988L305.96875 303.55988ZM304.54688 307.40363Q303.98438 307.40363 303.51562 307.73175Q303.04688 308.05988 302.85938 308.5755L302.85938 308.96613Q302.85938 310.02863 303.32812 310.66925Q303.8125 311.30988 304.51562 311.30988Q305.25 311.30988 305.67188 310.77863Q306.09375 310.23175 306.09375 309.35675Q306.09375 308.48175 305.67188 307.9505Q305.25 307.40363 304.54688 307.40363ZM308.84375 311.52863Q308.84375 311.24738 309.0 311.05988Q309.17188 310.87238 309.5 310.87238Q309.84375 310.87238 310.01562 311.05988Q310.1875 311.24738 310.1875 311.52863Q310.1875 311.79425 310.01562 311.98175Q309.84375 312.15363 309.5 312.15363Q309.17188 312.15363 309.0 311.98175Q308.84375 311.79425 308.84375 311.52863ZM312.20312 307.80988L312.64062 303.55988L317.01562 303.55988L317.01562 304.55988L313.5625 304.55988L313.29688 306.888Q313.9375 306.513 314.73438 306.513Q315.89062 306.513 316.57812 307.29425Q317.26562 308.05988 317.26562 309.37238Q317.26562 310.68488 316.54688 311.4505Q315.84375 312.21613 314.5625 312.21613Q313.4375 312.21613 312.71875 311.59113Q312.0 310.9505 311.90625 309.84113L312.92188 309.84113Q313.03125 310.5755 313.45312 310.9505Q313.875 311.3255 314.5625 311.3255Q315.3125 311.3255 315.75 310.80988Q316.1875 310.29425 316.1875 309.388Q316.1875 308.52863 315.71875 308.013Q315.25 307.49738 314.46875 307.49738Q313.76562 307.49738 313.35938 307.79425L313.07812 308.02863L312.20312 307.80988ZM319.20312 307.80988L319.64062 303.55988L324.01562 303.55988L324.01562 304.55988L320.5625 304.55988L320.29688 306.888Q320.9375 306.513 321.73438 306.513Q322.89062 306.513 323.57812 307.29425Q324.26562 308.05988 324.26562 309.37238Q324.26562 310.68488 323.54688 311.4505Q322.84375 312.21613 321.5625 312.21613Q320.4375 312.21613 319.71875 311.59113Q319.0 310.9505 318.90625 309.84113L319.92188 309.84113Q320.03125 310.5755 320.45312 310.9505Q320.875 311.3255 321.5625 311.3255Q322.3125 311.3255 322.75 310.80988Q323.1875 310.29425 323.1875 309.388Q323.1875 308.52863 322.71875 308.013Q322.25 307.49738 321.46875 307.49738Q320.76562 307.49738 320.35938 307.79425L320.07812 308.02863L319.20312 307.80988ZM329.96875 303.55988L329.96875 304.46613L329.76562 304.46613Q328.5 304.49738 327.75 305.23175Q327.0 305.9505 326.875 307.263Q327.5625 306.49738 328.71875 306.49738Q329.82812 306.49738 330.5 307.27863Q331.17188 308.05988 331.17188 309.30988Q331.17188 310.62238 330.45312 311.41925Q329.73438 312.21613 328.51562 312.21613Q327.29688 312.21613 326.53125 311.27863Q325.78125 310.3255 325.78125 308.84113L325.78125 308.43488Q325.78125 306.0755 326.78125 304.8255Q327.78125 303.5755 329.76562 303.55988L329.96875 303.55988ZM328.54688 307.40363Q327.98438 307.40363 327.51562 307.73175Q327.04688 308.05988 326.85938 308.5755L326.85938 308.96613Q326.85938 310.02863 327.32812 310.66925Q327.8125 311.30988 328.51562 311.30988Q329.25 311.30988 329.67188 310.77863Q330.09375 310.23175 330.09375 309.35675Q330.09375 308.48175 329.67188 307.9505Q329.25 307.40363 328.54688 307.40363Z" fill-rule="nonzero"/><path stroke="#34a853" stroke-width="3.0" stroke-linejoin="round" stroke-linecap="round" d="M346.29688 298.7579L340.70312 298.7579L340.70312 297.97665L343.65625 294.6954Q344.3125 293.9454 344.5625 293.49228Q344.8125 293.02353 344.8125 292.52353Q344.8125 291.85165 344.40625 291.42978Q344.01562 290.99228 343.32812 290.99228Q342.53125 290.99228 342.07812 291.46103Q341.625 291.91415 341.625 292.74228L340.54688 292.74228Q340.54688 291.55478 341.29688 290.83603Q342.0625 290.10165 343.32812 290.10165Q344.53125 290.10165 345.21875 290.72665Q345.90625 291.35165 345.90625 292.39853Q345.90625 293.64853 344.29688 295.39853L342.01562 297.86728L346.29688 297.86728L346.29688 298.7579ZM352.89062 292.4454Q352.89062 293.08603 352.54688 293.58603Q352.20312 294.08603 351.64062 294.36728Q352.29688 294.64853 352.6875 295.21103Q353.07812 295.7579 353.07812 296.46103Q353.07812 297.55478 352.32812 298.22665Q351.59375 298.8829 350.375 298.8829Q349.14062 298.8829 348.39062 298.22665Q347.65625 297.55478 347.65625 296.46103Q347.65625 295.7579 348.03125 295.21103Q348.40625 294.64853 349.07812 294.36728Q348.51562 294.08603 348.1875 293.58603Q347.85938 293.08603 347.85938 292.4454Q347.85938 291.36728 348.54688 290.74228Q349.23438 290.10165 350.375 290.10165Q351.5 290.10165 352.1875 290.74228Q352.89062 291.36728 352.89062 292.4454ZM352.0 296.42978Q352.0 295.71103 351.54688 295.27353Q351.09375 294.8204 350.35938 294.8204Q349.625 294.8204 349.17188 295.27353Q348.73438 295.71103 348.73438 296.4454Q348.73438 297.16415 349.17188 297.58603Q349.60938 297.99228 350.375 297.99228Q351.125 297.99228 351.5625 297.5704Q352.0 297.14853 352.0 296.42978ZM350.375 290.99228Q349.73438 290.99228 349.32812 291.39853Q348.9375 291.78915 348.9375 292.47665Q348.9375 293.11728 349.32812 293.52353Q349.71875 293.92978 350.35938 293.92978Q351.01562 293.92978 351.40625 293.52353Q351.79688 293.11728 351.79688 292.47665Q351.79688 291.8204 351.39062 291.41415Q350.98438 290.99228 350.375 290.99228ZM354.84375 298.1954Q354.84375 297.91415 355.0 297.72665Q355.17188 297.53915 355.5 297.53915Q355.84375 297.53915 356.01562 297.72665Q356.1875 297.91415 356.1875 298.1954Q356.1875 298.46103 356.01562 298.64853Q355.84375 298.8204 355.5 298.8204Q355.17188 298.8204 355.0 298.64853Q354.84375 298.46103 354.84375 298.1954ZM358.20312 294.47665L358.64062 290.22665L363.01562 290.22665L363.01562 291.22665L359.5625 291.22665L359.29688 293.55478Q359.9375 293.17978 360.73438 293.17978Q361.89062 293.17978 362.57812 293.96103Q363.26562 294.72665 363.26562 296.03915Q363.26562 297.35165 362.54688 298.11728Q361.84375 298.8829 360.5625 298.8829Q359.4375 298.8829 358.71875 298.2579Q358.0 297.61728 357.90625 296.5079L358.92188 296.5079Q359.03125 297.24228 359.45312 297.61728Q359.875 297.99228 360.5625 297.99228Q361.3125 297.99228 361.75 297.47665Q362.1875 296.96103 362.1875 296.05478Q362.1875 295.1954 361.71875 294.67978Q361.25 294.16415 360.46875 294.16415Q359.76562 294.16415 359.35938 294.46103L359.07812 294.6954L358.20312 294.47665ZM368.96875 290.22665L368.96875 291.1329L368.76562 291.1329Q367.5 291.16415 366.75 291.89853Q366.0 292.61728 365.875 293.92978Q366.5625 293.16415 367.71875 293.16415Q368.82812 293.16415 369.5 293.9454Q370.17188 294.72665 370.17188 295.97665Q370.17188 297.28915 369.45312 298.08603Q368.73438 298.8829 367.51562 298.8829Q366.29688 298.8829 365.53125 297.9454Q364.78125 296.99228 364.78125 295.5079L364.78125 295.10165Q364.78125 292.74228 365.78125 291.49228Q366.78125 290.24228 368.76562 290.22665L368.96875 290.22665ZM367.54688 294.0704Q366.98438 294.0704 366.51562 294.39853Q366.04688 294.72665 365.85938 295.24228L365.85938 295.6329Q365.85938 296.6954 366.32812 297.33603Q366.8125 297.97665 367.51562 297.97665Q368.25 297.97665 368.67188 297.4454Q369.09375 296.89853 369.09375 296.02353Q369.09375 295.14853 368.67188 294.61728Q368.25 294.0704 367.54688 294.0704ZM377.29688 298.7579L371.70312 298.7579L371.70312 297.97665L374.65625 294.6954Q375.3125 293.9454 375.5625 293.49228Q375.8125 293.02353 375.8125 292.52353Q375.8125 291.85165 375.40625 291.42978Q375.01562 290.99228 374.32812 290.99228Q373.53125 290.99228 373.07812 291.46103Q372.625 291.91415 372.625 292.74228L371.54688 292.74228Q371.54688 291.55478 372.29688 290.83603Q373.0625 290.10165 374.32812 290.10165Q375.53125 290.10165 376.21875 290.72665Q376.90625 291.35165 376.90625 292.39853Q376.90625 293.64853 375.29688 295.39853L373.01562 297.86728L377.29688 297.86728L377.29688 298.7579Z" fill-rule="nonzero"/><path fill="#ffffff" d="M346.29688 298.7579L340.70312 298.7579L340.70312 297.97665L343.65625 294.6954Q344.3125 293.9454 344.5625 293.49228Q344.8125 293.02353 344.8125 292.52353Q344.8125 291.85165 344.40625 291.42978Q344.01562 290.99228 343.32812 290.99228Q342.53125 290.99228 342.07812 291.46103Q341.625 291.91415 341.625 292.74228L340.54688 292.74228Q340.54688 291.55478 341.29688 290.83603Q342.0625 290.10165 343.32812 290.10165Q344.53125 290.10165 345.21875 290.72665Q345.90625 291.35165 345.90625 292.39853Q345.90625 293.64853 344.29688 295.39853L342.01562 297.86728L346.29688 297.86728L346.29688 298.7579ZM352.89062 292.4454Q352.89062 293.08603 352.54688 293.58603Q352.20312 294.08603 351.64062 294.36728Q352.29688 294.64853 352.6875 295.21103Q353.07812 295.7579 353.07812 296.46103Q353.07812 297.55478 352.32812 298.22665Q351.59375 298.8829 350.375 298.8829Q349.14062 298.8829 348.39062 298.22665Q347.65625 297.55478 347.65625 296.46103Q347.65625 295.7579 348.03125 295.21103Q348.40625 294.64853 349.07812 294.36728Q348.51562 294.08603 348.1875 293.58603Q347.85938 293.08603 347.85938 292.4454Q347.85938 291.36728 348.54688 290.74228Q349.23438 290.10165 350.375 290.10165Q351.5 290.10165 352.1875 290.74228Q352.89062 291.36728 352.89062 292.4454ZM352.0 296.42978Q352.0 295.71103 351.54688 295.27353Q351.09375 294.8204 350.35938 294.8204Q349.625 294.8204 349.17188 295.27353Q348.73438 295.71103 348.73438 296.4454Q348.73438 297.16415 349.17188 297.58603Q349.60938 297.99228 350.375 297.99228Q351.125 297.99228 351.5625 297.5704Q352.0 297.14853 352.0 296.42978ZM350.375 290.99228Q349.73438 290.99228 349.32812 291.39853Q348.9375 291.78915 348.9375 292.47665Q348.9375 293.11728 349.32812 293.52353Q349.71875 293.92978 350.35938 293.92978Q351.01562 293.92978 351.40625 293.52353Q351.79688 293.11728 351.79688 292.47665Q351.79688 291.8204 351.39062 291.41415Q350.98438 290.99228 350.375 290.99228ZM354.84375 298.1954Q354.84375 297.91415 355.0 297.72665Q355.17188 297.53915 355.5 297.53915Q355.84375 297.53915 356.01562 297.72665Q356.1875 297.91415 356.1875 298.1954Q356.1875 298.46103 356.01562 298.64853Q355.84375 298.8204 355.5 298.8204Q355.17188 298.8204 355.0 298.64853Q354.84375 298.46103 354.84375 298.1954ZM358.20312 294.47665L358.64062 290.22665L363.01562 290.22665L363.01562 291.22665L359.5625 291.22665L359.29688 293.55478Q359.9375 293.17978 360.73438 293.17978Q361.89062 293.17978 362.57812 293.96103Q363.26562 294.72665 363.26562 296.03915Q363.26562 297.35165 362.54688 298.11728Q361.84375 298.8829 360.5625 298.8829Q359.4375 298.8829 358.71875 298.2579Q358.0 297.61728 357.90625 296.5079L358.92188 296.5079Q359.03125 297.24228 359.45312 297.61728Q359.875 297.99228 360.5625 297.99228Q361.3125 297.99228 361.75 297.47665Q362.1875 296.96103 362.1875 296.05478Q362.1875 295.1954 361.71875 294.67978Q361.25 294.16415 360.46875 294.16415Q359.76562 294.16415 359.35938 294.46103L359.07812 294.6954L358.20312 294.47665ZM368.96875 290.22665L368.96875 291.1329L368.76562 291.1329Q367.5 291.16415 366.75 291.89853Q366.0 292.61728 365.875 293.92978Q366.5625 293.16415 367.71875 293.16415Q368.82812 293.16415 369.5 293.9454Q370.17188 294.72665 370.17188 295.97665Q370.17188 297.28915 369.45312 298.08603Q368.73438 298.8829 367.51562 298.8829Q366.29688 298.8829 365.53125 297.9454Q364.78125 296.99228 364.78125 295.5079L364.78125 295.10165Q364.78125 292.74228 365.78125 291.49228Q366.78125 290.24228 368.76562 290.22665L368.96875 290.22665ZM367.54688 294.0704Q366.98438 294.0704 366.51562 294.39853Q366.04688 294.72665 365.85938 295.24228L365.85938 295.6329Q365.85938 296.6954 366.32812 297.33603Q366.8125 297.97665 367.51562 297.97665Q368.25 297.97665 368.67188 297.4454Q369.09375 296.89853 369.09375 296.02353Q369.09375 295.14853 368.67188 294.61728Q368.25 294.0704 367.54688 294.0704ZM377.29688 298.7579L371.70312 298.7579L371.70312 297.97665L374.65625 294.6954Q375.3125 293.9454 375.5625 293.49228Q375.8125 293.02353 375.8125 292.52353Q375.8125 291.85165 375.40625 291.42978Q375.01562 290.99228 374.32812 290.99228Q373.53125 290.99228 373.07812 291.46103Q372.625 291.91415 372.625 292.74228L371.54688 292.74228Q371.54688 291.55478 372.29688 290.83603Q373.0625 290.10165 374.32812 290.10165Q375.53125 290.10165 376.21875 290.72665Q376.90625 291.35165 376.90625 292.39853Q376.90625 293.64853 375.29688 295.39853L373.01562 297.86728L377.29688 297.86728L377.29688 298.7579Z" fill-rule="nonzero"/><path stroke="#ff6d01" stroke-width="3.0" stroke-linejoin="round" stroke-linecap="round" d="M387.20312 139.08424L387.64062 134.83424L392.01562 134.83424L392.01562 135.83424L388.5625 135.83424L388.29688 138.16237Q388.9375 137.78737 389.73438 137.78737Q390.89062 137.78737 391.57812 138.56862Q392.26562 139.33424 392.26562 140.64674Q392.26562 141.95924 391.54688 142.72487Q390.84375 143.4905 389.5625 143.4905Q388.4375 143.4905 387.71875 142.8655Q387.0 142.22487 386.90625 141.1155L387.92188 141.1155Q388.03125 141.84987 388.45312 142.22487Q388.875 142.59987 389.5625 142.59987Q390.3125 142.59987 390.75 142.08424Q391.1875 141.56862 391.1875 140.66237Q391.1875 139.803 390.71875 139.28737Q390.25 138.77174 389.46875 138.77174Q388.76562 138.77174 388.35938 139.06862L388.07812 139.303L387.20312 139.08424ZM397.26562 143.3655L396.1875 143.3655L396.1875 136.14674L394.0 136.94362L394.0 135.95924L397.10938 134.78737L397.26562 134.78737L397.26562 143.3655ZM400.84375 142.803Q400.84375 142.52174 401.0 142.33424Q401.17188 142.14674 401.5 142.14674Q401.84375 142.14674 402.01562 142.33424Q402.1875 142.52174 402.1875 142.803Q402.1875 143.06862 402.01562 143.25612Q401.84375 143.428 401.5 143.428Q401.17188 143.428 401.0 143.25612Q400.84375 143.06862 400.84375 142.803ZM407.85938 139.6155Q407.53125 140.02174 407.04688 140.27174Q406.57812 140.50612 406.01562 140.50612Q405.28125 140.50612 404.73438 140.14674Q404.1875 139.78737 403.89062 139.13112Q403.59375 138.45924 403.59375 137.66237Q403.59375 136.81862 403.90625 136.13112Q404.23438 135.44362 404.82812 135.08424Q405.4375 134.70924 406.23438 134.70924Q407.5 134.70924 408.21875 135.66237Q408.95312 136.6155 408.95312 138.2405L408.95312 138.553Q408.95312 141.053 407.96875 142.19362Q406.98438 143.33424 405.0 143.3655L404.78125 143.3655L404.78125 142.45924L405.01562 142.45924Q406.35938 142.428 407.07812 141.75612Q407.79688 141.08424 407.85938 139.6155ZM406.1875 139.6155Q406.73438 139.6155 407.1875 139.28737Q407.65625 138.94362 407.875 138.45924L407.875 138.02174Q407.875 136.95924 407.40625 136.28737Q406.9375 135.6155 406.23438 135.6155Q405.51562 135.6155 405.07812 136.16237Q404.65625 136.70924 404.65625 137.6155Q404.65625 138.4905 405.0625 139.053Q405.48438 139.6155 406.1875 139.6155ZM415.28125 140.50612L416.46875 140.50612L416.46875 141.38112L415.28125 141.38112L415.28125 143.3655L414.20312 143.3655L414.20312 141.38112L410.3125 141.38112L410.3125 140.7405L414.125 134.83424L415.28125 134.83424L415.28125 140.50612ZM411.54688 140.50612L414.20312 140.50612L414.20312 136.31862L414.0625 136.553L411.54688 140.50612ZM421.26562 143.3655L420.1875 143.3655L420.1875 136.14674L418.0 136.94362L418.0 135.95924L421.10938 134.78737L421.26562 134.78737L421.26562 143.3655Z" fill-rule="nonzero"/><path fill="#000000" d="M387.20312 139.08424L387.64062 134.83424L392.01562 134.83424L392.01562 135.83424L388.5625 135.83424L388.29688 138.16237Q388.9375 137.78737 389.73438 137.78737Q390.89062 137.78737 391.57812 138.56862Q392.26562 139.33424 392.26562 140.64674Q392.26562 141.95924 391.54688 142.72487Q390.84375 143.4905 389.5625 143.4905Q388.4375 143.4905 387.71875 142.8655Q387.0 142.22487 386.90625 141.1155L387.92188 141.1155Q388.03125 141.84987 388.45312 142.22487Q388.875 142.59987 389.5625 142.59987Q390.3125 142.59987 390.75 142.08424Q391.1875 141.56862 391.1875 140.66237Q391.1875 139.803 390.71875 139.28737Q390.25 138.77174 389.46875 138.77174Q388.76562 138.77174 388.35938 139.06862L388.07812 139.303L387.20312 139.08424ZM397.26562 143.3655L396.1875 143.3655L396.1875 136.14674L394.0 136.94362L394.0 135.95924L397.10938 134.78737L397.26562 134.78737L397.26562 143.3655ZM400.84375 142.803Q400.84375 142.52174 401.0 142.33424Q401.17188 142.14674 401.5 142.14674Q401.84375 142.14674 402.01562 142.33424Q402.1875 142.52174 402.1875 142.803Q402.1875 143.06862 402.01562 143.25612Q401.84375 143.428 401.5 143.428Q401.17188 143.428 401.0 143.25612Q400.84375 143.06862 400.84375 142.803ZM407.85938 139.6155Q407.53125 140.02174 407.04688 140.27174Q406.57812 140.50612 406.01562 140.50612Q405.28125 140.50612 404.73438 140.14674Q404.1875 139.78737 403.89062 139.13112Q403.59375 138.45924 403.59375 137.66237Q403.59375 136.81862 403.90625 136.13112Q404.23438 135.44362 404.82812 135.08424Q405.4375 134.70924 406.23438 134.70924Q407.5 134.70924 408.21875 135.66237Q408.95312 136.6155 408.95312 138.2405L408.95312 138.553Q408.95312 141.053 407.96875 142.19362Q406.98438 143.33424 405.0 143.3655L404.78125 143.3655L404.78125 142.45924L405.01562 142.45924Q406.35938 142.428 407.07812 141.75612Q407.79688 141.08424 407.85938 139.6155ZM406.1875 139.6155Q406.73438 139.6155 407.1875 139.28737Q407.65625 138.94362 407.875 138.45924L407.875 138.02174Q407.875 136.95924 407.40625 136.28737Q406.9375 135.6155 406.23438 135.6155Q405.51562 135.6155 405.07812 136.16237Q404.65625 136.70924 404.65625 137.6155Q404.65625 138.4905 405.0625 139.053Q405.48438 139.6155 406.1875 139.6155ZM415.28125 140.50612L416.46875 140.50612L416.46875 141.38112L415.28125 141.38112L415.28125 143.3655L414.20312 143.3655L414.20312 141.38112L410.3125 141.38112L410.3125 140.7405L414.125 134.83424L415.28125 134.83424L415.28125 140.50612ZM411.54688 140.50612L414.20312 140.50612L414.20312 136.31862L414.0625 136.553L411.54688 140.50612ZM421.26562 143.3655L420.1875 143.3655L420.1875 136.14674L418.0 136.94362L418.0 135.95924L421.10938 134.78737L421.26562 134.78737L421.26562 143.3655Z" fill-rule="nonzero"/><path stroke="#46bdc6" stroke-width="3.0" stroke-linejoin="round" stroke-linecap="round" d="M438.29688 344.7595L432.70312 344.7595L432.70312 343.97824L435.65625 340.697Q436.3125 339.947 436.5625 339.49387Q436.8125 339.02512 436.8125 338.52512Q436.8125 337.85324 436.40625 337.43137Q436.01562 336.99387 435.32812 336.99387Q434.53125 336.99387 434.07812 337.46262Q433.625 337.91574 433.625 338.74387L432.54688 338.74387Q432.54688 337.55637 433.29688 336.83762Q434.0625 336.10324 435.32812 336.10324Q436.53125 336.10324 437.21875 336.72824Q437.90625 337.35324 437.90625 338.40012Q437.90625 339.65012 436.29688 341.40012L434.01562 343.86887L438.29688 343.86887L438.29688 344.7595ZM443.26562 344.7595L442.1875 344.7595L442.1875 337.54074L440.0 338.33762L440.0 337.35324L443.10938 336.18137L443.26562 336.18137L443.26562 344.7595ZM446.84375 344.197Q446.84375 343.91574 447.0 343.72824Q447.17188 343.54074 447.5 343.54074Q447.84375 343.54074 448.01562 343.72824Q448.1875 343.91574 448.1875 344.197Q448.1875 344.46262 448.01562 344.65012Q447.84375 344.822 447.5 344.822Q447.17188 344.822 447.0 344.65012Q446.84375 344.46262 446.84375 344.197ZM453.96875 336.22824L453.96875 337.1345L453.76562 337.1345Q452.5 337.16574 451.75 337.90012Q451.0 338.61887 450.875 339.93137Q451.5625 339.16574 452.71875 339.16574Q453.82812 339.16574 454.5 339.947Q455.17188 340.72824 455.17188 341.97824Q455.17188 343.29074 454.45312 344.08762Q453.73438 344.8845 452.51562 344.8845Q451.29688 344.8845 450.53125 343.947Q449.78125 342.99387 449.78125 341.5095L449.78125 341.10324Q449.78125 338.74387 450.78125 337.49387Q451.78125 336.24387 453.76562 336.22824L453.96875 336.22824ZM452.54688 340.072Q451.98438 340.072 451.51562 340.40012Q451.04688 340.72824 450.85938 341.24387L450.85938 341.6345Q450.85938 342.697 451.32812 343.33762Q451.8125 343.97824 452.51562 343.97824Q453.25 343.97824 453.67188 343.447Q454.09375 342.90012 454.09375 342.02512Q454.09375 341.15012 453.67188 340.61887Q453.25 340.072 452.54688 340.072ZM461.28125 341.90012L462.46875 341.90012L462.46875 342.77512L461.28125 342.77512L461.28125 344.7595L460.20312 344.7595L460.20312 342.77512L456.3125 342.77512L456.3125 342.1345L460.125 336.22824L461.28125 336.22824L461.28125 341.90012ZM457.54688 341.90012L460.20312 341.90012L460.20312 337.71262L460.0625 337.947L457.54688 341.90012ZM467.26562 344.7595L466.1875 344.7595L466.1875 337.54074L464.0 338.33762L464.0 337.35324L467.10938 336.18137L467.26562 336.18137L467.26562 344.7595Z" fill-rule="nonzero"/><path fill="#000000" d="M438.29688 344.7595L432.70312 344.7595L432.70312 343.97824L435.65625 340.697Q436.3125 339.947 436.5625 339.49387Q436.8125 339.02512 436.8125 338.52512Q436.8125 337.85324 436.40625 337.43137Q436.01562 336.99387 435.32812 336.99387Q434.53125 336.99387 434.07812 337.46262Q433.625 337.91574 433.625 338.74387L432.54688 338.74387Q432.54688 337.55637 433.29688 336.83762Q434.0625 336.10324 435.32812 336.10324Q436.53125 336.10324 437.21875 336.72824Q437.90625 337.35324 437.90625 338.40012Q437.90625 339.65012 436.29688 341.40012L434.01562 343.86887L438.29688 343.86887L438.29688 344.7595ZM443.26562 344.7595L442.1875 344.7595L442.1875 337.54074L440.0 338.33762L440.0 337.35324L443.10938 336.18137L443.26562 336.18137L443.26562 344.7595ZM446.84375 344.197Q446.84375 343.91574 447.0 343.72824Q447.17188 343.54074 447.5 343.54074Q447.84375 343.54074 448.01562 343.72824Q448.1875 343.91574 448.1875 344.197Q448.1875 344.46262 448.01562 344.65012Q447.84375 344.822 447.5 344.822Q447.17188 344.822 447.0 344.65012Q446.84375 344.46262 446.84375 344.197ZM453.96875 336.22824L453.96875 337.1345L453.76562 337.1345Q452.5 337.16574 451.75 337.90012Q451.0 338.61887 450.875 339.93137Q451.5625 339.16574 452.71875 339.16574Q453.82812 339.16574 454.5 339.947Q455.17188 340.72824 455.17188 341.97824Q455.17188 343.29074 454.45312 344.08762Q453.73438 344.8845 452.51562 344.8845Q451.29688 344.8845 450.53125 343.947Q449.78125 342.99387 449.78125 341.5095L449.78125 341.10324Q449.78125 338.74387 450.78125 337.49387Q451.78125 336.24387 453.76562 336.22824L453.96875 336.22824ZM452.54688 340.072Q451.98438 340.072 451.51562 340.40012Q451.04688 340.72824 450.85938 341.24387L450.85938 341.6345Q450.85938 342.697 451.32812 343.33762Q451.8125 343.97824 452.51562 343.97824Q453.25 343.97824 453.67188 343.447Q454.09375 342.90012 454.09375 342.02512Q454.09375 341.15012 453.67188 340.61887Q453.25 340.072 452.54688 340.072ZM461.28125 341.90012L462.46875 341.90012L462.46875 342.77512L461.28125 342.77512L461.28125 344.7595L460.20312 344.7595L460.20312 342.77512L456.3125 342.77512L456.3125 342.1345L460.125 336.22824L461.28125 336.22824L461.28125 341.90012ZM457.54688 341.90012L460.20312 341.90012L460.20312 337.71262L460.0625 337.947L457.54688 341.90012ZM467.26562 344.7595L466.1875 344.7595L466.1875 337.54074L464.0 338.33762L464.0 337.35324L467.10938 336.18137L467.26562 336.18137L467.26562 344.7595Z" fill-rule="nonzero"/><path fill="#000000" d="M39.7 471.5656Q39.7 470.03436 40.0125 469.1125Q40.325 468.175 40.934376 467.675Q41.559376 467.175 42.496876 467.175Q43.184376 467.175 43.7 467.45624Q44.23125 467.7375 44.575 468.26874Q44.91875 468.78436 45.10625 469.53436Q45.29375 470.28436 45.29375 471.5656Q45.29375 473.08124 44.98125 474.0031Q44.684376 474.925 44.059376 475.4406Q43.45 475.9406 42.496876 475.9406Q41.2625 475.9406 40.54375 475.05Q39.7 473.9875 39.7 471.5656ZM40.778126 471.5656Q40.778126 473.675 41.278126 474.3781Q41.778126 475.08124 42.496876 475.08124Q43.23125 475.08124 43.715626 474.3781Q44.215626 473.675 44.215626 471.5656Q44.215626 469.4406 43.715626 468.7531Q43.23125 468.05 42.48125 468.05Q41.7625 468.05 41.325 468.65936Q40.778126 469.4406 40.778126 471.5656Z" fill-rule="nonzero"/><path fill="#000000" d="M38.246876 341.85104L38.246876 342.86667L32.559376 342.86667Q32.559376 342.49167 32.684376 342.1323Q32.903126 341.55417 33.371876 340.99167Q33.85625 340.42917 34.7625 339.6948Q36.16875 338.53854 36.653126 337.86667Q37.153126 337.1948 37.153126 336.60104Q37.153126 335.97604 36.7 335.55417Q36.246876 335.11667 35.528126 335.11667Q34.7625 335.11667 34.309376 335.5698Q33.85625 336.02292 33.840626 336.83542L32.7625 336.72604Q32.871876 335.5073 33.590626 334.8823Q34.325 334.24167 35.559376 334.24167Q36.79375 334.24167 37.5125 334.92917Q38.23125 335.61667 38.23125 336.6323Q38.23125 337.14792 38.0125 337.64792Q37.809376 338.1323 37.309376 338.6948Q36.825 339.24167 35.7 340.1948Q34.746876 340.99167 34.465626 341.28854Q34.2 341.5698 34.028126 341.85104L38.246876 341.85104ZM39.7 338.6323Q39.7 337.10104 40.0125 336.17917Q40.325 335.24167 40.934376 334.74167Q41.559376 334.24167 42.496876 334.24167Q43.184376 334.24167 43.7 334.52292Q44.23125 334.80417 44.575 335.33542Q44.91875 335.85104 45.10625 336.60104Q45.29375 337.35104 45.29375 338.6323Q45.29375 340.14792 44.98125 341.0698Q44.684376 341.99167 44.059376 342.5073Q43.45 343.0073 42.496876 343.0073Q41.2625 343.0073 40.54375 342.11667Q39.7 341.05417 39.7 338.6323ZM40.778126 338.6323Q40.778126 340.74167 41.278126 341.4448Q41.778126 342.14792 42.496876 342.14792Q43.23125 342.14792 43.715626 341.4448Q44.215626 340.74167 44.215626 338.6323Q44.215626 336.5073 43.715626 335.8198Q43.23125 335.11667 42.48125 335.11667Q41.7625 335.11667 41.325 335.72604Q40.778126 336.5073 40.778126 338.6323Z" fill-rule="nonzero"/><path fill="#000000" d="M36.075 209.93333L36.075 207.87083L32.35625 207.87083L32.35625 206.90208L36.278126 201.33958L37.1375 201.33958L37.1375 206.90208L38.29375 206.90208L38.29375 207.87083L37.1375 207.87083L37.1375 209.93333L36.075 209.93333ZM36.075 206.90208L36.075 203.04271L33.3875 206.90208L36.075 206.90208ZM39.7 205.69896Q39.7 204.16771 40.0125 203.24583Q40.325 202.30833 40.934376 201.80833Q41.559376 201.30833 42.496876 201.30833Q43.184376 201.30833 43.7 201.58958Q44.23125 201.87083 44.575 202.40208Q44.91875 202.91771 45.10625 203.66771Q45.29375 204.41771 45.29375 205.69896Q45.29375 207.21458 44.98125 208.13646Q44.684376 209.05833 44.059376 209.57396Q43.45 210.07396 42.496876 210.07396Q41.2625 210.07396 40.54375 209.18333Q39.7 208.12083 39.7 205.69896ZM40.778126 205.69896Q40.778126 207.80833 41.278126 208.51146Q41.778126 209.21458 42.496876 209.21458Q43.23125 209.21458 43.715626 208.51146Q44.215626 207.80833 44.215626 205.69896Q44.215626 203.57396 43.715626 202.88646Q43.23125 202.18333 42.48125 202.18333Q41.7625 202.18333 41.325 202.79271Q40.778126 203.57396 40.778126 205.69896Z" fill-rule="nonzero"/><path fill="#000000" d="M38.16875 70.515625L37.121876 70.59375Q36.98125 69.96875 36.73125 69.6875Q36.29375 69.234375 35.66875 69.234375Q35.16875 69.234375 34.778126 69.515625Q34.29375 69.890625 33.996876 70.59375Q33.715626 71.28125 33.7 72.5625Q34.075 71.984375 34.621876 71.703125Q35.184376 71.421875 35.79375 71.421875Q36.840626 71.421875 37.575 72.203125Q38.325 72.984375 38.325 74.203125Q38.325 75.015625 37.965626 75.71875Q37.621876 76.40625 37.0125 76.78125Q36.403126 77.140625 35.6375 77.140625Q34.309376 77.140625 33.48125 76.171875Q32.653126 75.203125 32.653126 72.984375Q32.653126 70.484375 33.575 69.359375Q34.371876 68.375 35.73125 68.375Q36.746876 68.375 37.3875 68.953125Q38.04375 69.515625 38.16875 70.515625ZM33.871876 74.21875Q33.871876 74.765625 34.090626 75.265625Q34.325 75.75 34.73125 76.015625Q35.153126 76.28125 35.621876 76.28125Q36.278126 76.28125 36.7625 75.75Q37.246876 75.203125 37.246876 74.28125Q37.246876 73.390625 36.7625 72.875Q36.29375 72.359375 35.575 72.359375Q34.85625 72.359375 34.35625 72.875Q33.871876 73.390625 33.871876 74.21875ZM39.7 72.765625Q39.7 71.234375 40.0125 70.3125Q40.325 69.375 40.934376 68.875Q41.559376 68.375 42.496876 68.375Q43.184376 68.375 43.7 68.65625Q44.23125 68.9375 44.575 69.46875Q44.91875 69.984375 45.10625 70.734375Q45.29375 71.484375 45.29375 72.765625Q45.29375 74.28125 44.98125 75.203125Q44.684376 76.125 44.059376 76.640625Q43.45 77.140625 42.496876 77.140625Q41.2625 77.140625 40.54375 76.25Q39.7 75.1875 39.7 72.765625ZM40.778126 72.765625Q40.778126 74.875 41.278126 75.578125Q41.778126 76.28125 42.496876 76.28125Q43.23125 76.28125 43.715626 75.578125Q44.215626 74.875 44.215626 72.765625Q44.215626 70.640625 43.715626 69.953125Q43.23125 69.25 42.48125 69.25Q41.7625 69.25 41.325 69.859375Q40.778126 70.640625 40.778126 72.765625Z" fill-rule="nonzero"/><path fill="#4285f4" d="M646.8 73.0C646.8 72.447716 647.24774 72.0 647.8 72.0L657.8 72.0C658.3523 72.0 658.8 72.447716 658.8 73.0L658.8 83.0C658.8 83.552284 658.3523 84.0 657.8 84.0L647.8 84.0C647.24774 84.0 646.8 83.552284 646.8 83.0Z" fill-rule="nonzero"/><path fill="#1a1a1a" d="M668.1281 72.703125L668.1281 70.6875L669.89374 70.6875L669.89374 72.703125L668.1281 72.703125ZM668.1281 85.0L668.1281 74.625L669.89374 74.625L669.89374 85.0L668.1281 85.0ZM671.7531 72.5625L671.7531 70.875L681.01874 70.875L681.01874 72.234375Q679.64374 73.6875 678.3 76.109375Q676.95624 78.515625 676.2375 81.0625Q675.70624 82.859375 675.55 85.0L673.7531 85.0Q673.78436 83.3125 674.40936 80.921875Q675.05 78.53125 676.2375 76.3125Q677.425 74.078125 678.7531 72.5625L671.7531 72.5625ZM682.4406 80.703125L682.4406 78.9375L687.83124 78.9375L687.83124 80.703125L682.4406 80.703125ZM692.33124 77.234375Q691.2375 76.828125 690.70624 76.09375Q690.1906 75.34375 690.1906 74.3125Q690.1906 72.75 691.3156 71.6875Q692.4406 70.625 694.3 70.625Q696.175 70.625 697.3156 71.71875Q698.45624 72.796875 698.45624 74.359375Q698.45624 75.359375 697.925 76.09375Q697.40936 76.828125 696.34686 77.234375Q697.675 77.671875 698.3625 78.625Q699.05 79.578125 699.05 80.90625Q699.05 82.75 697.7375 84.0Q696.4406 85.25 694.33124 85.25Q692.20624 85.25 690.90936 84.0Q689.6125 82.734375 689.6125 80.859375Q689.6125 79.46875 690.3156 78.53125Q691.03436 77.578125 692.33124 77.234375ZM691.9875 74.25Q691.9875 75.265625 692.64374 75.921875Q693.3 76.5625 694.33124 76.5625Q695.34686 76.5625 696.0031 75.921875Q696.65936 75.28125 696.65936 74.359375Q696.65936 73.390625 695.9875 72.734375Q695.3156 72.0625 694.3156 72.0625Q693.3156 72.0625 692.64374 72.71875Q691.9875 73.359375 691.9875 74.25ZM691.425 80.875Q691.425 81.625 691.76874 82.328125Q692.1281 83.03125 692.83124 83.421875Q693.53436 83.796875 694.34686 83.796875Q695.6125 83.796875 696.425 82.984375Q697.2531 82.171875 697.2531 80.921875Q697.2531 79.65625 696.40936 78.828125Q695.5656 78.0 694.28436 78.0Q693.05 78.0 692.2375 78.828125Q691.425 79.640625 691.425 80.875ZM700.7531 72.5625L700.7531 70.875L710.01874 70.875L710.01874 72.234375Q708.64374 73.6875 707.3 76.109375Q705.95624 78.515625 705.2375 81.0625Q704.70624 82.859375 704.55 85.0L702.7531 85.0Q702.78436 83.3125 703.40936 80.921875Q704.05 78.53125 705.2375 76.3125Q706.425 74.078125 707.7531 72.5625L700.7531 72.5625ZM711.6281 77.9375Q711.6281 75.40625 712.14374 73.859375Q712.675 72.296875 713.70624 71.46875Q714.7375 70.625 716.3 70.625Q717.45624 70.625 718.3156 71.09375Q719.1906 71.546875 719.7531 72.421875Q720.3156 73.296875 720.64374 74.5625Q720.97186 75.8125 720.97186 77.9375Q720.97186 80.453125 720.4406 82.0Q719.925 83.546875 718.89374 84.40625Q717.8781 85.25 716.3 85.25Q714.22186 85.25 713.05 83.765625Q711.6281 81.96875 711.6281 77.9375ZM713.4406 77.9375Q713.4406 81.46875 714.2531 82.640625Q715.08124 83.796875 716.3 83.796875Q717.5031 83.796875 718.33124 82.625Q719.15936 81.453125 719.15936 77.9375Q719.15936 74.40625 718.33124 73.25Q717.5031 72.078125 716.28436 72.078125Q715.0656 72.078125 714.34686 73.109375Q713.4406 74.40625 713.4406 77.9375ZM722.6281 77.9375Q722.6281 75.40625 723.14374 73.859375Q723.675 72.296875 724.70624 71.46875Q725.7375 70.625 727.3 70.625Q728.45624 70.625 729.3156 71.09375Q730.1906 71.546875 730.7531 72.421875Q731.3156 73.296875 731.64374 74.5625Q731.97186 75.8125 731.97186 77.9375Q731.97186 80.453125 731.4406 82.0Q730.925 83.546875 729.89374 84.40625Q728.8781 85.25 727.3 85.25Q725.22186 85.25 724.05 83.765625Q722.6281 81.96875 722.6281 77.9375ZM724.4406 77.9375Q724.4406 81.46875 725.2531 82.640625Q726.08124 83.796875 727.3 83.796875Q728.5031 83.796875 729.33124 82.625Q730.15936 81.453125 730.15936 77.9375Q730.15936 74.40625 729.33124 73.25Q728.5031 72.078125 727.28436 72.078125Q726.0656 72.078125 725.34686 73.109375Q724.4406 74.40625 724.4406 77.9375ZM734.26874 85.0L734.26874 70.6875L736.15936 70.6875L736.15936 77.78125L743.26874 70.6875L745.83124 70.6875L739.83124 76.484375L746.09686 85.0L743.59686 85.0L738.5031 77.75L736.15936 80.03125L736.15936 85.0L734.26874 85.0Z" fill-rule="nonzero"/><path fill="#ea4335" d="M646.8 107.0C646.8 106.447716 647.24774 106.0 647.8 106.0L657.8 106.0C658.3523 106.0 658.8 106.447716 658.8 107.0L658.8 117.0C658.8 117.552284 658.3523 118.0 657.8 118.0L647.8 118.0C647.24774 118.0 646.8 117.552284 646.8 117.0Z" fill-rule="nonzero"/><path fill="#1a1a1a" d="M667.64374 115.21875L669.39374 114.984375Q669.70624 116.484375 670.425 117.140625Q671.15936 117.796875 672.20624 117.796875Q673.4406 117.796875 674.28436 116.9375Q675.14374 116.078125 675.14374 114.8125Q675.14374 113.59375 674.34686 112.8125Q673.5656 112.03125 672.34686 112.03125Q671.84686 112.03125 671.1125 112.21875L671.3 110.671875Q671.47186 110.703125 671.58124 110.703125Q672.70624 110.703125 673.59686 110.125Q674.5031 109.53125 674.5031 108.3125Q674.5031 107.34375 673.84686 106.703125Q673.1906 106.0625 672.15936 106.0625Q671.14374 106.0625 670.45624 106.71875Q669.76874 107.359375 669.58124 108.640625L667.8156 108.328125Q668.14374 106.5625 669.28436 105.59375Q670.425 104.625 672.1281 104.625Q673.3 104.625 674.28436 105.125Q675.26874 105.625 675.78436 106.5Q676.3156 107.375 676.3156 108.34375Q676.3156 109.265625 675.8156 110.03125Q675.3156 110.796875 674.34686 111.25Q675.6125 111.53125 676.3156 112.46875Q677.01874 113.390625 677.01874 114.765625Q677.01874 116.640625 675.64374 117.953125Q674.28436 119.25 672.1906 119.25Q670.3 119.25 669.05 118.125Q667.8156 117.0 667.64374 115.21875ZM678.89374 115.6875L680.58124 115.53125Q680.8 116.71875 681.39374 117.265625Q682.0031 117.796875 682.95624 117.796875Q683.76874 117.796875 684.3781 117.4375Q684.9875 117.0625 685.3781 116.4375Q685.76874 115.8125 686.03436 114.765625Q686.3 113.703125 686.3 112.609375Q686.3 112.5 686.28436 112.265625Q685.7531 113.09375 684.84686 113.625Q683.9406 114.140625 682.8625 114.140625Q681.09686 114.140625 679.8625 112.859375Q678.6281 111.5625 678.6281 109.453125Q678.6281 107.28125 679.90936 105.953125Q681.20624 104.625 683.1281 104.625Q684.53436 104.625 685.6906 105.375Q686.84686 106.125 687.4406 107.515625Q688.05 108.90625 688.05 111.546875Q688.05 114.296875 687.4406 115.921875Q686.84686 117.546875 685.675 118.40625Q684.5031 119.25 682.925 119.25Q681.2375 119.25 680.175 118.3125Q679.1125 117.375 678.89374 115.6875ZM686.09686 109.375Q686.09686 107.859375 685.28436 106.96875Q684.4875 106.078125 683.34686 106.078125Q682.175 106.078125 681.3 107.046875Q680.4406 108.0 680.4406 109.515625Q680.4406 110.890625 681.2531 111.75Q682.08124 112.59375 683.3 112.59375Q684.51874 112.59375 685.3 111.75Q686.09686 110.890625 686.09686 109.375ZM689.6281 115.25L691.47186 115.09375Q691.675 116.4375 692.425 117.125Q693.175 117.796875 694.2375 117.796875Q695.5031 117.796875 696.3781 116.84375Q697.2531 115.890625 697.2531 114.296875Q697.2531 112.796875 696.40936 111.9375Q695.5656 111.0625 694.20624 111.0625Q693.34686 111.0625 692.65936 111.453125Q691.9875 111.828125 691.59686 112.453125L689.9406 112.234375L691.33124 104.875L698.45624 104.875L698.45624 106.5625L692.7375 106.5625L691.97186 110.40625Q693.2531 109.5 694.675 109.5Q696.55 109.5 697.83124 110.8125Q699.1281 112.109375 699.1281 114.140625Q699.1281 116.09375 697.9875 117.5Q696.6125 119.25 694.2375 119.25Q692.28436 119.25 691.03436 118.15625Q689.8 117.0625 689.6281 115.25ZM700.6281 111.9375Q700.6281 109.40625 701.14374 107.859375Q701.675 106.296875 702.70624 105.46875Q703.7375 104.625 705.3 104.625Q706.45624 104.625 707.3156 105.09375Q708.1906 105.546875 708.7531 106.421875Q709.3156 107.296875 709.64374 108.5625Q709.97186 109.8125 709.97186 111.9375Q709.97186 114.453125 709.4406 116.0Q708.925 117.546875 707.89374 118.40625Q706.8781 119.25 705.3 119.25Q703.22186 119.25 702.05 117.765625Q700.6281 115.96875 700.6281 111.9375ZM702.4406 111.9375Q702.4406 115.46875 703.2531 116.640625Q704.08124 117.796875 705.3 117.796875Q706.5031 117.796875 707.33124 116.625Q708.15936 115.453125 708.15936 111.9375Q708.15936 108.40625 707.33124 107.25Q706.5031 106.078125 705.28436 106.078125Q704.0656 106.078125 703.34686 107.109375Q702.4406 108.40625 702.4406 111.9375ZM710.9406 119.0L714.7375 113.609375L711.2375 108.625L713.425 108.625L715.01874 111.0625Q715.47186 111.75 715.7375 112.21875Q716.175 111.578125 716.53436 111.078125L718.28436 108.625L720.3781 108.625L716.8 113.515625L720.65936 119.0L718.5031 119.0L716.3625 115.78125L715.8 114.90625L713.08124 119.0L710.9406 119.0Z" fill-rule="nonzero"/><path fill="#fbbc04" d="M646.8 141.0C646.8 140.44771 647.24774 140.0 647.8 140.0L657.8 140.0C658.3523 140.0 658.8 140.44771 658.8 141.0L658.8 151.0C658.8 151.55229 658.3523 152.0 657.8 152.0L647.8 152.0C647.24774 152.0 646.8 151.55229 646.8 151.0Z" fill-rule="nonzero"/><path fill="#1a1a1a" d="M668.1281 140.70312L668.1281 138.6875L669.89374 138.6875L669.89374 140.70312L668.1281 140.70312ZM668.1281 153.0L668.1281 142.625L669.89374 142.625L669.89374 153.0L668.1281 153.0ZM671.89374 149.6875L673.58124 149.53125Q673.8 150.71875 674.39374 151.26562Q675.0031 151.79688 675.95624 151.79688Q676.76874 151.79688 677.3781 151.4375Q677.9875 151.0625 678.3781 150.4375Q678.76874 149.8125 679.03436 148.76562Q679.3 147.70312 679.3 146.60938Q679.3 146.5 679.28436 146.26562Q678.7531 147.09375 677.84686 147.625Q676.9406 148.14062 675.8625 148.14062Q674.09686 148.14062 672.8625 146.85938Q671.6281 145.5625 671.6281 143.45312Q671.6281 141.28125 672.90936 139.95312Q674.20624 138.625 676.1281 138.625Q677.53436 138.625 678.6906 139.375Q679.84686 140.125 680.4406 141.51562Q681.05 142.90625 681.05 145.54688Q681.05 148.29688 680.4406 149.92188Q679.84686 151.54688 678.675 152.40625Q677.5031 153.25 675.925 153.25Q674.2375 153.25 673.175 152.3125Q672.1125 151.375 671.89374 149.6875ZM679.09686 143.375Q679.09686 141.85938 678.28436 140.96875Q677.4875 140.07812 676.34686 140.07812Q675.175 140.07812 674.3 141.04688Q673.4406 142.0 673.4406 143.51562Q673.4406 144.89062 674.2531 145.75Q675.08124 146.59375 676.3 146.59375Q677.51874 146.59375 678.3 145.75Q679.09686 144.89062 679.09686 143.375ZM682.4406 148.70312L682.4406 146.9375L687.83124 146.9375L687.83124 148.70312L682.4406 148.70312ZM692.33124 145.23438Q691.2375 144.82812 690.70624 144.09375Q690.1906 143.34375 690.1906 142.3125Q690.1906 140.75 691.3156 139.6875Q692.4406 138.625 694.3 138.625Q696.175 138.625 697.3156 139.71875Q698.45624 140.79688 698.45624 142.35938Q698.45624 143.35938 697.925 144.09375Q697.40936 144.82812 696.34686 145.23438Q697.675 145.67188 698.3625 146.625Q699.05 147.57812 699.05 148.90625Q699.05 150.75 697.7375 152.0Q696.4406 153.25 694.33124 153.25Q692.20624 153.25 690.90936 152.0Q689.6125 150.73438 689.6125 148.85938Q689.6125 147.46875 690.3156 146.53125Q691.03436 145.57812 692.33124 145.23438ZM691.9875 142.25Q691.9875 143.26562 692.64374 143.92188Q693.3 144.5625 694.33124 144.5625Q695.34686 144.5625 696.0031 143.92188Q696.65936 143.28125 696.65936 142.35938Q696.65936 141.39062 695.9875 140.73438Q695.3156 140.0625 694.3156 140.0625Q693.3156 140.0625 692.64374 140.71875Q691.9875 141.35938 691.9875 142.25ZM691.425 148.875Q691.425 149.625 691.76874 150.32812Q692.1281 151.03125 692.83124 151.42188Q693.53436 151.79688 694.34686 151.79688Q695.6125 151.79688 696.425 150.98438Q697.2531 150.17188 697.2531 148.92188Q697.2531 147.65625 696.40936 146.82812Q695.5656 146.0 694.28436 146.0Q693.05 146.0 692.2375 146.82812Q691.425 147.64062 691.425 148.875ZM700.89374 149.6875L702.58124 149.53125Q702.8 150.71875 703.39374 151.26562Q704.0031 151.79688 704.95624 151.79688Q705.76874 151.79688 706.3781 151.4375Q706.9875 151.0625 707.3781 150.4375Q707.76874 149.8125 708.03436 148.76562Q708.3 147.70312 708.3 146.60938Q708.3 146.5 708.28436 146.26562Q707.7531 147.09375 706.84686 147.625Q705.9406 148.14062 704.8625 148.14062Q703.09686 148.14062 701.8625 146.85938Q700.6281 145.5625 700.6281 143.45312Q700.6281 141.28125 701.90936 139.95312Q703.20624 138.625 705.1281 138.625Q706.53436 138.625 707.6906 139.375Q708.84686 140.125 709.4406 141.51562Q710.05 142.90625 710.05 145.54688Q710.05 148.29688 709.4406 149.92188Q708.84686 151.54688 707.675 152.40625Q706.5031 153.25 704.925 153.25Q703.2375 153.25 702.175 152.3125Q701.1125 151.375 700.89374 149.6875ZM708.09686 143.375Q708.09686 141.85938 707.28436 140.96875Q706.4875 140.07812 705.34686 140.07812Q704.175 140.07812 703.3 141.04688Q702.4406 142.0 702.4406 143.51562Q702.4406 144.89062 703.2531 145.75Q704.08124 146.59375 705.3 146.59375Q706.51874 146.59375 707.3 145.75Q708.09686 144.89062 708.09686 143.375ZM711.6281 149.25L713.47186 149.09375Q713.675 150.4375 714.425 151.125Q715.175 151.79688 716.2375 151.79688Q717.5031 151.79688 718.3781 150.84375Q719.2531 149.89062 719.2531 148.29688Q719.2531 146.79688 718.40936 145.9375Q717.5656 145.0625 716.20624 145.0625Q715.34686 145.0625 714.65936 145.45312Q713.9875 145.82812 713.59686 146.45312L711.9406 146.23438L713.33124 138.875L720.45624 138.875L720.45624 140.5625L714.7375 140.5625L713.97186 144.40625Q715.2531 143.5 716.675 143.5Q718.55 143.5 719.83124 144.8125Q721.1281 146.10938 721.1281 148.14062Q721.1281 150.09375 719.9875 151.5Q718.6125 153.25 716.2375 153.25Q714.28436 153.25 713.03436 152.15625Q711.8 151.0625 711.6281 149.25ZM722.6281 145.9375Q722.6281 143.40625 723.14374 141.85938Q723.675 140.29688 724.70624 139.46875Q725.7375 138.625 727.3 138.625Q728.45624 138.625 729.3156 139.09375Q730.1906 139.54688 730.7531 140.42188Q731.3156 141.29688 731.64374 142.5625Q731.97186 143.8125 731.97186 145.9375Q731.97186 148.45312 731.4406 150.0Q730.925 151.54688 729.89374 152.40625Q728.8781 153.25 727.3 153.25Q725.22186 153.25 724.05 151.76562Q722.6281 149.96875 722.6281 145.9375ZM724.4406 145.9375Q724.4406 149.46875 725.2531 150.64062Q726.08124 151.79688 727.3 151.79688Q728.5031 151.79688 729.33124 150.625Q730.15936 149.45312 730.15936 145.9375Q730.15936 142.40625 729.33124 141.25Q728.5031 140.07812 727.28436 140.07812Q726.0656 140.07812 725.34686 141.10938Q724.4406 142.40625 724.4406 145.9375ZM734.40936 153.0L734.40936 138.6875L736.3 138.6875L736.3 144.5625L743.7375 144.5625L743.7375 138.6875L745.6281 138.6875L745.6281 153.0L743.7375 153.0L743.7375 146.25L736.3 146.25L736.3 153.0L734.40936 153.0ZM748.26874 153.0L748.26874 138.6875L750.15936 138.6875L750.15936 145.78125L757.26874 138.6875L759.83124 138.6875L753.83124 144.48438L760.09686 153.0L757.59686 153.0L752.5031 145.75L750.15936 148.03125L750.15936 153.0L748.26874 153.0Z" fill-rule="nonzero"/><path fill="#34a853" d="M646.8 175.0C646.8 174.44771 647.24774 174.0 647.8 174.0L657.8 174.0C658.3523 174.0 658.8 174.44771 658.8 175.0L658.8 185.0C658.8 185.55229 658.3523 186.0 657.8 186.0L647.8 186.0C647.24774 186.0 646.8 185.55229 646.8 185.0Z" fill-rule="nonzero"/><path fill="#1a1a1a" d="M668.1281 174.70312L668.1281 172.6875L669.89374 172.6875L669.89374 174.70312L668.1281 174.70312ZM668.1281 187.0L668.1281 176.625L669.89374 176.625L669.89374 187.0L668.1281 187.0ZM671.7531 174.5625L671.7531 172.875L681.01874 172.875L681.01874 174.23438Q679.64374 175.6875 678.3 178.10938Q676.95624 180.51562 676.2375 183.0625Q675.70624 184.85938 675.55 187.0L673.7531 187.0Q673.78436 185.3125 674.40936 182.92188Q675.05 180.53125 676.2375 178.3125Q677.425 176.07812 678.7531 174.5625L671.7531 174.5625ZM682.4406 182.70312L682.4406 180.9375L687.83124 180.9375L687.83124 182.70312L682.4406 182.70312ZM695.26874 187.0L695.26874 183.57812L689.05 183.57812L689.05 181.95312L695.58124 172.6875L697.01874 172.6875L697.01874 181.95312L698.95624 181.95312L698.95624 183.57812L697.01874 183.57812L697.01874 187.0L695.26874 187.0ZM695.26874 181.95312L695.26874 175.5L690.78436 181.95312L695.26874 181.95312ZM700.89374 183.6875L702.58124 183.53125Q702.8 184.71875 703.39374 185.26562Q704.0031 185.79688 704.95624 185.79688Q705.76874 185.79688 706.3781 185.4375Q706.9875 185.0625 707.3781 184.4375Q707.76874 183.8125 708.03436 182.76562Q708.3 181.70312 708.3 180.60938Q708.3 180.5 708.28436 180.26562Q707.7531 181.09375 706.84686 181.625Q705.9406 182.14062 704.8625 182.14062Q703.09686 182.14062 701.8625 180.85938Q700.6281 179.5625 700.6281 177.45312Q700.6281 175.28125 701.90936 173.95312Q703.20624 172.625 705.1281 172.625Q706.53436 172.625 707.6906 173.375Q708.84686 174.125 709.4406 175.51562Q710.05 176.90625 710.05 179.54688Q710.05 182.29688 709.4406 183.92188Q708.84686 185.54688 707.675 186.40625Q706.5031 187.25 704.925 187.25Q703.2375 187.25 702.175 186.3125Q701.1125 185.375 700.89374 183.6875ZM708.09686 177.375Q708.09686 175.85938 707.28436 174.96875Q706.4875 174.07812 705.34686 174.07812Q704.175 174.07812 703.3 175.04688Q702.4406 176.0 702.4406 177.51562Q702.4406 178.89062 703.2531 179.75Q704.08124 180.59375 705.3 180.59375Q706.51874 180.59375 707.3 179.75Q708.09686 178.89062 708.09686 177.375ZM720.7531 176.1875L719.0031 176.32812Q718.76874 175.29688 718.34686 174.82812Q717.6281 174.0625 716.58124 174.0625Q715.7375 174.0625 715.1125 174.53125Q714.28436 175.14062 713.8 176.3125Q713.3156 177.46875 713.3 179.60938Q713.9406 178.65625 714.84686 178.1875Q715.76874 177.71875 716.78436 177.71875Q718.53436 177.71875 719.76874 179.01562Q721.0031 180.29688 721.0031 182.34375Q721.0031 183.70312 720.425 184.85938Q719.84686 186.01562 718.83124 186.64062Q717.8156 187.25 716.51874 187.25Q714.33124 187.25 712.9406 185.64062Q711.55 184.01562 711.55 180.29688Q711.55 176.15625 713.08124 174.26562Q714.425 172.625 716.6906 172.625Q718.3781 172.625 719.45624 173.57812Q720.53436 174.51562 720.7531 176.1875ZM713.58124 182.35938Q713.58124 183.26562 713.95624 184.09375Q714.34686 184.92188 715.03436 185.35938Q715.7375 185.79688 716.4875 185.79688Q717.6125 185.79688 718.40936 184.90625Q719.20624 184.0 719.20624 182.45312Q719.20624 180.96875 718.40936 180.125Q717.6281 179.26562 716.425 179.26562Q715.2375 179.26562 714.40936 180.125Q713.58124 180.96875 713.58124 182.35938ZM722.6281 179.9375Q722.6281 177.40625 723.14374 175.85938Q723.675 174.29688 724.70624 173.46875Q725.7375 172.625 727.3 172.625Q728.45624 172.625 729.3156 173.09375Q730.1906 173.54688 730.7531 174.42188Q731.3156 175.29688 731.64374 176.5625Q731.97186 177.8125 731.97186 179.9375Q731.97186 182.45312 731.4406 184.0Q730.925 185.54688 729.89374 186.40625Q728.8781 187.25 727.3 187.25Q725.22186 187.25 724.05 185.76562Q722.6281 183.96875 722.6281 179.9375ZM724.4406 179.9375Q724.4406 183.46875 725.2531 184.64062Q726.08124 185.79688 727.3 185.79688Q728.5031 185.79688 729.33124 184.625Q730.15936 183.45312 730.15936 179.9375Q730.15936 176.40625 729.33124 175.25Q728.5031 174.07812 727.28436 174.07812Q726.0656 174.07812 725.34686 175.10938Q724.4406 176.40625 724.4406 179.9375ZM734.40936 187.0L734.40936 172.6875L736.3 172.6875L736.3 178.5625L743.7375 178.5625L743.7375 172.6875L745.6281 172.6875L745.6281 187.0L743.7375 187.0L743.7375 180.25L736.3 180.25L736.3 187.0L734.40936 187.0ZM759.1906 185.46875Q760.51874 186.375 761.6281 186.79688L761.0656 188.10938Q759.51874 187.5625 757.9875 186.35938Q756.39374 187.25 754.47186 187.25Q752.53436 187.25 750.9406 186.3125Q749.3625 185.375 748.5031 183.67188Q747.65936 181.96875 747.65936 179.84375Q747.65936 177.71875 748.51874 175.98438Q749.3781 174.25 750.95624 173.34375Q752.55 172.42188 754.51874 172.42188Q756.5031 172.42188 758.08124 173.375Q759.675 174.3125 760.5031 176.01562Q761.34686 177.70312 761.34686 179.82812Q761.34686 181.59375 760.8156 183.01562Q760.28436 184.42188 759.1906 185.46875ZM755.01874 183.04688Q756.65936 183.5 757.72186 184.40625Q759.39374 182.89062 759.39374 179.82812Q759.39374 178.09375 758.8 176.79688Q758.22186 175.5 757.08124 174.78125Q755.9406 174.0625 754.51874 174.0625Q752.40936 174.0625 751.0031 175.51562Q749.6125 176.95312 749.6125 179.84375Q749.6125 182.64062 750.9875 184.14062Q752.3781 185.625 754.51874 185.625Q755.53436 185.625 756.4406 185.23438Q755.55 184.67188 754.5656 184.42188L755.01874 183.04688Z" fill-rule="nonzero"/><path fill="#ff6d01" d="M646.8 209.0C646.8 208.44771 647.24774 208.0 647.8 208.0L657.8 208.0C658.3523 208.0 658.8 208.44771 658.8 209.0L658.8 219.0C658.8 219.55229 658.3523 220.0 657.8 220.0L647.8 220.0C647.24774 220.0 646.8 219.55229 646.8 219.0Z" fill-rule="nonzero"/><path fill="#1a1a1a" d="M668.1281 208.70312L668.1281 206.6875L669.89374 206.6875L669.89374 208.70312L668.1281 208.70312ZM668.1281 221.0L668.1281 210.625L669.89374 210.625L669.89374 221.0L668.1281 221.0ZM671.6281 217.25L673.47186 217.09375Q673.675 218.4375 674.425 219.125Q675.175 219.79688 676.2375 219.79688Q677.5031 219.79688 678.3781 218.84375Q679.2531 217.89062 679.2531 216.29688Q679.2531 214.79688 678.40936 213.9375Q677.5656 213.0625 676.20624 213.0625Q675.34686 213.0625 674.65936 213.45312Q673.9875 213.82812 673.59686 214.45312L671.9406 214.23438L673.33124 206.875L680.45624 206.875L680.45624 208.5625L674.7375 208.5625L673.97186 212.40625Q675.2531 211.5 676.675 211.5Q678.55 211.5 679.83124 212.8125Q681.1281 214.10938 681.1281 216.14062Q681.1281 218.09375 679.9875 219.5Q678.6125 221.25 676.2375 221.25Q674.28436 221.25 673.03436 220.15625Q671.8 219.0625 671.6281 217.25ZM682.4406 216.70312L682.4406 214.9375L687.83124 214.9375L687.83124 216.70312L682.4406 216.70312ZM689.7531 208.5625L689.7531 206.875L699.01874 206.875L699.01874 208.23438Q697.64374 209.6875 696.3 212.10938Q694.95624 214.51562 694.2375 217.0625Q693.70624 218.85938 693.55 221.0L691.7531 221.0Q691.78436 219.3125 692.40936 216.92188Q693.05 214.53125 694.2375 212.3125Q695.425 210.07812 696.7531 208.5625L689.7531 208.5625ZM700.6281 217.25L702.47186 217.09375Q702.675 218.4375 703.425 219.125Q704.175 219.79688 705.2375 219.79688Q706.5031 219.79688 707.3781 218.84375Q708.2531 217.89062 708.2531 216.29688Q708.2531 214.79688 707.40936 213.9375Q706.5656 213.0625 705.20624 213.0625Q704.34686 213.0625 703.65936 213.45312Q702.9875 213.82812 702.59686 214.45312L700.9406 214.23438L702.33124 206.875L709.45624 206.875L709.45624 208.5625L703.7375 208.5625L702.97186 212.40625Q704.2531 211.5 705.675 211.5Q707.55 211.5 708.83124 212.8125Q710.1281 214.10938 710.1281 216.14062Q710.1281 218.09375 708.9875 219.5Q707.6125 221.25 705.2375 221.25Q703.28436 221.25 702.03436 220.15625Q700.8 219.0625 700.6281 217.25ZM711.6281 213.9375Q711.6281 211.40625 712.14374 209.85938Q712.675 208.29688 713.70624 207.46875Q714.7375 206.625 716.3 206.625Q717.45624 206.625 718.3156 207.09375Q719.1906 207.54688 719.7531 208.42188Q720.3156 209.29688 720.64374 210.5625Q720.97186 211.8125 720.97186 213.9375Q720.97186 216.45312 720.4406 218.0Q719.925 219.54688 718.89374 220.40625Q717.8781 221.25 716.3 221.25Q714.22186 221.25 713.05 219.76562Q711.6281 217.96875 711.6281 213.9375ZM713.4406 213.9375Q713.4406 217.46875 714.2531 218.64062Q715.08124 219.79688 716.3 219.79688Q717.5031 219.79688 718.33124 218.625Q719.15936 217.45312 719.15936 213.9375Q719.15936 210.40625 718.33124 209.25Q717.5031 208.07812 716.28436 208.07812Q715.0656 208.07812 714.34686 209.10938Q713.4406 210.40625 713.4406 213.9375ZM722.6281 213.9375Q722.6281 211.40625 723.14374 209.85938Q723.675 208.29688 724.70624 207.46875Q725.7375 206.625 727.3 206.625Q728.45624 206.625 729.3156 207.09375Q730.1906 207.54688 730.7531 208.42188Q731.3156 209.29688 731.64374 210.5625Q731.97186 211.8125 731.97186 213.9375Q731.97186 216.45312 731.4406 218.0Q730.925 219.54688 729.89374 220.40625Q728.8781 221.25 727.3 221.25Q725.22186 221.25 724.05 219.76562Q722.6281 217.96875 722.6281 213.9375ZM724.4406 213.9375Q724.4406 217.46875 725.2531 218.64062Q726.08124 219.79688 727.3 219.79688Q728.5031 219.79688 729.33124 218.625Q730.15936 217.45312 730.15936 213.9375Q730.15936 210.40625 729.33124 209.25Q728.5031 208.07812 727.28436 208.07812Q726.0656 208.07812 725.34686 209.10938Q724.4406 210.40625 724.4406 213.9375Z" fill-rule="nonzero"/><path fill="#46bdc6" d="M646.8 243.0C646.8 242.44771 647.24774 242.0 647.8 242.0L657.8 242.0C658.3523 242.0 658.8 242.44771 658.8 243.0L658.8 253.0C658.8 253.55229 658.3523 254.0 657.8 254.0L647.8 254.0C647.24774 254.0 646.8 253.55229 646.8 253.0Z" fill-rule="nonzero"/><path fill="#1a1a1a" d="M667.64374 251.21875L669.39374 250.98438Q669.70624 252.48438 670.425 253.14062Q671.15936 253.79688 672.20624 253.79688Q673.4406 253.79688 674.28436 252.9375Q675.14374 252.07812 675.14374 250.8125Q675.14374 249.59375 674.34686 248.8125Q673.5656 248.03125 672.34686 248.03125Q671.84686 248.03125 671.1125 248.21875L671.3 246.67188Q671.47186 246.70312 671.58124 246.70312Q672.70624 246.70312 673.59686 246.125Q674.5031 245.53125 674.5031 244.3125Q674.5031 243.34375 673.84686 242.70312Q673.1906 242.0625 672.15936 242.0625Q671.14374 242.0625 670.45624 242.71875Q669.76874 243.35938 669.58124 244.64062L667.8156 244.32812Q668.14374 242.5625 669.28436 241.59375Q670.425 240.625 672.1281 240.625Q673.3 240.625 674.28436 241.125Q675.26874 241.625 675.78436 242.5Q676.3156 243.375 676.3156 244.34375Q676.3156 245.26562 675.8156 246.03125Q675.3156 246.79688 674.34686 247.25Q675.6125 247.53125 676.3156 248.46875Q677.01874 249.39062 677.01874 250.76562Q677.01874 252.64062 675.64374 253.95312Q674.28436 255.25 672.1906 255.25Q670.3 255.25 669.05 254.125Q667.8156 253.0 667.64374 251.21875ZM687.7531 244.1875L686.0031 244.32812Q685.76874 243.29688 685.34686 242.82812Q684.6281 242.0625 683.58124 242.0625Q682.7375 242.0625 682.1125 242.53125Q681.28436 243.14062 680.8 244.3125Q680.3156 245.46875 680.3 247.60938Q680.9406 246.65625 681.84686 246.1875Q682.76874 245.71875 683.78436 245.71875Q685.53436 245.71875 686.76874 247.01562Q688.0031 248.29688 688.0031 250.34375Q688.0031 251.70312 687.425 252.85938Q686.84686 254.01562 685.83124 254.64062Q684.8156 255.25 683.51874 255.25Q681.33124 255.25 679.9406 253.64062Q678.55 252.01562 678.55 248.29688Q678.55 244.15625 680.08124 242.26562Q681.425 240.625 683.6906 240.625Q685.3781 240.625 686.45624 241.57812Q687.53436 242.51562 687.7531 244.1875ZM680.58124 250.35938Q680.58124 251.26562 680.95624 252.09375Q681.34686 252.92188 682.03436 253.35938Q682.7375 253.79688 683.4875 253.79688Q684.6125 253.79688 685.40936 252.90625Q686.20624 252.0 686.20624 250.45312Q686.20624 248.96875 685.40936 248.125Q684.6281 247.26562 683.425 247.26562Q682.2375 247.26562 681.40936 248.125Q680.58124 248.96875 680.58124 250.35938ZM689.6281 247.9375Q689.6281 245.40625 690.14374 243.85938Q690.675 242.29688 691.70624 241.46875Q692.7375 240.625 694.3 240.625Q695.45624 240.625 696.3156 241.09375Q697.1906 241.54688 697.7531 242.42188Q698.3156 243.29688 698.64374 244.5625Q698.97186 245.8125 698.97186 247.9375Q698.97186 250.45312 698.4406 252.0Q697.925 253.54688 696.89374 254.40625Q695.8781 255.25 694.3 255.25Q692.22186 255.25 691.05 253.76562Q689.6281 251.96875 689.6281 247.9375ZM691.4406 247.9375Q691.4406 251.46875 692.2531 252.64062Q693.08124 253.79688 694.3 253.79688Q695.5031 253.79688 696.33124 252.625Q697.15936 251.45312 697.15936 247.9375Q697.15936 244.40625 696.33124 243.25Q695.5031 242.07812 694.28436 242.07812Q693.0656 242.07812 692.34686 243.10938Q691.4406 244.40625 691.4406 247.9375ZM700.6281 247.9375Q700.6281 245.40625 701.14374 243.85938Q701.675 242.29688 702.70624 241.46875Q703.7375 240.625 705.3 240.625Q706.45624 240.625 707.3156 241.09375Q708.1906 241.54688 708.7531 242.42188Q709.3156 243.29688 709.64374 244.5625Q709.97186 245.8125 709.97186 247.9375Q709.97186 250.45312 709.4406 252.0Q708.925 253.54688 707.89374 254.40625Q706.8781 255.25 705.3 255.25Q703.22186 255.25 702.05 253.76562Q700.6281 251.96875 700.6281 247.9375ZM702.4406 247.9375Q702.4406 251.46875 703.2531 252.64062Q704.08124 253.79688 705.3 253.79688Q706.5031 253.79688 707.33124 252.625Q708.15936 251.45312 708.15936 247.9375Q708.15936 244.40625 707.33124 243.25Q706.5031 242.07812 705.28436 242.07812Q704.0656 242.07812 703.34686 243.10938Q702.4406 244.40625 702.4406 247.9375Z" fill-rule="nonzero"/><path fill="#757575" d="M26.746876 44.2L26.746876 29.8875L32.1375 29.8875Q33.575 29.8875 34.325 30.0125Q35.371876 30.2 36.090626 30.7Q36.809376 31.184376 37.23125 32.075Q37.66875 32.965626 37.66875 34.028126Q37.66875 35.85625 36.496876 37.121876Q35.340626 38.371876 32.309376 38.371876L28.6375 38.371876L28.6375 44.2L26.746876 44.2ZM28.6375 36.684376L32.340626 36.684376Q34.16875 36.684376 34.934376 36.0125Q35.715626 35.325 35.715626 34.075Q35.715626 33.184376 35.2625 32.54375Q34.809376 31.903126 34.075 31.7Q33.590626 31.575 32.29375 31.575L28.6375 31.575L28.6375 36.684376ZM39.48125 44.2L39.48125 29.8875L41.23125 29.8875L41.23125 44.2L39.48125 44.2ZM50.29375 42.91875Q49.309376 43.746876 48.403126 44.090626Q47.496876 44.434376 46.465626 44.434376Q44.7625 44.434376 43.840626 43.60625Q42.91875 42.7625 42.91875 41.465626Q42.91875 40.7 43.2625 40.075Q43.621876 39.45 44.184376 39.075Q44.746876 38.684376 45.45 38.48125Q45.965626 38.35625 47.0125 38.215626Q49.1375 37.965626 50.1375 37.621876Q50.153126 37.2625 50.153126 37.153126Q50.153126 36.090626 49.653126 35.6375Q48.98125 35.04375 47.653126 35.04375Q46.403126 35.04375 45.809376 35.48125Q45.23125 35.91875 44.95 37.028126L43.23125 36.79375Q43.465626 35.684376 43.996876 35.0125Q44.528126 34.325 45.54375 33.965626Q46.559376 33.590626 47.903126 33.590626Q49.23125 33.590626 50.059376 33.903126Q50.8875 34.215626 51.278126 34.7Q51.66875 35.16875 51.825 35.8875Q51.91875 36.340626 51.91875 37.5125L51.91875 39.85625Q51.91875 42.309376 52.028126 42.965626Q52.1375 43.60625 52.48125 44.2L50.6375 44.2Q50.371876 43.653126 50.29375 42.91875ZM50.1375 38.996876Q49.184376 39.3875 47.2625 39.653126Q46.184376 39.809376 45.73125 40.0125Q45.29375 40.2 45.04375 40.575Q44.79375 40.95 44.79375 41.41875Q44.79375 42.121876 45.325 42.590626Q45.85625 43.059376 46.8875 43.059376Q47.903126 43.059376 48.684376 42.621876Q49.48125 42.16875 49.85625 41.403126Q50.1375 40.79375 50.1375 39.6375L50.1375 38.996876ZM54.528126 31.903126L54.528126 29.8875L56.29375 29.8875L56.29375 31.903126L54.528126 31.903126ZM54.528126 44.2L54.528126 33.825L56.29375 33.825L56.29375 44.2L54.528126 44.2ZM65.24687 44.2L65.24687 42.8875Q64.2625 44.434376 62.340626 44.434376Q61.10625 44.434376 60.059376 43.746876Q59.028126 43.059376 58.45 41.840626Q57.8875 40.621876 57.8875 39.028126Q57.8875 37.465626 58.403126 36.2Q58.91875 34.934376 59.95 34.2625Q60.996876 33.590626 62.2625 33.590626Q63.2 33.590626 63.934376 33.996876Q64.66875 34.3875 65.1375 35.0125L65.1375 29.8875L66.87187 29.8875L66.87187 44.2L65.24687 44.2ZM59.684376 39.028126Q59.684376 41.0125 60.528126 41.996876Q61.371876 42.98125 62.5125 42.98125Q63.66875 42.98125 64.46562 42.04375Q65.27812 41.10625 65.27812 39.16875Q65.27812 37.04375 64.45 36.04375Q63.6375 35.04375 62.434376 35.04375Q61.2625 35.04375 60.465626 36.0125Q59.684376 36.965626 59.684376 39.028126ZM75.93437 44.2L75.93437 35.2L74.3875 35.2L74.3875 33.825L75.93437 33.825L75.93437 32.73125Q75.93437 31.684376 76.12187 31.16875Q76.37187 30.48125 77.0125 30.059376Q77.65312 29.6375 78.80937 29.6375Q79.55937 29.6375 80.45 29.809376L80.18437 31.340626Q79.6375 31.246876 79.15312 31.246876Q78.35625 31.246876 78.0125 31.590626Q77.68437 31.934376 77.68437 32.871876L77.68437 33.825L79.71562 33.825L79.71562 35.2L77.68437 35.2L77.68437 44.2L75.93437 44.2ZM88.30937 44.2L88.30937 42.66875Q87.10625 44.434376 85.02812 44.434376Q84.10625 44.434376 83.30937 44.090626Q82.5125 43.73125 82.12187 43.2Q81.74687 42.66875 81.59062 41.8875Q81.48125 41.371876 81.48125 40.246876L81.48125 33.825L83.23125 33.825L83.23125 39.575Q83.23125 40.95 83.34062 41.434376Q83.5125 42.121876 84.04375 42.528126Q84.59062 42.91875 85.37187 42.91875Q86.16875 42.91875 86.85625 42.5125Q87.55937 42.10625 87.84062 41.41875Q88.1375 40.715626 88.1375 39.3875L88.1375 33.825L89.8875 33.825L89.8875 44.2L88.30937 44.2ZM92.48125 44.2L92.48125 29.8875L94.23125 29.8875L94.23125 44.2L92.48125 44.2ZM96.48125 44.2L96.48125 29.8875L98.23125 29.8875L98.23125 44.2L96.48125 44.2ZM108.1375 44.2L106.5125 44.2L106.5125 29.8875L108.2625 29.8875L108.2625 34.996876Q109.3875 33.590626 111.10625 33.590626Q112.05937 33.590626 112.91875 33.98125Q113.77812 34.371876 114.325 35.075Q114.87187 35.7625 115.18437 36.746876Q115.49687 37.73125 115.49687 38.85625Q115.49687 41.528126 114.18437 42.98125Q112.87187 44.434376 111.02812 44.434376Q109.18437 44.434376 108.1375 42.903126L108.1375 44.2ZM108.12187 38.934376Q108.12187 40.79375 108.62187 41.6375Q109.46562 42.98125 110.87187 42.98125Q112.02812 42.98125 112.85625 41.98125Q113.7 40.98125 113.7 38.996876Q113.7 36.965626 112.8875 36.0125Q112.09062 35.04375 110.95 35.04375Q109.79375 35.04375 108.95 36.04375Q108.12187 37.04375 108.12187 38.934376ZM124.30937 44.2L124.30937 42.66875Q123.10625 44.434376 121.02812 44.434376Q120.10625 44.434376 119.30937 44.090626Q118.5125 43.73125 118.12187 43.2Q117.74687 42.66875 117.59062 41.8875Q117.48125 41.371876 117.48125 40.246876L117.48125 33.825L119.23125 33.825L119.23125 39.575Q119.23125 40.95 119.34062 41.434376Q119.5125 42.121876 120.04375 42.528126Q120.59062 42.91875 121.37187 42.91875Q122.16875 42.91875 122.85625 42.5125Q123.55937 42.10625 123.84062 41.41875Q124.1375 40.715626 124.1375 39.3875L124.1375 33.825L125.8875 33.825L125.8875 44.2L124.30937 44.2ZM128.52812 31.903126L128.52812 29.8875L130.29375 29.8875L130.29375 31.903126L128.52812 31.903126ZM128.52812 44.2L128.52812 33.825L130.29375 33.825L130.29375 44.2L128.52812 44.2ZM132.48125 44.2L132.48125 29.8875L134.23125 29.8875L134.23125 44.2L132.48125 44.2ZM143.24687 44.2L143.24687 42.8875Q142.2625 44.434376 140.34062 44.434376Q139.10625 44.434376 138.05937 43.746876Q137.02812 43.059376 136.45 41.840626Q135.8875 40.621876 135.8875 39.028126Q135.8875 37.465626 136.40312 36.2Q136.91875 34.934376 137.95 34.2625Q138.99687 33.590626 140.2625 33.590626Q141.2 33.590626 141.93437 33.996876Q142.66875 34.3875 143.1375 35.0125L143.1375 29.8875L144.87187 29.8875L144.87187 44.2L143.24687 44.2ZM137.68437 39.028126Q137.68437 41.0125 138.52812 41.996876Q139.37187 42.98125 140.5125 42.98125Q141.66875 42.98125 142.46562 42.04375Q143.27812 41.10625 143.27812 39.16875Q143.27812 37.04375 142.45 36.04375Q141.6375 35.04375 140.43437 35.04375Q139.2625 35.04375 138.46562 36.0125Q137.68437 36.965626 137.68437 39.028126ZM153.52812 31.903126L153.52812 29.8875L155.29375 29.8875L155.29375 31.903126L153.52812 31.903126ZM153.52812 44.2L153.52812 33.825L155.29375 33.825L155.29375 44.2L153.52812 44.2ZM157.5125 44.2L157.5125 33.825L159.10625 33.825L159.10625 35.309376Q160.24687 33.590626 162.40312 33.590626Q163.34062 33.590626 164.12187 33.934376Q164.91875 34.2625 165.30937 34.809376Q165.7 35.35625 165.85625 36.10625Q165.95 36.60625 165.95 37.825L165.95 44.2L164.18437 44.2L164.18437 37.8875Q164.18437 36.809376 163.98125 36.278126Q163.77812 35.746876 163.24687 35.434376Q162.73125 35.121876 162.02812 35.121876Q160.90312 35.121876 160.09062 35.840626Q159.27812 36.54375 159.27812 38.528126L159.27812 44.2L157.5125 44.2ZM173.80937 41.10625L175.55937 40.825Q175.7 41.871876 176.37187 42.434376Q177.04375 42.98125 178.24687 42.98125Q179.45 42.98125 180.02812 42.496876Q180.62187 41.996876 180.62187 41.340626Q180.62187 40.746876 180.10625 40.403126Q179.74687 40.16875 178.30937 39.809376Q176.37187 39.309376 175.62187 38.965626Q174.8875 38.60625 174.49687 37.98125Q174.10625 37.340626 174.10625 36.575Q174.10625 35.8875 174.41875 35.29375Q174.74687 34.7 175.29375 34.309376Q175.7 34.0125 176.40312 33.809376Q177.12187 33.590626 177.93437 33.590626Q179.15312 33.590626 180.075 33.95Q180.99687 34.29375 181.43437 34.903126Q181.87187 35.496876 182.04375 36.496876L180.325 36.73125Q180.2 35.934376 179.6375 35.496876Q179.075 35.04375 178.05937 35.04375Q176.84062 35.04375 176.325 35.45Q175.80937 35.840626 175.80937 36.371876Q175.80937 36.715626 176.02812 36.996876Q176.23125 37.278126 176.7 37.465626Q176.96562 37.559376 178.24687 37.903126Q180.12187 38.403126 180.85625 38.73125Q181.59062 39.04375 182.0125 39.653126Q182.43437 40.246876 182.43437 41.153126Q182.43437 42.028126 181.91875 42.809376Q181.40312 43.590626 180.43437 44.0125Q179.46562 44.434376 178.24687 44.434376Q176.23125 44.434376 175.16875 43.590626Q174.10625 42.746876 173.80937 41.10625ZM191.62187 40.85625L193.43437 41.090626Q193.0125 42.66875 191.84062 43.559376Q190.68437 44.434376 188.87187 44.434376Q186.60625 44.434376 185.2625 43.04375Q183.93437 41.6375 183.93437 39.10625Q183.93437 36.48125 185.27812 35.04375Q186.62187 33.590626 188.77812 33.590626Q190.85625 33.590626 192.16875 35.0125Q193.49687 36.41875 193.49687 38.996876Q193.49687 39.153126 193.48125 39.465626L185.74687 39.465626Q185.84062 41.16875 186.71562 42.075Q187.59062 42.98125 188.8875 42.98125Q189.85625 42.98125 190.52812 42.48125Q191.21562 41.965626 191.62187 40.85625ZM185.84062 38.0125L191.6375 38.0125Q191.52812 36.715626 190.98125 36.059376Q190.1375 35.04375 188.79375 35.04375Q187.59062 35.04375 186.7625 35.85625Q185.93437 36.653126 185.84062 38.0125ZM202.29375 40.403126L204.0125 40.621876Q203.73125 42.41875 202.55937 43.434376Q201.40312 44.434376 199.7 44.434376Q197.575 44.434376 196.27812 43.04375Q194.98125 41.653126 194.98125 39.059376Q194.98125 37.371876 195.52812 36.121876Q196.09062 34.85625 197.23125 34.23125Q198.37187 33.590626 199.71562 33.590626Q201.40312 33.590626 202.46562 34.45Q203.54375 35.309376 203.85625 36.871876L202.1375 37.1375Q201.90312 36.090626 201.27812 35.575Q200.65312 35.04375 199.77812 35.04375Q198.45 35.04375 197.62187 35.996876Q196.79375 36.95 196.79375 38.996876Q196.79375 41.090626 197.59062 42.04375Q198.3875 42.98125 199.68437 42.98125Q200.71562 42.98125 201.40312 42.35625Q202.10625 41.715626 202.29375 40.403126ZM204.87187 39.0125Q204.87187 36.1375 206.46562 34.746876Q207.80937 33.590626 209.73125 33.590626Q211.87187 33.590626 213.21562 34.996876Q214.575 36.403126 214.575 38.871876Q214.575 40.871876 213.98125 42.028126Q213.3875 43.16875 212.23125 43.809376Q211.09062 44.434376 209.73125 44.434376Q207.54375 44.434376 206.2 43.04375Q204.87187 41.6375 204.87187 39.0125ZM206.66875 39.0125Q206.66875 41.0125 207.52812 41.996876Q208.40312 42.98125 209.73125 42.98125Q211.04375 42.98125 211.90312 41.996876Q212.77812 40.996876 212.77812 38.95Q212.77812 37.028126 211.90312 36.04375Q211.02812 35.04375 209.73125 35.04375Q208.40312 35.04375 207.52812 36.04375Q206.66875 37.028126 206.66875 39.0125ZM216.5125 44.2L216.5125 33.825L218.10625 33.825L218.10625 35.309376Q219.24687 33.590626 221.40312 33.590626Q222.34062 33.590626 223.12187 33.934376Q223.91875 34.2625 224.30937 34.809376Q224.7 35.35625 224.85625 36.10625Q224.95 36.60625 224.95 37.825L224.95 44.2L223.18437 44.2L223.18437 37.8875Q223.18437 36.809376 222.98125 36.278126Q222.77812 35.746876 222.24687 35.434376Q221.73125 35.121876 221.02812 35.121876Q219.90312 35.121876 219.09062 35.840626Q218.27812 36.54375 218.27812 38.528126L218.27812 44.2L216.5125 44.2ZM234.24687 44.2L234.24687 42.8875Q233.2625 44.434376 231.34062 44.434376Q230.10625 44.434376 229.05937 43.746876Q228.02812 43.059376 227.45 41.840626Q226.8875 40.621876 226.8875 39.028126Q226.8875 37.465626 227.40312 36.2Q227.91875 34.934376 228.95 34.2625Q229.99687 33.590626 231.2625 33.590626Q232.2 33.590626 232.93437 33.996876Q233.66875 34.3875 234.1375 35.0125L234.1375 29.8875L235.87187 29.8875L235.87187 44.2L234.24687 44.2ZM228.68437 39.028126Q228.68437 41.0125 229.52812 41.996876Q230.37187 42.98125 231.5125 42.98125Q232.66875 42.98125 233.46562 42.04375Q234.27812 41.10625 234.27812 39.16875Q234.27812 37.04375 233.45 36.04375Q232.6375 35.04375 231.43437 35.04375Q230.2625 35.04375 229.46562 36.0125Q228.68437 36.965626 228.68437 39.028126ZM237.80937 41.10625L239.55937 40.825Q239.7 41.871876 240.37187 42.434376Q241.04375 42.98125 242.24687 42.98125Q243.45 42.98125 244.02812 42.496876Q244.62187 41.996876 244.62187 41.340626Q244.62187 40.746876 244.10625 40.403126Q243.74687 40.16875 242.30937 39.809376Q240.37187 39.309376 239.62187 38.965626Q238.8875 38.60625 238.49687 37.98125Q238.10625 37.340626 238.10625 36.575Q238.10625 35.8875 238.41875 35.29375Q238.74687 34.7 239.29375 34.309376Q239.7 34.0125 240.40312 33.809376Q241.12187 33.590626 241.93437 33.590626Q243.15312 33.590626 244.075 33.95Q244.99687 34.29375 245.43437 34.903126Q245.87187 35.496876 246.04375 36.496876L244.325 36.73125Q244.2 35.934376 243.6375 35.496876Q243.075 35.04375 242.05937 35.04375Q240.84062 35.04375 240.325 35.45Q239.80937 35.840626 239.80937 36.371876Q239.80937 36.715626 240.02812 36.996876Q240.23125 37.278126 240.7 37.465626Q240.96562 37.559376 242.24687 37.903126Q244.12187 38.403126 244.85625 38.73125Q245.59062 39.04375 246.0125 39.653126Q246.43437 40.246876 246.43437 41.153126Q246.43437 42.028126 245.91875 42.809376Q245.40312 43.590626 244.43437 44.0125Q243.46562 44.434376 242.24687 44.434376Q240.23125 44.434376 239.16875 43.590626Q238.10625 42.746876 237.80937 41.10625Z" fill-rule="nonzero"/></svg>