<svg version="1.1" viewBox="0.0 0.0 788.0 504.0" fill="none" stroke="none" stroke-linecap="square" stroke-miterlimit="10" width="788" height="504" xmlns:xlink="http://www.w3.org/1999/xlink" xmlns="http://www.w3.org/2000/svg"><path fill="#ffffff" d="M0 0L788.0 0L788.0 504.0L0 504.0L0 0Z" fill-rule="nonzero"/><path stroke="#333333" stroke-width="1.0" stroke-linecap="butt" d="M52.5 471.5L619.5 471.5" fill-rule="nonzero"/><path stroke="#cccccc" stroke-width="1.0" stroke-linecap="butt" d="M52.5 372.5L619.5 372.5" fill-rule="nonzero"/><path stroke="#cccccc" stroke-width="1.0" stroke-linecap="butt" d="M52.5 272.5L619.5 272.5" fill-rule="nonzero"/><path stroke="#cccccc" stroke-width="1.0" stroke-linecap="butt" d="M52.5 172.5L619.5 172.5" fill-rule="nonzero"/><path stroke="#cccccc" stroke-width="1.0" stroke-linecap="butt" d="M52.5 73.5L619.5 73.5" fill-rule="nonzero"/><clipPath id="id_0"><path d="M52.2 73.0L619.28 73.0L619.28 471.8L52.2 471.8L52.2 73.0Z" clip-rule="nonzero"/></clipPath><path stroke="#000000" stroke-width="0.0" stroke-linecap="butt" stroke-opacity="0.0" clip-path="url(#id_0)" d="M243.0 472.0L198.0 472.0L198.0 370.0C198.0 368.89542 198.89543 368.0 200.0 368.0L241.0 368.0C242.10457 368.0 243.0 368.89542 243.0 370.0Z" fill-rule="nonzero"/><path fill="#4285f4" clip-path="url(#id_0)" d="M243.0 472.0L198.0 472.0L198.0 370.0C198.0 368.89542 198.89543 368.0 200.0 368.0L241.0 368.0C242.10457 368.0 243.0 368.89542 243.0 370.0Z" fill-rule="nonzero"/><path stroke="#000000" stroke-width="0.0" stroke-linecap="butt" stroke-opacity="0.0" clip-path="url(#id_0)" d="M289.0 472.0L244.0 472.0L244.0 372.0C244.0 370.89542 244.89543 370.0 246.0 370.0L287.0 370.0C288.10458 370.0 289.0 370.89542 289.0 372.0Z" fill-rule="nonzero"/><path fill="#ea4335" clip-path="url(#id_0)" d="M289.0 472.0L244.0 472.0L244.0 372.0C244.0 370.89542 244.89543 370.0 246.0 370.0L287.0 370.0C288.10458 370.0 289.0 370.89542 289.0 372.0Z" fill-rule="nonzero"/><path stroke="#000000" stroke-width="0.0" stroke-linecap="butt" stroke-opacity="0.0" clip-path="url(#id_0)" d="M335.0 472.0L290.0 472.0L290.0 322.0C290.0 320.89542 290.89542 320.0 292.0 320.0L333.0 320.0C334.10458 320.0 335.0 320.89542 335.0 322.0Z" fill-rule="nonzero"/><path fill="#fbbc04" clip-path="url(#id_0)" d="M335.0 472.0L290.0 472.0L290.0 322.0C290.0 320.89542 290.89542 320.0 292.0 320.0L333.0 320.0C334.10458 320.0 335.0 320.89542 335.0 322.0Z" fill-rule="nonzero"/><path stroke="#000000" stroke-width="0.0" stroke-linecap="butt" stroke-opacity="0.0" clip-path="url(#id_0)" d="M381.0 472.0L336.0 472.0L336.0 290.0C336.0 288.89542 336.89542 288.0 338.0 288.0L379.0 288.0C380.10458 288.0 381.0 288.89542 381.0 290.0Z" fill-rule="nonzero"/><path fill="#34a853" clip-path="url(#id_0)" d="M381.0 472.0L336.0 472.0L336.0 290.0C336.0 288.89542 336.89542 288.0 338.0 288.0L379.0 288.0C380.10458 288.0 381.0 288.89542 381.0 290.0Z" fill-rule="nonzero"/><path stroke="#000000" stroke-width="0.0" stroke-linecap="butt" stroke-opacity="0.0" clip-path="url(#id_0)" d="M427.0 472.0L382.0 472.0L382.0 87.0C382.0 85.89543 382.89542 85.0 384.0 85.0L425.0 85.0C426.10458 85.0 427.0 85.89543 427.0 87.0Z" fill-rule="nonzero"/><path fill="#ff6d01" clip-path="url(#id_0)" d="M427.0 472.0L382.0 472.0L382.0 87.0C382.0 85.89543 382.89542 85.0 384.0 85.0L425.0 85.0C426.10458 85.0 427.0 85.89543 427.0 87.0Z" fill-rule="nonzero"/><path stroke="#000000" stroke-width="0.0" stroke-linecap="butt" stroke-opacity="0.0" clip-path="url(#id_0)" d="M473.0 472.0L428.0 472.0L428.0 337.0C428.0 335.89542 428.89542 335.0 430.0 335.0L471.0 335.0C472.10458 335.0 473.0 335.89542 473.0 337.0Z" fill-rule="nonzero"/><path fill="#46bdc6" clip-path="url(#id_0)" d="M473.0 472.0L428.0 472.0L428.0 337.0C428.0 335.89542 428.89542 335.0 430.0 335.0L471.0 335.0C472.10458 335.0 473.0 335.89542 473.0 337.0Z" fill-rule="nonzero"/><path stroke="#4285f4" stroke-width="3.0" stroke-linejoin="round" stroke-linecap="round" d="M206.70312 380.27182L207.14062 376.02182L211.51562 376.02182L211.51562 377.02182L208.0625 377.02182L207.79688 379.34995Q208.4375 378.97495 209.23438 378.97495Q210.39062 378.97495 211.07812 379.7562Q211.76562 380.52182 211.76562 381.83432Q211.76562 383.14682 211.04688 383.91245Q210.34375 384.67807 209.0625 384.67807Q207.9375 384.67807 207.21875 384.05307Q206.5 383.41245 206.40625 382.30307L207.42188 382.30307Q207.53125 383.03745 207.95312 383.41245Q208.375 383.78745 209.0625 383.78745Q209.8125 383.78745 210.25 383.27182Q210.6875 382.7562 210.6875 381.84995Q210.6875 380.99057 210.21875 380.47495Q209.75 379.95932 208.96875 379.95932Q208.26562 379.95932 207.85938 380.2562L207.57812 380.49057L206.70312 380.27182ZM213.34375 383.99057Q213.34375 383.70932 213.5 383.52182Q213.67188 383.33432 214.0 383.33432Q214.34375 383.33432 214.51562 383.52182Q214.6875 383.70932 214.6875 383.99057Q214.6875 384.2562 214.51562 384.4437Q214.34375 384.61557 214.0 384.61557Q213.67188 384.61557 213.5 384.4437Q213.34375 384.2562 213.34375 383.99057ZM221.79688 384.55307L216.20312 384.55307L216.20312 383.77182L219.15625 380.49057Q219.8125 379.74057 220.0625 379.28745Q220.3125 378.8187 220.3125 378.3187Q220.3125 377.64682 219.90625 377.22495Q219.51562 376.78745 218.82812 376.78745Q218.03125 376.78745 217.57812 377.2562Q217.125 377.70932 217.125 378.53745L216.04688 378.53745Q216.04688 377.34995 216.79688 376.6312Q217.5625 375.89682 218.82812 375.89682Q220.03125 375.89682 220.71875 376.52182Q221.40625 377.14682 221.40625 378.1937Q221.40625 379.4437 219.79688 381.1937L217.51562 383.66245L221.79688 383.66245L221.79688 384.55307ZM226.76562 384.55307L225.6875 384.55307L225.6875 377.33432L223.5 378.1312L223.5 377.14682L226.60938 375.97495L226.76562 375.97495L226.76562 384.55307ZM235.39062 378.24057Q235.39062 378.8812 235.04688 379.3812Q234.70312 379.8812 234.14062 380.16245Q234.79688 380.4437 235.1875 381.0062Q235.57812 381.55307 235.57812 382.2562Q235.57812 383.34995 234.82812 384.02182Q234.09375 384.67807 232.875 384.67807Q231.64062 384.67807 230.89062 384.02182Q230.15625 383.34995 230.15625 382.2562Q230.15625 381.55307 230.53125 381.0062Q230.90625 380.4437 231.57812 380.16245Q231.01562 379.8812 230.6875 379.3812Q230.35938 378.8812 230.35938 378.24057Q230.35938 377.16245 231.04688 376.53745Q231.73438 375.89682 232.875 375.89682Q234.0 375.89682 234.6875 376.53745Q235.39062 377.16245 235.39062 378.24057ZM234.5 382.22495Q234.5 381.5062 234.04688 381.0687Q233.59375 380.61557 232.85938 380.61557Q232.125 380.61557 231.67188 381.0687Q231.23438 381.5062 231.23438 382.24057Q231.23438 382.95932 231.67188 383.3812Q232.10938 383.78745 232.875 383.78745Q233.625 383.78745 234.0625 383.36557Q234.5 382.9437 234.5 382.22495ZM232.875 376.78745Q232.23438 376.78745 231.82812 377.1937Q231.4375 377.58432 231.4375 378.27182Q231.4375 378.91245 231.82812 379.3187Q232.21875 379.72495 232.85938 379.72495Q233.51562 379.72495 233.90625 379.3187Q234.29688 378.91245 234.29688 378.27182Q234.29688 377.61557 233.89062 377.20932Q233.48438 376.78745 232.875 376.78745Z" fill-rule="nonzero"/><path fill="#ffffff" d="M206.70312 380.27182L207.14062 376.02182L211.51562 376.02182L211.51562 377.02182L208.0625 377.02182L207.79688 379.34995Q208.4375 378.97495 209.23438 378.97495Q210.39062 378.97495 211.07812 379.7562Q211.76562 380.52182 211.76562 381.83432Q211.76562 383.14682 211.04688 383.91245Q210.34375 384.67807 209.0625 384.67807Q207.9375 384.67807 207.21875 384.05307Q206.5 383.41245 206.40625 382.30307L207.42188 382.30307Q207.53125 383.03745 207.95312 383.41245Q208.375 383.78745 209.0625 383.78745Q209.8125 383.78745 210.25 383.27182Q210.6875 382.7562 210.6875 381.84995Q210.6875 380.99057 210.21875 380.47495Q209.75 379.95932 208.96875 379.95932Q208.26562 379.95932 207.85938 380.2562L207.57812 380.49057L206.70312 380.27182ZM213.34375 383.99057Q213.34375 383.70932 213.5 383.52182Q213.67188 383.33432 214.0 383.33432Q214.34375 383.33432 214.51562 383.52182Q214.6875 383.70932 214.6875 383.99057Q214.6875 384.2562 214.51562 384.4437Q214.34375 384.61557 214.0 384.61557Q213.67188 384.61557 213.5 384.4437Q213.34375 384.2562 213.34375 383.99057ZM221.79688 384.55307L216.20312 384.55307L216.20312 383.77182L219.15625 380.49057Q219.8125 379.74057 220.0625 379.28745Q220.3125 378.8187 220.3125 378.3187Q220.3125 377.64682 219.90625 377.22495Q219.51562 376.78745 218.82812 376.78745Q218.03125 376.78745 217.57812 377.2562Q217.125 377.70932 217.125 378.53745L216.04688 378.53745Q216.04688 377.34995 216.79688 376.6312Q217.5625 375.89682 218.82812 375.89682Q220.03125 375.89682 220.71875 376.52182Q221.40625 377.14682 221.40625 378.1937Q221.40625 379.4437 219.79688 381.1937L217.51562 383.66245L221.79688 383.66245L221.79688 384.55307ZM226.76562 384.55307L225.6875 384.55307L225.6875 377.33432L223.5 378.1312L223.5 377.14682L226.60938 375.97495L226.76562 375.97495L226.76562 384.55307ZM235.39062 378.24057Q235.39062 378.8812 235.04688 379.3812Q234.70312 379.8812 234.14062 380.16245Q234.79688 380.4437 235.1875 381.0062Q235.57812 381.55307 235.57812 382.2562Q235.57812 383.34995 234.82812 384.02182Q234.09375 384.67807 232.875 384.67807Q231.64062 384.67807 230.89062 384.02182Q230.15625 383.34995 230.15625 382.2562Q230.15625 381.55307 230.53125 381.0062Q230.90625 380.4437 231.57812 380.16245Q231.01562 379.8812 230.6875 379.3812Q230.35938 378.8812 230.35938 378.24057Q230.35938 377.16245 231.04688 376.53745Q231.73438 375.89682 232.875 375.89682Q234.0 375.89682 234.6875 376.53745Q235.39062 377.16245 235.39062 378.24057ZM234.5 382.22495Q234.5 381.5062 234.04688 381.0687Q233.59375 380.61557 232.85938 380.61557Q232.125 380.61557 231.67188 381.0687Q231.23438 381.5062 231.23438 382.24057Q231.23438 382.95932 231.67188 383.3812Q232.10938 383.78745 232.875 383.78745Q233.625 383.78745 234.0625 383.36557Q234.5 382.9437 234.5 382.22495ZM232.875 376.78745Q232.23438 376.78745 231.82812 377.1937Q231.4375 377.58432 231.4375 378.27182Q231.4375 378.91245 231.82812 379.3187Q232.21875 379.72495 232.85938 379.72495Q233.51562 379.72495 233.90625 379.3187Q234.29688 378.91245 234.29688 378.27182Q234.29688 377.61557 233.89062 377.20932Q233.48438 376.78745 232.875 376.78745Z" fill-rule="nonzero"/><path stroke="#ea4335" stroke-width="3.0" stroke-linejoin="round" stroke-linecap="round" d="M252.70312 382.6048L253.14062 378.3548L257.51562 378.3548L257.51562 379.3548L254.0625 379.3548L253.79688 381.68292Q254.4375 381.30792 255.23438 381.30792Q256.39062 381.30792 257.07812 382.08917Q257.76562 382.8548 257.76562 384.1673Q257.76562 385.4798 257.04688 386.24542Q256.34375 387.01105 255.0625 387.01105Q253.9375 387.01105 253.21875 386.38605Q252.5 385.74542 252.40625 384.63605L253.42188 384.63605Q253.53125 385.37042 253.95312 385.74542Q254.375 386.12042 255.0625 386.12042Q255.8125 386.12042 256.25 385.6048Q256.6875 385.08917 256.6875 384.18292Q256.6875 383.32355 256.21875 382.80792Q255.75 382.2923 254.96875 382.2923Q254.26562 382.2923 253.85938 382.58917L253.57812 382.82355L252.70312 382.6048ZM259.34375 386.32355Q259.34375 386.0423 259.5 385.8548Q259.67188 385.6673 260.0 385.6673Q260.34375 385.6673 260.51562 385.8548Q260.6875 386.0423 260.6875 386.32355Q260.6875 386.58917 260.51562 386.77667Q260.34375 386.94855 260.0 386.94855Q259.67188 386.94855 259.5 386.77667Q259.34375 386.58917 259.34375 386.32355ZM265.76562 386.88605L264.6875 386.88605L264.6875 379.6673L262.5 380.46417L262.5 379.4798L265.60938 378.30792L265.76562 378.30792L265.76562 386.88605ZM274.5625 383.24542Q274.5625 385.15167 273.90625 386.08917Q273.26562 387.01105 271.875 387.01105Q270.51562 387.01105 269.85938 386.1048Q269.20312 385.19855 269.17188 383.38605L269.17188 381.94855Q269.17188 380.05792 269.8125 379.15167Q270.46875 378.2298 271.85938 378.2298Q273.23438 378.2298 273.89062 379.12042Q274.54688 379.99542 274.5625 381.83917L274.5625 383.24542ZM273.46875 381.76105Q273.46875 380.38605 273.07812 379.76105Q272.70312 379.12042 271.85938 379.12042Q271.03125 379.12042 270.64062 379.76105Q270.26562 380.38605 270.26562 381.68292L270.26562 383.4173Q270.26562 384.7923 270.65625 385.46417Q271.0625 386.12042 271.875 386.12042Q272.67188 386.12042 273.0625 385.49542Q273.45312 384.87042 273.46875 383.5423L273.46875 381.76105ZM279.76562 386.88605L278.6875 386.88605L278.6875 379.6673L276.5 380.46417L276.5 379.4798L279.60938 378.30792L279.76562 378.30792L279.76562 386.88605Z" fill-rule="nonzero"/><path fill="#ffffff" d="M252.70312 382.6048L253.14062 378.3548L257.51562 378.3548L257.51562 379.3548L254.0625 379.3548L253.79688 381.68292Q254.4375 381.30792 255.23438 381.30792Q256.39062 381.30792 257.07812 382.08917Q257.76562 382.8548 257.76562 384.1673Q257.76562 385.4798 257.04688 386.24542Q256.34375 387.01105 255.0625 387.01105Q253.9375 387.01105 253.21875 386.38605Q252.5 385.74542 252.40625 384.63605L253.42188 384.63605Q253.53125 385.37042 253.95312 385.74542Q254.375 386.12042 255.0625 386.12042Q255.8125 386.12042 256.25 385.6048Q256.6875 385.08917 256.6875 384.18292Q256.6875 383.32355 256.21875 382.80792Q255.75 382.2923 254.96875 382.2923Q254.26562 382.2923 253.85938 382.58917L253.57812 382.82355L252.70312 382.6048ZM259.34375 386.32355Q259.34375 386.0423 259.5 385.8548Q259.67188 385.6673 260.0 385.6673Q260.34375 385.6673 260.51562 385.8548Q260.6875 386.0423 260.6875 386.32355Q260.6875 386.58917 260.51562 386.77667Q260.34375 386.94855 260.0 386.94855Q259.67188 386.94855 259.5 386.77667Q259.34375 386.58917 259.34375 386.32355ZM265.76562 386.88605L264.6875 386.88605L264.6875 379.6673L262.5 380.46417L262.5 379.4798L265.60938 378.30792L265.76562 378.30792L265.76562 386.88605ZM274.5625 383.24542Q274.5625 385.15167 273.90625 386.08917Q273.26562 387.01105 271.875 387.01105Q270.51562 387.01105 269.85938 386.1048Q269.20312 385.19855 269.17188 383.38605L269.17188 381.94855Q269.17188 380.05792 269.8125 379.15167Q270.46875 378.2298 271.85938 378.2298Q273.23438 378.2298 273.89062 379.12042Q274.54688 379.99542 274.5625 381.83917L274.5625 383.24542ZM273.46875 381.76105Q273.46875 380.38605 273.07812 379.76105Q272.70312 379.12042 271.85938 379.12042Q271.03125 379.12042 270.64062 379.76105Q270.26562 380.38605 270.26562 381.68292L270.26562 383.4173Q270.26562 384.7923 270.65625 385.46417Q271.0625 386.12042 271.875 386.12042Q272.67188 386.12042 273.0625 385.49542Q273.45312 384.87042 273.46875 383.5423L273.46875 381.76105ZM279.76562 386.88605L278.6875 386.88605L278.6875 379.6673L276.5 380.46417L276.5 379.4798L279.60938 378.30792L279.76562 378.30792L279.76562 386.88605Z" fill-rule="nonzero"/><path stroke="#fbbc04" stroke-width="3.0" stroke-linejoin="round" stroke-linecap="round" d="M303.71875 328.8749L300.1875 336.79678L299.04688 336.79678L302.5625 329.15616L297.95312 329.15616L297.95312 328.26553L303.71875 328.26553L303.71875 328.8749ZM305.34375 336.23428Q305.34375 335.95303 305.5 335.76553Q305.67188 335.57803 306.0 335.57803Q306.34375 335.57803 306.51562 335.76553Q306.6875 335.95303 306.6875 336.23428Q306.6875 336.4999 306.51562 336.6874Q306.34375 336.85928 306.0 336.85928Q305.67188 336.85928 305.5 336.6874Q305.34375 336.4999 305.34375 336.23428ZM312.46875 328.26553L312.46875 329.17178L312.26562 329.17178Q311.0 329.20303 310.25 329.9374Q309.5 330.65616 309.375 331.96866Q310.0625 331.20303 311.21875 331.20303Q312.32812 331.20303 313.0 331.98428Q313.67188 332.76553 313.67188 334.01553Q313.67188 335.32803 312.95312 336.1249Q312.23438 336.92178 311.01562 336.92178Q309.79688 336.92178 309.03125 335.98428Q308.28125 335.03116 308.28125 333.54678L308.28125 333.14053Q308.28125 330.78116 309.28125 329.53116Q310.28125 328.28116 312.26562 328.26553L312.46875 328.26553ZM311.04688 332.10928Q310.48438 332.10928 310.01562 332.4374Q309.54688 332.76553 309.35938 333.28116L309.35938 333.67178Q309.35938 334.73428 309.82812 335.3749Q310.3125 336.01553 311.01562 336.01553Q311.75 336.01553 312.17188 335.48428Q312.59375 334.9374 312.59375 334.0624Q312.59375 333.1874 312.17188 332.65616Q311.75 332.10928 311.04688 332.10928ZM318.76562 336.79678L317.6875 336.79678L317.6875 329.57803L315.5 330.3749L315.5 329.39053L318.60938 328.21866L318.76562 328.21866L318.76562 336.79678ZM323.78125 331.9999L324.59375 331.9999Q325.375 331.98428 325.8125 331.59366Q326.25 331.20303 326.25 330.53116Q326.25 329.03116 324.75 329.03116Q324.04688 329.03116 323.625 329.4374Q323.21875 329.84366 323.21875 330.4999L322.125 330.4999Q322.125 329.48428 322.85938 328.8124Q323.60938 328.14053 324.75 328.14053Q325.95312 328.14053 326.64062 328.78116Q327.32812 329.42178 327.32812 330.5624Q327.32812 331.1249 326.96875 331.64053Q326.60938 332.15616 325.98438 332.42178Q326.6875 332.64053 327.0625 333.15616Q327.45312 333.67178 327.45312 334.42178Q327.45312 335.5624 326.70312 336.2499Q325.95312 336.92178 324.75 336.92178Q323.5625 336.92178 322.79688 336.26553Q322.04688 335.60928 322.04688 334.54678L323.14062 334.54678Q323.14062 335.21866 323.57812 335.6249Q324.01562 336.03116 324.76562 336.03116Q325.54688 336.03116 325.95312 335.6249Q326.375 335.20303 326.375 334.4374Q326.375 333.70303 325.92188 333.3124Q325.46875 332.90616 324.59375 332.89053L323.78125 332.89053L323.78125 331.9999Z" fill-rule="nonzero"/><path fill="#000000" d="M303.71875 328.8749L300.1875 336.79678L299.04688 336.79678L302.5625 329.15616L297.95312 329.15616L297.95312 328.26553L303.71875 328.26553L303.71875 328.8749ZM305.34375 336.23428Q305.34375 335.95303 305.5 335.76553Q305.67188 335.57803 306.0 335.57803Q306.34375 335.57803 306.51562 335.76553Q306.6875 335.95303 306.6875 336.23428Q306.6875 336.4999 306.51562 336.6874Q306.34375 336.85928 306.0 336.85928Q305.67188 336.85928 305.5 336.6874Q305.34375 336.4999 305.34375 336.23428ZM312.46875 328.26553L312.46875 329.17178L312.26562 329.17178Q311.0 329.20303 310.25 329.9374Q309.5 330.65616 309.375 331.96866Q310.0625 331.20303 311.21875 331.20303Q312.32812 331.20303 313.0 331.98428Q313.67188 332.76553 313.67188 334.01553Q313.67188 335.32803 312.95312 336.1249Q312.23438 336.92178 311.01562 336.92178Q309.79688 336.92178 309.03125 335.98428Q308.28125 335.03116 308.28125 333.54678L308.28125 333.14053Q308.28125 330.78116 309.28125 329.53116Q310.28125 328.28116 312.26562 328.26553L312.46875 328.26553ZM311.04688 332.10928Q310.48438 332.10928 310.01562 332.4374Q309.54688 332.76553 309.35938 333.28116L309.35938 333.67178Q309.35938 334.73428 309.82812 335.3749Q310.3125 336.01553 311.01562 336.01553Q311.75 336.01553 312.17188 335.48428Q312.59375 334.9374 312.59375 334.0624Q312.59375 333.1874 312.17188 332.65616Q311.75 332.10928 311.04688 332.10928ZM318.76562 336.79678L317.6875 336.79678L317.6875 329.57803L315.5 330.3749L315.5 329.39053L318.60938 328.21866L318.76562 328.21866L318.76562 336.79678ZM323.78125 331.9999L324.59375 331.9999Q325.375 331.98428 325.8125 331.59366Q326.25 331.20303 326.25 330.53116Q326.25 329.03116 324.75 329.03116Q324.04688 329.03116 323.625 329.4374Q323.21875 329.84366 323.21875 330.4999L322.125 330.4999Q322.125 329.48428 322.85938 328.8124Q323.60938 328.14053 324.75 328.14053Q325.95312 328.14053 326.64062 328.78116Q327.32812 329.42178 327.32812 330.5624Q327.32812 331.1249 326.96875 331.64053Q326.60938 332.15616 325.98438 332.42178Q326.6875 332.64053 327.0625 333.15616Q327.45312 333.67178 327.45312 334.42178Q327.45312 335.5624 326.70312 336.2499Q325.95312 336.92178 324.75 336.92178Q323.5625 336.92178 322.79688 336.26553Q322.04688 335.60928 322.04688 334.54678L323.14062 334.54678Q323.14062 335.21866 323.57812 335.6249Q324.01562 336.03116 324.76562 336.03116Q325.54688 336.03116 325.95312 335.6249Q326.375 335.20303 326.375 334.4374Q326.375 333.70303 325.92188 333.3124Q325.46875 332.90616 324.59375 332.89053L323.78125 332.89053L323.78125 331.9999Z" fill-rule="nonzero"/><path stroke="#34a853" stroke-width="3.0" stroke-linejoin="round" stroke-linecap="round" d="M351.85938 301.2026Q351.53125 301.60886 351.04688 301.85886Q350.57812 302.09323 350.01562 302.09323Q349.28125 302.09323 348.73438 301.73386Q348.1875 301.37448 347.89062 300.71823Q347.59375 300.04636 347.59375 299.24948Q347.59375 298.40573 347.90625 297.71823Q348.23438 297.03073 348.82812 296.67136Q349.4375 296.29636 350.23438 296.29636Q351.5 296.29636 352.21875 297.24948Q352.95312 298.2026 352.95312 299.8276L352.95312 300.1401Q352.95312 302.6401 351.96875 303.78073Q350.98438 304.92136 349.0 304.9526L348.78125 304.9526L348.78125 304.04636L349.01562 304.04636Q350.35938 304.0151 351.07812 303.34323Q351.79688 302.67136 351.85938 301.2026ZM350.1875 301.2026Q350.73438 301.2026 351.1875 300.87448Q351.65625 300.53073 351.875 300.04636L351.875 299.60886Q351.875 298.54636 351.40625 297.87448Q350.9375 297.2026 350.23438 297.2026Q349.51562 297.2026 349.07812 297.74948Q348.65625 298.29636 348.65625 299.2026Q348.65625 300.0776 349.0625 300.6401Q349.48438 301.2026 350.1875 301.2026ZM354.84375 304.3901Q354.84375 304.10886 355.0 303.92136Q355.17188 303.73386 355.5 303.73386Q355.84375 303.73386 356.01562 303.92136Q356.1875 304.10886 356.1875 304.3901Q356.1875 304.65573 356.01562 304.84323Q355.84375 305.0151 355.5 305.0151Q355.17188 305.0151 355.0 304.84323Q354.84375 304.65573 354.84375 304.3901ZM363.29688 304.9526L357.70312 304.9526L357.70312 304.17136L360.65625 300.8901Q361.3125 300.1401 361.5625 299.68698Q361.8125 299.21823 361.8125 298.71823Q361.8125 298.04636 361.40625 297.62448Q361.01562 297.18698 360.32812 297.18698Q359.53125 297.18698 359.07812 297.65573Q358.625 298.10886 358.625 298.93698L357.54688 298.93698Q357.54688 297.74948 358.29688 297.03073Q359.0625 296.29636 360.32812 296.29636Q361.53125 296.29636 362.21875 296.92136Q362.90625 297.54636 362.90625 298.59323Q362.90625 299.84323 361.29688 301.59323L359.01562 304.06198L363.29688 304.06198L363.29688 304.9526ZM368.26562 304.9526L367.1875 304.9526L367.1875 297.73386L365.0 298.53073L365.0 297.54636L368.10938 296.37448L368.26562 296.37448L368.26562 304.9526Z" fill-rule="nonzero"/><path fill="#ffffff" d="M351.85938 301.2026Q351.53125 301.60886 351.04688 301.85886Q350.57812 302.09323 350.01562 302.09323Q349.28125 302.09323 348.73438 301.73386Q348.1875 301.37448 347.89062 300.71823Q347.59375 300.04636 347.59375 299.24948Q347.59375 298.40573 347.90625 297.71823Q348.23438 297.03073 348.82812 296.67136Q349.4375 296.29636 350.23438 296.29636Q351.5 296.29636 352.21875 297.24948Q352.95312 298.2026 352.95312 299.8276L352.95312 300.1401Q352.95312 302.6401 351.96875 303.78073Q350.98438 304.92136 349.0 304.9526L348.78125 304.9526L348.78125 304.04636L349.01562 304.04636Q350.35938 304.0151 351.07812 303.34323Q351.79688 302.67136 351.85938 301.2026ZM350.1875 301.2026Q350.73438 301.2026 351.1875 300.87448Q351.65625 300.53073 351.875 300.04636L351.875 299.60886Q351.875 298.54636 351.40625 297.87448Q350.9375 297.2026 350.23438 297.2026Q349.51562 297.2026 349.07812 297.74948Q348.65625 298.29636 348.65625 299.2026Q348.65625 300.0776 349.0625 300.6401Q349.48438 301.2026 350.1875 301.2026ZM354.84375 304.3901Q354.84375 304.10886 355.0 303.92136Q355.17188 303.73386 355.5 303.73386Q355.84375 303.73386 356.01562 303.92136Q356.1875 304.10886 356.1875 304.3901Q356.1875 304.65573 356.01562 304.84323Q355.84375 305.0151 355.5 305.0151Q355.17188 305.0151 355.0 304.84323Q354.84375 304.65573 354.84375 304.3901ZM363.29688 304.9526L357.70312 304.9526L357.70312 304.17136L360.65625 300.8901Q361.3125 300.1401 361.5625 299.68698Q361.8125 299.21823 361.8125 298.71823Q361.8125 298.04636 361.40625 297.62448Q361.01562 297.18698 360.32812 297.18698Q359.53125 297.18698 359.07812 297.65573Q358.625 298.10886 358.625 298.93698L357.54688 298.93698Q357.54688 297.74948 358.29688 297.03073Q359.0625 296.29636 360.32812 296.29636Q361.53125 296.29636 362.21875 296.92136Q362.90625 297.54636 362.90625 298.59323Q362.90625 299.84323 361.29688 301.59323L359.01562 304.06198L363.29688 304.06198L363.29688 304.9526ZM368.26562 304.9526L367.1875 304.9526L367.1875 297.73386L365.0 298.53073L365.0 297.54636L368.10938 296.37448L368.26562 296.37448L368.26562 304.9526Z" fill-rule="nonzero"/><path stroke="#ff6d01" stroke-width="3.0" stroke-linejoin="round" stroke-linecap="round" d="M390.26562 101.90358L389.1875 101.90358L389.1875 94.68483L387.0 95.481705L387.0 94.49733L390.10938 93.325455L390.26562 93.325455L390.26562 101.90358ZM397.85938 98.15358Q397.53125 98.55983 397.04688 98.80983Q396.57812 99.044205 396.01562 99.044205Q395.28125 99.044205 394.73438 98.68483Q394.1875 98.325455 393.89062 97.669205Q393.59375 96.99733 393.59375 96.200455Q393.59375 95.356705 393.90625 94.669205Q394.23438 93.981705 394.82812 93.62233Q395.4375 93.24733 396.23438 93.24733Q397.5 93.24733 398.21875 94.200455Q398.95312 95.15358 398.95312 96.77858L398.95312 97.09108Q398.95312 99.59108 397.96875 100.731705Q396.98438 101.87233 395.0 101.90358L394.78125 101.90358L394.78125 100.99733L395.01562 100.99733Q396.35938 100.96608 397.07812 100.294205Q397.79688 99.62233 397.85938 98.15358ZM396.1875 98.15358Q396.73438 98.15358 397.1875 97.825455Q397.65625 97.481705 397.875 96.99733L397.875 96.55983Q397.875 95.49733 397.40625 94.825455Q396.9375 94.15358 396.23438 94.15358Q395.51562 94.15358 395.07812 94.700455Q394.65625 95.24733 394.65625 96.15358Q394.65625 97.02858 395.0625 97.59108Q395.48438 98.15358 396.1875 98.15358ZM400.84375 101.34108Q400.84375 101.05983 401.0 100.87233Q401.17188 100.68483 401.5 100.68483Q401.84375 100.68483 402.01562 100.87233Q402.1875 101.05983 402.1875 101.34108Q402.1875 101.606705 402.01562 101.794205Q401.84375 101.96608 401.5 101.96608Q401.17188 101.96608 401.0 101.794205Q400.84375 101.606705 400.84375 101.34108ZM405.28125 97.106705L406.09375 97.106705Q406.875 97.09108 407.3125 96.700455Q407.75 96.30983 407.75 95.637955Q407.75 94.137955 406.25 94.137955Q405.54688 94.137955 405.125 94.544205Q404.71875 94.950455 404.71875 95.606705L403.625 95.606705Q403.625 94.59108 404.35938 93.919205Q405.10938 93.24733 406.25 93.24733Q407.45312 93.24733 408.14062 93.887955Q408.82812 94.52858 408.82812 95.669205Q408.82812 96.231705 408.46875 96.74733Q408.10938 97.262955 407.48438 97.52858Q408.1875 97.74733 408.5625 98.262955Q408.95312 98.77858 408.95312 99.52858Q408.95312 100.669205 408.20312 101.356705Q407.45312 102.02858 406.25 102.02858Q405.0625 102.02858 404.29688 101.37233Q403.54688 100.71608 403.54688 99.65358L404.64062 99.65358Q404.64062 100.325455 405.07812 100.731705Q405.51562 101.137955 406.26562 101.137955Q407.04688 101.137955 407.45312 100.731705Q407.875 100.30983 407.875 99.544205Q407.875 98.80983 407.42188 98.419205Q406.96875 98.012955 406.09375 97.99733L405.28125 97.99733L405.28125 97.106705ZM414.85938 98.15358Q414.53125 98.55983 414.04688 98.80983Q413.57812 99.044205 413.01562 99.044205Q412.28125 99.044205 411.73438 98.68483Q411.1875 98.325455 410.89062 97.669205Q410.59375 96.99733 410.59375 96.200455Q410.59375 95.356705 410.90625 94.669205Q411.23438 93.981705 411.82812 93.62233Q412.4375 93.24733 413.23438 93.24733Q414.5 93.24733 415.21875 94.200455Q415.95312 95.15358 415.95312 96.77858L415.95312 97.09108Q415.95312 99.59108 414.96875 100.731705Q413.98438 101.87233 412.0 101.90358L411.78125 101.90358L411.78125 100.99733L412.01562 100.99733Q413.35938 100.96608 414.07812 100.294205Q414.79688 99.62233 414.85938 98.15358ZM413.1875 98.15358Q413.73438 98.15358 414.1875 97.825455Q414.65625 97.481705 414.875 96.99733L414.875 96.55983Q414.875 95.49733 414.40625 94.825455Q413.9375 94.15358 413.23438 94.15358Q412.51562 94.15358 412.07812 94.700455Q411.65625 95.24733 411.65625 96.15358Q411.65625 97.02858 412.0625 97.59108Q412.48438 98.15358 413.1875 98.15358ZM419.28125 97.106705L420.09375 97.106705Q420.875 97.09108 421.3125 96.700455Q421.75 96.30983 421.75 95.637955Q421.75 94.137955 420.25 94.137955Q419.54688 94.137955 419.125 94.544205Q418.71875 94.950455 418.71875 95.606705L417.625 95.606705Q417.625 94.59108 418.35938 93.919205Q419.10938 93.24733 420.25 93.24733Q421.45312 93.24733 422.14062 93.887955Q422.82812 94.52858 422.82812 95.669205Q422.82812 96.231705 422.46875 96.74733Q422.10938 97.262955 421.48438 97.52858Q422.1875 97.74733 422.5625 98.262955Q422.95312 98.77858 422.95312 99.52858Q422.95312 100.669205 422.20312 101.356705Q421.45312 102.02858 420.25 102.02858Q419.0625 102.02858 418.29688 101.37233Q417.54688 100.71608 417.54688 99.65358L418.64062 99.65358Q418.64062 100.325455 419.07812 100.731705Q419.51562 101.137955 420.26562 101.137955Q421.04688 101.137955 421.45312 100.731705Q421.875 100.30983 421.875 99.544205Q421.875 98.80983 421.42188 98.419205Q420.96875 98.012955 420.09375 97.99733L419.28125 97.99733L419.28125 97.106705Z" fill-rule="nonzero"/><path fill="#000000" d="M390.26562 101.90358L389.1875 101.90358L389.1875 94.68483L387.0 95.481705L387.0 94.49733L390.10938 93.325455L390.26562 93.325455L390.26562 101.90358ZM397.85938 98.15358Q397.53125 98.55983 397.04688 98.80983Q396.57812 99.044205 396.01562 99.044205Q395.28125 99.044205 394.73438 98.68483Q394.1875 98.325455 393.89062 97.669205Q393.59375 96.99733 393.59375 96.200455Q393.59375 95.356705 393.90625 94.669205Q394.23438 93.981705 394.82812 93.62233Q395.4375 93.24733 396.23438 93.24733Q397.5 93.24733 398.21875 94.200455Q398.95312 95.15358 398.95312 96.77858L398.95312 97.09108Q398.95312 99.59108 397.96875 100.731705Q396.98438 101.87233 395.0 101.90358L394.78125 101.90358L394.78125 100.99733L395.01562 100.99733Q396.35938 100.96608 397.07812 100.294205Q397.79688 99.62233 397.85938 98.15358ZM396.1875 98.15358Q396.73438 98.15358 397.1875 97.825455Q397.65625 97.481705 397.875 96.99733L397.875 96.55983Q397.875 95.49733 397.40625 94.825455Q396.9375 94.15358 396.23438 94.15358Q395.51562 94.15358 395.07812 94.700455Q394.65625 95.24733 394.65625 96.15358Q394.65625 97.02858 395.0625 97.59108Q395.48438 98.15358 396.1875 98.15358ZM400.84375 101.34108Q400.84375 101.05983 401.0 100.87233Q401.17188 100.68483 401.5 100.68483Q401.84375 100.68483 402.01562 100.87233Q402.1875 101.05983 402.1875 101.34108Q402.1875 101.606705 402.01562 101.794205Q401.84375 101.96608 401.5 101.96608Q401.17188 101.96608 401.0 101.794205Q400.84375 101.606705 400.84375 101.34108ZM405.28125 97.106705L406.09375 97.106705Q406.875 97.09108 407.3125 96.700455Q407.75 96.30983 407.75 95.637955Q407.75 94.137955 406.25 94.137955Q405.54688 94.137955 405.125 94.544205Q404.71875 94.950455 404.71875 95.606705L403.625 95.606705Q403.625 94.59108 404.35938 93.919205Q405.10938 93.24733 406.25 93.24733Q407.45312 93.24733 408.14062 93.887955Q408.82812 94.52858 408.82812 95.669205Q408.82812 96.231705 408.46875 96.74733Q408.10938 97.262955 407.48438 97.52858Q408.1875 97.74733 408.5625 98.262955Q408.95312 98.77858 408.95312 99.52858Q408.95312 100.669205 408.20312 101.356705Q407.45312 102.02858 406.25 102.02858Q405.0625 102.02858 404.29688 101.37233Q403.54688 100.71608 403.54688 99.65358L404.64062 99.65358Q404.64062 100.325455 405.07812 100.731705Q405.51562 101.137955 406.26562 101.137955Q407.04688 101.137955 407.45312 100.731705Q407.875 100.30983 407.875 99.544205Q407.875 98.80983 407.42188 98.419205Q406.96875 98.012955 406.09375 97.99733L405.28125 97.99733L405.28125 97.106705ZM414.85938 98.15358Q414.53125 98.55983 414.04688 98.80983Q413.57812 99.044205 413.01562 99.044205Q412.28125 99.044205 411.73438 98.68483Q411.1875 98.325455 410.89062 97.669205Q410.59375 96.99733 410.59375 96.200455Q410.59375 95.356705 410.90625 94.669205Q411.23438 93.981705 411.82812 93.62233Q412.4375 93.24733 413.23438 93.24733Q414.5 93.24733 415.21875 94.200455Q415.95312 95.15358 415.95312 96.77858L415.95312 97.09108Q415.95312 99.59108 414.96875 100.731705Q413.98438 101.87233 412.0 101.90358L411.78125 101.90358L411.78125 100.99733L412.01562 100.99733Q413.35938 100.96608 414.07812 100.294205Q414.79688 99.62233 414.85938 98.15358ZM413.1875 98.15358Q413.73438 98.15358 414.1875 97.825455Q414.65625 97.481705 414.875 96.99733L414.875 96.55983Q414.875 95.49733 414.40625 94.825455Q413.9375 94.15358 413.23438 94.15358Q412.51562 94.15358 412.07812 94.700455Q411.65625 95.24733 411.65625 96.15358Q411.65625 97.02858 412.0625 97.59108Q412.48438 98.15358 413.1875 98.15358ZM419.28125 97.106705L420.09375 97.106705Q420.875 97.09108 421.3125 96.700455Q421.75 96.30983 421.75 95.637955Q421.75 94.137955 420.25 94.137955Q419.54688 94.137955 419.125 94.544205Q418.71875 94.950455 418.71875 95.606705L417.625 95.606705Q417.625 94.59108 418.35938 93.919205Q419.10938 93.24733 420.25 93.24733Q421.45312 93.24733 422.14062 93.887955Q422.82812 94.52858 422.82812 95.669205Q422.82812 96.231705 422.46875 96.74733Q422.10938 97.262955 421.48438 97.52858Q422.1875 97.74733 422.5625 98.262955Q422.95312 98.77858 422.95312 99.52858Q422.95312 100.669205 422.20312 101.356705Q421.45312 102.02858 420.25 102.02858Q419.0625 102.02858 418.29688 101.37233Q417.54688 100.71608 417.54688 99.65358L418.64062 99.65358Q418.64062 100.325455 419.07812 100.731705Q419.51562 101.137955 420.26562 101.137955Q421.04688 101.137955 421.45312 100.731705Q421.875 100.30983 421.875 99.544205Q421.875 98.80983 421.42188 98.419205Q420.96875 98.012955 420.09375 97.99733L419.28125 97.99733L419.28125 97.106705Z" fill-rule="nonzero"/><path stroke="#46bdc6" stroke-width="3.0" stroke-linejoin="round" stroke-linecap="round" d="M440.46875 343.38004L440.46875 344.2863L440.26562 344.2863Q439.0 344.31754 438.25 345.0519Q437.5 345.77066 437.375 347.08316Q438.0625 346.31754 439.21875 346.31754Q440.32812 346.31754 441.0 347.0988Q441.67188 347.88004 441.67188 349.13004Q441.67188 350.44254 440.95312 351.2394Q440.23438 352.0363 439.01562 352.0363Q437.79688 352.0363 437.03125 351.0988Q436.28125 350.14566 436.28125 348.6613L436.28125 348.25504Q436.28125 345.89566 437.28125 344.64566Q438.28125 343.39566 440.26562 343.38004L440.46875 343.38004ZM439.04688 347.2238Q438.48438 347.2238 438.01562 347.5519Q437.54688 347.88004 437.35938 348.39566L437.35938 348.7863Q437.35938 349.8488 437.82812 350.4894Q438.3125 351.13004 439.01562 351.13004Q439.75 351.13004 440.17188 350.5988Q440.59375 350.0519 440.59375 349.1769Q440.59375 348.3019 440.17188 347.77066Q439.75 347.2238 439.04688 347.2238ZM443.34375 351.3488Q443.34375 351.06754 443.5 350.88004Q443.67188 350.69254 444.0 350.69254Q444.34375 350.69254 444.51562 350.88004Q444.6875 351.06754 444.6875 351.3488Q444.6875 351.6144 444.51562 351.8019Q444.34375 351.9738 444.0 351.9738Q443.67188 351.9738 443.5 351.8019Q443.34375 351.6144 443.34375 351.3488ZM451.39062 345.5988Q451.39062 346.2394 451.04688 346.7394Q450.70312 347.2394 450.14062 347.52066Q450.79688 347.8019 451.1875 348.3644Q451.57812 348.9113 451.57812 349.6144Q451.57812 350.70816 450.82812 351.38004Q450.09375 352.0363 448.875 352.0363Q447.64062 352.0363 446.89062 351.38004Q446.15625 350.70816 446.15625 349.6144Q446.15625 348.9113 446.53125 348.3644Q446.90625 347.8019 447.57812 347.52066Q447.01562 347.2394 446.6875 346.7394Q446.35938 346.2394 446.35938 345.5988Q446.35938 344.52066 447.04688 343.89566Q447.73438 343.25504 448.875 343.25504Q450.0 343.25504 450.6875 343.89566Q451.39062 344.52066 451.39062 345.5988ZM450.5 349.58316Q450.5 348.8644 450.04688 348.4269Q449.59375 347.9738 448.85938 347.9738Q448.125 347.9738 447.67188 348.4269Q447.23438 348.8644 447.23438 349.5988Q447.23438 350.31754 447.67188 350.7394Q448.10938 351.14566 448.875 351.14566Q449.625 351.14566 450.0625 350.7238Q450.5 350.3019 450.5 349.58316ZM448.875 344.14566Q448.23438 344.14566 447.82812 344.5519Q447.4375 344.94254 447.4375 345.63004Q447.4375 346.27066 447.82812 346.6769Q448.21875 347.08316 448.85938 347.08316Q449.51562 347.08316 449.90625 346.6769Q450.29688 346.27066 450.29688 345.63004Q450.29688 344.9738 449.89062 344.56754Q449.48438 344.14566 448.875 344.14566ZM453.70312 347.63004L454.14062 343.38004L458.51562 343.38004L458.51562 344.38004L455.0625 344.38004L454.79688 346.70816Q455.4375 346.33316 456.23438 346.33316Q457.39062 346.33316 458.07812 347.1144Q458.76562 347.88004 458.76562 349.19254Q458.76562 350.50504 458.04688 351.27066Q457.34375 352.0363 456.0625 352.0363Q454.9375 352.0363 454.21875 351.4113Q453.5 350.77066 453.40625 349.6613L454.42188 349.6613Q454.53125 350.39566 454.95312 350.77066Q455.375 351.14566 456.0625 351.14566Q456.8125 351.14566 457.25 350.63004Q457.6875 350.1144 457.6875 349.20816Q457.6875 348.3488 457.21875 347.83316Q456.75 347.31754 455.96875 347.31754Q455.26562 347.31754 454.85938 347.6144L454.57812 347.8488L453.70312 347.63004ZM460.70312 347.63004L461.14062 343.38004L465.51562 343.38004L465.51562 344.38004L462.0625 344.38004L461.79688 346.70816Q462.4375 346.33316 463.23438 346.33316Q464.39062 346.33316 465.07812 347.1144Q465.76562 347.88004 465.76562 349.19254Q465.76562 350.50504 465.04688 351.27066Q464.34375 352.0363 463.0625 352.0363Q461.9375 352.0363 461.21875 351.4113Q460.5 350.77066 460.40625 349.6613L461.42188 349.6613Q461.53125 350.39566 461.95312 350.77066Q462.375 351.14566 463.0625 351.14566Q463.8125 351.14566 464.25 350.63004Q464.6875 350.1144 464.6875 349.20816Q464.6875 348.3488 464.21875 347.83316Q463.75 347.31754 462.96875 347.31754Q462.26562 347.31754 461.85938 347.6144L461.57812 347.8488L460.70312 347.63004Z" fill-rule="nonzero"/><path fill="#000000" d="M440.46875 343.38004L440.46875 344.2863L440.26562 344.2863Q439.0 344.31754 438.25 345.0519Q437.5 345.77066 437.375 347.08316Q438.0625 346.31754 439.21875 346.31754Q440.32812 346.31754 441.0 347.0988Q441.67188 347.88004 441.67188 349.13004Q441.67188 350.44254 440.95312 351.2394Q440.23438 352.0363 439.01562 352.0363Q437.79688 352.0363 437.03125 351.0988Q436.28125 350.14566 436.28125 348.6613L436.28125 348.25504Q436.28125 345.89566 437.28125 344.64566Q438.28125 343.39566 440.26562 343.38004L440.46875 343.38004ZM439.04688 347.2238Q438.48438 347.2238 438.01562 347.5519Q437.54688 347.88004 437.35938 348.39566L437.35938 348.7863Q437.35938 349.8488 437.82812 350.4894Q438.3125 351.13004 439.01562 351.13004Q439.75 351.13004 440.17188 350.5988Q440.59375 350.0519 440.59375 349.1769Q440.59375 348.3019 440.17188 347.77066Q439.75 347.2238 439.04688 347.2238ZM443.34375 351.3488Q443.34375 351.06754 443.5 350.88004Q443.67188 350.69254 444.0 350.69254Q444.34375 350.69254 444.51562 350.88004Q444.6875 351.06754 444.6875 351.3488Q444.6875 351.6144 444.51562 351.8019Q444.34375 351.9738 444.0 351.9738Q443.67188 351.9738 443.5 351.8019Q443.34375 351.6144 443.34375 351.3488ZM451.39062 345.5988Q451.39062 346.2394 451.04688 346.7394Q450.70312 347.2394 450.14062 347.52066Q450.79688 347.8019 451.1875 348.3644Q451.57812 348.9113 451.57812 349.6144Q451.57812 350.70816 450.82812 351.38004Q450.09375 352.0363 448.875 352.0363Q447.64062 352.0363 446.89062 351.38004Q446.15625 350.70816 446.15625 349.6144Q446.15625 348.9113 446.53125 348.3644Q446.90625 347.8019 447.57812 347.52066Q447.01562 347.2394 446.6875 346.7394Q446.35938 346.2394 446.35938 345.5988Q446.35938 344.52066 447.04688 343.89566Q447.73438 343.25504 448.875 343.25504Q450.0 343.25504 450.6875 343.89566Q451.39062 344.52066 451.39062 345.5988ZM450.5 349.58316Q450.5 348.8644 450.04688 348.4269Q449.59375 347.9738 448.85938 347.9738Q448.125 347.9738 447.67188 348.4269Q447.23438 348.8644 447.23438 349.5988Q447.23438 350.31754 447.67188 350.7394Q448.10938 351.14566 448.875 351.14566Q449.625 351.14566 450.0625 350.7238Q450.5 350.3019 450.5 349.58316ZM448.875 344.14566Q448.23438 344.14566 447.82812 344.5519Q447.4375 344.94254 447.4375 345.63004Q447.4375 346.27066 447.82812 346.6769Q448.21875 347.08316 448.85938 347.08316Q449.51562 347.08316 449.90625 346.6769Q450.29688 346.27066 450.29688 345.63004Q450.29688 344.9738 449.89062 344.56754Q449.48438 344.14566 448.875 344.14566ZM453.70312 347.63004L454.14062 343.38004L458.51562 343.38004L458.51562 344.38004L455.0625 344.38004L454.79688 346.70816Q455.4375 346.33316 456.23438 346.33316Q457.39062 346.33316 458.07812 347.1144Q458.76562 347.88004 458.76562 349.19254Q458.76562 350.50504 458.04688 351.27066Q457.34375 352.0363 456.0625 352.0363Q454.9375 352.0363 454.21875 351.4113Q453.5 350.77066 453.40625 349.6613L454.42188 349.6613Q454.53125 350.39566 454.95312 350.77066Q455.375 351.14566 456.0625 351.14566Q456.8125 351.14566 457.25 350.63004Q457.6875 350.1144 457.6875 349.20816Q457.6875 348.3488 457.21875 347.83316Q456.75 347.31754 455.96875 347.31754Q455.26562 347.31754 454.85938 347.6144L454.57812 347.8488L453.70312 347.63004ZM460.70312 347.63004L461.14062 343.38004L465.51562 343.38004L465.51562 344.38004L462.0625 344.38004L461.79688 346.70816Q462.4375 346.33316 463.23438 346.33316Q464.39062 346.33316 465.07812 347.1144Q465.76562 347.88004 465.76562 349.19254Q465.76562 350.50504 465.04688 351.27066Q464.34375 352.0363 463.0625 352.0363Q461.9375 352.0363 461.21875 351.4113Q460.5 350.77066 460.40625 349.6613L461.42188 349.6613Q461.53125 350.39566 461.95312 350.77066Q462.375 351.14566 463.0625 351.14566Q463.8125 351.14566 464.25 350.63004Q464.6875 350.1144 464.6875 349.20816Q464.6875 348.3488 464.21875 347.83316Q463.75 347.31754 462.96875 347.31754Q462.26562 347.31754 461.85938 347.6144L461.57812 347.8488L460.70312 347.63004Z" fill-rule="nonzero"/><path fill="#000000" d="M39.7 471.5656Q39.7 470.03436 40.0125 469.1125Q40.325 468.175 40.934376 467.675Q41.559376 467.175 42.496876 467.175Q43.184376 467.175 43.7 467.45624Q44.23125 467.7375 44.575 468.26874Q44.91875 468.78436 45.10625 469.53436Q45.29375 470.28436 45.29375 471.5656Q45.29375 473.08124 44.98125 474.0031Q44.684376 474.925 44.059376 475.4406Q43.45 475.9406 42.496876 475.9406Q41.2625 475.9406 40.54375 475.05Q39.7 473.9875 39.7 471.5656ZM40.778126 471.5656Q40.778126 473.675 41.278126 474.3781Q41.778126 475.08124 42.496876 475.08124Q43.23125 475.08124 43.715626 474.3781Q44.215626 473.675 44.215626 471.5656Q44.215626 469.4406 43.715626 468.7531Q43.23125 468.05 42.48125 468.05Q41.7625 468.05 41.325 468.65936Q40.778126 469.4406 40.778126 471.5656Z" fill-rule="nonzero"/><path fill="#000000" d="M39.7 373.85L40.809376 373.75626Q40.934376 374.56876 41.371876 374.975Q41.825 375.38126 42.465626 375.38126Q43.215626 375.38126 43.746876 374.80313Q44.278126 374.225 44.278126 373.2875Q44.278126 372.38126 43.7625 371.86563Q43.2625 371.33438 42.434376 371.33438Q41.934376 371.33438 41.5125 371.56876Q41.10625 371.80313 40.871876 372.1625L39.8875 372.0375L40.715626 367.63126L44.996876 367.63126L44.996876 368.63126L41.559376 368.63126L41.10625 370.94376Q41.871876 370.39688 42.715626 370.39688Q43.840626 370.39688 44.60625 371.17813Q45.3875 371.95938 45.3875 373.19376Q45.3875 374.35 44.715626 375.20938Q43.8875 376.24063 42.465626 376.24063Q41.29375 376.24063 40.54375 375.58438Q39.809376 374.92813 39.7 373.85Z" fill-rule="nonzero"/><path fill="#000000" d="M36.66875 276.4L35.621876 276.4L35.621876 269.68124Q35.23125 270.04062 34.60625 270.41562Q33.996876 270.775 33.5125 270.94687L33.5125 269.93124Q34.3875 269.50937 35.04375 268.93124Q35.715626 268.3375 35.996876 267.775L36.66875 267.775L36.66875 276.4ZM39.7 272.16562Q39.7 270.63437 40.0125 269.7125Q40.325 268.775 40.934376 268.275Q41.559376 267.775 42.496876 267.775Q43.184376 267.775 43.7 268.05624Q44.23125 268.3375 44.575 268.86874Q44.91875 269.38437 45.10625 270.13437Q45.29375 270.88437 45.29375 272.16562Q45.29375 273.68124 44.98125 274.60312Q44.684376 275.525 44.059376 276.04062Q43.45 276.54062 42.496876 276.54062Q41.2625 276.54062 40.54375 275.65Q39.7 274.5875 39.7 272.16562ZM40.778126 272.16562Q40.778126 274.275 41.278126 274.97812Q41.778126 275.68124 42.496876 275.68124Q43.23125 275.68124 43.715626 274.97812Q44.215626 274.275 44.215626 272.16562Q44.215626 270.04062 43.715626 269.35312Q43.23125 268.65 42.48125 268.65Q41.7625 268.65 41.325 269.25937Q40.778126 270.04062 40.778126 272.16562Z" fill-rule="nonzero"/><path fill="#000000" d="M36.66875 176.7L35.621876 176.7L35.621876 169.98125Q35.23125 170.34062 34.60625 170.71562Q33.996876 171.075 33.5125 171.24687L33.5125 170.23125Q34.3875 169.80937 35.04375 169.23125Q35.715626 168.6375 35.996876 168.075L36.66875 168.075L36.66875 176.7ZM39.7 174.45L40.809376 174.35625Q40.934376 175.16875 41.371876 175.575Q41.825 175.98125 42.465626 175.98125Q43.215626 175.98125 43.746876 175.40312Q44.278126 174.825 44.278126 173.8875Q44.278126 172.98125 43.7625 172.46562Q43.2625 171.93437 42.434376 171.93437Q41.934376 171.93437 41.5125 172.16875Q41.10625 172.40312 40.871876 172.7625L39.8875 172.6375L40.715626 168.23125L44.996876 168.23125L44.996876 169.23125L41.559376 169.23125L41.10625 171.54375Q41.871876 170.99687 42.715626 170.99687Q43.840626 170.99687 44.60625 171.77812Q45.3875 172.55937 45.3875 173.79375Q45.3875 174.95 44.715626 175.80937Q43.8875 176.84062 42.465626 176.84062Q41.29375 176.84062 40.54375 176.18437Q39.809376 175.52812 39.7 174.45Z" fill-rule="nonzero"/><path fill="#000000" d="M38.246876 75.984375L38.246876 77.0L32.559376 77.0Q32.559376 76.625 32.684376 76.265625Q32.903126 75.6875 33.371876 75.125Q33.85625 74.5625 34.7625 73.828125Q36.16875 72.671875 36.653126 72.0Q37.153126 71.328125 37.153126 70.734375Q37.153126 70.109375 36.7 69.6875Q36.246876 69.25 35.528126 69.25Q34.7625 69.25 34.309376 69.703125Q33.85625 70.15625 33.840626 70.96875L32.7625 70.859375Q32.871876 69.640625 33.590626 69.015625Q34.325 68.375 35.559376 68.375Q36.79375 68.375 37.5125 69.0625Q38.23125 69.75 38.23125 70.765625Q38.23125 71.28125 38.0125 71.78125Q37.809376 72.265625 37.309376 72.828125Q36.825 73.375 35.7 74.328125Q34.746876 75.125 34.465626 75.421875Q34.2 75.703125 34.028126 75.984375L38.246876 75.984375ZM39.7 72.765625Q39.7 71.234375 40.0125 70.3125Q40.325 69.375 40.934376 68.875Q41.559376 68.375 42.496876 68.375Q43.184376 68.375 43.7 68.65625Q44.23125 68.9375 44.575 69.46875Q44.91875 69.984375 45.10625 70.734375Q45.29375 71.484375 45.29375 72.765625Q45.29375 74.28125 44.98125 75.203125Q44.684376 76.125 44.059376 76.640625Q43.45 77.140625 42.496876 77.140625Q41.2625 77.140625 40.54375 76.25Q39.7 75.1875 39.7 72.765625ZM40.778126 72.765625Q40.778126 74.875 41.278126 75.578125Q41.778126 76.28125 42.496876 76.28125Q43.23125 76.28125 43.715626 75.578125Q44.215626 74.875 44.215626 72.765625Q44.215626 70.640625 43.715626 69.953125Q43.23125 69.25 42.48125 69.25Q41.7625 69.25 41.325 69.859375Q40.778126 70.640625 40.778126 72.765625Z" fill-rule="nonzero"/><path fill="#4285f4" d="M646.8 73.0C646.8 72.447716 647.24774 72.0 647.8 72.0L657.8 72.0C658.3523 72.0 658.8 72.447716 658.8 73.0L658.8 83.0C658.8 83.552284 658.3523 84.0 657.8 84.0L647.8 84.0C647.24774 84.0 646.8 83.552284 646.8 83.0Z" fill-rule="nonzero"/><path fill="#1a1a1a" d="M668.1281 72.703125L668.1281 70.6875L669.89374 70.6875L669.89374 72.703125L668.1281 72.703125ZM668.1281 85.0L668.1281 74.625L669.89374 74.625L669.89374 85.0L668.1281 85.0ZM671.7531 72.5625L671.7531 70.875L681.01874 70.875L681.01874 72.234375Q679.64374 73.6875 678.3 76.109375Q676.95624 78.515625 676.2375 81.0625Q675.70624 82.859375 675.55 85.0L673.7531 85.0Q673.78436 83.3125 674.40936 80.921875Q675.05 78.53125 676.2375 76.3125Q677.425 74.078125 678.7531 72.5625L671.7531 72.5625ZM682.4406 80.703125L682.4406 78.9375L687.83124 78.9375L687.83124 80.703125L682.4406 80.703125ZM692.33124 77.234375Q691.2375 76.828125 690.70624 76.09375Q690.1906 75.34375 690.1906 74.3125Q690.1906 72.75 691.3156 71.6875Q692.4406 70.625 694.3 70.625Q696.175 70.625 697.3156 71.71875Q698.45624 72.796875 698.45624 74.359375Q698.45624 75.359375 697.925 76.09375Q697.40936 76.828125 696.34686 77.234375Q697.675 77.671875 698.3625 78.625Q699.05 79.578125 699.05 80.90625Q699.05 82.75 697.7375 84.0Q696.4406 85.25 694.33124 85.25Q692.20624 85.25 690.90936 84.0Q689.6125 82.734375 689.6125 80.859375Q689.6125 79.46875 690.3156 78.53125Q691.03436 77.578125 692.33124 77.234375ZM691.9875 74.25Q691.9875 75.265625 692.64374 75.921875Q693.3 76.5625 694.33124 76.5625Q695.34686 76.5625 696.0031 75.921875Q696.65936 75.28125 696.65936 74.359375Q696.65936 73.390625 695.9875 72.734375Q695.3156 72.0625 694.3156 72.0625Q693.3156 72.0625 692.64374 72.71875Q691.9875 73.359375 691.9875 74.25ZM691.425 80.875Q691.425 81.625 691.76874 82.328125Q692.1281 83.03125 692.83124 83.421875Q693.53436 83.796875 694.34686 83.796875Q695.6125 83.796875 696.425 82.984375Q697.2531 82.171875 697.2531 80.921875Q697.2531 79.65625 696.40936 78.828125Q695.5656 78.0 694.28436 78.0Q693.05 78.0 692.2375 78.828125Q691.425 79.640625 691.425 80.875ZM700.7531 72.5625L700.7531 70.875L710.01874 70.875L710.01874 72.234375Q708.64374 73.6875 707.3 76.109375Q705.95624 78.515625 705.2375 81.0625Q704.70624 82.859375 704.55 85.0L702.7531 85.0Q702.78436 83.3125 703.40936 80.921875Q704.05 78.53125 705.2375 76.3125Q706.425 74.078125 707.7531 72.5625L700.7531 72.5625ZM711.6281 77.9375Q711.6281 75.40625 712.14374 73.859375Q712.675 72.296875 713.70624 71.46875Q714.7375 70.625 716.3 70.625Q717.45624 70.625 718.3156 71.09375Q719.1906 71.546875 719.7531 72.421875Q720.3156 73.296875 720.64374 74.5625Q720.97186 75.8125 720.97186 77.9375Q720.97186 80.453125 720.4406 82.0Q719.925 83.546875 718.89374 84.40625Q717.8781 85.25 716.3 85.25Q714.22186 85.25 713.05 83.765625Q711.6281 81.96875 711.6281 77.9375ZM713.4406 77.9375Q713.4406 81.46875 714.2531 82.640625Q715.08124 83.796875 716.3 83.796875Q717.5031 83.796875 718.33124 82.625Q719.15936 81.453125 719.15936 77.9375Q719.15936 74.40625 718.33124 73.25Q717.5031 72.078125 716.28436 72.078125Q715.0656 72.078125 714.34686 73.109375Q713.4406 74.40625 713.4406 77.9375ZM722.6281 77.9375Q722.6281 75.40625 723.14374 73.859375Q723.675 72.296875 724.70624 71.46875Q725.7375 70.625 727.3 70.625Q728.45624 70.625 729.3156 71.09375Q730.1906 71.546875 730.7531 72.421875Q731.3156 73.296875 731.64374 74.5625Q731.97186 75.8125 731.97186 77.9375Q731.97186 80.453125 731.4406 82.0Q730.925 83.546875 729.89374 84.40625Q728.8781 85.25 727.3 85.25Q725.22186 85.25 724.05 83.765625Q722.6281 81.96875 722.6281 77.9375ZM724.4406 77.9375Q724.4406 81.46875 725.2531 82.640625Q726.08124 83.796875 727.3 83.796875Q728.5031 83.796875 729.33124 82.625Q730.15936 81.453125 730.15936 77.9375Q730.15936 74.40625 729.33124 73.25Q728.5031 72.078125 727.28436 72.078125Q726.0656 72.078125 725.34686 73.109375Q724.4406 74.40625 724.4406 77.9375ZM734.26874 85.0L734.26874 70.6875L736.15936 70.6875L736.15936 77.78125L743.26874 70.6875L745.83124 70.6875L739.83124 76.484375L746.09686 85.0L743.59686 85.0L738.5031 77.75L736.15936 80.03125L736.15936 85.0L734.26874 85.0Z" fill-rule="nonzero"/><path fill="#ea4335" d="M646.8 107.0C646.8 106.447716 647.24774 106.0 647.8 106.0L657.8 106.0C658.3523 106.0 658.8 106.447716 658.8 107.0L658.8 117.0C658.8 117.552284 658.3523 118.0 657.8 118.0L647.8 118.0C647.24774 118.0 646.8 117.552284 646.8 117.0Z" fill-rule="nonzero"/><path fill="#1a1a1a" d="M667.64374 115.21875L669.39374 114.984375Q669.70624 116.484375 670.425 117.140625Q671.15936 117.796875 672.20624 117.796875Q673.4406 117.796875 674.28436 116.9375Q675.14374 116.078125 675.14374 114.8125Q675.14374 113.59375 674.34686 112.8125Q673.5656 112.03125 672.34686 112.03125Q671.84686 112.03125 671.1125 112.21875L671.3 110.671875Q671.47186 110.703125 671.58124 110.703125Q672.70624 110.703125 673.59686 110.125Q674.5031 109.53125 674.5031 108.3125Q674.5031 107.34375 673.84686 106.703125Q673.1906 106.0625 672.15936 106.0625Q671.14374 106.0625 670.45624 106.71875Q669.76874 107.359375 669.58124 108.640625L667.8156 108.328125Q668.14374 106.5625 669.28436 105.59375Q670.425 104.625 672.1281 104.625Q673.3 104.625 674.28436 105.125Q675.26874 105.625 675.78436 106.5Q676.3156 107.375 676.3156 108.34375Q676.3156 109.265625 675.8156 110.03125Q675.3156 110.796875 674.34686 111.25Q675.6125 111.53125 676.3156 112.46875Q677.01874 113.390625 677.01874 114.765625Q677.01874 116.640625 675.64374 117.953125Q674.28436 119.25 672.1906 119.25Q670.3 119.25 669.05 118.125Q667.8156 117.0 667.64374 115.21875ZM678.89374 115.6875L680.58124 115.53125Q680.8 116.71875 681.39374 117.265625Q682.0031 117.796875 682.95624 117.796875Q683.76874 117.796875 684.3781 117.4375Q684.9875 117.0625 685.3781 116.4375Q685.76874 115.8125 686.03436 114.765625Q686.3 113.703125 686.3 112.609375Q686.3 112.5 686.28436 112.265625Q685.7531 113.09375 684.84686 113.625Q683.9406 114.140625 682.8625 114.140625Q681.09686 114.140625 679.8625 112.859375Q678.6281 111.5625 678.6281 109.453125Q678.6281 107.28125 679.90936 105.953125Q681.20624 104.625 683.1281 104.625Q684.53436 104.625 685.6906 105.375Q686.84686 106.125 687.4406 107.515625Q688.05 108.90625 688.05 111.546875Q688.05 114.296875 687.4406 115.921875Q686.84686 117.546875 685.675 118.40625Q684.5031 119.25 682.925 119.25Q681.2375 119.25 680.175 118.3125Q679.1125 117.375 678.89374 115.6875ZM686.09686 109.375Q686.09686 107.859375 685.28436 106.96875Q684.4875 106.078125 683.34686 106.078125Q682.175 106.078125 681.3 107.046875Q680.4406 108.0 680.4406 109.515625Q680.4406 110.890625 681.2531 111.75Q682.08124 112.59375 683.3 112.59375Q684.51874 112.59375 685.3 111.75Q686.09686 110.890625 686.09686 109.375ZM689.6281 115.25L691.47186 115.09375Q691.675 116.4375 692.425 117.125Q693.175 117.796875 694.2375 117.796875Q695.5031 117.796875 696.3781 116.84375Q697.2531 115.890625 697.2531 114.296875Q697.2531 112.796875 696.40936 111.9375Q695.5656 111.0625 694.20624 111.0625Q693.34686 111.0625 692.65936 111.453125Q691.9875 111.828125 691.59686 112.453125L689.9406 112.234375L691.33124 104.875L698.45624 104.875L698.45624 106.5625L692.7375 106.5625L691.97186 110.40625Q693.2531 109.5 694.675 109.5Q696.55 109.5 697.83124 110.8125Q699.1281 112.109375 699.1281 114.140625Q699.1281 116.09375 697.9875 117.5Q696.6125 119.25 694.2375 119.25Q692.28436 119.25 691.03436 118.15625Q689.8 117.0625 689.6281 115.25ZM700.6281 111.9375Q700.6281 109.40625 701.14374 107.859375Q701.675 106.296875 702.70624 105.46875Q703.7375 104.625 705.3 104.625Q706.45624 104.625 707.3156 105.09375Q708.1906 105.546875 708.7531 106.421875Q709.3156 107.296875 709.64374 108.5625Q709.97186 109.8125 709.97186 111.9375Q709.97186 114.453125 709.4406 116.0Q708.925 117.546875 707.89374 118.40625Q706.8781 119.25 705.3 119.25Q703.22186 119.25 702.05 117.765625Q700.6281 115.96875 700.6281 111.9375ZM702.4406 111.9375Q702.4406 115.46875 703.2531 116.640625Q704.08124 117.796875 705.3 117.796875Q706.5031 117.796875 707.33124 116.625Q708.15936 115.453125 708.15936 111.9375Q708.15936 108.40625 707.33124 107.25Q706.5031 106.078125 705.28436 106.078125Q704.0656 106.078125 703.34686 107.109375Q702.4406 108.40625 702.4406 111.9375ZM710.9406 119.0L714.7375 113.609375L711.2375 108.625L713.425 108.625L715.01874 111.0625Q715.47186 111.75 715.7375 112.21875Q716.175 111.578125 716.53436 111.078125L718.28436 108.625L720.3781 108.625L716.8 113.515625L720.65936 119.0L718.5031 119.0L716.3625 115.78125L715.8 114.90625L713.08124 119.0L710.9406 119.0Z" fill-rule="nonzero"/><path fill="#fbbc04" d="M646.8 141.0C646.8 140.44771 647.24774 140.0 647.8 140.0L657.8 140.0C658.3523 140.0 658.8 140.44771 658.8 141.0L658.8 151.0C658.8 151.55229 658.3523 152.0 657.8 152.0L647.8 152.0C647.24774 152.0 646.8 151.55229 646.8 151.0Z" fill-rule="nonzero"/><path fill="#1a1a1a" d="M668.1281 140.70312L668.1281 138.6875L669.89374 138.6875L669.89374 140.70312L668.1281 140.70312ZM668.1281 153.0L668.1281 142.625L669.89374 142.625L669.89374 153.0L668.1281 153.0ZM671.89374 149.6875L673.58124 149.53125Q673.8 150.71875 674.39374 151.26562Q675.0031 151.79688 675.95624 151.79688Q676.76874 151.79688 677.3781 151.4375Q677.9875 151.0625 678.3781 150.4375Q678.76874 149.8125 679.03436 148.76562Q679.3 147.70312 679.3 146.60938Q679.3 146.5 679.28436 146.26562Q678.7531 147.09375 677.84686 147.625Q676.9406 148.14062 675.8625 148.14062Q674.09686 148.14062 672.8625 146.85938Q671.6281 145.5625 671.6281 143.45312Q671.6281 141.28125 672.90936 139.95312Q674.20624 138.625 676.1281 138.625Q677.53436 138.625 678.6906 139.375Q679.84686 140.125 680.4406 141.51562Q681.05 142.90625 681.05 145.54688Q681.05 148.29688 680.4406 149.92188Q679.84686 151.54688 678.675 152.40625Q677.5031 153.25 675.925 153.25Q674.2375 153.25 673.175 152.3125Q672.1125 151.375 671.89374 149.6875ZM679.09686 143.375Q679.09686 141.85938 678.28436 140.96875Q677.4875 140.07812 676.34686 140.07812Q675.175 140.07812 674.3 141.04688Q673.4406 142.0 673.4406 143.51562Q673.4406 144.89062 674.2531 145.75Q675.08124 146.59375 676.3 146.59375Q677.51874 146.59375 678.3 145.75Q679.09686 144.89062 679.09686 143.375ZM682.4406 148.70312L682.4406 146.9375L687.83124 146.9375L687.83124 148.70312L682.4406 148.70312ZM692.33124 145.23438Q691.2375 144.82812 690.70624 144.09375Q690.1906 143.34375 690.1906 142.3125Q690.1906 140.75 691.3156 139.6875Q692.4406 138.625 694.3 138.625Q696.175 138.625 697.3156 139.71875Q698.45624 140.79688 698.45624 142.35938Q698.45624 143.35938 697.925 144.09375Q697.40936 144.82812 696.34686 145.23438Q697.675 145.67188 698.3625 146.625Q699.05 147.57812 699.05 148.90625Q699.05 150.75 697.7375 152.0Q696.4406 153.25 694.33124 153.25Q692.20624 153.25 690.90936 152.0Q689.6125 150.73438 689.6125 148.85938Q689.6125 147.46875 690.3156 146.53125Q691.03436 145.57812 692.33124 145.23438ZM691.9875 142.25Q691.9875 143.26562 692.64374 143.92188Q693.3 144.5625 694.33124 144.5625Q695.34686 144.5625 696.0031 143.92188Q696.65936 143.28125 696.65936 142.35938Q696.65936 141.39062 695.9875 140.73438Q695.3156 140.0625 694.3156 140.0625Q693.3156 140.0625 692.64374 140.71875Q691.9875 141.35938 691.9875 142.25ZM691.425 148.875Q691.425 149.625 691.76874 150.32812Q692.1281 151.03125 692.83124 151.42188Q693.53436 151.79688 694.34686 151.79688Q695.6125 151.79688 696.425 150.98438Q697.2531 150.17188 697.2531 148.92188Q697.2531 147.65625 696.40936 146.82812Q695.5656 146.0 694.28436 146.0Q693.05 146.0 692.2375 146.82812Q691.425 147.64062 691.425 148.875ZM700.89374 149.6875L702.58124 149.53125Q702.8 150.71875 703.39374 151.26562Q704.0031 151.79688 704.95624 151.79688Q705.76874 151.79688 706.3781 151.4375Q706.9875 151.0625 707.3781 150.4375Q707.76874 149.8125 708.03436 148.76562Q708.3 147.70312 708.3 146.60938Q708.3 146.5 708.28436 146.26562Q707.7531 147.09375 706.84686 147.625Q705.9406 148.14062 704.8625 148.14062Q703.09686 148.14062 701.8625 146.85938Q700.6281 145.5625 700.6281 143.45312Q700.6281 141.28125 701.90936 139.95312Q703.20624 138.625 705.1281 138.625Q706.53436 138.625 707.6906 139.375Q708.84686 140.125 709.4406 141.51562Q710.05 142.90625 710.05 145.54688Q710.05 148.29688 709.4406 149.92188Q708.84686 151.54688 707.675 152.40625Q706.5031 153.25 704.925 153.25Q703.2375 153.25 702.175 152.3125Q701.1125 151.375 700.89374 149.6875ZM708.09686 143.375Q708.09686 141.85938 707.28436 140.96875Q706.4875 140.07812 705.34686 140.07812Q704.175 140.07812 703.3 141.04688Q702.4406 142.0 702.4406 143.51562Q702.4406 144.89062 703.2531 145.75Q704.08124 146.59375 705.3 146.59375Q706.51874 146.59375 707.3 145.75Q708.09686 144.89062 708.09686 143.375ZM711.6281 149.25L713.47186 149.09375Q713.675 150.4375 714.425 151.125Q715.175 151.79688 716.2375 151.79688Q717.5031 151.79688 718.3781 150.84375Q719.2531 149.89062 719.2531 148.29688Q719.2531 146.79688 718.40936 145.9375Q717.5656 145.0625 716.20624 145.0625Q715.34686 145.0625 714.65936 145.45312Q713.9875 145.82812 713.59686 146.45312L711.9406 146.23438L713.33124 138.875L720.45624 138.875L720.45624 140.5625L714.7375 140.5625L713.97186 144.40625Q715.2531 143.5 716.675 143.5Q718.55 143.5 719.83124 144.8125Q721.1281 146.10938 721.1281 148.14062Q721.1281 150.09375 719.9875 151.5Q718.6125 153.25 716.2375 153.25Q714.28436 153.25 713.03436 152.15625Q711.8 151.0625 711.6281 149.25ZM722.6281 145.9375Q722.6281 143.40625 723.14374 141.85938Q723.675 140.29688 724.70624 139.46875Q725.7375 138.625 727.3 138.625Q728.45624 138.625 729.3156 139.09375Q730.1906 139.54688 730.7531 140.42188Q731.3156 141.29688 731.64374 142.5625Q731.97186 143.8125 731.97186 145.9375Q731.97186 148.45312 731.4406 150.0Q730.925 151.54688 729.89374 152.40625Q728.8781 153.25 727.3 153.25Q725.22186 153.25 724.05 151.76562Q722.6281 149.96875 722.6281 145.9375ZM724.4406 145.9375Q724.4406 149.46875 725.2531 150.64062Q726.08124 151.79688 727.3 151.79688Q728.5031 151.79688 729.33124 150.625Q730.15936 149.45312 730.15936 145.9375Q730.15936 142.40625 729.33124 141.25Q728.5031 140.07812 727.28436 140.07812Q726.0656 140.07812 725.34686 141.10938Q724.4406 142.40625 724.4406 145.9375ZM734.40936 153.0L734.40936 138.6875L736.3 138.6875L736.3 144.5625L743.7375 144.5625L743.7375 138.6875L745.6281 138.6875L745.6281 153.0L743.7375 153.0L743.7375 146.25L736.3 146.25L736.3 153.0L734.40936 153.0ZM748.26874 153.0L748.26874 138.6875L750.15936 138.6875L750.15936 145.78125L757.26874 138.6875L759.83124 138.6875L753.83124 144.48438L760.09686 153.0L757.59686 153.0L752.5031 145.75L750.15936 148.03125L750.15936 153.0L748.26874 153.0Z" fill-rule="nonzero"/><path fill="#34a853" d="M646.8 175.0C646.8 174.44771 647.24774 174.0 647.8 174.0L657.8 174.0C658.3523 174.0 658.8 174.44771 658.8 175.0L658.8 185.0C658.8 185.55229 658.3523 186.0 657.8 186.0L647.8 186.0C647.24774 186.0 646.8 185.55229 646.8 185.0Z" fill-rule="nonzero"/><path fill="#1a1a1a" d="M668.1281 174.70312L668.1281 172.6875L669.89374 172.6875L669.89374 174.70312L668.1281 174.70312ZM668.1281 187.0L668.1281 176.625L669.89374 176.625L669.89374 187.0L668.1281 187.0ZM671.7531 174.5625L671.7531 172.875L681.01874 172.875L681.01874 174.23438Q679.64374 175.6875 678.3 178.10938Q676.95624 180.51562 676.2375 183.0625Q675.70624 184.85938 675.55 187.0L673.7531 187.0Q673.78436 185.3125 674.40936 182.92188Q675.05 180.53125 676.2375 178.3125Q677.425 176.07812 678.7531 174.5625L671.7531 174.5625ZM682.4406 182.70312L682.4406 180.9375L687.83124 180.9375L687.83124 182.70312L682.4406 182.70312ZM695.26874 187.0L695.26874 183.57812L689.05 183.57812L689.05 181.95312L695.58124 172.6875L697.01874 172.6875L697.01874 181.95312L698.95624 181.95312L698.95624 183.57812L697.01874 183.57812L697.01874 187.0L695.26874 187.0ZM695.26874 181.95312L695.26874 175.5L690.78436 181.95312L695.26874 181.95312ZM700.89374 183.6875L702.58124 183.53125Q702.8 184.71875 703.39374 185.26562Q704.0031 185.79688 704.95624 185.79688Q705.76874 185.79688 706.3781 185.4375Q706.9875 185.0625 707.3781 184.4375Q707.76874 183.8125 708.03436 182.76562Q708.3 181.70312 708.3 180.60938Q708.3 180.5 708.28436 180.26562Q707.7531 181.09375 706.84686 181.625Q705.9406 182.14062 704.8625 182.14062Q703.09686 182.14062 701.8625 180.85938Q700.6281 179.5625 700.6281 177.45312Q700.6281 175.28125 701.90936 173.95312Q703.20624 172.625 705.1281 172.625Q706.53436 172.625 707.6906 173.375Q708.84686 174.125 709.4406 175.51562Q710.05 176.90625 710.05 179.54688Q710.05 182.29688 709.4406 183.92188Q708.84686 185.54688 707.675 186.40625Q706.5031 187.25 704.925 187.25Q703.2375 187.25 702.175 186.3125Q701.1125 185.375 700.89374 183.6875ZM708.09686 177.375Q708.09686 175.85938 707.28436 174.96875Q706.4875 174.07812 705.34686 174.07812Q704.175 174.07812 703.3 175.04688Q702.4406 176.0 702.4406 177.51562Q702.4406 178.89062 703.2531 179.75Q704.08124 180.59375 705.3 180.59375Q706.51874 180.59375 707.3 179.75Q708.09686 178.89062 708.09686 177.375ZM720.7531 176.1875L719.0031 176.32812Q718.76874 175.29688 718.34686 174.82812Q717.6281 174.0625 716.58124 174.0625Q715.7375 174.0625 715.1125 174.53125Q714.28436 175.14062 713.8 176.3125Q713.3156 177.46875 713.3 179.60938Q713.9406 178.65625 714.84686 178.1875Q715.76874 177.71875 716.78436 177.71875Q718.53436 177.71875 719.76874 179.01562Q721.0031 180.29688 721.0031 182.34375Q721.0031 183.70312 720.425 184.85938Q719.84686 186.01562 718.83124 186.64062Q717.8156 187.25 716.51874 187.25Q714.33124 187.25 712.9406 185.64062Q711.55 184.01562 711.55 180.29688Q711.55 176.15625 713.08124 174.26562Q714.425 172.625 716.6906 172.625Q718.3781 172.625 719.45624 173.57812Q720.53436 174.51562 720.7531 176.1875ZM713.58124 182.35938Q713.58124 183.26562 713.95624 184.09375Q714.34686 184.92188 715.03436 185.35938Q715.7375 185.79688 716.4875 185.79688Q717.6125 185.79688 718.40936 184.90625Q719.20624 184.0 719.20624 182.45312Q719.20624 180.96875 718.40936 180.125Q717.6281 179.26562 716.425 179.26562Q715.2375 179.26562 714.40936 180.125Q713.58124 180.96875 713.58124 182.35938ZM722.6281 179.9375Q722.6281 177.40625 723.14374 175.85938Q723.675 174.29688 724.70624 173.46875Q725.7375 172.625 727.3 172.625Q728.45624 172.625 729.3156 173.09375Q730.1906 173.54688 730.7531 174.42188Q731.3156 175.29688 731.64374 176.5625Q731.97186 177.8125 731.97186 179.9375Q731.97186 182.45312 731.4406 184.0Q730.925 185.54688 729.89374 186.40625Q728.8781 187.25 727.3 187.25Q725.22186 187.25 724.05 185.76562Q722.6281 183.96875 722.6281 179.9375ZM724.4406 179.9375Q724.4406 183.46875 725.2531 184.64062Q726.08124 185.79688 727.3 185.79688Q728.5031 185.79688 729.33124 184.625Q730.15936 183.45312 730.15936 179.9375Q730.15936 176.40625 729.33124 175.25Q728.5031 174.07812 727.28436 174.07812Q726.0656 174.07812 725.34686 175.10938Q724.4406 176.40625 724.4406 179.9375ZM734.40936 187.0L734.40936 172.6875L736.3 172.6875L736.3 178.5625L743.7375 178.5625L743.7375 172.6875L745.6281 172.6875L745.6281 187.0L743.7375 187.0L743.7375 180.25L736.3 180.25L736.3 187.0L734.40936 187.0ZM759.1906 185.46875Q760.51874 186.375 761.6281 186.79688L761.0656 188.10938Q759.51874 187.5625 757.9875 186.35938Q756.39374 187.25 754.47186 187.25Q752.53436 187.25 750.9406 186.3125Q749.3625 185.375 748.5031 183.67188Q747.65936 181.96875 747.65936 179.84375Q747.65936 177.71875 748.51874 175.98438Q749.3781 174.25 750.95624 173.34375Q752.55 172.42188 754.51874 172.42188Q756.5031 172.42188 758.08124 173.375Q759.675 174.3125 760.5031 176.01562Q761.34686 177.70312 761.34686 179.82812Q761.34686 181.59375 760.8156 183.01562Q760.28436 184.42188 759.1906 185.46875ZM755.01874 183.04688Q756.65936 183.5 757.72186 184.40625Q759.39374 182.89062 759.39374 179.82812Q759.39374 178.09375 758.8 176.79688Q758.22186 175.5 757.08124 174.78125Q755.9406 174.0625 754.51874 174.0625Q752.40936 174.0625 751.0031 175.51562Q749.6125 176.95312 749.6125 179.84375Q749.6125 182.64062 750.9875 184.14062Q752.3781 185.625 754.51874 185.625Q755.53436 185.625 756.4406 185.23438Q755.55 184.67188 754.5656 184.42188L755.01874 183.04688Z" fill-rule="nonzero"/><path fill="#ff6d01" d="M646.8 209.0C646.8 208.44771 647.24774 208.0 647.8 208.0L657.8 208.0C658.3523 208.0 658.8 208.44771 658.8 209.0L658.8 219.0C658.8 219.55229 658.3523 220.0 657.8 220.0L647.8 220.0C647.24774 220.0 646.8 219.55229 646.8 219.0Z" fill-rule="nonzero"/><path fill="#1a1a1a" d="M668.1281 208.70312L668.1281 206.6875L669.89374 206.6875L669.89374 208.70312L668.1281 208.70312ZM668.1281 221.0L668.1281 210.625L669.89374 210.625L669.89374 221.0L668.1281 221.0ZM671.6281 217.25L673.47186 217.09375Q673.675 218.4375 674.425 219.125Q675.175 219.79688 676.2375 219.79688Q677.5031 219.79688 678.3781 218.84375Q679.2531 217.89062 679.2531 216.29688Q679.2531 214.79688 678.40936 213.9375Q677.5656 213.0625 676.20624 213.0625Q675.34686 213.0625 674.65936 213.45312Q673.9875 213.82812 673.59686 214.45312L671.9406 214.23438L673.33124 206.875L680.45624 206.875L680.45624 208.5625L674.7375 208.5625L673.97186 212.40625Q675.2531 211.5 676.675 211.5Q678.55 211.5 679.83124 212.8125Q681.1281 214.10938 681.1281 216.14062Q681.1281 218.09375 679.9875 219.5Q678.6125 221.25 676.2375 221.25Q674.28436 221.25 673.03436 220.15625Q671.8 219.0625 671.6281 217.25ZM682.4406 216.70312L682.4406 214.9375L687.83124 214.9375L687.83124 216.70312L682.4406 216.70312ZM689.7531 208.5625L689.7531 206.875L699.01874 206.875L699.01874 208.23438Q697.64374 209.6875 696.3 212.10938Q694.95624 214.51562 694.2375 217.0625Q693.70624 218.85938 693.55 221.0L691.7531 221.0Q691.78436 219.3125 692.40936 216.92188Q693.05 214.53125 694.2375 212.3125Q695.425 210.07812 696.7531 208.5625L689.7531 208.5625ZM700.6281 217.25L702.47186 217.09375Q702.675 218.4375 703.425 219.125Q704.175 219.79688 705.2375 219.79688Q706.5031 219.79688 707.3781 218.84375Q708.2531 217.89062 708.2531 216.29688Q708.2531 214.79688 707.40936 213.9375Q706.5656 213.0625 705.20624 213.0625Q704.34686 213.0625 703.65936 213.45312Q702.9875 213.82812 702.59686 214.45312L700.9406 214.23438L702.33124 206.875L709.45624 206.875L709.45624 208.5625L703.7375 208.5625L702.97186 212.40625Q704.2531 211.5 705.675 211.5Q707.55 211.5 708.83124 212.8125Q710.1281 214.10938 710.1281 216.14062Q710.1281 218.09375 708.9875 219.5Q707.6125 221.25 705.2375 221.25Q703.28436 221.25 702.03436 220.15625Q700.8 219.0625 700.6281 217.25ZM711.6281 213.9375Q711.6281 211.40625 712.14374 209.85938Q712.675 208.29688 713.70624 207.46875Q714.7375 206.625 716.3 206.625Q717.45624 206.625 718.3156 207.09375Q719.1906 207.54688 719.7531 208.42188Q720.3156 209.29688 720.64374 210.5625Q720.97186 211.8125 720.97186 213.9375Q720.97186 216.45312 720.4406 218.0Q719.925 219.54688 718.89374 220.40625Q717.8781 221.25 716.3 221.25Q714.22186 221.25 713.05 219.76562Q711.6281 217.96875 711.6281 213.9375ZM713.4406 213.9375Q713.4406 217.46875 714.2531 218.64062Q715.08124 219.79688 716.3 219.79688Q717.5031 219.79688 718.33124 218.625Q719.15936 217.45312 719.15936 213.9375Q719.15936 210.40625 718.33124 209.25Q717.5031 208.07812 716.28436 208.07812Q715.0656 208.07812 714.34686 209.10938Q713.4406 210.40625 713.4406 213.9375ZM722.6281 213.9375Q722.6281 211.40625 723.14374 209.85938Q723.675 208.29688 724.70624 207.46875Q725.7375 206.625 727.3 206.625Q728.45624 206.625 729.3156 207.09375Q730.1906 207.54688 730.7531 208.42188Q731.3156 209.29688 731.64374 210.5625Q731.97186 211.8125 731.97186 213.9375Q731.97186 216.45312 731.4406 218.0Q730.925 219.54688 729.89374 220.40625Q728.8781 221.25 727.3 221.25Q725.22186 221.25 724.05 219.76562Q722.6281 217.96875 722.6281 213.9375ZM724.4406 213.9375Q724.4406 217.46875 725.2531 218.64062Q726.08124 219.79688 727.3 219.79688Q728.5031 219.79688 729.33124 218.625Q730.15936 217.45312 730.15936 213.9375Q730.15936 210.40625 729.33124 209.25Q728.5031 208.07812 727.28436 208.07812Q726.0656 208.07812 725.34686 209.10938Q724.4406 210.40625 724.4406 213.9375Z" fill-rule="nonzero"/><path fill="#46bdc6" d="M646.8 243.0C646.8 242.44771 647.24774 242.0 647.8 242.0L657.8 242.0C658.3523 242.0 658.8 242.44771 658.8 243.0L658.8 253.0C658.8 253.55229 658.3523 254.0 657.8 254.0L647.8 254.0C647.24774 254.0 646.8 253.55229 646.8 253.0Z" fill-rule="nonzero"/><path fill="#1a1a1a" d="M667.64374 251.21875L669.39374 250.98438Q669.70624 252.48438 670.425 253.14062Q671.15936 253.79688 672.20624 253.79688Q673.4406 253.79688 674.28436 252.9375Q675.14374 252.07812 675.14374 250.8125Q675.14374 249.59375 674.34686 248.8125Q673.5656 248.03125 672.34686 248.03125Q671.84686 248.03125 671.1125 248.21875L671.3 246.67188Q671.47186 246.70312 671.58124 246.70312Q672.70624 246.70312 673.59686 246.125Q674.5031 245.53125 674.5031 244.3125Q674.5031 243.34375 673.84686 242.70312Q673.1906 242.0625 672.15936 242.0625Q671.14374 242.0625 670.45624 242.71875Q669.76874 243.35938 669.58124 244.64062L667.8156 244.32812Q668.14374 242.5625 669.28436 241.59375Q670.425 240.625 672.1281 240.625Q673.3 240.625 674.28436 241.125Q675.26874 241.625 675.78436 242.5Q676.3156 243.375 676.3156 244.34375Q676.3156 245.26562 675.8156 246.03125Q675.3156 246.79688 674.34686 247.25Q675.6125 247.53125 676.3156 248.46875Q677.01874 249.39062 677.01874 250.76562Q677.01874 252.64062 675.64374 253.95312Q674.28436 255.25 672.1906 255.25Q670.3 255.25 669.05 254.125Q667.8156 253.0 667.64374 251.21875ZM687.7531 244.1875L686.0031 244.32812Q685.76874 243.29688 685.34686 242.82812Q684.6281 242.0625 683.58124 242.0625Q682.7375 242.0625 682.1125 242.53125Q681.28436 243.14062 680.8 244.3125Q680.3156 245.46875 680.3 247.60938Q680.9406 246.65625 681.84686 246.1875Q682.76874 245.71875 683.78436 245.71875Q685.53436 245.71875 686.76874 247.01562Q688.0031 248.29688 688.0031 250.34375Q688.0031 251.70312 687.425 252.85938Q686.84686 254.01562 685.83124 254.64062Q684.8156 255.25 683.51874 255.25Q681.33124 255.25 679.9406 253.64062Q678.55 252.01562 678.55 248.29688Q678.55 244.15625 680.08124 242.26562Q681.425 240.625 683.6906 240.625Q685.3781 240.625 686.45624 241.57812Q687.53436 242.51562 687.7531 244.1875ZM680.58124 250.35938Q680.58124 251.26562 680.95624 252.09375Q681.34686 252.92188 682.03436 253.35938Q682.7375 253.79688 683.4875 253.79688Q684.6125 253.79688 685.40936 252.90625Q686.20624 252.0 686.20624 250.45312Q686.20624 248.96875 685.40936 248.125Q684.6281 247.26562 683.425 247.26562Q682.2375 247.26562 681.40936 248.125Q680.58124 248.96875 680.58124 250.35938ZM689.6281 247.9375Q689.6281 245.40625 690.14374 243.85938Q690.675 242.29688 691.70624 241.46875Q692.7375 240.625 694.3 240.625Q695.45624 240.625 696.3156 241.09375Q697.1906 241.54688 697.7531 242.42188Q698.3156 243.29688 698.64374 244.5625Q698.97186 245.8125 698.97186 247.9375Q698.97186 250.45312 698.4406 252.0Q697.925 253.54688 696.89374 254.40625Q695.8781 255.25 694.3 255.25Q692.22186 255.25 691.05 253.76562Q689.6281 251.96875 689.6281 247.9375ZM691.4406 247.9375Q691.4406 251.46875 692.2531 252.64062Q693.08124 253.79688 694.3 253.79688Q695.5031 253.79688 696.33124 252.625Q697.15936 251.45312 697.15936 247.9375Q697.15936 244.40625 696.33124 243.25Q695.5031 242.07812 694.28436 242.07812Q693.0656 242.07812 692.34686 243.10938Q691.4406 244.40625 691.4406 247.9375ZM700.6281 247.9375Q700.6281 245.40625 701.14374 243.85938Q701.675 242.29688 702.70624 241.46875Q703.7375 240.625 705.3 240.625Q706.45624 240.625 707.3156 241.09375Q708.1906 241.54688 708.7531 242.42188Q709.3156 243.29688 709.64374 244.5625Q709.97186 245.8125 709.97186 247.9375Q709.97186 250.45312 709.4406 252.0Q708.925 253.54688 707.89374 254.40625Q706.8781 255.25 705.3 255.25Q703.22186 255.25 702.05 253.76562Q700.6281 251.96875 700.6281 247.9375ZM702.4406 247.9375Q702.4406 251.46875 703.2531 252.64062Q704.08124 253.79688 705.3 253.79688Q706.5031 253.79688 707.33124 252.625Q708.15936 251.45312 708.15936 247.9375Q708.15936 244.40625 707.33124 243.25Q706.5031 242.07812 705.28436 242.07812Q704.0656 242.07812 703.34686 243.10938Q702.4406 244.40625 702.4406 247.9375Z" fill-rule="nonzero"/><path fill="#757575" d="M26.10625 39.60625L27.8875 39.45Q28.0125 40.5125 28.465626 41.2Q28.934376 41.8875 29.903126 42.325Q30.8875 42.746876 32.121876 42.746876Q33.2 42.746876 34.028126 42.434376Q34.85625 42.10625 35.2625 41.54375Q35.66875 40.98125 35.66875 40.309376Q35.66875 39.6375 35.278126 39.1375Q34.8875 38.6375 33.996876 38.29375Q33.41875 38.059376 31.434376 37.590626Q29.465626 37.121876 28.684376 36.7Q27.653126 36.16875 27.153126 35.371876Q26.653126 34.575 26.653126 33.590626Q26.653126 32.496876 27.2625 31.559376Q27.871876 30.621876 29.059376 30.1375Q30.246876 29.6375 31.684376 29.6375Q33.278126 29.6375 34.496876 30.153126Q35.715626 30.66875 36.35625 31.66875Q37.0125 32.653126 37.059376 33.91875L35.246876 34.059376Q35.10625 32.7 34.2625 32.0125Q33.41875 31.309376 31.7625 31.309376Q30.04375 31.309376 29.246876 31.95Q28.465626 32.575 28.465626 33.45Q28.465626 34.23125 29.028126 34.73125Q29.575 35.23125 31.8875 35.746876Q34.2 36.2625 35.059376 36.653126Q36.309376 37.23125 36.903126 38.121876Q37.496876 38.996876 37.496876 40.153126Q37.496876 41.29375 36.840626 42.309376Q36.184376 43.325 34.95 43.8875Q33.73125 44.45 32.2 44.45Q30.2625 44.45 28.95 43.8875Q27.6375 43.309376 26.8875 42.16875Q26.1375 41.028126 26.10625 39.60625ZM38.871876 39.0125Q38.871876 36.1375 40.465626 34.746876Q41.809376 33.590626 43.73125 33.590626Q45.871876 33.590626 47.215626 34.996876Q48.575 36.403126 48.575 38.871876Q48.575 40.871876 47.98125 42.028126Q47.3875 43.16875 46.23125 43.809376Q45.090626 44.434376 43.73125 44.434376Q41.54375 44.434376 40.2 43.04375Q38.871876 41.6375 38.871876 39.0125ZM40.66875 39.0125Q40.66875 41.0125 41.528126 41.996876Q42.403126 42.98125 43.73125 42.98125Q45.04375 42.98125 45.903126 41.996876Q46.778126 40.996876 46.778126 38.95Q46.778126 37.028126 45.903126 36.04375Q45.028126 35.04375 43.73125 35.04375Q42.403126 35.04375 41.528126 36.04375Q40.66875 37.028126 40.66875 39.0125ZM57.29375 40.403126L59.0125 40.621876Q58.73125 42.41875 57.559376 43.434376Q56.403126 44.434376 54.7 44.434376Q52.575 44.434376 51.278126 43.04375Q49.98125 41.653126 49.98125 39.059376Q49.98125 37.371876 50.528126 36.121876Q51.090626 34.85625 52.23125 34.23125Q53.371876 33.590626 54.715626 33.590626Q56.403126 33.590626 57.465626 34.45Q58.54375 35.309376 58.85625 36.871876L57.1375 37.1375Q56.903126 36.090626 56.278126 35.575Q55.653126 35.04375 54.778126 35.04375Q53.45 35.04375 52.621876 35.996876Q51.79375 36.95 51.79375 38.996876Q51.79375 41.090626 52.590626 42.04375Q53.3875 42.98125 54.684376 42.98125Q55.715626 42.98125 56.403126 42.35625Q57.10625 41.715626 57.29375 40.403126ZM60.528126 44.2L60.528126 29.8875L62.29375 29.8875L62.29375 38.04375L66.45 33.825L68.71562 33.825L64.7625 37.66875L69.12187 44.2L66.95 44.2L63.528126 38.903126L62.29375 40.090626L62.29375 44.2L60.528126 44.2ZM77.62187 40.85625L79.43437 41.090626Q79.0125 42.66875 77.84062 43.559376Q76.68437 44.434376 74.87187 44.434376Q72.60625 44.434376 71.2625 43.04375Q69.93437 41.6375 69.93437 39.10625Q69.93437 36.48125 71.27812 35.04375Q72.62187 33.590626 74.77812 33.590626Q76.85625 33.590626 78.16875 35.0125Q79.49687 36.41875 79.49687 38.996876Q79.49687 39.153126 79.48125 39.465626L71.74687 39.465626Q71.84062 41.16875 72.71562 42.075Q73.59062 42.98125 74.8875 42.98125Q75.85625 42.98125 76.52812 42.48125Q77.21562 41.965626 77.62187 40.85625ZM71.84062 38.0125L77.6375 38.0125Q77.52812 36.715626 76.98125 36.059376Q76.1375 35.04375 74.79375 35.04375Q73.59062 35.04375 72.7625 35.85625Q71.93437 36.653126 71.84062 38.0125ZM85.35625 42.621876L85.60625 44.184376Q84.87187 44.340626 84.27812 44.340626Q83.325 44.340626 82.79375 44.04375Q82.27812 43.73125 82.05937 43.246876Q81.84062 42.746876 81.84062 41.16875L81.84062 35.2L80.55937 35.2L80.55937 33.825L81.84062 33.825L81.84062 31.2625L83.59062 30.2L83.59062 33.825L85.35625 33.825L85.35625 35.2L83.59062 35.2L83.59062 41.2625Q83.59062 42.0125 83.68437 42.23125Q83.77812 42.434376 83.98125 42.575Q84.2 42.7 84.59062 42.7Q84.87187 42.7 85.35625 42.621876ZM96.24687 44.2L92.45 29.8875L94.3875 29.8875L96.55937 39.2625Q96.91875 40.746876 97.16875 42.2Q97.71562 39.903126 97.80937 39.54375L100.54375 29.8875L102.825 29.8875L104.87187 37.121876Q105.65312 39.825 105.99687 42.2Q106.2625 40.840626 106.7 39.075L108.95 29.8875L110.85625 29.8875L106.93437 44.2L105.10625 44.2L102.09062 33.29375Q101.7 31.91875 101.6375 31.60625Q101.40312 32.590626 101.21562 33.29375L98.18437 44.2L96.24687 44.2ZM119.62187 40.85625L121.43437 41.090626Q121.0125 42.66875 119.84062 43.559376Q118.68437 44.434376 116.87187 44.434376Q114.60625 44.434376 113.2625 43.04375Q111.93437 41.6375 111.93437 39.10625Q111.93437 36.48125 113.27812 35.04375Q114.62187 33.590626 116.77812 33.590626Q118.85625 33.590626 120.16875 35.0125Q121.49687 36.41875 121.49687 38.996876Q121.49687 39.153126 121.48125 39.465626L113.74687 39.465626Q113.84062 41.16875 114.71562 42.075Q115.59062 42.98125 116.8875 42.98125Q117.85625 42.98125 118.52812 42.48125Q119.21562 41.965626 119.62187 40.85625ZM113.84062 38.0125L119.6375 38.0125Q119.52812 36.715626 118.98125 36.059376Q118.1375 35.04375 116.79375 35.04375Q115.59062 35.04375 114.7625 35.85625Q113.93437 36.653126 113.84062 38.0125ZM130.29375 42.91875Q129.30937 43.746876 128.40312 44.090626Q127.49687 44.434376 126.46562 44.434376Q124.7625 44.434376 123.84062 43.60625Q122.91875 42.7625 122.91875 41.465626Q122.91875 40.7 123.2625 40.075Q123.62187 39.45 124.18437 39.075Q124.74687 38.684376 125.45 38.48125Q125.96562 38.35625 127.0125 38.215626Q129.1375 37.965626 130.1375 37.621876Q130.15312 37.2625 130.15312 37.153126Q130.15312 36.090626 129.65312 35.6375Q128.98125 35.04375 127.65312 35.04375Q126.40312 35.04375 125.80937 35.48125Q125.23125 35.91875 124.95 37.028126L123.23125 36.79375Q123.46562 35.684376 123.99687 35.0125Q124.52812 34.325 125.54375 33.965626Q126.55937 33.590626 127.90312 33.590626Q129.23125 33.590626 130.05937 33.903126Q130.8875 34.215626 131.27812 34.7Q131.66875 35.16875 131.825 35.8875Q131.91875 36.340626 131.91875 37.5125L131.91875 39.85625Q131.91875 42.309376 132.02812 42.965626Q132.1375 43.60625 132.48125 44.2L130.6375 44.2Q130.37187 43.653126 130.29375 42.91875ZM130.1375 38.996876Q129.18437 39.3875 127.2625 39.653126Q126.18437 39.809376 125.73125 40.0125Q125.29375 40.2 125.04375 40.575Q124.79375 40.95 124.79375 41.41875Q124.79375 42.121876 125.325 42.590626Q125.85625 43.059376 126.8875 43.059376Q127.90312 43.059376 128.68437 42.621876Q129.48125 42.16875 129.85625 41.403126Q130.1375 40.79375 130.1375 39.6375L130.1375 38.996876ZM138.35625 42.621876L138.60625 44.184376Q137.87187 44.340626 137.27812 44.340626Q136.325 44.340626 135.79375 44.04375Q135.27812 43.73125 135.05937 43.246876Q134.84062 42.746876 134.84062 41.16875L134.84062 35.2L133.55937 35.2L133.55937 33.825L134.84062 33.825L134.84062 31.2625L136.59062 30.2L136.59062 33.825L138.35625 33.825L138.35625 35.2L136.59062 35.2L136.59062 41.2625Q136.59062 42.0125 136.68437 42.23125Q136.77812 42.434376 136.98125 42.575Q137.2 42.7 137.59062 42.7Q137.87187 42.7 138.35625 42.621876ZM140.5125 44.2L140.5125 29.8875L142.27812 29.8875L142.27812 35.0125Q143.5125 33.590626 145.3875 33.590626Q146.52812 33.590626 147.37187 34.04375Q148.23125 34.496876 148.59062 35.309376Q148.96562 36.10625 148.96562 37.621876L148.96562 44.2L147.21562 44.2L147.21562 37.621876Q147.21562 36.309376 146.6375 35.715626Q146.05937 35.10625 145.02812 35.10625Q144.24687 35.10625 143.54375 35.5125Q142.85625 35.91875 142.55937 36.621876Q142.27812 37.309376 142.27812 38.528126L142.27812 44.2L140.5125 44.2ZM158.62187 40.85625L160.43437 41.090626Q160.0125 42.66875 158.84062 43.559376Q157.68437 44.434376 155.87187 44.434376Q153.60625 44.434376 152.2625 43.04375Q150.93437 41.6375 150.93437 39.10625Q150.93437 36.48125 152.27812 35.04375Q153.62187 33.590626 155.77812 33.590626Q157.85625 33.590626 159.16875 35.0125Q160.49687 36.41875 160.49687 38.996876Q160.49687 39.153126 160.48125 39.465626L152.74687 39.465626Q152.84062 41.16875 153.71562 42.075Q154.59062 42.98125 155.8875 42.98125Q156.85625 42.98125 157.52812 42.48125Q158.21562 41.965626 158.62187 40.85625ZM152.84062 38.0125L158.6375 38.0125Q158.52812 36.715626 157.98125 36.059376Q157.1375 35.04375 155.79375 35.04375Q154.59062 35.04375 153.7625 35.85625Q152.93437 36.653126 152.84062 38.0125ZM162.49687 44.2L162.49687 33.825L164.075 33.825L164.075 35.403126Q164.68437 34.29375 165.2 33.95Q165.71562 33.590626 166.325 33.590626Q167.21562 33.590626 168.1375 34.153126L167.52812 35.79375Q166.8875 35.403126 166.24687 35.403126Q165.66875 35.403126 165.2 35.7625Q164.74687 36.10625 164.54375 36.715626Q164.2625 37.653126 164.2625 38.7625L164.2625 44.2L162.49687 44.2ZM175.93437 44.2L175.93437 35.2L174.3875 35.2L174.3875 33.825L175.93437 33.825L175.93437 32.73125Q175.93437 31.684376 176.12187 31.16875Q176.37187 30.48125 177.0125 30.059376Q177.65312 29.6375 178.80937 29.6375Q179.55937 29.6375 180.45 29.809376L180.18437 31.340626Q179.6375 31.246876 179.15312 31.246876Q178.35625 31.246876 178.0125 31.590626Q177.68437 31.934376 177.68437 32.871876L177.68437 33.825L179.71562 33.825L179.71562 35.2L177.68437 35.2L177.68437 44.2L175.93437 44.2ZM188.30937 44.2L188.30937 42.66875Q187.10625 44.434376 185.02812 44.434376Q184.10625 44.434376 183.30937 44.090626Q182.5125 43.73125 182.12187 43.2Q181.74687 42.66875 181.59062 41.8875Q181.48125 41.371876 181.48125 40.246876L181.48125 33.825L183.23125 33.825L183.23125 39.575Q183.23125 40.95 183.34062 41.434376Q183.5125 42.121876 184.04375 42.528126Q184.59062 42.91875 185.37187 42.91875Q186.16875 42.91875 186.85625 42.5125Q187.55937 42.10625 187.84062 41.41875Q188.1375 40.715626 188.1375 39.3875L188.1375 33.825L189.8875 33.825L189.8875 44.2L188.30937 44.2ZM192.48125 44.2L192.48125 29.8875L194.23125 29.8875L194.23125 44.2L192.48125 44.2ZM196.48125 44.2L196.48125 29.8875L198.23125 29.8875L198.23125 44.2L196.48125 44.2ZM208.1375 44.2L206.5125 44.2L206.5125 29.8875L208.2625 29.8875L208.2625 34.996876Q209.3875 33.590626 211.10625 33.590626Q212.05937 33.590626 212.91875 33.98125Q213.77812 34.371876 214.325 35.075Q214.87187 35.7625 215.18437 36.746876Q215.49687 37.73125 215.49687 38.85625Q215.49687 41.528126 214.18437 42.98125Q212.87187 44.434376 211.02812 44.434376Q209.18437 44.434376 208.1375 42.903126L208.1375 44.2ZM208.12187 38.934376Q208.12187 40.79375 208.62187 41.6375Q209.46562 42.98125 210.87187 42.98125Q212.02812 42.98125 212.85625 41.98125Q213.7 40.98125 213.7 38.996876Q213.7 36.965626 212.8875 36.0125Q212.09062 35.04375 210.95 35.04375Q209.79375 35.04375 208.95 36.04375Q208.12187 37.04375 208.12187 38.934376ZM224.30937 44.2L224.30937 42.66875Q223.10625 44.434376 221.02812 44.434376Q220.10625 44.434376 219.30937 44.090626Q218.5125 43.73125 218.12187 43.2Q217.74687 42.66875 217.59062 41.8875Q217.48125 41.371876 217.48125 40.246876L217.48125 33.825L219.23125 33.825L219.23125 39.575Q219.23125 40.95 219.34062 41.434376Q219.5125 42.121876 220.04375 42.528126Q220.59062 42.91875 221.37187 42.91875Q222.16875 42.91875 222.85625 42.5125Q223.55937 42.10625 223.84062 41.41875Q224.1375 40.715626 224.1375 39.3875L224.1375 33.825L225.8875 33.825L225.8875 44.2L224.30937 44.2ZM228.52812 31.903126L228.52812 29.8875L230.29375 29.8875L230.29375 31.903126L228.52812 31.903126ZM228.52812 44.2L228.52812 33.825L230.29375 33.825L230.29375 44.2L228.52812 44.2ZM232.48125 44.2L232.48125 29.8875L234.23125 29.8875L234.23125 44.2L232.48125 44.2ZM243.24687 44.2L243.24687 42.8875Q242.2625 44.434376 240.34062 44.434376Q239.10625 44.434376 238.05937 43.746876Q237.02812 43.059376 236.45 41.840626Q235.8875 40.621876 235.8875 39.028126Q235.8875 37.465626 236.40312 36.2Q236.91875 34.934376 237.95 34.2625Q238.99687 33.590626 240.2625 33.590626Q241.2 33.590626 241.93437 33.996876Q242.66875 34.3875 243.1375 35.0125L243.1375 29.8875L244.87187 29.8875L244.87187 44.2L243.24687 44.2ZM237.68437 39.028126Q237.68437 41.0125 238.52812 41.996876Q239.37187 42.98125 240.5125 42.98125Q241.66875 42.98125 242.46562 42.04375Q243.27812 41.10625 243.27812 39.16875Q243.27812 37.04375 242.45 36.04375Q241.6375 35.04375 240.43437 35.04375Q239.2625 35.04375 238.46562 36.0125Q237.68437 36.965626 237.68437 39.028126ZM253.52812 31.903126L253.52812 29.8875L255.29375 29.8875L255.29375 31.903126L253.52812 31.903126ZM253.52812 44.2L253.52812 33.825L255.29375 33.825L255.29375 44.2L253.52812 44.2ZM257.5125 44.2L257.5125 33.825L259.10626 33.825L259.10626 35.309376Q260.2469 33.590626 262.40314 33.590626Q263.34064 33.590626 264.1219 33.934376Q264.91876 34.2625 265.3094 34.809376Q265.7 35.35625 265.85626 36.10625Q265.95 36.60625 265.95 37.825L265.95 44.2L264.1844 44.2L264.1844 37.8875Q264.1844 36.809376 263.98126 36.278126Q263.77814 35.746876 263.2469 35.434376Q262.73126 35.121876 262.02814 35.121876Q260.90314 35.121876 260.09064 35.840626Q259.27814 36.54375 259.27814 38.528126L259.27814 44.2L257.5125 44.2ZM273.8094 41.10625L275.5594 40.825Q275.7 41.871876 276.3719 42.434376Q277.04376 42.98125 278.2469 42.98125Q279.45 42.98125 280.02814 42.496876Q280.6219 41.996876 280.6219 41.340626Q280.6219 40.746876 280.10626 40.403126Q279.7469 40.16875 278.3094 39.809376Q276.3719 39.309376 275.6219 38.965626Q274.8875 38.60625 274.4969 37.98125Q274.10626 37.340626 274.10626 36.575Q274.10626 35.8875 274.41876 35.29375Q274.7469 34.7 275.29376 34.309376Q275.7 34.0125 276.40314 33.809376Q277.1219 33.590626 277.9344 33.590626Q279.15314 33.590626 280.075 33.95Q280.9969 34.29375 281.4344 34.903126Q281.8719 35.496876 282.04376 36.496876L280.325 36.73125Q280.2 35.934376 279.6375 35.496876Q279.075 35.04375 278.0594 35.04375Q276.84064 35.04375 276.325 35.45Q275.8094 35.840626 275.8094 36.371876Q275.8094 36.715626 276.02814 36.996876Q276.23126 37.278126 276.7 37.465626Q276.96564 37.559376 278.2469 37.903126Q280.1219 38.403126 280.85626 38.73125Q281.59064 39.04375 282.0125 39.653126Q282.4344 40.246876 282.4344 41.153126Q282.4344 42.028126 281.91876 42.809376Q281.40314 43.590626 280.4344 44.0125Q279.46564 44.434376 278.2469 44.434376Q276.23126 44.434376 275.16876 43.590626Q274.10626 42.746876 273.8094 41.10625ZM291.6219 40.85625L293.4344 41.090626Q293.0125 42.66875 291.84064 43.559376Q290.6844 44.434376 288.8719 44.434376Q286.60626 44.434376 285.2625 43.04375Q283.9344 41.6375 283.9344 39.10625Q283.9344 36.48125 285.27814 35.04375Q286.6219 33.590626 288.77814 33.590626Q290.85626 33.590626 292.16876 35.0125Q293.4969 36.41875 293.4969 38.996876Q293.4969 39.153126 293.48126 39.465626L285.7469 39.465626Q285.84064 41.16875 286.71564 42.075Q287.59064 42.98125 288.8875 42.98125Q289.85626 42.98125 290.52814 42.48125Q291.21564 41.965626 291.6219 40.85625ZM285.84064 38.0125L291.6375 38.0125Q291.52814 36.715626 290.98126 36.059376Q290.1375 35.04375 288.79376 35.04375Q287.59064 35.04375 286.7625 35.85625Q285.9344 36.653126 285.84064 38.0125ZM302.29376 40.403126L304.0125 40.621876Q303.73126 42.41875 302.5594 43.434376Q301.40314 44.434376 299.7 44.434376Q297.575 44.434376 296.27814 43.04375Q294.98126 41.653126 294.98126 39.059376Q294.98126 37.371876 295.52814 36.121876Q296.09064 34.85625 297.23126 34.23125Q298.3719 33.590626 299.71564 33.590626Q301.40314 33.590626 302.46564 34.45Q303.54376 35.309376 303.85626 36.871876L302.1375 37.1375Q301.90314 36.090626 301.27814 35.575Q300.65314 35.04375 299.77814 35.04375Q298.45 35.04375 297.6219 35.996876Q296.79376 36.95 296.79376 38.996876Q296.79376 41.090626 297.59064 42.04375Q298.3875 42.98125 299.6844 42.98125Q300.71564 42.98125 301.40314 42.35625Q302.10626 41.715626 302.29376 40.403126ZM304.8719 39.0125Q304.8719 36.1375 306.46564 34.746876Q307.8094 33.590626 309.73126 33.590626Q311.8719 33.590626 313.21564 34.996876Q314.575 36.403126 314.575 38.871876Q314.575 40.871876 313.98126 42.028126Q313.3875 43.16875 312.23126 43.809376Q311.09064 44.434376 309.73126 44.434376Q307.54376 44.434376 306.2 43.04375Q304.8719 41.6375 304.8719 39.0125ZM306.66876 39.0125Q306.66876 41.0125 307.52814 41.996876Q308.40314 42.98125 309.73126 42.98125Q311.04376 42.98125 311.90314 41.996876Q312.77814 40.996876 312.77814 38.95Q312.77814 37.028126 311.90314 36.04375Q311.02814 35.04375 309.73126 35.04375Q308.40314 35.04375 307.52814 36.04375Q306.66876 37.028126 306.66876 39.0125ZM316.5125 44.2L316.5125 33.825L318.10626 33.825L318.10626 35.309376Q319.2469 33.590626 321.40314 33.590626Q322.34064 33.590626 323.1219 33.934376Q323.91876 34.2625 324.3094 34.809376Q324.7 35.35625 324.85626 36.10625Q324.95 36.60625 324.95 37.825L324.95 44.2L323.1844 44.2L323.1844 37.8875Q323.1844 36.809376 322.98126 36.278126Q322.77814 35.746876 322.2469 35.434376Q321.73126 35.121876 321.02814 35.121876Q319.90314 35.121876 319.09064 35.840626Q318.27814 36.54375 318.27814 38.528126L318.27814 44.2L316.5125 44.2ZM334.2469 44.2L334.2469 42.8875Q333.2625 44.434376 331.34064 44.434376Q330.10626 44.434376 329.0594 43.746876Q328.02814 43.059376 327.45 41.840626Q326.8875 40.621876 326.8875 39.028126Q326.8875 37.465626 327.40314 36.2Q327.91876 34.934376 328.95 34.2625Q329.9969 33.590626 331.2625 33.590626Q332.2 33.590626 332.9344 33.996876Q333.66876 34.3875 334.1375 35.0125L334.1375 29.8875L335.8719 29.8875L335.8719 44.2L334.2469 44.2ZM328.6844 39.028126Q328.6844 41.0125 329.52814 41.996876Q330.3719 42.98125 331.5125 42.98125Q332.66876 42.98125 333.46564 42.04375Q334.27814 41.10625 334.27814 39.16875Q334.27814 37.04375 333.45 36.04375Q332.6375 35.04375 331.4344 35.04375Q330.2625 35.04375 329.46564 36.0125Q328.6844 36.965626 328.6844 39.028126ZM337.8094 41.10625L339.5594 40.825Q339.7 41.871876 340.3719 42.434376Q341.04376 42.98125 342.2469 42.98125Q343.45 42.98125 344.02814 42.496876Q344.6219 41.996876 344.6219 41.340626Q344.6219 40.746876 344.10626 40.403126Q343.7469 40.16875 342.3094 39.809376Q340.3719 39.309376 339.6219 38.965626Q338.8875 38.60625 338.4969 37.98125Q338.10626 37.340626 338.10626 36.575Q338.10626 35.8875 338.41876 35.29375Q338.7469 34.7 339.29376 34.309376Q339.7 34.0125 340.40314 33.809376Q341.1219 33.590626 341.9344 33.590626Q343.15314 33.590626 344.075 33.95Q344.9969 34.29375 345.4344 34.903126Q345.8719 35.496876 346.04376 36.496876L344.325 36.73125Q344.2 35.934376 343.6375 35.496876Q343.075 35.04375 342.0594 35.04375Q340.84064 35.04375 340.325 35.45Q339.8094 35.840626 339.8094 36.371876Q339.8094 36.715626 340.02814 36.996876Q340.23126 37.278126 340.7 37.465626Q340.96564 37.559376 342.2469 37.903126Q344.1219 38.403126 344.85626 38.73125Q345.59064 39.04375 346.0125 39.653126Q346.4344 40.246876 346.4344 41.153126Q346.4344 42.028126 345.91876 42.809376Q345.40314 43.590626 344.4344 44.0125Q343.46564 44.434376 342.2469 44.434376Q340.23126 44.434376 339.16876 43.590626Q338.10626 42.746876 337.8094 41.10625Z" fill-rule="nonzero"/></svg>