<svg version="1.1" viewBox="0.0 0.0 788.0 504.0" fill="none" stroke="none" stroke-linecap="square" stroke-miterlimit="10" width="788" height="504" xmlns:xlink="http://www.w3.org/1999/xlink" xmlns="http://www.w3.org/2000/svg"><path fill="#ffffff" d="M0 0L788.0 0L788.0 504.0L0 504.0L0 0Z" fill-rule="nonzero"/><path stroke="#333333" stroke-width="1.0" stroke-linecap="butt" d="M52.5 471.5L619.5 471.5" fill-rule="nonzero"/><path stroke="#cccccc" stroke-width="1.0" stroke-linecap="butt" d="M52.5 372.5L619.5 372.5" fill-rule="nonzero"/><path stroke="#cccccc" stroke-width="1.0" stroke-linecap="butt" d="M52.5 272.5L619.5 272.5" fill-rule="nonzero"/><path stroke="#cccccc" stroke-width="1.0" stroke-linecap="butt" d="M52.5 172.5L619.5 172.5" fill-rule="nonzero"/><path stroke="#cccccc" stroke-width="1.0" stroke-linecap="butt" d="M52.5 73.5L619.5 73.5" fill-rule="nonzero"/><clipPath id="id_0"><path d="M52.2 73.0L619.28 73.0L619.28 471.8L52.2 471.8L52.2 73.0Z" clip-rule="nonzero"/></clipPath><path stroke="#000000" stroke-width="0.0" stroke-linecap="butt" stroke-opacity="0.0" clip-path="url(#id_0)" d="M243.0 472.0L198.0 472.0L198.0 286.0C198.0 284.89542 198.89543 284.0 200.0 284.0L241.0 284.0C242.10457 284.0 243.0 284.89542 243.0 286.0Z" fill-rule="nonzero"/><path fill="#4285f4" clip-path="url(#id_0)" d="M243.0 472.0L198.0 472.0L198.0 286.0C198.0 284.89542 198.89543 284.0 200.0 284.0L241.0 284.0C242.10457 284.0 243.0 284.89542 243.0 286.0Z" fill-rule="nonzero"/><path stroke="#000000" stroke-width="0.0" stroke-linecap="butt" stroke-opacity="0.0" clip-path="url(#id_0)" d="M289.0 472.0L244.0 472.0L244.0 286.0C244.0 284.89542 244.89543 284.0 246.0 284.0L287.0 284.0C288.10458 284.0 289.0 284.89542 289.0 286.0Z" fill-rule="nonzero"/><path fill="#ea4335" clip-path="url(#id_0)" d="M289.0 472.0L244.0 472.0L244.0 286.0C244.0 284.89542 244.89543 284.0 246.0 284.0L287.0 284.0C288.10458 284.0 289.0 284.89542 289.0 286.0Z" fill-rule="nonzero"/><path stroke="#000000" stroke-width="0.0" stroke-linecap="butt" stroke-opacity="0.0" clip-path="url(#id_0)" d="M335.0 472.0L290.0 472.0L290.0 213.0C290.0 211.89543 290.89542 211.0 292.0 211.0L333.0 211.0C334.10458 211.0 335.0 211.89543 335.0 213.0Z" fill-rule="nonzero"/><path fill="#fbbc04" clip-path="url(#id_0)" d="M335.0 472.0L290.0 472.0L290.0 213.0C290.0 211.89543 290.89542 211.0 292.0 211.0L333.0 211.0C334.10458 211.0 335.0 211.89543 335.0 213.0Z" fill-rule="nonzero"/><path stroke="#000000" stroke-width="0.0" stroke-linecap="butt" stroke-opacity="0.0" clip-path="url(#id_0)" d="M381.0 472.0L336.0 472.0L336.0 212.0C336.0 210.89543 336.89542 210.0 338.0 210.0L379.0 210.0C380.10458 210.0 381.0 210.89543 381.0 212.0Z" fill-rule="nonzero"/><path fill="#34a853" clip-path="url(#id_0)" d="M381.0 472.0L336.0 472.0L336.0 212.0C336.0 210.89543 336.89542 210.0 338.0 210.0L379.0 210.0C380.10458 210.0 381.0 210.89543 381.0 212.0Z" fill-rule="nonzero"/><path stroke="#000000" stroke-width="0.0" stroke-linecap="butt" stroke-opacity="0.0" clip-path="url(#id_0)" d="M427.0 472.0L382.0 472.0L382.0 85.0C382.0 83.89543 382.89542 83.0 384.0 83.0L425.0 83.0C426.10458 83.0 427.0 83.89543 427.0 85.0Z" fill-rule="nonzero"/><path fill="#ff6d01" clip-path="url(#id_0)" d="M427.0 472.0L382.0 472.0L382.0 85.0C382.0 83.89543 382.89542 83.0 384.0 83.0L425.0 83.0C426.10458 83.0 427.0 83.89543 427.0 85.0Z" fill-rule="nonzero"/><path stroke="#000000" stroke-width="0.0" stroke-linecap="butt" stroke-opacity="0.0" clip-path="url(#id_0)" d="M473.0 472.0L428.0 472.0L428.0 266.0C428.0 264.89542 428.89542 264.0 430.0 264.0L471.0 264.0C472.10458 264.0 473.0 264.89542 473.0 266.0Z" fill-rule="nonzero"/><path fill="#46bdc6" clip-path="url(#id_0)" d="M473.0 472.0L428.0 472.0L428.0 266.0C428.0 264.89542 428.89542 264.0 430.0 264.0L471.0 264.0C472.10458 264.0 473.0 264.89542 473.0 266.0Z" fill-rule="nonzero"/><path stroke="#4285f4" stroke-width="3.0" stroke-linejoin="round" stroke-linecap="round" d="M215.0625 297.52338Q215.0625 299.42963 214.40625 300.36713Q213.76562 301.289 212.375 301.289Q211.01562 301.289 210.35938 300.38275Q209.70312 299.4765 209.67188 297.664L209.67188 296.2265Q209.67188 294.33588 210.3125 293.42963Q210.96875 292.50775 212.35938 292.50775Q213.73438 292.50775 214.39062 293.39838Q215.04688 294.27338 215.0625 296.11713L215.0625 297.52338ZM213.96875 296.039Q213.96875 294.664 213.57812 294.039Q213.20312 293.39838 212.35938 293.39838Q211.53125 293.39838 211.14062 294.039Q210.76562 294.664 210.76562 295.96088L210.76562 297.69525Q210.76562 299.07025 211.15625 299.74213Q211.5625 300.39838 212.375 300.39838Q213.17188 300.39838 213.5625 299.77338Q213.95312 299.14838 213.96875 297.82025L213.96875 296.039ZM216.84375 300.6015Q216.84375 300.32025 217.0 300.13275Q217.17188 299.94525 217.5 299.94525Q217.84375 299.94525 218.01562 300.13275Q218.1875 300.32025 218.1875 300.6015Q218.1875 300.86713 218.01562 301.05463Q217.84375 301.2265 217.5 301.2265Q217.17188 301.2265 217.0 301.05463Q216.84375 300.86713 216.84375 300.6015ZM223.85938 297.414Q223.53125 297.82025 223.04688 298.07025Q222.57812 298.30463 222.01562 298.30463Q221.28125 298.30463 220.73438 297.94525Q220.1875 297.58588 219.89062 296.92963Q219.59375 296.25775 219.59375 295.46088Q219.59375 294.61713 219.90625 293.92963Q220.23438 293.24213 220.82812 292.88275Q221.4375 292.50775 222.23438 292.50775Q223.5 292.50775 224.21875 293.46088Q224.95312 294.414 224.95312 296.039L224.95312 296.3515Q224.95312 298.8515 223.96875 299.99213Q222.98438 301.13275 221.0 301.164L220.78125 301.164L220.78125 300.25775L221.01562 300.25775Q222.35938 300.2265 223.07812 299.55463Q223.79688 298.88275 223.85938 297.414ZM222.1875 297.414Q222.73438 297.414 223.1875 297.08588Q223.65625 296.74213 223.875 296.25775L223.875 295.82025Q223.875 294.75775 223.40625 294.08588Q222.9375 293.414 222.23438 293.414Q221.51562 293.414 221.07812 293.96088Q220.65625 294.50775 220.65625 295.414Q220.65625 296.289 221.0625 296.8515Q221.48438 297.414 222.1875 297.414ZM231.28125 298.30463L232.46875 298.30463L232.46875 299.17963L231.28125 299.17963L231.28125 301.164L230.20312 301.164L230.20312 299.17963L226.3125 299.17963L226.3125 298.539L230.125 292.63275L231.28125 292.63275L231.28125 298.30463ZM227.54688 298.30463L230.20312 298.30463L230.20312 294.11713L230.0625 294.3515L227.54688 298.30463Z" fill-rule="nonzero"/><path fill="#ffffff" d="M215.0625 297.52338Q215.0625 299.42963 214.40625 300.36713Q213.76562 301.289 212.375 301.289Q211.01562 301.289 210.35938 300.38275Q209.70312 299.4765 209.67188 297.664L209.67188 296.2265Q209.67188 294.33588 210.3125 293.42963Q210.96875 292.50775 212.35938 292.50775Q213.73438 292.50775 214.39062 293.39838Q215.04688 294.27338 215.0625 296.11713L215.0625 297.52338ZM213.96875 296.039Q213.96875 294.664 213.57812 294.039Q213.20312 293.39838 212.35938 293.39838Q211.53125 293.39838 211.14062 294.039Q210.76562 294.664 210.76562 295.96088L210.76562 297.69525Q210.76562 299.07025 211.15625 299.74213Q211.5625 300.39838 212.375 300.39838Q213.17188 300.39838 213.5625 299.77338Q213.95312 299.14838 213.96875 297.82025L213.96875 296.039ZM216.84375 300.6015Q216.84375 300.32025 217.0 300.13275Q217.17188 299.94525 217.5 299.94525Q217.84375 299.94525 218.01562 300.13275Q218.1875 300.32025 218.1875 300.6015Q218.1875 300.86713 218.01562 301.05463Q217.84375 301.2265 217.5 301.2265Q217.17188 301.2265 217.0 301.05463Q216.84375 300.86713 216.84375 300.6015ZM223.85938 297.414Q223.53125 297.82025 223.04688 298.07025Q222.57812 298.30463 222.01562 298.30463Q221.28125 298.30463 220.73438 297.94525Q220.1875 297.58588 219.89062 296.92963Q219.59375 296.25775 219.59375 295.46088Q219.59375 294.61713 219.90625 293.92963Q220.23438 293.24213 220.82812 292.88275Q221.4375 292.50775 222.23438 292.50775Q223.5 292.50775 224.21875 293.46088Q224.95312 294.414 224.95312 296.039L224.95312 296.3515Q224.95312 298.8515 223.96875 299.99213Q222.98438 301.13275 221.0 301.164L220.78125 301.164L220.78125 300.25775L221.01562 300.25775Q222.35938 300.2265 223.07812 299.55463Q223.79688 298.88275 223.85938 297.414ZM222.1875 297.414Q222.73438 297.414 223.1875 297.08588Q223.65625 296.74213 223.875 296.25775L223.875 295.82025Q223.875 294.75775 223.40625 294.08588Q222.9375 293.414 222.23438 293.414Q221.51562 293.414 221.07812 293.96088Q220.65625 294.50775 220.65625 295.414Q220.65625 296.289 221.0625 296.8515Q221.48438 297.414 222.1875 297.414ZM231.28125 298.30463L232.46875 298.30463L232.46875 299.17963L231.28125 299.17963L231.28125 301.164L230.20312 301.164L230.20312 299.17963L226.3125 299.17963L226.3125 298.539L230.125 292.63275L231.28125 292.63275L231.28125 298.30463ZM227.54688 298.30463L230.20312 298.30463L230.20312 294.11713L230.0625 294.3515L227.54688 298.30463Z" fill-rule="nonzero"/><path stroke="#ea4335" stroke-width="3.0" stroke-linejoin="round" stroke-linecap="round" d="M257.5625 297.32397Q257.5625 299.23022 256.90625 300.16772Q256.26562 301.0896 254.875 301.0896Q253.51562 301.0896 252.85938 300.18335Q252.20312 299.2771 252.17188 297.4646L252.17188 296.0271Q252.17188 294.13647 252.8125 293.23022Q253.46875 292.30835 254.85938 292.30835Q256.23438 292.30835 256.89062 293.19897Q257.54688 294.07397 257.5625 295.91772L257.5625 297.32397ZM256.46875 295.8396Q256.46875 294.4646 256.07812 293.8396Q255.70312 293.19897 254.85938 293.19897Q254.03125 293.19897 253.64062 293.8396Q253.26562 294.4646 253.26562 295.76147L253.26562 297.49585Q253.26562 298.87085 253.65625 299.54272Q254.0625 300.19897 254.875 300.19897Q255.67188 300.19897 256.0625 299.57397Q256.45312 298.94897 256.46875 297.62085L256.46875 295.8396ZM259.34375 300.4021Q259.34375 300.12085 259.5 299.93335Q259.67188 299.74585 260.0 299.74585Q260.34375 299.74585 260.51562 299.93335Q260.6875 300.12085 260.6875 300.4021Q260.6875 300.66772 260.51562 300.85522Q260.34375 301.0271 260.0 301.0271Q259.67188 301.0271 259.5 300.85522Q259.34375 300.66772 259.34375 300.4021ZM266.35938 297.2146Q266.03125 297.62085 265.54688 297.87085Q265.07812 298.10522 264.51562 298.10522Q263.78125 298.10522 263.23438 297.74585Q262.6875 297.38647 262.39062 296.73022Q262.09375 296.05835 262.09375 295.26147Q262.09375 294.41772 262.40625 293.73022Q262.73438 293.04272 263.32812 292.68335Q263.9375 292.30835 264.73438 292.30835Q266.0 292.30835 266.71875 293.26147Q267.45312 294.2146 267.45312 295.8396L267.45312 296.1521Q267.45312 298.6521 266.46875 299.79272Q265.48438 300.93335 263.5 300.9646L263.28125 300.9646L263.28125 300.05835L263.51562 300.05835Q264.85938 300.0271 265.57812 299.35522Q266.29688 298.68335 266.35938 297.2146ZM264.6875 297.2146Q265.23438 297.2146 265.6875 296.88647Q266.15625 296.54272 266.375 296.05835L266.375 295.62085Q266.375 294.55835 265.90625 293.88647Q265.4375 293.2146 264.73438 293.2146Q264.01562 293.2146 263.57812 293.76147Q263.15625 294.30835 263.15625 295.2146Q263.15625 296.0896 263.5625 296.6521Q263.98438 297.2146 264.6875 297.2146ZM273.78125 298.10522L274.96875 298.10522L274.96875 298.98022L273.78125 298.98022L273.78125 300.9646L272.70312 300.9646L272.70312 298.98022L268.8125 298.98022L268.8125 298.3396L272.625 292.43335L273.78125 292.43335L273.78125 298.10522ZM270.04688 298.10522L272.70312 298.10522L272.70312 293.91772L272.5625 294.1521L270.04688 298.10522ZM279.76562 300.9646L278.6875 300.9646L278.6875 293.74585L276.5 294.54272L276.5 293.55835L279.60938 292.38647L279.76562 292.38647L279.76562 300.9646Z" fill-rule="nonzero"/><path fill="#ffffff" d="M257.5625 297.32397Q257.5625 299.23022 256.90625 300.16772Q256.26562 301.0896 254.875 301.0896Q253.51562 301.0896 252.85938 300.18335Q252.20312 299.2771 252.17188 297.4646L252.17188 296.0271Q252.17188 294.13647 252.8125 293.23022Q253.46875 292.30835 254.85938 292.30835Q256.23438 292.30835 256.89062 293.19897Q257.54688 294.07397 257.5625 295.91772L257.5625 297.32397ZM256.46875 295.8396Q256.46875 294.4646 256.07812 293.8396Q255.70312 293.19897 254.85938 293.19897Q254.03125 293.19897 253.64062 293.8396Q253.26562 294.4646 253.26562 295.76147L253.26562 297.49585Q253.26562 298.87085 253.65625 299.54272Q254.0625 300.19897 254.875 300.19897Q255.67188 300.19897 256.0625 299.57397Q256.45312 298.94897 256.46875 297.62085L256.46875 295.8396ZM259.34375 300.4021Q259.34375 300.12085 259.5 299.93335Q259.67188 299.74585 260.0 299.74585Q260.34375 299.74585 260.51562 299.93335Q260.6875 300.12085 260.6875 300.4021Q260.6875 300.66772 260.51562 300.85522Q260.34375 301.0271 260.0 301.0271Q259.67188 301.0271 259.5 300.85522Q259.34375 300.66772 259.34375 300.4021ZM266.35938 297.2146Q266.03125 297.62085 265.54688 297.87085Q265.07812 298.10522 264.51562 298.10522Q263.78125 298.10522 263.23438 297.74585Q262.6875 297.38647 262.39062 296.73022Q262.09375 296.05835 262.09375 295.26147Q262.09375 294.41772 262.40625 293.73022Q262.73438 293.04272 263.32812 292.68335Q263.9375 292.30835 264.73438 292.30835Q266.0 292.30835 266.71875 293.26147Q267.45312 294.2146 267.45312 295.8396L267.45312 296.1521Q267.45312 298.6521 266.46875 299.79272Q265.48438 300.93335 263.5 300.9646L263.28125 300.9646L263.28125 300.05835L263.51562 300.05835Q264.85938 300.0271 265.57812 299.35522Q266.29688 298.68335 266.35938 297.2146ZM264.6875 297.2146Q265.23438 297.2146 265.6875 296.88647Q266.15625 296.54272 266.375 296.05835L266.375 295.62085Q266.375 294.55835 265.90625 293.88647Q265.4375 293.2146 264.73438 293.2146Q264.01562 293.2146 263.57812 293.76147Q263.15625 294.30835 263.15625 295.2146Q263.15625 296.0896 263.5625 296.6521Q263.98438 297.2146 264.6875 297.2146ZM273.78125 298.10522L274.96875 298.10522L274.96875 298.98022L273.78125 298.98022L273.78125 300.9646L272.70312 300.9646L272.70312 298.98022L268.8125 298.98022L268.8125 298.3396L272.625 292.43335L273.78125 292.43335L273.78125 298.10522ZM270.04688 298.10522L272.70312 298.10522L272.70312 293.91772L272.5625 294.1521L270.04688 298.10522ZM279.76562 300.9646L278.6875 300.9646L278.6875 293.74585L276.5 294.54272L276.5 293.55835L279.60938 292.38647L279.76562 292.38647L279.76562 300.9646Z" fill-rule="nonzero"/><path stroke="#fbbc04" stroke-width="3.0" stroke-linejoin="round" stroke-linecap="round" d="M301.76562 227.5854L300.6875 227.5854L300.6875 220.36665L298.5 221.16353L298.5 220.17915L301.60938 219.00728L301.76562 219.00728L301.76562 227.5854ZM305.34375 227.0229Q305.34375 226.74165 305.5 226.55415Q305.67188 226.36665 306.0 226.36665Q306.34375 226.36665 306.51562 226.55415Q306.6875 226.74165 306.6875 227.0229Q306.6875 227.28853 306.51562 227.47603Q306.34375 227.6479 306.0 227.6479Q305.67188 227.6479 305.5 227.47603Q305.34375 227.28853 305.34375 227.0229ZM309.78125 222.78853L310.59375 222.78853Q311.375 222.7729 311.8125 222.38228Q312.25 221.99165 312.25 221.31978Q312.25 219.81978 310.75 219.81978Q310.04688 219.81978 309.625 220.22603Q309.21875 220.63228 309.21875 221.28853L308.125 221.28853Q308.125 220.2729 308.85938 219.60103Q309.60938 218.92915 310.75 218.92915Q311.95312 218.92915 312.64062 219.56978Q313.32812 220.2104 313.32812 221.35103Q313.32812 221.91353 312.96875 222.42915Q312.60938 222.94478 311.98438 223.2104Q312.6875 223.42915 313.0625 223.94478Q313.45312 224.4604 313.45312 225.2104Q313.45312 226.35103 312.70312 227.03853Q311.95312 227.7104 310.75 227.7104Q309.5625 227.7104 308.79688 227.05415Q308.04688 226.3979 308.04688 225.3354L309.14062 225.3354Q309.14062 226.00728 309.57812 226.41353Q310.01562 226.81978 310.76562 226.81978Q311.54688 226.81978 311.95312 226.41353Q312.375 225.99165 312.375 225.22603Q312.375 224.49165 311.92188 224.10103Q311.46875 223.69478 310.59375 223.67915L309.78125 223.67915L309.78125 222.78853ZM320.5625 223.94478Q320.5625 225.85103 319.90625 226.78853Q319.26562 227.7104 317.875 227.7104Q316.51562 227.7104 315.85938 226.80415Q315.20312 225.8979 315.17188 224.0854L315.17188 222.6479Q315.17188 220.75728 315.8125 219.85103Q316.46875 218.92915 317.85938 218.92915Q319.23438 218.92915 319.89062 219.81978Q320.54688 220.69478 320.5625 222.53853L320.5625 223.94478ZM319.46875 222.4604Q319.46875 221.0854 319.07812 220.4604Q318.70312 219.81978 317.85938 219.81978Q317.03125 219.81978 316.64062 220.4604Q316.26562 221.0854 316.26562 222.38228L316.26562 224.11665Q316.26562 225.49165 316.65625 226.16353Q317.0625 226.81978 317.875 226.81978Q318.67188 226.81978 319.0625 226.19478Q319.45312 225.56978 319.46875 224.24165L319.46875 222.4604ZM326.35938 223.8354Q326.03125 224.24165 325.54688 224.49165Q325.07812 224.72603 324.51562 224.72603Q323.78125 224.72603 323.23438 224.36665Q322.6875 224.00728 322.39062 223.35103Q322.09375 222.67915 322.09375 221.88228Q322.09375 221.03853 322.40625 220.35103Q322.73438 219.66353 323.32812 219.30415Q323.9375 218.92915 324.73438 218.92915Q326.0 218.92915 326.71875 219.88228Q327.45312 220.8354 327.45312 222.4604L327.45312 222.7729Q327.45312 225.2729 326.46875 226.41353Q325.48438 227.55415 323.5 227.5854L323.28125 227.5854L323.28125 226.67915L323.51562 226.67915Q324.85938 226.6479 325.57812 225.97603Q326.29688 225.30415 326.35938 223.8354ZM324.6875 223.8354Q325.23438 223.8354 325.6875 223.50728Q326.15625 223.16353 326.375 222.67915L326.375 222.24165Q326.375 221.17915 325.90625 220.50728Q325.4375 219.8354 324.73438 219.8354Q324.01562 219.8354 323.57812 220.38228Q323.15625 220.92915 323.15625 221.8354Q323.15625 222.7104 323.5625 223.2729Q323.98438 223.8354 324.6875 223.8354Z" fill-rule="nonzero"/><path fill="#000000" d="M301.76562 227.5854L300.6875 227.5854L300.6875 220.36665L298.5 221.16353L298.5 220.17915L301.60938 219.00728L301.76562 219.00728L301.76562 227.5854ZM305.34375 227.0229Q305.34375 226.74165 305.5 226.55415Q305.67188 226.36665 306.0 226.36665Q306.34375 226.36665 306.51562 226.55415Q306.6875 226.74165 306.6875 227.0229Q306.6875 227.28853 306.51562 227.47603Q306.34375 227.6479 306.0 227.6479Q305.67188 227.6479 305.5 227.47603Q305.34375 227.28853 305.34375 227.0229ZM309.78125 222.78853L310.59375 222.78853Q311.375 222.7729 311.8125 222.38228Q312.25 221.99165 312.25 221.31978Q312.25 219.81978 310.75 219.81978Q310.04688 219.81978 309.625 220.22603Q309.21875 220.63228 309.21875 221.28853L308.125 221.28853Q308.125 220.2729 308.85938 219.60103Q309.60938 218.92915 310.75 218.92915Q311.95312 218.92915 312.64062 219.56978Q313.32812 220.2104 313.32812 221.35103Q313.32812 221.91353 312.96875 222.42915Q312.60938 222.94478 311.98438 223.2104Q312.6875 223.42915 313.0625 223.94478Q313.45312 224.4604 313.45312 225.2104Q313.45312 226.35103 312.70312 227.03853Q311.95312 227.7104 310.75 227.7104Q309.5625 227.7104 308.79688 227.05415Q308.04688 226.3979 308.04688 225.3354L309.14062 225.3354Q309.14062 226.00728 309.57812 226.41353Q310.01562 226.81978 310.76562 226.81978Q311.54688 226.81978 311.95312 226.41353Q312.375 225.99165 312.375 225.22603Q312.375 224.49165 311.92188 224.10103Q311.46875 223.69478 310.59375 223.67915L309.78125 223.67915L309.78125 222.78853ZM320.5625 223.94478Q320.5625 225.85103 319.90625 226.78853Q319.26562 227.7104 317.875 227.7104Q316.51562 227.7104 315.85938 226.80415Q315.20312 225.8979 315.17188 224.0854L315.17188 222.6479Q315.17188 220.75728 315.8125 219.85103Q316.46875 218.92915 317.85938 218.92915Q319.23438 218.92915 319.89062 219.81978Q320.54688 220.69478 320.5625 222.53853L320.5625 223.94478ZM319.46875 222.4604Q319.46875 221.0854 319.07812 220.4604Q318.70312 219.81978 317.85938 219.81978Q317.03125 219.81978 316.64062 220.4604Q316.26562 221.0854 316.26562 222.38228L316.26562 224.11665Q316.26562 225.49165 316.65625 226.16353Q317.0625 226.81978 317.875 226.81978Q318.67188 226.81978 319.0625 226.19478Q319.45312 225.56978 319.46875 224.24165L319.46875 222.4604ZM326.35938 223.8354Q326.03125 224.24165 325.54688 224.49165Q325.07812 224.72603 324.51562 224.72603Q323.78125 224.72603 323.23438 224.36665Q322.6875 224.00728 322.39062 223.35103Q322.09375 222.67915 322.09375 221.88228Q322.09375 221.03853 322.40625 220.35103Q322.73438 219.66353 323.32812 219.30415Q323.9375 218.92915 324.73438 218.92915Q326.0 218.92915 326.71875 219.88228Q327.45312 220.8354 327.45312 222.4604L327.45312 222.7729Q327.45312 225.2729 326.46875 226.41353Q325.48438 227.55415 323.5 227.5854L323.28125 227.5854L323.28125 226.67915L323.51562 226.67915Q324.85938 226.6479 325.57812 225.97603Q326.29688 225.30415 326.35938 223.8354ZM324.6875 223.8354Q325.23438 223.8354 325.6875 223.50728Q326.15625 223.16353 326.375 222.67915L326.375 222.24165Q326.375 221.17915 325.90625 220.50728Q325.4375 219.8354 324.73438 219.8354Q324.01562 219.8354 323.57812 220.38228Q323.15625 220.92915 323.15625 221.8354Q323.15625 222.7104 323.5625 223.2729Q323.98438 223.8354 324.6875 223.8354Z" fill-rule="nonzero"/><path stroke="#34a853" stroke-width="3.0" stroke-linejoin="round" stroke-linecap="round" d="M347.76562 226.389L346.6875 226.389L346.6875 219.17026L344.5 219.96713L344.5 218.98276L347.60938 217.81088L347.76562 217.81088L347.76562 226.389ZM351.34375 225.8265Q351.34375 225.54526 351.5 225.35776Q351.67188 225.17026 352.0 225.17026Q352.34375 225.17026 352.51562 225.35776Q352.6875 225.54526 352.6875 225.8265Q352.6875 226.09213 352.51562 226.27963Q352.34375 226.4515 352.0 226.4515Q351.67188 226.4515 351.5 226.27963Q351.34375 226.09213 351.34375 225.8265ZM355.78125 221.59213L356.59375 221.59213Q357.375 221.5765 357.8125 221.18588Q358.25 220.79526 358.25 220.12338Q358.25 218.62338 356.75 218.62338Q356.04688 218.62338 355.625 219.02963Q355.21875 219.43588 355.21875 220.09213L354.125 220.09213Q354.125 219.0765 354.85938 218.40463Q355.60938 217.73276 356.75 217.73276Q357.95312 217.73276 358.64062 218.37338Q359.32812 219.014 359.32812 220.15463Q359.32812 220.71713 358.96875 221.23276Q358.60938 221.74838 357.98438 222.014Q358.6875 222.23276 359.0625 222.74838Q359.45312 223.264 359.45312 224.014Q359.45312 225.15463 358.70312 225.84213Q357.95312 226.514 356.75 226.514Q355.5625 226.514 354.79688 225.85776Q354.04688 225.2015 354.04688 224.139L355.14062 224.139Q355.14062 224.81088 355.57812 225.21713Q356.01562 225.62338 356.76562 225.62338Q357.54688 225.62338 357.95312 225.21713Q358.375 224.79526 358.375 224.02963Q358.375 223.29526 357.92188 222.90463Q357.46875 222.49838 356.59375 222.48276L355.78125 222.48276L355.78125 221.59213ZM364.76562 226.389L363.6875 226.389L363.6875 219.17026L361.5 219.96713L361.5 218.98276L364.60938 217.81088L364.76562 217.81088L364.76562 226.389ZM368.70312 222.10776L369.14062 217.85776L373.51562 217.85776L373.51562 218.85776L370.0625 218.85776L369.79688 221.18588Q370.4375 220.81088 371.23438 220.81088Q372.39062 220.81088 373.07812 221.59213Q373.76562 222.35776 373.76562 223.67026Q373.76562 224.98276 373.04688 225.74838Q372.34375 226.514 371.0625 226.514Q369.9375 226.514 369.21875 225.889Q368.5 225.24838 368.40625 224.139L369.42188 224.139Q369.53125 224.87338 369.95312 225.24838Q370.375 225.62338 371.0625 225.62338Q371.8125 225.62338 372.25 225.10776Q372.6875 224.59213 372.6875 223.68588Q372.6875 222.8265 372.21875 222.31088Q371.75 221.79526 370.96875 221.79526Q370.26562 221.79526 369.85938 222.09213L369.57812 222.3265L368.70312 222.10776Z" fill-rule="nonzero"/><path fill="#ffffff" d="M347.76562 226.389L346.6875 226.389L346.6875 219.17026L344.5 219.96713L344.5 218.98276L347.60938 217.81088L347.76562 217.81088L347.76562 226.389ZM351.34375 225.8265Q351.34375 225.54526 351.5 225.35776Q351.67188 225.17026 352.0 225.17026Q352.34375 225.17026 352.51562 225.35776Q352.6875 225.54526 352.6875 225.8265Q352.6875 226.09213 352.51562 226.27963Q352.34375 226.4515 352.0 226.4515Q351.67188 226.4515 351.5 226.27963Q351.34375 226.09213 351.34375 225.8265ZM355.78125 221.59213L356.59375 221.59213Q357.375 221.5765 357.8125 221.18588Q358.25 220.79526 358.25 220.12338Q358.25 218.62338 356.75 218.62338Q356.04688 218.62338 355.625 219.02963Q355.21875 219.43588 355.21875 220.09213L354.125 220.09213Q354.125 219.0765 354.85938 218.40463Q355.60938 217.73276 356.75 217.73276Q357.95312 217.73276 358.64062 218.37338Q359.32812 219.014 359.32812 220.15463Q359.32812 220.71713 358.96875 221.23276Q358.60938 221.74838 357.98438 222.014Q358.6875 222.23276 359.0625 222.74838Q359.45312 223.264 359.45312 224.014Q359.45312 225.15463 358.70312 225.84213Q357.95312 226.514 356.75 226.514Q355.5625 226.514 354.79688 225.85776Q354.04688 225.2015 354.04688 224.139L355.14062 224.139Q355.14062 224.81088 355.57812 225.21713Q356.01562 225.62338 356.76562 225.62338Q357.54688 225.62338 357.95312 225.21713Q358.375 224.79526 358.375 224.02963Q358.375 223.29526 357.92188 222.90463Q357.46875 222.49838 356.59375 222.48276L355.78125 222.48276L355.78125 221.59213ZM364.76562 226.389L363.6875 226.389L363.6875 219.17026L361.5 219.96713L361.5 218.98276L364.60938 217.81088L364.76562 217.81088L364.76562 226.389ZM368.70312 222.10776L369.14062 217.85776L373.51562 217.85776L373.51562 218.85776L370.0625 218.85776L369.79688 221.18588Q370.4375 220.81088 371.23438 220.81088Q372.39062 220.81088 373.07812 221.59213Q373.76562 222.35776 373.76562 223.67026Q373.76562 224.98276 373.04688 225.74838Q372.34375 226.514 371.0625 226.514Q369.9375 226.514 369.21875 225.889Q368.5 225.24838 368.40625 224.139L369.42188 224.139Q369.53125 224.87338 369.95312 225.24838Q370.375 225.62338 371.0625 225.62338Q371.8125 225.62338 372.25 225.10776Q372.6875 224.59213 372.6875 223.68588Q372.6875 222.8265 372.21875 222.31088Q371.75 221.79526 370.96875 221.79526Q370.26562 221.79526 369.85938 222.09213L369.57812 222.3265L368.70312 222.10776Z" fill-rule="nonzero"/><path stroke="#ff6d01" stroke-width="3.0" stroke-linejoin="round" stroke-linecap="round" d="M397.26562 99.77L396.1875 99.77L396.1875 92.55125L394.0 93.34812L394.0 92.36375L397.10938 91.19187L397.26562 91.19187L397.26562 99.77ZM400.84375 99.2075Q400.84375 98.92625 401.0 98.73875Q401.17188 98.55125 401.5 98.55125Q401.84375 98.55125 402.01562 98.73875Q402.1875 98.92625 402.1875 99.2075Q402.1875 99.47312 402.01562 99.66062Q401.84375 99.8325 401.5 99.8325Q401.17188 99.8325 401.0 99.66062Q400.84375 99.47312 400.84375 99.2075ZM407.85938 96.02Q407.53125 96.42625 407.04688 96.67625Q406.57812 96.91062 406.01562 96.91062Q405.28125 96.91062 404.73438 96.55125Q404.1875 96.19187 403.89062 95.53562Q403.59375 94.86375 403.59375 94.06687Q403.59375 93.22312 403.90625 92.53562Q404.23438 91.84812 404.82812 91.48875Q405.4375 91.11375 406.23438 91.11375Q407.5 91.11375 408.21875 92.06687Q408.95312 93.02 408.95312 94.645L408.95312 94.9575Q408.95312 97.4575 407.96875 98.59812Q406.98438 99.73875 405.0 99.77L404.78125 99.77L404.78125 98.86375L405.01562 98.86375Q406.35938 98.8325 407.07812 98.16062Q407.79688 97.48875 407.85938 96.02ZM406.1875 96.02Q406.73438 96.02 407.1875 95.69187Q407.65625 95.34812 407.875 94.86375L407.875 94.42625Q407.875 93.36375 407.40625 92.69187Q406.9375 92.02 406.23438 92.02Q405.51562 92.02 405.07812 92.56687Q404.65625 93.11375 404.65625 94.02Q404.65625 94.895 405.0625 95.4575Q405.48438 96.02 406.1875 96.02ZM411.20312 95.48875L411.64062 91.23875L416.01562 91.23875L416.01562 92.23875L412.5625 92.23875L412.29688 94.56687Q412.9375 94.19187 413.73438 94.19187Q414.89062 94.19187 415.57812 94.97312Q416.26562 95.73875 416.26562 97.05125Q416.26562 98.36375 415.54688 99.12937Q414.84375 99.895 413.5625 99.895Q412.4375 99.895 411.71875 99.27Q411.0 98.62937 410.90625 97.52L411.92188 97.52Q412.03125 98.25437 412.45312 98.62937Q412.875 99.00437 413.5625 99.00437Q414.3125 99.00437 414.75 98.48875Q415.1875 97.97312 415.1875 97.06687Q415.1875 96.2075 414.71875 95.69187Q414.25 95.17625 413.46875 95.17625Q412.76562 95.17625 412.35938 95.47312L412.07812 95.7075L411.20312 95.48875Z" fill-rule="nonzero"/><path fill="#000000" d="M397.26562 99.77L396.1875 99.77L396.1875 92.55125L394.0 93.34812L394.0 92.36375L397.10938 91.19187L397.26562 91.19187L397.26562 99.77ZM400.84375 99.2075Q400.84375 98.92625 401.0 98.73875Q401.17188 98.55125 401.5 98.55125Q401.84375 98.55125 402.01562 98.73875Q402.1875 98.92625 402.1875 99.2075Q402.1875 99.47312 402.01562 99.66062Q401.84375 99.8325 401.5 99.8325Q401.17188 99.8325 401.0 99.66062Q400.84375 99.47312 400.84375 99.2075ZM407.85938 96.02Q407.53125 96.42625 407.04688 96.67625Q406.57812 96.91062 406.01562 96.91062Q405.28125 96.91062 404.73438 96.55125Q404.1875 96.19187 403.89062 95.53562Q403.59375 94.86375 403.59375 94.06687Q403.59375 93.22312 403.90625 92.53562Q404.23438 91.84812 404.82812 91.48875Q405.4375 91.11375 406.23438 91.11375Q407.5 91.11375 408.21875 92.06687Q408.95312 93.02 408.95312 94.645L408.95312 94.9575Q408.95312 97.4575 407.96875 98.59812Q406.98438 99.73875 405.0 99.77L404.78125 99.77L404.78125 98.86375L405.01562 98.86375Q406.35938 98.8325 407.07812 98.16062Q407.79688 97.48875 407.85938 96.02ZM406.1875 96.02Q406.73438 96.02 407.1875 95.69187Q407.65625 95.34812 407.875 94.86375L407.875 94.42625Q407.875 93.36375 407.40625 92.69187Q406.9375 92.02 406.23438 92.02Q405.51562 92.02 405.07812 92.56687Q404.65625 93.11375 404.65625 94.02Q404.65625 94.895 405.0625 95.4575Q405.48438 96.02 406.1875 96.02ZM411.20312 95.48875L411.64062 91.23875L416.01562 91.23875L416.01562 92.23875L412.5625 92.23875L412.29688 94.56687Q412.9375 94.19187 413.73438 94.19187Q414.89062 94.19187 415.57812 94.97312Q416.26562 95.73875 416.26562 97.05125Q416.26562 98.36375 415.54688 99.12937Q414.84375 99.895 413.5625 99.895Q412.4375 99.895 411.71875 99.27Q411.0 98.62937 410.90625 97.52L411.92188 97.52Q412.03125 98.25437 412.45312 98.62937Q412.875 99.00437 413.5625 99.00437Q414.3125 99.00437 414.75 98.48875Q415.1875 97.97312 415.1875 97.06687Q415.1875 96.2075 414.71875 95.69187Q414.25 95.17625 413.46875 95.17625Q412.76562 95.17625 412.35938 95.47312L412.07812 95.7075L411.20312 95.48875Z" fill-rule="nonzero"/><path stroke="#46bdc6" stroke-width="3.0" stroke-linejoin="round" stroke-linecap="round" d="M439.76562 280.4264L438.6875 280.4264L438.6875 273.20764L436.5 274.00452L436.5 273.02014L439.60938 271.84827L439.76562 271.84827L439.76562 280.4264ZM443.34375 279.8639Q443.34375 279.58264 443.5 279.39514Q443.67188 279.20764 444.0 279.20764Q444.34375 279.20764 444.51562 279.39514Q444.6875 279.58264 444.6875 279.8639Q444.6875 280.12952 444.51562 280.31702Q444.34375 280.4889 444.0 280.4889Q443.67188 280.4889 443.5 280.31702Q443.34375 280.12952 443.34375 279.8639ZM451.5625 276.78577Q451.5625 278.69202 450.90625 279.62952Q450.26562 280.5514 448.875 280.5514Q447.51562 280.5514 446.85938 279.64514Q446.20312 278.7389 446.17188 276.9264L446.17188 275.4889Q446.17188 273.59827 446.8125 272.69202Q447.46875 271.77014 448.85938 271.77014Q450.23438 271.77014 450.89062 272.66077Q451.54688 273.53577 451.5625 275.37952L451.5625 276.78577ZM450.46875 275.3014Q450.46875 273.9264 450.07812 273.3014Q449.70312 272.66077 448.85938 272.66077Q448.03125 272.66077 447.64062 273.3014Q447.26562 273.9264 447.26562 275.22327L447.26562 276.95764Q447.26562 278.33264 447.65625 279.00452Q448.0625 279.66077 448.875 279.66077Q449.67188 279.66077 450.0625 279.03577Q450.45312 278.41077 450.46875 277.08264L450.46875 275.3014ZM457.78125 277.56702L458.96875 277.56702L458.96875 278.44202L457.78125 278.44202L457.78125 280.4264L456.70312 280.4264L456.70312 278.44202L452.8125 278.44202L452.8125 277.8014L456.625 271.89514L457.78125 271.89514L457.78125 277.56702ZM454.04688 277.56702L456.70312 277.56702L456.70312 273.37952L456.5625 273.6139L454.04688 277.56702ZM464.78125 277.56702L465.96875 277.56702L465.96875 278.44202L464.78125 278.44202L464.78125 280.4264L463.70312 280.4264L463.70312 278.44202L459.8125 278.44202L459.8125 277.8014L463.625 271.89514L464.78125 271.89514L464.78125 277.56702ZM461.04688 277.56702L463.70312 277.56702L463.70312 273.37952L463.5625 273.6139L461.04688 277.56702Z" fill-rule="nonzero"/><path fill="#000000" d="M439.76562 280.4264L438.6875 280.4264L438.6875 273.20764L436.5 274.00452L436.5 273.02014L439.60938 271.84827L439.76562 271.84827L439.76562 280.4264ZM443.34375 279.8639Q443.34375 279.58264 443.5 279.39514Q443.67188 279.20764 444.0 279.20764Q444.34375 279.20764 444.51562 279.39514Q444.6875 279.58264 444.6875 279.8639Q444.6875 280.12952 444.51562 280.31702Q444.34375 280.4889 444.0 280.4889Q443.67188 280.4889 443.5 280.31702Q443.34375 280.12952 443.34375 279.8639ZM451.5625 276.78577Q451.5625 278.69202 450.90625 279.62952Q450.26562 280.5514 448.875 280.5514Q447.51562 280.5514 446.85938 279.64514Q446.20312 278.7389 446.17188 276.9264L446.17188 275.4889Q446.17188 273.59827 446.8125 272.69202Q447.46875 271.77014 448.85938 271.77014Q450.23438 271.77014 450.89062 272.66077Q451.54688 273.53577 451.5625 275.37952L451.5625 276.78577ZM450.46875 275.3014Q450.46875 273.9264 450.07812 273.3014Q449.70312 272.66077 448.85938 272.66077Q448.03125 272.66077 447.64062 273.3014Q447.26562 273.9264 447.26562 275.22327L447.26562 276.95764Q447.26562 278.33264 447.65625 279.00452Q448.0625 279.66077 448.875 279.66077Q449.67188 279.66077 450.0625 279.03577Q450.45312 278.41077 450.46875 277.08264L450.46875 275.3014ZM457.78125 277.56702L458.96875 277.56702L458.96875 278.44202L457.78125 278.44202L457.78125 280.4264L456.70312 280.4264L456.70312 278.44202L452.8125 278.44202L452.8125 277.8014L456.625 271.89514L457.78125 271.89514L457.78125 277.56702ZM454.04688 277.56702L456.70312 277.56702L456.70312 273.37952L456.5625 273.6139L454.04688 277.56702ZM464.78125 277.56702L465.96875 277.56702L465.96875 278.44202L464.78125 278.44202L464.78125 280.4264L463.70312 280.4264L463.70312 278.44202L459.8125 278.44202L459.8125 277.8014L463.625 271.89514L464.78125 271.89514L464.78125 277.56702ZM461.04688 277.56702L463.70312 277.56702L463.70312 273.37952L463.5625 273.6139L461.04688 277.56702Z" fill-rule="nonzero"/><path fill="#000000" d="M29.7 471.5656Q29.7 470.03436 30.0125 469.1125Q30.325 468.175 30.934376 467.675Q31.559376 467.175 32.496876 467.175Q33.184376 467.175 33.7 467.45624Q34.23125 467.7375 34.575 468.26874Q34.91875 468.78436 35.10625 469.53436Q35.29375 470.28436 35.29375 471.5656Q35.29375 473.08124 34.98125 474.0031Q34.684376 474.925 34.059376 475.4406Q33.45 475.9406 32.496876 475.9406Q31.2625 475.9406 30.54375 475.05Q29.7 473.9875 29.7 471.5656ZM30.778126 471.5656Q30.778126 473.675 31.278126 474.3781Q31.778126 475.08124 32.496876 475.08124Q33.23125 475.08124 33.715626 474.3781Q34.215626 473.675 34.215626 471.5656Q34.215626 469.4406 33.715626 468.7531Q33.23125 468.05 32.48125 468.05Q31.7625 468.05 31.325 468.65936Q30.778126 469.4406 30.778126 471.5656ZM37.29375 475.8L37.29375 474.59686L38.496876 474.59686L38.496876 475.8L37.29375 475.8ZM39.7 471.5656Q39.7 470.03436 40.0125 469.1125Q40.325 468.175 40.934376 467.675Q41.559376 467.175 42.496876 467.175Q43.184376 467.175 43.7 467.45624Q44.23125 467.7375 44.575 468.26874Q44.91875 468.78436 45.10625 469.53436Q45.29375 470.28436 45.29375 471.5656Q45.29375 473.08124 44.98125 474.0031Q44.684376 474.925 44.059376 475.4406Q43.45 475.9406 42.496876 475.9406Q41.2625 475.9406 40.54375 475.05Q39.7 473.9875 39.7 471.5656ZM40.778126 471.5656Q40.778126 473.675 41.278126 474.3781Q41.778126 475.08124 42.496876 475.08124Q43.23125 475.08124 43.715626 474.3781Q44.215626 473.675 44.215626 471.5656Q44.215626 469.4406 43.715626 468.7531Q43.23125 468.05 42.48125 468.05Q41.7625 468.05 41.325 468.65936Q40.778126 469.4406 40.778126 471.5656Z" fill-rule="nonzero"/><path fill="#000000" d="M29.7 371.86563Q29.7 370.33438 30.0125 369.4125Q30.325 368.475 30.934376 367.975Q31.559376 367.475 32.496876 367.475Q33.184376 367.475 33.7 367.75626Q34.23125 368.0375 34.575 368.56876Q34.91875 369.08438 35.10625 369.83438Q35.29375 370.58438 35.29375 371.86563Q35.29375 373.38126 34.98125 374.30313Q34.684376 375.225 34.059376 375.74063Q33.45 376.24063 32.496876 376.24063Q31.2625 376.24063 30.54375 375.35Q29.7 374.2875 29.7 371.86563ZM30.778126 371.86563Q30.778126 373.975 31.278126 374.67813Q31.778126 375.38126 32.496876 375.38126Q33.23125 375.38126 33.715626 374.67813Q34.215626 373.975 34.215626 371.86563Q34.215626 369.74063 33.715626 369.05313Q33.23125 368.35 32.48125 368.35Q31.7625 368.35 31.325 368.95938Q30.778126 369.74063 30.778126 371.86563ZM37.29375 376.1L37.29375 374.89688L38.496876 374.89688L38.496876 376.1L37.29375 376.1ZM39.7 373.85L40.809376 373.75626Q40.934376 374.56876 41.371876 374.975Q41.825 375.38126 42.465626 375.38126Q43.215626 375.38126 43.746876 374.80313Q44.278126 374.225 44.278126 373.2875Q44.278126 372.38126 43.7625 371.86563Q43.2625 371.33438 42.434376 371.33438Q41.934376 371.33438 41.5125 371.56876Q41.10625 371.80313 40.871876 372.1625L39.8875 372.0375L40.715626 367.63126L44.996876 367.63126L44.996876 368.63126L41.559376 368.63126L41.10625 370.94376Q41.871876 370.39688 42.715626 370.39688Q43.840626 370.39688 44.60625 371.17813Q45.3875 371.95938 45.3875 373.19376Q45.3875 374.35 44.715626 375.20938Q43.8875 376.24063 42.465626 376.24063Q41.29375 376.24063 40.54375 375.58438Q39.809376 374.92813 39.7 373.85Z" fill-rule="nonzero"/><path fill="#000000" d="M33.66875 276.4L32.621876 276.4L32.621876 269.68124Q32.23125 270.04062 31.60625 270.41562Q30.996876 270.775 30.5125 270.94687L30.5125 269.93124Q31.3875 269.50937 32.04375 268.93124Q32.715626 268.3375 32.996876 267.775L33.66875 267.775L33.66875 276.4ZM37.29375 276.4L37.29375 275.19687L38.496876 275.19687L38.496876 276.4L37.29375 276.4ZM39.7 272.16562Q39.7 270.63437 40.0125 269.7125Q40.325 268.775 40.934376 268.275Q41.559376 267.775 42.496876 267.775Q43.184376 267.775 43.7 268.05624Q44.23125 268.3375 44.575 268.86874Q44.91875 269.38437 45.10625 270.13437Q45.29375 270.88437 45.29375 272.16562Q45.29375 273.68124 44.98125 274.60312Q44.684376 275.525 44.059376 276.04062Q43.45 276.54062 42.496876 276.54062Q41.2625 276.54062 40.54375 275.65Q39.7 274.5875 39.7 272.16562ZM40.778126 272.16562Q40.778126 274.275 41.278126 274.97812Q41.778126 275.68124 42.496876 275.68124Q43.23125 275.68124 43.715626 274.97812Q44.215626 274.275 44.215626 272.16562Q44.215626 270.04062 43.715626 269.35312Q43.23125 268.65 42.48125 268.65Q41.7625 268.65 41.325 269.25937Q40.778126 270.04062 40.778126 272.16562Z" fill-rule="nonzero"/><path fill="#000000" d="M33.66875 176.7L32.621876 176.7L32.621876 169.98125Q32.23125 170.34062 31.60625 170.71562Q30.996876 171.075 30.5125 171.24687L30.5125 170.23125Q31.3875 169.80937 32.04375 169.23125Q32.715626 168.6375 32.996876 168.075L33.66875 168.075L33.66875 176.7ZM37.29375 176.7L37.29375 175.49687L38.496876 175.49687L38.496876 176.7L37.29375 176.7ZM39.7 174.45L40.809376 174.35625Q40.934376 175.16875 41.371876 175.575Q41.825 175.98125 42.465626 175.98125Q43.215626 175.98125 43.746876 175.40312Q44.278126 174.825 44.278126 173.8875Q44.278126 172.98125 43.7625 172.46562Q43.2625 171.93437 42.434376 171.93437Q41.934376 171.93437 41.5125 172.16875Q41.10625 172.40312 40.871876 172.7625L39.8875 172.6375L40.715626 168.23125L44.996876 168.23125L44.996876 169.23125L41.559376 169.23125L41.10625 171.54375Q41.871876 170.99687 42.715626 170.99687Q43.840626 170.99687 44.60625 171.77812Q45.3875 172.55937 45.3875 173.79375Q45.3875 174.95 44.715626 175.80937Q43.8875 176.84062 42.465626 176.84062Q41.29375 176.84062 40.54375 176.18437Q39.809376 175.52812 39.7 174.45Z" fill-rule="nonzero"/><path fill="#000000" d="M35.246876 75.984375L35.246876 77.0L29.559376 77.0Q29.559376 76.625 29.684376 76.265625Q29.903126 75.6875 30.371876 75.125Q30.85625 74.5625 31.7625 73.828125Q33.16875 72.671875 33.653126 72.0Q34.153126 71.328125 34.153126 70.734375Q34.153126 70.109375 33.7 69.6875Q33.246876 69.25 32.528126 69.25Q31.7625 69.25 31.309376 69.703125Q30.85625 70.15625 30.840626 70.96875L29.7625 70.859375Q29.871876 69.640625 30.590626 69.015625Q31.325 68.375 32.559376 68.375Q33.79375 68.375 34.5125 69.0625Q35.23125 69.75 35.23125 70.765625Q35.23125 71.28125 35.0125 71.78125Q34.809376 72.265625 34.309376 72.828125Q33.825 73.375 32.7 74.328125Q31.746876 75.125 31.465626 75.421875Q31.2 75.703125 31.028126 75.984375L35.246876 75.984375ZM37.29375 77.0L37.29375 75.796875L38.496876 75.796875L38.496876 77.0L37.29375 77.0ZM39.7 72.765625Q39.7 71.234375 40.0125 70.3125Q40.325 69.375 40.934376 68.875Q41.559376 68.375 42.496876 68.375Q43.184376 68.375 43.7 68.65625Q44.23125 68.9375 44.575 69.46875Q44.91875 69.984375 45.10625 70.734375Q45.29375 71.484375 45.29375 72.765625Q45.29375 74.28125 44.98125 75.203125Q44.684376 76.125 44.059376 76.640625Q43.45 77.140625 42.496876 77.140625Q41.2625 77.140625 40.54375 76.25Q39.7 75.1875 39.7 72.765625ZM40.778126 72.765625Q40.778126 74.875 41.278126 75.578125Q41.778126 76.28125 42.496876 76.28125Q43.23125 76.28125 43.715626 75.578125Q44.215626 74.875 44.215626 72.765625Q44.215626 70.640625 43.715626 69.953125Q43.23125 69.25 42.48125 69.25Q41.7625 69.25 41.325 69.859375Q40.778126 70.640625 40.778126 72.765625Z" fill-rule="nonzero"/><path fill="#4285f4" d="M646.8 73.0C646.8 72.447716 647.24774 72.0 647.8 72.0L657.8 72.0C658.3523 72.0 658.8 72.447716 658.8 73.0L658.8 83.0C658.8 83.552284 658.3523 84.0 657.8 84.0L647.8 84.0C647.24774 84.0 646.8 83.552284 646.8 83.0Z" fill-rule="nonzero"/><path fill="#1a1a1a" d="M668.1281 72.703125L668.1281 70.6875L669.89374 70.6875L669.89374 72.703125L668.1281 72.703125ZM668.1281 85.0L668.1281 74.625L669.89374 74.625L669.89374 85.0L668.1281 85.0ZM671.7531 72.5625L671.7531 70.875L681.01874 70.875L681.01874 72.234375Q679.64374 73.6875 678.3 76.109375Q676.95624 78.515625 676.2375 81.0625Q675.70624 82.859375 675.55 85.0L673.7531 85.0Q673.78436 83.3125 674.40936 80.921875Q675.05 78.53125 676.2375 76.3125Q677.425 74.078125 678.7531 72.5625L671.7531 72.5625ZM682.4406 80.703125L682.4406 78.9375L687.83124 78.9375L687.83124 80.703125L682.4406 80.703125ZM692.33124 77.234375Q691.2375 76.828125 690.70624 76.09375Q690.1906 75.34375 690.1906 74.3125Q690.1906 72.75 691.3156 71.6875Q692.4406 70.625 694.3 70.625Q696.175 70.625 697.3156 71.71875Q698.45624 72.796875 698.45624 74.359375Q698.45624 75.359375 697.925 76.09375Q697.40936 76.828125 696.34686 77.234375Q697.675 77.671875 698.3625 78.625Q699.05 79.578125 699.05 80.90625Q699.05 82.75 697.7375 84.0Q696.4406 85.25 694.33124 85.25Q692.20624 85.25 690.90936 84.0Q689.6125 82.734375 689.6125 80.859375Q689.6125 79.46875 690.3156 78.53125Q691.03436 77.578125 692.33124 77.234375ZM691.9875 74.25Q691.9875 75.265625 692.64374 75.921875Q693.3 76.5625 694.33124 76.5625Q695.34686 76.5625 696.0031 75.921875Q696.65936 75.28125 696.65936 74.359375Q696.65936 73.390625 695.9875 72.734375Q695.3156 72.0625 694.3156 72.0625Q693.3156 72.0625 692.64374 72.71875Q691.9875 73.359375 691.9875 74.25ZM691.425 80.875Q691.425 81.625 691.76874 82.328125Q692.1281 83.03125 692.83124 83.421875Q693.53436 83.796875 694.34686 83.796875Q695.6125 83.796875 696.425 82.984375Q697.2531 82.171875 697.2531 80.921875Q697.2531 79.65625 696.40936 78.828125Q695.5656 78.0 694.28436 78.0Q693.05 78.0 692.2375 78.828125Q691.425 79.640625 691.425 80.875ZM700.7531 72.5625L700.7531 70.875L710.01874 70.875L710.01874 72.234375Q708.64374 73.6875 707.3 76.109375Q705.95624 78.515625 705.2375 81.0625Q704.70624 82.859375 704.55 85.0L702.7531 85.0Q702.78436 83.3125 703.40936 80.921875Q704.05 78.53125 705.2375 76.3125Q706.425 74.078125 707.7531 72.5625L700.7531 72.5625ZM711.6281 77.9375Q711.6281 75.40625 712.14374 73.859375Q712.675 72.296875 713.70624 71.46875Q714.7375 70.625 716.3 70.625Q717.45624 70.625 718.3156 71.09375Q719.1906 71.546875 719.7531 72.421875Q720.3156 73.296875 720.64374 74.5625Q720.97186 75.8125 720.97186 77.9375Q720.97186 80.453125 720.4406 82.0Q719.925 83.546875 718.89374 84.40625Q717.8781 85.25 716.3 85.25Q714.22186 85.25 713.05 83.765625Q711.6281 81.96875 711.6281 77.9375ZM713.4406 77.9375Q713.4406 81.46875 714.2531 82.640625Q715.08124 83.796875 716.3 83.796875Q717.5031 83.796875 718.33124 82.625Q719.15936 81.453125 719.15936 77.9375Q719.15936 74.40625 718.33124 73.25Q717.5031 72.078125 716.28436 72.078125Q715.0656 72.078125 714.34686 73.109375Q713.4406 74.40625 713.4406 77.9375ZM722.6281 77.9375Q722.6281 75.40625 723.14374 73.859375Q723.675 72.296875 724.70624 71.46875Q725.7375 70.625 727.3 70.625Q728.45624 70.625 729.3156 71.09375Q730.1906 71.546875 730.7531 72.421875Q731.3156 73.296875 731.64374 74.5625Q731.97186 75.8125 731.97186 77.9375Q731.97186 80.453125 731.4406 82.0Q730.925 83.546875 729.89374 84.40625Q728.8781 85.25 727.3 85.25Q725.22186 85.25 724.05 83.765625Q722.6281 81.96875 722.6281 77.9375ZM724.4406 77.9375Q724.4406 81.46875 725.2531 82.640625Q726.08124 83.796875 727.3 83.796875Q728.5031 83.796875 729.33124 82.625Q730.15936 81.453125 730.15936 77.9375Q730.15936 74.40625 729.33124 73.25Q728.5031 72.078125 727.28436 72.078125Q726.0656 72.078125 725.34686 73.109375Q724.4406 74.40625 724.4406 77.9375ZM734.26874 85.0L734.26874 70.6875L736.15936 70.6875L736.15936 77.78125L743.26874 70.6875L745.83124 70.6875L739.83124 76.484375L746.09686 85.0L743.59686 85.0L738.5031 77.75L736.15936 80.03125L736.15936 85.0L734.26874 85.0Z" fill-rule="nonzero"/><path fill="#ea4335" d="M646.8 107.0C646.8 106.447716 647.24774 106.0 647.8 106.0L657.8 106.0C658.3523 106.0 658.8 106.447716 658.8 107.0L658.8 117.0C658.8 117.552284 658.3523 118.0 657.8 118.0L647.8 118.0C647.24774 118.0 646.8 117.552284 646.8 117.0Z" fill-rule="nonzero"/><path fill="#1a1a1a" d="M667.64374 115.21875L669.39374 114.984375Q669.70624 116.484375 670.425 117.140625Q671.15936 117.796875 672.20624 117.796875Q673.4406 117.796875 674.28436 116.9375Q675.14374 116.078125 675.14374 114.8125Q675.14374 113.59375 674.34686 112.8125Q673.5656 112.03125 672.34686 112.03125Q671.84686 112.03125 671.1125 112.21875L671.3 110.671875Q671.47186 110.703125 671.58124 110.703125Q672.70624 110.703125 673.59686 110.125Q674.5031 109.53125 674.5031 108.3125Q674.5031 107.34375 673.84686 106.703125Q673.1906 106.0625 672.15936 106.0625Q671.14374 106.0625 670.45624 106.71875Q669.76874 107.359375 669.58124 108.640625L667.8156 108.328125Q668.14374 106.5625 669.28436 105.59375Q670.425 104.625 672.1281 104.625Q673.3 104.625 674.28436 105.125Q675.26874 105.625 675.78436 106.5Q676.3156 107.375 676.3156 108.34375Q676.3156 109.265625 675.8156 110.03125Q675.3156 110.796875 674.34686 111.25Q675.6125 111.53125 676.3156 112.46875Q677.01874 113.390625 677.01874 114.765625Q677.01874 116.640625 675.64374 117.953125Q674.28436 119.25 672.1906 119.25Q670.3 119.25 669.05 118.125Q667.8156 117.0 667.64374 115.21875ZM678.89374 115.6875L680.58124 115.53125Q680.8 116.71875 681.39374 117.265625Q682.0031 117.796875 682.95624 117.796875Q683.76874 117.796875 684.3781 117.4375Q684.9875 117.0625 685.3781 116.4375Q685.76874 115.8125 686.03436 114.765625Q686.3 113.703125 686.3 112.609375Q686.3 112.5 686.28436 112.265625Q685.7531 113.09375 684.84686 113.625Q683.9406 114.140625 682.8625 114.140625Q681.09686 114.140625 679.8625 112.859375Q678.6281 111.5625 678.6281 109.453125Q678.6281 107.28125 679.90936 105.953125Q681.20624 104.625 683.1281 104.625Q684.53436 104.625 685.6906 105.375Q686.84686 106.125 687.4406 107.515625Q688.05 108.90625 688.05 111.546875Q688.05 114.296875 687.4406 115.921875Q686.84686 117.546875 685.675 118.40625Q684.5031 119.25 682.925 119.25Q681.2375 119.25 680.175 118.3125Q679.1125 117.375 678.89374 115.6875ZM686.09686 109.375Q686.09686 107.859375 685.28436 106.96875Q684.4875 106.078125 683.34686 106.078125Q682.175 106.078125 681.3 107.046875Q680.4406 108.0 680.4406 109.515625Q680.4406 110.890625 681.2531 111.75Q682.08124 112.59375 683.3 112.59375Q684.51874 112.59375 685.3 111.75Q686.09686 110.890625 686.09686 109.375ZM689.6281 115.25L691.47186 115.09375Q691.675 116.4375 692.425 117.125Q693.175 117.796875 694.2375 117.796875Q695.5031 117.796875 696.3781 116.84375Q697.2531 115.890625 697.2531 114.296875Q697.2531 112.796875 696.40936 111.9375Q695.5656 111.0625 694.20624 111.0625Q693.34686 111.0625 692.65936 111.453125Q691.9875 111.828125 691.59686 112.453125L689.9406 112.234375L691.33124 104.875L698.45624 104.875L698.45624 106.5625L692.7375 106.5625L691.97186 110.40625Q693.2531 109.5 694.675 109.5Q696.55 109.5 697.83124 110.8125Q699.1281 112.109375 699.1281 114.140625Q699.1281 116.09375 697.9875 117.5Q696.6125 119.25 694.2375 119.25Q692.28436 119.25 691.03436 118.15625Q689.8 117.0625 689.6281 115.25ZM700.6281 111.9375Q700.6281 109.40625 701.14374 107.859375Q701.675 106.296875 702.70624 105.46875Q703.7375 104.625 705.3 104.625Q706.45624 104.625 707.3156 105.09375Q708.1906 105.546875 708.7531 106.421875Q709.3156 107.296875 709.64374 108.5625Q709.97186 109.8125 709.97186 111.9375Q709.97186 114.453125 709.4406 116.0Q708.925 117.546875 707.89374 118.40625Q706.8781 119.25 705.3 119.25Q703.22186 119.25 702.05 117.765625Q700.6281 115.96875 700.6281 111.9375ZM702.4406 111.9375Q702.4406 115.46875 703.2531 116.640625Q704.08124 117.796875 705.3 117.796875Q706.5031 117.796875 707.33124 116.625Q708.15936 115.453125 708.15936 111.9375Q708.15936 108.40625 707.33124 107.25Q706.5031 106.078125 705.28436 106.078125Q704.0656 106.078125 703.34686 107.109375Q702.4406 108.40625 702.4406 111.9375ZM710.9406 119.0L714.7375 113.609375L711.2375 108.625L713.425 108.625L715.01874 111.0625Q715.47186 111.75 715.7375 112.21875Q716.175 111.578125 716.53436 111.078125L718.28436 108.625L720.3781 108.625L716.8 113.515625L720.65936 119.0L718.5031 119.0L716.3625 115.78125L715.8 114.90625L713.08124 119.0L710.9406 119.0Z" fill-rule="nonzero"/><path fill="#fbbc04" d="M646.8 141.0C646.8 140.44771 647.24774 140.0 647.8 140.0L657.8 140.0C658.3523 140.0 658.8 140.44771 658.8 141.0L658.8 151.0C658.8 151.55229 658.3523 152.0 657.8 152.0L647.8 152.0C647.24774 152.0 646.8 151.55229 646.8 151.0Z" fill-rule="nonzero"/><path fill="#1a1a1a" d="M668.1281 140.70312L668.1281 138.6875L669.89374 138.6875L669.89374 140.70312L668.1281 140.70312ZM668.1281 153.0L668.1281 142.625L669.89374 142.625L669.89374 153.0L668.1281 153.0ZM671.89374 149.6875L673.58124 149.53125Q673.8 150.71875 674.39374 151.26562Q675.0031 151.79688 675.95624 151.79688Q676.76874 151.79688 677.3781 151.4375Q677.9875 151.0625 678.3781 150.4375Q678.76874 149.8125 679.03436 148.76562Q679.3 147.70312 679.3 146.60938Q679.3 146.5 679.28436 146.26562Q678.7531 147.09375 677.84686 147.625Q676.9406 148.14062 675.8625 148.14062Q674.09686 148.14062 672.8625 146.85938Q671.6281 145.5625 671.6281 143.45312Q671.6281 141.28125 672.90936 139.95312Q674.20624 138.625 676.1281 138.625Q677.53436 138.625 678.6906 139.375Q679.84686 140.125 680.4406 141.51562Q681.05 142.90625 681.05 145.54688Q681.05 148.29688 680.4406 149.92188Q679.84686 151.54688 678.675 152.40625Q677.5031 153.25 675.925 153.25Q674.2375 153.25 673.175 152.3125Q672.1125 151.375 671.89374 149.6875ZM679.09686 143.375Q679.09686 141.85938 678.28436 140.96875Q677.4875 140.07812 676.34686 140.07812Q675.175 140.07812 674.3 141.04688Q673.4406 142.0 673.4406 143.51562Q673.4406 144.89062 674.2531 145.75Q675.08124 146.59375 676.3 146.59375Q677.51874 146.59375 678.3 145.75Q679.09686 144.89062 679.09686 143.375ZM682.4406 148.70312L682.4406 146.9375L687.83124 146.9375L687.83124 148.70312L682.4406 148.70312ZM692.33124 145.23438Q691.2375 144.82812 690.70624 144.09375Q690.1906 143.34375 690.1906 142.3125Q690.1906 140.75 691.3156 139.6875Q692.4406 138.625 694.3 138.625Q696.175 138.625 697.3156 139.71875Q698.45624 140.79688 698.45624 142.35938Q698.45624 143.35938 697.925 144.09375Q697.40936 144.82812 696.34686 145.23438Q697.675 145.67188 698.3625 146.625Q699.05 147.57812 699.05 148.90625Q699.05 150.75 697.7375 152.0Q696.4406 153.25 694.33124 153.25Q692.20624 153.25 690.90936 152.0Q689.6125 150.73438 689.6125 148.85938Q689.6125 147.46875 690.3156 146.53125Q691.03436 145.57812 692.33124 145.23438ZM691.9875 142.25Q691.9875 143.26562 692.64374 143.92188Q693.3 144.5625 694.33124 144.5625Q695.34686 144.5625 696.0031 143.92188Q696.65936 143.28125 696.65936 142.35938Q696.65936 141.39062 695.9875 140.73438Q695.3156 140.0625 694.3156 140.0625Q693.3156 140.0625 692.64374 140.71875Q691.9875 141.35938 691.9875 142.25ZM691.425 148.875Q691.425 149.625 691.76874 150.32812Q692.1281 151.03125 692.83124 151.42188Q693.53436 151.79688 694.34686 151.79688Q695.6125 151.79688 696.425 150.98438Q697.2531 150.17188 697.2531 148.92188Q697.2531 147.65625 696.40936 146.82812Q695.5656 146.0 694.28436 146.0Q693.05 146.0 692.2375 146.82812Q691.425 147.64062 691.425 148.875ZM700.89374 149.6875L702.58124 149.53125Q702.8 150.71875 703.39374 151.26562Q704.0031 151.79688 704.95624 151.79688Q705.76874 151.79688 706.3781 151.4375Q706.9875 151.0625 707.3781 150.4375Q707.76874 149.8125 708.03436 148.76562Q708.3 147.70312 708.3 146.60938Q708.3 146.5 708.28436 146.26562Q707.7531 147.09375 706.84686 147.625Q705.9406 148.14062 704.8625 148.14062Q703.09686 148.14062 701.8625 146.85938Q700.6281 145.5625 700.6281 143.45312Q700.6281 141.28125 701.90936 139.95312Q703.20624 138.625 705.1281 138.625Q706.53436 138.625 707.6906 139.375Q708.84686 140.125 709.4406 141.51562Q710.05 142.90625 710.05 145.54688Q710.05 148.29688 709.4406 149.92188Q708.84686 151.54688 707.675 152.40625Q706.5031 153.25 704.925 153.25Q703.2375 153.25 702.175 152.3125Q701.1125 151.375 700.89374 149.6875ZM708.09686 143.375Q708.09686 141.85938 707.28436 140.96875Q706.4875 140.07812 705.34686 140.07812Q704.175 140.07812 703.3 141.04688Q702.4406 142.0 702.4406 143.51562Q702.4406 144.89062 703.2531 145.75Q704.08124 146.59375 705.3 146.59375Q706.51874 146.59375 707.3 145.75Q708.09686 144.89062 708.09686 143.375ZM711.6281 149.25L713.47186 149.09375Q713.675 150.4375 714.425 151.125Q715.175 151.79688 716.2375 151.79688Q717.5031 151.79688 718.3781 150.84375Q719.2531 149.89062 719.2531 148.29688Q719.2531 146.79688 718.40936 145.9375Q717.5656 145.0625 716.20624 145.0625Q715.34686 145.0625 714.65936 145.45312Q713.9875 145.82812 713.59686 146.45312L711.9406 146.23438L713.33124 138.875L720.45624 138.875L720.45624 140.5625L714.7375 140.5625L713.97186 144.40625Q715.2531 143.5 716.675 143.5Q718.55 143.5 719.83124 144.8125Q721.1281 146.10938 721.1281 148.14062Q721.1281 150.09375 719.9875 151.5Q718.6125 153.25 716.2375 153.25Q714.28436 153.25 713.03436 152.15625Q711.8 151.0625 711.6281 149.25ZM722.6281 145.9375Q722.6281 143.40625 723.14374 141.85938Q723.675 140.29688 724.70624 139.46875Q725.7375 138.625 727.3 138.625Q728.45624 138.625 729.3156 139.09375Q730.1906 139.54688 730.7531 140.42188Q731.3156 141.29688 731.64374 142.5625Q731.97186 143.8125 731.97186 145.9375Q731.97186 148.45312 731.4406 150.0Q730.925 151.54688 729.89374 152.40625Q728.8781 153.25 727.3 153.25Q725.22186 153.25 724.05 151.76562Q722.6281 149.96875 722.6281 145.9375ZM724.4406 145.9375Q724.4406 149.46875 725.2531 150.64062Q726.08124 151.79688 727.3 151.79688Q728.5031 151.79688 729.33124 150.625Q730.15936 149.45312 730.15936 145.9375Q730.15936 142.40625 729.33124 141.25Q728.5031 140.07812 727.28436 140.07812Q726.0656 140.07812 725.34686 141.10938Q724.4406 142.40625 724.4406 145.9375ZM734.40936 153.0L734.40936 138.6875L736.3 138.6875L736.3 144.5625L743.7375 144.5625L743.7375 138.6875L745.6281 138.6875L745.6281 153.0L743.7375 153.0L743.7375 146.25L736.3 146.25L736.3 153.0L734.40936 153.0ZM748.26874 153.0L748.26874 138.6875L750.15936 138.6875L750.15936 145.78125L757.26874 138.6875L759.83124 138.6875L753.83124 144.48438L760.09686 153.0L757.59686 153.0L752.5031 145.75L750.15936 148.03125L750.15936 153.0L748.26874 153.0Z" fill-rule="nonzero"/><path fill="#34a853" d="M646.8 175.0C646.8 174.44771 647.24774 174.0 647.8 174.0L657.8 174.0C658.3523 174.0 658.8 174.44771 658.8 175.0L658.8 185.0C658.8 185.55229 658.3523 186.0 657.8 186.0L647.8 186.0C647.24774 186.0 646.8 185.55229 646.8 185.0Z" fill-rule="nonzero"/><path fill="#1a1a1a" d="M668.1281 174.70312L668.1281 172.6875L669.89374 172.6875L669.89374 174.70312L668.1281 174.70312ZM668.1281 187.0L668.1281 176.625L669.89374 176.625L669.89374 187.0L668.1281 187.0ZM671.7531 174.5625L671.7531 172.875L681.01874 172.875L681.01874 174.23438Q679.64374 175.6875 678.3 178.10938Q676.95624 180.51562 676.2375 183.0625Q675.70624 184.85938 675.55 187.0L673.7531 187.0Q673.78436 185.3125 674.40936 182.92188Q675.05 180.53125 676.2375 178.3125Q677.425 176.07812 678.7531 174.5625L671.7531 174.5625ZM682.4406 182.70312L682.4406 180.9375L687.83124 180.9375L687.83124 182.70312L682.4406 182.70312ZM695.26874 187.0L695.26874 183.57812L689.05 183.57812L689.05 181.95312L695.58124 172.6875L697.01874 172.6875L697.01874 181.95312L698.95624 181.95312L698.95624 183.57812L697.01874 183.57812L697.01874 187.0L695.26874 187.0ZM695.26874 181.95312L695.26874 175.5L690.78436 181.95312L695.26874 181.95312ZM700.89374 183.6875L702.58124 183.53125Q702.8 184.71875 703.39374 185.26562Q704.0031 185.79688 704.95624 185.79688Q705.76874 185.79688 706.3781 185.4375Q706.9875 185.0625 707.3781 184.4375Q707.76874 183.8125 708.03436 182.76562Q708.3 181.70312 708.3 180.60938Q708.3 180.5 708.28436 180.26562Q707.7531 181.09375 706.84686 181.625Q705.9406 182.14062 704.8625 182.14062Q703.09686 182.14062 701.8625 180.85938Q700.6281 179.5625 700.6281 177.45312Q700.6281 175.28125 701.90936 173.95312Q703.20624 172.625 705.1281 172.625Q706.53436 172.625 707.6906 173.375Q708.84686 174.125 709.4406 175.51562Q710.05 176.90625 710.05 179.54688Q710.05 182.29688 709.4406 183.92188Q708.84686 185.54688 707.675 186.40625Q706.5031 187.25 704.925 187.25Q703.2375 187.25 702.175 186.3125Q701.1125 185.375 700.89374 183.6875ZM708.09686 177.375Q708.09686 175.85938 707.28436 174.96875Q706.4875 174.07812 705.34686 174.07812Q704.175 174.07812 703.3 175.04688Q702.4406 176.0 702.4406 177.51562Q702.4406 178.89062 703.2531 179.75Q704.08124 180.59375 705.3 180.59375Q706.51874 180.59375 707.3 179.75Q708.09686 178.89062 708.09686 177.375ZM720.7531 176.1875L719.0031 176.32812Q718.76874 175.29688 718.34686 174.82812Q717.6281 174.0625 716.58124 174.0625Q715.7375 174.0625 715.1125 174.53125Q714.28436 175.14062 713.8 176.3125Q713.3156 177.46875 713.3 179.60938Q713.9406 178.65625 714.84686 178.1875Q715.76874 177.71875 716.78436 177.71875Q718.53436 177.71875 719.76874 179.01562Q721.0031 180.29688 721.0031 182.34375Q721.0031 183.70312 720.425 184.85938Q719.84686 186.01562 718.83124 186.64062Q717.8156 187.25 716.51874 187.25Q714.33124 187.25 712.9406 185.64062Q711.55 184.01562 711.55 180.29688Q711.55 176.15625 713.08124 174.26562Q714.425 172.625 716.6906 172.625Q718.3781 172.625 719.45624 173.57812Q720.53436 174.51562 720.7531 176.1875ZM713.58124 182.35938Q713.58124 183.26562 713.95624 184.09375Q714.34686 184.92188 715.03436 185.35938Q715.7375 185.79688 716.4875 185.79688Q717.6125 185.79688 718.40936 184.90625Q719.20624 184.0 719.20624 182.45312Q719.20624 180.96875 718.40936 180.125Q717.6281 179.26562 716.425 179.26562Q715.2375 179.26562 714.40936 180.125Q713.58124 180.96875 713.58124 182.35938ZM722.6281 179.9375Q722.6281 177.40625 723.14374 175.85938Q723.675 174.29688 724.70624 173.46875Q725.7375 172.625 727.3 172.625Q728.45624 172.625 729.3156 173.09375Q730.1906 173.54688 730.7531 174.42188Q731.3156 175.29688 731.64374 176.5625Q731.97186 177.8125 731.97186 179.9375Q731.97186 182.45312 731.4406 184.0Q730.925 185.54688 729.89374 186.40625Q728.8781 187.25 727.3 187.25Q725.22186 187.25 724.05 185.76562Q722.6281 183.96875 722.6281 179.9375ZM724.4406 179.9375Q724.4406 183.46875 725.2531 184.64062Q726.08124 185.79688 727.3 185.79688Q728.5031 185.79688 729.33124 184.625Q730.15936 183.45312 730.15936 179.9375Q730.15936 176.40625 729.33124 175.25Q728.5031 174.07812 727.28436 174.07812Q726.0656 174.07812 725.34686 175.10938Q724.4406 176.40625 724.4406 179.9375ZM734.40936 187.0L734.40936 172.6875L736.3 172.6875L736.3 178.5625L743.7375 178.5625L743.7375 172.6875L745.6281 172.6875L745.6281 187.0L743.7375 187.0L743.7375 180.25L736.3 180.25L736.3 187.0L734.40936 187.0ZM759.1906 185.46875Q760.51874 186.375 761.6281 186.79688L761.0656 188.10938Q759.51874 187.5625 757.9875 186.35938Q756.39374 187.25 754.47186 187.25Q752.53436 187.25 750.9406 186.3125Q749.3625 185.375 748.5031 183.67188Q747.65936 181.96875 747.65936 179.84375Q747.65936 177.71875 748.51874 175.98438Q749.3781 174.25 750.95624 173.34375Q752.55 172.42188 754.51874 172.42188Q756.5031 172.42188 758.08124 173.375Q759.675 174.3125 760.5031 176.01562Q761.34686 177.70312 761.34686 179.82812Q761.34686 181.59375 760.8156 183.01562Q760.28436 184.42188 759.1906 185.46875ZM755.01874 183.04688Q756.65936 183.5 757.72186 184.40625Q759.39374 182.89062 759.39374 179.82812Q759.39374 178.09375 758.8 176.79688Q758.22186 175.5 757.08124 174.78125Q755.9406 174.0625 754.51874 174.0625Q752.40936 174.0625 751.0031 175.51562Q749.6125 176.95312 749.6125 179.84375Q749.6125 182.64062 750.9875 184.14062Q752.3781 185.625 754.51874 185.625Q755.53436 185.625 756.4406 185.23438Q755.55 184.67188 754.5656 184.42188L755.01874 183.04688Z" fill-rule="nonzero"/><path fill="#ff6d01" d="M646.8 209.0C646.8 208.44771 647.24774 208.0 647.8 208.0L657.8 208.0C658.3523 208.0 658.8 208.44771 658.8 209.0L658.8 219.0C658.8 219.55229 658.3523 220.0 657.8 220.0L647.8 220.0C647.24774 220.0 646.8 219.55229 646.8 219.0Z" fill-rule="nonzero"/><path fill="#1a1a1a" d="M668.1281 208.70312L668.1281 206.6875L669.89374 206.6875L669.89374 208.70312L668.1281 208.70312ZM668.1281 221.0L668.1281 210.625L669.89374 210.625L669.89374 221.0L668.1281 221.0ZM671.6281 217.25L673.47186 217.09375Q673.675 218.4375 674.425 219.125Q675.175 219.79688 676.2375 219.79688Q677.5031 219.79688 678.3781 218.84375Q679.2531 217.89062 679.2531 216.29688Q679.2531 214.79688 678.40936 213.9375Q677.5656 213.0625 676.20624 213.0625Q675.34686 213.0625 674.65936 213.45312Q673.9875 213.82812 673.59686 214.45312L671.9406 214.23438L673.33124 206.875L680.45624 206.875L680.45624 208.5625L674.7375 208.5625L673.97186 212.40625Q675.2531 211.5 676.675 211.5Q678.55 211.5 679.83124 212.8125Q681.1281 214.10938 681.1281 216.14062Q681.1281 218.09375 679.9875 219.5Q678.6125 221.25 676.2375 221.25Q674.28436 221.25 673.03436 220.15625Q671.8 219.0625 671.6281 217.25ZM682.4406 216.70312L682.4406 214.9375L687.83124 214.9375L687.83124 216.70312L682.4406 216.70312ZM689.7531 208.5625L689.7531 206.875L699.01874 206.875L699.01874 208.23438Q697.64374 209.6875 696.3 212.10938Q694.95624 214.51562 694.2375 217.0625Q693.70624 218.85938 693.55 221.0L691.7531 221.0Q691.78436 219.3125 692.40936 216.92188Q693.05 214.53125 694.2375 212.3125Q695.425 210.07812 696.7531 208.5625L689.7531 208.5625ZM700.6281 217.25L702.47186 217.09375Q702.675 218.4375 703.425 219.125Q704.175 219.79688 705.2375 219.79688Q706.5031 219.79688 707.3781 218.84375Q708.2531 217.89062 708.2531 216.29688Q708.2531 214.79688 707.40936 213.9375Q706.5656 213.0625 705.20624 213.0625Q704.34686 213.0625 703.65936 213.45312Q702.9875 213.82812 702.59686 214.45312L700.9406 214.23438L702.33124 206.875L709.45624 206.875L709.45624 208.5625L703.7375 208.5625L702.97186 212.40625Q704.2531 211.5 705.675 211.5Q707.55 211.5 708.83124 212.8125Q710.1281 214.10938 710.1281 216.14062Q710.1281 218.09375 708.9875 219.5Q707.6125 221.25 705.2375 221.25Q703.28436 221.25 702.03436 220.15625Q700.8 219.0625 700.6281 217.25ZM711.6281 213.9375Q711.6281 211.40625 712.14374 209.85938Q712.675 208.29688 713.70624 207.46875Q714.7375 206.625 716.3 206.625Q717.45624 206.625 718.3156 207.09375Q719.1906 207.54688 719.7531 208.42188Q720.3156 209.29688 720.64374 210.5625Q720.97186 211.8125 720.97186 213.9375Q720.97186 216.45312 720.4406 218.0Q719.925 219.54688 718.89374 220.40625Q717.8781 221.25 716.3 221.25Q714.22186 221.25 713.05 219.76562Q711.6281 217.96875 711.6281 213.9375ZM713.4406 213.9375Q713.4406 217.46875 714.2531 218.64062Q715.08124 219.79688 716.3 219.79688Q717.5031 219.79688 718.33124 218.625Q719.15936 217.45312 719.15936 213.9375Q719.15936 210.40625 718.33124 209.25Q717.5031 208.07812 716.28436 208.07812Q715.0656 208.07812 714.34686 209.10938Q713.4406 210.40625 713.4406 213.9375ZM722.6281 213.9375Q722.6281 211.40625 723.14374 209.85938Q723.675 208.29688 724.70624 207.46875Q725.7375 206.625 727.3 206.625Q728.45624 206.625 729.3156 207.09375Q730.1906 207.54688 730.7531 208.42188Q731.3156 209.29688 731.64374 210.5625Q731.97186 211.8125 731.97186 213.9375Q731.97186 216.45312 731.4406 218.0Q730.925 219.54688 729.89374 220.40625Q728.8781 221.25 727.3 221.25Q725.22186 221.25 724.05 219.76562Q722.6281 217.96875 722.6281 213.9375ZM724.4406 213.9375Q724.4406 217.46875 725.2531 218.64062Q726.08124 219.79688 727.3 219.79688Q728.5031 219.79688 729.33124 218.625Q730.15936 217.45312 730.15936 213.9375Q730.15936 210.40625 729.33124 209.25Q728.5031 208.07812 727.28436 208.07812Q726.0656 208.07812 725.34686 209.10938Q724.4406 210.40625 724.4406 213.9375Z" fill-rule="nonzero"/><path fill="#46bdc6" d="M646.8 243.0C646.8 242.44771 647.24774 242.0 647.8 242.0L657.8 242.0C658.3523 242.0 658.8 242.44771 658.8 243.0L658.8 253.0C658.8 253.55229 658.3523 254.0 657.8 254.0L647.8 254.0C647.24774 254.0 646.8 253.55229 646.8 253.0Z" fill-rule="nonzero"/><path fill="#1a1a1a" d="M667.64374 251.21875L669.39374 250.98438Q669.70624 252.48438 670.425 253.14062Q671.15936 253.79688 672.20624 253.79688Q673.4406 253.79688 674.28436 252.9375Q675.14374 252.07812 675.14374 250.8125Q675.14374 249.59375 674.34686 248.8125Q673.5656 248.03125 672.34686 248.03125Q671.84686 248.03125 671.1125 248.21875L671.3 246.67188Q671.47186 246.70312 671.58124 246.70312Q672.70624 246.70312 673.59686 246.125Q674.5031 245.53125 674.5031 244.3125Q674.5031 243.34375 673.84686 242.70312Q673.1906 242.0625 672.15936 242.0625Q671.14374 242.0625 670.45624 242.71875Q669.76874 243.35938 669.58124 244.64062L667.8156 244.32812Q668.14374 242.5625 669.28436 241.59375Q670.425 240.625 672.1281 240.625Q673.3 240.625 674.28436 241.125Q675.26874 241.625 675.78436 242.5Q676.3156 243.375 676.3156 244.34375Q676.3156 245.26562 675.8156 246.03125Q675.3156 246.79688 674.34686 247.25Q675.6125 247.53125 676.3156 248.46875Q677.01874 249.39062 677.01874 250.76562Q677.01874 252.64062 675.64374 253.95312Q674.28436 255.25 672.1906 255.25Q670.3 255.25 669.05 254.125Q667.8156 253.0 667.64374 251.21875ZM687.7531 244.1875L686.0031 244.32812Q685.76874 243.29688 685.34686 242.82812Q684.6281 242.0625 683.58124 242.0625Q682.7375 242.0625 682.1125 242.53125Q681.28436 243.14062 680.8 244.3125Q680.3156 245.46875 680.3 247.60938Q680.9406 246.65625 681.84686 246.1875Q682.76874 245.71875 683.78436 245.71875Q685.53436 245.71875 686.76874 247.01562Q688.0031 248.29688 688.0031 250.34375Q688.0031 251.70312 687.425 252.85938Q686.84686 254.01562 685.83124 254.64062Q684.8156 255.25 683.51874 255.25Q681.33124 255.25 679.9406 253.64062Q678.55 252.01562 678.55 248.29688Q678.55 244.15625 680.08124 242.26562Q681.425 240.625 683.6906 240.625Q685.3781 240.625 686.45624 241.57812Q687.53436 242.51562 687.7531 244.1875ZM680.58124 250.35938Q680.58124 251.26562 680.95624 252.09375Q681.34686 252.92188 682.03436 253.35938Q682.7375 253.79688 683.4875 253.79688Q684.6125 253.79688 685.40936 252.90625Q686.20624 252.0 686.20624 250.45312Q686.20624 248.96875 685.40936 248.125Q684.6281 247.26562 683.425 247.26562Q682.2375 247.26562 681.40936 248.125Q680.58124 248.96875 680.58124 250.35938ZM689.6281 247.9375Q689.6281 245.40625 690.14374 243.85938Q690.675 242.29688 691.70624 241.46875Q692.7375 240.625 694.3 240.625Q695.45624 240.625 696.3156 241.09375Q697.1906 241.54688 697.7531 242.42188Q698.3156 243.29688 698.64374 244.5625Q698.97186 245.8125 698.97186 247.9375Q698.97186 250.45312 698.4406 252.0Q697.925 253.54688 696.89374 254.40625Q695.8781 255.25 694.3 255.25Q692.22186 255.25 691.05 253.76562Q689.6281 251.96875 689.6281 247.9375ZM691.4406 247.9375Q691.4406 251.46875 692.2531 252.64062Q693.08124 253.79688 694.3 253.79688Q695.5031 253.79688 696.33124 252.625Q697.15936 251.45312 697.15936 247.9375Q697.15936 244.40625 696.33124 243.25Q695.5031 242.07812 694.28436 242.07812Q693.0656 242.07812 692.34686 243.10938Q691.4406 244.40625 691.4406 247.9375ZM700.6281 247.9375Q700.6281 245.40625 701.14374 243.85938Q701.675 242.29688 702.70624 241.46875Q703.7375 240.625 705.3 240.625Q706.45624 240.625 707.3156 241.09375Q708.1906 241.54688 708.7531 242.42188Q709.3156 243.29688 709.64374 244.5625Q709.97186 245.8125 709.97186 247.9375Q709.97186 250.45312 709.4406 252.0Q708.925 253.54688 707.89374 254.40625Q706.8781 255.25 705.3 255.25Q703.22186 255.25 702.05 253.76562Q700.6281 251.96875 700.6281 247.9375ZM702.4406 247.9375Q702.4406 251.46875 703.2531 252.64062Q704.08124 253.79688 705.3 253.79688Q706.5031 253.79688 707.33124 252.625Q708.15936 251.45312 708.15936 247.9375Q708.15936 244.40625 707.33124 243.25Q706.5031 242.07812 705.28436 242.07812Q704.0656 242.07812 703.34686 243.10938Q702.4406 244.40625 702.4406 247.9375Z" fill-rule="nonzero"/><path fill="#757575" d="M26.10625 39.60625L27.8875 39.45Q28.0125 40.5125 28.465626 41.2Q28.934376 41.8875 29.903126 42.325Q30.8875 42.746876 32.121876 42.746876Q33.2 42.746876 34.028126 42.434376Q34.85625 42.10625 35.2625 41.54375Q35.66875 40.98125 35.66875 40.309376Q35.66875 39.6375 35.278126 39.1375Q34.8875 38.6375 33.996876 38.29375Q33.41875 38.059376 31.434376 37.590626Q29.465626 37.121876 28.684376 36.7Q27.653126 36.16875 27.153126 35.371876Q26.653126 34.575 26.653126 33.590626Q26.653126 32.496876 27.2625 31.559376Q27.871876 30.621876 29.059376 30.1375Q30.246876 29.6375 31.684376 29.6375Q33.278126 29.6375 34.496876 30.153126Q35.715626 30.66875 36.35625 31.66875Q37.0125 32.653126 37.059376 33.91875L35.246876 34.059376Q35.10625 32.7 34.2625 32.0125Q33.41875 31.309376 31.7625 31.309376Q30.04375 31.309376 29.246876 31.95Q28.465626 32.575 28.465626 33.45Q28.465626 34.23125 29.028126 34.73125Q29.575 35.23125 31.8875 35.746876Q34.2 36.2625 35.059376 36.653126Q36.309376 37.23125 36.903126 38.121876Q37.496876 38.996876 37.496876 40.153126Q37.496876 41.29375 36.840626 42.309376Q36.184376 43.325 34.95 43.8875Q33.73125 44.45 32.2 44.45Q30.2625 44.45 28.95 43.8875Q27.6375 43.309376 26.8875 42.16875Q26.1375 41.028126 26.10625 39.60625ZM38.871876 39.0125Q38.871876 36.1375 40.465626 34.746876Q41.809376 33.590626 43.73125 33.590626Q45.871876 33.590626 47.215626 34.996876Q48.575 36.403126 48.575 38.871876Q48.575 40.871876 47.98125 42.028126Q47.3875 43.16875 46.23125 43.809376Q45.090626 44.434376 43.73125 44.434376Q41.54375 44.434376 40.2 43.04375Q38.871876 41.6375 38.871876 39.0125ZM40.66875 39.0125Q40.66875 41.0125 41.528126 41.996876Q42.403126 42.98125 43.73125 42.98125Q45.04375 42.98125 45.903126 41.996876Q46.778126 40.996876 46.778126 38.95Q46.778126 37.028126 45.903126 36.04375Q45.028126 35.04375 43.73125 35.04375Q42.403126 35.04375 41.528126 36.04375Q40.66875 37.028126 40.66875 39.0125ZM57.29375 40.403126L59.0125 40.621876Q58.73125 42.41875 57.559376 43.434376Q56.403126 44.434376 54.7 44.434376Q52.575 44.434376 51.278126 43.04375Q49.98125 41.653126 49.98125 39.059376Q49.98125 37.371876 50.528126 36.121876Q51.090626 34.85625 52.23125 34.23125Q53.371876 33.590626 54.715626 33.590626Q56.403126 33.590626 57.465626 34.45Q58.54375 35.309376 58.85625 36.871876L57.1375 37.1375Q56.903126 36.090626 56.278126 35.575Q55.653126 35.04375 54.778126 35.04375Q53.45 35.04375 52.621876 35.996876Q51.79375 36.95 51.79375 38.996876Q51.79375 41.090626 52.590626 42.04375Q53.3875 42.98125 54.684376 42.98125Q55.715626 42.98125 56.403126 42.35625Q57.10625 41.715626 57.29375 40.403126ZM60.528126 44.2L60.528126 29.8875L62.29375 29.8875L62.29375 38.04375L66.45 33.825L68.71562 33.825L64.7625 37.66875L69.12187 44.2L66.95 44.2L63.528126 38.903126L62.29375 40.090626L62.29375 44.2L60.528126 44.2ZM77.62187 40.85625L79.43437 41.090626Q79.0125 42.66875 77.84062 43.559376Q76.68437 44.434376 74.87187 44.434376Q72.60625 44.434376 71.2625 43.04375Q69.93437 41.6375 69.93437 39.10625Q69.93437 36.48125 71.27812 35.04375Q72.62187 33.590626 74.77812 33.590626Q76.85625 33.590626 78.16875 35.0125Q79.49687 36.41875 79.49687 38.996876Q79.49687 39.153126 79.48125 39.465626L71.74687 39.465626Q71.84062 41.16875 72.71562 42.075Q73.59062 42.98125 74.8875 42.98125Q75.85625 42.98125 76.52812 42.48125Q77.21562 41.965626 77.62187 40.85625ZM71.84062 38.0125L77.6375 38.0125Q77.52812 36.715626 76.98125 36.059376Q76.1375 35.04375 74.79375 35.04375Q73.59062 35.04375 72.7625 35.85625Q71.93437 36.653126 71.84062 38.0125ZM85.35625 42.621876L85.60625 44.184376Q84.87187 44.340626 84.27812 44.340626Q83.325 44.340626 82.79375 44.04375Q82.27812 43.73125 82.05937 43.246876Q81.84062 42.746876 81.84062 41.16875L81.84062 35.2L80.55937 35.2L80.55937 33.825L81.84062 33.825L81.84062 31.2625L83.59062 30.2L83.59062 33.825L85.35625 33.825L85.35625 35.2L83.59062 35.2L83.59062 41.2625Q83.59062 42.0125 83.68437 42.23125Q83.77812 42.434376 83.98125 42.575Q84.2 42.7 84.59062 42.7Q84.87187 42.7 85.35625 42.621876ZM96.24687 44.2L92.45 29.8875L94.3875 29.8875L96.55937 39.2625Q96.91875 40.746876 97.16875 42.2Q97.71562 39.903126 97.80937 39.54375L100.54375 29.8875L102.825 29.8875L104.87187 37.121876Q105.65312 39.825 105.99687 42.2Q106.2625 40.840626 106.7 39.075L108.95 29.8875L110.85625 29.8875L106.93437 44.2L105.10625 44.2L102.09062 33.29375Q101.7 31.91875 101.6375 31.60625Q101.40312 32.590626 101.21562 33.29375L98.18437 44.2L96.24687 44.2ZM119.62187 40.85625L121.43437 41.090626Q121.0125 42.66875 119.84062 43.559376Q118.68437 44.434376 116.87187 44.434376Q114.60625 44.434376 113.2625 43.04375Q111.93437 41.6375 111.93437 39.10625Q111.93437 36.48125 113.27812 35.04375Q114.62187 33.590626 116.77812 33.590626Q118.85625 33.590626 120.16875 35.0125Q121.49687 36.41875 121.49687 38.996876Q121.49687 39.153126 121.48125 39.465626L113.74687 39.465626Q113.84062 41.16875 114.71562 42.075Q115.59062 42.98125 116.8875 42.98125Q117.85625 42.98125 118.52812 42.48125Q119.21562 41.965626 119.62187 40.85625ZM113.84062 38.0125L119.6375 38.0125Q119.52812 36.715626 118.98125 36.059376Q118.1375 35.04375 116.79375 35.04375Q115.59062 35.04375 114.7625 35.85625Q113.93437 36.653126 113.84062 38.0125ZM130.29375 42.91875Q129.30937 43.746876 128.40312 44.090626Q127.49687 44.434376 126.46562 44.434376Q124.7625 44.434376 123.84062 43.60625Q122.91875 42.7625 122.91875 41.465626Q122.91875 40.7 123.2625 40.075Q123.62187 39.45 124.18437 39.075Q124.74687 38.684376 125.45 38.48125Q125.96562 38.35625 127.0125 38.215626Q129.1375 37.965626 130.1375 37.621876Q130.15312 37.2625 130.15312 37.153126Q130.15312 36.090626 129.65312 35.6375Q128.98125 35.04375 127.65312 35.04375Q126.40312 35.04375 125.80937 35.48125Q125.23125 35.91875 124.95 37.028126L123.23125 36.79375Q123.46562 35.684376 123.99687 35.0125Q124.52812 34.325 125.54375 33.965626Q126.55937 33.590626 127.90312 33.590626Q129.23125 33.590626 130.05937 33.903126Q130.8875 34.215626 131.27812 34.7Q131.66875 35.16875 131.825 35.8875Q131.91875 36.340626 131.91875 37.5125L131.91875 39.85625Q131.91875 42.309376 132.02812 42.965626Q132.1375 43.60625 132.48125 44.2L130.6375 44.2Q130.37187 43.653126 130.29375 42.91875ZM130.1375 38.996876Q129.18437 39.3875 127.2625 39.653126Q126.18437 39.809376 125.73125 40.0125Q125.29375 40.2 125.04375 40.575Q124.79375 40.95 124.79375 41.41875Q124.79375 42.121876 125.325 42.590626Q125.85625 43.059376 126.8875 43.059376Q127.90312 43.059376 128.68437 42.621876Q129.48125 42.16875 129.85625 41.403126Q130.1375 40.79375 130.1375 39.6375L130.1375 38.996876ZM138.35625 42.621876L138.60625 44.184376Q137.87187 44.340626 137.27812 44.340626Q136.325 44.340626 135.79375 44.04375Q135.27812 43.73125 135.05937 43.246876Q134.84062 42.746876 134.84062 41.16875L134.84062 35.2L133.55937 35.2L133.55937 33.825L134.84062 33.825L134.84062 31.2625L136.59062 30.2L136.59062 33.825L138.35625 33.825L138.35625 35.2L136.59062 35.2L136.59062 41.2625Q136.59062 42.0125 136.68437 42.23125Q136.77812 42.434376 136.98125 42.575Q137.2 42.7 137.59062 42.7Q137.87187 42.7 138.35625 42.621876ZM140.5125 44.2L140.5125 29.8875L142.27812 29.8875L142.27812 35.0125Q143.5125 33.590626 145.3875 33.590626Q146.52812 33.590626 147.37187 34.04375Q148.23125 34.496876 148.59062 35.309376Q148.96562 36.10625 148.96562 37.621876L148.96562 44.2L147.21562 44.2L147.21562 37.621876Q147.21562 36.309376 146.6375 35.715626Q146.05937 35.10625 145.02812 35.10625Q144.24687 35.10625 143.54375 35.5125Q142.85625 35.91875 142.55937 36.621876Q142.27812 37.309376 142.27812 38.528126L142.27812 44.2L140.5125 44.2ZM158.62187 40.85625L160.43437 41.090626Q160.0125 42.66875 158.84062 43.559376Q157.68437 44.434376 155.87187 44.434376Q153.60625 44.434376 152.2625 43.04375Q150.93437 41.6375 150.93437 39.10625Q150.93437 36.48125 152.27812 35.04375Q153.62187 33.590626 155.77812 33.590626Q157.85625 33.590626 159.16875 35.0125Q160.49687 36.41875 160.49687 38.996876Q160.49687 39.153126 160.48125 39.465626L152.74687 39.465626Q152.84062 41.16875 153.71562 42.075Q154.59062 42.98125 155.8875 42.98125Q156.85625 42.98125 157.52812 42.48125Q158.21562 41.965626 158.62187 40.85625ZM152.84062 38.0125L158.6375 38.0125Q158.52812 36.715626 157.98125 36.059376Q157.1375 35.04375 155.79375 35.04375Q154.59062 35.04375 153.7625 35.85625Q152.93437 36.653126 152.84062 38.0125ZM162.49687 44.2L162.49687 33.825L164.075 33.825L164.075 35.403126Q164.68437 34.29375 165.2 33.95Q165.71562 33.590626 166.325 33.590626Q167.21562 33.590626 168.1375 34.153126L167.52812 35.79375Q166.8875 35.403126 166.24687 35.403126Q165.66875 35.403126 165.2 35.7625Q164.74687 36.10625 164.54375 36.715626Q164.2625 37.653126 164.2625 38.7625L164.2625 44.2L162.49687 44.2ZM175.52812 31.903126L175.52812 29.8875L177.29375 29.8875L177.29375 31.903126L175.52812 31.903126ZM175.52812 44.2L175.52812 33.825L177.29375 33.825L177.29375 44.2L175.52812 44.2ZM179.5125 44.2L179.5125 33.825L181.10625 33.825L181.10625 35.309376Q182.24687 33.590626 184.40312 33.590626Q185.34062 33.590626 186.12187 33.934376Q186.91875 34.2625 187.30937 34.809376Q187.7 35.35625 187.85625 36.10625Q187.95 36.60625 187.95 37.825L187.95 44.2L186.18437 44.2L186.18437 37.8875Q186.18437 36.809376 185.98125 36.278126Q185.77812 35.746876 185.24687 35.434376Q184.73125 35.121876 184.02812 35.121876Q182.90312 35.121876 182.09062 35.840626Q181.27812 36.54375 181.27812 38.528126L181.27812 44.2L179.5125 44.2ZM197.29375 40.403126L199.0125 40.621876Q198.73125 42.41875 197.55937 43.434376Q196.40312 44.434376 194.7 44.434376Q192.575 44.434376 191.27812 43.04375Q189.98125 41.653126 189.98125 39.059376Q189.98125 37.371876 190.52812 36.121876Q191.09062 34.85625 192.23125 34.23125Q193.37187 33.590626 194.71562 33.590626Q196.40312 33.590626 197.46562 34.45Q198.54375 35.309376 198.85625 36.871876L197.1375 37.1375Q196.90312 36.090626 196.27812 35.575Q195.65312 35.04375 194.77812 35.04375Q193.45 35.04375 192.62187 35.996876Q191.79375 36.95 191.79375 38.996876Q191.79375 41.090626 192.59062 42.04375Q193.3875 42.98125 194.68437 42.98125Q195.71562 42.98125 196.40312 42.35625Q197.10625 41.715626 197.29375 40.403126ZM200.49687 44.2L200.49687 33.825L202.075 33.825L202.075 35.403126Q202.68437 34.29375 203.2 33.95Q203.71562 33.590626 204.325 33.590626Q205.21562 33.590626 206.1375 34.153126L205.52812 35.79375Q204.8875 35.403126 204.24687 35.403126Q203.66875 35.403126 203.2 35.7625Q202.74687 36.10625 202.54375 36.715626Q202.2625 37.653126 202.2625 38.7625L202.2625 44.2L200.49687 44.2ZM214.62187 40.85625L216.43437 41.090626Q216.0125 42.66875 214.84062 43.559376Q213.68437 44.434376 211.87187 44.434376Q209.60625 44.434376 208.2625 43.04375Q206.93437 41.6375 206.93437 39.10625Q206.93437 36.48125 208.27812 35.04375Q209.62187 33.590626 211.77812 33.590626Q213.85625 33.590626 215.16875 35.0125Q216.49687 36.41875 216.49687 38.996876Q216.49687 39.153126 216.48125 39.465626L208.74687 39.465626Q208.84062 41.16875 209.71562 42.075Q210.59062 42.98125 211.8875 42.98125Q212.85625 42.98125 213.52812 42.48125Q214.21562 41.965626 214.62187 40.85625ZM208.84062 38.0125L214.6375 38.0125Q214.52812 36.715626 213.98125 36.059376Q213.1375 35.04375 211.79375 35.04375Q210.59062 35.04375 209.7625 35.85625Q208.93437 36.653126 208.84062 38.0125ZM218.5125 44.2L218.5125 33.825L220.09062 33.825L220.09062 35.278126Q220.575 34.528126 221.3875 34.059376Q222.2 33.590626 223.23125 33.590626Q224.3875 33.590626 225.12187 34.075Q225.85625 34.54375 226.16875 35.403126Q227.40312 33.590626 229.37187 33.590626Q230.91875 33.590626 231.74687 34.45Q232.575 35.309376 232.575 37.075L232.575 44.2L230.825 44.2L230.825 37.66875Q230.825 36.60625 230.65312 36.153126Q230.48125 35.684376 230.02812 35.403126Q229.59062 35.121876 228.98125 35.121876Q227.8875 35.121876 227.15312 35.85625Q226.43437 36.575 226.43437 38.16875L226.43437 44.2L224.68437 44.2L224.68437 37.465626Q224.68437 36.29375 224.24687 35.715626Q223.825 35.121876 222.84062 35.121876Q222.10625 35.121876 221.46562 35.5125Q220.84062 35.903126 220.55937 36.653126Q220.27812 37.403126 220.27812 38.825L220.27812 44.2L218.5125 44.2ZM242.62187 40.85625L244.43437 41.090626Q244.0125 42.66875 242.84062 43.559376Q241.68437 44.434376 239.87187 44.434376Q237.60625 44.434376 236.2625 43.04375Q234.93437 41.6375 234.93437 39.10625Q234.93437 36.48125 236.27812 35.04375Q237.62187 33.590626 239.77812 33.590626Q241.85625 33.590626 243.16875 35.0125Q244.49687 36.41875 244.49687 38.996876Q244.49687 39.153126 244.48125 39.465626L236.74687 39.465626Q236.84062 41.16875 237.71562 42.075Q238.59062 42.98125 239.8875 42.98125Q240.85625 42.98125 241.52812 42.48125Q242.21562 41.965626 242.62187 40.85625ZM236.84062 38.0125L242.6375 38.0125Q242.52812 36.715626 241.98125 36.059376Q241.1375 35.04375 239.79375 35.04375Q238.59062 35.04375 237.7625 35.85625Q236.93437 36.653126 236.84062 38.0125ZM246.5125 44.2L246.5125 33.825L248.10625 33.825L248.10625 35.309376Q249.24687 33.590626 251.40312 33.590626Q252.34062 33.590626 253.12187 33.934376Q253.91875 34.2625 254.30937 34.809376Q254.7 35.35625 254.85625 36.10625Q254.95 36.60625 254.95 37.825L254.95 44.2L253.18437 44.2L253.18437 37.8875Q253.18437 36.809376 252.98125 36.278126Q252.77812 35.746876 252.24687 35.434376Q251.73125 35.121876 251.02812 35.121876Q249.90312 35.121876 249.09062 35.840626Q248.27812 36.54375 248.27812 38.528126L248.27812 44.2L246.5125 44.2ZM261.35626 42.621876L261.60626 44.184376Q260.8719 44.340626 260.27814 44.340626Q259.325 44.340626 258.79376 44.04375Q258.27814 43.73125 258.0594 43.246876Q257.84064 42.746876 257.84064 41.16875L257.84064 35.2L256.5594 35.2L256.5594 33.825L257.84064 33.825L257.84064 31.2625L259.59064 30.2L259.59064 33.825L261.35626 33.825L261.35626 35.2L259.59064 35.2L259.59064 41.2625Q259.59064 42.0125 259.6844 42.23125Q259.77814 42.434376 259.98126 42.575Q260.2 42.7 260.59064 42.7Q260.8719 42.7 261.35626 42.621876ZM270.29376 42.91875Q269.3094 43.746876 268.40314 44.090626Q267.4969 44.434376 266.46564 44.434376Q264.7625 44.434376 263.84064 43.60625Q262.91876 42.7625 262.91876 41.465626Q262.91876 40.7 263.2625 40.075Q263.6219 39.45 264.1844 39.075Q264.7469 38.684376 265.45 38.48125Q265.96564 38.35625 267.0125 38.215626Q269.1375 37.965626 270.1375 37.621876Q270.15314 37.2625 270.15314 37.153126Q270.15314 36.090626 269.65314 35.6375Q268.98126 35.04375 267.65314 35.04375Q266.40314 35.04375 265.8094 35.48125Q265.23126 35.91875 264.95 37.028126L263.23126 36.79375Q263.46564 35.684376 263.9969 35.0125Q264.52814 34.325 265.54376 33.965626Q266.5594 33.590626 267.90314 33.590626Q269.23126 33.590626 270.0594 33.903126Q270.8875 34.215626 271.27814 34.7Q271.66876 35.16875 271.825 35.8875Q271.91876 36.340626 271.91876 37.5125L271.91876 39.85625Q271.91876 42.309376 272.02814 42.965626Q272.1375 43.60625 272.48126 44.2L270.6375 44.2Q270.3719 43.653126 270.29376 42.91875ZM270.1375 38.996876Q269.1844 39.3875 267.2625 39.653126Q266.1844 39.809376 265.73126 40.0125Q265.29376 40.2 265.04376 40.575Q264.79376 40.95 264.79376 41.41875Q264.79376 42.121876 265.325 42.590626Q265.85626 43.059376 266.8875 43.059376Q267.90314 43.059376 268.6844 42.621876Q269.48126 42.16875 269.85626 41.403126Q270.1375 40.79375 270.1375 39.6375L270.1375 38.996876ZM274.48126 44.2L274.48126 29.8875L276.23126 29.8875L276.23126 44.2L274.48126 44.2ZM286.1375 44.2L284.5125 44.2L284.5125 29.8875L286.2625 29.8875L286.2625 34.996876Q287.3875 33.590626 289.10626 33.590626Q290.0594 33.590626 290.91876 33.98125Q291.77814 34.371876 292.325 35.075Q292.8719 35.7625 293.1844 36.746876Q293.4969 37.73125 293.4969 38.85625Q293.4969 41.528126 292.1844 42.98125Q290.8719 44.434376 289.02814 44.434376Q287.1844 44.434376 286.1375 42.903126L286.1375 44.2ZM286.1219 38.934376Q286.1219 40.79375 286.6219 41.6375Q287.46564 42.98125 288.8719 42.98125Q290.02814 42.98125 290.85626 41.98125Q291.7 40.98125 291.7 38.996876Q291.7 36.965626 290.8875 36.0125Q290.09064 35.04375 288.95 35.04375Q287.79376 35.04375 286.95 36.04375Q286.1219 37.04375 286.1219 38.934376ZM302.3094 44.2L302.3094 42.66875Q301.10626 44.434376 299.02814 44.434376Q298.10626 44.434376 297.3094 44.090626Q296.5125 43.73125 296.1219 43.2Q295.7469 42.66875 295.59064 41.8875Q295.48126 41.371876 295.48126 40.246876L295.48126 33.825L297.23126 33.825L297.23126 39.575Q297.23126 40.95 297.34064 41.434376Q297.5125 42.121876 298.04376 42.528126Q298.59064 42.91875 299.3719 42.91875Q300.16876 42.91875 300.85626 42.5125Q301.5594 42.10625 301.84064 41.41875Q302.1375 40.715626 302.1375 39.3875L302.1375 33.825L303.8875 33.825L303.8875 44.2L302.3094 44.2ZM306.52814 31.903126L306.52814 29.8875L308.29376 29.8875L308.29376 31.903126L306.52814 31.903126ZM306.52814 44.2L306.52814 33.825L308.29376 33.825L308.29376 44.2L306.52814 44.2ZM310.48126 44.2L310.48126 29.8875L312.23126 29.8875L312.23126 44.2L310.48126 44.2ZM321.2469 44.2L321.2469 42.8875Q320.2625 44.434376 318.34064 44.434376Q317.10626 44.434376 316.0594 43.746876Q315.02814 43.059376 314.45 41.840626Q313.8875 40.621876 313.8875 39.028126Q313.8875 37.465626 314.40314 36.2Q314.91876 34.934376 315.95 34.2625Q316.9969 33.590626 318.2625 33.590626Q319.2 33.590626 319.9344 33.996876Q320.66876 34.3875 321.1375 35.0125L321.1375 29.8875L322.8719 29.8875L322.8719 44.2L321.2469 44.2ZM315.6844 39.028126Q315.6844 41.0125 316.52814 41.996876Q317.3719 42.98125 318.5125 42.98125Q319.66876 42.98125 320.46564 42.04375Q321.27814 41.10625 321.27814 39.16875Q321.27814 37.04375 320.45 36.04375Q319.6375 35.04375 318.4344 35.04375Q317.2625 35.04375 316.46564 36.0125Q315.6844 36.965626 315.6844 39.028126ZM331.52814 31.903126L331.52814 29.8875L333.29376 29.8875L333.29376 31.903126L331.52814 31.903126ZM331.52814 44.2L331.52814 33.825L333.29376 33.825L333.29376 44.2L331.52814 44.2ZM335.5125 44.2L335.5125 33.825L337.10626 33.825L337.10626 35.309376Q338.2469 33.590626 340.40314 33.590626Q341.34064 33.590626 342.1219 33.934376Q342.91876 34.2625 343.3094 34.809376Q343.7 35.35625 343.85626 36.10625Q343.95 36.60625 343.95 37.825L343.95 44.2L342.1844 44.2L342.1844 37.8875Q342.1844 36.809376 341.98126 36.278126Q341.77814 35.746876 341.2469 35.434376Q340.73126 35.121876 340.02814 35.121876Q338.90314 35.121876 338.09064 35.840626Q337.27814 36.54375 337.27814 38.528126L337.27814 44.2L335.5125 44.2ZM351.8094 41.10625L353.5594 40.825Q353.7 41.871876 354.3719 42.434376Q355.04376 42.98125 356.2469 42.98125Q357.45 42.98125 358.02814 42.496876Q358.6219 41.996876 358.6219 41.340626Q358.6219 40.746876 358.10626 40.403126Q357.7469 40.16875 356.3094 39.809376Q354.3719 39.309376 353.6219 38.965626Q352.8875 38.60625 352.4969 37.98125Q352.10626 37.340626 352.10626 36.575Q352.10626 35.8875 352.41876 35.29375Q352.7469 34.7 353.29376 34.309376Q353.7 34.0125 354.40314 33.809376Q355.1219 33.590626 355.9344 33.590626Q357.15314 33.590626 358.075 33.95Q358.9969 34.29375 359.4344 34.903126Q359.8719 35.496876 360.04376 36.496876L358.325 36.73125Q358.2 35.934376 357.6375 35.496876Q357.075 35.04375 356.0594 35.04375Q354.84064 35.04375 354.325 35.45Q353.8094 35.840626 353.8094 36.371876Q353.8094 36.715626 354.02814 36.996876Q354.23126 37.278126 354.7 37.465626Q354.96564 37.559376 356.2469 37.903126Q358.1219 38.403126 358.85626 38.73125Q359.59064 39.04375 360.0125 39.653126Q360.4344 40.246876 360.4344 41.153126Q360.4344 42.028126 359.91876 42.809376Q359.40314 43.590626 358.4344 44.0125Q357.46564 44.434376 356.2469 44.434376Q354.23126 44.434376 353.16876 43.590626Q352.10626 42.746876 351.8094 41.10625ZM369.6219 40.85625L371.4344 41.090626Q371.0125 42.66875 369.84064 43.559376Q368.6844 44.434376 366.8719 44.434376Q364.60626 44.434376 363.2625 43.04375Q361.9344 41.6375 361.9344 39.10625Q361.9344 36.48125 363.27814 35.04375Q364.6219 33.590626 366.77814 33.590626Q368.85626 33.590626 370.16876 35.0125Q371.4969 36.41875 371.4969 38.996876Q371.4969 39.153126 371.48126 39.465626L363.7469 39.465626Q363.84064 41.16875 364.71564 42.075Q365.59064 42.98125 366.8875 42.98125Q367.85626 42.98125 368.52814 42.48125Q369.21564 41.965626 369.6219 40.85625ZM363.84064 38.0125L369.6375 38.0125Q369.52814 36.715626 368.98126 36.059376Q368.1375 35.04375 366.79376 35.04375Q365.59064 35.04375 364.7625 35.85625Q363.9344 36.653126 363.84064 38.0125ZM380.29376 40.403126L382.0125 40.621876Q381.73126 42.41875 380.5594 43.434376Q379.40314 44.434376 377.7 44.434376Q375.575 44.434376 374.27814 43.04375Q372.98126 41.653126 372.98126 39.059376Q372.98126 37.371876 373.52814 36.121876Q374.09064 34.85625 375.23126 34.23125Q376.3719 33.590626 377.71564 33.590626Q379.40314 33.590626 380.46564 34.45Q381.54376 35.309376 381.85626 36.871876L380.1375 37.1375Q379.90314 36.090626 379.27814 35.575Q378.65314 35.04375 377.77814 35.04375Q376.45 35.04375 375.6219 35.996876Q374.79376 36.95 374.79376 38.996876Q374.79376 41.090626 375.59064 42.04375Q376.3875 42.98125 377.6844 42.98125Q378.71564 42.98125 379.40314 42.35625Q380.10626 41.715626 380.29376 40.403126ZM382.8719 39.0125Q382.8719 36.1375 384.46564 34.746876Q385.8094 33.590626 387.73126 33.590626Q389.8719 33.590626 391.21564 34.996876Q392.575 36.403126 392.575 38.871876Q392.575 40.871876 391.98126 42.028126Q391.3875 43.16875 390.23126 43.809376Q389.09064 44.434376 387.73126 44.434376Q385.54376 44.434376 384.2 43.04375Q382.8719 41.6375 382.8719 39.0125ZM384.66876 39.0125Q384.66876 41.0125 385.52814 41.996876Q386.40314 42.98125 387.73126 42.98125Q389.04376 42.98125 389.90314 41.996876Q390.77814 40.996876 390.77814 38.95Q390.77814 37.028126 389.90314 36.04375Q389.02814 35.04375 387.73126 35.04375Q386.40314 35.04375 385.52814 36.04375Q384.66876 37.028126 384.66876 39.0125ZM394.5125 44.2L394.5125 33.825L396.10626 33.825L396.10626 35.309376Q397.2469 33.590626 399.40314 33.590626Q400.34064 33.590626 401.1219 33.934376Q401.91876 34.2625 402.3094 34.809376Q402.7 35.35625 402.85626 36.10625Q402.95 36.60625 402.95 37.825L402.95 44.2L401.1844 44.2L401.1844 37.8875Q401.1844 36.809376 400.98126 36.278126Q400.77814 35.746876 400.2469 35.434376Q399.73126 35.121876 399.02814 35.121876Q397.90314 35.121876 397.09064 35.840626Q396.27814 36.54375 396.27814 38.528126L396.27814 44.2L394.5125 44.2ZM412.2469 44.2L412.2469 42.8875Q411.2625 44.434376 409.34064 44.434376Q408.10626 44.434376 407.0594 43.746876Q406.02814 43.059376 405.45 41.840626Q404.8875 40.621876 404.8875 39.028126Q404.8875 37.465626 405.40314 36.2Q405.91876 34.934376 406.95 34.2625Q407.9969 33.590626 409.2625 33.590626Q410.2 33.590626 410.9344 33.996876Q411.66876 34.3875 412.1375 35.0125L412.1375 29.8875L413.8719 29.8875L413.8719 44.2L412.2469 44.2ZM406.6844 39.028126Q406.6844 41.0125 407.52814 41.996876Q408.3719 42.98125 409.5125 42.98125Q410.66876 42.98125 411.46564 42.04375Q412.27814 41.10625 412.27814 39.16875Q412.27814 37.04375 411.45 36.04375Q410.6375 35.04375 409.4344 35.04375Q408.2625 35.04375 407.46564 36.0125Q406.6844 36.965626 406.6844 39.028126ZM415.8094 41.10625L417.5594 40.825Q417.7 41.871876 418.3719 42.434376Q419.04376 42.98125 420.2469 42.98125Q421.45 42.98125 422.02814 42.496876Q422.6219 41.996876 422.6219 41.340626Q422.6219 40.746876 422.10626 40.403126Q421.7469 40.16875 420.3094 39.809376Q418.3719 39.309376 417.6219 38.965626Q416.8875 38.60625 416.4969 37.98125Q416.10626 37.340626 416.10626 36.575Q416.10626 35.8875 416.41876 35.29375Q416.7469 34.7 417.29376 34.309376Q417.7 34.0125 418.40314 33.809376Q419.1219 33.590626 419.9344 33.590626Q421.15314 33.590626 422.075 33.95Q422.9969 34.29375 423.4344 34.903126Q423.8719 35.496876 424.04376 36.496876L422.325 36.73125Q422.2 35.934376 421.6375 35.496876Q421.075 35.04375 420.0594 35.04375Q418.84064 35.04375 418.325 35.45Q417.8094 35.840626 417.8094 36.371876Q417.8094 36.715626 418.02814 36.996876Q418.23126 37.278126 418.7 37.465626Q418.96564 37.559376 420.2469 37.903126Q422.1219 38.403126 422.85626 38.73125Q423.59064 39.04375 424.0125 39.653126Q424.4344 40.246876 424.4344 41.153126Q424.4344 42.028126 423.91876 42.809376Q423.40314 43.590626 422.4344 44.0125Q421.46564 44.434376 420.2469 44.434376Q418.23126 44.434376 417.16876 43.590626Q416.10626 42.746876 415.8094 41.10625Z" fill-rule="nonzero"/></svg>