<svg version="1.1" viewBox="0.0 0.0 788.0 504.0" fill="none" stroke="none" stroke-linecap="square" stroke-miterlimit="10" width="788" height="504" xmlns:xlink="http://www.w3.org/1999/xlink" xmlns="http://www.w3.org/2000/svg"><path fill="#ffffff" d="M0 0L788.0 0L788.0 504.0L0 504.0L0 0Z" fill-rule="nonzero"/><path stroke="#333333" stroke-width="1.0" stroke-linecap="butt" d="M52.5 471.5L619.5 471.5" fill-rule="nonzero"/><path stroke="#cccccc" stroke-width="1.0" stroke-linecap="butt" d="M52.5 372.5L619.5 372.5" fill-rule="nonzero"/><path stroke="#cccccc" stroke-width="1.0" stroke-linecap="butt" d="M52.5 272.5L619.5 272.5" fill-rule="nonzero"/><path stroke="#cccccc" stroke-width="1.0" stroke-linecap="butt" d="M52.5 172.5L619.5 172.5" fill-rule="nonzero"/><path stroke="#cccccc" stroke-width="1.0" stroke-linecap="butt" d="M52.5 73.5L619.5 73.5" fill-rule="nonzero"/><clipPath id="id_0"><path d="M52.2 73.0L619.28 73.0L619.28 471.8L52.2 471.8L52.2 73.0Z" clip-rule="nonzero"/></clipPath><path stroke="#000000" stroke-width="0.0" stroke-linecap="butt" stroke-opacity="0.0" clip-path="url(#id_0)" d="M243.0 472.0L198.0 472.0L198.0 271.0C198.0 269.89542 198.89543 269.0 200.0 269.0L241.0 269.0C242.10457 269.0 243.0 269.89542 243.0 271.0Z" fill-rule="nonzero"/><path fill="#4285f4" clip-path="url(#id_0)" d="M243.0 472.0L198.0 472.0L198.0 271.0C198.0 269.89542 198.89543 269.0 200.0 269.0L241.0 269.0C242.10457 269.0 243.0 269.89542 243.0 271.0Z" fill-rule="nonzero"/><path stroke="#000000" stroke-width="0.0" stroke-linecap="butt" stroke-opacity="0.0" clip-path="url(#id_0)" d="M289.0 472.0L244.0 472.0L244.0 290.0C244.0 288.89542 244.89543 288.0 246.0 288.0L287.0 288.0C288.10458 288.0 289.0 288.89542 289.0 290.0Z" fill-rule="nonzero"/><path fill="#ea4335" clip-path="url(#id_0)" d="M289.0 472.0L244.0 472.0L244.0 290.0C244.0 288.89542 244.89543 288.0 246.0 288.0L287.0 288.0C288.10458 288.0 289.0 288.89542 289.0 290.0Z" fill-rule="nonzero"/><path stroke="#000000" stroke-width="0.0" stroke-linecap="butt" stroke-opacity="0.0" clip-path="url(#id_0)" d="M335.0 472.0L290.0 472.0L290.0 230.0C290.0 228.89543 290.89542 228.0 292.0 228.0L333.0 228.0C334.10458 228.0 335.0 228.89543 335.0 230.0Z" fill-rule="nonzero"/><path fill="#fbbc04" clip-path="url(#id_0)" d="M335.0 472.0L290.0 472.0L290.0 230.0C290.0 228.89543 290.89542 228.0 292.0 228.0L333.0 228.0C334.10458 228.0 335.0 228.89543 335.0 230.0Z" fill-rule="nonzero"/><path stroke="#000000" stroke-width="0.0" stroke-linecap="butt" stroke-opacity="0.0" clip-path="url(#id_0)" d="M381.0 472.0L336.0 472.0L336.0 243.0C336.0 241.89543 336.89542 241.0 338.0 241.0L379.0 241.0C380.10458 241.0 381.0 241.89543 381.0 243.0Z" fill-rule="nonzero"/><path fill="#34a853" clip-path="url(#id_0)" d="M381.0 472.0L336.0 472.0L336.0 243.0C336.0 241.89543 336.89542 241.0 338.0 241.0L379.0 241.0C380.10458 241.0 381.0 241.89543 381.0 243.0Z" fill-rule="nonzero"/><path stroke="#000000" stroke-width="0.0" stroke-linecap="butt" stroke-opacity="0.0" clip-path="url(#id_0)" d="M427.0 472.0L382.0 472.0L382.0 97.0C382.0 95.89543 382.89542 95.0 384.0 95.0L425.0 95.0C426.10458 95.0 427.0 95.89543 427.0 97.0Z" fill-rule="nonzero"/><path fill="#ff6d01" clip-path="url(#id_0)" d="M427.0 472.0L382.0 472.0L382.0 97.0C382.0 95.89543 382.89542 95.0 384.0 95.0L425.0 95.0C426.10458 95.0 427.0 95.89543 427.0 97.0Z" fill-rule="nonzero"/><path stroke="#000000" stroke-width="0.0" stroke-linecap="butt" stroke-opacity="0.0" clip-path="url(#id_0)" d="M473.0 472.0L428.0 472.0L428.0 241.0C428.0 239.89543 428.89542 239.0 430.0 239.0L471.0 239.0C472.10458 239.0 473.0 239.89543 473.0 241.0Z" fill-rule="nonzero"/><path fill="#46bdc6" clip-path="url(#id_0)" d="M473.0 472.0L428.0 472.0L428.0 241.0C428.0 239.89543 428.89542 239.0 430.0 239.0L471.0 239.0C472.10458 239.0 473.0 239.89543 473.0 241.0Z" fill-rule="nonzero"/><path stroke="#4285f4" stroke-width="3.0" stroke-linejoin="round" stroke-linecap="round" d="M206.26562 285.49115L205.1875 285.49115L205.1875 278.2724L203.0 279.06927L203.0 278.0849L206.10938 276.91302L206.26562 276.91302L206.26562 285.49115ZM215.0625 281.85052Q215.0625 283.75677 214.40625 284.69427Q213.76562 285.61615 212.375 285.61615Q211.01562 285.61615 210.35938 284.7099Q209.70312 283.80365 209.67188 281.99115L209.67188 280.55365Q209.67188 278.66302 210.3125 277.75677Q210.96875 276.8349 212.35938 276.8349Q213.73438 276.8349 214.39062 277.72552Q215.04688 278.60052 215.0625 280.44427L215.0625 281.85052ZM213.96875 280.36615Q213.96875 278.99115 213.57812 278.36615Q213.20312 277.72552 212.35938 277.72552Q211.53125 277.72552 211.14062 278.36615Q210.76562 278.99115 210.76562 280.28802L210.76562 282.0224Q210.76562 283.3974 211.15625 284.06927Q211.5625 284.72552 212.375 284.72552Q213.17188 284.72552 213.5625 284.10052Q213.95312 283.47552 213.96875 282.1474L213.96875 280.36615ZM216.84375 284.92865Q216.84375 284.6474 217.0 284.4599Q217.17188 284.2724 217.5 284.2724Q217.84375 284.2724 218.01562 284.4599Q218.1875 284.6474 218.1875 284.92865Q218.1875 285.19427 218.01562 285.38177Q217.84375 285.55365 217.5 285.55365Q217.17188 285.55365 217.0 285.38177Q216.84375 285.19427 216.84375 284.92865ZM223.26562 285.49115L222.1875 285.49115L222.1875 278.2724L220.0 279.06927L220.0 278.0849L223.10938 276.91302L223.26562 276.91302L223.26562 285.49115ZM231.89062 279.17865Q231.89062 279.81927 231.54688 280.31927Q231.20312 280.81927 230.64062 281.10052Q231.29688 281.38177 231.6875 281.94427Q232.07812 282.49115 232.07812 283.19427Q232.07812 284.28802 231.32812 284.9599Q230.59375 285.61615 229.375 285.61615Q228.14062 285.61615 227.39062 284.9599Q226.65625 284.28802 226.65625 283.19427Q226.65625 282.49115 227.03125 281.94427Q227.40625 281.38177 228.07812 281.10052Q227.51562 280.81927 227.1875 280.31927Q226.85938 279.81927 226.85938 279.17865Q226.85938 278.10052 227.54688 277.47552Q228.23438 276.8349 229.375 276.8349Q230.5 276.8349 231.1875 277.47552Q231.89062 278.10052 231.89062 279.17865ZM231.0 283.16302Q231.0 282.44427 230.54688 282.00677Q230.09375 281.55365 229.35938 281.55365Q228.625 281.55365 228.17188 282.00677Q227.73438 282.44427 227.73438 283.17865Q227.73438 283.8974 228.17188 284.31927Q228.60938 284.72552 229.375 284.72552Q230.125 284.72552 230.5625 284.30365Q231.0 283.88177 231.0 283.16302ZM229.375 277.72552Q228.73438 277.72552 228.32812 278.13177Q227.9375 278.5224 227.9375 279.2099Q227.9375 279.85052 228.32812 280.25677Q228.71875 280.66302 229.35938 280.66302Q230.01562 280.66302 230.40625 280.25677Q230.79688 279.85052 230.79688 279.2099Q230.79688 278.55365 230.39062 278.1474Q229.98438 277.72552 229.375 277.72552ZM237.96875 276.9599L237.96875 277.86615L237.76562 277.86615Q236.5 277.8974 235.75 278.63177Q235.0 279.35052 234.875 280.66302Q235.5625 279.8974 236.71875 279.8974Q237.82812 279.8974 238.5 280.67865Q239.17188 281.4599 239.17188 282.7099Q239.17188 284.0224 238.45312 284.81927Q237.73438 285.61615 236.51562 285.61615Q235.29688 285.61615 234.53125 284.67865Q233.78125 283.72552 233.78125 282.24115L233.78125 281.8349Q233.78125 279.47552 234.78125 278.22552Q235.78125 276.97552 237.76562 276.9599L237.96875 276.9599ZM236.54688 280.80365Q235.98438 280.80365 235.51562 281.13177Q235.04688 281.4599 234.85938 281.97552L234.85938 282.36615Q234.85938 283.42865 235.32812 284.06927Q235.8125 284.7099 236.51562 284.7099Q237.25 284.7099 237.67188 284.17865Q238.09375 283.63177 238.09375 282.75677Q238.09375 281.88177 237.67188 281.35052Q237.25 280.80365 236.54688 280.80365Z" fill-rule="nonzero"/><path fill="#ffffff" d="M206.26562 285.49115L205.1875 285.49115L205.1875 278.2724L203.0 279.06927L203.0 278.0849L206.10938 276.91302L206.26562 276.91302L206.26562 285.49115ZM215.0625 281.85052Q215.0625 283.75677 214.40625 284.69427Q213.76562 285.61615 212.375 285.61615Q211.01562 285.61615 210.35938 284.7099Q209.70312 283.80365 209.67188 281.99115L209.67188 280.55365Q209.67188 278.66302 210.3125 277.75677Q210.96875 276.8349 212.35938 276.8349Q213.73438 276.8349 214.39062 277.72552Q215.04688 278.60052 215.0625 280.44427L215.0625 281.85052ZM213.96875 280.36615Q213.96875 278.99115 213.57812 278.36615Q213.20312 277.72552 212.35938 277.72552Q211.53125 277.72552 211.14062 278.36615Q210.76562 278.99115 210.76562 280.28802L210.76562 282.0224Q210.76562 283.3974 211.15625 284.06927Q211.5625 284.72552 212.375 284.72552Q213.17188 284.72552 213.5625 284.10052Q213.95312 283.47552 213.96875 282.1474L213.96875 280.36615ZM216.84375 284.92865Q216.84375 284.6474 217.0 284.4599Q217.17188 284.2724 217.5 284.2724Q217.84375 284.2724 218.01562 284.4599Q218.1875 284.6474 218.1875 284.92865Q218.1875 285.19427 218.01562 285.38177Q217.84375 285.55365 217.5 285.55365Q217.17188 285.55365 217.0 285.38177Q216.84375 285.19427 216.84375 284.92865ZM223.26562 285.49115L222.1875 285.49115L222.1875 278.2724L220.0 279.06927L220.0 278.0849L223.10938 276.91302L223.26562 276.91302L223.26562 285.49115ZM231.89062 279.17865Q231.89062 279.81927 231.54688 280.31927Q231.20312 280.81927 230.64062 281.10052Q231.29688 281.38177 231.6875 281.94427Q232.07812 282.49115 232.07812 283.19427Q232.07812 284.28802 231.32812 284.9599Q230.59375 285.61615 229.375 285.61615Q228.14062 285.61615 227.39062 284.9599Q226.65625 284.28802 226.65625 283.19427Q226.65625 282.49115 227.03125 281.94427Q227.40625 281.38177 228.07812 281.10052Q227.51562 280.81927 227.1875 280.31927Q226.85938 279.81927 226.85938 279.17865Q226.85938 278.10052 227.54688 277.47552Q228.23438 276.8349 229.375 276.8349Q230.5 276.8349 231.1875 277.47552Q231.89062 278.10052 231.89062 279.17865ZM231.0 283.16302Q231.0 282.44427 230.54688 282.00677Q230.09375 281.55365 229.35938 281.55365Q228.625 281.55365 228.17188 282.00677Q227.73438 282.44427 227.73438 283.17865Q227.73438 283.8974 228.17188 284.31927Q228.60938 284.72552 229.375 284.72552Q230.125 284.72552 230.5625 284.30365Q231.0 283.88177 231.0 283.16302ZM229.375 277.72552Q228.73438 277.72552 228.32812 278.13177Q227.9375 278.5224 227.9375 279.2099Q227.9375 279.85052 228.32812 280.25677Q228.71875 280.66302 229.35938 280.66302Q230.01562 280.66302 230.40625 280.25677Q230.79688 279.85052 230.79688 279.2099Q230.79688 278.55365 230.39062 278.1474Q229.98438 277.72552 229.375 277.72552ZM237.96875 276.9599L237.96875 277.86615L237.76562 277.86615Q236.5 277.8974 235.75 278.63177Q235.0 279.35052 234.875 280.66302Q235.5625 279.8974 236.71875 279.8974Q237.82812 279.8974 238.5 280.67865Q239.17188 281.4599 239.17188 282.7099Q239.17188 284.0224 238.45312 284.81927Q237.73438 285.61615 236.51562 285.61615Q235.29688 285.61615 234.53125 284.67865Q233.78125 283.72552 233.78125 282.24115L233.78125 281.8349Q233.78125 279.47552 234.78125 278.22552Q235.78125 276.97552 237.76562 276.9599L237.96875 276.9599ZM236.54688 280.80365Q235.98438 280.80365 235.51562 281.13177Q235.04688 281.4599 234.85938 281.97552L234.85938 282.36615Q234.85938 283.42865 235.32812 284.06927Q235.8125 284.7099 236.51562 284.7099Q237.25 284.7099 237.67188 284.17865Q238.09375 283.63177 238.09375 282.75677Q238.09375 281.88177 237.67188 281.35052Q237.25 280.80365 236.54688 280.80365Z" fill-rule="nonzero"/><path stroke="#ea4335" stroke-width="3.0" stroke-linejoin="round" stroke-linecap="round" d="M256.35938 300.72403Q256.03125 301.13028 255.54688 301.38028Q255.07812 301.61465 254.51562 301.61465Q253.78125 301.61465 253.23438 301.25528Q252.6875 300.8959 252.39062 300.23965Q252.09375 299.56778 252.09375 298.7709Q252.09375 297.92715 252.40625 297.23965Q252.73438 296.55215 253.32812 296.19278Q253.9375 295.81778 254.73438 295.81778Q256.0 295.81778 256.71875 296.7709Q257.45312 297.72403 257.45312 299.34903L257.45312 299.66153Q257.45312 302.16153 256.46875 303.30215Q255.48438 304.44278 253.5 304.47403L253.28125 304.47403L253.28125 303.56778L253.51562 303.56778Q254.85938 303.53653 255.57812 302.86465Q256.29688 302.19278 256.35938 300.72403ZM254.6875 300.72403Q255.23438 300.72403 255.6875 300.3959Q256.15625 300.05215 256.375 299.56778L256.375 299.13028Q256.375 298.06778 255.90625 297.3959Q255.4375 296.72403 254.73438 296.72403Q254.01562 296.72403 253.57812 297.2709Q253.15625 297.81778 253.15625 298.72403Q253.15625 299.59903 253.5625 300.16153Q253.98438 300.72403 254.6875 300.72403ZM259.34375 303.91153Q259.34375 303.63028 259.5 303.44278Q259.67188 303.25528 260.0 303.25528Q260.34375 303.25528 260.51562 303.44278Q260.6875 303.63028 260.6875 303.91153Q260.6875 304.17715 260.51562 304.36465Q260.34375 304.53653 260.0 304.53653Q259.67188 304.53653 259.5 304.36465Q259.34375 304.17715 259.34375 303.91153ZM267.79688 304.47403L262.20312 304.47403L262.20312 303.69278L265.15625 300.41153Q265.8125 299.66153 266.0625 299.2084Q266.3125 298.73965 266.3125 298.23965Q266.3125 297.56778 265.90625 297.1459Q265.51562 296.7084 264.82812 296.7084Q264.03125 296.7084 263.57812 297.17715Q263.125 297.63028 263.125 298.4584L262.04688 298.4584Q262.04688 297.2709 262.79688 296.55215Q263.5625 295.81778 264.82812 295.81778Q266.03125 295.81778 266.71875 296.44278Q267.40625 297.06778 267.40625 298.11465Q267.40625 299.36465 265.79688 301.11465L263.51562 303.5834L267.79688 303.5834L267.79688 304.47403ZM270.78125 299.67715L271.59375 299.67715Q272.375 299.66153 272.8125 299.2709Q273.25 298.88028 273.25 298.2084Q273.25 296.7084 271.75 296.7084Q271.04688 296.7084 270.625 297.11465Q270.21875 297.5209 270.21875 298.17715L269.125 298.17715Q269.125 297.16153 269.85938 296.48965Q270.60938 295.81778 271.75 295.81778Q272.95312 295.81778 273.64062 296.4584Q274.32812 297.09903 274.32812 298.23965Q274.32812 298.80215 273.96875 299.31778Q273.60938 299.8334 272.98438 300.09903Q273.6875 300.31778 274.0625 300.8334Q274.45312 301.34903 274.45312 302.09903Q274.45312 303.23965 273.70312 303.92715Q272.95312 304.59903 271.75 304.59903Q270.5625 304.59903 269.79688 303.94278Q269.04688 303.28653 269.04688 302.22403L270.14062 302.22403Q270.14062 302.8959 270.57812 303.30215Q271.01562 303.7084 271.76562 303.7084Q272.54688 303.7084 272.95312 303.30215Q273.375 302.88028 273.375 302.11465Q273.375 301.38028 272.92188 300.98965Q272.46875 300.5834 271.59375 300.56778L270.78125 300.56778L270.78125 299.67715ZM280.78125 301.61465L281.96875 301.61465L281.96875 302.48965L280.78125 302.48965L280.78125 304.47403L279.70312 304.47403L279.70312 302.48965L275.8125 302.48965L275.8125 301.84903L279.625 295.94278L280.78125 295.94278L280.78125 301.61465ZM277.04688 301.61465L279.70312 301.61465L279.70312 297.42715L279.5625 297.66153L277.04688 301.61465Z" fill-rule="nonzero"/><path fill="#ffffff" d="M256.35938 300.72403Q256.03125 301.13028 255.54688 301.38028Q255.07812 301.61465 254.51562 301.61465Q253.78125 301.61465 253.23438 301.25528Q252.6875 300.8959 252.39062 300.23965Q252.09375 299.56778 252.09375 298.7709Q252.09375 297.92715 252.40625 297.23965Q252.73438 296.55215 253.32812 296.19278Q253.9375 295.81778 254.73438 295.81778Q256.0 295.81778 256.71875 296.7709Q257.45312 297.72403 257.45312 299.34903L257.45312 299.66153Q257.45312 302.16153 256.46875 303.30215Q255.48438 304.44278 253.5 304.47403L253.28125 304.47403L253.28125 303.56778L253.51562 303.56778Q254.85938 303.53653 255.57812 302.86465Q256.29688 302.19278 256.35938 300.72403ZM254.6875 300.72403Q255.23438 300.72403 255.6875 300.3959Q256.15625 300.05215 256.375 299.56778L256.375 299.13028Q256.375 298.06778 255.90625 297.3959Q255.4375 296.72403 254.73438 296.72403Q254.01562 296.72403 253.57812 297.2709Q253.15625 297.81778 253.15625 298.72403Q253.15625 299.59903 253.5625 300.16153Q253.98438 300.72403 254.6875 300.72403ZM259.34375 303.91153Q259.34375 303.63028 259.5 303.44278Q259.67188 303.25528 260.0 303.25528Q260.34375 303.25528 260.51562 303.44278Q260.6875 303.63028 260.6875 303.91153Q260.6875 304.17715 260.51562 304.36465Q260.34375 304.53653 260.0 304.53653Q259.67188 304.53653 259.5 304.36465Q259.34375 304.17715 259.34375 303.91153ZM267.79688 304.47403L262.20312 304.47403L262.20312 303.69278L265.15625 300.41153Q265.8125 299.66153 266.0625 299.2084Q266.3125 298.73965 266.3125 298.23965Q266.3125 297.56778 265.90625 297.1459Q265.51562 296.7084 264.82812 296.7084Q264.03125 296.7084 263.57812 297.17715Q263.125 297.63028 263.125 298.4584L262.04688 298.4584Q262.04688 297.2709 262.79688 296.55215Q263.5625 295.81778 264.82812 295.81778Q266.03125 295.81778 266.71875 296.44278Q267.40625 297.06778 267.40625 298.11465Q267.40625 299.36465 265.79688 301.11465L263.51562 303.5834L267.79688 303.5834L267.79688 304.47403ZM270.78125 299.67715L271.59375 299.67715Q272.375 299.66153 272.8125 299.2709Q273.25 298.88028 273.25 298.2084Q273.25 296.7084 271.75 296.7084Q271.04688 296.7084 270.625 297.11465Q270.21875 297.5209 270.21875 298.17715L269.125 298.17715Q269.125 297.16153 269.85938 296.48965Q270.60938 295.81778 271.75 295.81778Q272.95312 295.81778 273.64062 296.4584Q274.32812 297.09903 274.32812 298.23965Q274.32812 298.80215 273.96875 299.31778Q273.60938 299.8334 272.98438 300.09903Q273.6875 300.31778 274.0625 300.8334Q274.45312 301.34903 274.45312 302.09903Q274.45312 303.23965 273.70312 303.92715Q272.95312 304.59903 271.75 304.59903Q270.5625 304.59903 269.79688 303.94278Q269.04688 303.28653 269.04688 302.22403L270.14062 302.22403Q270.14062 302.8959 270.57812 303.30215Q271.01562 303.7084 271.76562 303.7084Q272.54688 303.7084 272.95312 303.30215Q273.375 302.88028 273.375 302.11465Q273.375 301.38028 272.92188 300.98965Q272.46875 300.5834 271.59375 300.56778L270.78125 300.56778L270.78125 299.67715ZM280.78125 301.61465L281.96875 301.61465L281.96875 302.48965L280.78125 302.48965L280.78125 304.47403L279.70312 304.47403L279.70312 302.48965L275.8125 302.48965L275.8125 301.84903L279.625 295.94278L280.78125 295.94278L280.78125 301.61465ZM277.04688 301.61465L279.70312 301.61465L279.70312 297.42715L279.5625 297.66153L277.04688 301.61465Z" fill-rule="nonzero"/><path stroke="#fbbc04" stroke-width="3.0" stroke-linejoin="round" stroke-linecap="round" d="M298.26562 244.47458L297.1875 244.47458L297.1875 237.25583L295.0 238.0527L295.0 237.06833L298.10938 235.89645L298.26562 235.89645L298.26562 244.47458ZM307.29688 244.47458L301.70312 244.47458L301.70312 243.69333L304.65625 240.41208Q305.3125 239.66208 305.5625 239.20895Q305.8125 238.7402 305.8125 238.2402Q305.8125 237.56833 305.40625 237.14645Q305.01562 236.70895 304.32812 236.70895Q303.53125 236.70895 303.07812 237.1777Q302.625 237.63083 302.625 238.45895L301.54688 238.45895Q301.54688 237.27145 302.29688 236.5527Q303.0625 235.81833 304.32812 235.81833Q305.53125 235.81833 306.21875 236.44333Q306.90625 237.06833 306.90625 238.1152Q306.90625 239.3652 305.29688 241.1152L303.01562 243.58395L307.29688 243.58395L307.29688 244.47458ZM308.84375 243.91208Q308.84375 243.63083 309.0 243.44333Q309.17188 243.25583 309.5 243.25583Q309.84375 243.25583 310.01562 243.44333Q310.1875 243.63083 310.1875 243.91208Q310.1875 244.1777 310.01562 244.3652Q309.84375 244.53708 309.5 244.53708Q309.17188 244.53708 309.0 244.3652Q308.84375 244.1777 308.84375 243.91208ZM317.29688 244.47458L311.70312 244.47458L311.70312 243.69333L314.65625 240.41208Q315.3125 239.66208 315.5625 239.20895Q315.8125 238.7402 315.8125 238.2402Q315.8125 237.56833 315.40625 237.14645Q315.01562 236.70895 314.32812 236.70895Q313.53125 236.70895 313.07812 237.1777Q312.625 237.63083 312.625 238.45895L311.54688 238.45895Q311.54688 237.27145 312.29688 236.5527Q313.0625 235.81833 314.32812 235.81833Q315.53125 235.81833 316.21875 236.44333Q316.90625 237.06833 316.90625 238.1152Q316.90625 239.3652 315.29688 241.1152L313.01562 243.58395L317.29688 243.58395L317.29688 244.47458ZM323.28125 241.6152L324.46875 241.6152L324.46875 242.4902L323.28125 242.4902L323.28125 244.47458L322.20312 244.47458L322.20312 242.4902L318.3125 242.4902L318.3125 241.84958L322.125 235.94333L323.28125 235.94333L323.28125 241.6152ZM319.54688 241.6152L322.20312 241.6152L322.20312 237.4277L322.0625 237.66208L319.54688 241.6152ZM327.28125 239.6777L328.09375 239.6777Q328.875 239.66208 329.3125 239.27145Q329.75 238.88083 329.75 238.20895Q329.75 236.70895 328.25 236.70895Q327.54688 236.70895 327.125 237.1152Q326.71875 237.52145 326.71875 238.1777L325.625 238.1777Q325.625 237.16208 326.35938 236.4902Q327.10938 235.81833 328.25 235.81833Q329.45312 235.81833 330.14062 236.45895Q330.82812 237.09958 330.82812 238.2402Q330.82812 238.8027 330.46875 239.31833Q330.10938 239.83395 329.48438 240.09958Q330.1875 240.31833 330.5625 240.83395Q330.95312 241.34958 330.95312 242.09958Q330.95312 243.2402 330.20312 243.9277Q329.45312 244.59958 328.25 244.59958Q327.0625 244.59958 326.29688 243.94333Q325.54688 243.28708 325.54688 242.22458L326.64062 242.22458Q326.64062 242.89645 327.07812 243.3027Q327.51562 243.70895 328.26562 243.70895Q329.04688 243.70895 329.45312 243.3027Q329.875 242.88083 329.875 242.1152Q329.875 241.38083 329.42188 240.9902Q328.96875 240.58395 328.09375 240.56833L327.28125 240.56833L327.28125 239.6777Z" fill-rule="nonzero"/><path fill="#000000" d="M298.26562 244.47458L297.1875 244.47458L297.1875 237.25583L295.0 238.0527L295.0 237.06833L298.10938 235.89645L298.26562 235.89645L298.26562 244.47458ZM307.29688 244.47458L301.70312 244.47458L301.70312 243.69333L304.65625 240.41208Q305.3125 239.66208 305.5625 239.20895Q305.8125 238.7402 305.8125 238.2402Q305.8125 237.56833 305.40625 237.14645Q305.01562 236.70895 304.32812 236.70895Q303.53125 236.70895 303.07812 237.1777Q302.625 237.63083 302.625 238.45895L301.54688 238.45895Q301.54688 237.27145 302.29688 236.5527Q303.0625 235.81833 304.32812 235.81833Q305.53125 235.81833 306.21875 236.44333Q306.90625 237.06833 306.90625 238.1152Q306.90625 239.3652 305.29688 241.1152L303.01562 243.58395L307.29688 243.58395L307.29688 244.47458ZM308.84375 243.91208Q308.84375 243.63083 309.0 243.44333Q309.17188 243.25583 309.5 243.25583Q309.84375 243.25583 310.01562 243.44333Q310.1875 243.63083 310.1875 243.91208Q310.1875 244.1777 310.01562 244.3652Q309.84375 244.53708 309.5 244.53708Q309.17188 244.53708 309.0 244.3652Q308.84375 244.1777 308.84375 243.91208ZM317.29688 244.47458L311.70312 244.47458L311.70312 243.69333L314.65625 240.41208Q315.3125 239.66208 315.5625 239.20895Q315.8125 238.7402 315.8125 238.2402Q315.8125 237.56833 315.40625 237.14645Q315.01562 236.70895 314.32812 236.70895Q313.53125 236.70895 313.07812 237.1777Q312.625 237.63083 312.625 238.45895L311.54688 238.45895Q311.54688 237.27145 312.29688 236.5527Q313.0625 235.81833 314.32812 235.81833Q315.53125 235.81833 316.21875 236.44333Q316.90625 237.06833 316.90625 238.1152Q316.90625 239.3652 315.29688 241.1152L313.01562 243.58395L317.29688 243.58395L317.29688 244.47458ZM323.28125 241.6152L324.46875 241.6152L324.46875 242.4902L323.28125 242.4902L323.28125 244.47458L322.20312 244.47458L322.20312 242.4902L318.3125 242.4902L318.3125 241.84958L322.125 235.94333L323.28125 235.94333L323.28125 241.6152ZM319.54688 241.6152L322.20312 241.6152L322.20312 237.4277L322.0625 237.66208L319.54688 241.6152ZM327.28125 239.6777L328.09375 239.6777Q328.875 239.66208 329.3125 239.27145Q329.75 238.88083 329.75 238.20895Q329.75 236.70895 328.25 236.70895Q327.54688 236.70895 327.125 237.1152Q326.71875 237.52145 326.71875 238.1777L325.625 238.1777Q325.625 237.16208 326.35938 236.4902Q327.10938 235.81833 328.25 235.81833Q329.45312 235.81833 330.14062 236.45895Q330.82812 237.09958 330.82812 238.2402Q330.82812 238.8027 330.46875 239.31833Q330.10938 239.83395 329.48438 240.09958Q330.1875 240.31833 330.5625 240.83395Q330.95312 241.34958 330.95312 242.09958Q330.95312 243.2402 330.20312 243.9277Q329.45312 244.59958 328.25 244.59958Q327.0625 244.59958 326.29688 243.94333Q325.54688 243.28708 325.54688 242.22458L326.64062 242.22458Q326.64062 242.89645 327.07812 243.3027Q327.51562 243.70895 328.26562 243.70895Q329.04688 243.70895 329.45312 243.3027Q329.875 242.88083 329.875 242.1152Q329.875 241.38083 329.42188 240.9902Q328.96875 240.58395 328.09375 240.56833L327.28125 240.56833L327.28125 239.6777Z" fill-rule="nonzero"/><path stroke="#34a853" stroke-width="3.0" stroke-linejoin="round" stroke-linecap="round" d="M344.26562 257.7546L343.1875 257.7546L343.1875 250.53587L341.0 251.33275L341.0 250.34837L344.10938 249.1765L344.26562 249.1765L344.26562 257.7546ZM351.26562 257.7546L350.1875 257.7546L350.1875 250.53587L348.0 251.33275L348.0 250.34837L351.10938 249.1765L351.26562 249.1765L351.26562 257.7546ZM354.84375 257.1921Q354.84375 256.91086 355.0 256.72336Q355.17188 256.53586 355.5 256.53586Q355.84375 256.53586 356.01562 256.72336Q356.1875 256.91086 356.1875 257.1921Q356.1875 257.45773 356.01562 257.64523Q355.84375 257.8171 355.5 257.8171Q355.17188 257.8171 355.0 257.64523Q354.84375 257.45773 354.84375 257.1921ZM358.20312 253.47337L358.64062 249.22337L363.01562 249.22337L363.01562 250.22337L359.5625 250.22337L359.29688 252.5515Q359.9375 252.1765 360.73438 252.1765Q361.89062 252.1765 362.57812 252.95775Q363.26562 253.72337 363.26562 255.03587Q363.26562 256.34836 362.54688 257.11398Q361.84375 257.8796 360.5625 257.8796Q359.4375 257.8796 358.71875 257.2546Q358.0 256.61398 357.90625 255.50462L358.92188 255.50462Q359.03125 256.23898 359.45312 256.61398Q359.875 256.98898 360.5625 256.98898Q361.3125 256.98898 361.75 256.47336Q362.1875 255.95775 362.1875 255.0515Q362.1875 254.19212 361.71875 253.6765Q361.25 253.16087 360.46875 253.16087Q359.76562 253.16087 359.35938 253.45775L359.07812 253.69212L358.20312 253.47337ZM370.21875 249.83275L366.6875 257.7546L365.54688 257.7546L369.0625 250.114L364.45312 250.114L364.45312 249.22337L370.21875 249.22337L370.21875 249.83275ZM377.21875 249.83275L373.6875 257.7546L372.54688 257.7546L376.0625 250.114L371.45312 250.114L371.45312 249.22337L377.21875 249.22337L377.21875 249.83275Z" fill-rule="nonzero"/><path fill="#ffffff" d="M344.26562 257.7546L343.1875 257.7546L343.1875 250.53586L341.0 251.33273L341.0 250.34836L344.10938 249.17648L344.26562 249.17648L344.26562 257.7546ZM351.26562 257.7546L350.1875 257.7546L350.1875 250.53586L348.0 251.33273L348.0 250.34836L351.10938 249.17648L351.26562 249.17648L351.26562 257.7546ZM354.84375 257.1921Q354.84375 256.91086 355.0 256.72336Q355.17188 256.53586 355.5 256.53586Q355.84375 256.53586 356.01562 256.72336Q356.1875 256.91086 356.1875 257.1921Q356.1875 257.45773 356.01562 257.64523Q355.84375 257.8171 355.5 257.8171Q355.17188 257.8171 355.0 257.64523Q354.84375 257.45773 354.84375 257.1921ZM358.20312 253.47336L358.64062 249.22336L363.01562 249.22336L363.01562 250.22336L359.5625 250.22336L359.29688 252.55148Q359.9375 252.17648 360.73438 252.17648Q361.89062 252.17648 362.57812 252.95773Q363.26562 253.72336 363.26562 255.03586Q363.26562 256.34836 362.54688 257.11398Q361.84375 257.8796 360.5625 257.8796Q359.4375 257.8796 358.71875 257.2546Q358.0 256.61398 357.90625 255.50461L358.92188 255.50461Q359.03125 256.23898 359.45312 256.61398Q359.875 256.98898 360.5625 256.98898Q361.3125 256.98898 361.75 256.47336Q362.1875 255.95773 362.1875 255.05148Q362.1875 254.19211 361.71875 253.67648Q361.25 253.16086 360.46875 253.16086Q359.76562 253.16086 359.35938 253.45773L359.07812 253.69211L358.20312 253.47336ZM370.21875 249.83273L366.6875 257.7546L365.54688 257.7546L369.0625 250.11398L364.45312 250.11398L364.45312 249.22336L370.21875 249.22336L370.21875 249.83273ZM377.21875 249.83273L373.6875 257.7546L372.54688 257.7546L376.0625 250.11398L371.45312 250.11398L371.45312 249.22336L377.21875 249.22336L377.21875 249.83273Z" fill-rule="nonzero"/><path stroke="#ff6d01" stroke-width="3.0" stroke-linejoin="round" stroke-linecap="round" d="M397.26562 111.734L396.1875 111.734L396.1875 104.51525L394.0 105.312126L394.0 104.32775L397.10938 103.155876L397.26562 103.155876L397.26562 111.734ZM405.89062 105.4215Q405.89062 106.062126 405.54688 106.562126Q405.20312 107.062126 404.64062 107.343376Q405.29688 107.624626 405.6875 108.187126Q406.07812 108.734 406.07812 109.437126Q406.07812 110.530876 405.32812 111.20275Q404.59375 111.859 403.375 111.859Q402.14062 111.859 401.39062 111.20275Q400.65625 110.530876 400.65625 109.437126Q400.65625 108.734 401.03125 108.187126Q401.40625 107.624626 402.07812 107.343376Q401.51562 107.062126 401.1875 106.562126Q400.85938 106.062126 400.85938 105.4215Q400.85938 104.343376 401.54688 103.718376Q402.23438 103.07775 403.375 103.07775Q404.5 103.07775 405.1875 103.718376Q405.89062 104.343376 405.89062 105.4215ZM405.0 109.405876Q405.0 108.687126 404.54688 108.249626Q404.09375 107.7965 403.35938 107.7965Q402.625 107.7965 402.17188 108.249626Q401.73438 108.687126 401.73438 109.4215Q401.73438 110.14025 402.17188 110.562126Q402.60938 110.968376 403.375 110.968376Q404.125 110.968376 404.5625 110.5465Q405.0 110.124626 405.0 109.405876ZM403.375 103.968376Q402.73438 103.968376 402.32812 104.374626Q401.9375 104.76525 401.9375 105.45275Q401.9375 106.093376 402.32812 106.499626Q402.71875 106.905876 403.35938 106.905876Q404.01562 106.905876 404.40625 106.499626Q404.79688 106.093376 404.79688 105.45275Q404.79688 104.7965 404.39062 104.39025Q403.98438 103.968376 403.375 103.968376ZM407.84375 111.1715Q407.84375 110.89025 408.0 110.70275Q408.17188 110.51525 408.5 110.51525Q408.84375 110.51525 409.01562 110.70275Q409.1875 110.89025 409.1875 111.1715Q409.1875 111.437126 409.01562 111.624626Q408.84375 111.7965 408.5 111.7965Q408.17188 111.7965 408.0 111.624626Q407.84375 111.437126 407.84375 111.1715ZM414.85938 107.984Q414.53125 108.39025 414.04688 108.64025Q413.57812 108.874626 413.01562 108.874626Q412.28125 108.874626 411.73438 108.51525Q411.1875 108.155876 410.89062 107.499626Q410.59375 106.82775 410.59375 106.030876Q410.59375 105.187126 410.90625 104.499626Q411.23438 103.812126 411.82812 103.45275Q412.4375 103.07775 413.23438 103.07775Q414.5 103.07775 415.21875 104.030876Q415.95312 104.984 415.95312 106.609L415.95312 106.9215Q415.95312 109.4215 414.96875 110.562126Q413.98438 111.70275 412.0 111.734L411.78125 111.734L411.78125 110.82775L412.01562 110.82775Q413.35938 110.7965 414.07812 110.124626Q414.79688 109.45275 414.85938 107.984ZM413.1875 107.984Q413.73438 107.984 414.1875 107.655876Q414.65625 107.312126 414.875 106.82775L414.875 106.39025Q414.875 105.32775 414.40625 104.655876Q413.9375 103.984 413.23438 103.984Q412.51562 103.984 412.07812 104.530876Q411.65625 105.07775 411.65625 105.984Q411.65625 106.859 412.0625 107.4215Q412.48438 107.984 413.1875 107.984Z" fill-rule="nonzero"/><path fill="#000000" d="M397.26562 111.734L396.1875 111.734L396.1875 104.51525L394.0 105.312126L394.0 104.32775L397.10938 103.155876L397.26562 103.155876L397.26562 111.734ZM405.89062 105.4215Q405.89062 106.062126 405.54688 106.562126Q405.20312 107.062126 404.64062 107.343376Q405.29688 107.624626 405.6875 108.187126Q406.07812 108.734 406.07812 109.437126Q406.07812 110.530876 405.32812 111.20275Q404.59375 111.859 403.375 111.859Q402.14062 111.859 401.39062 111.20275Q400.65625 110.530876 400.65625 109.437126Q400.65625 108.734 401.03125 108.187126Q401.40625 107.624626 402.07812 107.343376Q401.51562 107.062126 401.1875 106.562126Q400.85938 106.062126 400.85938 105.4215Q400.85938 104.343376 401.54688 103.718376Q402.23438 103.07775 403.375 103.07775Q404.5 103.07775 405.1875 103.718376Q405.89062 104.343376 405.89062 105.4215ZM405.0 109.405876Q405.0 108.687126 404.54688 108.249626Q404.09375 107.7965 403.35938 107.7965Q402.625 107.7965 402.17188 108.249626Q401.73438 108.687126 401.73438 109.4215Q401.73438 110.14025 402.17188 110.562126Q402.60938 110.968376 403.375 110.968376Q404.125 110.968376 404.5625 110.5465Q405.0 110.124626 405.0 109.405876ZM403.375 103.968376Q402.73438 103.968376 402.32812 104.374626Q401.9375 104.76525 401.9375 105.45275Q401.9375 106.093376 402.32812 106.499626Q402.71875 106.905876 403.35938 106.905876Q404.01562 106.905876 404.40625 106.499626Q404.79688 106.093376 404.79688 105.45275Q404.79688 104.7965 404.39062 104.39025Q403.98438 103.968376 403.375 103.968376ZM407.84375 111.1715Q407.84375 110.89025 408.0 110.70275Q408.17188 110.51525 408.5 110.51525Q408.84375 110.51525 409.01562 110.70275Q409.1875 110.89025 409.1875 111.1715Q409.1875 111.437126 409.01562 111.624626Q408.84375 111.7965 408.5 111.7965Q408.17188 111.7965 408.0 111.624626Q407.84375 111.437126 407.84375 111.1715ZM414.85938 107.984Q414.53125 108.39025 414.04688 108.64025Q413.57812 108.874626 413.01562 108.874626Q412.28125 108.874626 411.73438 108.51525Q411.1875 108.155876 410.89062 107.499626Q410.59375 106.82775 410.59375 106.030876Q410.59375 105.187126 410.90625 104.499626Q411.23438 103.812126 411.82812 103.45275Q412.4375 103.07775 413.23438 103.07775Q414.5 103.07775 415.21875 104.030876Q415.95312 104.984 415.95312 106.609L415.95312 106.9215Q415.95312 109.4215 414.96875 110.562126Q413.98438 111.70275 412.0 111.734L411.78125 111.734L411.78125 110.82775L412.01562 110.82775Q413.35938 110.7965 414.07812 110.124626Q414.79688 109.45275 414.85938 107.984ZM413.1875 107.984Q413.73438 107.984 414.1875 107.655876Q414.65625 107.312126 414.875 106.82775L414.875 106.39025Q414.875 105.32775 414.40625 104.655876Q413.9375 103.984 413.23438 103.984Q412.51562 103.984 412.07812 104.530876Q411.65625 105.07775 411.65625 105.984Q411.65625 106.859 412.0625 107.4215Q412.48438 107.984 413.1875 107.984Z" fill-rule="nonzero"/><path stroke="#46bdc6" stroke-width="3.0" stroke-linejoin="round" stroke-linecap="round" d="M439.76562 255.9002L438.6875 255.9002L438.6875 248.68146L436.5 249.47833L436.5 248.49396L439.60938 247.32208L439.76562 247.32208L439.76562 255.9002ZM446.76562 255.9002L445.6875 255.9002L445.6875 248.68146L443.5 249.47833L443.5 248.49396L446.60938 247.32208L446.76562 247.32208L446.76562 255.9002ZM450.34375 255.3377Q450.34375 255.05646 450.5 254.86896Q450.67188 254.68146 451.0 254.68146Q451.34375 254.68146 451.51562 254.86896Q451.6875 255.05646 451.6875 255.3377Q451.6875 255.60333 451.51562 255.79083Q451.34375 255.9627 451.0 255.9627Q450.67188 255.9627 450.5 255.79083Q450.34375 255.60333 450.34375 255.3377ZM457.46875 247.36896L457.46875 248.2752L457.26562 248.2752Q456.0 248.30646 455.25 249.04083Q454.5 249.75958 454.375 251.07208Q455.0625 250.30646 456.21875 250.30646Q457.32812 250.30646 458.0 251.0877Q458.67188 251.86896 458.67188 253.11896Q458.67188 254.43146 457.95312 255.22833Q457.23438 256.0252 456.01562 256.0252Q454.79688 256.0252 454.03125 255.0877Q453.28125 254.13458 453.28125 252.6502L453.28125 252.24396Q453.28125 249.88458 454.28125 248.63458Q455.28125 247.38458 457.26562 247.36896L457.46875 247.36896ZM456.04688 251.2127Q455.48438 251.2127 455.01562 251.54083Q454.54688 251.86896 454.35938 252.38458L454.35938 252.7752Q454.35938 253.8377 454.82812 254.47833Q455.3125 255.11896 456.01562 255.11896Q456.75 255.11896 457.17188 254.5877Q457.59375 254.04083 457.59375 253.16583Q457.59375 252.29083 457.17188 251.75958Q456.75 251.2127 456.04688 251.2127ZM465.71875 247.97833L462.1875 255.9002L461.04688 255.9002L464.5625 248.25958L459.95312 248.25958L459.95312 247.36896L465.71875 247.36896L465.71875 247.97833Z" fill-rule="nonzero"/><path fill="#000000" d="M439.76562 255.9002L438.6875 255.9002L438.6875 248.68146L436.5 249.47833L436.5 248.49396L439.60938 247.32208L439.76562 247.32208L439.76562 255.9002ZM446.76562 255.9002L445.6875 255.9002L445.6875 248.68146L443.5 249.47833L443.5 248.49396L446.60938 247.32208L446.76562 247.32208L446.76562 255.9002ZM450.34375 255.3377Q450.34375 255.05646 450.5 254.86896Q450.67188 254.68146 451.0 254.68146Q451.34375 254.68146 451.51562 254.86896Q451.6875 255.05646 451.6875 255.3377Q451.6875 255.60333 451.51562 255.79083Q451.34375 255.9627 451.0 255.9627Q450.67188 255.9627 450.5 255.79083Q450.34375 255.60333 450.34375 255.3377ZM457.46875 247.36896L457.46875 248.2752L457.26562 248.2752Q456.0 248.30646 455.25 249.04083Q454.5 249.75958 454.375 251.07208Q455.0625 250.30646 456.21875 250.30646Q457.32812 250.30646 458.0 251.0877Q458.67188 251.86896 458.67188 253.11896Q458.67188 254.43146 457.95312 255.22833Q457.23438 256.0252 456.01562 256.0252Q454.79688 256.0252 454.03125 255.0877Q453.28125 254.13458 453.28125 252.6502L453.28125 252.24396Q453.28125 249.88458 454.28125 248.63458Q455.28125 247.38458 457.26562 247.36896L457.46875 247.36896ZM456.04688 251.2127Q455.48438 251.2127 455.01562 251.54083Q454.54688 251.86896 454.35938 252.38458L454.35938 252.7752Q454.35938 253.8377 454.82812 254.47833Q455.3125 255.11896 456.01562 255.11896Q456.75 255.11896 457.17188 254.5877Q457.59375 254.04083 457.59375 253.16583Q457.59375 252.29083 457.17188 251.75958Q456.75 251.2127 456.04688 251.2127ZM465.71875 247.97833L462.1875 255.9002L461.04688 255.9002L464.5625 248.25958L459.95312 248.25958L459.95312 247.36896L465.71875 247.36896L465.71875 247.97833Z" fill-rule="nonzero"/><path fill="#000000" d="M39.7 471.5656Q39.7 470.03436 40.0125 469.1125Q40.325 468.175 40.934376 467.675Q41.559376 467.175 42.496876 467.175Q43.184376 467.175 43.7 467.45624Q44.23125 467.7375 44.575 468.26874Q44.91875 468.78436 45.10625 469.53436Q45.29375 470.28436 45.29375 471.5656Q45.29375 473.08124 44.98125 474.0031Q44.684376 474.925 44.059376 475.4406Q43.45 475.9406 42.496876 475.9406Q41.2625 475.9406 40.54375 475.05Q39.7 473.9875 39.7 471.5656ZM40.778126 471.5656Q40.778126 473.675 41.278126 474.3781Q41.778126 475.08124 42.496876 475.08124Q43.23125 475.08124 43.715626 474.3781Q44.215626 473.675 44.215626 471.5656Q44.215626 469.4406 43.715626 468.7531Q43.23125 468.05 42.48125 468.05Q41.7625 468.05 41.325 468.65936Q40.778126 469.4406 40.778126 471.5656Z" fill-rule="nonzero"/><path fill="#000000" d="M39.7 373.85L40.809376 373.75626Q40.934376 374.56876 41.371876 374.975Q41.825 375.38126 42.465626 375.38126Q43.215626 375.38126 43.746876 374.80313Q44.278126 374.225 44.278126 373.2875Q44.278126 372.38126 43.7625 371.86563Q43.2625 371.33438 42.434376 371.33438Q41.934376 371.33438 41.5125 371.56876Q41.10625 371.80313 40.871876 372.1625L39.8875 372.0375L40.715626 367.63126L44.996876 367.63126L44.996876 368.63126L41.559376 368.63126L41.10625 370.94376Q41.871876 370.39688 42.715626 370.39688Q43.840626 370.39688 44.60625 371.17813Q45.3875 371.95938 45.3875 373.19376Q45.3875 374.35 44.715626 375.20938Q43.8875 376.24063 42.465626 376.24063Q41.29375 376.24063 40.54375 375.58438Q39.809376 374.92813 39.7 373.85Z" fill-rule="nonzero"/><path fill="#000000" d="M36.66875 276.4L35.621876 276.4L35.621876 269.68124Q35.23125 270.04062 34.60625 270.41562Q33.996876 270.775 33.5125 270.94687L33.5125 269.93124Q34.3875 269.50937 35.04375 268.93124Q35.715626 268.3375 35.996876 267.775L36.66875 267.775L36.66875 276.4ZM39.7 272.16562Q39.7 270.63437 40.0125 269.7125Q40.325 268.775 40.934376 268.275Q41.559376 267.775 42.496876 267.775Q43.184376 267.775 43.7 268.05624Q44.23125 268.3375 44.575 268.86874Q44.91875 269.38437 45.10625 270.13437Q45.29375 270.88437 45.29375 272.16562Q45.29375 273.68124 44.98125 274.60312Q44.684376 275.525 44.059376 276.04062Q43.45 276.54062 42.496876 276.54062Q41.2625 276.54062 40.54375 275.65Q39.7 274.5875 39.7 272.16562ZM40.778126 272.16562Q40.778126 274.275 41.278126 274.97812Q41.778126 275.68124 42.496876 275.68124Q43.23125 275.68124 43.715626 274.97812Q44.215626 274.275 44.215626 272.16562Q44.215626 270.04062 43.715626 269.35312Q43.23125 268.65 42.48125 268.65Q41.7625 268.65 41.325 269.25937Q40.778126 270.04062 40.778126 272.16562Z" fill-rule="nonzero"/><path fill="#000000" d="M36.66875 176.7L35.621876 176.7L35.621876 169.98125Q35.23125 170.34062 34.60625 170.71562Q33.996876 171.075 33.5125 171.24687L33.5125 170.23125Q34.3875 169.80937 35.04375 169.23125Q35.715626 168.6375 35.996876 168.075L36.66875 168.075L36.66875 176.7ZM39.7 174.45L40.809376 174.35625Q40.934376 175.16875 41.371876 175.575Q41.825 175.98125 42.465626 175.98125Q43.215626 175.98125 43.746876 175.40312Q44.278126 174.825 44.278126 173.8875Q44.278126 172.98125 43.7625 172.46562Q43.2625 171.93437 42.434376 171.93437Q41.934376 171.93437 41.5125 172.16875Q41.10625 172.40312 40.871876 172.7625L39.8875 172.6375L40.715626 168.23125L44.996876 168.23125L44.996876 169.23125L41.559376 169.23125L41.10625 171.54375Q41.871876 170.99687 42.715626 170.99687Q43.840626 170.99687 44.60625 171.77812Q45.3875 172.55937 45.3875 173.79375Q45.3875 174.95 44.715626 175.80937Q43.8875 176.84062 42.465626 176.84062Q41.29375 176.84062 40.54375 176.18437Q39.809376 175.52812 39.7 174.45Z" fill-rule="nonzero"/><path fill="#000000" d="M38.246876 75.984375L38.246876 77.0L32.559376 77.0Q32.559376 76.625 32.684376 76.265625Q32.903126 75.6875 33.371876 75.125Q33.85625 74.5625 34.7625 73.828125Q36.16875 72.671875 36.653126 72.0Q37.153126 71.328125 37.153126 70.734375Q37.153126 70.109375 36.7 69.6875Q36.246876 69.25 35.528126 69.25Q34.7625 69.25 34.309376 69.703125Q33.85625 70.15625 33.840626 70.96875L32.7625 70.859375Q32.871876 69.640625 33.590626 69.015625Q34.325 68.375 35.559376 68.375Q36.79375 68.375 37.5125 69.0625Q38.23125 69.75 38.23125 70.765625Q38.23125 71.28125 38.0125 71.78125Q37.809376 72.265625 37.309376 72.828125Q36.825 73.375 35.7 74.328125Q34.746876 75.125 34.465626 75.421875Q34.2 75.703125 34.028126 75.984375L38.246876 75.984375ZM39.7 72.765625Q39.7 71.234375 40.0125 70.3125Q40.325 69.375 40.934376 68.875Q41.559376 68.375 42.496876 68.375Q43.184376 68.375 43.7 68.65625Q44.23125 68.9375 44.575 69.46875Q44.91875 69.984375 45.10625 70.734375Q45.29375 71.484375 45.29375 72.765625Q45.29375 74.28125 44.98125 75.203125Q44.684376 76.125 44.059376 76.640625Q43.45 77.140625 42.496876 77.140625Q41.2625 77.140625 40.54375 76.25Q39.7 75.1875 39.7 72.765625ZM40.778126 72.765625Q40.778126 74.875 41.278126 75.578125Q41.778126 76.28125 42.496876 76.28125Q43.23125 76.28125 43.715626 75.578125Q44.215626 74.875 44.215626 72.765625Q44.215626 70.640625 43.715626 69.953125Q43.23125 69.25 42.48125 69.25Q41.7625 69.25 41.325 69.859375Q40.778126 70.640625 40.778126 72.765625Z" fill-rule="nonzero"/><path fill="#4285f4" d="M646.8 73.0C646.8 72.447716 647.24774 72.0 647.8 72.0L657.8 72.0C658.3523 72.0 658.8 72.447716 658.8 73.0L658.8 83.0C658.8 83.552284 658.3523 84.0 657.8 84.0L647.8 84.0C647.24774 84.0 646.8 83.552284 646.8 83.0Z" fill-rule="nonzero"/><path fill="#1a1a1a" d="M668.1281 72.703125L668.1281 70.6875L669.89374 70.6875L669.89374 72.703125L668.1281 72.703125ZM668.1281 85.0L668.1281 74.625L669.89374 74.625L669.89374 85.0L668.1281 85.0ZM671.7531 72.5625L671.7531 70.875L681.01874 70.875L681.01874 72.234375Q679.64374 73.6875 678.3 76.109375Q676.95624 78.515625 676.2375 81.0625Q675.70624 82.859375 675.55 85.0L673.7531 85.0Q673.78436 83.3125 674.40936 80.921875Q675.05 78.53125 676.2375 76.3125Q677.425 74.078125 678.7531 72.5625L671.7531 72.5625ZM682.4406 80.703125L682.4406 78.9375L687.83124 78.9375L687.83124 80.703125L682.4406 80.703125ZM692.33124 77.234375Q691.2375 76.828125 690.70624 76.09375Q690.1906 75.34375 690.1906 74.3125Q690.1906 72.75 691.3156 71.6875Q692.4406 70.625 694.3 70.625Q696.175 70.625 697.3156 71.71875Q698.45624 72.796875 698.45624 74.359375Q698.45624 75.359375 697.925 76.09375Q697.40936 76.828125 696.34686 77.234375Q697.675 77.671875 698.3625 78.625Q699.05 79.578125 699.05 80.90625Q699.05 82.75 697.7375 84.0Q696.4406 85.25 694.33124 85.25Q692.20624 85.25 690.90936 84.0Q689.6125 82.734375 689.6125 80.859375Q689.6125 79.46875 690.3156 78.53125Q691.03436 77.578125 692.33124 77.234375ZM691.9875 74.25Q691.9875 75.265625 692.64374 75.921875Q693.3 76.5625 694.33124 76.5625Q695.34686 76.5625 696.0031 75.921875Q696.65936 75.28125 696.65936 74.359375Q696.65936 73.390625 695.9875 72.734375Q695.3156 72.0625 694.3156 72.0625Q693.3156 72.0625 692.64374 72.71875Q691.9875 73.359375 691.9875 74.25ZM691.425 80.875Q691.425 81.625 691.76874 82.328125Q692.1281 83.03125 692.83124 83.421875Q693.53436 83.796875 694.34686 83.796875Q695.6125 83.796875 696.425 82.984375Q697.2531 82.171875 697.2531 80.921875Q697.2531 79.65625 696.40936 78.828125Q695.5656 78.0 694.28436 78.0Q693.05 78.0 692.2375 78.828125Q691.425 79.640625 691.425 80.875ZM700.7531 72.5625L700.7531 70.875L710.01874 70.875L710.01874 72.234375Q708.64374 73.6875 707.3 76.109375Q705.95624 78.515625 705.2375 81.0625Q704.70624 82.859375 704.55 85.0L702.7531 85.0Q702.78436 83.3125 703.40936 80.921875Q704.05 78.53125 705.2375 76.3125Q706.425 74.078125 707.7531 72.5625L700.7531 72.5625ZM711.6281 77.9375Q711.6281 75.40625 712.14374 73.859375Q712.675 72.296875 713.70624 71.46875Q714.7375 70.625 716.3 70.625Q717.45624 70.625 718.3156 71.09375Q719.1906 71.546875 719.7531 72.421875Q720.3156 73.296875 720.64374 74.5625Q720.97186 75.8125 720.97186 77.9375Q720.97186 80.453125 720.4406 82.0Q719.925 83.546875 718.89374 84.40625Q717.8781 85.25 716.3 85.25Q714.22186 85.25 713.05 83.765625Q711.6281 81.96875 711.6281 77.9375ZM713.4406 77.9375Q713.4406 81.46875 714.2531 82.640625Q715.08124 83.796875 716.3 83.796875Q717.5031 83.796875 718.33124 82.625Q719.15936 81.453125 719.15936 77.9375Q719.15936 74.40625 718.33124 73.25Q717.5031 72.078125 716.28436 72.078125Q715.0656 72.078125 714.34686 73.109375Q713.4406 74.40625 713.4406 77.9375ZM722.6281 77.9375Q722.6281 75.40625 723.14374 73.859375Q723.675 72.296875 724.70624 71.46875Q725.7375 70.625 727.3 70.625Q728.45624 70.625 729.3156 71.09375Q730.1906 71.546875 730.7531 72.421875Q731.3156 73.296875 731.64374 74.5625Q731.97186 75.8125 731.97186 77.9375Q731.97186 80.453125 731.4406 82.0Q730.925 83.546875 729.89374 84.40625Q728.8781 85.25 727.3 85.25Q725.22186 85.25 724.05 83.765625Q722.6281 81.96875 722.6281 77.9375ZM724.4406 77.9375Q724.4406 81.46875 725.2531 82.640625Q726.08124 83.796875 727.3 83.796875Q728.5031 83.796875 729.33124 82.625Q730.15936 81.453125 730.15936 77.9375Q730.15936 74.40625 729.33124 73.25Q728.5031 72.078125 727.28436 72.078125Q726.0656 72.078125 725.34686 73.109375Q724.4406 74.40625 724.4406 77.9375ZM734.26874 85.0L734.26874 70.6875L736.15936 70.6875L736.15936 77.78125L743.26874 70.6875L745.83124 70.6875L739.83124 76.484375L746.09686 85.0L743.59686 85.0L738.5031 77.75L736.15936 80.03125L736.15936 85.0L734.26874 85.0Z" fill-rule="nonzero"/><path fill="#ea4335" d="M646.8 107.0C646.8 106.447716 647.24774 106.0 647.8 106.0L657.8 106.0C658.3523 106.0 658.8 106.447716 658.8 107.0L658.8 117.0C658.8 117.552284 658.3523 118.0 657.8 118.0L647.8 118.0C647.24774 118.0 646.8 117.552284 646.8 117.0Z" fill-rule="nonzero"/><path fill="#1a1a1a" d="M667.64374 115.21875L669.39374 114.984375Q669.70624 116.484375 670.425 117.140625Q671.15936 117.796875 672.20624 117.796875Q673.4406 117.796875 674.28436 116.9375Q675.14374 116.078125 675.14374 114.8125Q675.14374 113.59375 674.34686 112.8125Q673.5656 112.03125 672.34686 112.03125Q671.84686 112.03125 671.1125 112.21875L671.3 110.671875Q671.47186 110.703125 671.58124 110.703125Q672.70624 110.703125 673.59686 110.125Q674.5031 109.53125 674.5031 108.3125Q674.5031 107.34375 673.84686 106.703125Q673.1906 106.0625 672.15936 106.0625Q671.14374 106.0625 670.45624 106.71875Q669.76874 107.359375 669.58124 108.640625L667.8156 108.328125Q668.14374 106.5625 669.28436 105.59375Q670.425 104.625 672.1281 104.625Q673.3 104.625 674.28436 105.125Q675.26874 105.625 675.78436 106.5Q676.3156 107.375 676.3156 108.34375Q676.3156 109.265625 675.8156 110.03125Q675.3156 110.796875 674.34686 111.25Q675.6125 111.53125 676.3156 112.46875Q677.01874 113.390625 677.01874 114.765625Q677.01874 116.640625 675.64374 117.953125Q674.28436 119.25 672.1906 119.25Q670.3 119.25 669.05 118.125Q667.8156 117.0 667.64374 115.21875ZM678.89374 115.6875L680.58124 115.53125Q680.8 116.71875 681.39374 117.265625Q682.0031 117.796875 682.95624 117.796875Q683.76874 117.796875 684.3781 117.4375Q684.9875 117.0625 685.3781 116.4375Q685.76874 115.8125 686.03436 114.765625Q686.3 113.703125 686.3 112.609375Q686.3 112.5 686.28436 112.265625Q685.7531 113.09375 684.84686 113.625Q683.9406 114.140625 682.8625 114.140625Q681.09686 114.140625 679.8625 112.859375Q678.6281 111.5625 678.6281 109.453125Q678.6281 107.28125 679.90936 105.953125Q681.20624 104.625 683.1281 104.625Q684.53436 104.625 685.6906 105.375Q686.84686 106.125 687.4406 107.515625Q688.05 108.90625 688.05 111.546875Q688.05 114.296875 687.4406 115.921875Q686.84686 117.546875 685.675 118.40625Q684.5031 119.25 682.925 119.25Q681.2375 119.25 680.175 118.3125Q679.1125 117.375 678.89374 115.6875ZM686.09686 109.375Q686.09686 107.859375 685.28436 106.96875Q684.4875 106.078125 683.34686 106.078125Q682.175 106.078125 681.3 107.046875Q680.4406 108.0 680.4406 109.515625Q680.4406 110.890625 681.2531 111.75Q682.08124 112.59375 683.3 112.59375Q684.51874 112.59375 685.3 111.75Q686.09686 110.890625 686.09686 109.375ZM689.6281 115.25L691.47186 115.09375Q691.675 116.4375 692.425 117.125Q693.175 117.796875 694.2375 117.796875Q695.5031 117.796875 696.3781 116.84375Q697.2531 115.890625 697.2531 114.296875Q697.2531 112.796875 696.40936 111.9375Q695.5656 111.0625 694.20624 111.0625Q693.34686 111.0625 692.65936 111.453125Q691.9875 111.828125 691.59686 112.453125L689.9406 112.234375L691.33124 104.875L698.45624 104.875L698.45624 106.5625L692.7375 106.5625L691.97186 110.40625Q693.2531 109.5 694.675 109.5Q696.55 109.5 697.83124 110.8125Q699.1281 112.109375 699.1281 114.140625Q699.1281 116.09375 697.9875 117.5Q696.6125 119.25 694.2375 119.25Q692.28436 119.25 691.03436 118.15625Q689.8 117.0625 689.6281 115.25ZM700.6281 111.9375Q700.6281 109.40625 701.14374 107.859375Q701.675 106.296875 702.70624 105.46875Q703.7375 104.625 705.3 104.625Q706.45624 104.625 707.3156 105.09375Q708.1906 105.546875 708.7531 106.421875Q709.3156 107.296875 709.64374 108.5625Q709.97186 109.8125 709.97186 111.9375Q709.97186 114.453125 709.4406 116.0Q708.925 117.546875 707.89374 118.40625Q706.8781 119.25 705.3 119.25Q703.22186 119.25 702.05 117.765625Q700.6281 115.96875 700.6281 111.9375ZM702.4406 111.9375Q702.4406 115.46875 703.2531 116.640625Q704.08124 117.796875 705.3 117.796875Q706.5031 117.796875 707.33124 116.625Q708.15936 115.453125 708.15936 111.9375Q708.15936 108.40625 707.33124 107.25Q706.5031 106.078125 705.28436 106.078125Q704.0656 106.078125 703.34686 107.109375Q702.4406 108.40625 702.4406 111.9375ZM710.9406 119.0L714.7375 113.609375L711.2375 108.625L713.425 108.625L715.01874 111.0625Q715.47186 111.75 715.7375 112.21875Q716.175 111.578125 716.53436 111.078125L718.28436 108.625L720.3781 108.625L716.8 113.515625L720.65936 119.0L718.5031 119.0L716.3625 115.78125L715.8 114.90625L713.08124 119.0L710.9406 119.0Z" fill-rule="nonzero"/><path fill="#fbbc04" d="M646.8 141.0C646.8 140.44771 647.24774 140.0 647.8 140.0L657.8 140.0C658.3523 140.0 658.8 140.44771 658.8 141.0L658.8 151.0C658.8 151.55229 658.3523 152.0 657.8 152.0L647.8 152.0C647.24774 152.0 646.8 151.55229 646.8 151.0Z" fill-rule="nonzero"/><path fill="#1a1a1a" d="M668.1281 140.70312L668.1281 138.6875L669.89374 138.6875L669.89374 140.70312L668.1281 140.70312ZM668.1281 153.0L668.1281 142.625L669.89374 142.625L669.89374 153.0L668.1281 153.0ZM671.89374 149.6875L673.58124 149.53125Q673.8 150.71875 674.39374 151.26562Q675.0031 151.79688 675.95624 151.79688Q676.76874 151.79688 677.3781 151.4375Q677.9875 151.0625 678.3781 150.4375Q678.76874 149.8125 679.03436 148.76562Q679.3 147.70312 679.3 146.60938Q679.3 146.5 679.28436 146.26562Q678.7531 147.09375 677.84686 147.625Q676.9406 148.14062 675.8625 148.14062Q674.09686 148.14062 672.8625 146.85938Q671.6281 145.5625 671.6281 143.45312Q671.6281 141.28125 672.90936 139.95312Q674.20624 138.625 676.1281 138.625Q677.53436 138.625 678.6906 139.375Q679.84686 140.125 680.4406 141.51562Q681.05 142.90625 681.05 145.54688Q681.05 148.29688 680.4406 149.92188Q679.84686 151.54688 678.675 152.40625Q677.5031 153.25 675.925 153.25Q674.2375 153.25 673.175 152.3125Q672.1125 151.375 671.89374 149.6875ZM679.09686 143.375Q679.09686 141.85938 678.28436 140.96875Q677.4875 140.07812 676.34686 140.07812Q675.175 140.07812 674.3 141.04688Q673.4406 142.0 673.4406 143.51562Q673.4406 144.89062 674.2531 145.75Q675.08124 146.59375 676.3 146.59375Q677.51874 146.59375 678.3 145.75Q679.09686 144.89062 679.09686 143.375ZM682.4406 148.70312L682.4406 146.9375L687.83124 146.9375L687.83124 148.70312L682.4406 148.70312ZM692.33124 145.23438Q691.2375 144.82812 690.70624 144.09375Q690.1906 143.34375 690.1906 142.3125Q690.1906 140.75 691.3156 139.6875Q692.4406 138.625 694.3 138.625Q696.175 138.625 697.3156 139.71875Q698.45624 140.79688 698.45624 142.35938Q698.45624 143.35938 697.925 144.09375Q697.40936 144.82812 696.34686 145.23438Q697.675 145.67188 698.3625 146.625Q699.05 147.57812 699.05 148.90625Q699.05 150.75 697.7375 152.0Q696.4406 153.25 694.33124 153.25Q692.20624 153.25 690.90936 152.0Q689.6125 150.73438 689.6125 148.85938Q689.6125 147.46875 690.3156 146.53125Q691.03436 145.57812 692.33124 145.23438ZM691.9875 142.25Q691.9875 143.26562 692.64374 143.92188Q693.3 144.5625 694.33124 144.5625Q695.34686 144.5625 696.0031 143.92188Q696.65936 143.28125 696.65936 142.35938Q696.65936 141.39062 695.9875 140.73438Q695.3156 140.0625 694.3156 140.0625Q693.3156 140.0625 692.64374 140.71875Q691.9875 141.35938 691.9875 142.25ZM691.425 148.875Q691.425 149.625 691.76874 150.32812Q692.1281 151.03125 692.83124 151.42188Q693.53436 151.79688 694.34686 151.79688Q695.6125 151.79688 696.425 150.98438Q697.2531 150.17188 697.2531 148.92188Q697.2531 147.65625 696.40936 146.82812Q695.5656 146.0 694.28436 146.0Q693.05 146.0 692.2375 146.82812Q691.425 147.64062 691.425 148.875ZM700.89374 149.6875L702.58124 149.53125Q702.8 150.71875 703.39374 151.26562Q704.0031 151.79688 704.95624 151.79688Q705.76874 151.79688 706.3781 151.4375Q706.9875 151.0625 707.3781 150.4375Q707.76874 149.8125 708.03436 148.76562Q708.3 147.70312 708.3 146.60938Q708.3 146.5 708.28436 146.26562Q707.7531 147.09375 706.84686 147.625Q705.9406 148.14062 704.8625 148.14062Q703.09686 148.14062 701.8625 146.85938Q700.6281 145.5625 700.6281 143.45312Q700.6281 141.28125 701.90936 139.95312Q703.20624 138.625 705.1281 138.625Q706.53436 138.625 707.6906 139.375Q708.84686 140.125 709.4406 141.51562Q710.05 142.90625 710.05 145.54688Q710.05 148.29688 709.4406 149.92188Q708.84686 151.54688 707.675 152.40625Q706.5031 153.25 704.925 153.25Q703.2375 153.25 702.175 152.3125Q701.1125 151.375 700.89374 149.6875ZM708.09686 143.375Q708.09686 141.85938 707.28436 140.96875Q706.4875 140.07812 705.34686 140.07812Q704.175 140.07812 703.3 141.04688Q702.4406 142.0 702.4406 143.51562Q702.4406 144.89062 703.2531 145.75Q704.08124 146.59375 705.3 146.59375Q706.51874 146.59375 707.3 145.75Q708.09686 144.89062 708.09686 143.375ZM711.6281 149.25L713.47186 149.09375Q713.675 150.4375 714.425 151.125Q715.175 151.79688 716.2375 151.79688Q717.5031 151.79688 718.3781 150.84375Q719.2531 149.89062 719.2531 148.29688Q719.2531 146.79688 718.40936 145.9375Q717.5656 145.0625 716.20624 145.0625Q715.34686 145.0625 714.65936 145.45312Q713.9875 145.82812 713.59686 146.45312L711.9406 146.23438L713.33124 138.875L720.45624 138.875L720.45624 140.5625L714.7375 140.5625L713.97186 144.40625Q715.2531 143.5 716.675 143.5Q718.55 143.5 719.83124 144.8125Q721.1281 146.10938 721.1281 148.14062Q721.1281 150.09375 719.9875 151.5Q718.6125 153.25 716.2375 153.25Q714.28436 153.25 713.03436 152.15625Q711.8 151.0625 711.6281 149.25ZM722.6281 145.9375Q722.6281 143.40625 723.14374 141.85938Q723.675 140.29688 724.70624 139.46875Q725.7375 138.625 727.3 138.625Q728.45624 138.625 729.3156 139.09375Q730.1906 139.54688 730.7531 140.42188Q731.3156 141.29688 731.64374 142.5625Q731.97186 143.8125 731.97186 145.9375Q731.97186 148.45312 731.4406 150.0Q730.925 151.54688 729.89374 152.40625Q728.8781 153.25 727.3 153.25Q725.22186 153.25 724.05 151.76562Q722.6281 149.96875 722.6281 145.9375ZM724.4406 145.9375Q724.4406 149.46875 725.2531 150.64062Q726.08124 151.79688 727.3 151.79688Q728.5031 151.79688 729.33124 150.625Q730.15936 149.45312 730.15936 145.9375Q730.15936 142.40625 729.33124 141.25Q728.5031 140.07812 727.28436 140.07812Q726.0656 140.07812 725.34686 141.10938Q724.4406 142.40625 724.4406 145.9375ZM734.40936 153.0L734.40936 138.6875L736.3 138.6875L736.3 144.5625L743.7375 144.5625L743.7375 138.6875L745.6281 138.6875L745.6281 153.0L743.7375 153.0L743.7375 146.25L736.3 146.25L736.3 153.0L734.40936 153.0ZM748.26874 153.0L748.26874 138.6875L750.15936 138.6875L750.15936 145.78125L757.26874 138.6875L759.83124 138.6875L753.83124 144.48438L760.09686 153.0L757.59686 153.0L752.5031 145.75L750.15936 148.03125L750.15936 153.0L748.26874 153.0Z" fill-rule="nonzero"/><path fill="#34a853" d="M646.8 175.0C646.8 174.44771 647.24774 174.0 647.8 174.0L657.8 174.0C658.3523 174.0 658.8 174.44771 658.8 175.0L658.8 185.0C658.8 185.55229 658.3523 186.0 657.8 186.0L647.8 186.0C647.24774 186.0 646.8 185.55229 646.8 185.0Z" fill-rule="nonzero"/><path fill="#1a1a1a" d="M668.1281 174.70312L668.1281 172.6875L669.89374 172.6875L669.89374 174.70312L668.1281 174.70312ZM668.1281 187.0L668.1281 176.625L669.89374 176.625L669.89374 187.0L668.1281 187.0ZM671.7531 174.5625L671.7531 172.875L681.01874 172.875L681.01874 174.23438Q679.64374 175.6875 678.3 178.10938Q676.95624 180.51562 676.2375 183.0625Q675.70624 184.85938 675.55 187.0L673.7531 187.0Q673.78436 185.3125 674.40936 182.92188Q675.05 180.53125 676.2375 178.3125Q677.425 176.07812 678.7531 174.5625L671.7531 174.5625ZM682.4406 182.70312L682.4406 180.9375L687.83124 180.9375L687.83124 182.70312L682.4406 182.70312ZM695.26874 187.0L695.26874 183.57812L689.05 183.57812L689.05 181.95312L695.58124 172.6875L697.01874 172.6875L697.01874 181.95312L698.95624 181.95312L698.95624 183.57812L697.01874 183.57812L697.01874 187.0L695.26874 187.0ZM695.26874 181.95312L695.26874 175.5L690.78436 181.95312L695.26874 181.95312ZM700.89374 183.6875L702.58124 183.53125Q702.8 184.71875 703.39374 185.26562Q704.0031 185.79688 704.95624 185.79688Q705.76874 185.79688 706.3781 185.4375Q706.9875 185.0625 707.3781 184.4375Q707.76874 183.8125 708.03436 182.76562Q708.3 181.70312 708.3 180.60938Q708.3 180.5 708.28436 180.26562Q707.7531 181.09375 706.84686 181.625Q705.9406 182.14062 704.8625 182.14062Q703.09686 182.14062 701.8625 180.85938Q700.6281 179.5625 700.6281 177.45312Q700.6281 175.28125 701.90936 173.95312Q703.20624 172.625 705.1281 172.625Q706.53436 172.625 707.6906 173.375Q708.84686 174.125 709.4406 175.51562Q710.05 176.90625 710.05 179.54688Q710.05 182.29688 709.4406 183.92188Q708.84686 185.54688 707.675 186.40625Q706.5031 187.25 704.925 187.25Q703.2375 187.25 702.175 186.3125Q701.1125 185.375 700.89374 183.6875ZM708.09686 177.375Q708.09686 175.85938 707.28436 174.96875Q706.4875 174.07812 705.34686 174.07812Q704.175 174.07812 703.3 175.04688Q702.4406 176.0 702.4406 177.51562Q702.4406 178.89062 703.2531 179.75Q704.08124 180.59375 705.3 180.59375Q706.51874 180.59375 707.3 179.75Q708.09686 178.89062 708.09686 177.375ZM720.7531 176.1875L719.0031 176.32812Q718.76874 175.29688 718.34686 174.82812Q717.6281 174.0625 716.58124 174.0625Q715.7375 174.0625 715.1125 174.53125Q714.28436 175.14062 713.8 176.3125Q713.3156 177.46875 713.3 179.60938Q713.9406 178.65625 714.84686 178.1875Q715.76874 177.71875 716.78436 177.71875Q718.53436 177.71875 719.76874 179.01562Q721.0031 180.29688 721.0031 182.34375Q721.0031 183.70312 720.425 184.85938Q719.84686 186.01562 718.83124 186.64062Q717.8156 187.25 716.51874 187.25Q714.33124 187.25 712.9406 185.64062Q711.55 184.01562 711.55 180.29688Q711.55 176.15625 713.08124 174.26562Q714.425 172.625 716.6906 172.625Q718.3781 172.625 719.45624 173.57812Q720.53436 174.51562 720.7531 176.1875ZM713.58124 182.35938Q713.58124 183.26562 713.95624 184.09375Q714.34686 184.92188 715.03436 185.35938Q715.7375 185.79688 716.4875 185.79688Q717.6125 185.79688 718.40936 184.90625Q719.20624 184.0 719.20624 182.45312Q719.20624 180.96875 718.40936 180.125Q717.6281 179.26562 716.425 179.26562Q715.2375 179.26562 714.40936 180.125Q713.58124 180.96875 713.58124 182.35938ZM722.6281 179.9375Q722.6281 177.40625 723.14374 175.85938Q723.675 174.29688 724.70624 173.46875Q725.7375 172.625 727.3 172.625Q728.45624 172.625 729.3156 173.09375Q730.1906 173.54688 730.7531 174.42188Q731.3156 175.29688 731.64374 176.5625Q731.97186 177.8125 731.97186 179.9375Q731.97186 182.45312 731.4406 184.0Q730.925 185.54688 729.89374 186.40625Q728.8781 187.25 727.3 187.25Q725.22186 187.25 724.05 185.76562Q722.6281 183.96875 722.6281 179.9375ZM724.4406 179.9375Q724.4406 183.46875 725.2531 184.64062Q726.08124 185.79688 727.3 185.79688Q728.5031 185.79688 729.33124 184.625Q730.15936 183.45312 730.15936 179.9375Q730.15936 176.40625 729.33124 175.25Q728.5031 174.07812 727.28436 174.07812Q726.0656 174.07812 725.34686 175.10938Q724.4406 176.40625 724.4406 179.9375ZM734.40936 187.0L734.40936 172.6875L736.3 172.6875L736.3 178.5625L743.7375 178.5625L743.7375 172.6875L745.6281 172.6875L745.6281 187.0L743.7375 187.0L743.7375 180.25L736.3 180.25L736.3 187.0L734.40936 187.0ZM759.1906 185.46875Q760.51874 186.375 761.6281 186.79688L761.0656 188.10938Q759.51874 187.5625 757.9875 186.35938Q756.39374 187.25 754.47186 187.25Q752.53436 187.25 750.9406 186.3125Q749.3625 185.375 748.5031 183.67188Q747.65936 181.96875 747.65936 179.84375Q747.65936 177.71875 748.51874 175.98438Q749.3781 174.25 750.95624 173.34375Q752.55 172.42188 754.51874 172.42188Q756.5031 172.42188 758.08124 173.375Q759.675 174.3125 760.5031 176.01562Q761.34686 177.70312 761.34686 179.82812Q761.34686 181.59375 760.8156 183.01562Q760.28436 184.42188 759.1906 185.46875ZM755.01874 183.04688Q756.65936 183.5 757.72186 184.40625Q759.39374 182.89062 759.39374 179.82812Q759.39374 178.09375 758.8 176.79688Q758.22186 175.5 757.08124 174.78125Q755.9406 174.0625 754.51874 174.0625Q752.40936 174.0625 751.0031 175.51562Q749.6125 176.95312 749.6125 179.84375Q749.6125 182.64062 750.9875 184.14062Q752.3781 185.625 754.51874 185.625Q755.53436 185.625 756.4406 185.23438Q755.55 184.67188 754.5656 184.42188L755.01874 183.04688Z" fill-rule="nonzero"/><path fill="#ff6d01" d="M646.8 209.0C646.8 208.44771 647.24774 208.0 647.8 208.0L657.8 208.0C658.3523 208.0 658.8 208.44771 658.8 209.0L658.8 219.0C658.8 219.55229 658.3523 220.0 657.8 220.0L647.8 220.0C647.24774 220.0 646.8 219.55229 646.8 219.0Z" fill-rule="nonzero"/><path fill="#1a1a1a" d="M668.1281 208.70312L668.1281 206.6875L669.89374 206.6875L669.89374 208.70312L668.1281 208.70312ZM668.1281 221.0L668.1281 210.625L669.89374 210.625L669.89374 221.0L668.1281 221.0ZM671.6281 217.25L673.47186 217.09375Q673.675 218.4375 674.425 219.125Q675.175 219.79688 676.2375 219.79688Q677.5031 219.79688 678.3781 218.84375Q679.2531 217.89062 679.2531 216.29688Q679.2531 214.79688 678.40936 213.9375Q677.5656 213.0625 676.20624 213.0625Q675.34686 213.0625 674.65936 213.45312Q673.9875 213.82812 673.59686 214.45312L671.9406 214.23438L673.33124 206.875L680.45624 206.875L680.45624 208.5625L674.7375 208.5625L673.97186 212.40625Q675.2531 211.5 676.675 211.5Q678.55 211.5 679.83124 212.8125Q681.1281 214.10938 681.1281 216.14062Q681.1281 218.09375 679.9875 219.5Q678.6125 221.25 676.2375 221.25Q674.28436 221.25 673.03436 220.15625Q671.8 219.0625 671.6281 217.25ZM682.4406 216.70312L682.4406 214.9375L687.83124 214.9375L687.83124 216.70312L682.4406 216.70312ZM689.7531 208.5625L689.7531 206.875L699.01874 206.875L699.01874 208.23438Q697.64374 209.6875 696.3 212.10938Q694.95624 214.51562 694.2375 217.0625Q693.70624 218.85938 693.55 221.0L691.7531 221.0Q691.78436 219.3125 692.40936 216.92188Q693.05 214.53125 694.2375 212.3125Q695.425 210.07812 696.7531 208.5625L689.7531 208.5625ZM700.6281 217.25L702.47186 217.09375Q702.675 218.4375 703.425 219.125Q704.175 219.79688 705.2375 219.79688Q706.5031 219.79688 707.3781 218.84375Q708.2531 217.89062 708.2531 216.29688Q708.2531 214.79688 707.40936 213.9375Q706.5656 213.0625 705.20624 213.0625Q704.34686 213.0625 703.65936 213.45312Q702.9875 213.82812 702.59686 214.45312L700.9406 214.23438L702.33124 206.875L709.45624 206.875L709.45624 208.5625L703.7375 208.5625L702.97186 212.40625Q704.2531 211.5 705.675 211.5Q707.55 211.5 708.83124 212.8125Q710.1281 214.10938 710.1281 216.14062Q710.1281 218.09375 708.9875 219.5Q707.6125 221.25 705.2375 221.25Q703.28436 221.25 702.03436 220.15625Q700.8 219.0625 700.6281 217.25ZM711.6281 213.9375Q711.6281 211.40625 712.14374 209.85938Q712.675 208.29688 713.70624 207.46875Q714.7375 206.625 716.3 206.625Q717.45624 206.625 718.3156 207.09375Q719.1906 207.54688 719.7531 208.42188Q720.3156 209.29688 720.64374 210.5625Q720.97186 211.8125 720.97186 213.9375Q720.97186 216.45312 720.4406 218.0Q719.925 219.54688 718.89374 220.40625Q717.8781 221.25 716.3 221.25Q714.22186 221.25 713.05 219.76562Q711.6281 217.96875 711.6281 213.9375ZM713.4406 213.9375Q713.4406 217.46875 714.2531 218.64062Q715.08124 219.79688 716.3 219.79688Q717.5031 219.79688 718.33124 218.625Q719.15936 217.45312 719.15936 213.9375Q719.15936 210.40625 718.33124 209.25Q717.5031 208.07812 716.28436 208.07812Q715.0656 208.07812 714.34686 209.10938Q713.4406 210.40625 713.4406 213.9375ZM722.6281 213.9375Q722.6281 211.40625 723.14374 209.85938Q723.675 208.29688 724.70624 207.46875Q725.7375 206.625 727.3 206.625Q728.45624 206.625 729.3156 207.09375Q730.1906 207.54688 730.7531 208.42188Q731.3156 209.29688 731.64374 210.5625Q731.97186 211.8125 731.97186 213.9375Q731.97186 216.45312 731.4406 218.0Q730.925 219.54688 729.89374 220.40625Q728.8781 221.25 727.3 221.25Q725.22186 221.25 724.05 219.76562Q722.6281 217.96875 722.6281 213.9375ZM724.4406 213.9375Q724.4406 217.46875 725.2531 218.64062Q726.08124 219.79688 727.3 219.79688Q728.5031 219.79688 729.33124 218.625Q730.15936 217.45312 730.15936 213.9375Q730.15936 210.40625 729.33124 209.25Q728.5031 208.07812 727.28436 208.07812Q726.0656 208.07812 725.34686 209.10938Q724.4406 210.40625 724.4406 213.9375Z" fill-rule="nonzero"/><path fill="#46bdc6" d="M646.8 243.0C646.8 242.44771 647.24774 242.0 647.8 242.0L657.8 242.0C658.3523 242.0 658.8 242.44771 658.8 243.0L658.8 253.0C658.8 253.55229 658.3523 254.0 657.8 254.0L647.8 254.0C647.24774 254.0 646.8 253.55229 646.8 253.0Z" fill-rule="nonzero"/><path fill="#1a1a1a" d="M667.64374 251.21875L669.39374 250.98438Q669.70624 252.48438 670.425 253.14062Q671.15936 253.79688 672.20624 253.79688Q673.4406 253.79688 674.28436 252.9375Q675.14374 252.07812 675.14374 250.8125Q675.14374 249.59375 674.34686 248.8125Q673.5656 248.03125 672.34686 248.03125Q671.84686 248.03125 671.1125 248.21875L671.3 246.67188Q671.47186 246.70312 671.58124 246.70312Q672.70624 246.70312 673.59686 246.125Q674.5031 245.53125 674.5031 244.3125Q674.5031 243.34375 673.84686 242.70312Q673.1906 242.0625 672.15936 242.0625Q671.14374 242.0625 670.45624 242.71875Q669.76874 243.35938 669.58124 244.64062L667.8156 244.32812Q668.14374 242.5625 669.28436 241.59375Q670.425 240.625 672.1281 240.625Q673.3 240.625 674.28436 241.125Q675.26874 241.625 675.78436 242.5Q676.3156 243.375 676.3156 244.34375Q676.3156 245.26562 675.8156 246.03125Q675.3156 246.79688 674.34686 247.25Q675.6125 247.53125 676.3156 248.46875Q677.01874 249.39062 677.01874 250.76562Q677.01874 252.64062 675.64374 253.95312Q674.28436 255.25 672.1906 255.25Q670.3 255.25 669.05 254.125Q667.8156 253.0 667.64374 251.21875ZM687.7531 244.1875L686.0031 244.32812Q685.76874 243.29688 685.34686 242.82812Q684.6281 242.0625 683.58124 242.0625Q682.7375 242.0625 682.1125 242.53125Q681.28436 243.14062 680.8 244.3125Q680.3156 245.46875 680.3 247.60938Q680.9406 246.65625 681.84686 246.1875Q682.76874 245.71875 683.78436 245.71875Q685.53436 245.71875 686.76874 247.01562Q688.0031 248.29688 688.0031 250.34375Q688.0031 251.70312 687.425 252.85938Q686.84686 254.01562 685.83124 254.64062Q684.8156 255.25 683.51874 255.25Q681.33124 255.25 679.9406 253.64062Q678.55 252.01562 678.55 248.29688Q678.55 244.15625 680.08124 242.26562Q681.425 240.625 683.6906 240.625Q685.3781 240.625 686.45624 241.57812Q687.53436 242.51562 687.7531 244.1875ZM680.58124 250.35938Q680.58124 251.26562 680.95624 252.09375Q681.34686 252.92188 682.03436 253.35938Q682.7375 253.79688 683.4875 253.79688Q684.6125 253.79688 685.40936 252.90625Q686.20624 252.0 686.20624 250.45312Q686.20624 248.96875 685.40936 248.125Q684.6281 247.26562 683.425 247.26562Q682.2375 247.26562 681.40936 248.125Q680.58124 248.96875 680.58124 250.35938ZM689.6281 247.9375Q689.6281 245.40625 690.14374 243.85938Q690.675 242.29688 691.70624 241.46875Q692.7375 240.625 694.3 240.625Q695.45624 240.625 696.3156 241.09375Q697.1906 241.54688 697.7531 242.42188Q698.3156 243.29688 698.64374 244.5625Q698.97186 245.8125 698.97186 247.9375Q698.97186 250.45312 698.4406 252.0Q697.925 253.54688 696.89374 254.40625Q695.8781 255.25 694.3 255.25Q692.22186 255.25 691.05 253.76562Q689.6281 251.96875 689.6281 247.9375ZM691.4406 247.9375Q691.4406 251.46875 692.2531 252.64062Q693.08124 253.79688 694.3 253.79688Q695.5031 253.79688 696.33124 252.625Q697.15936 251.45312 697.15936 247.9375Q697.15936 244.40625 696.33124 243.25Q695.5031 242.07812 694.28436 242.07812Q693.0656 242.07812 692.34686 243.10938Q691.4406 244.40625 691.4406 247.9375ZM700.6281 247.9375Q700.6281 245.40625 701.14374 243.85938Q701.675 242.29688 702.70624 241.46875Q703.7375 240.625 705.3 240.625Q706.45624 240.625 707.3156 241.09375Q708.1906 241.54688 708.7531 242.42188Q709.3156 243.29688 709.64374 244.5625Q709.97186 245.8125 709.97186 247.9375Q709.97186 250.45312 709.4406 252.0Q708.925 253.54688 707.89374 254.40625Q706.8781 255.25 705.3 255.25Q703.22186 255.25 702.05 253.76562Q700.6281 251.96875 700.6281 247.9375ZM702.4406 247.9375Q702.4406 251.46875 703.2531 252.64062Q704.08124 253.79688 705.3 253.79688Q706.5031 253.79688 707.33124 252.625Q708.15936 251.45312 708.15936 247.9375Q708.15936 244.40625 707.33124 243.25Q706.5031 242.07812 705.28436 242.07812Q704.0656 242.07812 703.34686 243.10938Q702.4406 244.40625 702.4406 247.9375Z" fill-rule="nonzero"/><path fill="#757575" d="M30.3875 44.2L30.3875 31.575L25.66875 31.575L25.66875 29.8875L37.0125 29.8875L37.0125 31.575L32.278126 31.575L32.278126 44.2L30.3875 44.2ZM38.528126 31.903126L38.528126 29.8875L40.29375 29.8875L40.29375 31.903126L38.528126 31.903126ZM38.528126 44.2L38.528126 33.825L40.29375 33.825L40.29375 44.2L38.528126 44.2ZM45.403126 44.2L41.45 33.825L43.309376 33.825L45.54375 40.04375Q45.903126 41.04375 46.2 42.121876Q46.434376 41.309376 46.85625 40.153126L49.153126 33.825L50.965626 33.825L47.04375 44.2L45.403126 44.2ZM52.528126 31.903126L52.528126 29.8875L54.29375 29.8875L54.29375 31.903126L52.528126 31.903126ZM52.528126 44.2L52.528126 33.825L54.29375 33.825L54.29375 44.2L52.528126 44.2ZM62.528126 31.903126L62.528126 29.8875L64.29375 29.8875L64.29375 31.903126L62.528126 31.903126ZM62.528126 44.2L62.528126 33.825L64.29375 33.825L64.29375 44.2L62.528126 44.2ZM66.5125 44.2L66.5125 33.825L68.10625 33.825L68.10625 35.309376Q69.24687 33.590626 71.40312 33.590626Q72.34062 33.590626 73.12187 33.934376Q73.91875 34.2625 74.30937 34.809376Q74.7 35.35625 74.85625 36.10625Q74.95 36.60625 74.95 37.825L74.95 44.2L73.18437 44.2L73.18437 37.8875Q73.18437 36.809376 72.98125 36.278126Q72.77812 35.746876 72.24687 35.434376Q71.73125 35.121876 71.02812 35.121876Q69.90312 35.121876 69.09062 35.840626Q68.27812 36.54375 68.27812 38.528126L68.27812 44.2L66.5125 44.2ZM84.29375 40.403126L86.0125 40.621876Q85.73125 42.41875 84.55937 43.434376Q83.40312 44.434376 81.7 44.434376Q79.575 44.434376 78.27812 43.04375Q76.98125 41.653126 76.98125 39.059376Q76.98125 37.371876 77.52812 36.121876Q78.09062 34.85625 79.23125 34.23125Q80.37187 33.590626 81.71562 33.590626Q83.40312 33.590626 84.46562 34.45Q85.54375 35.309376 85.85625 36.871876L84.1375 37.1375Q83.90312 36.090626 83.27812 35.575Q82.65312 35.04375 81.77812 35.04375Q80.45 35.04375 79.62187 35.996876Q78.79375 36.95 78.79375 38.996876Q78.79375 41.090626 79.59062 42.04375Q80.3875 42.98125 81.68437 42.98125Q82.71562 42.98125 83.40312 42.35625Q84.10625 41.715626 84.29375 40.403126ZM87.49687 44.2L87.49687 33.825L89.075 33.825L89.075 35.403126Q89.68437 34.29375 90.2 33.95Q90.71562 33.590626 91.325 33.590626Q92.21562 33.590626 93.1375 34.153126L92.52812 35.79375Q91.8875 35.403126 91.24687 35.403126Q90.66875 35.403126 90.2 35.7625Q89.74687 36.10625 89.54375 36.715626Q89.2625 37.653126 89.2625 38.7625L89.2625 44.2L87.49687 44.2ZM101.62187 40.85625L103.43437 41.090626Q103.0125 42.66875 101.84062 43.559376Q100.68437 44.434376 98.87187 44.434376Q96.60625 44.434376 95.2625 43.04375Q93.93437 41.6375 93.93437 39.10625Q93.93437 36.48125 95.27812 35.04375Q96.62187 33.590626 98.77812 33.590626Q100.85625 33.590626 102.16875 35.0125Q103.49687 36.41875 103.49687 38.996876Q103.49687 39.153126 103.48125 39.465626L95.74687 39.465626Q95.84062 41.16875 96.71562 42.075Q97.59062 42.98125 98.8875 42.98125Q99.85625 42.98125 100.52812 42.48125Q101.21562 41.965626 101.62187 40.85625ZM95.84062 38.0125L101.6375 38.0125Q101.52812 36.715626 100.98125 36.059376Q100.1375 35.04375 98.79375 35.04375Q97.59062 35.04375 96.7625 35.85625Q95.93437 36.653126 95.84062 38.0125ZM105.5125 44.2L105.5125 33.825L107.09062 33.825L107.09062 35.278126Q107.575 34.528126 108.3875 34.059376Q109.2 33.590626 110.23125 33.590626Q111.3875 33.590626 112.12187 34.075Q112.85625 34.54375 113.16875 35.403126Q114.40312 33.590626 116.37187 33.590626Q117.91875 33.590626 118.74687 34.45Q119.575 35.309376 119.575 37.075L119.575 44.2L117.825 44.2L117.825 37.66875Q117.825 36.60625 117.65312 36.153126Q117.48125 35.684376 117.02812 35.403126Q116.59062 35.121876 115.98125 35.121876Q114.8875 35.121876 114.15312 35.85625Q113.43437 36.575 113.43437 38.16875L113.43437 44.2L111.68437 44.2L111.68437 37.465626Q111.68437 36.29375 111.24687 35.715626Q110.825 35.121876 109.84062 35.121876Q109.10625 35.121876 108.46562 35.5125Q107.84062 35.903126 107.55937 36.653126Q107.27812 37.403126 107.27812 38.825L107.27812 44.2L105.5125 44.2ZM129.62187 40.85625L131.43437 41.090626Q131.0125 42.66875 129.84062 43.559376Q128.68437 44.434376 126.87187 44.434376Q124.60625 44.434376 123.2625 43.04375Q121.93437 41.6375 121.93437 39.10625Q121.93437 36.48125 123.27812 35.04375Q124.62187 33.590626 126.77812 33.590626Q128.85625 33.590626 130.16875 35.0125Q131.49687 36.41875 131.49687 38.996876Q131.49687 39.153126 131.48125 39.465626L123.74687 39.465626Q123.84062 41.16875 124.71562 42.075Q125.59062 42.98125 126.8875 42.98125Q127.85625 42.98125 128.52812 42.48125Q129.21562 41.965626 129.62187 40.85625ZM123.84062 38.0125L129.6375 38.0125Q129.52812 36.715626 128.98125 36.059376Q128.1375 35.04375 126.79375 35.04375Q125.59062 35.04375 124.7625 35.85625Q123.93437 36.653126 123.84062 38.0125ZM133.5125 44.2L133.5125 33.825L135.10625 33.825L135.10625 35.309376Q136.24687 33.590626 138.40312 33.590626Q139.34062 33.590626 140.12187 33.934376Q140.91875 34.2625 141.30937 34.809376Q141.7 35.35625 141.85625 36.10625Q141.95 36.60625 141.95 37.825L141.95 44.2L140.18437 44.2L140.18437 37.8875Q140.18437 36.809376 139.98125 36.278126Q139.77812 35.746876 139.24687 35.434376Q138.73125 35.121876 138.02812 35.121876Q136.90312 35.121876 136.09062 35.840626Q135.27812 36.54375 135.27812 38.528126L135.27812 44.2L133.5125 44.2ZM148.35625 42.621876L148.60625 44.184376Q147.87187 44.340626 147.27812 44.340626Q146.325 44.340626 145.79375 44.04375Q145.27812 43.73125 145.05937 43.246876Q144.84062 42.746876 144.84062 41.16875L144.84062 35.2L143.55937 35.2L143.55937 33.825L144.84062 33.825L144.84062 31.2625L146.59062 30.2L146.59062 33.825L148.35625 33.825L148.35625 35.2L146.59062 35.2L146.59062 41.2625Q146.59062 42.0125 146.68437 42.23125Q146.77812 42.434376 146.98125 42.575Q147.2 42.7 147.59062 42.7Q147.87187 42.7 148.35625 42.621876ZM157.29375 42.91875Q156.30937 43.746876 155.40312 44.090626Q154.49687 44.434376 153.46562 44.434376Q151.7625 44.434376 150.84062 43.60625Q149.91875 42.7625 149.91875 41.465626Q149.91875 40.7 150.2625 40.075Q150.62187 39.45 151.18437 39.075Q151.74687 38.684376 152.45 38.48125Q152.96562 38.35625 154.0125 38.215626Q156.1375 37.965626 157.1375 37.621876Q157.15312 37.2625 157.15312 37.153126Q157.15312 36.090626 156.65312 35.6375Q155.98125 35.04375 154.65312 35.04375Q153.40312 35.04375 152.80937 35.48125Q152.23125 35.91875 151.95 37.028126L150.23125 36.79375Q150.46562 35.684376 150.99687 35.0125Q151.52812 34.325 152.54375 33.965626Q153.55937 33.590626 154.90312 33.590626Q156.23125 33.590626 157.05937 33.903126Q157.8875 34.215626 158.27812 34.7Q158.66875 35.16875 158.825 35.8875Q158.91875 36.340626 158.91875 37.5125L158.91875 39.85625Q158.91875 42.309376 159.02812 42.965626Q159.1375 43.60625 159.48125 44.2L157.6375 44.2Q157.37187 43.653126 157.29375 42.91875ZM157.1375 38.996876Q156.18437 39.3875 154.2625 39.653126Q153.18437 39.809376 152.73125 40.0125Q152.29375 40.2 152.04375 40.575Q151.79375 40.95 151.79375 41.41875Q151.79375 42.121876 152.325 42.590626Q152.85625 43.059376 153.8875 43.059376Q154.90312 43.059376 155.68437 42.621876Q156.48125 42.16875 156.85625 41.403126Q157.1375 40.79375 157.1375 39.6375L157.1375 38.996876ZM161.48125 44.2L161.48125 29.8875L163.23125 29.8875L163.23125 44.2L161.48125 44.2ZM173.1375 44.2L171.5125 44.2L171.5125 29.8875L173.2625 29.8875L173.2625 34.996876Q174.3875 33.590626 176.10625 33.590626Q177.05937 33.590626 177.91875 33.98125Q178.77812 34.371876 179.325 35.075Q179.87187 35.7625 180.18437 36.746876Q180.49687 37.73125 180.49687 38.85625Q180.49687 41.528126 179.18437 42.98125Q177.87187 44.434376 176.02812 44.434376Q174.18437 44.434376 173.1375 42.903126L173.1375 44.2ZM173.12187 38.934376Q173.12187 40.79375 173.62187 41.6375Q174.46562 42.98125 175.87187 42.98125Q177.02812 42.98125 177.85625 41.98125Q178.7 40.98125 178.7 38.996876Q178.7 36.965626 177.8875 36.0125Q177.09062 35.04375 175.95 35.04375Q174.79375 35.04375 173.95 36.04375Q173.12187 37.04375 173.12187 38.934376ZM189.30937 44.2L189.30937 42.66875Q188.10625 44.434376 186.02812 44.434376Q185.10625 44.434376 184.30937 44.090626Q183.5125 43.73125 183.12187 43.2Q182.74687 42.66875 182.59062 41.8875Q182.48125 41.371876 182.48125 40.246876L182.48125 33.825L184.23125 33.825L184.23125 39.575Q184.23125 40.95 184.34062 41.434376Q184.5125 42.121876 185.04375 42.528126Q185.59062 42.91875 186.37187 42.91875Q187.16875 42.91875 187.85625 42.5125Q188.55937 42.10625 188.84062 41.41875Q189.1375 40.715626 189.1375 39.3875L189.1375 33.825L190.8875 33.825L190.8875 44.2L189.30937 44.2ZM193.52812 31.903126L193.52812 29.8875L195.29375 29.8875L195.29375 31.903126L193.52812 31.903126ZM193.52812 44.2L193.52812 33.825L195.29375 33.825L195.29375 44.2L193.52812 44.2ZM197.48125 44.2L197.48125 29.8875L199.23125 29.8875L199.23125 44.2L197.48125 44.2ZM208.24687 44.2L208.24687 42.8875Q207.2625 44.434376 205.34062 44.434376Q204.10625 44.434376 203.05937 43.746876Q202.02812 43.059376 201.45 41.840626Q200.8875 40.621876 200.8875 39.028126Q200.8875 37.465626 201.40312 36.2Q201.91875 34.934376 202.95 34.2625Q203.99687 33.590626 205.2625 33.590626Q206.2 33.590626 206.93437 33.996876Q207.66875 34.3875 208.1375 35.0125L208.1375 29.8875L209.87187 29.8875L209.87187 44.2L208.24687 44.2ZM202.68437 39.028126Q202.68437 41.0125 203.52812 41.996876Q204.37187 42.98125 205.5125 42.98125Q206.66875 42.98125 207.46562 42.04375Q208.27812 41.10625 208.27812 39.16875Q208.27812 37.04375 207.45 36.04375Q206.6375 35.04375 205.43437 35.04375Q204.2625 35.04375 203.46562 36.0125Q202.68437 36.965626 202.68437 39.028126ZM218.52812 31.903126L218.52812 29.8875L220.29375 29.8875L220.29375 31.903126L218.52812 31.903126ZM218.52812 44.2L218.52812 33.825L220.29375 33.825L220.29375 44.2L218.52812 44.2ZM222.5125 44.2L222.5125 33.825L224.10625 33.825L224.10625 35.309376Q225.24687 33.590626 227.40312 33.590626Q228.34062 33.590626 229.12187 33.934376Q229.91875 34.2625 230.30937 34.809376Q230.7 35.35625 230.85625 36.10625Q230.95 36.60625 230.95 37.825L230.95 44.2L229.18437 44.2L229.18437 37.8875Q229.18437 36.809376 228.98125 36.278126Q228.77812 35.746876 228.24687 35.434376Q227.73125 35.121876 227.02812 35.121876Q225.90312 35.121876 225.09062 35.840626Q224.27812 36.54375 224.27812 38.528126L224.27812 44.2L222.5125 44.2ZM238.80937 41.10625L240.55937 40.825Q240.7 41.871876 241.37187 42.434376Q242.04375 42.98125 243.24687 42.98125Q244.45 42.98125 245.02812 42.496876Q245.62187 41.996876 245.62187 41.340626Q245.62187 40.746876 245.10625 40.403126Q244.74687 40.16875 243.30937 39.809376Q241.37187 39.309376 240.62187 38.965626Q239.8875 38.60625 239.49687 37.98125Q239.10625 37.340626 239.10625 36.575Q239.10625 35.8875 239.41875 35.29375Q239.74687 34.7 240.29375 34.309376Q240.7 34.0125 241.40312 33.809376Q242.12187 33.590626 242.93437 33.590626Q244.15312 33.590626 245.075 33.95Q245.99687 34.29375 246.43437 34.903126Q246.87187 35.496876 247.04375 36.496876L245.325 36.73125Q245.2 35.934376 244.6375 35.496876Q244.075 35.04375 243.05937 35.04375Q241.84062 35.04375 241.325 35.45Q240.80937 35.840626 240.80937 36.371876Q240.80937 36.715626 241.02812 36.996876Q241.23125 37.278126 241.7 37.465626Q241.96562 37.559376 243.24687 37.903126Q245.12187 38.403126 245.85625 38.73125Q246.59062 39.04375 247.0125 39.653126Q247.43437 40.246876 247.43437 41.153126Q247.43437 42.028126 246.91875 42.809376Q246.40312 43.590626 245.43437 44.0125Q244.46562 44.434376 243.24687 44.434376Q241.23125 44.434376 240.16875 43.590626Q239.10625 42.746876 238.80937 41.10625ZM256.6219 40.85625L258.4344 41.090626Q258.0125 42.66875 256.84064 43.559376Q255.68437 44.434376 253.87187 44.434376Q251.60625 44.434376 250.2625 43.04375Q248.93437 41.6375 248.93437 39.10625Q248.93437 36.48125 250.27812 35.04375Q251.62187 33.590626 253.77812 33.590626Q255.85625 33.590626 257.16876 35.0125Q258.4969 36.41875 258.4969 38.996876Q258.4969 39.153126 258.48126 39.465626L250.74687 39.465626Q250.84062 41.16875 251.71562 42.075Q252.59062 42.98125 253.8875 42.98125Q254.85625 42.98125 255.52812 42.48125Q256.21564 41.965626 256.6219 40.85625ZM250.84062 38.0125L256.6375 38.0125Q256.52814 36.715626 255.98125 36.059376Q255.1375 35.04375 253.79375 35.04375Q252.59062 35.04375 251.7625 35.85625Q250.93437 36.653126 250.84062 38.0125ZM267.29376 40.403126L269.0125 40.621876Q268.73126 42.41875 267.5594 43.434376Q266.40314 44.434376 264.7 44.434376Q262.575 44.434376 261.27814 43.04375Q259.98126 41.653126 259.98126 39.059376Q259.98126 37.371876 260.52814 36.121876Q261.09064 34.85625 262.23126 34.23125Q263.3719 33.590626 264.71564 33.590626Q266.40314 33.590626 267.46564 34.45Q268.54376 35.309376 268.85626 36.871876L267.1375 37.1375Q266.90314 36.090626 266.27814 35.575Q265.65314 35.04375 264.77814 35.04375Q263.45 35.04375 262.6219 35.996876Q261.79376 36.95 261.79376 38.996876Q261.79376 41.090626 262.59064 42.04375Q263.3875 42.98125 264.6844 42.98125Q265.71564 42.98125 266.40314 42.35625Q267.10626 41.715626 267.29376 40.403126ZM269.8719 39.0125Q269.8719 36.1375 271.46564 34.746876Q272.8094 33.590626 274.73126 33.590626Q276.8719 33.590626 278.21564 34.996876Q279.575 36.403126 279.575 38.871876Q279.575 40.871876 278.98126 42.028126Q278.3875 43.16875 277.23126 43.809376Q276.09064 44.434376 274.73126 44.434376Q272.54376 44.434376 271.2 43.04375Q269.8719 41.6375 269.8719 39.0125ZM271.66876 39.0125Q271.66876 41.0125 272.52814 41.996876Q273.40314 42.98125 274.73126 42.98125Q276.04376 42.98125 276.90314 41.996876Q277.77814 40.996876 277.77814 38.95Q277.77814 37.028126 276.90314 36.04375Q276.02814 35.04375 274.73126 35.04375Q273.40314 35.04375 272.52814 36.04375Q271.66876 37.028126 271.66876 39.0125ZM281.5125 44.2L281.5125 33.825L283.10626 33.825L283.10626 35.309376Q284.2469 33.590626 286.40314 33.590626Q287.34064 33.590626 288.1219 33.934376Q288.91876 34.2625 289.3094 34.809376Q289.7 35.35625 289.85626 36.10625Q289.95 36.60625 289.95 37.825L289.95 44.2L288.1844 44.2L288.1844 37.8875Q288.1844 36.809376 287.98126 36.278126Q287.77814 35.746876 287.2469 35.434376Q286.73126 35.121876 286.02814 35.121876Q284.90314 35.121876 284.09064 35.840626Q283.27814 36.54375 283.27814 38.528126L283.27814 44.2L281.5125 44.2ZM299.2469 44.2L299.2469 42.8875Q298.2625 44.434376 296.34064 44.434376Q295.10626 44.434376 294.0594 43.746876Q293.02814 43.059376 292.45 41.840626Q291.8875 40.621876 291.8875 39.028126Q291.8875 37.465626 292.40314 36.2Q292.91876 34.934376 293.95 34.2625Q294.9969 33.590626 296.2625 33.590626Q297.2 33.590626 297.9344 33.996876Q298.66876 34.3875 299.1375 35.0125L299.1375 29.8875L300.8719 29.8875L300.8719 44.2L299.2469 44.2ZM293.6844 39.028126Q293.6844 41.0125 294.52814 41.996876Q295.3719 42.98125 296.5125 42.98125Q297.66876 42.98125 298.46564 42.04375Q299.27814 41.10625 299.27814 39.16875Q299.27814 37.04375 298.45 36.04375Q297.6375 35.04375 296.4344 35.04375Q295.2625 35.04375 294.46564 36.0125Q293.6844 36.965626 293.6844 39.028126ZM302.8094 41.10625L304.5594 40.825Q304.7 41.871876 305.3719 42.434376Q306.04376 42.98125 307.2469 42.98125Q308.45 42.98125 309.02814 42.496876Q309.6219 41.996876 309.6219 41.340626Q309.6219 40.746876 309.10626 40.403126Q308.7469 40.16875 307.3094 39.809376Q305.3719 39.309376 304.6219 38.965626Q303.8875 38.60625 303.4969 37.98125Q303.10626 37.340626 303.10626 36.575Q303.10626 35.8875 303.41876 35.29375Q303.7469 34.7 304.29376 34.309376Q304.7 34.0125 305.40314 33.809376Q306.1219 33.590626 306.9344 33.590626Q308.15314 33.590626 309.075 33.95Q309.9969 34.29375 310.4344 34.903126Q310.8719 35.496876 311.04376 36.496876L309.325 36.73125Q309.2 35.934376 308.6375 35.496876Q308.075 35.04375 307.0594 35.04375Q305.84064 35.04375 305.325 35.45Q304.8094 35.840626 304.8094 36.371876Q304.8094 36.715626 305.02814 36.996876Q305.23126 37.278126 305.7 37.465626Q305.96564 37.559376 307.2469 37.903126Q309.1219 38.403126 309.85626 38.73125Q310.59064 39.04375 311.0125 39.653126Q311.4344 40.246876 311.4344 41.153126Q311.4344 42.028126 310.91876 42.809376Q310.40314 43.590626 309.4344 44.0125Q308.46564 44.434376 307.2469 44.434376Q305.23126 44.434376 304.16876 43.590626Q303.10626 42.746876 302.8094 41.10625Z" fill-rule="nonzero"/></svg>