<?xml version="1.0" encoding="utf-8"?>
<!-- Generator: Adobe Illustrator 15.0.2, SVG Export Plug-In . SVG Version: 6.00 Build 0)  -->
<!DOCTYPE svg PUBLIC "-//W3C//DTD SVG 1.0//EN" "http://www.w3.org/TR/2001/REC-SVG-20010904/DTD/svg10.dtd">
<svg version="1.0"
	 id="svg2" xmlns:cc="http://creativecommons.org/ns#" xmlns:rdf="http://www.w3.org/1999/02/22-rdf-syntax-ns#" xmlns:sodipodi="http://sodipodi.sourceforge.net/DTD/sodipodi-0.dtd" xmlns:inkscape="http://www.inkscape.org/namespaces/inkscape" xmlns:svg="http://www.w3.org/2000/svg" xmlns:dc="http://purl.org/dc/elements/1.1/" inkscape:version="0.48.2 r9819" sodipodi:docname="iTunes Store.svg"
	 xmlns="http://www.w3.org/2000/svg" xmlns:xlink="http://www.w3.org/1999/xlink" x="0px" y="0px" width="32px" height="32px"
	 viewBox="285 285 32 32" enable-background="new 285 285 32 32" xml:space="preserve">
<defs>
	
	<inkscape:path-effect  id="path-effect3009" is_visible="true" effect="spiro"></inkscape:path-effect>
</defs>
<sodipodi:namedview  id="base" inkscape:window-width="1366" inkscape:window-height="706" inkscape:window-x="-8" inkscape:window-y="-8" inkscape:cy="203.94164" showgrid="false" inkscape:zoom="0.52906977" borderopacity="1.0" inkscape:cx="319.18373" bordercolor="#666666" pagecolor="#ffffff" inkscape:window-maximized="1" inkscape:pageshadow="2" inkscape:document-units="px" inkscape:current-layer="layer1" inkscape:pageopacity="0.0">
	</sodipodi:namedview>
<rect x="285" y="285" fill="#FFFFFF" width="32" height="32"/>
<g>
	
		<linearGradient id="path16_1_" gradientUnits="userSpaceOnUse" x1="722.9456" y1="-319.8853" x2="719.9518" y2="-314.0097" gradientTransform="matrix(1 0 0 -1 -414.2949 -16.4404)">
		<stop  offset="0" style="stop-color:#FCD08F"/>
		<stop  offset="1" style="stop-color:#F79673"/>
	</linearGradient>
	<path id="path16" inkscape:connector-curvature="0" fill="url(#path16_1_)" d="M306.269,304.658
		c2.804-1.535,4.945-2.708,5.141-2.814c0.581-0.317,1.189-1.129,0-1.778c-0.383-0.209-2.467-1.345-5.145-2.806l-3.683,3.711
		L306.269,304.658L306.269,304.658z"/>
	
		<linearGradient id="path23_1_" gradientUnits="userSpaceOnUse" x1="718.593" y1="-319.0103" x2="707.1942" y2="-331.234" gradientTransform="matrix(1 0 0 -1 -414.2949 -16.4404)">
		<stop  offset="0" style="stop-color:#E74047"/>
		<stop  offset="1" style="stop-color:#7F50A0"/>
	</linearGradient>
	<path id="path23" inkscape:connector-curvature="0" fill="url(#path23_1_)" d="M302.582,300.97l-11.779,11.869
		c0.266,0.034,0.586-0.037,0.954-0.238c0.762-0.417,8.943-4.895,14.511-7.942L302.582,300.97L302.582,300.97z"/>
	
		<linearGradient id="path30_1_" gradientUnits="userSpaceOnUse" x1="718.6536" y1="-315.6953" x2="707.0743" y2="-303.7046" gradientTransform="matrix(1 0 0 -1 -414.2949 -16.4404)">
		<stop  offset="0" style="stop-color:#E6FFAB"/>
		<stop  offset="1" style="stop-color:#47BEBC"/>
	</linearGradient>
	<path id="path30" inkscape:connector-curvature="0" fill="url(#path30_1_)" d="M302.582,300.97l3.683-3.711
		c0,0-13.688-7.468-14.507-7.915c-0.315-0.172-0.658-0.232-0.962-0.165L302.582,300.97z"/>
	
		<linearGradient id="path37_1_" gradientUnits="userSpaceOnUse" x1="710.5413" y1="-329.2793" x2="710.5413" y2="-305.6211" gradientTransform="matrix(1 0 0 -1 -414.2949 -16.4404)">
		<stop  offset="0" style="stop-color:#84E9DB"/>
		<stop  offset="1" style="stop-color:#197491"/>
	</linearGradient>
	<path id="path37" inkscape:connector-curvature="0" fill="url(#path37_1_)" d="M302.582,300.97l-11.787-11.79
		c-0.487,0.109-0.886,0.53-0.886,1.377c0,1.376,0,19.712,0,20.866c0,0.798,0.314,1.359,0.895,1.415L302.582,300.97z"/>
</g>
</svg>
