<?xml version="1.0" encoding="UTF-8" standalone="no"?>
<!DOCTYPE svg PUBLIC "-//W3C//DTD SVG 1.1//EN" "http://www.w3.org/Graphics/SVG/1.1/DTD/svg11.dtd">
<svg width="100%" height="100%" viewBox="0 0 788 504" version="1.1" xmlns="http://www.w3.org/2000/svg" xmlns:xlink="http://www.w3.org/1999/xlink" xml:space="preserve" xmlns:serif="http://www.serif.com/" style="fill-rule:evenodd;clip-rule:evenodd;stroke-miterlimit:10;">
    <rect x="0" y="0" width="788" height="504" style="fill:rgb(18,18,18);fill-rule:nonzero;"/>
    <path d="M52.5,471.5L762.5,471.5" style="fill:none;fill-rule:nonzero;stroke:rgb(51,51,51);stroke-width:1px;"/>
    <path d="M52.5,400.5L762.5,400.5" style="fill:none;fill-rule:nonzero;stroke:rgb(204,204,204);stroke-width:1px;"/>
    <path d="M52.5,328.5L762.5,328.5" style="fill:none;fill-rule:nonzero;stroke:rgb(204,204,204);stroke-width:1px;"/>
    <path d="M52.5,257.5L762.5,257.5" style="fill:none;fill-rule:nonzero;stroke:rgb(204,204,204);stroke-width:1px;"/>
    <path d="M52.5,185.5L762.5,185.5" style="fill:none;fill-rule:nonzero;stroke:rgb(204,204,204);stroke-width:1px;"/>
    <path d="M52.5,113.5L762.5,113.5" style="fill:none;fill-rule:nonzero;stroke:rgb(204,204,204);stroke-width:1px;"/>
    <clipPath id="_clip1">
        <rect x="52.2" y="113.8" width="710.6" height="358"/>
    </clipPath>
    <g clip-path="url(#_clip1)">
        <path d="M407,472L237,472L237,205C237,203.895 237.895,203 239,203L405,203C406.105,203 407,203.895 407,205L407,472Z" style="fill:none;fill-rule:nonzero;"/>
    </g>
    <clipPath id="_clip2">
        <rect x="52.2" y="113.8" width="710.6" height="358"/>
    </clipPath>
    <g clip-path="url(#_clip2)">
        <path d="M407,472L237,472L237,205C237,203.895 237.895,203 239,203L405,203C406.105,203 407,203.895 407,205L407,472Z" style="fill:rgb(66,133,244);fill-rule:nonzero;"/>
    </g>
    <clipPath id="_clip3">
        <rect x="52.2" y="113.8" width="710.6" height="358"/>
    </clipPath>
    <g clip-path="url(#_clip3)">
        <path d="M578,472L408,472L408,152C408,150.895 408.895,150 410,150L576,150C577.105,150 578,150.895 578,152L578,472Z" style="fill:none;fill-rule:nonzero;"/>
    </g>
    <clipPath id="_clip4">
        <rect x="52.2" y="113.8" width="710.6" height="358"/>
    </clipPath>
    <g clip-path="url(#_clip4)">
        <path d="M578,472L408,472L408,152C408,150.895 408.895,150 410,150L576,150C577.105,150 578,150.895 578,152L578,472Z" style="fill:rgb(234,67,53);fill-rule:nonzero;"/>
    </g>
    <path d="M305.781,214.558L306.594,214.558C307.115,214.548 307.521,214.413 307.813,214.152C308.104,213.892 308.25,213.538 308.25,213.09C308.25,212.09 307.75,211.59 306.75,211.59C306.281,211.59 305.906,211.725 305.625,211.996C305.354,212.267 305.219,212.621 305.219,213.058L304.125,213.058C304.125,212.381 304.37,211.819 304.859,211.371C305.359,210.923 305.99,210.699 306.75,210.699C307.552,210.699 308.182,210.913 308.641,211.34C309.099,211.767 309.328,212.361 309.328,213.121C309.328,213.496 309.208,213.855 308.969,214.199C308.729,214.543 308.401,214.803 307.984,214.98C308.453,215.126 308.813,215.371 309.063,215.715C309.323,216.058 309.453,216.48 309.453,216.98C309.453,217.741 309.203,218.35 308.703,218.808C308.203,219.256 307.552,219.48 306.75,219.48C305.958,219.48 305.307,219.262 304.797,218.824C304.297,218.387 304.047,217.814 304.047,217.105L305.141,217.105C305.141,217.553 305.286,217.913 305.578,218.183C305.87,218.454 306.266,218.59 306.766,218.59C307.286,218.59 307.682,218.454 307.953,218.183C308.234,217.902 308.375,217.506 308.375,216.996C308.375,216.506 308.224,216.131 307.922,215.871C307.62,215.6 307.177,215.46 306.594,215.449L305.781,215.449L305.781,214.558ZM316.719,211.433L313.188,219.355L312.047,219.355L315.563,211.715L310.953,211.715L310.953,210.824L316.719,210.824L316.719,211.433ZM318.344,218.793C318.344,218.605 318.396,218.449 318.5,218.324C318.615,218.199 318.781,218.137 319,218.137C319.229,218.137 319.401,218.199 319.516,218.324C319.63,218.449 319.688,218.605 319.688,218.793C319.688,218.97 319.63,219.121 319.516,219.246C319.401,219.361 319.229,219.418 319,219.418C318.781,219.418 318.615,219.361 318.5,219.246C318.396,219.121 318.344,218.97 318.344,218.793ZM325.469,210.824L325.469,211.73L325.266,211.73C324.422,211.751 323.75,212.006 323.25,212.496C322.75,212.975 322.458,213.652 322.375,214.527C322.833,214.017 323.448,213.762 324.219,213.762C324.958,213.762 325.552,214.022 326,214.543C326.448,215.064 326.672,215.741 326.672,216.574C326.672,217.449 326.432,218.152 325.953,218.683C325.474,219.215 324.828,219.48 324.016,219.48C323.203,219.48 322.542,219.168 322.031,218.543C321.531,217.907 321.281,217.095 321.281,216.105L321.281,215.699C321.281,214.126 321.615,212.923 322.281,212.09C322.948,211.256 323.943,210.835 325.266,210.824L325.469,210.824ZM324.047,214.668C323.672,214.668 323.328,214.777 323.016,214.996C322.703,215.215 322.484,215.496 322.359,215.84L322.359,216.23C322.359,216.939 322.516,217.506 322.828,217.933C323.151,218.361 323.547,218.574 324.016,218.574C324.505,218.574 324.891,218.397 325.172,218.043C325.453,217.678 325.594,217.204 325.594,216.621C325.594,216.038 325.453,215.569 325.172,215.215C324.891,214.85 324.516,214.668 324.047,214.668ZM333.563,215.715C333.563,216.986 333.344,217.933 332.906,218.558C332.479,219.173 331.802,219.48 330.875,219.48C329.969,219.48 329.297,219.178 328.859,218.574C328.422,217.97 328.193,217.064 328.172,215.855L328.172,214.418C328.172,213.157 328.385,212.225 328.813,211.621C329.25,211.006 329.932,210.699 330.859,210.699C331.776,210.699 332.453,210.996 332.891,211.59C333.328,212.173 333.552,213.079 333.563,214.308L333.563,215.715ZM332.469,214.23C332.469,213.314 332.339,212.647 332.078,212.23C331.828,211.803 331.422,211.59 330.859,211.59C330.307,211.59 329.901,211.803 329.641,212.23C329.391,212.647 329.266,213.288 329.266,214.152L329.266,215.887C329.266,216.803 329.396,217.486 329.656,217.933C329.927,218.371 330.333,218.59 330.875,218.59C331.406,218.59 331.802,218.381 332.063,217.965C332.323,217.548 332.458,216.897 332.469,216.012L332.469,214.23ZM339.781,216.496L340.969,216.496L340.969,217.371L339.781,217.371L339.781,219.355L338.703,219.355L338.703,217.371L334.813,217.371L334.813,216.73L338.625,210.824L339.781,210.824L339.781,216.496ZM336.047,216.496L338.703,216.496L338.703,212.308L338.563,212.543L336.047,216.496Z" style="fill:none;fill-rule:nonzero;stroke:rgb(66,133,244);stroke-width:3px;stroke-linecap:round;stroke-linejoin:round;"/>
    <path d="M305.781,214.558L306.594,214.558C307.115,214.548 307.521,214.413 307.813,214.152C308.104,213.892 308.25,213.538 308.25,213.09C308.25,212.09 307.75,211.59 306.75,211.59C306.281,211.59 305.906,211.725 305.625,211.996C305.354,212.267 305.219,212.621 305.219,213.058L304.125,213.058C304.125,212.381 304.37,211.819 304.859,211.371C305.359,210.923 305.99,210.699 306.75,210.699C307.552,210.699 308.182,210.913 308.641,211.34C309.099,211.767 309.328,212.361 309.328,213.121C309.328,213.496 309.208,213.855 308.969,214.199C308.729,214.543 308.401,214.803 307.984,214.98C308.453,215.126 308.813,215.371 309.063,215.715C309.323,216.058 309.453,216.48 309.453,216.98C309.453,217.741 309.203,218.35 308.703,218.808C308.203,219.256 307.552,219.48 306.75,219.48C305.958,219.48 305.307,219.262 304.797,218.824C304.297,218.387 304.047,217.814 304.047,217.105L305.141,217.105C305.141,217.553 305.286,217.913 305.578,218.183C305.87,218.454 306.266,218.59 306.766,218.59C307.286,218.59 307.682,218.454 307.953,218.183C308.234,217.902 308.375,217.506 308.375,216.996C308.375,216.506 308.224,216.131 307.922,215.871C307.62,215.6 307.177,215.46 306.594,215.449L305.781,215.449L305.781,214.558ZM316.719,211.433L313.188,219.355L312.047,219.355L315.563,211.715L310.953,211.715L310.953,210.824L316.719,210.824L316.719,211.433ZM318.344,218.793C318.344,218.605 318.396,218.449 318.5,218.324C318.615,218.199 318.781,218.137 319,218.137C319.229,218.137 319.401,218.199 319.516,218.324C319.63,218.449 319.688,218.605 319.688,218.793C319.688,218.97 319.63,219.121 319.516,219.246C319.401,219.361 319.229,219.418 319,219.418C318.781,219.418 318.615,219.361 318.5,219.246C318.396,219.121 318.344,218.97 318.344,218.793ZM325.469,210.824L325.469,211.73L325.266,211.73C324.422,211.751 323.75,212.006 323.25,212.496C322.75,212.975 322.458,213.652 322.375,214.527C322.833,214.017 323.448,213.762 324.219,213.762C324.958,213.762 325.552,214.022 326,214.543C326.448,215.064 326.672,215.741 326.672,216.574C326.672,217.449 326.432,218.152 325.953,218.683C325.474,219.215 324.828,219.48 324.016,219.48C323.203,219.48 322.542,219.168 322.031,218.543C321.531,217.907 321.281,217.095 321.281,216.105L321.281,215.699C321.281,214.126 321.615,212.923 322.281,212.09C322.948,211.256 323.943,210.835 325.266,210.824L325.469,210.824ZM324.047,214.668C323.672,214.668 323.328,214.777 323.016,214.996C322.703,215.215 322.484,215.496 322.359,215.84L322.359,216.23C322.359,216.939 322.516,217.506 322.828,217.933C323.151,218.361 323.547,218.574 324.016,218.574C324.505,218.574 324.891,218.397 325.172,218.043C325.453,217.678 325.594,217.204 325.594,216.621C325.594,216.038 325.453,215.569 325.172,215.215C324.891,214.85 324.516,214.668 324.047,214.668ZM333.563,215.715C333.563,216.986 333.344,217.933 332.906,218.558C332.479,219.173 331.802,219.48 330.875,219.48C329.969,219.48 329.297,219.178 328.859,218.574C328.422,217.97 328.193,217.064 328.172,215.855L328.172,214.418C328.172,213.157 328.385,212.225 328.813,211.621C329.25,211.006 329.932,210.699 330.859,210.699C331.776,210.699 332.453,210.996 332.891,211.59C333.328,212.173 333.552,213.079 333.563,214.308L333.563,215.715ZM332.469,214.23C332.469,213.314 332.339,212.647 332.078,212.23C331.828,211.803 331.422,211.59 330.859,211.59C330.307,211.59 329.901,211.803 329.641,212.23C329.391,212.647 329.266,213.288 329.266,214.152L329.266,215.887C329.266,216.803 329.396,217.486 329.656,217.933C329.927,218.371 330.333,218.59 330.875,218.59C331.406,218.59 331.802,218.381 332.063,217.965C332.323,217.548 332.458,216.897 332.469,216.012L332.469,214.23ZM339.781,216.496L340.969,216.496L340.969,217.371L339.781,217.371L339.781,219.355L338.703,219.355L338.703,217.371L334.813,217.371L334.813,216.73L338.625,210.824L339.781,210.824L339.781,216.496ZM336.047,216.496L338.703,216.496L338.703,212.308L338.563,212.543L336.047,216.496Z" style="fill:white;fill-rule:nonzero;"/>
    <path d="M479.781,164.386L480.969,164.386L480.969,165.261L479.781,165.261L479.781,167.245L478.703,167.245L478.703,165.261L474.813,165.261L474.813,164.62L478.625,158.714L479.781,158.714L479.781,164.386ZM476.047,164.386L478.703,164.386L478.703,160.198L478.563,160.432L476.047,164.386ZM486.781,164.386L487.969,164.386L487.969,165.261L486.781,165.261L486.781,167.245L485.703,167.245L485.703,165.261L481.813,165.261L481.813,164.62L485.625,158.714L486.781,158.714L486.781,164.386ZM483.047,164.386L485.703,164.386L485.703,160.198L485.563,160.432L483.047,164.386ZM489.344,166.682C489.344,166.495 489.396,166.339 489.5,166.214C489.615,166.089 489.781,166.026 490,166.026C490.229,166.026 490.401,166.089 490.516,166.214C490.63,166.339 490.688,166.495 490.688,166.682C490.688,166.859 490.63,167.011 490.516,167.136C490.401,167.25 490.229,167.307 490,167.307C489.781,167.307 489.615,167.25 489.5,167.136C489.396,167.011 489.344,166.859 489.344,166.682ZM497.391,160.932C497.391,161.359 497.276,161.74 497.047,162.073C496.818,162.406 496.516,162.667 496.141,162.854C496.578,163.042 496.927,163.323 497.188,163.698C497.448,164.063 497.578,164.479 497.578,164.948C497.578,165.677 497.328,166.266 496.828,166.714C496.339,167.151 495.688,167.37 494.875,167.37C494.052,167.37 493.391,167.151 492.891,166.714C492.401,166.266 492.156,165.677 492.156,164.948C492.156,164.479 492.281,164.063 492.531,163.698C492.781,163.323 493.13,163.042 493.578,162.854C493.203,162.667 492.906,162.406 492.688,162.073C492.469,161.74 492.359,161.359 492.359,160.932C492.359,160.214 492.589,159.646 493.047,159.229C493.505,158.802 494.115,158.589 494.875,158.589C495.625,158.589 496.229,158.802 496.688,159.229C497.156,159.646 497.391,160.214 497.391,160.932ZM496.5,164.917C496.5,164.438 496.349,164.052 496.047,163.761C495.745,163.458 495.349,163.307 494.859,163.307C494.37,163.307 493.974,163.458 493.672,163.761C493.38,164.052 493.234,164.443 493.234,164.932C493.234,165.412 493.38,165.792 493.672,166.073C493.964,166.344 494.365,166.479 494.875,166.479C495.375,166.479 495.771,166.339 496.063,166.057C496.354,165.776 496.5,165.396 496.5,164.917ZM494.875,159.479C494.448,159.479 494.099,159.615 493.828,159.886C493.568,160.146 493.438,160.505 493.438,160.964C493.438,161.391 493.568,161.74 493.828,162.011C494.089,162.281 494.432,162.417 494.859,162.417C495.297,162.417 495.646,162.281 495.906,162.011C496.167,161.74 496.297,161.391 496.297,160.964C496.297,160.526 496.161,160.172 495.891,159.901C495.62,159.62 495.281,159.479 494.875,159.479ZM504.391,160.932C504.391,161.359 504.276,161.74 504.047,162.073C503.818,162.406 503.516,162.667 503.141,162.854C503.578,163.042 503.927,163.323 504.188,163.698C504.448,164.063 504.578,164.479 504.578,164.948C504.578,165.677 504.328,166.266 503.828,166.714C503.339,167.151 502.688,167.37 501.875,167.37C501.052,167.37 500.391,167.151 499.891,166.714C499.401,166.266 499.156,165.677 499.156,164.948C499.156,164.479 499.281,164.063 499.531,163.698C499.781,163.323 500.13,163.042 500.578,162.854C500.203,162.667 499.906,162.406 499.688,162.073C499.469,161.74 499.359,161.359 499.359,160.932C499.359,160.214 499.589,159.646 500.047,159.229C500.505,158.802 501.115,158.589 501.875,158.589C502.625,158.589 503.229,158.802 503.688,159.229C504.156,159.646 504.391,160.214 504.391,160.932ZM503.5,164.917C503.5,164.438 503.349,164.052 503.047,163.761C502.745,163.458 502.349,163.307 501.859,163.307C501.37,163.307 500.974,163.458 500.672,163.761C500.38,164.052 500.234,164.443 500.234,164.932C500.234,165.412 500.38,165.792 500.672,166.073C500.964,166.344 501.365,166.479 501.875,166.479C502.375,166.479 502.771,166.339 503.063,166.057C503.354,165.776 503.5,165.396 503.5,164.917ZM501.875,159.479C501.448,159.479 501.099,159.615 500.828,159.886C500.568,160.146 500.438,160.505 500.438,160.964C500.438,161.391 500.568,161.74 500.828,162.011C501.089,162.281 501.432,162.417 501.859,162.417C502.297,162.417 502.646,162.281 502.906,162.011C503.167,161.74 503.297,161.391 503.297,160.964C503.297,160.526 503.161,160.172 502.891,159.901C502.62,159.62 502.281,159.479 501.875,159.479ZM511.797,167.245L506.203,167.245L506.203,166.464L509.156,163.182C509.594,162.682 509.896,162.281 510.063,161.979C510.229,161.667 510.313,161.344 510.313,161.011C510.313,160.563 510.177,160.198 509.906,159.917C509.646,159.625 509.286,159.479 508.828,159.479C508.297,159.479 507.88,159.636 507.578,159.948C507.276,160.25 507.125,160.677 507.125,161.229L506.047,161.229C506.047,160.438 506.297,159.802 506.797,159.323C507.307,158.833 507.984,158.589 508.828,158.589C509.63,158.589 510.26,158.797 510.719,159.214C511.177,159.63 511.406,160.188 511.406,160.886C511.406,161.719 510.87,162.719 509.797,163.886L507.516,166.354L511.797,166.354L511.797,167.245Z" style="fill:none;fill-rule:nonzero;stroke:rgb(234,67,53);stroke-width:3px;stroke-linecap:round;stroke-linejoin:round;"/>
    <path d="M479.781,164.386L480.969,164.386L480.969,165.261L479.781,165.261L479.781,167.245L478.703,167.245L478.703,165.261L474.813,165.261L474.813,164.62L478.625,158.714L479.781,158.714L479.781,164.386ZM476.047,164.386L478.703,164.386L478.703,160.198L478.563,160.432L476.047,164.386ZM486.781,164.386L487.969,164.386L487.969,165.261L486.781,165.261L486.781,167.245L485.703,167.245L485.703,165.261L481.813,165.261L481.813,164.62L485.625,158.714L486.781,158.714L486.781,164.386ZM483.047,164.386L485.703,164.386L485.703,160.198L485.563,160.432L483.047,164.386ZM489.344,166.682C489.344,166.495 489.396,166.339 489.5,166.214C489.615,166.089 489.781,166.026 490,166.026C490.229,166.026 490.401,166.089 490.516,166.214C490.63,166.339 490.688,166.495 490.688,166.682C490.688,166.859 490.63,167.011 490.516,167.136C490.401,167.25 490.229,167.307 490,167.307C489.781,167.307 489.615,167.25 489.5,167.136C489.396,167.011 489.344,166.859 489.344,166.682ZM497.391,160.932C497.391,161.359 497.276,161.74 497.047,162.073C496.818,162.406 496.516,162.667 496.141,162.854C496.578,163.042 496.927,163.323 497.188,163.698C497.448,164.063 497.578,164.479 497.578,164.948C497.578,165.677 497.328,166.266 496.828,166.714C496.339,167.151 495.688,167.37 494.875,167.37C494.052,167.37 493.391,167.151 492.891,166.714C492.401,166.266 492.156,165.677 492.156,164.948C492.156,164.479 492.281,164.063 492.531,163.698C492.781,163.323 493.13,163.042 493.578,162.854C493.203,162.667 492.906,162.406 492.688,162.073C492.469,161.74 492.359,161.359 492.359,160.932C492.359,160.214 492.589,159.646 493.047,159.229C493.505,158.802 494.115,158.589 494.875,158.589C495.625,158.589 496.229,158.802 496.688,159.229C497.156,159.646 497.391,160.214 497.391,160.932ZM496.5,164.917C496.5,164.438 496.349,164.052 496.047,163.761C495.745,163.458 495.349,163.307 494.859,163.307C494.37,163.307 493.974,163.458 493.672,163.761C493.38,164.052 493.234,164.443 493.234,164.932C493.234,165.412 493.38,165.792 493.672,166.073C493.964,166.344 494.365,166.479 494.875,166.479C495.375,166.479 495.771,166.339 496.063,166.057C496.354,165.776 496.5,165.396 496.5,164.917ZM494.875,159.479C494.448,159.479 494.099,159.615 493.828,159.886C493.568,160.146 493.438,160.505 493.438,160.964C493.438,161.391 493.568,161.74 493.828,162.011C494.089,162.281 494.432,162.417 494.859,162.417C495.297,162.417 495.646,162.281 495.906,162.011C496.167,161.74 496.297,161.391 496.297,160.964C496.297,160.526 496.161,160.172 495.891,159.901C495.62,159.62 495.281,159.479 494.875,159.479ZM504.391,160.932C504.391,161.359 504.276,161.74 504.047,162.073C503.818,162.406 503.516,162.667 503.141,162.854C503.578,163.042 503.927,163.323 504.188,163.698C504.448,164.063 504.578,164.479 504.578,164.948C504.578,165.677 504.328,166.266 503.828,166.714C503.339,167.151 502.688,167.37 501.875,167.37C501.052,167.37 500.391,167.151 499.891,166.714C499.401,166.266 499.156,165.677 499.156,164.948C499.156,164.479 499.281,164.063 499.531,163.698C499.781,163.323 500.13,163.042 500.578,162.854C500.203,162.667 499.906,162.406 499.688,162.073C499.469,161.74 499.359,161.359 499.359,160.932C499.359,160.214 499.589,159.646 500.047,159.229C500.505,158.802 501.115,158.589 501.875,158.589C502.625,158.589 503.229,158.802 503.688,159.229C504.156,159.646 504.391,160.214 504.391,160.932ZM503.5,164.917C503.5,164.438 503.349,164.052 503.047,163.761C502.745,163.458 502.349,163.307 501.859,163.307C501.37,163.307 500.974,163.458 500.672,163.761C500.38,164.052 500.234,164.443 500.234,164.932C500.234,165.412 500.38,165.792 500.672,166.073C500.964,166.344 501.365,166.479 501.875,166.479C502.375,166.479 502.771,166.339 503.063,166.057C503.354,165.776 503.5,165.396 503.5,164.917ZM501.875,159.479C501.448,159.479 501.099,159.615 500.828,159.886C500.568,160.146 500.438,160.505 500.438,160.964C500.438,161.391 500.568,161.74 500.828,162.011C501.089,162.281 501.432,162.417 501.859,162.417C502.297,162.417 502.646,162.281 502.906,162.011C503.167,161.74 503.297,161.391 503.297,160.964C503.297,160.526 503.161,160.172 502.891,159.901C502.62,159.62 502.281,159.479 501.875,159.479ZM511.797,167.245L506.203,167.245L506.203,166.464L509.156,163.182C509.594,162.682 509.896,162.281 510.063,161.979C510.229,161.667 510.313,161.344 510.313,161.011C510.313,160.563 510.177,160.198 509.906,159.917C509.646,159.625 509.286,159.479 508.828,159.479C508.297,159.479 507.88,159.636 507.578,159.948C507.276,160.25 507.125,160.677 507.125,161.229L506.047,161.229C506.047,160.438 506.297,159.802 506.797,159.323C507.307,158.833 507.984,158.589 508.828,158.589C509.63,158.589 510.26,158.797 510.719,159.214C511.177,159.63 511.406,160.188 511.406,160.886C511.406,161.719 510.87,162.719 509.797,163.886L507.516,166.354L511.797,166.354L511.797,167.245Z" style="fill:white;fill-rule:nonzero;"/>
    <path d="M39.7,471.566C39.7,470.545 39.804,469.727 40.013,469.113C40.221,468.488 40.528,468.008 40.934,467.675C41.351,467.342 41.872,467.175 42.497,467.175C42.955,467.175 43.356,467.269 43.7,467.456C44.054,467.644 44.346,467.915 44.575,468.269C44.804,468.612 44.981,469.034 45.106,469.534C45.231,470.034 45.294,470.711 45.294,471.566C45.294,472.576 45.19,473.389 44.981,474.003C44.783,474.618 44.476,475.097 44.059,475.441C43.653,475.774 43.132,475.941 42.497,475.941C41.674,475.941 41.023,475.644 40.544,475.05C39.981,474.342 39.7,473.18 39.7,471.566ZM40.778,471.566C40.778,472.972 40.945,473.909 41.278,474.378C41.611,474.847 42.018,475.081 42.497,475.081C42.986,475.081 43.393,474.847 43.716,474.378C44.049,473.909 44.216,472.972 44.216,471.566C44.216,470.149 44.049,469.211 43.716,468.753C43.393,468.284 42.981,468.05 42.481,468.05C42.002,468.05 41.617,468.253 41.325,468.659C40.96,469.18 40.778,470.149 40.778,471.566Z" style="fill:white;fill-rule:nonzero;"/>
    <path d="M36.669,404.2L35.622,404.2L35.622,397.481C35.361,397.721 35.023,397.966 34.606,398.216C34.2,398.455 33.835,398.632 33.513,398.747L33.513,397.731C34.096,397.45 34.606,397.117 35.044,396.731C35.492,396.335 35.809,395.95 35.997,395.575L36.669,395.575L36.669,404.2ZM39.7,399.966C39.7,398.945 39.804,398.127 40.013,397.513C40.221,396.888 40.528,396.408 40.934,396.075C41.351,395.742 41.872,395.575 42.497,395.575C42.955,395.575 43.356,395.669 43.7,395.856C44.054,396.044 44.346,396.315 44.575,396.669C44.804,397.013 44.981,397.434 45.106,397.934C45.231,398.434 45.294,399.111 45.294,399.966C45.294,400.976 45.19,401.789 44.981,402.403C44.783,403.018 44.476,403.497 44.059,403.841C43.653,404.174 43.132,404.341 42.497,404.341C41.674,404.341 41.023,404.044 40.544,403.45C39.981,402.742 39.7,401.58 39.7,399.966ZM40.778,399.966C40.778,401.372 40.945,402.309 41.278,402.778C41.611,403.247 42.018,403.481 42.497,403.481C42.986,403.481 43.393,403.247 43.716,402.778C44.049,402.309 44.216,401.372 44.216,399.966C44.216,398.549 44.049,397.611 43.716,397.153C43.393,396.684 42.981,396.45 42.481,396.45C42.002,396.45 41.617,396.653 41.325,397.059C40.96,397.58 40.778,398.549 40.778,399.966Z" style="fill:white;fill-rule:nonzero;"/>
    <path d="M38.247,331.584L38.247,332.6L32.559,332.6C32.559,332.35 32.601,332.105 32.684,331.866C32.83,331.48 33.059,331.1 33.372,330.725C33.695,330.35 34.158,329.918 34.763,329.428C35.7,328.657 36.33,328.048 36.653,327.6C36.986,327.152 37.153,326.73 37.153,326.334C37.153,325.918 37.002,325.569 36.7,325.288C36.398,324.996 36.007,324.85 35.528,324.85C35.018,324.85 34.611,325.001 34.309,325.303C34.007,325.605 33.851,326.027 33.841,326.569L32.763,326.459C32.835,325.647 33.111,325.032 33.591,324.616C34.08,324.189 34.736,323.975 35.559,323.975C36.382,323.975 37.033,324.204 37.513,324.663C37.992,325.121 38.231,325.689 38.231,326.366C38.231,326.709 38.158,327.048 38.013,327.381C37.877,327.704 37.643,328.053 37.309,328.428C36.986,328.793 36.45,329.293 35.7,329.928C35.065,330.459 34.653,330.824 34.466,331.022C34.289,331.209 34.143,331.397 34.028,331.584L38.247,331.584ZM39.7,328.366C39.7,327.345 39.804,326.527 40.013,325.913C40.221,325.288 40.528,324.808 40.934,324.475C41.351,324.142 41.872,323.975 42.497,323.975C42.955,323.975 43.356,324.069 43.7,324.256C44.054,324.444 44.346,324.715 44.575,325.069C44.804,325.413 44.981,325.834 45.106,326.334C45.231,326.834 45.294,327.511 45.294,328.366C45.294,329.376 45.19,330.189 44.981,330.803C44.783,331.418 44.476,331.897 44.059,332.241C43.653,332.574 43.132,332.741 42.497,332.741C41.674,332.741 41.023,332.444 40.544,331.85C39.981,331.142 39.7,329.98 39.7,328.366ZM40.778,328.366C40.778,329.772 40.945,330.709 41.278,331.178C41.611,331.647 42.018,331.881 42.497,331.881C42.986,331.881 43.393,331.647 43.716,331.178C44.049,330.709 44.216,329.772 44.216,328.366C44.216,326.949 44.049,326.011 43.716,325.553C43.393,325.084 42.981,324.85 42.481,324.85C42.002,324.85 41.617,325.053 41.325,325.459C40.96,325.98 40.778,326.949 40.778,328.366Z" style="fill:white;fill-rule:nonzero;"/>
    <path d="M32.7,258.734L33.763,258.594C33.877,259.188 34.08,259.62 34.372,259.891C34.664,260.151 35.018,260.281 35.434,260.281C35.934,260.281 36.356,260.109 36.7,259.766C37.044,259.422 37.216,258.995 37.216,258.484C37.216,258.005 37.054,257.609 36.731,257.297C36.419,256.974 36.018,256.813 35.528,256.813C35.33,256.813 35.08,256.854 34.778,256.938L34.903,256C34.976,256.01 35.033,256.016 35.075,256.016C35.523,256.016 35.924,255.901 36.278,255.672C36.643,255.432 36.825,255.068 36.825,254.578C36.825,254.193 36.695,253.875 36.434,253.625C36.174,253.365 35.835,253.234 35.419,253.234C35.013,253.234 34.669,253.365 34.388,253.625C34.117,253.885 33.945,254.271 33.872,254.781L32.809,254.594C32.934,253.896 33.226,253.354 33.684,252.969C34.143,252.573 34.71,252.375 35.388,252.375C35.856,252.375 36.289,252.479 36.684,252.688C37.08,252.885 37.382,253.156 37.591,253.5C37.799,253.844 37.903,254.214 37.903,254.609C37.903,254.974 37.804,255.313 37.606,255.625C37.408,255.927 37.117,256.167 36.731,256.344C37.231,256.458 37.622,256.703 37.903,257.078C38.184,257.443 38.325,257.906 38.325,258.469C38.325,259.219 38.049,259.854 37.497,260.375C36.955,260.896 36.268,261.156 35.434,261.156C34.684,261.156 34.059,260.932 33.559,260.484C33.059,260.026 32.773,259.443 32.7,258.734ZM39.7,256.766C39.7,255.745 39.804,254.927 40.013,254.313C40.221,253.688 40.528,253.208 40.934,252.875C41.351,252.542 41.872,252.375 42.497,252.375C42.955,252.375 43.356,252.469 43.7,252.656C44.054,252.844 44.346,253.115 44.575,253.469C44.804,253.813 44.981,254.234 45.106,254.734C45.231,255.234 45.294,255.911 45.294,256.766C45.294,257.776 45.19,258.589 44.981,259.203C44.783,259.818 44.476,260.297 44.059,260.641C43.653,260.974 43.132,261.141 42.497,261.141C41.674,261.141 41.023,260.844 40.544,260.25C39.981,259.542 39.7,258.38 39.7,256.766ZM40.778,256.766C40.778,258.172 40.945,259.109 41.278,259.578C41.611,260.047 42.018,260.281 42.497,260.281C42.986,260.281 43.393,260.047 43.716,259.578C44.049,259.109 44.216,258.172 44.216,256.766C44.216,255.349 44.049,254.411 43.716,253.953C43.393,253.484 42.981,253.25 42.481,253.25C42.002,253.25 41.617,253.453 41.325,253.859C40.96,254.38 40.778,255.349 40.778,256.766Z" style="fill:white;fill-rule:nonzero;"/>
    <path d="M36.075,189.4L36.075,187.338L32.356,187.338L32.356,186.369L36.278,180.806L37.138,180.806L37.138,186.369L38.294,186.369L38.294,187.338L37.138,187.338L37.138,189.4L36.075,189.4ZM36.075,186.369L36.075,182.509L33.388,186.369L36.075,186.369ZM39.7,185.166C39.7,184.145 39.804,183.327 40.013,182.713C40.221,182.088 40.528,181.608 40.934,181.275C41.351,180.942 41.872,180.775 42.497,180.775C42.955,180.775 43.356,180.869 43.7,181.056C44.054,181.244 44.346,181.515 44.575,181.869C44.804,182.212 44.981,182.634 45.106,183.134C45.231,183.634 45.294,184.311 45.294,185.166C45.294,186.176 45.19,186.989 44.981,187.603C44.783,188.218 44.476,188.697 44.059,189.041C43.653,189.374 43.132,189.541 42.497,189.541C41.674,189.541 41.023,189.244 40.544,188.65C39.981,187.942 39.7,186.78 39.7,185.166ZM40.778,185.166C40.778,186.572 40.945,187.509 41.278,187.978C41.611,188.447 42.018,188.681 42.497,188.681C42.986,188.681 43.393,188.447 43.716,187.978C44.049,187.509 44.216,186.572 44.216,185.166C44.216,183.749 44.049,182.811 43.716,182.353C43.393,181.884 42.981,181.65 42.481,181.65C42.002,181.65 41.617,181.853 41.325,182.259C40.96,182.78 40.778,183.749 40.778,185.166Z" style="fill:white;fill-rule:nonzero;"/>
    <path d="M32.7,115.55L33.809,115.456C33.893,115.998 34.08,116.404 34.372,116.675C34.674,116.946 35.039,117.081 35.466,117.081C35.966,117.081 36.393,116.889 36.747,116.503C37.101,116.118 37.278,115.613 37.278,114.988C37.278,114.383 37.106,113.909 36.763,113.566C36.429,113.211 35.986,113.034 35.434,113.034C35.101,113.034 34.794,113.113 34.513,113.269C34.242,113.425 34.028,113.623 33.872,113.863L32.888,113.738L33.716,109.331L37.997,109.331L37.997,110.331L34.559,110.331L34.106,112.644C34.617,112.279 35.153,112.097 35.716,112.097C36.466,112.097 37.096,112.357 37.606,112.878C38.127,113.399 38.388,114.071 38.388,114.894C38.388,115.665 38.164,116.336 37.716,116.909C37.164,117.597 36.414,117.941 35.466,117.941C34.684,117.941 34.044,117.722 33.544,117.284C33.054,116.847 32.773,116.269 32.7,115.55ZM39.7,113.566C39.7,112.545 39.804,111.727 40.013,111.113C40.221,110.488 40.528,110.008 40.934,109.675C41.351,109.342 41.872,109.175 42.497,109.175C42.955,109.175 43.356,109.269 43.7,109.456C44.054,109.644 44.346,109.915 44.575,110.269C44.804,110.613 44.981,111.034 45.106,111.534C45.231,112.034 45.294,112.711 45.294,113.566C45.294,114.576 45.19,115.389 44.981,116.003C44.783,116.618 44.476,117.097 44.059,117.441C43.653,117.774 43.132,117.941 42.497,117.941C41.674,117.941 41.023,117.644 40.544,117.05C39.981,116.342 39.7,115.18 39.7,113.566ZM40.778,113.566C40.778,114.972 40.945,115.909 41.278,116.378C41.611,116.847 42.018,117.081 42.497,117.081C42.986,117.081 43.393,116.847 43.716,116.378C44.049,115.909 44.216,114.972 44.216,113.566C44.216,112.149 44.049,111.211 43.716,110.753C43.393,110.284 42.981,110.05 42.481,110.05C42.002,110.05 41.617,110.253 41.325,110.659C40.96,111.18 40.778,112.149 40.778,113.566Z" style="fill:white;fill-rule:nonzero;"/>
    <path d="M302.5,73C302.5,72.448 302.948,72 303.5,72L313.5,72C314.052,72 314.5,72.448 314.5,73L314.5,83C314.5,83.552 314.052,84 313.5,84L303.5,84C302.948,84 302.5,83.552 302.5,83L302.5,73Z" style="fill:rgb(66,133,244);fill-rule:nonzero;"/>
    <path d="M323.969,85L323.969,70.688L325.859,70.688L325.859,83.313L332.906,83.313L332.906,85L323.969,85ZM334.828,72.703L334.828,70.688L336.594,70.688L336.594,72.703L334.828,72.703ZM334.828,85L334.828,74.625L336.594,74.625L336.594,85L334.828,85ZM338.813,85L338.813,74.625L340.406,74.625L340.406,76.109C341.167,74.964 342.266,74.391 343.703,74.391C344.328,74.391 344.901,74.505 345.422,74.734C345.953,74.953 346.349,75.245 346.609,75.609C346.87,75.974 347.052,76.406 347.156,76.906C347.219,77.24 347.25,77.813 347.25,78.625L347.25,85L345.484,85L345.484,78.688C345.484,77.969 345.417,77.432 345.281,77.078C345.146,76.724 344.901,76.443 344.547,76.234C344.203,76.026 343.797,75.922 343.328,75.922C342.578,75.922 341.932,76.161 341.391,76.641C340.849,77.109 340.578,78.005 340.578,79.328L340.578,85L338.813,85ZM356.609,85L356.609,83.469C355.807,84.646 354.714,85.234 353.328,85.234C352.714,85.234 352.141,85.12 351.609,84.891C351.078,84.651 350.682,84.354 350.422,84C350.172,83.646 349.995,83.208 349.891,82.688C349.818,82.344 349.781,81.797 349.781,81.047L349.781,74.625L351.531,74.625L351.531,80.375C351.531,81.292 351.568,81.911 351.641,82.234C351.755,82.693 351.99,83.057 352.344,83.328C352.708,83.589 353.151,83.719 353.672,83.719C354.203,83.719 354.698,83.583 355.156,83.313C355.625,83.042 355.953,82.677 356.141,82.219C356.339,81.75 356.438,81.073 356.438,80.188L356.438,74.625L358.188,74.625L358.188,85L356.609,85ZM359.641,85L363.438,79.609L359.938,74.625L362.125,74.625L363.719,77.063C364.021,77.521 364.26,77.906 364.438,78.219C364.729,77.792 364.995,77.411 365.234,77.078L366.984,74.625L369.078,74.625L365.5,79.516L369.359,85L367.203,85L365.063,81.781L364.5,80.906L361.781,85L359.641,85Z" style="fill:white;fill-rule:nonzero;"/>
    <path d="M385.5,73C385.5,72.448 385.948,72 386.5,72L396.5,72C397.052,72 397.5,72.448 397.5,73L397.5,83C397.5,83.552 397.052,84 396.5,84L386.5,84C385.948,84 385.5,83.552 385.5,83L385.5,73Z" style="fill:rgb(234,67,53);fill-rule:nonzero;"/>
    <path d="M409.547,85L405.75,70.688L407.688,70.688L409.859,80.063C410.099,81.052 410.302,82.031 410.469,83C410.833,81.469 411.047,80.583 411.109,80.344L413.844,70.688L416.125,70.688L418.172,77.922C418.693,79.724 419.068,81.417 419.297,83C419.474,82.094 419.708,81.052 420,79.875L422.25,70.688L424.156,70.688L420.234,85L418.406,85L415.391,74.094C415.13,73.177 414.979,72.615 414.938,72.406C414.781,73.063 414.641,73.625 414.516,74.094L411.484,85L409.547,85ZM425.828,72.703L425.828,70.688L427.594,70.688L427.594,72.703L425.828,72.703ZM425.828,85L425.828,74.625L427.594,74.625L427.594,85L425.828,85ZM429.813,85L429.813,74.625L431.406,74.625L431.406,76.109C432.167,74.964 433.266,74.391 434.703,74.391C435.328,74.391 435.901,74.505 436.422,74.734C436.953,74.953 437.349,75.245 437.609,75.609C437.87,75.974 438.052,76.406 438.156,76.906C438.219,77.24 438.25,77.813 438.25,78.625L438.25,85L436.484,85L436.484,78.688C436.484,77.969 436.417,77.432 436.281,77.078C436.146,76.724 435.901,76.443 435.547,76.234C435.203,76.026 434.797,75.922 434.328,75.922C433.578,75.922 432.932,76.161 432.391,76.641C431.849,77.109 431.578,78.005 431.578,79.328L431.578,85L429.813,85ZM447.547,85L447.547,83.688C446.891,84.719 445.922,85.234 444.641,85.234C443.818,85.234 443.057,85.005 442.359,84.547C441.672,84.089 441.135,83.453 440.75,82.641C440.375,81.828 440.188,80.891 440.188,79.828C440.188,78.786 440.359,77.844 440.703,77C441.047,76.156 441.563,75.51 442.25,75.063C442.948,74.615 443.719,74.391 444.563,74.391C445.188,74.391 445.745,74.526 446.234,74.797C446.724,75.057 447.125,75.396 447.438,75.813L447.438,70.688L449.172,70.688L449.172,85L447.547,85ZM441.984,79.828C441.984,81.151 442.266,82.141 442.828,82.797C443.391,83.453 444.052,83.781 444.813,83.781C445.583,83.781 446.234,83.469 446.766,82.844C447.307,82.219 447.578,81.26 447.578,79.969C447.578,78.552 447.302,77.51 446.75,76.844C446.208,76.177 445.536,75.844 444.734,75.844C443.953,75.844 443.297,76.167 442.766,76.813C442.245,77.448 441.984,78.453 441.984,79.828ZM451.172,79.813C451.172,77.896 451.703,76.474 452.766,75.547C453.661,74.776 454.75,74.391 456.031,74.391C457.458,74.391 458.62,74.859 459.516,75.797C460.422,76.734 460.875,78.026 460.875,79.672C460.875,81.005 460.677,82.057 460.281,82.828C459.885,83.589 459.302,84.182 458.531,84.609C457.771,85.026 456.937,85.234 456.031,85.234C454.573,85.234 453.396,84.771 452.5,83.844C451.615,82.906 451.172,81.563 451.172,79.813ZM452.969,79.813C452.969,81.146 453.255,82.141 453.828,82.797C454.411,83.453 455.146,83.781 456.031,83.781C456.906,83.781 457.63,83.453 458.203,82.797C458.786,82.13 459.078,81.115 459.078,79.75C459.078,78.469 458.786,77.5 458.203,76.844C457.62,76.177 456.896,75.844 456.031,75.844C455.146,75.844 454.411,76.177 453.828,76.844C453.255,77.5 452.969,78.49 452.969,79.813ZM464.734,85L461.563,74.625L463.375,74.625L465.031,80.609L465.641,82.844C465.672,82.729 465.849,82.016 466.172,80.703L467.828,74.625L469.641,74.625L471.188,80.641L471.703,82.625L472.297,80.625L474.078,74.625L475.781,74.625L472.547,85L470.719,85L469.063,78.781L468.672,77.016L466.563,85L464.734,85ZM476.109,81.906L477.859,81.625C477.953,82.323 478.224,82.859 478.672,83.234C479.12,83.599 479.745,83.781 480.547,83.781C481.349,83.781 481.943,83.62 482.328,83.297C482.724,82.964 482.922,82.578 482.922,82.141C482.922,81.745 482.75,81.432 482.406,81.203C482.167,81.047 481.568,80.849 480.609,80.609C479.318,80.276 478.422,79.995 477.922,79.766C477.432,79.526 477.057,79.198 476.797,78.781C476.536,78.354 476.406,77.885 476.406,77.375C476.406,76.917 476.51,76.49 476.719,76.094C476.938,75.698 477.229,75.37 477.594,75.109C477.865,74.911 478.234,74.745 478.703,74.609C479.182,74.464 479.693,74.391 480.234,74.391C481.047,74.391 481.76,74.51 482.375,74.75C482.99,74.979 483.443,75.297 483.734,75.703C484.026,76.099 484.229,76.63 484.344,77.297L482.625,77.531C482.542,77 482.313,76.589 481.938,76.297C481.563,75.995 481.036,75.844 480.359,75.844C479.547,75.844 478.969,75.979 478.625,76.25C478.281,76.51 478.109,76.818 478.109,77.172C478.109,77.401 478.182,77.609 478.328,77.797C478.464,77.984 478.688,78.141 479,78.266C479.177,78.328 479.693,78.474 480.547,78.703C481.797,79.036 482.667,79.313 483.156,79.531C483.646,79.74 484.031,80.047 484.313,80.453C484.594,80.849 484.734,81.349 484.734,81.953C484.734,82.536 484.563,83.089 484.219,83.609C483.875,84.13 483.38,84.531 482.734,84.813C482.089,85.094 481.359,85.234 480.547,85.234C479.203,85.234 478.177,84.953 477.469,84.391C476.76,83.828 476.307,83 476.109,81.906Z" style="fill:white;fill-rule:nonzero;"/>
    <path d="M30.388,44.2L30.388,31.575L25.669,31.575L25.669,29.888L37.013,29.888L37.013,31.575L32.278,31.575L32.278,44.2L30.388,44.2ZM38.528,31.903L38.528,29.888L40.294,29.888L40.294,31.903L38.528,31.903ZM38.528,44.2L38.528,33.825L40.294,33.825L40.294,44.2L38.528,44.2ZM45.403,44.2L41.45,33.825L43.309,33.825L45.544,40.044C45.783,40.71 46.002,41.403 46.2,42.122C46.356,41.58 46.575,40.924 46.856,40.153L49.153,33.825L50.966,33.825L47.044,44.2L45.403,44.2ZM52.528,31.903L52.528,29.888L54.294,29.888L54.294,31.903L52.528,31.903ZM52.528,44.2L52.528,33.825L54.294,33.825L54.294,44.2L52.528,44.2ZM62.934,44.2L62.934,35.2L61.388,35.2L61.388,33.825L62.934,33.825L62.934,32.731C62.934,32.033 62.997,31.513 63.122,31.169C63.289,30.71 63.585,30.341 64.013,30.059C64.44,29.778 65.039,29.638 65.809,29.638C66.309,29.638 66.856,29.695 67.45,29.809L67.184,31.341C66.82,31.278 66.476,31.247 66.153,31.247C65.622,31.247 65.242,31.361 65.013,31.591C64.794,31.82 64.684,32.247 64.684,32.872L64.684,33.825L66.716,33.825L66.716,35.2L64.684,35.2L64.684,44.2L62.934,44.2ZM75.309,44.2L75.309,42.669C74.507,43.846 73.414,44.434 72.028,44.434C71.414,44.434 70.841,44.32 70.309,44.091C69.778,43.851 69.382,43.554 69.122,43.2C68.872,42.846 68.695,42.408 68.591,41.888C68.518,41.544 68.481,40.997 68.481,40.247L68.481,33.825L70.231,33.825L70.231,39.575C70.231,40.492 70.268,41.111 70.341,41.434C70.455,41.893 70.69,42.257 71.044,42.528C71.408,42.789 71.851,42.919 72.372,42.919C72.903,42.919 73.398,42.783 73.856,42.513C74.325,42.242 74.653,41.877 74.841,41.419C75.039,40.95 75.138,40.273 75.138,39.388L75.138,33.825L76.888,33.825L76.888,44.2L75.309,44.2ZM79.481,44.2L79.481,29.888L81.231,29.888L81.231,44.2L79.481,44.2ZM83.481,44.2L83.481,29.888L85.231,29.888L85.231,44.2L83.481,44.2ZM95.138,44.2L93.513,44.2L93.513,29.888L95.263,29.888L95.263,34.997C96.013,34.059 96.96,33.591 98.106,33.591C98.742,33.591 99.346,33.721 99.919,33.981C100.492,34.242 100.96,34.606 101.325,35.075C101.69,35.533 101.976,36.091 102.184,36.747C102.393,37.403 102.497,38.106 102.497,38.856C102.497,40.638 102.059,42.013 101.184,42.981C100.309,43.95 99.257,44.434 98.028,44.434C96.799,44.434 95.835,43.924 95.138,42.903L95.138,44.2ZM95.122,38.934C95.122,40.174 95.289,41.075 95.622,41.638C96.184,42.533 96.934,42.981 97.872,42.981C98.643,42.981 99.304,42.648 99.856,41.981C100.419,41.315 100.7,40.32 100.7,38.997C100.7,37.643 100.429,36.648 99.888,36.013C99.356,35.367 98.71,35.044 97.95,35.044C97.179,35.044 96.513,35.377 95.95,36.044C95.398,36.71 95.122,37.674 95.122,38.934ZM111.309,44.2L111.309,42.669C110.507,43.846 109.414,44.434 108.028,44.434C107.414,44.434 106.841,44.32 106.309,44.091C105.778,43.851 105.382,43.554 105.122,43.2C104.872,42.846 104.695,42.408 104.591,41.888C104.518,41.544 104.481,40.997 104.481,40.247L104.481,33.825L106.231,33.825L106.231,39.575C106.231,40.492 106.268,41.111 106.341,41.434C106.455,41.893 106.69,42.257 107.044,42.528C107.408,42.789 107.851,42.919 108.372,42.919C108.903,42.919 109.398,42.783 109.856,42.513C110.325,42.242 110.653,41.877 110.841,41.419C111.039,40.95 111.138,40.273 111.138,39.388L111.138,33.825L112.888,33.825L112.888,44.2L111.309,44.2ZM115.528,31.903L115.528,29.888L117.294,29.888L117.294,31.903L115.528,31.903ZM115.528,44.2L115.528,33.825L117.294,33.825L117.294,44.2L115.528,44.2ZM119.481,44.2L119.481,29.888L121.231,29.888L121.231,44.2L119.481,44.2ZM130.247,44.2L130.247,42.888C129.591,43.919 128.622,44.434 127.341,44.434C126.518,44.434 125.757,44.205 125.059,43.747C124.372,43.289 123.835,42.653 123.45,41.841C123.075,41.028 122.888,40.091 122.888,39.028C122.888,37.986 123.059,37.044 123.403,36.2C123.747,35.356 124.263,34.71 124.95,34.263C125.648,33.815 126.419,33.591 127.263,33.591C127.887,33.591 128.445,33.726 128.934,33.997C129.424,34.257 129.825,34.596 130.137,35.013L130.137,29.888L131.872,29.888L131.872,44.2L130.247,44.2ZM124.684,39.028C124.684,40.351 124.966,41.341 125.528,41.997C126.091,42.653 126.752,42.981 127.513,42.981C128.283,42.981 128.934,42.669 129.466,42.044C130.007,41.419 130.278,40.46 130.278,39.169C130.278,37.752 130.002,36.71 129.45,36.044C128.908,35.377 128.236,35.044 127.434,35.044C126.653,35.044 125.997,35.367 125.466,36.013C124.945,36.648 124.684,37.653 124.684,39.028ZM140.528,31.903L140.528,29.888L142.294,29.888L142.294,31.903L140.528,31.903ZM140.528,44.2L140.528,33.825L142.294,33.825L142.294,44.2L140.528,44.2ZM144.513,44.2L144.513,33.825L146.106,33.825L146.106,35.309C146.867,34.164 147.966,33.591 149.403,33.591C150.028,33.591 150.601,33.705 151.122,33.934C151.653,34.153 152.049,34.445 152.309,34.809C152.57,35.174 152.752,35.606 152.856,36.106C152.919,36.44 152.95,37.013 152.95,37.825L152.95,44.2L151.184,44.2L151.184,37.888C151.184,37.169 151.117,36.632 150.981,36.278C150.846,35.924 150.601,35.643 150.247,35.434C149.903,35.226 149.497,35.122 149.028,35.122C148.278,35.122 147.632,35.361 147.091,35.841C146.549,36.309 146.278,37.205 146.278,38.528L146.278,44.2L144.513,44.2ZM160.809,41.106L162.559,40.825C162.653,41.523 162.924,42.059 163.372,42.434C163.82,42.799 164.445,42.981 165.247,42.981C166.049,42.981 166.643,42.82 167.028,42.497C167.424,42.164 167.622,41.778 167.622,41.341C167.622,40.945 167.45,40.632 167.106,40.403C166.867,40.247 166.268,40.049 165.309,39.809C164.018,39.476 163.122,39.195 162.622,38.966C162.132,38.726 161.757,38.398 161.497,37.981C161.236,37.554 161.106,37.085 161.106,36.575C161.106,36.117 161.21,35.69 161.419,35.294C161.637,34.898 161.929,34.57 162.294,34.309C162.565,34.111 162.934,33.945 163.403,33.809C163.882,33.664 164.393,33.591 164.934,33.591C165.747,33.591 166.46,33.71 167.075,33.95C167.69,34.179 168.143,34.497 168.434,34.903C168.726,35.299 168.929,35.83 169.044,36.497L167.325,36.731C167.242,36.2 167.012,35.789 166.637,35.497C166.262,35.195 165.736,35.044 165.059,35.044C164.247,35.044 163.669,35.179 163.325,35.45C162.981,35.71 162.809,36.018 162.809,36.372C162.809,36.601 162.882,36.809 163.028,36.997C163.164,37.184 163.387,37.341 163.7,37.466C163.877,37.528 164.393,37.674 165.247,37.903C166.497,38.236 167.367,38.513 167.856,38.731C168.346,38.94 168.731,39.247 169.012,39.653C169.294,40.049 169.434,40.549 169.434,41.153C169.434,41.736 169.262,42.289 168.919,42.809C168.575,43.33 168.08,43.731 167.434,44.013C166.789,44.294 166.059,44.434 165.247,44.434C163.903,44.434 162.877,44.153 162.169,43.591C161.46,43.028 161.007,42.2 160.809,41.106ZM178.622,40.856L180.434,41.091C180.153,42.143 179.622,42.966 178.841,43.559C178.07,44.143 177.08,44.434 175.872,44.434C174.361,44.434 173.158,43.971 172.262,43.044C171.377,42.106 170.934,40.794 170.934,39.106C170.934,37.356 171.382,36.002 172.278,35.044C173.174,34.075 174.341,33.591 175.778,33.591C177.164,33.591 178.294,34.065 179.169,35.013C180.054,35.95 180.497,37.278 180.497,38.997C180.497,39.101 180.492,39.257 180.481,39.466L172.747,39.466C172.809,40.601 173.132,41.471 173.716,42.075C174.299,42.679 175.023,42.981 175.887,42.981C176.533,42.981 177.08,42.815 177.528,42.481C177.986,42.138 178.351,41.596 178.622,40.856ZM172.841,38.013L178.637,38.013C178.565,37.148 178.346,36.497 177.981,36.059C177.419,35.382 176.69,35.044 175.794,35.044C174.992,35.044 174.315,35.315 173.762,35.856C173.21,36.388 172.903,37.106 172.841,38.013ZM189.294,40.403L191.012,40.622C190.825,41.82 190.341,42.757 189.559,43.434C188.789,44.101 187.835,44.434 186.7,44.434C185.283,44.434 184.143,43.971 183.278,43.044C182.414,42.117 181.981,40.789 181.981,39.059C181.981,37.934 182.164,36.955 182.528,36.122C182.903,35.278 183.471,34.648 184.231,34.231C184.992,33.804 185.82,33.591 186.716,33.591C187.841,33.591 188.757,33.877 189.466,34.45C190.184,35.023 190.648,35.83 190.856,36.872L189.137,37.138C188.981,36.44 188.695,35.919 188.278,35.575C187.861,35.221 187.361,35.044 186.778,35.044C185.893,35.044 185.174,35.361 184.622,35.997C184.07,36.632 183.794,37.632 183.794,38.997C183.794,40.393 184.059,41.408 184.591,42.044C185.122,42.669 185.82,42.981 186.684,42.981C187.372,42.981 187.945,42.773 188.403,42.356C188.872,41.929 189.169,41.278 189.294,40.403ZM191.872,39.013C191.872,37.096 192.403,35.674 193.466,34.747C194.361,33.976 195.45,33.591 196.731,33.591C198.158,33.591 199.32,34.059 200.216,34.997C201.122,35.934 201.575,37.226 201.575,38.872C201.575,40.205 201.377,41.257 200.981,42.028C200.585,42.789 200.002,43.382 199.231,43.809C198.471,44.226 197.637,44.434 196.731,44.434C195.273,44.434 194.096,43.971 193.2,43.044C192.315,42.106 191.872,40.763 191.872,39.013ZM193.669,39.013C193.669,40.346 193.955,41.341 194.528,41.997C195.111,42.653 195.846,42.981 196.731,42.981C197.606,42.981 198.33,42.653 198.903,41.997C199.486,41.33 199.778,40.315 199.778,38.95C199.778,37.669 199.486,36.7 198.903,36.044C198.32,35.377 197.596,35.044 196.731,35.044C195.846,35.044 195.111,35.377 194.528,36.044C193.955,36.7 193.669,37.69 193.669,39.013ZM203.512,44.2L203.512,33.825L205.106,33.825L205.106,35.309C205.867,34.164 206.966,33.591 208.403,33.591C209.028,33.591 209.601,33.705 210.122,33.934C210.653,34.153 211.049,34.445 211.309,34.809C211.57,35.174 211.752,35.606 211.856,36.106C211.919,36.44 211.95,37.013 211.95,37.825L211.95,44.2L210.184,44.2L210.184,37.888C210.184,37.169 210.117,36.632 209.981,36.278C209.846,35.924 209.601,35.643 209.247,35.434C208.903,35.226 208.497,35.122 208.028,35.122C207.278,35.122 206.632,35.361 206.091,35.841C205.549,36.309 205.278,37.205 205.278,38.528L205.278,44.2L203.512,44.2ZM221.247,44.2L221.247,42.888C220.591,43.919 219.622,44.434 218.341,44.434C217.518,44.434 216.757,44.205 216.059,43.747C215.372,43.289 214.835,42.653 214.45,41.841C214.075,41.028 213.887,40.091 213.887,39.028C213.887,37.986 214.059,37.044 214.403,36.2C214.747,35.356 215.262,34.71 215.95,34.263C216.648,33.815 217.419,33.591 218.262,33.591C218.887,33.591 219.445,33.726 219.934,33.997C220.424,34.257 220.825,34.596 221.137,35.013L221.137,29.888L222.872,29.888L222.872,44.2L221.247,44.2ZM215.684,39.028C215.684,40.351 215.966,41.341 216.528,41.997C217.091,42.653 217.752,42.981 218.512,42.981C219.283,42.981 219.934,42.669 220.466,42.044C221.007,41.419 221.278,40.46 221.278,39.169C221.278,37.752 221.002,36.71 220.45,36.044C219.908,35.377 219.236,35.044 218.434,35.044C217.653,35.044 216.997,35.367 216.466,36.013C215.945,36.648 215.684,37.653 215.684,39.028ZM224.809,41.106L226.559,40.825C226.653,41.523 226.924,42.059 227.372,42.434C227.82,42.799 228.445,42.981 229.247,42.981C230.049,42.981 230.643,42.82 231.028,42.497C231.424,42.164 231.622,41.778 231.622,41.341C231.622,40.945 231.45,40.632 231.106,40.403C230.867,40.247 230.268,40.049 229.309,39.809C228.018,39.476 227.122,39.195 226.622,38.966C226.132,38.726 225.757,38.398 225.497,37.981C225.236,37.554 225.106,37.085 225.106,36.575C225.106,36.117 225.21,35.69 225.419,35.294C225.637,34.898 225.929,34.57 226.294,34.309C226.565,34.111 226.934,33.945 227.403,33.809C227.882,33.664 228.393,33.591 228.934,33.591C229.747,33.591 230.46,33.71 231.075,33.95C231.69,34.179 232.143,34.497 232.434,34.903C232.726,35.299 232.929,35.83 233.044,36.497L231.325,36.731C231.242,36.2 231.012,35.789 230.637,35.497C230.262,35.195 229.736,35.044 229.059,35.044C228.247,35.044 227.669,35.179 227.325,35.45C226.981,35.71 226.809,36.018 226.809,36.372C226.809,36.601 226.882,36.809 227.028,36.997C227.164,37.184 227.387,37.341 227.7,37.466C227.877,37.528 228.393,37.674 229.247,37.903C230.497,38.236 231.367,38.513 231.856,38.731C232.346,38.94 232.731,39.247 233.012,39.653C233.294,40.049 233.434,40.549 233.434,41.153C233.434,41.736 233.262,42.289 232.919,42.809C232.575,43.33 232.08,43.731 231.434,44.013C230.789,44.294 230.059,44.434 229.247,44.434C227.903,44.434 226.877,44.153 226.169,43.591C225.46,43.028 225.007,42.2 224.809,41.106Z" style="fill:white;fill-rule:nonzero;"/>
</svg>
