<?xml version="1.0" encoding="UTF-8" standalone="no"?>
<!DOCTYPE svg PUBLIC "-//W3C//DTD SVG 1.1//EN" "http://www.w3.org/Graphics/SVG/1.1/DTD/svg11.dtd">
<svg width="100%" height="100%" viewBox="0 0 788 504" version="1.1" xmlns="http://www.w3.org/2000/svg" xmlns:xlink="http://www.w3.org/1999/xlink" xml:space="preserve" xmlns:serif="http://www.serif.com/" style="fill-rule:evenodd;clip-rule:evenodd;stroke-miterlimit:10;">
    <rect x="0" y="0" width="788" height="504" style="fill:rgb(18,18,18);fill-rule:nonzero;"/>
    <path d="M55.5,471.5L762.5,471.5" style="fill:none;fill-rule:nonzero;stroke:rgb(51,51,51);stroke-width:1px;"/>
    <path d="M55.5,382.5L762.5,382.5" style="fill:none;fill-rule:nonzero;stroke:rgb(204,204,204);stroke-width:1px;"/>
    <path d="M55.5,292.5L762.5,292.5" style="fill:none;fill-rule:nonzero;stroke:rgb(204,204,204);stroke-width:1px;"/>
    <path d="M55.5,203.5L762.5,203.5" style="fill:none;fill-rule:nonzero;stroke:rgb(204,204,204);stroke-width:1px;"/>
    <path d="M55.5,113.5L762.5,113.5" style="fill:none;fill-rule:nonzero;stroke:rgb(204,204,204);stroke-width:1px;"/>
    <clipPath id="_clip1">
        <rect x="55.2" y="113.8" width="707.6" height="358"/>
    </clipPath>
    <g clip-path="url(#_clip1)">
        <path d="M408,472L239,472L239,242C239,240.895 239.895,240 241,240L406,240C407.105,240 408,240.895 408,242L408,472Z" style="fill:none;fill-rule:nonzero;"/>
    </g>
    <clipPath id="_clip2">
        <rect x="55.2" y="113.8" width="707.6" height="358"/>
    </clipPath>
    <g clip-path="url(#_clip2)">
        <path d="M408,472L239,472L239,242C239,240.895 239.895,240 241,240L406,240C407.105,240 408,240.895 408,242L408,472Z" style="fill:rgb(66,133,244);fill-rule:nonzero;"/>
    </g>
    <clipPath id="_clip3">
        <rect x="55.2" y="113.8" width="707.6" height="358"/>
    </clipPath>
    <g clip-path="url(#_clip3)">
        <path d="M578,472L409,472L409,135C409,133.895 409.895,133 411,133L576,133C577.105,133 578,133.895 578,135L578,472Z" style="fill:none;fill-rule:nonzero;"/>
    </g>
    <clipPath id="_clip4">
        <rect x="55.2" y="113.8" width="707.6" height="358"/>
    </clipPath>
    <g clip-path="url(#_clip4)">
        <path d="M578,472L409,472L409,135C409,133.895 409.895,133 411,133L576,133C577.105,133 578,133.895 578,135L578,472Z" style="fill:rgb(234,67,53);fill-rule:nonzero;"/>
    </g>
    <path d="M314.563,252.975C314.563,254.246 314.344,255.194 313.906,255.819C313.479,256.434 312.802,256.741 311.875,256.741C310.969,256.741 310.297,256.439 309.859,255.835C309.422,255.231 309.193,254.324 309.172,253.116L309.172,251.679C309.172,250.418 309.385,249.486 309.813,248.882C310.25,248.267 310.932,247.96 311.859,247.96C312.776,247.96 313.453,248.257 313.891,248.85C314.328,249.434 314.552,250.34 314.563,251.569L314.563,252.975ZM313.469,251.491C313.469,250.574 313.339,249.908 313.078,249.491C312.828,249.064 312.422,248.85 311.859,248.85C311.307,248.85 310.901,249.064 310.641,249.491C310.391,249.908 310.266,250.548 310.266,251.413L310.266,253.147C310.266,254.064 310.396,254.746 310.656,255.194C310.927,255.632 311.333,255.85 311.875,255.85C312.406,255.85 312.802,255.642 313.063,255.225C313.323,254.809 313.458,254.158 313.469,253.272L313.469,251.491ZM316.344,256.053C316.344,255.866 316.396,255.71 316.5,255.585C316.615,255.46 316.781,255.397 317,255.397C317.229,255.397 317.401,255.46 317.516,255.585C317.63,255.71 317.688,255.866 317.688,256.053C317.688,256.231 317.63,256.382 317.516,256.507C317.401,256.621 317.229,256.678 317,256.678C316.781,256.678 316.615,256.621 316.5,256.507C316.396,256.382 316.344,256.231 316.344,256.053ZM323.469,248.085L323.469,248.991L323.266,248.991C322.422,249.012 321.75,249.267 321.25,249.757C320.75,250.236 320.458,250.913 320.375,251.788C320.833,251.277 321.448,251.022 322.219,251.022C322.958,251.022 323.552,251.283 324,251.804C324.448,252.324 324.672,253.001 324.672,253.835C324.672,254.71 324.432,255.413 323.953,255.944C323.474,256.475 322.828,256.741 322.016,256.741C321.203,256.741 320.542,256.428 320.031,255.804C319.531,255.168 319.281,254.356 319.281,253.366L319.281,252.96C319.281,251.387 319.615,250.184 320.281,249.35C320.948,248.517 321.943,248.095 323.266,248.085L323.469,248.085ZM322.047,251.929C321.672,251.929 321.328,252.038 321.016,252.257C320.703,252.475 320.484,252.757 320.359,253.1L320.359,253.491C320.359,254.199 320.516,254.767 320.828,255.194C321.151,255.621 321.547,255.835 322.016,255.835C322.505,255.835 322.891,255.658 323.172,255.304C323.453,254.939 323.594,254.465 323.594,253.882C323.594,253.298 323.453,252.83 323.172,252.475C322.891,252.111 322.516,251.929 322.047,251.929ZM330.781,253.757L331.969,253.757L331.969,254.632L330.781,254.632L330.781,256.616L329.703,256.616L329.703,254.632L325.813,254.632L325.813,253.991L329.625,248.085L330.781,248.085L330.781,253.757ZM327.047,253.757L329.703,253.757L329.703,249.569L329.563,249.804L327.047,253.757ZM338.391,250.304C338.391,250.731 338.276,251.111 338.047,251.444C337.818,251.777 337.516,252.038 337.141,252.225C337.578,252.413 337.927,252.694 338.188,253.069C338.448,253.434 338.578,253.85 338.578,254.319C338.578,255.048 338.328,255.637 337.828,256.085C337.339,256.522 336.688,256.741 335.875,256.741C335.052,256.741 334.391,256.522 333.891,256.085C333.401,255.637 333.156,255.048 333.156,254.319C333.156,253.85 333.281,253.434 333.531,253.069C333.781,252.694 334.13,252.413 334.578,252.225C334.203,252.038 333.906,251.777 333.688,251.444C333.469,251.111 333.359,250.731 333.359,250.304C333.359,249.585 333.589,249.017 334.047,248.6C334.505,248.173 335.115,247.96 335.875,247.96C336.625,247.96 337.229,248.173 337.688,248.6C338.156,249.017 338.391,249.585 338.391,250.304ZM337.5,254.288C337.5,253.809 337.349,253.423 337.047,253.132C336.745,252.83 336.349,252.679 335.859,252.679C335.37,252.679 334.974,252.83 334.672,253.132C334.38,253.423 334.234,253.814 334.234,254.304C334.234,254.783 334.38,255.163 334.672,255.444C334.964,255.715 335.365,255.85 335.875,255.85C336.375,255.85 336.771,255.71 337.063,255.429C337.354,255.147 337.5,254.767 337.5,254.288ZM335.875,248.85C335.448,248.85 335.099,248.986 334.828,249.257C334.568,249.517 334.438,249.876 334.438,250.335C334.438,250.762 334.568,251.111 334.828,251.382C335.089,251.652 335.432,251.788 335.859,251.788C336.297,251.788 336.646,251.652 336.906,251.382C337.167,251.111 337.297,250.762 337.297,250.335C337.297,249.897 337.161,249.543 336.891,249.272C336.62,248.991 336.281,248.85 335.875,248.85Z" style="fill:none;fill-rule:nonzero;stroke:rgb(66,133,244);stroke-width:3px;stroke-linecap:round;stroke-linejoin:round;"/>
    <path d="M314.563,252.975C314.563,254.246 314.344,255.194 313.906,255.819C313.479,256.434 312.802,256.741 311.875,256.741C310.969,256.741 310.297,256.439 309.859,255.835C309.422,255.231 309.193,254.324 309.172,253.116L309.172,251.679C309.172,250.418 309.385,249.486 309.813,248.882C310.25,248.267 310.932,247.96 311.859,247.96C312.776,247.96 313.453,248.257 313.891,248.85C314.328,249.434 314.552,250.34 314.563,251.569L314.563,252.975ZM313.469,251.491C313.469,250.574 313.339,249.908 313.078,249.491C312.828,249.064 312.422,248.85 311.859,248.85C311.307,248.85 310.901,249.064 310.641,249.491C310.391,249.908 310.266,250.548 310.266,251.413L310.266,253.147C310.266,254.064 310.396,254.746 310.656,255.194C310.927,255.632 311.333,255.85 311.875,255.85C312.406,255.85 312.802,255.642 313.063,255.225C313.323,254.809 313.458,254.158 313.469,253.272L313.469,251.491ZM316.344,256.053C316.344,255.866 316.396,255.71 316.5,255.585C316.615,255.46 316.781,255.397 317,255.397C317.229,255.397 317.401,255.46 317.516,255.585C317.63,255.71 317.688,255.866 317.688,256.053C317.688,256.231 317.63,256.382 317.516,256.507C317.401,256.621 317.229,256.678 317,256.678C316.781,256.678 316.615,256.621 316.5,256.507C316.396,256.382 316.344,256.231 316.344,256.053ZM323.469,248.085L323.469,248.991L323.266,248.991C322.422,249.012 321.75,249.267 321.25,249.757C320.75,250.236 320.458,250.913 320.375,251.788C320.833,251.277 321.448,251.022 322.219,251.022C322.958,251.022 323.552,251.283 324,251.804C324.448,252.324 324.672,253.001 324.672,253.835C324.672,254.71 324.432,255.413 323.953,255.944C323.474,256.475 322.828,256.741 322.016,256.741C321.203,256.741 320.542,256.428 320.031,255.804C319.531,255.168 319.281,254.356 319.281,253.366L319.281,252.96C319.281,251.387 319.615,250.184 320.281,249.35C320.948,248.517 321.943,248.095 323.266,248.085L323.469,248.085ZM322.047,251.929C321.672,251.929 321.328,252.038 321.016,252.257C320.703,252.475 320.484,252.757 320.359,253.1L320.359,253.491C320.359,254.199 320.516,254.767 320.828,255.194C321.151,255.621 321.547,255.835 322.016,255.835C322.505,255.835 322.891,255.658 323.172,255.304C323.453,254.939 323.594,254.465 323.594,253.882C323.594,253.298 323.453,252.83 323.172,252.475C322.891,252.111 322.516,251.929 322.047,251.929ZM330.781,253.757L331.969,253.757L331.969,254.632L330.781,254.632L330.781,256.616L329.703,256.616L329.703,254.632L325.813,254.632L325.813,253.991L329.625,248.085L330.781,248.085L330.781,253.757ZM327.047,253.757L329.703,253.757L329.703,249.569L329.563,249.804L327.047,253.757ZM338.391,250.304C338.391,250.731 338.276,251.111 338.047,251.444C337.818,251.777 337.516,252.038 337.141,252.225C337.578,252.413 337.927,252.694 338.188,253.069C338.448,253.434 338.578,253.85 338.578,254.319C338.578,255.048 338.328,255.637 337.828,256.085C337.339,256.522 336.688,256.741 335.875,256.741C335.052,256.741 334.391,256.522 333.891,256.085C333.401,255.637 333.156,255.048 333.156,254.319C333.156,253.85 333.281,253.434 333.531,253.069C333.781,252.694 334.13,252.413 334.578,252.225C334.203,252.038 333.906,251.777 333.688,251.444C333.469,251.111 333.359,250.731 333.359,250.304C333.359,249.585 333.589,249.017 334.047,248.6C334.505,248.173 335.115,247.96 335.875,247.96C336.625,247.96 337.229,248.173 337.688,248.6C338.156,249.017 338.391,249.585 338.391,250.304ZM337.5,254.288C337.5,253.809 337.349,253.423 337.047,253.132C336.745,252.83 336.349,252.679 335.859,252.679C335.37,252.679 334.974,252.83 334.672,253.132C334.38,253.423 334.234,253.814 334.234,254.304C334.234,254.783 334.38,255.163 334.672,255.444C334.964,255.715 335.365,255.85 335.875,255.85C336.375,255.85 336.771,255.71 337.063,255.429C337.354,255.147 337.5,254.767 337.5,254.288ZM335.875,248.85C335.448,248.85 335.099,248.986 334.828,249.257C334.568,249.517 334.438,249.876 334.438,250.335C334.438,250.762 334.568,251.111 334.828,251.382C335.089,251.652 335.432,251.788 335.859,251.788C336.297,251.788 336.646,251.652 336.906,251.382C337.167,251.111 337.297,250.762 337.297,250.335C337.297,249.897 337.161,249.543 336.891,249.272C336.62,248.991 336.281,248.85 335.875,248.85Z" style="fill:white;fill-rule:nonzero;"/>
    <path d="M484.563,145.933C484.563,147.204 484.344,148.152 483.906,148.777C483.479,149.392 482.802,149.699 481.875,149.699C480.969,149.699 480.297,149.397 479.859,148.793C479.422,148.189 479.193,147.282 479.172,146.074L479.172,144.637C479.172,143.376 479.385,142.444 479.813,141.84C480.25,141.225 480.932,140.918 481.859,140.918C482.776,140.918 483.453,141.215 483.891,141.808C484.328,142.392 484.552,143.298 484.563,144.527L484.563,145.933ZM483.469,144.449C483.469,143.532 483.339,142.866 483.078,142.449C482.828,142.022 482.422,141.808 481.859,141.808C481.307,141.808 480.901,142.022 480.641,142.449C480.391,142.866 480.266,143.506 480.266,144.371L480.266,146.105C480.266,147.022 480.396,147.704 480.656,148.152C480.927,148.59 481.333,148.808 481.875,148.808C482.406,148.808 482.802,148.6 483.063,148.183C483.323,147.767 483.458,147.116 483.469,146.23L483.469,144.449ZM486.344,149.012C486.344,148.824 486.396,148.668 486.5,148.543C486.615,148.418 486.781,148.355 487,148.355C487.229,148.355 487.401,148.418 487.516,148.543C487.63,148.668 487.688,148.824 487.688,149.012C487.688,149.189 487.63,149.34 487.516,149.465C487.401,149.579 487.229,149.637 487,149.637C486.781,149.637 486.615,149.579 486.5,149.465C486.396,149.34 486.344,149.189 486.344,149.012ZM493.359,145.824C493.141,146.095 492.87,146.314 492.547,146.48C492.234,146.637 491.891,146.715 491.516,146.715C491.026,146.715 490.599,146.595 490.234,146.355C489.87,146.116 489.589,145.777 489.391,145.34C489.193,144.892 489.094,144.402 489.094,143.871C489.094,143.308 489.198,142.798 489.406,142.34C489.625,141.881 489.932,141.532 490.328,141.293C490.734,141.043 491.203,140.918 491.734,140.918C492.578,140.918 493.24,141.235 493.719,141.871C494.208,142.506 494.453,143.366 494.453,144.449L494.453,144.762C494.453,146.428 494.125,147.642 493.469,148.402C492.813,149.163 491.823,149.553 490.5,149.574L490.281,149.574L490.281,148.668L490.516,148.668C491.411,148.647 492.099,148.413 492.578,147.965C493.057,147.517 493.318,146.803 493.359,145.824ZM491.688,145.824C492.052,145.824 492.385,145.715 492.688,145.496C493,145.267 493.229,144.991 493.375,144.668L493.375,144.23C493.375,143.522 493.219,142.944 492.906,142.496C492.594,142.048 492.203,141.824 491.734,141.824C491.255,141.824 490.87,142.006 490.578,142.371C490.297,142.735 490.156,143.22 490.156,143.824C490.156,144.407 490.292,144.887 490.563,145.262C490.844,145.637 491.219,145.824 491.688,145.824ZM500.781,146.715L501.969,146.715L501.969,147.59L500.781,147.59L500.781,149.574L499.703,149.574L499.703,147.59L495.813,147.59L495.813,146.949L499.625,141.043L500.781,141.043L500.781,146.715ZM497.047,146.715L499.703,146.715L499.703,142.527L499.563,142.762L497.047,146.715ZM508.719,141.652L505.188,149.574L504.047,149.574L507.563,141.933L502.953,141.933L502.953,141.043L508.719,141.043L508.719,141.652Z" style="fill:none;fill-rule:nonzero;stroke:rgb(234,67,53);stroke-width:3px;stroke-linecap:round;stroke-linejoin:round;"/>
    <path d="M484.563,145.933C484.563,147.204 484.344,148.152 483.906,148.777C483.479,149.392 482.802,149.699 481.875,149.699C480.969,149.699 480.297,149.397 479.859,148.793C479.422,148.189 479.193,147.282 479.172,146.074L479.172,144.637C479.172,143.376 479.385,142.444 479.813,141.84C480.25,141.225 480.932,140.918 481.859,140.918C482.776,140.918 483.453,141.215 483.891,141.808C484.328,142.392 484.552,143.298 484.563,144.527L484.563,145.933ZM483.469,144.449C483.469,143.532 483.339,142.866 483.078,142.449C482.828,142.022 482.422,141.808 481.859,141.808C481.307,141.808 480.901,142.022 480.641,142.449C480.391,142.866 480.266,143.506 480.266,144.371L480.266,146.105C480.266,147.022 480.396,147.704 480.656,148.152C480.927,148.59 481.333,148.808 481.875,148.808C482.406,148.808 482.802,148.6 483.063,148.183C483.323,147.767 483.458,147.116 483.469,146.23L483.469,144.449ZM486.344,149.012C486.344,148.824 486.396,148.668 486.5,148.543C486.615,148.418 486.781,148.355 487,148.355C487.229,148.355 487.401,148.418 487.516,148.543C487.63,148.668 487.688,148.824 487.688,149.012C487.688,149.189 487.63,149.34 487.516,149.465C487.401,149.579 487.229,149.637 487,149.637C486.781,149.637 486.615,149.579 486.5,149.465C486.396,149.34 486.344,149.189 486.344,149.012ZM493.359,145.824C493.141,146.095 492.87,146.314 492.547,146.48C492.234,146.637 491.891,146.715 491.516,146.715C491.026,146.715 490.599,146.595 490.234,146.355C489.87,146.116 489.589,145.777 489.391,145.34C489.193,144.892 489.094,144.402 489.094,143.871C489.094,143.308 489.198,142.798 489.406,142.34C489.625,141.881 489.932,141.532 490.328,141.293C490.734,141.043 491.203,140.918 491.734,140.918C492.578,140.918 493.24,141.235 493.719,141.871C494.208,142.506 494.453,143.366 494.453,144.449L494.453,144.762C494.453,146.428 494.125,147.642 493.469,148.402C492.813,149.163 491.823,149.553 490.5,149.574L490.281,149.574L490.281,148.668L490.516,148.668C491.411,148.647 492.099,148.413 492.578,147.965C493.057,147.517 493.318,146.803 493.359,145.824ZM491.688,145.824C492.052,145.824 492.385,145.715 492.688,145.496C493,145.267 493.229,144.991 493.375,144.668L493.375,144.23C493.375,143.522 493.219,142.944 492.906,142.496C492.594,142.048 492.203,141.824 491.734,141.824C491.255,141.824 490.87,142.006 490.578,142.371C490.297,142.735 490.156,143.22 490.156,143.824C490.156,144.407 490.292,144.887 490.563,145.262C490.844,145.637 491.219,145.824 491.688,145.824ZM500.781,146.715L501.969,146.715L501.969,147.59L500.781,147.59L500.781,149.574L499.703,149.574L499.703,147.59L495.813,147.59L495.813,146.949L499.625,141.043L500.781,141.043L500.781,146.715ZM497.047,146.715L499.703,146.715L499.703,142.527L499.563,142.762L497.047,146.715ZM508.719,141.652L505.188,149.574L504.047,149.574L507.563,141.933L502.953,141.933L502.953,141.043L508.719,141.043L508.719,141.652Z" style="fill:white;fill-rule:nonzero;"/>
    <path d="M25.7,471.566C25.7,470.545 25.804,469.727 26.013,469.113C26.221,468.488 26.528,468.008 26.934,467.675C27.351,467.342 27.872,467.175 28.497,467.175C28.955,467.175 29.356,467.269 29.7,467.456C30.054,467.644 30.346,467.915 30.575,468.269C30.804,468.612 30.981,469.034 31.106,469.534C31.231,470.034 31.294,470.711 31.294,471.566C31.294,472.576 31.19,473.389 30.981,474.003C30.783,474.618 30.476,475.097 30.059,475.441C29.653,475.774 29.132,475.941 28.497,475.941C27.674,475.941 27.023,475.644 26.544,475.05C25.981,474.342 25.7,473.18 25.7,471.566ZM26.778,471.566C26.778,472.972 26.945,473.909 27.278,474.378C27.611,474.847 28.018,475.081 28.497,475.081C28.986,475.081 29.393,474.847 29.716,474.378C30.049,473.909 30.216,472.972 30.216,471.566C30.216,470.149 30.049,469.211 29.716,468.753C29.393,468.284 28.981,468.05 28.481,468.05C28.002,468.05 27.617,468.253 27.325,468.659C26.96,469.18 26.778,470.149 26.778,471.566ZM33.294,475.8L33.294,474.597L34.497,474.597L34.497,475.8L33.294,475.8ZM35.7,471.566C35.7,470.545 35.804,469.727 36.013,469.113C36.221,468.488 36.528,468.008 36.934,467.675C37.351,467.342 37.872,467.175 38.497,467.175C38.955,467.175 39.356,467.269 39.7,467.456C40.054,467.644 40.346,467.915 40.575,468.269C40.804,468.612 40.981,469.034 41.106,469.534C41.231,470.034 41.294,470.711 41.294,471.566C41.294,472.576 41.19,473.389 40.981,474.003C40.783,474.618 40.476,475.097 40.059,475.441C39.653,475.774 39.132,475.941 38.497,475.941C37.674,475.941 37.023,475.644 36.544,475.05C35.981,474.342 35.7,473.18 35.7,471.566ZM36.778,471.566C36.778,472.972 36.945,473.909 37.278,474.378C37.611,474.847 38.018,475.081 38.497,475.081C38.986,475.081 39.393,474.847 39.716,474.378C40.049,473.909 40.216,472.972 40.216,471.566C40.216,470.149 40.049,469.211 39.716,468.753C39.393,468.284 38.981,468.05 38.481,468.05C38.002,468.05 37.617,468.253 37.325,468.659C36.96,469.18 36.778,470.149 36.778,471.566ZM42.7,471.566C42.7,470.545 42.804,469.727 43.013,469.113C43.221,468.488 43.528,468.008 43.934,467.675C44.351,467.342 44.872,467.175 45.497,467.175C45.955,467.175 46.356,467.269 46.7,467.456C47.054,467.644 47.346,467.915 47.575,468.269C47.804,468.612 47.981,469.034 48.106,469.534C48.231,470.034 48.294,470.711 48.294,471.566C48.294,472.576 48.19,473.389 47.981,474.003C47.783,474.618 47.476,475.097 47.059,475.441C46.653,475.774 46.132,475.941 45.497,475.941C44.674,475.941 44.023,475.644 43.544,475.05C42.981,474.342 42.7,473.18 42.7,471.566ZM43.778,471.566C43.778,472.972 43.945,473.909 44.278,474.378C44.611,474.847 45.018,475.081 45.497,475.081C45.986,475.081 46.393,474.847 46.716,474.378C47.049,473.909 47.216,472.972 47.216,471.566C47.216,470.149 47.049,469.211 46.716,468.753C46.393,468.284 45.981,468.05 45.481,468.05C45.002,468.05 44.617,468.253 44.325,468.659C43.96,469.18 43.778,470.149 43.778,471.566Z" style="fill:white;fill-rule:nonzero;"/>
    <path d="M25.7,382.066C25.7,381.045 25.804,380.227 26.013,379.613C26.221,378.988 26.528,378.508 26.934,378.175C27.351,377.842 27.872,377.675 28.497,377.675C28.955,377.675 29.356,377.769 29.7,377.956C30.054,378.144 30.346,378.415 30.575,378.769C30.804,379.112 30.981,379.534 31.106,380.034C31.231,380.534 31.294,381.211 31.294,382.066C31.294,383.076 31.19,383.889 30.981,384.503C30.783,385.118 30.476,385.597 30.059,385.941C29.653,386.274 29.132,386.441 28.497,386.441C27.674,386.441 27.023,386.144 26.544,385.55C25.981,384.842 25.7,383.68 25.7,382.066ZM26.778,382.066C26.778,383.472 26.945,384.409 27.278,384.878C27.611,385.347 28.018,385.581 28.497,385.581C28.986,385.581 29.393,385.347 29.716,384.878C30.049,384.409 30.216,383.472 30.216,382.066C30.216,380.649 30.049,379.711 29.716,379.253C29.393,378.784 28.981,378.55 28.481,378.55C28.002,378.55 27.617,378.753 27.325,379.159C26.96,379.68 26.778,380.649 26.778,382.066ZM33.294,386.3L33.294,385.097L34.497,385.097L34.497,386.3L33.294,386.3ZM41.247,385.284L41.247,386.3L35.559,386.3C35.559,386.05 35.601,385.805 35.684,385.566C35.83,385.18 36.059,384.8 36.372,384.425C36.695,384.05 37.158,383.618 37.763,383.128C38.7,382.357 39.33,381.748 39.653,381.3C39.986,380.852 40.153,380.43 40.153,380.034C40.153,379.618 40.002,379.269 39.7,378.988C39.398,378.696 39.007,378.55 38.528,378.55C38.018,378.55 37.611,378.701 37.309,379.003C37.007,379.305 36.851,379.727 36.841,380.269L35.763,380.159C35.835,379.347 36.111,378.732 36.591,378.316C37.08,377.889 37.736,377.675 38.559,377.675C39.382,377.675 40.033,377.904 40.513,378.363C40.992,378.821 41.231,379.389 41.231,380.066C41.231,380.409 41.158,380.748 41.013,381.081C40.877,381.404 40.643,381.753 40.309,382.128C39.986,382.493 39.45,382.993 38.7,383.628C38.065,384.159 37.653,384.524 37.466,384.722C37.289,384.909 37.143,385.097 37.028,385.284L41.247,385.284ZM42.7,384.05L43.809,383.956C43.893,384.498 44.08,384.904 44.372,385.175C44.674,385.446 45.039,385.581 45.466,385.581C45.966,385.581 46.393,385.389 46.747,385.003C47.101,384.618 47.278,384.113 47.278,383.488C47.278,382.883 47.106,382.409 46.763,382.066C46.429,381.711 45.986,381.534 45.434,381.534C45.101,381.534 44.794,381.612 44.513,381.769C44.242,381.925 44.028,382.123 43.872,382.363L42.888,382.238L43.716,377.831L47.997,377.831L47.997,378.831L44.559,378.831L44.106,381.144C44.617,380.779 45.153,380.597 45.716,380.597C46.466,380.597 47.096,380.857 47.606,381.378C48.127,381.899 48.388,382.571 48.388,383.394C48.388,384.165 48.164,384.836 47.716,385.409C47.164,386.097 46.414,386.441 45.466,386.441C44.684,386.441 44.044,386.222 43.544,385.784C43.054,385.347 42.773,384.769 42.7,384.05Z" style="fill:white;fill-rule:nonzero;"/>
    <path d="M25.7,292.566C25.7,291.545 25.804,290.727 26.013,290.113C26.221,289.488 26.528,289.008 26.934,288.675C27.351,288.342 27.872,288.175 28.497,288.175C28.955,288.175 29.356,288.269 29.7,288.456C30.054,288.644 30.346,288.915 30.575,289.269C30.804,289.612 30.981,290.034 31.106,290.534C31.231,291.034 31.294,291.711 31.294,292.566C31.294,293.576 31.19,294.389 30.981,295.003C30.783,295.618 30.476,296.097 30.059,296.441C29.653,296.774 29.132,296.941 28.497,296.941C27.674,296.941 27.023,296.644 26.544,296.05C25.981,295.342 25.7,294.18 25.7,292.566ZM26.778,292.566C26.778,293.972 26.945,294.909 27.278,295.378C27.611,295.847 28.018,296.081 28.497,296.081C28.986,296.081 29.393,295.847 29.716,295.378C30.049,294.909 30.216,293.972 30.216,292.566C30.216,291.149 30.049,290.211 29.716,289.753C29.393,289.284 28.981,289.05 28.481,289.05C28.002,289.05 27.617,289.253 27.325,289.659C26.96,290.18 26.778,291.149 26.778,292.566ZM33.294,296.8L33.294,295.597L34.497,295.597L34.497,296.8L33.294,296.8ZM35.7,294.55L36.809,294.456C36.893,294.998 37.08,295.404 37.372,295.675C37.674,295.946 38.039,296.081 38.466,296.081C38.966,296.081 39.393,295.889 39.747,295.503C40.101,295.118 40.278,294.613 40.278,293.988C40.278,293.383 40.106,292.909 39.763,292.566C39.429,292.211 38.986,292.034 38.434,292.034C38.101,292.034 37.794,292.112 37.513,292.269C37.242,292.425 37.028,292.623 36.872,292.863L35.888,292.738L36.716,288.331L40.997,288.331L40.997,289.331L37.559,289.331L37.106,291.644C37.617,291.279 38.153,291.097 38.716,291.097C39.466,291.097 40.096,291.357 40.606,291.878C41.127,292.399 41.388,293.071 41.388,293.894C41.388,294.665 41.164,295.336 40.716,295.909C40.164,296.597 39.414,296.941 38.466,296.941C37.684,296.941 37.044,296.722 36.544,296.284C36.054,295.847 35.773,295.269 35.7,294.55ZM42.7,292.566C42.7,291.545 42.804,290.727 43.013,290.113C43.221,289.488 43.528,289.008 43.934,288.675C44.351,288.342 44.872,288.175 45.497,288.175C45.955,288.175 46.356,288.269 46.7,288.456C47.054,288.644 47.346,288.915 47.575,289.269C47.804,289.612 47.981,290.034 48.106,290.534C48.231,291.034 48.294,291.711 48.294,292.566C48.294,293.576 48.19,294.389 47.981,295.003C47.783,295.618 47.476,296.097 47.059,296.441C46.653,296.774 46.132,296.941 45.497,296.941C44.674,296.941 44.023,296.644 43.544,296.05C42.981,295.342 42.7,294.18 42.7,292.566ZM43.778,292.566C43.778,293.972 43.945,294.909 44.278,295.378C44.611,295.847 45.018,296.081 45.497,296.081C45.986,296.081 46.393,295.847 46.716,295.378C47.049,294.909 47.216,293.972 47.216,292.566C47.216,291.149 47.049,290.211 46.716,289.753C46.393,289.284 45.981,289.05 45.481,289.05C45.002,289.05 44.617,289.253 44.325,289.659C43.96,290.18 43.778,291.149 43.778,292.566Z" style="fill:white;fill-rule:nonzero;"/>
    <path d="M25.7,203.066C25.7,202.045 25.804,201.227 26.013,200.613C26.221,199.988 26.528,199.508 26.934,199.175C27.351,198.842 27.872,198.675 28.497,198.675C28.955,198.675 29.356,198.769 29.7,198.956C30.054,199.144 30.346,199.415 30.575,199.769C30.804,200.113 30.981,200.534 31.106,201.034C31.231,201.534 31.294,202.211 31.294,203.066C31.294,204.076 31.19,204.889 30.981,205.503C30.783,206.118 30.476,206.597 30.059,206.941C29.653,207.274 29.132,207.441 28.497,207.441C27.674,207.441 27.023,207.144 26.544,206.55C25.981,205.842 25.7,204.68 25.7,203.066ZM26.778,203.066C26.778,204.472 26.945,205.409 27.278,205.878C27.611,206.347 28.018,206.581 28.497,206.581C28.986,206.581 29.393,206.347 29.716,205.878C30.049,205.409 30.216,204.472 30.216,203.066C30.216,201.649 30.049,200.711 29.716,200.253C29.393,199.784 28.981,199.55 28.481,199.55C28.002,199.55 27.617,199.753 27.325,200.159C26.96,200.68 26.778,201.649 26.778,203.066ZM33.294,207.3L33.294,206.097L34.497,206.097L34.497,207.3L33.294,207.3ZM35.763,199.831L35.763,198.816L41.325,198.816L41.325,199.644C40.783,200.227 40.242,201.003 39.7,201.972C39.169,202.93 38.757,203.92 38.466,204.941C38.247,205.659 38.111,206.446 38.059,207.3L36.966,207.3C36.976,206.623 37.106,205.805 37.356,204.847C37.617,203.889 37.981,202.967 38.45,202.081C38.929,201.196 39.44,200.446 39.981,199.831L35.763,199.831ZM42.7,205.05L43.809,204.956C43.893,205.498 44.08,205.904 44.372,206.175C44.674,206.446 45.039,206.581 45.466,206.581C45.966,206.581 46.393,206.389 46.747,206.003C47.101,205.618 47.278,205.113 47.278,204.488C47.278,203.883 47.106,203.409 46.763,203.066C46.429,202.711 45.986,202.534 45.434,202.534C45.101,202.534 44.794,202.613 44.513,202.769C44.242,202.925 44.028,203.123 43.872,203.363L42.888,203.238L43.716,198.831L47.997,198.831L47.997,199.831L44.559,199.831L44.106,202.144C44.617,201.779 45.153,201.597 45.716,201.597C46.466,201.597 47.096,201.857 47.606,202.378C48.127,202.899 48.388,203.571 48.388,204.394C48.388,205.165 48.164,205.836 47.716,206.409C47.164,207.097 46.414,207.441 45.466,207.441C44.684,207.441 44.044,207.222 43.544,206.784C43.054,206.347 42.773,205.769 42.7,205.05Z" style="fill:white;fill-rule:nonzero;"/>
    <path d="M29.669,117.8L28.622,117.8L28.622,111.081C28.361,111.321 28.023,111.566 27.606,111.816C27.2,112.055 26.835,112.232 26.513,112.347L26.513,111.331C27.096,111.05 27.606,110.717 28.044,110.331C28.492,109.935 28.809,109.55 28.997,109.175L29.669,109.175L29.669,117.8ZM33.294,117.8L33.294,116.597L34.497,116.597L34.497,117.8L33.294,117.8ZM35.7,113.566C35.7,112.545 35.804,111.727 36.013,111.113C36.221,110.488 36.528,110.008 36.934,109.675C37.351,109.342 37.872,109.175 38.497,109.175C38.955,109.175 39.356,109.269 39.7,109.456C40.054,109.644 40.346,109.915 40.575,110.269C40.804,110.613 40.981,111.034 41.106,111.534C41.231,112.034 41.294,112.711 41.294,113.566C41.294,114.576 41.19,115.389 40.981,116.003C40.783,116.618 40.476,117.097 40.059,117.441C39.653,117.774 39.132,117.941 38.497,117.941C37.674,117.941 37.023,117.644 36.544,117.05C35.981,116.342 35.7,115.18 35.7,113.566ZM36.778,113.566C36.778,114.972 36.945,115.909 37.278,116.378C37.611,116.847 38.018,117.081 38.497,117.081C38.986,117.081 39.393,116.847 39.716,116.378C40.049,115.909 40.216,114.972 40.216,113.566C40.216,112.149 40.049,111.211 39.716,110.753C39.393,110.284 38.981,110.05 38.481,110.05C38.002,110.05 37.617,110.253 37.325,110.659C36.96,111.18 36.778,112.149 36.778,113.566ZM42.7,113.566C42.7,112.545 42.804,111.727 43.013,111.113C43.221,110.488 43.528,110.008 43.934,109.675C44.351,109.342 44.872,109.175 45.497,109.175C45.955,109.175 46.356,109.269 46.7,109.456C47.054,109.644 47.346,109.915 47.575,110.269C47.804,110.613 47.981,111.034 48.106,111.534C48.231,112.034 48.294,112.711 48.294,113.566C48.294,114.576 48.19,115.389 47.981,116.003C47.783,116.618 47.476,117.097 47.059,117.441C46.653,117.774 46.132,117.941 45.497,117.941C44.674,117.941 44.023,117.644 43.544,117.05C42.981,116.342 42.7,115.18 42.7,113.566ZM43.778,113.566C43.778,114.972 43.945,115.909 44.278,116.378C44.611,116.847 45.018,117.081 45.497,117.081C45.986,117.081 46.393,116.847 46.716,116.378C47.049,115.909 47.216,114.972 47.216,113.566C47.216,112.149 47.049,111.211 46.716,110.753C46.393,110.284 45.981,110.05 45.481,110.05C45.002,110.05 44.617,110.253 44.325,110.659C43.96,111.18 43.778,112.149 43.778,113.566Z" style="fill:white;fill-rule:nonzero;"/>
    <path d="M302.5,73C302.5,72.448 302.948,72 303.5,72L313.5,72C314.052,72 314.5,72.448 314.5,73L314.5,83C314.5,83.552 314.052,84 313.5,84L303.5,84C302.948,84 302.5,83.552 302.5,83L302.5,73Z" style="fill:rgb(66,133,244);fill-rule:nonzero;"/>
    <path d="M323.969,85L323.969,70.688L325.859,70.688L325.859,83.313L332.906,83.313L332.906,85L323.969,85ZM334.828,72.703L334.828,70.688L336.594,70.688L336.594,72.703L334.828,72.703ZM334.828,85L334.828,74.625L336.594,74.625L336.594,85L334.828,85ZM338.813,85L338.813,74.625L340.406,74.625L340.406,76.109C341.167,74.964 342.266,74.391 343.703,74.391C344.328,74.391 344.901,74.505 345.422,74.734C345.953,74.953 346.349,75.245 346.609,75.609C346.87,75.974 347.052,76.406 347.156,76.906C347.219,77.24 347.25,77.813 347.25,78.625L347.25,85L345.484,85L345.484,78.688C345.484,77.969 345.417,77.432 345.281,77.078C345.146,76.724 344.901,76.443 344.547,76.234C344.203,76.026 343.797,75.922 343.328,75.922C342.578,75.922 341.932,76.161 341.391,76.641C340.849,77.109 340.578,78.005 340.578,79.328L340.578,85L338.813,85ZM356.609,85L356.609,83.469C355.807,84.646 354.714,85.234 353.328,85.234C352.714,85.234 352.141,85.12 351.609,84.891C351.078,84.651 350.682,84.354 350.422,84C350.172,83.646 349.995,83.208 349.891,82.688C349.818,82.344 349.781,81.797 349.781,81.047L349.781,74.625L351.531,74.625L351.531,80.375C351.531,81.292 351.568,81.911 351.641,82.234C351.755,82.693 351.99,83.057 352.344,83.328C352.708,83.589 353.151,83.719 353.672,83.719C354.203,83.719 354.698,83.583 355.156,83.313C355.625,83.042 355.953,82.677 356.141,82.219C356.339,81.75 356.438,81.073 356.438,80.188L356.438,74.625L358.188,74.625L358.188,85L356.609,85ZM359.641,85L363.438,79.609L359.938,74.625L362.125,74.625L363.719,77.063C364.021,77.521 364.26,77.906 364.438,78.219C364.729,77.792 364.995,77.411 365.234,77.078L366.984,74.625L369.078,74.625L365.5,79.516L369.359,85L367.203,85L365.063,81.781L364.5,80.906L361.781,85L359.641,85Z" style="fill:white;fill-rule:nonzero;"/>
    <path d="M385.5,73C385.5,72.448 385.948,72 386.5,72L396.5,72C397.052,72 397.5,72.448 397.5,73L397.5,83C397.5,83.552 397.052,84 396.5,84L386.5,84C385.948,84 385.5,83.552 385.5,83L385.5,73Z" style="fill:rgb(234,67,53);fill-rule:nonzero;"/>
    <path d="M409.547,85L405.75,70.688L407.688,70.688L409.859,80.063C410.099,81.052 410.302,82.031 410.469,83C410.833,81.469 411.047,80.583 411.109,80.344L413.844,70.688L416.125,70.688L418.172,77.922C418.693,79.724 419.068,81.417 419.297,83C419.474,82.094 419.708,81.052 420,79.875L422.25,70.688L424.156,70.688L420.234,85L418.406,85L415.391,74.094C415.13,73.177 414.979,72.615 414.938,72.406C414.781,73.063 414.641,73.625 414.516,74.094L411.484,85L409.547,85ZM425.828,72.703L425.828,70.688L427.594,70.688L427.594,72.703L425.828,72.703ZM425.828,85L425.828,74.625L427.594,74.625L427.594,85L425.828,85ZM429.813,85L429.813,74.625L431.406,74.625L431.406,76.109C432.167,74.964 433.266,74.391 434.703,74.391C435.328,74.391 435.901,74.505 436.422,74.734C436.953,74.953 437.349,75.245 437.609,75.609C437.87,75.974 438.052,76.406 438.156,76.906C438.219,77.24 438.25,77.813 438.25,78.625L438.25,85L436.484,85L436.484,78.688C436.484,77.969 436.417,77.432 436.281,77.078C436.146,76.724 435.901,76.443 435.547,76.234C435.203,76.026 434.797,75.922 434.328,75.922C433.578,75.922 432.932,76.161 432.391,76.641C431.849,77.109 431.578,78.005 431.578,79.328L431.578,85L429.813,85ZM447.547,85L447.547,83.688C446.891,84.719 445.922,85.234 444.641,85.234C443.818,85.234 443.057,85.005 442.359,84.547C441.672,84.089 441.135,83.453 440.75,82.641C440.375,81.828 440.188,80.891 440.188,79.828C440.188,78.786 440.359,77.844 440.703,77C441.047,76.156 441.563,75.51 442.25,75.063C442.948,74.615 443.719,74.391 444.563,74.391C445.188,74.391 445.745,74.526 446.234,74.797C446.724,75.057 447.125,75.396 447.438,75.813L447.438,70.688L449.172,70.688L449.172,85L447.547,85ZM441.984,79.828C441.984,81.151 442.266,82.141 442.828,82.797C443.391,83.453 444.052,83.781 444.813,83.781C445.583,83.781 446.234,83.469 446.766,82.844C447.307,82.219 447.578,81.26 447.578,79.969C447.578,78.552 447.302,77.51 446.75,76.844C446.208,76.177 445.536,75.844 444.734,75.844C443.953,75.844 443.297,76.167 442.766,76.813C442.245,77.448 441.984,78.453 441.984,79.828ZM451.172,79.813C451.172,77.896 451.703,76.474 452.766,75.547C453.661,74.776 454.75,74.391 456.031,74.391C457.458,74.391 458.62,74.859 459.516,75.797C460.422,76.734 460.875,78.026 460.875,79.672C460.875,81.005 460.677,82.057 460.281,82.828C459.885,83.589 459.302,84.182 458.531,84.609C457.771,85.026 456.937,85.234 456.031,85.234C454.573,85.234 453.396,84.771 452.5,83.844C451.615,82.906 451.172,81.563 451.172,79.813ZM452.969,79.813C452.969,81.146 453.255,82.141 453.828,82.797C454.411,83.453 455.146,83.781 456.031,83.781C456.906,83.781 457.63,83.453 458.203,82.797C458.786,82.13 459.078,81.115 459.078,79.75C459.078,78.469 458.786,77.5 458.203,76.844C457.62,76.177 456.896,75.844 456.031,75.844C455.146,75.844 454.411,76.177 453.828,76.844C453.255,77.5 452.969,78.49 452.969,79.813ZM464.734,85L461.563,74.625L463.375,74.625L465.031,80.609L465.641,82.844C465.672,82.729 465.849,82.016 466.172,80.703L467.828,74.625L469.641,74.625L471.188,80.641L471.703,82.625L472.297,80.625L474.078,74.625L475.781,74.625L472.547,85L470.719,85L469.063,78.781L468.672,77.016L466.563,85L464.734,85ZM476.109,81.906L477.859,81.625C477.953,82.323 478.224,82.859 478.672,83.234C479.12,83.599 479.745,83.781 480.547,83.781C481.349,83.781 481.943,83.62 482.328,83.297C482.724,82.964 482.922,82.578 482.922,82.141C482.922,81.745 482.75,81.432 482.406,81.203C482.167,81.047 481.568,80.849 480.609,80.609C479.318,80.276 478.422,79.995 477.922,79.766C477.432,79.526 477.057,79.198 476.797,78.781C476.536,78.354 476.406,77.885 476.406,77.375C476.406,76.917 476.51,76.49 476.719,76.094C476.938,75.698 477.229,75.37 477.594,75.109C477.865,74.911 478.234,74.745 478.703,74.609C479.182,74.464 479.693,74.391 480.234,74.391C481.047,74.391 481.76,74.51 482.375,74.75C482.99,74.979 483.443,75.297 483.734,75.703C484.026,76.099 484.229,76.63 484.344,77.297L482.625,77.531C482.542,77 482.313,76.589 481.938,76.297C481.563,75.995 481.036,75.844 480.359,75.844C479.547,75.844 478.969,75.979 478.625,76.25C478.281,76.51 478.109,76.818 478.109,77.172C478.109,77.401 478.182,77.609 478.328,77.797C478.464,77.984 478.688,78.141 479,78.266C479.177,78.328 479.693,78.474 480.547,78.703C481.797,79.036 482.667,79.313 483.156,79.531C483.646,79.74 484.031,80.047 484.313,80.453C484.594,80.849 484.734,81.349 484.734,81.953C484.734,82.536 484.563,83.089 484.219,83.609C483.875,84.13 483.38,84.531 482.734,84.813C482.089,85.094 481.359,85.234 480.547,85.234C479.203,85.234 478.177,84.953 477.469,84.391C476.76,83.828 476.307,83 476.109,81.906Z" style="fill:white;fill-rule:nonzero;"/>
    <path d="M26.106,39.606L27.888,39.45C27.971,40.158 28.164,40.742 28.466,41.2C28.778,41.658 29.257,42.033 29.903,42.325C30.559,42.606 31.299,42.747 32.122,42.747C32.841,42.747 33.476,42.643 34.028,42.434C34.58,42.216 34.992,41.919 35.263,41.544C35.533,41.169 35.669,40.757 35.669,40.309C35.669,39.861 35.539,39.471 35.278,39.138C35.018,38.804 34.591,38.523 33.997,38.294C33.611,38.138 32.757,37.903 31.434,37.591C30.122,37.278 29.205,36.981 28.684,36.7C27.997,36.346 27.486,35.903 27.153,35.372C26.82,34.841 26.653,34.247 26.653,33.591C26.653,32.861 26.856,32.184 27.263,31.559C27.669,30.934 28.268,30.46 29.059,30.138C29.851,29.804 30.726,29.638 31.684,29.638C32.747,29.638 33.684,29.809 34.497,30.153C35.309,30.497 35.929,31.002 36.356,31.669C36.794,32.325 37.028,33.075 37.059,33.919L35.247,34.059C35.153,33.153 34.825,32.471 34.263,32.013C33.7,31.544 32.867,31.309 31.763,31.309C30.617,31.309 29.778,31.523 29.247,31.95C28.726,32.367 28.466,32.867 28.466,33.45C28.466,33.971 28.653,34.398 29.028,34.731C29.393,35.065 30.346,35.403 31.888,35.747C33.429,36.091 34.486,36.393 35.059,36.653C35.893,37.039 36.507,37.528 36.903,38.122C37.299,38.705 37.497,39.382 37.497,40.153C37.497,40.914 37.278,41.632 36.841,42.309C36.403,42.986 35.773,43.513 34.95,43.888C34.138,44.263 33.221,44.45 32.2,44.45C30.908,44.45 29.825,44.263 28.95,43.888C28.075,43.502 27.388,42.929 26.888,42.169C26.388,41.408 26.127,40.554 26.106,39.606ZM38.872,39.013C38.872,37.096 39.403,35.674 40.466,34.747C41.361,33.976 42.45,33.591 43.731,33.591C45.158,33.591 46.32,34.059 47.216,34.997C48.122,35.934 48.575,37.226 48.575,38.872C48.575,40.205 48.377,41.257 47.981,42.028C47.585,42.789 47.002,43.382 46.231,43.809C45.471,44.226 44.638,44.434 43.731,44.434C42.273,44.434 41.096,43.971 40.2,43.044C39.315,42.106 38.872,40.763 38.872,39.013ZM40.669,39.013C40.669,40.346 40.955,41.341 41.528,41.997C42.111,42.653 42.846,42.981 43.731,42.981C44.606,42.981 45.33,42.653 45.903,41.997C46.486,41.33 46.778,40.315 46.778,38.95C46.778,37.669 46.486,36.7 45.903,36.044C45.32,35.377 44.596,35.044 43.731,35.044C42.846,35.044 42.111,35.377 41.528,36.044C40.955,36.7 40.669,37.69 40.669,39.013ZM57.294,40.403L59.013,40.622C58.825,41.82 58.341,42.757 57.559,43.434C56.789,44.101 55.835,44.434 54.7,44.434C53.283,44.434 52.143,43.971 51.278,43.044C50.414,42.117 49.981,40.789 49.981,39.059C49.981,37.934 50.164,36.955 50.528,36.122C50.903,35.278 51.471,34.648 52.231,34.231C52.992,33.804 53.82,33.591 54.716,33.591C55.841,33.591 56.757,33.877 57.466,34.45C58.184,35.023 58.648,35.83 58.856,36.872L57.138,37.138C56.981,36.44 56.695,35.919 56.278,35.575C55.861,35.221 55.361,35.044 54.778,35.044C53.893,35.044 53.174,35.361 52.622,35.997C52.07,36.632 51.794,37.632 51.794,38.997C51.794,40.393 52.059,41.408 52.591,42.044C53.122,42.669 53.82,42.981 54.684,42.981C55.372,42.981 55.945,42.773 56.403,42.356C56.872,41.929 57.169,41.278 57.294,40.403ZM60.528,44.2L60.528,29.888L62.294,29.888L62.294,38.044L66.45,33.825L68.716,33.825L64.763,37.669L69.122,44.2L66.95,44.2L63.528,38.903L62.294,40.091L62.294,44.2L60.528,44.2ZM77.622,40.856L79.434,41.091C79.153,42.143 78.622,42.966 77.841,43.559C77.07,44.143 76.08,44.434 74.872,44.434C73.361,44.434 72.158,43.971 71.263,43.044C70.377,42.106 69.934,40.794 69.934,39.106C69.934,37.356 70.382,36.002 71.278,35.044C72.174,34.075 73.341,33.591 74.778,33.591C76.164,33.591 77.294,34.065 78.169,35.013C79.054,35.95 79.497,37.278 79.497,38.997C79.497,39.101 79.492,39.257 79.481,39.466L71.747,39.466C71.809,40.601 72.132,41.471 72.716,42.075C73.299,42.679 74.023,42.981 74.888,42.981C75.533,42.981 76.08,42.815 76.528,42.481C76.986,42.138 77.351,41.596 77.622,40.856ZM71.841,38.013L77.638,38.013C77.565,37.148 77.346,36.497 76.981,36.059C76.419,35.382 75.69,35.044 74.794,35.044C73.992,35.044 73.315,35.315 72.763,35.856C72.21,36.388 71.903,37.106 71.841,38.013ZM85.356,42.622L85.606,44.184C85.117,44.289 84.674,44.341 84.278,44.341C83.643,44.341 83.148,44.242 82.794,44.044C82.45,43.835 82.205,43.57 82.059,43.247C81.914,42.914 81.841,42.221 81.841,41.169L81.841,35.2L80.559,35.2L80.559,33.825L81.841,33.825L81.841,31.263L83.591,30.2L83.591,33.825L85.356,33.825L85.356,35.2L83.591,35.2L83.591,41.263C83.591,41.763 83.622,42.085 83.684,42.231C83.747,42.367 83.846,42.481 83.981,42.575C84.127,42.658 84.33,42.7 84.591,42.7C84.778,42.7 85.033,42.674 85.356,42.622ZM96.247,44.2L92.45,29.888L94.388,29.888L96.559,39.263C96.799,40.252 97.002,41.231 97.169,42.2C97.533,40.669 97.747,39.783 97.809,39.544L100.544,29.888L102.825,29.888L104.872,37.122C105.393,38.924 105.768,40.617 105.997,42.2C106.174,41.294 106.408,40.252 106.7,39.075L108.95,29.888L110.856,29.888L106.934,44.2L105.106,44.2L102.091,33.294C101.83,32.377 101.679,31.815 101.638,31.606C101.481,32.263 101.341,32.825 101.216,33.294L98.184,44.2L96.247,44.2ZM119.622,40.856L121.434,41.091C121.153,42.143 120.622,42.966 119.841,43.559C119.07,44.143 118.08,44.434 116.872,44.434C115.361,44.434 114.158,43.971 113.263,43.044C112.377,42.106 111.934,40.794 111.934,39.106C111.934,37.356 112.382,36.002 113.278,35.044C114.174,34.075 115.341,33.591 116.778,33.591C118.164,33.591 119.294,34.065 120.169,35.013C121.054,35.95 121.497,37.278 121.497,38.997C121.497,39.101 121.492,39.257 121.481,39.466L113.747,39.466C113.809,40.601 114.132,41.471 114.716,42.075C115.299,42.679 116.023,42.981 116.888,42.981C117.533,42.981 118.08,42.815 118.528,42.481C118.986,42.138 119.351,41.596 119.622,40.856ZM113.841,38.013L119.638,38.013C119.565,37.148 119.346,36.497 118.981,36.059C118.419,35.382 117.69,35.044 116.794,35.044C115.992,35.044 115.315,35.315 114.763,35.856C114.21,36.388 113.903,37.106 113.841,38.013ZM130.294,42.919C129.637,43.471 129.007,43.861 128.403,44.091C127.799,44.32 127.153,44.434 126.466,44.434C125.33,44.434 124.455,44.158 123.841,43.606C123.226,43.044 122.919,42.33 122.919,41.466C122.919,40.955 123.033,40.492 123.263,40.075C123.502,39.658 123.809,39.325 124.184,39.075C124.559,38.815 124.981,38.617 125.45,38.481C125.794,38.398 126.315,38.309 127.013,38.216C128.429,38.049 129.471,37.851 130.137,37.622C130.148,37.382 130.153,37.226 130.153,37.153C130.153,36.445 129.986,35.94 129.653,35.638C129.205,35.242 128.539,35.044 127.653,35.044C126.82,35.044 126.205,35.19 125.809,35.481C125.424,35.773 125.138,36.289 124.95,37.028L123.231,36.794C123.387,36.054 123.643,35.46 123.997,35.013C124.351,34.554 124.867,34.205 125.544,33.966C126.221,33.716 127.007,33.591 127.903,33.591C128.789,33.591 129.507,33.695 130.059,33.903C130.611,34.111 131.018,34.377 131.278,34.7C131.539,35.013 131.721,35.408 131.825,35.888C131.888,36.19 131.919,36.731 131.919,37.513L131.919,39.856C131.919,41.492 131.955,42.528 132.028,42.966C132.101,43.393 132.252,43.804 132.481,44.2L130.637,44.2C130.46,43.835 130.346,43.408 130.294,42.919ZM130.137,38.997C129.502,39.257 128.544,39.476 127.263,39.653C126.544,39.757 126.033,39.877 125.731,40.013C125.44,40.138 125.21,40.325 125.044,40.575C124.877,40.825 124.794,41.106 124.794,41.419C124.794,41.888 124.971,42.278 125.325,42.591C125.679,42.903 126.2,43.059 126.888,43.059C127.565,43.059 128.164,42.914 128.684,42.622C129.216,42.32 129.606,41.914 129.856,41.403C130.044,40.997 130.137,40.408 130.137,39.638L130.137,38.997ZM138.356,42.622L138.606,44.184C138.117,44.289 137.674,44.341 137.278,44.341C136.643,44.341 136.148,44.242 135.794,44.044C135.45,43.835 135.205,43.57 135.059,43.247C134.914,42.914 134.841,42.221 134.841,41.169L134.841,35.2L133.559,35.2L133.559,33.825L134.841,33.825L134.841,31.263L136.591,30.2L136.591,33.825L138.356,33.825L138.356,35.2L136.591,35.2L136.591,41.263C136.591,41.763 136.622,42.085 136.684,42.231C136.747,42.367 136.846,42.481 136.981,42.575C137.127,42.658 137.33,42.7 137.591,42.7C137.778,42.7 138.033,42.674 138.356,42.622ZM140.513,44.2L140.513,29.888L142.278,29.888L142.278,35.013C143.101,34.065 144.138,33.591 145.388,33.591C146.148,33.591 146.809,33.742 147.372,34.044C147.945,34.346 148.351,34.768 148.591,35.309C148.841,35.841 148.966,36.611 148.966,37.622L148.966,44.2L147.216,44.2L147.216,37.622C147.216,36.747 147.023,36.111 146.638,35.716C146.252,35.309 145.716,35.106 145.028,35.106C144.507,35.106 144.012,35.242 143.544,35.513C143.085,35.783 142.757,36.153 142.559,36.622C142.372,37.08 142.278,37.716 142.278,38.528L142.278,44.2L140.513,44.2ZM158.622,40.856L160.434,41.091C160.153,42.143 159.622,42.966 158.841,43.559C158.07,44.143 157.08,44.434 155.872,44.434C154.361,44.434 153.158,43.971 152.263,43.044C151.377,42.106 150.934,40.794 150.934,39.106C150.934,37.356 151.382,36.002 152.278,35.044C153.174,34.075 154.341,33.591 155.778,33.591C157.164,33.591 158.294,34.065 159.169,35.013C160.054,35.95 160.497,37.278 160.497,38.997C160.497,39.101 160.492,39.257 160.481,39.466L152.747,39.466C152.809,40.601 153.132,41.471 153.716,42.075C154.299,42.679 155.023,42.981 155.887,42.981C156.533,42.981 157.08,42.815 157.528,42.481C157.986,42.138 158.351,41.596 158.622,40.856ZM152.841,38.013L158.637,38.013C158.565,37.148 158.346,36.497 157.981,36.059C157.419,35.382 156.69,35.044 155.794,35.044C154.992,35.044 154.315,35.315 153.762,35.856C153.21,36.388 152.903,37.106 152.841,38.013ZM162.497,44.2L162.497,33.825L164.075,33.825L164.075,35.403C164.481,34.664 164.856,34.179 165.2,33.95C165.544,33.71 165.919,33.591 166.325,33.591C166.919,33.591 167.523,33.778 168.137,34.153L167.528,35.794C167.101,35.533 166.674,35.403 166.247,35.403C165.861,35.403 165.512,35.523 165.2,35.763C164.898,35.992 164.679,36.309 164.544,36.716C164.356,37.341 164.262,38.023 164.262,38.763L164.262,44.2L162.497,44.2ZM175.528,31.903L175.528,29.888L177.294,29.888L177.294,31.903L175.528,31.903ZM175.528,44.2L175.528,33.825L177.294,33.825L177.294,44.2L175.528,44.2ZM179.512,44.2L179.512,33.825L181.106,33.825L181.106,35.309C181.867,34.164 182.966,33.591 184.403,33.591C185.028,33.591 185.601,33.705 186.122,33.934C186.653,34.153 187.049,34.445 187.309,34.809C187.57,35.174 187.752,35.606 187.856,36.106C187.919,36.44 187.95,37.013 187.95,37.825L187.95,44.2L186.184,44.2L186.184,37.888C186.184,37.169 186.117,36.632 185.981,36.278C185.846,35.924 185.601,35.643 185.247,35.434C184.903,35.226 184.497,35.122 184.028,35.122C183.278,35.122 182.632,35.361 182.091,35.841C181.549,36.309 181.278,37.205 181.278,38.528L181.278,44.2L179.512,44.2ZM197.294,40.403L199.012,40.622C198.825,41.82 198.341,42.757 197.559,43.434C196.789,44.101 195.835,44.434 194.7,44.434C193.283,44.434 192.143,43.971 191.278,43.044C190.414,42.117 189.981,40.789 189.981,39.059C189.981,37.934 190.164,36.955 190.528,36.122C190.903,35.278 191.471,34.648 192.231,34.231C192.992,33.804 193.82,33.591 194.716,33.591C195.841,33.591 196.757,33.877 197.466,34.45C198.184,35.023 198.648,35.83 198.856,36.872L197.137,37.138C196.981,36.44 196.695,35.919 196.278,35.575C195.861,35.221 195.361,35.044 194.778,35.044C193.893,35.044 193.174,35.361 192.622,35.997C192.07,36.632 191.794,37.632 191.794,38.997C191.794,40.393 192.059,41.408 192.591,42.044C193.122,42.669 193.82,42.981 194.684,42.981C195.372,42.981 195.945,42.773 196.403,42.356C196.872,41.929 197.169,41.278 197.294,40.403ZM200.497,44.2L200.497,33.825L202.075,33.825L202.075,35.403C202.481,34.664 202.856,34.179 203.2,33.95C203.544,33.71 203.919,33.591 204.325,33.591C204.919,33.591 205.523,33.778 206.137,34.153L205.528,35.794C205.101,35.533 204.674,35.403 204.247,35.403C203.861,35.403 203.512,35.523 203.2,35.763C202.898,35.992 202.679,36.309 202.544,36.716C202.356,37.341 202.262,38.023 202.262,38.763L202.262,44.2L200.497,44.2ZM214.622,40.856L216.434,41.091C216.153,42.143 215.622,42.966 214.841,43.559C214.07,44.143 213.08,44.434 211.872,44.434C210.361,44.434 209.158,43.971 208.262,43.044C207.377,42.106 206.934,40.794 206.934,39.106C206.934,37.356 207.382,36.002 208.278,35.044C209.174,34.075 210.341,33.591 211.778,33.591C213.164,33.591 214.294,34.065 215.169,35.013C216.054,35.95 216.497,37.278 216.497,38.997C216.497,39.101 216.492,39.257 216.481,39.466L208.747,39.466C208.809,40.601 209.132,41.471 209.716,42.075C210.299,42.679 211.023,42.981 211.887,42.981C212.533,42.981 213.08,42.815 213.528,42.481C213.986,42.138 214.351,41.596 214.622,40.856ZM208.841,38.013L214.637,38.013C214.565,37.148 214.346,36.497 213.981,36.059C213.419,35.382 212.69,35.044 211.794,35.044C210.992,35.044 210.315,35.315 209.762,35.856C209.21,36.388 208.903,37.106 208.841,38.013ZM218.512,44.2L218.512,33.825L220.091,33.825L220.091,35.278C220.414,34.778 220.846,34.372 221.387,34.059C221.929,33.747 222.544,33.591 223.231,33.591C224.002,33.591 224.632,33.752 225.122,34.075C225.611,34.388 225.96,34.83 226.169,35.403C226.992,34.195 228.059,33.591 229.372,33.591C230.403,33.591 231.195,33.877 231.747,34.45C232.299,35.023 232.575,35.898 232.575,37.075L232.575,44.2L230.825,44.2L230.825,37.669C230.825,36.96 230.768,36.455 230.653,36.153C230.539,35.841 230.33,35.591 230.028,35.403C229.736,35.216 229.387,35.122 228.981,35.122C228.252,35.122 227.643,35.367 227.153,35.856C226.674,36.335 226.434,37.106 226.434,38.169L226.434,44.2L224.684,44.2L224.684,37.466C224.684,36.684 224.539,36.101 224.247,35.716C223.966,35.32 223.497,35.122 222.841,35.122C222.351,35.122 221.893,35.252 221.466,35.513C221.049,35.773 220.747,36.153 220.559,36.653C220.372,37.153 220.278,37.877 220.278,38.825L220.278,44.2L218.512,44.2ZM242.622,40.856L244.434,41.091C244.153,42.143 243.622,42.966 242.841,43.559C242.07,44.143 241.08,44.434 239.872,44.434C238.361,44.434 237.158,43.971 236.262,43.044C235.377,42.106 234.934,40.794 234.934,39.106C234.934,37.356 235.382,36.002 236.278,35.044C237.174,34.075 238.341,33.591 239.778,33.591C241.164,33.591 242.294,34.065 243.169,35.013C244.054,35.95 244.497,37.278 244.497,38.997C244.497,39.101 244.492,39.257 244.481,39.466L236.747,39.466C236.809,40.601 237.132,41.471 237.716,42.075C238.299,42.679 239.023,42.981 239.887,42.981C240.533,42.981 241.08,42.815 241.528,42.481C241.986,42.138 242.351,41.596 242.622,40.856ZM236.841,38.013L242.637,38.013C242.565,37.148 242.346,36.497 241.981,36.059C241.419,35.382 240.69,35.044 239.794,35.044C238.992,35.044 238.315,35.315 237.762,35.856C237.21,36.388 236.903,37.106 236.841,38.013ZM246.512,44.2L246.512,33.825L248.106,33.825L248.106,35.309C248.867,34.164 249.966,33.591 251.403,33.591C252.028,33.591 252.601,33.705 253.122,33.934C253.653,34.153 254.049,34.445 254.309,34.809C254.57,35.174 254.752,35.606 254.856,36.106C254.919,36.44 254.95,37.013 254.95,37.825L254.95,44.2L253.184,44.2L253.184,37.888C253.184,37.169 253.117,36.632 252.981,36.278C252.846,35.924 252.601,35.643 252.247,35.434C251.903,35.226 251.497,35.122 251.028,35.122C250.278,35.122 249.632,35.361 249.091,35.841C248.549,36.309 248.278,37.205 248.278,38.528L248.278,44.2L246.512,44.2ZM261.356,42.622L261.606,44.184C261.117,44.289 260.674,44.341 260.278,44.341C259.643,44.341 259.148,44.242 258.794,44.044C258.45,43.835 258.205,43.57 258.059,43.247C257.914,42.914 257.841,42.221 257.841,41.169L257.841,35.2L256.559,35.2L256.559,33.825L257.841,33.825L257.841,31.263L259.591,30.2L259.591,33.825L261.356,33.825L261.356,35.2L259.591,35.2L259.591,41.263C259.591,41.763 259.622,42.085 259.684,42.231C259.747,42.367 259.846,42.481 259.981,42.575C260.127,42.658 260.33,42.7 260.591,42.7C260.778,42.7 261.033,42.674 261.356,42.622ZM270.294,42.919C269.638,43.471 269.007,43.861 268.403,44.091C267.799,44.32 267.153,44.434 266.466,44.434C265.33,44.434 264.455,44.158 263.841,43.606C263.226,43.044 262.919,42.33 262.919,41.466C262.919,40.955 263.033,40.492 263.263,40.075C263.502,39.658 263.809,39.325 264.184,39.075C264.559,38.815 264.981,38.617 265.45,38.481C265.794,38.398 266.315,38.309 267.013,38.216C268.429,38.049 269.471,37.851 270.138,37.622C270.148,37.382 270.153,37.226 270.153,37.153C270.153,36.445 269.986,35.94 269.653,35.638C269.205,35.242 268.539,35.044 267.653,35.044C266.82,35.044 266.205,35.19 265.809,35.481C265.424,35.773 265.138,36.289 264.95,37.028L263.231,36.794C263.388,36.054 263.643,35.46 263.997,35.013C264.351,34.554 264.867,34.205 265.544,33.966C266.221,33.716 267.007,33.591 267.903,33.591C268.789,33.591 269.507,33.695 270.059,33.903C270.611,34.111 271.018,34.377 271.278,34.7C271.539,35.013 271.721,35.408 271.825,35.888C271.888,36.19 271.919,36.731 271.919,37.513L271.919,39.856C271.919,41.492 271.955,42.528 272.028,42.966C272.101,43.393 272.252,43.804 272.481,44.2L270.638,44.2C270.46,43.835 270.346,43.408 270.294,42.919ZM270.138,38.997C269.502,39.257 268.544,39.476 267.263,39.653C266.544,39.757 266.033,39.877 265.731,40.013C265.44,40.138 265.21,40.325 265.044,40.575C264.877,40.825 264.794,41.106 264.794,41.419C264.794,41.888 264.971,42.278 265.325,42.591C265.679,42.903 266.2,43.059 266.888,43.059C267.565,43.059 268.164,42.914 268.684,42.622C269.216,42.32 269.606,41.914 269.856,41.403C270.044,40.997 270.138,40.408 270.138,39.638L270.138,38.997ZM274.481,44.2L274.481,29.888L276.231,29.888L276.231,44.2L274.481,44.2ZM286.138,44.2L284.513,44.2L284.513,29.888L286.263,29.888L286.263,34.997C287.013,34.059 287.96,33.591 289.106,33.591C289.742,33.591 290.346,33.721 290.919,33.981C291.492,34.242 291.96,34.606 292.325,35.075C292.69,35.533 292.976,36.091 293.184,36.747C293.393,37.403 293.497,38.106 293.497,38.856C293.497,40.638 293.059,42.013 292.184,42.981C291.309,43.95 290.257,44.434 289.028,44.434C287.799,44.434 286.835,43.924 286.138,42.903L286.138,44.2ZM286.122,38.934C286.122,40.174 286.289,41.075 286.622,41.638C287.184,42.533 287.934,42.981 288.872,42.981C289.643,42.981 290.304,42.648 290.856,41.981C291.419,41.315 291.7,40.32 291.7,38.997C291.7,37.643 291.429,36.648 290.888,36.013C290.356,35.367 289.71,35.044 288.95,35.044C288.179,35.044 287.513,35.377 286.95,36.044C286.398,36.71 286.122,37.674 286.122,38.934ZM302.309,44.2L302.309,42.669C301.507,43.846 300.414,44.434 299.028,44.434C298.414,44.434 297.841,44.32 297.309,44.091C296.778,43.851 296.382,43.554 296.122,43.2C295.872,42.846 295.695,42.408 295.591,41.888C295.518,41.544 295.481,40.997 295.481,40.247L295.481,33.825L297.231,33.825L297.231,39.575C297.231,40.492 297.268,41.111 297.341,41.434C297.455,41.893 297.69,42.257 298.044,42.528C298.408,42.789 298.851,42.919 299.372,42.919C299.903,42.919 300.398,42.783 300.856,42.513C301.325,42.242 301.653,41.877 301.841,41.419C302.039,40.95 302.138,40.273 302.138,39.388L302.138,33.825L303.888,33.825L303.888,44.2L302.309,44.2ZM306.528,31.903L306.528,29.888L308.294,29.888L308.294,31.903L306.528,31.903ZM306.528,44.2L306.528,33.825L308.294,33.825L308.294,44.2L306.528,44.2ZM310.481,44.2L310.481,29.888L312.231,29.888L312.231,44.2L310.481,44.2ZM321.247,44.2L321.247,42.888C320.591,43.919 319.622,44.434 318.341,44.434C317.518,44.434 316.757,44.205 316.059,43.747C315.372,43.289 314.835,42.653 314.45,41.841C314.075,41.028 313.888,40.091 313.888,39.028C313.888,37.986 314.059,37.044 314.403,36.2C314.747,35.356 315.263,34.71 315.95,34.263C316.648,33.815 317.419,33.591 318.263,33.591C318.888,33.591 319.445,33.726 319.934,33.997C320.424,34.257 320.825,34.596 321.138,35.013L321.138,29.888L322.872,29.888L322.872,44.2L321.247,44.2ZM315.684,39.028C315.684,40.351 315.966,41.341 316.528,41.997C317.091,42.653 317.752,42.981 318.513,42.981C319.283,42.981 319.934,42.669 320.466,42.044C321.007,41.419 321.278,40.46 321.278,39.169C321.278,37.752 321.002,36.71 320.45,36.044C319.908,35.377 319.236,35.044 318.434,35.044C317.653,35.044 316.997,35.367 316.466,36.013C315.945,36.648 315.684,37.653 315.684,39.028ZM331.528,31.903L331.528,29.888L333.294,29.888L333.294,31.903L331.528,31.903ZM331.528,44.2L331.528,33.825L333.294,33.825L333.294,44.2L331.528,44.2ZM335.513,44.2L335.513,33.825L337.106,33.825L337.106,35.309C337.867,34.164 338.966,33.591 340.403,33.591C341.028,33.591 341.601,33.705 342.122,33.934C342.653,34.153 343.049,34.445 343.309,34.809C343.57,35.174 343.752,35.606 343.856,36.106C343.919,36.44 343.95,37.013 343.95,37.825L343.95,44.2L342.184,44.2L342.184,37.888C342.184,37.169 342.117,36.632 341.981,36.278C341.846,35.924 341.601,35.643 341.247,35.434C340.903,35.226 340.497,35.122 340.028,35.122C339.278,35.122 338.632,35.361 338.091,35.841C337.549,36.309 337.278,37.205 337.278,38.528L337.278,44.2L335.513,44.2ZM351.809,41.106L353.559,40.825C353.653,41.523 353.924,42.059 354.372,42.434C354.82,42.799 355.445,42.981 356.247,42.981C357.049,42.981 357.643,42.82 358.028,42.497C358.424,42.164 358.622,41.778 358.622,41.341C358.622,40.945 358.45,40.632 358.106,40.403C357.867,40.247 357.268,40.049 356.309,39.809C355.018,39.476 354.122,39.195 353.622,38.966C353.132,38.726 352.757,38.398 352.497,37.981C352.236,37.554 352.106,37.085 352.106,36.575C352.106,36.117 352.21,35.69 352.419,35.294C352.638,34.898 352.929,34.57 353.294,34.309C353.565,34.111 353.934,33.945 354.403,33.809C354.882,33.664 355.393,33.591 355.934,33.591C356.747,33.591 357.46,33.71 358.075,33.95C358.69,34.179 359.143,34.497 359.434,34.903C359.726,35.299 359.929,35.83 360.044,36.497L358.325,36.731C358.242,36.2 358.013,35.789 357.638,35.497C357.263,35.195 356.736,35.044 356.059,35.044C355.247,35.044 354.669,35.179 354.325,35.45C353.981,35.71 353.809,36.018 353.809,36.372C353.809,36.601 353.882,36.809 354.028,36.997C354.164,37.184 354.388,37.341 354.7,37.466C354.877,37.528 355.393,37.674 356.247,37.903C357.497,38.236 358.367,38.513 358.856,38.731C359.346,38.94 359.731,39.247 360.013,39.653C360.294,40.049 360.434,40.549 360.434,41.153C360.434,41.736 360.263,42.289 359.919,42.809C359.575,43.33 359.08,43.731 358.434,44.013C357.789,44.294 357.059,44.434 356.247,44.434C354.903,44.434 353.877,44.153 353.169,43.591C352.46,43.028 352.007,42.2 351.809,41.106ZM369.622,40.856L371.434,41.091C371.153,42.143 370.622,42.966 369.841,43.559C369.07,44.143 368.08,44.434 366.872,44.434C365.361,44.434 364.158,43.971 363.263,43.044C362.377,42.106 361.934,40.794 361.934,39.106C361.934,37.356 362.382,36.002 363.278,35.044C364.174,34.075 365.341,33.591 366.778,33.591C368.164,33.591 369.294,34.065 370.169,35.013C371.054,35.95 371.497,37.278 371.497,38.997C371.497,39.101 371.492,39.257 371.481,39.466L363.747,39.466C363.809,40.601 364.132,41.471 364.716,42.075C365.299,42.679 366.023,42.981 366.888,42.981C367.533,42.981 368.08,42.815 368.528,42.481C368.986,42.138 369.351,41.596 369.622,40.856ZM363.841,38.013L369.638,38.013C369.565,37.148 369.346,36.497 368.981,36.059C368.419,35.382 367.69,35.044 366.794,35.044C365.992,35.044 365.315,35.315 364.763,35.856C364.21,36.388 363.903,37.106 363.841,38.013ZM380.294,40.403L382.013,40.622C381.825,41.82 381.341,42.757 380.559,43.434C379.789,44.101 378.835,44.434 377.7,44.434C376.283,44.434 375.143,43.971 374.278,43.044C373.414,42.117 372.981,40.789 372.981,39.059C372.981,37.934 373.164,36.955 373.528,36.122C373.903,35.278 374.471,34.648 375.231,34.231C375.992,33.804 376.82,33.591 377.716,33.591C378.841,33.591 379.757,33.877 380.466,34.45C381.184,35.023 381.648,35.83 381.856,36.872L380.138,37.138C379.981,36.44 379.695,35.919 379.278,35.575C378.861,35.221 378.361,35.044 377.778,35.044C376.893,35.044 376.174,35.361 375.622,35.997C375.07,36.632 374.794,37.632 374.794,38.997C374.794,40.393 375.059,41.408 375.591,42.044C376.122,42.669 376.82,42.981 377.684,42.981C378.372,42.981 378.945,42.773 379.403,42.356C379.872,41.929 380.169,41.278 380.294,40.403ZM382.872,39.013C382.872,37.096 383.403,35.674 384.466,34.747C385.361,33.976 386.45,33.591 387.731,33.591C389.158,33.591 390.32,34.059 391.216,34.997C392.122,35.934 392.575,37.226 392.575,38.872C392.575,40.205 392.377,41.257 391.981,42.028C391.585,42.789 391.002,43.382 390.231,43.809C389.471,44.226 388.638,44.434 387.731,44.434C386.273,44.434 385.096,43.971 384.2,43.044C383.315,42.106 382.872,40.763 382.872,39.013ZM384.669,39.013C384.669,40.346 384.955,41.341 385.528,41.997C386.111,42.653 386.846,42.981 387.731,42.981C388.606,42.981 389.33,42.653 389.903,41.997C390.486,41.33 390.778,40.315 390.778,38.95C390.778,37.669 390.486,36.7 389.903,36.044C389.32,35.377 388.596,35.044 387.731,35.044C386.846,35.044 386.111,35.377 385.528,36.044C384.955,36.7 384.669,37.69 384.669,39.013ZM394.513,44.2L394.513,33.825L396.106,33.825L396.106,35.309C396.867,34.164 397.966,33.591 399.403,33.591C400.028,33.591 400.601,33.705 401.122,33.934C401.653,34.153 402.049,34.445 402.309,34.809C402.57,35.174 402.752,35.606 402.856,36.106C402.919,36.44 402.95,37.013 402.95,37.825L402.95,44.2L401.184,44.2L401.184,37.888C401.184,37.169 401.117,36.632 400.981,36.278C400.846,35.924 400.601,35.643 400.247,35.434C399.903,35.226 399.497,35.122 399.028,35.122C398.278,35.122 397.632,35.361 397.091,35.841C396.549,36.309 396.278,37.205 396.278,38.528L396.278,44.2L394.513,44.2ZM412.247,44.2L412.247,42.888C411.591,43.919 410.622,44.434 409.341,44.434C408.518,44.434 407.757,44.205 407.059,43.747C406.372,43.289 405.835,42.653 405.45,41.841C405.075,41.028 404.888,40.091 404.888,39.028C404.888,37.986 405.059,37.044 405.403,36.2C405.747,35.356 406.263,34.71 406.95,34.263C407.648,33.815 408.419,33.591 409.263,33.591C409.888,33.591 410.445,33.726 410.934,33.997C411.424,34.257 411.825,34.596 412.138,35.013L412.138,29.888L413.872,29.888L413.872,44.2L412.247,44.2ZM406.684,39.028C406.684,40.351 406.966,41.341 407.528,41.997C408.091,42.653 408.752,42.981 409.513,42.981C410.283,42.981 410.934,42.669 411.466,42.044C412.007,41.419 412.278,40.46 412.278,39.169C412.278,37.752 412.002,36.71 411.45,36.044C410.908,35.377 410.236,35.044 409.434,35.044C408.653,35.044 407.997,35.367 407.466,36.013C406.945,36.648 406.684,37.653 406.684,39.028ZM415.809,41.106L417.559,40.825C417.653,41.523 417.924,42.059 418.372,42.434C418.82,42.799 419.445,42.981 420.247,42.981C421.049,42.981 421.643,42.82 422.028,42.497C422.424,42.164 422.622,41.778 422.622,41.341C422.622,40.945 422.45,40.632 422.106,40.403C421.867,40.247 421.268,40.049 420.309,39.809C419.018,39.476 418.122,39.195 417.622,38.966C417.132,38.726 416.757,38.398 416.497,37.981C416.236,37.554 416.106,37.085 416.106,36.575C416.106,36.117 416.21,35.69 416.419,35.294C416.638,34.898 416.929,34.57 417.294,34.309C417.565,34.111 417.934,33.945 418.403,33.809C418.882,33.664 419.393,33.591 419.934,33.591C420.747,33.591 421.46,33.71 422.075,33.95C422.69,34.179 423.143,34.497 423.434,34.903C423.726,35.299 423.929,35.83 424.044,36.497L422.325,36.731C422.242,36.2 422.013,35.789 421.638,35.497C421.263,35.195 420.736,35.044 420.059,35.044C419.247,35.044 418.669,35.179 418.325,35.45C417.981,35.71 417.809,36.018 417.809,36.372C417.809,36.601 417.882,36.809 418.028,36.997C418.164,37.184 418.388,37.341 418.7,37.466C418.877,37.528 419.393,37.674 420.247,37.903C421.497,38.236 422.367,38.513 422.856,38.731C423.346,38.94 423.731,39.247 424.013,39.653C424.294,40.049 424.434,40.549 424.434,41.153C424.434,41.736 424.263,42.289 423.919,42.809C423.575,43.33 423.08,43.731 422.434,44.013C421.789,44.294 421.059,44.434 420.247,44.434C418.903,44.434 417.877,44.153 417.169,43.591C416.46,43.028 416.007,42.2 415.809,41.106Z" style="fill:white;fill-rule:nonzero;"/>
</svg>
