<svg version="1.1" viewBox="0.0 0.0 788.0 504.0" fill="none" stroke="none" stroke-linecap="square" stroke-miterlimit="10" width="788" height="504" xmlns:xlink="http://www.w3.org/1999/xlink" xmlns="http://www.w3.org/2000/svg"><path fill="#ffffff" d="M0 0L788.0 0L788.0 504.0L0 504.0L0 0Z" fill-rule="nonzero"/><path stroke="#333333" stroke-width="1.0" stroke-linecap="butt" d="M55.5 471.5L762.5 471.5" fill-rule="nonzero"/><path stroke="#cccccc" stroke-width="1.0" stroke-linecap="butt" d="M55.5 382.5L762.5 382.5" fill-rule="nonzero"/><path stroke="#cccccc" stroke-width="1.0" stroke-linecap="butt" d="M55.5 292.5L762.5 292.5" fill-rule="nonzero"/><path stroke="#cccccc" stroke-width="1.0" stroke-linecap="butt" d="M55.5 203.5L762.5 203.5" fill-rule="nonzero"/><path stroke="#cccccc" stroke-width="1.0" stroke-linecap="butt" d="M55.5 113.5L762.5 113.5" fill-rule="nonzero"/><clipPath id="id_0"><path d="M55.2 113.8L762.8 113.8L762.8 471.8L55.2 471.8L55.2 113.8Z" clip-rule="nonzero"/></clipPath><path stroke="#000000" stroke-width="0.0" stroke-linecap="butt" stroke-opacity="0.0" clip-path="url(#id_0)" d="M408.0 472.0L239.0 472.0L239.0 242.0C239.0 240.89543 239.89543 240.0 241.0 240.0L406.0 240.0C407.10458 240.0 408.0 240.89543 408.0 242.0Z" fill-rule="nonzero"/><path fill="#4285f4" clip-path="url(#id_0)" d="M408.0 472.0L239.0 472.0L239.0 242.0C239.0 240.89543 239.89543 240.0 241.0 240.0L406.0 240.0C407.10458 240.0 408.0 240.89543 408.0 242.0Z" fill-rule="nonzero"/><path stroke="#000000" stroke-width="0.0" stroke-linecap="butt" stroke-opacity="0.0" clip-path="url(#id_0)" d="M578.0 472.0L409.0 472.0L409.0 135.0C409.0 133.89543 409.89542 133.0 411.0 133.0L576.0 133.0C577.10455 133.0 578.0 133.89543 578.0 135.0Z" fill-rule="nonzero"/><path fill="#ea4335" clip-path="url(#id_0)" d="M578.0 472.0L409.0 472.0L409.0 135.0C409.0 133.89543 409.89542 133.0 411.0 133.0L576.0 133.0C577.10455 133.0 578.0 133.89543 578.0 135.0Z" fill-rule="nonzero"/><path stroke="#4285f4" stroke-width="3.0" stroke-linejoin="round" stroke-linecap="round" d="M314.5625 252.97537Q314.5625 254.88162 313.90625 255.81912Q313.26562 256.741 311.875 256.741Q310.51562 256.741 309.85938 255.83475Q309.20312 254.9285 309.17188 253.116L309.17188 251.6785Q309.17188 249.78787 309.8125 248.88162Q310.46875 247.95975 311.85938 247.95975Q313.23438 247.95975 313.89062 248.85037Q314.54688 249.72537 314.5625 251.56912L314.5625 252.97537ZM313.46875 251.491Q313.46875 250.116 313.07812 249.491Q312.70312 248.85037 311.85938 248.85037Q311.03125 248.85037 310.64062 249.491Q310.26562 250.116 310.26562 251.41287L310.26562 253.14725Q310.26562 254.52225 310.65625 255.19412Q311.0625 255.85037 311.875 255.85037Q312.67188 255.85037 313.0625 255.22537Q313.45312 254.60037 313.46875 253.27225L313.46875 251.491ZM316.34375 256.0535Q316.34375 255.77225 316.5 255.58475Q316.67188 255.39725 317.0 255.39725Q317.34375 255.39725 317.51562 255.58475Q317.6875 255.77225 317.6875 256.0535Q317.6875 256.31912 317.51562 256.50662Q317.34375 256.6785 317.0 256.6785Q316.67188 256.6785 316.5 256.50662Q316.34375 256.31912 316.34375 256.0535ZM323.46875 248.08475L323.46875 248.991L323.26562 248.991Q322.0 249.02225 321.25 249.75662Q320.5 250.47537 320.375 251.78787Q321.0625 251.02225 322.21875 251.02225Q323.32812 251.02225 324.0 251.8035Q324.67188 252.58475 324.67188 253.83475Q324.67188 255.14725 323.95312 255.94412Q323.23438 256.741 322.01562 256.741Q320.79688 256.741 320.03125 255.8035Q319.28125 254.85037 319.28125 253.366L319.28125 252.95975Q319.28125 250.60037 320.28125 249.35037Q321.28125 248.10037 323.26562 248.08475L323.46875 248.08475ZM322.04688 251.9285Q321.48438 251.9285 321.01562 252.25662Q320.54688 252.58475 320.35938 253.10037L320.35938 253.491Q320.35938 254.5535 320.82812 255.19412Q321.3125 255.83475 322.01562 255.83475Q322.75 255.83475 323.17188 255.3035Q323.59375 254.75662 323.59375 253.88162Q323.59375 253.00662 323.17188 252.47537Q322.75 251.9285 322.04688 251.9285ZM330.78125 253.75662L331.96875 253.75662L331.96875 254.63162L330.78125 254.63162L330.78125 256.616L329.70312 256.616L329.70312 254.63162L325.8125 254.63162L325.8125 253.991L329.625 248.08475L330.78125 248.08475L330.78125 253.75662ZM327.04688 253.75662L329.70312 253.75662L329.70312 249.56912L329.5625 249.8035L327.04688 253.75662ZM338.39062 250.3035Q338.39062 250.94412 338.04688 251.44412Q337.70312 251.94412 337.14062 252.22537Q337.79688 252.50662 338.1875 253.06912Q338.57812 253.616 338.57812 254.31912Q338.57812 255.41287 337.82812 256.08475Q337.09375 256.741 335.875 256.741Q334.64062 256.741 333.89062 256.08475Q333.15625 255.41287 333.15625 254.31912Q333.15625 253.616 333.53125 253.06912Q333.90625 252.50662 334.57812 252.22537Q334.01562 251.94412 333.6875 251.44412Q333.35938 250.94412 333.35938 250.3035Q333.35938 249.22537 334.04688 248.60037Q334.73438 247.95975 335.875 247.95975Q337.0 247.95975 337.6875 248.60037Q338.39062 249.22537 338.39062 250.3035ZM337.5 254.28787Q337.5 253.56912 337.04688 253.13162Q336.59375 252.6785 335.85938 252.6785Q335.125 252.6785 334.67188 253.13162Q334.23438 253.56912 334.23438 254.3035Q334.23438 255.02225 334.67188 255.44412Q335.10938 255.85037 335.875 255.85037Q336.625 255.85037 337.0625 255.4285Q337.5 255.00662 337.5 254.28787ZM335.875 248.85037Q335.23438 248.85037 334.82812 249.25662Q334.4375 249.64725 334.4375 250.33475Q334.4375 250.97537 334.82812 251.38162Q335.21875 251.78787 335.85938 251.78787Q336.51562 251.78787 336.90625 251.38162Q337.29688 250.97537 337.29688 250.33475Q337.29688 249.6785 336.89062 249.27225Q336.48438 248.85037 335.875 248.85037Z" fill-rule="nonzero"/><path fill="#ffffff" d="M314.5625 252.97537Q314.5625 254.88162 313.90625 255.81912Q313.26562 256.741 311.875 256.741Q310.51562 256.741 309.85938 255.83475Q309.20312 254.9285 309.17188 253.116L309.17188 251.6785Q309.17188 249.78787 309.8125 248.88162Q310.46875 247.95975 311.85938 247.95975Q313.23438 247.95975 313.89062 248.85037Q314.54688 249.72537 314.5625 251.56912L314.5625 252.97537ZM313.46875 251.491Q313.46875 250.116 313.07812 249.491Q312.70312 248.85037 311.85938 248.85037Q311.03125 248.85037 310.64062 249.491Q310.26562 250.116 310.26562 251.41287L310.26562 253.14725Q310.26562 254.52225 310.65625 255.19412Q311.0625 255.85037 311.875 255.85037Q312.67188 255.85037 313.0625 255.22537Q313.45312 254.60037 313.46875 253.27225L313.46875 251.491ZM316.34375 256.0535Q316.34375 255.77225 316.5 255.58475Q316.67188 255.39725 317.0 255.39725Q317.34375 255.39725 317.51562 255.58475Q317.6875 255.77225 317.6875 256.0535Q317.6875 256.31912 317.51562 256.50662Q317.34375 256.6785 317.0 256.6785Q316.67188 256.6785 316.5 256.50662Q316.34375 256.31912 316.34375 256.0535ZM323.46875 248.08475L323.46875 248.991L323.26562 248.991Q322.0 249.02225 321.25 249.75662Q320.5 250.47537 320.375 251.78787Q321.0625 251.02225 322.21875 251.02225Q323.32812 251.02225 324.0 251.8035Q324.67188 252.58475 324.67188 253.83475Q324.67188 255.14725 323.95312 255.94412Q323.23438 256.741 322.01562 256.741Q320.79688 256.741 320.03125 255.8035Q319.28125 254.85037 319.28125 253.366L319.28125 252.95975Q319.28125 250.60037 320.28125 249.35037Q321.28125 248.10037 323.26562 248.08475L323.46875 248.08475ZM322.04688 251.9285Q321.48438 251.9285 321.01562 252.25662Q320.54688 252.58475 320.35938 253.10037L320.35938 253.491Q320.35938 254.5535 320.82812 255.19412Q321.3125 255.83475 322.01562 255.83475Q322.75 255.83475 323.17188 255.3035Q323.59375 254.75662 323.59375 253.88162Q323.59375 253.00662 323.17188 252.47537Q322.75 251.9285 322.04688 251.9285ZM330.78125 253.75662L331.96875 253.75662L331.96875 254.63162L330.78125 254.63162L330.78125 256.616L329.70312 256.616L329.70312 254.63162L325.8125 254.63162L325.8125 253.991L329.625 248.08475L330.78125 248.08475L330.78125 253.75662ZM327.04688 253.75662L329.70312 253.75662L329.70312 249.56912L329.5625 249.8035L327.04688 253.75662ZM338.39062 250.3035Q338.39062 250.94412 338.04688 251.44412Q337.70312 251.94412 337.14062 252.22537Q337.79688 252.50662 338.1875 253.06912Q338.57812 253.616 338.57812 254.31912Q338.57812 255.41287 337.82812 256.08475Q337.09375 256.741 335.875 256.741Q334.64062 256.741 333.89062 256.08475Q333.15625 255.41287 333.15625 254.31912Q333.15625 253.616 333.53125 253.06912Q333.90625 252.50662 334.57812 252.22537Q334.01562 251.94412 333.6875 251.44412Q333.35938 250.94412 333.35938 250.3035Q333.35938 249.22537 334.04688 248.60037Q334.73438 247.95975 335.875 247.95975Q337.0 247.95975 337.6875 248.60037Q338.39062 249.22537 338.39062 250.3035ZM337.5 254.28787Q337.5 253.56912 337.04688 253.13162Q336.59375 252.6785 335.85938 252.6785Q335.125 252.6785 334.67188 253.13162Q334.23438 253.56912 334.23438 254.3035Q334.23438 255.02225 334.67188 255.44412Q335.10938 255.85037 335.875 255.85037Q336.625 255.85037 337.0625 255.4285Q337.5 255.00662 337.5 254.28787ZM335.875 248.85037Q335.23438 248.85037 334.82812 249.25662Q334.4375 249.64725 334.4375 250.33475Q334.4375 250.97537 334.82812 251.38162Q335.21875 251.78787 335.85938 251.78787Q336.51562 251.78787 336.90625 251.38162Q337.29688 250.97537 337.29688 250.33475Q337.29688 249.6785 336.89062 249.27225Q336.48438 248.85037 335.875 248.85037Z" fill-rule="nonzero"/><path stroke="#ea4335" stroke-width="3.0" stroke-linejoin="round" stroke-linecap="round" d="M484.5625 145.93338Q484.5625 147.83963 483.90625 148.77713Q483.26562 149.699 481.875 149.699Q480.51562 149.699 479.85938 148.79276Q479.20312 147.8865 479.17188 146.074L479.17188 144.6365Q479.17188 142.74588 479.8125 141.83963Q480.46875 140.91776 481.85938 140.91776Q483.23438 140.91776 483.89062 141.80838Q484.54688 142.68338 484.5625 144.52713L484.5625 145.93338ZM483.46875 144.449Q483.46875 143.074 483.07812 142.449Q482.70312 141.80838 481.85938 141.80838Q481.03125 141.80838 480.64062 142.449Q480.26562 143.074 480.26562 144.37088L480.26562 146.10526Q480.26562 147.48026 480.65625 148.15213Q481.0625 148.80838 481.875 148.80838Q482.67188 148.80838 483.0625 148.18338Q483.45312 147.55838 483.46875 146.23026L483.46875 144.449ZM486.34375 149.0115Q486.34375 148.73026 486.5 148.54276Q486.67188 148.35526 487.0 148.35526Q487.34375 148.35526 487.51562 148.54276Q487.6875 148.73026 487.6875 149.0115Q487.6875 149.27713 487.51562 149.46463Q487.34375 149.6365 487.0 149.6365Q486.67188 149.6365 486.5 149.46463Q486.34375 149.27713 486.34375 149.0115ZM493.35938 145.824Q493.03125 146.23026 492.54688 146.48026Q492.07812 146.71463 491.51562 146.71463Q490.78125 146.71463 490.23438 146.35526Q489.6875 145.99588 489.39062 145.33963Q489.09375 144.66776 489.09375 143.87088Q489.09375 143.02713 489.40625 142.33963Q489.73438 141.65213 490.32812 141.29276Q490.9375 140.91776 491.73438 140.91776Q493.0 140.91776 493.71875 141.87088Q494.45312 142.824 494.45312 144.449L494.45312 144.7615Q494.45312 147.2615 493.46875 148.40213Q492.48438 149.54276 490.5 149.574L490.28125 149.574L490.28125 148.66776L490.51562 148.66776Q491.85938 148.6365 492.57812 147.96463Q493.29688 147.29276 493.35938 145.824ZM491.6875 145.824Q492.23438 145.824 492.6875 145.49588Q493.15625 145.15213 493.375 144.66776L493.375 144.23026Q493.375 143.16776 492.90625 142.49588Q492.4375 141.824 491.73438 141.824Q491.01562 141.824 490.57812 142.37088Q490.15625 142.91776 490.15625 143.824Q490.15625 144.699 490.5625 145.2615Q490.98438 145.824 491.6875 145.824ZM500.78125 146.71463L501.96875 146.71463L501.96875 147.58963L500.78125 147.58963L500.78125 149.574L499.70312 149.574L499.70312 147.58963L495.8125 147.58963L495.8125 146.949L499.625 141.04276L500.78125 141.04276L500.78125 146.71463ZM497.04688 146.71463L499.70312 146.71463L499.70312 142.52713L499.5625 142.7615L497.04688 146.71463ZM508.71875 141.65213L505.1875 149.574L504.04688 149.574L507.5625 141.93338L502.95312 141.93338L502.95312 141.04276L508.71875 141.04276L508.71875 141.65213Z" fill-rule="nonzero"/><path fill="#ffffff" d="M484.5625 145.93338Q484.5625 147.83963 483.90625 148.77713Q483.26562 149.699 481.875 149.699Q480.51562 149.699 479.85938 148.79276Q479.20312 147.8865 479.17188 146.074L479.17188 144.6365Q479.17188 142.74588 479.8125 141.83963Q480.46875 140.91776 481.85938 140.91776Q483.23438 140.91776 483.89062 141.80838Q484.54688 142.68338 484.5625 144.52713L484.5625 145.93338ZM483.46875 144.449Q483.46875 143.074 483.07812 142.449Q482.70312 141.80838 481.85938 141.80838Q481.03125 141.80838 480.64062 142.449Q480.26562 143.074 480.26562 144.37088L480.26562 146.10526Q480.26562 147.48026 480.65625 148.15213Q481.0625 148.80838 481.875 148.80838Q482.67188 148.80838 483.0625 148.18338Q483.45312 147.55838 483.46875 146.23026L483.46875 144.449ZM486.34375 149.0115Q486.34375 148.73026 486.5 148.54276Q486.67188 148.35526 487.0 148.35526Q487.34375 148.35526 487.51562 148.54276Q487.6875 148.73026 487.6875 149.0115Q487.6875 149.27713 487.51562 149.46463Q487.34375 149.6365 487.0 149.6365Q486.67188 149.6365 486.5 149.46463Q486.34375 149.27713 486.34375 149.0115ZM493.35938 145.824Q493.03125 146.23026 492.54688 146.48026Q492.07812 146.71463 491.51562 146.71463Q490.78125 146.71463 490.23438 146.35526Q489.6875 145.99588 489.39062 145.33963Q489.09375 144.66776 489.09375 143.87088Q489.09375 143.02713 489.40625 142.33963Q489.73438 141.65213 490.32812 141.29276Q490.9375 140.91776 491.73438 140.91776Q493.0 140.91776 493.71875 141.87088Q494.45312 142.824 494.45312 144.449L494.45312 144.7615Q494.45312 147.2615 493.46875 148.40213Q492.48438 149.54276 490.5 149.574L490.28125 149.574L490.28125 148.66776L490.51562 148.66776Q491.85938 148.6365 492.57812 147.96463Q493.29688 147.29276 493.35938 145.824ZM491.6875 145.824Q492.23438 145.824 492.6875 145.49588Q493.15625 145.15213 493.375 144.66776L493.375 144.23026Q493.375 143.16776 492.90625 142.49588Q492.4375 141.824 491.73438 141.824Q491.01562 141.824 490.57812 142.37088Q490.15625 142.91776 490.15625 143.824Q490.15625 144.699 490.5625 145.2615Q490.98438 145.824 491.6875 145.824ZM500.78125 146.71463L501.96875 146.71463L501.96875 147.58963L500.78125 147.58963L500.78125 149.574L499.70312 149.574L499.70312 147.58963L495.8125 147.58963L495.8125 146.949L499.625 141.04276L500.78125 141.04276L500.78125 146.71463ZM497.04688 146.71463L499.70312 146.71463L499.70312 142.52713L499.5625 142.7615L497.04688 146.71463ZM508.71875 141.65213L505.1875 149.574L504.04688 149.574L507.5625 141.93338L502.95312 141.93338L502.95312 141.04276L508.71875 141.04276L508.71875 141.65213Z" fill-rule="nonzero"/><path fill="#000000" d="M25.7 471.5656Q25.7 470.03436 26.0125 469.1125Q26.325 468.175 26.934376 467.675Q27.559376 467.175 28.496876 467.175Q29.184376 467.175 29.7 467.45624Q30.23125 467.7375 30.575 468.26874Q30.91875 468.78436 31.10625 469.53436Q31.29375 470.28436 31.29375 471.5656Q31.29375 473.08124 30.98125 474.0031Q30.684376 474.925 30.059376 475.4406Q29.45 475.9406 28.496876 475.9406Q27.2625 475.9406 26.54375 475.05Q25.7 473.9875 25.7 471.5656ZM26.778126 471.5656Q26.778126 473.675 27.278126 474.3781Q27.778126 475.08124 28.496876 475.08124Q29.23125 475.08124 29.715626 474.3781Q30.215626 473.675 30.215626 471.5656Q30.215626 469.4406 29.715626 468.7531Q29.23125 468.05 28.48125 468.05Q27.7625 468.05 27.325 468.65936Q26.778126 469.4406 26.778126 471.5656ZM33.29375 475.8L33.29375 474.59686L34.496876 474.59686L34.496876 475.8L33.29375 475.8ZM35.7 471.5656Q35.7 470.03436 36.0125 469.1125Q36.325 468.175 36.934376 467.675Q37.559376 467.175 38.496876 467.175Q39.184376 467.175 39.7 467.45624Q40.23125 467.7375 40.575 468.26874Q40.91875 468.78436 41.10625 469.53436Q41.29375 470.28436 41.29375 471.5656Q41.29375 473.08124 40.98125 474.0031Q40.684376 474.925 40.059376 475.4406Q39.45 475.9406 38.496876 475.9406Q37.2625 475.9406 36.54375 475.05Q35.7 473.9875 35.7 471.5656ZM36.778126 471.5656Q36.778126 473.675 37.278126 474.3781Q37.778126 475.08124 38.496876 475.08124Q39.23125 475.08124 39.715626 474.3781Q40.215626 473.675 40.215626 471.5656Q40.215626 469.4406 39.715626 468.7531Q39.23125 468.05 38.48125 468.05Q37.7625 468.05 37.325 468.65936Q36.778126 469.4406 36.778126 471.5656ZM42.7 471.5656Q42.7 470.03436 43.0125 469.1125Q43.325 468.175 43.934376 467.675Q44.559376 467.175 45.496876 467.175Q46.184376 467.175 46.7 467.45624Q47.23125 467.7375 47.575 468.26874Q47.91875 468.78436 48.10625 469.53436Q48.29375 470.28436 48.29375 471.5656Q48.29375 473.08124 47.98125 474.0031Q47.684376 474.925 47.059376 475.4406Q46.45 475.9406 45.496876 475.9406Q44.2625 475.9406 43.54375 475.05Q42.7 473.9875 42.7 471.5656ZM43.778126 471.5656Q43.778126 473.675 44.278126 474.3781Q44.778126 475.08124 45.496876 475.08124Q46.23125 475.08124 46.715626 474.3781Q47.215626 473.675 47.215626 471.5656Q47.215626 469.4406 46.715626 468.7531Q46.23125 468.05 45.48125 468.05Q44.7625 468.05 44.325 468.65936Q43.778126 469.4406 43.778126 471.5656Z" fill-rule="nonzero"/><path fill="#000000" d="M25.7 382.0656Q25.7 380.53436 26.0125 379.6125Q26.325 378.675 26.934376 378.175Q27.559376 377.675 28.496876 377.675Q29.184376 377.675 29.7 377.95624Q30.23125 378.2375 30.575 378.76874Q30.91875 379.28436 31.10625 380.03436Q31.29375 380.78436 31.29375 382.0656Q31.29375 383.58124 30.98125 384.5031Q30.684376 385.425 30.059376 385.9406Q29.45 386.4406 28.496876 386.4406Q27.2625 386.4406 26.54375 385.55Q25.7 384.4875 25.7 382.0656ZM26.778126 382.0656Q26.778126 384.175 27.278126 384.8781Q27.778126 385.58124 28.496876 385.58124Q29.23125 385.58124 29.715626 384.8781Q30.215626 384.175 30.215626 382.0656Q30.215626 379.9406 29.715626 379.2531Q29.23125 378.55 28.48125 378.55Q27.7625 378.55 27.325 379.15936Q26.778126 379.9406 26.778126 382.0656ZM33.29375 386.3L33.29375 385.09686L34.496876 385.09686L34.496876 386.3L33.29375 386.3ZM41.246876 385.28436L41.246876 386.3L35.559376 386.3Q35.559376 385.925 35.684376 385.5656Q35.903126 384.9875 36.371876 384.425Q36.85625 383.8625 37.7625 383.1281Q39.16875 381.97186 39.653126 381.3Q40.153126 380.6281 40.153126 380.03436Q40.153126 379.40936 39.7 378.9875Q39.246876 378.55 38.528126 378.55Q37.7625 378.55 37.309376 379.0031Q36.85625 379.45624 36.840626 380.26874L35.7625 380.15936Q35.871876 378.9406 36.590626 378.3156Q37.325 377.675 38.559376 377.675Q39.79375 377.675 40.5125 378.3625Q41.23125 379.05 41.23125 380.0656Q41.23125 380.58124 41.0125 381.08124Q40.809376 381.5656 40.309376 382.1281Q39.825 382.675 38.7 383.6281Q37.746876 384.425 37.465626 384.72186Q37.2 385.0031 37.028126 385.28436L41.246876 385.28436ZM42.7 384.05L43.809376 383.95624Q43.934376 384.76874 44.371876 385.175Q44.825 385.58124 45.465626 385.58124Q46.215626 385.58124 46.746876 385.0031Q47.278126 384.425 47.278126 383.4875Q47.278126 382.58124 46.7625 382.0656Q46.2625 381.53436 45.434376 381.53436Q44.934376 381.53436 44.5125 381.76874Q44.10625 382.0031 43.871876 382.3625L42.8875 382.2375L43.715626 377.83124L47.996876 377.83124L47.996876 378.83124L44.559376 378.83124L44.10625 381.14374Q44.871876 380.59686 45.715626 380.59686Q46.840626 380.59686 47.60625 381.3781Q48.3875 382.15936 48.3875 383.39374Q48.3875 384.55 47.715626 385.40936Q46.8875 386.4406 45.465626 386.4406Q44.29375 386.4406 43.54375 385.78436Q42.809376 385.1281 42.7 384.05Z" fill-rule="nonzero"/><path fill="#000000" d="M25.7 292.5656Q25.7 291.03436 26.0125 290.1125Q26.325 289.175 26.934376 288.675Q27.559376 288.175 28.496876 288.175Q29.184376 288.175 29.7 288.45624Q30.23125 288.7375 30.575 289.26874Q30.91875 289.78436 31.10625 290.53436Q31.29375 291.28436 31.29375 292.5656Q31.29375 294.08124 30.98125 295.0031Q30.684376 295.925 30.059376 296.4406Q29.45 296.9406 28.496876 296.9406Q27.2625 296.9406 26.54375 296.05Q25.7 294.9875 25.7 292.5656ZM26.778126 292.5656Q26.778126 294.675 27.278126 295.3781Q27.778126 296.08124 28.496876 296.08124Q29.23125 296.08124 29.715626 295.3781Q30.215626 294.675 30.215626 292.5656Q30.215626 290.4406 29.715626 289.7531Q29.23125 289.05 28.48125 289.05Q27.7625 289.05 27.325 289.65936Q26.778126 290.4406 26.778126 292.5656ZM33.29375 296.8L33.29375 295.59686L34.496876 295.59686L34.496876 296.8L33.29375 296.8ZM35.7 294.55L36.809376 294.45624Q36.934376 295.26874 37.371876 295.675Q37.825 296.08124 38.465626 296.08124Q39.215626 296.08124 39.746876 295.5031Q40.278126 294.925 40.278126 293.9875Q40.278126 293.08124 39.7625 292.5656Q39.2625 292.03436 38.434376 292.03436Q37.934376 292.03436 37.5125 292.26874Q37.10625 292.5031 36.871876 292.8625L35.8875 292.7375L36.715626 288.33124L40.996876 288.33124L40.996876 289.33124L37.559376 289.33124L37.10625 291.64374Q37.871876 291.09686 38.715626 291.09686Q39.840626 291.09686 40.60625 291.8781Q41.3875 292.65936 41.3875 293.89374Q41.3875 295.05 40.715626 295.90936Q39.8875 296.9406 38.465626 296.9406Q37.29375 296.9406 36.54375 296.28436Q35.809376 295.6281 35.7 294.55ZM42.7 292.5656Q42.7 291.03436 43.0125 290.1125Q43.325 289.175 43.934376 288.675Q44.559376 288.175 45.496876 288.175Q46.184376 288.175 46.7 288.45624Q47.23125 288.7375 47.575 289.26874Q47.91875 289.78436 48.10625 290.53436Q48.29375 291.28436 48.29375 292.5656Q48.29375 294.08124 47.98125 295.0031Q47.684376 295.925 47.059376 296.4406Q46.45 296.9406 45.496876 296.9406Q44.2625 296.9406 43.54375 296.05Q42.7 294.9875 42.7 292.5656ZM43.778126 292.5656Q43.778126 294.675 44.278126 295.3781Q44.778126 296.08124 45.496876 296.08124Q46.23125 296.08124 46.715626 295.3781Q47.215626 294.675 47.215626 292.5656Q47.215626 290.4406 46.715626 289.7531Q46.23125 289.05 45.48125 289.05Q44.7625 289.05 44.325 289.65936Q43.778126 290.4406 43.778126 292.5656Z" fill-rule="nonzero"/><path fill="#000000" d="M25.7 203.06563Q25.7 201.53438 26.0125 200.6125Q26.325 199.675 26.934376 199.175Q27.559376 198.675 28.496876 198.675Q29.184376 198.675 29.7 198.95625Q30.23125 199.2375 30.575 199.76875Q30.91875 200.28438 31.10625 201.03438Q31.29375 201.78438 31.29375 203.06563Q31.29375 204.58125 30.98125 205.50313Q30.684376 206.425 30.059376 206.94063Q29.45 207.44063 28.496876 207.44063Q27.2625 207.44063 26.54375 206.55Q25.7 205.4875 25.7 203.06563ZM26.778126 203.06563Q26.778126 205.175 27.278126 205.87813Q27.778126 206.58125 28.496876 206.58125Q29.23125 206.58125 29.715626 205.87813Q30.215626 205.175 30.215626 203.06563Q30.215626 200.94063 29.715626 200.25313Q29.23125 199.55 28.48125 199.55Q27.7625 199.55 27.325 200.15938Q26.778126 200.94063 26.778126 203.06563ZM33.29375 207.3L33.29375 206.09688L34.496876 206.09688L34.496876 207.3L33.29375 207.3ZM35.7625 199.83125L35.7625 198.81563L41.325 198.81563L41.325 199.64375Q40.5125 200.51875 39.7 201.97188Q38.903126 203.40938 38.465626 204.94063Q38.1375 206.01875 38.059376 207.3L36.965626 207.3Q36.98125 206.28438 37.35625 204.84688Q37.746876 203.40938 38.45 202.08125Q39.16875 200.75313 39.98125 199.83125L35.7625 199.83125ZM42.7 205.05L43.809376 204.95625Q43.934376 205.76875 44.371876 206.175Q44.825 206.58125 45.465626 206.58125Q46.215626 206.58125 46.746876 206.00313Q47.278126 205.425 47.278126 204.4875Q47.278126 203.58125 46.7625 203.06563Q46.2625 202.53438 45.434376 202.53438Q44.934376 202.53438 44.5125 202.76875Q44.10625 203.00313 43.871876 203.3625L42.8875 203.2375L43.715626 198.83125L47.996876 198.83125L47.996876 199.83125L44.559376 199.83125L44.10625 202.14375Q44.871876 201.59688 45.715626 201.59688Q46.840626 201.59688 47.60625 202.37813Q48.3875 203.15938 48.3875 204.39375Q48.3875 205.55 47.715626 206.40938Q46.8875 207.44063 45.465626 207.44063Q44.29375 207.44063 43.54375 206.78438Q42.809376 206.12813 42.7 205.05Z" fill-rule="nonzero"/><path fill="#000000" d="M29.66875 117.8L28.621876 117.8L28.621876 111.08125Q28.23125 111.44063 27.60625 111.81563Q26.996876 112.175 26.5125 112.34688L26.5125 111.33125Q27.3875 110.90938 28.04375 110.33125Q28.715626 109.7375 28.996876 109.175L29.66875 109.175L29.66875 117.8ZM33.29375 117.8L33.29375 116.59688L34.496876 116.59688L34.496876 117.8L33.29375 117.8ZM35.7 113.56563Q35.7 112.03438 36.0125 111.1125Q36.325 110.175 36.934376 109.675Q37.559376 109.175 38.496876 109.175Q39.184376 109.175 39.7 109.45625Q40.23125 109.7375 40.575 110.26875Q40.91875 110.78438 41.10625 111.53438Q41.29375 112.28438 41.29375 113.56563Q41.29375 115.08125 40.98125 116.00313Q40.684376 116.925 40.059376 117.44063Q39.45 117.94063 38.496876 117.94063Q37.2625 117.94063 36.54375 117.05Q35.7 115.9875 35.7 113.56563ZM36.778126 113.56563Q36.778126 115.675 37.278126 116.37813Q37.778126 117.08125 38.496876 117.08125Q39.23125 117.08125 39.715626 116.37813Q40.215626 115.675 40.215626 113.56563Q40.215626 111.44063 39.715626 110.75313Q39.23125 110.05 38.48125 110.05Q37.7625 110.05 37.325 110.65938Q36.778126 111.44063 36.778126 113.56563ZM42.7 113.56563Q42.7 112.03438 43.0125 111.1125Q43.325 110.175 43.934376 109.675Q44.559376 109.175 45.496876 109.175Q46.184376 109.175 46.7 109.45625Q47.23125 109.7375 47.575 110.26875Q47.91875 110.78438 48.10625 111.53438Q48.29375 112.28438 48.29375 113.56563Q48.29375 115.08125 47.98125 116.00313Q47.684376 116.925 47.059376 117.44063Q46.45 117.94063 45.496876 117.94063Q44.2625 117.94063 43.54375 117.05Q42.7 115.9875 42.7 113.56563ZM43.778126 113.56563Q43.778126 115.675 44.278126 116.37813Q44.778126 117.08125 45.496876 117.08125Q46.23125 117.08125 46.715626 116.37813Q47.215626 115.675 47.215626 113.56563Q47.215626 111.44063 46.715626 110.75313Q46.23125 110.05 45.48125 110.05Q44.7625 110.05 44.325 110.65938Q43.778126 111.44063 43.778126 113.56563Z" fill-rule="nonzero"/><path fill="#4285f4" d="M302.5 73.0C302.5 72.447716 302.94772 72.0 303.5 72.0L313.5 72.0C314.05228 72.0 314.5 72.447716 314.5 73.0L314.5 83.0C314.5 83.552284 314.05228 84.0 313.5 84.0L303.5 84.0C302.94772 84.0 302.5 83.552284 302.5 83.0Z" fill-rule="nonzero"/><path fill="#1a1a1a" d="M323.96875 85.0L323.96875 70.6875L325.85938 70.6875L325.85938 83.3125L332.90625 83.3125L332.90625 85.0L323.96875 85.0ZM334.82812 72.703125L334.82812 70.6875L336.59375 70.6875L336.59375 72.703125L334.82812 72.703125ZM334.82812 85.0L334.82812 74.625L336.59375 74.625L336.59375 85.0L334.82812 85.0ZM338.8125 85.0L338.8125 74.625L340.40625 74.625L340.40625 76.109375Q341.54688 74.390625 343.70312 74.390625Q344.64062 74.390625 345.42188 74.734375Q346.21875 75.0625 346.60938 75.609375Q347.0 76.15625 347.15625 76.90625Q347.25 77.40625 347.25 78.625L347.25 85.0L345.48438 85.0L345.48438 78.6875Q345.48438 77.609375 345.28125 77.078125Q345.07812 76.546875 344.54688 76.234375Q344.03125 75.921875 343.32812 75.921875Q342.20312 75.921875 341.39062 76.640625Q340.57812 77.34375 340.57812 79.328125L340.57812 85.0L338.8125 85.0ZM356.60938 85.0L356.60938 83.46875Q355.40625 85.234375 353.32812 85.234375Q352.40625 85.234375 351.60938 84.890625Q350.8125 84.53125 350.42188 84.0Q350.04688 83.46875 349.89062 82.6875Q349.78125 82.171875 349.78125 81.046875L349.78125 74.625L351.53125 74.625L351.53125 80.375Q351.53125 81.75 351.64062 82.234375Q351.8125 82.921875 352.34375 83.328125Q352.89062 83.71875 353.67188 83.71875Q354.46875 83.71875 355.15625 83.3125Q355.85938 82.90625 356.14062 82.21875Q356.4375 81.515625 356.4375 80.1875L356.4375 74.625L358.1875 74.625L358.1875 85.0L356.60938 85.0ZM359.64062 85.0L363.4375 79.609375L359.9375 74.625L362.125 74.625L363.71875 77.0625Q364.17188 77.75 364.4375 78.21875Q364.875 77.578125 365.23438 77.078125L366.98438 74.625L369.07812 74.625L365.5 79.515625L369.35938 85.0L367.20312 85.0L365.0625 81.78125L364.5 80.90625L361.78125 85.0L359.64062 85.0Z" fill-rule="nonzero"/><path fill="#ea4335" d="M385.5 73.0C385.5 72.447716 385.94772 72.0 386.5 72.0L396.5 72.0C397.05228 72.0 397.5 72.447716 397.5 73.0L397.5 83.0C397.5 83.552284 397.05228 84.0 396.5 84.0L386.5 84.0C385.94772 84.0 385.5 83.552284 385.5 83.0Z" fill-rule="nonzero"/><path fill="#1a1a1a" d="M409.54688 85.0L405.75 70.6875L407.6875 70.6875L409.85938 80.0625Q410.21875 81.546875 410.46875 83.0Q411.01562 80.703125 411.10938 80.34375L413.84375 70.6875L416.125 70.6875L418.17188 77.921875Q418.95312 80.625 419.29688 83.0Q419.5625 81.640625 420.0 79.875L422.25 70.6875L424.15625 70.6875L420.23438 85.0L418.40625 85.0L415.39062 74.09375Q415.0 72.71875 414.9375 72.40625Q414.70312 73.390625 414.51562 74.09375L411.48438 85.0L409.54688 85.0ZM425.82812 72.703125L425.82812 70.6875L427.59375 70.6875L427.59375 72.703125L425.82812 72.703125ZM425.82812 85.0L425.82812 74.625L427.59375 74.625L427.59375 85.0L425.82812 85.0ZM429.8125 85.0L429.8125 74.625L431.40625 74.625L431.40625 76.109375Q432.54688 74.390625 434.70312 74.390625Q435.64062 74.390625 436.42188 74.734375Q437.21875 75.0625 437.60938 75.609375Q438.0 76.15625 438.15625 76.90625Q438.25 77.40625 438.25 78.625L438.25 85.0L436.48438 85.0L436.48438 78.6875Q436.48438 77.609375 436.28125 77.078125Q436.07812 76.546875 435.54688 76.234375Q435.03125 75.921875 434.32812 75.921875Q433.20312 75.921875 432.39062 76.640625Q431.57812 77.34375 431.57812 79.328125L431.57812 85.0L429.8125 85.0ZM447.54688 85.0L447.54688 83.6875Q446.5625 85.234375 444.64062 85.234375Q443.40625 85.234375 442.35938 84.546875Q441.32812 83.859375 440.75 82.640625Q440.1875 81.421875 440.1875 79.828125Q440.1875 78.265625 440.70312 77.0Q441.21875 75.734375 442.25 75.0625Q443.29688 74.390625 444.5625 74.390625Q445.5 74.390625 446.23438 74.796875Q446.96875 75.1875 447.4375 75.8125L447.4375 70.6875L449.17188 70.6875L449.17188 85.0L447.54688 85.0ZM441.98438 79.828125Q441.98438 81.8125 442.82812 82.796875Q443.67188 83.78125 444.8125 83.78125Q445.96875 83.78125 446.76562 82.84375Q447.57812 81.90625 447.57812 79.96875Q447.57812 77.84375 446.75 76.84375Q445.9375 75.84375 444.73438 75.84375Q443.5625 75.84375 442.76562 76.8125Q441.98438 77.765625 441.98438 79.828125ZM451.17188 79.8125Q451.17188 76.9375 452.76562 75.546875Q454.10938 74.390625 456.03125 74.390625Q458.17188 74.390625 459.51562 75.796875Q460.875 77.203125 460.875 79.671875Q460.875 81.671875 460.28125 82.828125Q459.6875 83.96875 458.53125 84.609375Q457.39062 85.234375 456.03125 85.234375Q453.84375 85.234375 452.5 83.84375Q451.17188 82.4375 451.17188 79.8125ZM452.96875 79.8125Q452.96875 81.8125 453.82812 82.796875Q454.70312 83.78125 456.03125 83.78125Q457.34375 83.78125 458.20312 82.796875Q459.07812 81.796875 459.07812 79.75Q459.07812 77.828125 458.20312 76.84375Q457.32812 75.84375 456.03125 75.84375Q454.70312 75.84375 453.82812 76.84375Q452.96875 77.828125 452.96875 79.8125ZM464.73438 85.0L461.5625 74.625L463.375 74.625L465.03125 80.609375L465.64062 82.84375Q465.6875 82.671875 466.17188 80.703125L467.82812 74.625L469.64062 74.625L471.1875 80.640625L471.70312 82.625L472.29688 80.625L474.07812 74.625L475.78125 74.625L472.54688 85.0L470.71875 85.0L469.0625 78.78125L468.67188 77.015625L466.5625 85.0L464.73438 85.0ZM476.10938 81.90625L477.85938 81.625Q478.0 82.671875 478.67188 83.234375Q479.34375 83.78125 480.54688 83.78125Q481.75 83.78125 482.32812 83.296875Q482.92188 82.796875 482.92188 82.140625Q482.92188 81.546875 482.40625 81.203125Q482.04688 80.96875 480.60938 80.609375Q478.67188 80.109375 477.92188 79.765625Q477.1875 79.40625 476.79688 78.78125Q476.40625 78.140625 476.40625 77.375Q476.40625 76.6875 476.71875 76.09375Q477.04688 75.5 477.59375 75.109375Q478.0 74.8125 478.70312 74.609375Q479.42188 74.390625 480.23438 74.390625Q481.45312 74.390625 482.375 74.75Q483.29688 75.09375 483.73438 75.703125Q484.17188 76.296875 484.34375 77.296875L482.625 77.53125Q482.5 76.734375 481.9375 76.296875Q481.375 75.84375 480.35938 75.84375Q479.14062 75.84375 478.625 76.25Q478.10938 76.640625 478.10938 77.171875Q478.10938 77.515625 478.32812 77.796875Q478.53125 78.078125 479.0 78.265625Q479.26562 78.359375 480.54688 78.703125Q482.42188 79.203125 483.15625 79.53125Q483.89062 79.84375 484.3125 80.453125Q484.73438 81.046875 484.73438 81.953125Q484.73438 82.828125 484.21875 83.609375Q483.70312 84.390625 482.73438 84.8125Q481.76562 85.234375 480.54688 85.234375Q478.53125 85.234375 477.46875 84.390625Q476.40625 83.546875 476.10938 81.90625Z" fill-rule="nonzero"/><path fill="#757575" d="M26.10625 39.60625L27.8875 39.45Q28.0125 40.5125 28.465626 41.2Q28.934376 41.8875 29.903126 42.325Q30.8875 42.746876 32.121876 42.746876Q33.2 42.746876 34.028126 42.434376Q34.85625 42.10625 35.2625 41.54375Q35.66875 40.98125 35.66875 40.309376Q35.66875 39.6375 35.278126 39.1375Q34.8875 38.6375 33.996876 38.29375Q33.41875 38.059376 31.434376 37.590626Q29.465626 37.121876 28.684376 36.7Q27.653126 36.16875 27.153126 35.371876Q26.653126 34.575 26.653126 33.590626Q26.653126 32.496876 27.2625 31.559376Q27.871876 30.621876 29.059376 30.1375Q30.246876 29.6375 31.684376 29.6375Q33.278126 29.6375 34.496876 30.153126Q35.715626 30.66875 36.35625 31.66875Q37.0125 32.653126 37.059376 33.91875L35.246876 34.059376Q35.10625 32.7 34.2625 32.0125Q33.41875 31.309376 31.7625 31.309376Q30.04375 31.309376 29.246876 31.95Q28.465626 32.575 28.465626 33.45Q28.465626 34.23125 29.028126 34.73125Q29.575 35.23125 31.8875 35.746876Q34.2 36.2625 35.059376 36.653126Q36.309376 37.23125 36.903126 38.121876Q37.496876 38.996876 37.496876 40.153126Q37.496876 41.29375 36.840626 42.309376Q36.184376 43.325 34.95 43.8875Q33.73125 44.45 32.2 44.45Q30.2625 44.45 28.95 43.8875Q27.6375 43.309376 26.8875 42.16875Q26.1375 41.028126 26.10625 39.60625ZM38.871876 39.0125Q38.871876 36.1375 40.465626 34.746876Q41.809376 33.590626 43.73125 33.590626Q45.871876 33.590626 47.215626 34.996876Q48.575 36.403126 48.575 38.871876Q48.575 40.871876 47.98125 42.028126Q47.3875 43.16875 46.23125 43.809376Q45.090626 44.434376 43.73125 44.434376Q41.54375 44.434376 40.2 43.04375Q38.871876 41.6375 38.871876 39.0125ZM40.66875 39.0125Q40.66875 41.0125 41.528126 41.996876Q42.403126 42.98125 43.73125 42.98125Q45.04375 42.98125 45.903126 41.996876Q46.778126 40.996876 46.778126 38.95Q46.778126 37.028126 45.903126 36.04375Q45.028126 35.04375 43.73125 35.04375Q42.403126 35.04375 41.528126 36.04375Q40.66875 37.028126 40.66875 39.0125ZM57.29375 40.403126L59.0125 40.621876Q58.73125 42.41875 57.559376 43.434376Q56.403126 44.434376 54.7 44.434376Q52.575 44.434376 51.278126 43.04375Q49.98125 41.653126 49.98125 39.059376Q49.98125 37.371876 50.528126 36.121876Q51.090626 34.85625 52.23125 34.23125Q53.371876 33.590626 54.715626 33.590626Q56.403126 33.590626 57.465626 34.45Q58.54375 35.309376 58.85625 36.871876L57.1375 37.1375Q56.903126 36.090626 56.278126 35.575Q55.653126 35.04375 54.778126 35.04375Q53.45 35.04375 52.621876 35.996876Q51.79375 36.95 51.79375 38.996876Q51.79375 41.090626 52.590626 42.04375Q53.3875 42.98125 54.684376 42.98125Q55.715626 42.98125 56.403126 42.35625Q57.10625 41.715626 57.29375 40.403126ZM60.528126 44.2L60.528126 29.8875L62.29375 29.8875L62.29375 38.04375L66.45 33.825L68.71562 33.825L64.7625 37.66875L69.12187 44.2L66.95 44.2L63.528126 38.903126L62.29375 40.090626L62.29375 44.2L60.528126 44.2ZM77.62187 40.85625L79.43437 41.090626Q79.0125 42.66875 77.84062 43.559376Q76.68437 44.434376 74.87187 44.434376Q72.60625 44.434376 71.2625 43.04375Q69.93437 41.6375 69.93437 39.10625Q69.93437 36.48125 71.27812 35.04375Q72.62187 33.590626 74.77812 33.590626Q76.85625 33.590626 78.16875 35.0125Q79.49687 36.41875 79.49687 38.996876Q79.49687 39.153126 79.48125 39.465626L71.74687 39.465626Q71.84062 41.16875 72.71562 42.075Q73.59062 42.98125 74.8875 42.98125Q75.85625 42.98125 76.52812 42.48125Q77.21562 41.965626 77.62187 40.85625ZM71.84062 38.0125L77.6375 38.0125Q77.52812 36.715626 76.98125 36.059376Q76.1375 35.04375 74.79375 35.04375Q73.59062 35.04375 72.7625 35.85625Q71.93437 36.653126 71.84062 38.0125ZM85.35625 42.621876L85.60625 44.184376Q84.87187 44.340626 84.27812 44.340626Q83.325 44.340626 82.79375 44.04375Q82.27812 43.73125 82.05937 43.246876Q81.84062 42.746876 81.84062 41.16875L81.84062 35.2L80.55937 35.2L80.55937 33.825L81.84062 33.825L81.84062 31.2625L83.59062 30.2L83.59062 33.825L85.35625 33.825L85.35625 35.2L83.59062 35.2L83.59062 41.2625Q83.59062 42.0125 83.68437 42.23125Q83.77812 42.434376 83.98125 42.575Q84.2 42.7 84.59062 42.7Q84.87187 42.7 85.35625 42.621876ZM96.24687 44.2L92.45 29.8875L94.3875 29.8875L96.55937 39.2625Q96.91875 40.746876 97.16875 42.2Q97.71562 39.903126 97.80937 39.54375L100.54375 29.8875L102.825 29.8875L104.87187 37.121876Q105.65312 39.825 105.99687 42.2Q106.2625 40.840626 106.7 39.075L108.95 29.8875L110.85625 29.8875L106.93437 44.2L105.10625 44.2L102.09062 33.29375Q101.7 31.91875 101.6375 31.60625Q101.40312 32.590626 101.21562 33.29375L98.18437 44.2L96.24687 44.2ZM119.62187 40.85625L121.43437 41.090626Q121.0125 42.66875 119.84062 43.559376Q118.68437 44.434376 116.87187 44.434376Q114.60625 44.434376 113.2625 43.04375Q111.93437 41.6375 111.93437 39.10625Q111.93437 36.48125 113.27812 35.04375Q114.62187 33.590626 116.77812 33.590626Q118.85625 33.590626 120.16875 35.0125Q121.49687 36.41875 121.49687 38.996876Q121.49687 39.153126 121.48125 39.465626L113.74687 39.465626Q113.84062 41.16875 114.71562 42.075Q115.59062 42.98125 116.8875 42.98125Q117.85625 42.98125 118.52812 42.48125Q119.21562 41.965626 119.62187 40.85625ZM113.84062 38.0125L119.6375 38.0125Q119.52812 36.715626 118.98125 36.059376Q118.1375 35.04375 116.79375 35.04375Q115.59062 35.04375 114.7625 35.85625Q113.93437 36.653126 113.84062 38.0125ZM130.29375 42.91875Q129.30937 43.746876 128.40312 44.090626Q127.49687 44.434376 126.46562 44.434376Q124.7625 44.434376 123.84062 43.60625Q122.91875 42.7625 122.91875 41.465626Q122.91875 40.7 123.2625 40.075Q123.62187 39.45 124.18437 39.075Q124.74687 38.684376 125.45 38.48125Q125.96562 38.35625 127.0125 38.215626Q129.1375 37.965626 130.1375 37.621876Q130.15312 37.2625 130.15312 37.153126Q130.15312 36.090626 129.65312 35.6375Q128.98125 35.04375 127.65312 35.04375Q126.40312 35.04375 125.80937 35.48125Q125.23125 35.91875 124.95 37.028126L123.23125 36.79375Q123.46562 35.684376 123.99687 35.0125Q124.52812 34.325 125.54375 33.965626Q126.55937 33.590626 127.90312 33.590626Q129.23125 33.590626 130.05937 33.903126Q130.8875 34.215626 131.27812 34.7Q131.66875 35.16875 131.825 35.8875Q131.91875 36.340626 131.91875 37.5125L131.91875 39.85625Q131.91875 42.309376 132.02812 42.965626Q132.1375 43.60625 132.48125 44.2L130.6375 44.2Q130.37187 43.653126 130.29375 42.91875ZM130.1375 38.996876Q129.18437 39.3875 127.2625 39.653126Q126.18437 39.809376 125.73125 40.0125Q125.29375 40.2 125.04375 40.575Q124.79375 40.95 124.79375 41.41875Q124.79375 42.121876 125.325 42.590626Q125.85625 43.059376 126.8875 43.059376Q127.90312 43.059376 128.68437 42.621876Q129.48125 42.16875 129.85625 41.403126Q130.1375 40.79375 130.1375 39.6375L130.1375 38.996876ZM138.35625 42.621876L138.60625 44.184376Q137.87187 44.340626 137.27812 44.340626Q136.325 44.340626 135.79375 44.04375Q135.27812 43.73125 135.05937 43.246876Q134.84062 42.746876 134.84062 41.16875L134.84062 35.2L133.55937 35.2L133.55937 33.825L134.84062 33.825L134.84062 31.2625L136.59062 30.2L136.59062 33.825L138.35625 33.825L138.35625 35.2L136.59062 35.2L136.59062 41.2625Q136.59062 42.0125 136.68437 42.23125Q136.77812 42.434376 136.98125 42.575Q137.2 42.7 137.59062 42.7Q137.87187 42.7 138.35625 42.621876ZM140.5125 44.2L140.5125 29.8875L142.27812 29.8875L142.27812 35.0125Q143.5125 33.590626 145.3875 33.590626Q146.52812 33.590626 147.37187 34.04375Q148.23125 34.496876 148.59062 35.309376Q148.96562 36.10625 148.96562 37.621876L148.96562 44.2L147.21562 44.2L147.21562 37.621876Q147.21562 36.309376 146.6375 35.715626Q146.05937 35.10625 145.02812 35.10625Q144.24687 35.10625 143.54375 35.5125Q142.85625 35.91875 142.55937 36.621876Q142.27812 37.309376 142.27812 38.528126L142.27812 44.2L140.5125 44.2ZM158.62187 40.85625L160.43437 41.090626Q160.0125 42.66875 158.84062 43.559376Q157.68437 44.434376 155.87187 44.434376Q153.60625 44.434376 152.2625 43.04375Q150.93437 41.6375 150.93437 39.10625Q150.93437 36.48125 152.27812 35.04375Q153.62187 33.590626 155.77812 33.590626Q157.85625 33.590626 159.16875 35.0125Q160.49687 36.41875 160.49687 38.996876Q160.49687 39.153126 160.48125 39.465626L152.74687 39.465626Q152.84062 41.16875 153.71562 42.075Q154.59062 42.98125 155.8875 42.98125Q156.85625 42.98125 157.52812 42.48125Q158.21562 41.965626 158.62187 40.85625ZM152.84062 38.0125L158.6375 38.0125Q158.52812 36.715626 157.98125 36.059376Q157.1375 35.04375 155.79375 35.04375Q154.59062 35.04375 153.7625 35.85625Q152.93437 36.653126 152.84062 38.0125ZM162.49687 44.2L162.49687 33.825L164.075 33.825L164.075 35.403126Q164.68437 34.29375 165.2 33.95Q165.71562 33.590626 166.325 33.590626Q167.21562 33.590626 168.1375 34.153126L167.52812 35.79375Q166.8875 35.403126 166.24687 35.403126Q165.66875 35.403126 165.2 35.7625Q164.74687 36.10625 164.54375 36.715626Q164.2625 37.653126 164.2625 38.7625L164.2625 44.2L162.49687 44.2ZM175.52812 31.903126L175.52812 29.8875L177.29375 29.8875L177.29375 31.903126L175.52812 31.903126ZM175.52812 44.2L175.52812 33.825L177.29375 33.825L177.29375 44.2L175.52812 44.2ZM179.5125 44.2L179.5125 33.825L181.10625 33.825L181.10625 35.309376Q182.24687 33.590626 184.40312 33.590626Q185.34062 33.590626 186.12187 33.934376Q186.91875 34.2625 187.30937 34.809376Q187.7 35.35625 187.85625 36.10625Q187.95 36.60625 187.95 37.825L187.95 44.2L186.18437 44.2L186.18437 37.8875Q186.18437 36.809376 185.98125 36.278126Q185.77812 35.746876 185.24687 35.434376Q184.73125 35.121876 184.02812 35.121876Q182.90312 35.121876 182.09062 35.840626Q181.27812 36.54375 181.27812 38.528126L181.27812 44.2L179.5125 44.2ZM197.29375 40.403126L199.0125 40.621876Q198.73125 42.41875 197.55937 43.434376Q196.40312 44.434376 194.7 44.434376Q192.575 44.434376 191.27812 43.04375Q189.98125 41.653126 189.98125 39.059376Q189.98125 37.371876 190.52812 36.121876Q191.09062 34.85625 192.23125 34.23125Q193.37187 33.590626 194.71562 33.590626Q196.40312 33.590626 197.46562 34.45Q198.54375 35.309376 198.85625 36.871876L197.1375 37.1375Q196.90312 36.090626 196.27812 35.575Q195.65312 35.04375 194.77812 35.04375Q193.45 35.04375 192.62187 35.996876Q191.79375 36.95 191.79375 38.996876Q191.79375 41.090626 192.59062 42.04375Q193.3875 42.98125 194.68437 42.98125Q195.71562 42.98125 196.40312 42.35625Q197.10625 41.715626 197.29375 40.403126ZM200.49687 44.2L200.49687 33.825L202.075 33.825L202.075 35.403126Q202.68437 34.29375 203.2 33.95Q203.71562 33.590626 204.325 33.590626Q205.21562 33.590626 206.1375 34.153126L205.52812 35.79375Q204.8875 35.403126 204.24687 35.403126Q203.66875 35.403126 203.2 35.7625Q202.74687 36.10625 202.54375 36.715626Q202.2625 37.653126 202.2625 38.7625L202.2625 44.2L200.49687 44.2ZM214.62187 40.85625L216.43437 41.090626Q216.0125 42.66875 214.84062 43.559376Q213.68437 44.434376 211.87187 44.434376Q209.60625 44.434376 208.2625 43.04375Q206.93437 41.6375 206.93437 39.10625Q206.93437 36.48125 208.27812 35.04375Q209.62187 33.590626 211.77812 33.590626Q213.85625 33.590626 215.16875 35.0125Q216.49687 36.41875 216.49687 38.996876Q216.49687 39.153126 216.48125 39.465626L208.74687 39.465626Q208.84062 41.16875 209.71562 42.075Q210.59062 42.98125 211.8875 42.98125Q212.85625 42.98125 213.52812 42.48125Q214.21562 41.965626 214.62187 40.85625ZM208.84062 38.0125L214.6375 38.0125Q214.52812 36.715626 213.98125 36.059376Q213.1375 35.04375 211.79375 35.04375Q210.59062 35.04375 209.7625 35.85625Q208.93437 36.653126 208.84062 38.0125ZM218.5125 44.2L218.5125 33.825L220.09062 33.825L220.09062 35.278126Q220.575 34.528126 221.3875 34.059376Q222.2 33.590626 223.23125 33.590626Q224.3875 33.590626 225.12187 34.075Q225.85625 34.54375 226.16875 35.403126Q227.40312 33.590626 229.37187 33.590626Q230.91875 33.590626 231.74687 34.45Q232.575 35.309376 232.575 37.075L232.575 44.2L230.825 44.2L230.825 37.66875Q230.825 36.60625 230.65312 36.153126Q230.48125 35.684376 230.02812 35.403126Q229.59062 35.121876 228.98125 35.121876Q227.8875 35.121876 227.15312 35.85625Q226.43437 36.575 226.43437 38.16875L226.43437 44.2L224.68437 44.2L224.68437 37.465626Q224.68437 36.29375 224.24687 35.715626Q223.825 35.121876 222.84062 35.121876Q222.10625 35.121876 221.46562 35.5125Q220.84062 35.903126 220.55937 36.653126Q220.27812 37.403126 220.27812 38.825L220.27812 44.2L218.5125 44.2ZM242.62187 40.85625L244.43437 41.090626Q244.0125 42.66875 242.84062 43.559376Q241.68437 44.434376 239.87187 44.434376Q237.60625 44.434376 236.2625 43.04375Q234.93437 41.6375 234.93437 39.10625Q234.93437 36.48125 236.27812 35.04375Q237.62187 33.590626 239.77812 33.590626Q241.85625 33.590626 243.16875 35.0125Q244.49687 36.41875 244.49687 38.996876Q244.49687 39.153126 244.48125 39.465626L236.74687 39.465626Q236.84062 41.16875 237.71562 42.075Q238.59062 42.98125 239.8875 42.98125Q240.85625 42.98125 241.52812 42.48125Q242.21562 41.965626 242.62187 40.85625ZM236.84062 38.0125L242.6375 38.0125Q242.52812 36.715626 241.98125 36.059376Q241.1375 35.04375 239.79375 35.04375Q238.59062 35.04375 237.7625 35.85625Q236.93437 36.653126 236.84062 38.0125ZM246.5125 44.2L246.5125 33.825L248.10625 33.825L248.10625 35.309376Q249.24687 33.590626 251.40312 33.590626Q252.34062 33.590626 253.12187 33.934376Q253.91875 34.2625 254.30937 34.809376Q254.7 35.35625 254.85625 36.10625Q254.95 36.60625 254.95 37.825L254.95 44.2L253.18437 44.2L253.18437 37.8875Q253.18437 36.809376 252.98125 36.278126Q252.77812 35.746876 252.24687 35.434376Q251.73125 35.121876 251.02812 35.121876Q249.90312 35.121876 249.09062 35.840626Q248.27812 36.54375 248.27812 38.528126L248.27812 44.2L246.5125 44.2ZM261.35626 42.621876L261.60626 44.184376Q260.8719 44.340626 260.27814 44.340626Q259.325 44.340626 258.79376 44.04375Q258.27814 43.73125 258.0594 43.246876Q257.84064 42.746876 257.84064 41.16875L257.84064 35.2L256.5594 35.2L256.5594 33.825L257.84064 33.825L257.84064 31.2625L259.59064 30.2L259.59064 33.825L261.35626 33.825L261.35626 35.2L259.59064 35.2L259.59064 41.2625Q259.59064 42.0125 259.6844 42.23125Q259.77814 42.434376 259.98126 42.575Q260.2 42.7 260.59064 42.7Q260.8719 42.7 261.35626 42.621876ZM270.29376 42.91875Q269.3094 43.746876 268.40314 44.090626Q267.4969 44.434376 266.46564 44.434376Q264.7625 44.434376 263.84064 43.60625Q262.91876 42.7625 262.91876 41.465626Q262.91876 40.7 263.2625 40.075Q263.6219 39.45 264.1844 39.075Q264.7469 38.684376 265.45 38.48125Q265.96564 38.35625 267.0125 38.215626Q269.1375 37.965626 270.1375 37.621876Q270.15314 37.2625 270.15314 37.153126Q270.15314 36.090626 269.65314 35.6375Q268.98126 35.04375 267.65314 35.04375Q266.40314 35.04375 265.8094 35.48125Q265.23126 35.91875 264.95 37.028126L263.23126 36.79375Q263.46564 35.684376 263.9969 35.0125Q264.52814 34.325 265.54376 33.965626Q266.5594 33.590626 267.90314 33.590626Q269.23126 33.590626 270.0594 33.903126Q270.8875 34.215626 271.27814 34.7Q271.66876 35.16875 271.825 35.8875Q271.91876 36.340626 271.91876 37.5125L271.91876 39.85625Q271.91876 42.309376 272.02814 42.965626Q272.1375 43.60625 272.48126 44.2L270.6375 44.2Q270.3719 43.653126 270.29376 42.91875ZM270.1375 38.996876Q269.1844 39.3875 267.2625 39.653126Q266.1844 39.809376 265.73126 40.0125Q265.29376 40.2 265.04376 40.575Q264.79376 40.95 264.79376 41.41875Q264.79376 42.121876 265.325 42.590626Q265.85626 43.059376 266.8875 43.059376Q267.90314 43.059376 268.6844 42.621876Q269.48126 42.16875 269.85626 41.403126Q270.1375 40.79375 270.1375 39.6375L270.1375 38.996876ZM274.48126 44.2L274.48126 29.8875L276.23126 29.8875L276.23126 44.2L274.48126 44.2ZM286.1375 44.2L284.5125 44.2L284.5125 29.8875L286.2625 29.8875L286.2625 34.996876Q287.3875 33.590626 289.10626 33.590626Q290.0594 33.590626 290.91876 33.98125Q291.77814 34.371876 292.325 35.075Q292.8719 35.7625 293.1844 36.746876Q293.4969 37.73125 293.4969 38.85625Q293.4969 41.528126 292.1844 42.98125Q290.8719 44.434376 289.02814 44.434376Q287.1844 44.434376 286.1375 42.903126L286.1375 44.2ZM286.1219 38.934376Q286.1219 40.79375 286.6219 41.6375Q287.46564 42.98125 288.8719 42.98125Q290.02814 42.98125 290.85626 41.98125Q291.7 40.98125 291.7 38.996876Q291.7 36.965626 290.8875 36.0125Q290.09064 35.04375 288.95 35.04375Q287.79376 35.04375 286.95 36.04375Q286.1219 37.04375 286.1219 38.934376ZM302.3094 44.2L302.3094 42.66875Q301.10626 44.434376 299.02814 44.434376Q298.10626 44.434376 297.3094 44.090626Q296.5125 43.73125 296.1219 43.2Q295.7469 42.66875 295.59064 41.8875Q295.48126 41.371876 295.48126 40.246876L295.48126 33.825L297.23126 33.825L297.23126 39.575Q297.23126 40.95 297.34064 41.434376Q297.5125 42.121876 298.04376 42.528126Q298.59064 42.91875 299.3719 42.91875Q300.16876 42.91875 300.85626 42.5125Q301.5594 42.10625 301.84064 41.41875Q302.1375 40.715626 302.1375 39.3875L302.1375 33.825L303.8875 33.825L303.8875 44.2L302.3094 44.2ZM306.52814 31.903126L306.52814 29.8875L308.29376 29.8875L308.29376 31.903126L306.52814 31.903126ZM306.52814 44.2L306.52814 33.825L308.29376 33.825L308.29376 44.2L306.52814 44.2ZM310.48126 44.2L310.48126 29.8875L312.23126 29.8875L312.23126 44.2L310.48126 44.2ZM321.2469 44.2L321.2469 42.8875Q320.2625 44.434376 318.34064 44.434376Q317.10626 44.434376 316.0594 43.746876Q315.02814 43.059376 314.45 41.840626Q313.8875 40.621876 313.8875 39.028126Q313.8875 37.465626 314.40314 36.2Q314.91876 34.934376 315.95 34.2625Q316.9969 33.590626 318.2625 33.590626Q319.2 33.590626 319.9344 33.996876Q320.66876 34.3875 321.1375 35.0125L321.1375 29.8875L322.8719 29.8875L322.8719 44.2L321.2469 44.2ZM315.6844 39.028126Q315.6844 41.0125 316.52814 41.996876Q317.3719 42.98125 318.5125 42.98125Q319.66876 42.98125 320.46564 42.04375Q321.27814 41.10625 321.27814 39.16875Q321.27814 37.04375 320.45 36.04375Q319.6375 35.04375 318.4344 35.04375Q317.2625 35.04375 316.46564 36.0125Q315.6844 36.965626 315.6844 39.028126ZM331.52814 31.903126L331.52814 29.8875L333.29376 29.8875L333.29376 31.903126L331.52814 31.903126ZM331.52814 44.2L331.52814 33.825L333.29376 33.825L333.29376 44.2L331.52814 44.2ZM335.5125 44.2L335.5125 33.825L337.10626 33.825L337.10626 35.309376Q338.2469 33.590626 340.40314 33.590626Q341.34064 33.590626 342.1219 33.934376Q342.91876 34.2625 343.3094 34.809376Q343.7 35.35625 343.85626 36.10625Q343.95 36.60625 343.95 37.825L343.95 44.2L342.1844 44.2L342.1844 37.8875Q342.1844 36.809376 341.98126 36.278126Q341.77814 35.746876 341.2469 35.434376Q340.73126 35.121876 340.02814 35.121876Q338.90314 35.121876 338.09064 35.840626Q337.27814 36.54375 337.27814 38.528126L337.27814 44.2L335.5125 44.2ZM351.8094 41.10625L353.5594 40.825Q353.7 41.871876 354.3719 42.434376Q355.04376 42.98125 356.2469 42.98125Q357.45 42.98125 358.02814 42.496876Q358.6219 41.996876 358.6219 41.340626Q358.6219 40.746876 358.10626 40.403126Q357.7469 40.16875 356.3094 39.809376Q354.3719 39.309376 353.6219 38.965626Q352.8875 38.60625 352.4969 37.98125Q352.10626 37.340626 352.10626 36.575Q352.10626 35.8875 352.41876 35.29375Q352.7469 34.7 353.29376 34.309376Q353.7 34.0125 354.40314 33.809376Q355.1219 33.590626 355.9344 33.590626Q357.15314 33.590626 358.075 33.95Q358.9969 34.29375 359.4344 34.903126Q359.8719 35.496876 360.04376 36.496876L358.325 36.73125Q358.2 35.934376 357.6375 35.496876Q357.075 35.04375 356.0594 35.04375Q354.84064 35.04375 354.325 35.45Q353.8094 35.840626 353.8094 36.371876Q353.8094 36.715626 354.02814 36.996876Q354.23126 37.278126 354.7 37.465626Q354.96564 37.559376 356.2469 37.903126Q358.1219 38.403126 358.85626 38.73125Q359.59064 39.04375 360.0125 39.653126Q360.4344 40.246876 360.4344 41.153126Q360.4344 42.028126 359.91876 42.809376Q359.40314 43.590626 358.4344 44.0125Q357.46564 44.434376 356.2469 44.434376Q354.23126 44.434376 353.16876 43.590626Q352.10626 42.746876 351.8094 41.10625ZM369.6219 40.85625L371.4344 41.090626Q371.0125 42.66875 369.84064 43.559376Q368.6844 44.434376 366.8719 44.434376Q364.60626 44.434376 363.2625 43.04375Q361.9344 41.6375 361.9344 39.10625Q361.9344 36.48125 363.27814 35.04375Q364.6219 33.590626 366.77814 33.590626Q368.85626 33.590626 370.16876 35.0125Q371.4969 36.41875 371.4969 38.996876Q371.4969 39.153126 371.48126 39.465626L363.7469 39.465626Q363.84064 41.16875 364.71564 42.075Q365.59064 42.98125 366.8875 42.98125Q367.85626 42.98125 368.52814 42.48125Q369.21564 41.965626 369.6219 40.85625ZM363.84064 38.0125L369.6375 38.0125Q369.52814 36.715626 368.98126 36.059376Q368.1375 35.04375 366.79376 35.04375Q365.59064 35.04375 364.7625 35.85625Q363.9344 36.653126 363.84064 38.0125ZM380.29376 40.403126L382.0125 40.621876Q381.73126 42.41875 380.5594 43.434376Q379.40314 44.434376 377.7 44.434376Q375.575 44.434376 374.27814 43.04375Q372.98126 41.653126 372.98126 39.059376Q372.98126 37.371876 373.52814 36.121876Q374.09064 34.85625 375.23126 34.23125Q376.3719 33.590626 377.71564 33.590626Q379.40314 33.590626 380.46564 34.45Q381.54376 35.309376 381.85626 36.871876L380.1375 37.1375Q379.90314 36.090626 379.27814 35.575Q378.65314 35.04375 377.77814 35.04375Q376.45 35.04375 375.6219 35.996876Q374.79376 36.95 374.79376 38.996876Q374.79376 41.090626 375.59064 42.04375Q376.3875 42.98125 377.6844 42.98125Q378.71564 42.98125 379.40314 42.35625Q380.10626 41.715626 380.29376 40.403126ZM382.8719 39.0125Q382.8719 36.1375 384.46564 34.746876Q385.8094 33.590626 387.73126 33.590626Q389.8719 33.590626 391.21564 34.996876Q392.575 36.403126 392.575 38.871876Q392.575 40.871876 391.98126 42.028126Q391.3875 43.16875 390.23126 43.809376Q389.09064 44.434376 387.73126 44.434376Q385.54376 44.434376 384.2 43.04375Q382.8719 41.6375 382.8719 39.0125ZM384.66876 39.0125Q384.66876 41.0125 385.52814 41.996876Q386.40314 42.98125 387.73126 42.98125Q389.04376 42.98125 389.90314 41.996876Q390.77814 40.996876 390.77814 38.95Q390.77814 37.028126 389.90314 36.04375Q389.02814 35.04375 387.73126 35.04375Q386.40314 35.04375 385.52814 36.04375Q384.66876 37.028126 384.66876 39.0125ZM394.5125 44.2L394.5125 33.825L396.10626 33.825L396.10626 35.309376Q397.2469 33.590626 399.40314 33.590626Q400.34064 33.590626 401.1219 33.934376Q401.91876 34.2625 402.3094 34.809376Q402.7 35.35625 402.85626 36.10625Q402.95 36.60625 402.95 37.825L402.95 44.2L401.1844 44.2L401.1844 37.8875Q401.1844 36.809376 400.98126 36.278126Q400.77814 35.746876 400.2469 35.434376Q399.73126 35.121876 399.02814 35.121876Q397.90314 35.121876 397.09064 35.840626Q396.27814 36.54375 396.27814 38.528126L396.27814 44.2L394.5125 44.2ZM412.2469 44.2L412.2469 42.8875Q411.2625 44.434376 409.34064 44.434376Q408.10626 44.434376 407.0594 43.746876Q406.02814 43.059376 405.45 41.840626Q404.8875 40.621876 404.8875 39.028126Q404.8875 37.465626 405.40314 36.2Q405.91876 34.934376 406.95 34.2625Q407.9969 33.590626 409.2625 33.590626Q410.2 33.590626 410.9344 33.996876Q411.66876 34.3875 412.1375 35.0125L412.1375 29.8875L413.8719 29.8875L413.8719 44.2L412.2469 44.2ZM406.6844 39.028126Q406.6844 41.0125 407.52814 41.996876Q408.3719 42.98125 409.5125 42.98125Q410.66876 42.98125 411.46564 42.04375Q412.27814 41.10625 412.27814 39.16875Q412.27814 37.04375 411.45 36.04375Q410.6375 35.04375 409.4344 35.04375Q408.2625 35.04375 407.46564 36.0125Q406.6844 36.965626 406.6844 39.028126ZM415.8094 41.10625L417.5594 40.825Q417.7 41.871876 418.3719 42.434376Q419.04376 42.98125 420.2469 42.98125Q421.45 42.98125 422.02814 42.496876Q422.6219 41.996876 422.6219 41.340626Q422.6219 40.746876 422.10626 40.403126Q421.7469 40.16875 420.3094 39.809376Q418.3719 39.309376 417.6219 38.965626Q416.8875 38.60625 416.4969 37.98125Q416.10626 37.340626 416.10626 36.575Q416.10626 35.8875 416.41876 35.29375Q416.7469 34.7 417.29376 34.309376Q417.7 34.0125 418.40314 33.809376Q419.1219 33.590626 419.9344 33.590626Q421.15314 33.590626 422.075 33.95Q422.9969 34.29375 423.4344 34.903126Q423.8719 35.496876 424.04376 36.496876L422.325 36.73125Q422.2 35.934376 421.6375 35.496876Q421.075 35.04375 420.0594 35.04375Q418.84064 35.04375 418.325 35.45Q417.8094 35.840626 417.8094 36.371876Q417.8094 36.715626 418.02814 36.996876Q418.23126 37.278126 418.7 37.465626Q418.96564 37.559376 420.2469 37.903126Q422.1219 38.403126 422.85626 38.73125Q423.59064 39.04375 424.0125 39.653126Q424.4344 40.246876 424.4344 41.153126Q424.4344 42.028126 423.91876 42.809376Q423.40314 43.590626 422.4344 44.0125Q421.46564 44.434376 420.2469 44.434376Q418.23126 44.434376 417.16876 43.590626Q416.10626 42.746876 415.8094 41.10625Z" fill-rule="nonzero"/></svg>