<svg version="1.1" viewBox="0.0 0.0 788.0 504.0" fill="none" stroke="none" stroke-linecap="square" stroke-miterlimit="10" width="788" height="504" xmlns:xlink="http://www.w3.org/1999/xlink" xmlns="http://www.w3.org/2000/svg"><path fill="#ffffff" d="M0 0L788.0 0L788.0 504.0L0 504.0L0 0Z" fill-rule="nonzero"/><path stroke="#333333" stroke-width="1.0" stroke-linecap="butt" d="M52.5 471.5L762.5 471.5" fill-rule="nonzero"/><path stroke="#cccccc" stroke-width="1.0" stroke-linecap="butt" d="M52.5 400.5L762.5 400.5" fill-rule="nonzero"/><path stroke="#cccccc" stroke-width="1.0" stroke-linecap="butt" d="M52.5 328.5L762.5 328.5" fill-rule="nonzero"/><path stroke="#cccccc" stroke-width="1.0" stroke-linecap="butt" d="M52.5 257.5L762.5 257.5" fill-rule="nonzero"/><path stroke="#cccccc" stroke-width="1.0" stroke-linecap="butt" d="M52.5 185.5L762.5 185.5" fill-rule="nonzero"/><path stroke="#cccccc" stroke-width="1.0" stroke-linecap="butt" d="M52.5 113.5L762.5 113.5" fill-rule="nonzero"/><clipPath id="id_0"><path d="M52.2 113.8L762.8 113.8L762.8 471.8L52.2 471.8L52.2 113.8Z" clip-rule="nonzero"/></clipPath><path stroke="#000000" stroke-width="0.0" stroke-linecap="butt" stroke-opacity="0.0" clip-path="url(#id_0)" d="M407.0 472.0L237.0 472.0L237.0 205.0C237.0 203.89543 237.89543 203.0 239.0 203.0L405.0 203.0C406.10458 203.0 407.0 203.89543 407.0 205.0Z" fill-rule="nonzero"/><path fill="#4285f4" clip-path="url(#id_0)" d="M407.0 472.0L237.0 472.0L237.0 205.0C237.0 203.89543 237.89543 203.0 239.0 203.0L405.0 203.0C406.10458 203.0 407.0 203.89543 407.0 205.0Z" fill-rule="nonzero"/><path stroke="#000000" stroke-width="0.0" stroke-linecap="butt" stroke-opacity="0.0" clip-path="url(#id_0)" d="M578.0 472.0L408.0 472.0L408.0 152.0C408.0 150.89543 408.89542 150.0 410.0 150.0L576.0 150.0C577.10455 150.0 578.0 150.89543 578.0 152.0Z" fill-rule="nonzero"/><path fill="#ea4335" clip-path="url(#id_0)" d="M578.0 472.0L408.0 472.0L408.0 152.0C408.0 150.89543 408.89542 150.0 410.0 150.0L576.0 150.0C577.10455 150.0 578.0 150.89543 578.0 152.0Z" fill-rule="nonzero"/><path stroke="#4285f4" stroke-width="3.0" stroke-linejoin="round" stroke-linecap="round" d="M305.78125 214.55849L306.59375 214.55849Q307.375 214.54286 307.8125 214.15224Q308.25 213.76161 308.25 213.08974Q308.25 211.58974 306.75 211.58974Q306.04688 211.58974 305.625 211.99599Q305.21875 212.40224 305.21875 213.05849L304.125 213.05849Q304.125 212.04286 304.85938 211.37099Q305.60938 210.69911 306.75 210.69911Q307.95312 210.69911 308.64062 211.33974Q309.32812 211.98036 309.32812 213.12099Q309.32812 213.68349 308.96875 214.19911Q308.60938 214.71474 307.98438 214.98036Q308.6875 215.19911 309.0625 215.71474Q309.45312 216.23036 309.45312 216.98036Q309.45312 218.12099 308.70312 218.80849Q307.95312 219.48036 306.75 219.48036Q305.5625 219.48036 304.79688 218.82411Q304.04688 218.16786 304.04688 217.10536L305.14062 217.10536Q305.14062 217.77724 305.57812 218.18349Q306.01562 218.58974 306.76562 218.58974Q307.54688 218.58974 307.95312 218.18349Q308.375 217.76161 308.375 216.99599Q308.375 216.26161 307.92188 215.87099Q307.46875 215.46474 306.59375 215.44911L305.78125 215.44911L305.78125 214.55849ZM316.71875 211.43349L313.1875 219.35536L312.04688 219.35536L315.5625 211.71474L310.95312 211.71474L310.95312 210.82411L316.71875 210.82411L316.71875 211.43349ZM318.34375 218.79286Q318.34375 218.51161 318.5 218.32411Q318.67188 218.13661 319.0 218.13661Q319.34375 218.13661 319.51562 218.32411Q319.6875 218.51161 319.6875 218.79286Q319.6875 219.05849 319.51562 219.24599Q319.34375 219.41786 319.0 219.41786Q318.67188 219.41786 318.5 219.24599Q318.34375 219.05849 318.34375 218.79286ZM325.46875 210.82411L325.46875 211.73036L325.26562 211.73036Q324.0 211.76161 323.25 212.49599Q322.5 213.21474 322.375 214.52724Q323.0625 213.76161 324.21875 213.76161Q325.32812 213.76161 326.0 214.54286Q326.67188 215.32411 326.67188 216.57411Q326.67188 217.88661 325.95312 218.68349Q325.23438 219.48036 324.01562 219.48036Q322.79688 219.48036 322.03125 218.54286Q321.28125 217.58974 321.28125 216.10536L321.28125 215.69911Q321.28125 213.33974 322.28125 212.08974Q323.28125 210.83974 325.26562 210.82411L325.46875 210.82411ZM324.04688 214.66786Q323.48438 214.66786 323.01562 214.99599Q322.54688 215.32411 322.35938 215.83974L322.35938 216.23036Q322.35938 217.29286 322.82812 217.93349Q323.3125 218.57411 324.01562 218.57411Q324.75 218.57411 325.17188 218.04286Q325.59375 217.49599 325.59375 216.62099Q325.59375 215.74599 325.17188 215.21474Q324.75 214.66786 324.04688 214.66786ZM333.5625 215.71474Q333.5625 217.62099 332.90625 218.55849Q332.26562 219.48036 330.875 219.48036Q329.51562 219.48036 328.85938 218.57411Q328.20312 217.66786 328.17188 215.85536L328.17188 214.41786Q328.17188 212.52724 328.8125 211.62099Q329.46875 210.69911 330.85938 210.69911Q332.23438 210.69911 332.89062 211.58974Q333.54688 212.46474 333.5625 214.30849L333.5625 215.71474ZM332.46875 214.23036Q332.46875 212.85536 332.07812 212.23036Q331.70312 211.58974 330.85938 211.58974Q330.03125 211.58974 329.64062 212.23036Q329.26562 212.85536 329.26562 214.15224L329.26562 215.88661Q329.26562 217.26161 329.65625 217.93349Q330.0625 218.58974 330.875 218.58974Q331.67188 218.58974 332.0625 217.96474Q332.45312 217.33974 332.46875 216.01161L332.46875 214.23036ZM339.78125 216.49599L340.96875 216.49599L340.96875 217.37099L339.78125 217.37099L339.78125 219.35536L338.70312 219.35536L338.70312 217.37099L334.8125 217.37099L334.8125 216.73036L338.625 210.82411L339.78125 210.82411L339.78125 216.49599ZM336.04688 216.49599L338.70312 216.49599L338.70312 212.30849L338.5625 212.54286L336.04688 216.49599Z" fill-rule="nonzero"/><path fill="#ffffff" d="M305.78125 214.55849L306.59375 214.55849Q307.375 214.54286 307.8125 214.15224Q308.25 213.76161 308.25 213.08974Q308.25 211.58974 306.75 211.58974Q306.04688 211.58974 305.625 211.99599Q305.21875 212.40224 305.21875 213.05849L304.125 213.05849Q304.125 212.04286 304.85938 211.37099Q305.60938 210.69911 306.75 210.69911Q307.95312 210.69911 308.64062 211.33974Q309.32812 211.98036 309.32812 213.12099Q309.32812 213.68349 308.96875 214.19911Q308.60938 214.71474 307.98438 214.98036Q308.6875 215.19911 309.0625 215.71474Q309.45312 216.23036 309.45312 216.98036Q309.45312 218.12099 308.70312 218.80849Q307.95312 219.48036 306.75 219.48036Q305.5625 219.48036 304.79688 218.82411Q304.04688 218.16786 304.04688 217.10536L305.14062 217.10536Q305.14062 217.77724 305.57812 218.18349Q306.01562 218.58974 306.76562 218.58974Q307.54688 218.58974 307.95312 218.18349Q308.375 217.76161 308.375 216.99599Q308.375 216.26161 307.92188 215.87099Q307.46875 215.46474 306.59375 215.44911L305.78125 215.44911L305.78125 214.55849ZM316.71875 211.43349L313.1875 219.35536L312.04688 219.35536L315.5625 211.71474L310.95312 211.71474L310.95312 210.82411L316.71875 210.82411L316.71875 211.43349ZM318.34375 218.79286Q318.34375 218.51161 318.5 218.32411Q318.67188 218.13661 319.0 218.13661Q319.34375 218.13661 319.51562 218.32411Q319.6875 218.51161 319.6875 218.79286Q319.6875 219.05849 319.51562 219.24599Q319.34375 219.41786 319.0 219.41786Q318.67188 219.41786 318.5 219.24599Q318.34375 219.05849 318.34375 218.79286ZM325.46875 210.82411L325.46875 211.73036L325.26562 211.73036Q324.0 211.76161 323.25 212.49599Q322.5 213.21474 322.375 214.52724Q323.0625 213.76161 324.21875 213.76161Q325.32812 213.76161 326.0 214.54286Q326.67188 215.32411 326.67188 216.57411Q326.67188 217.88661 325.95312 218.68349Q325.23438 219.48036 324.01562 219.48036Q322.79688 219.48036 322.03125 218.54286Q321.28125 217.58974 321.28125 216.10536L321.28125 215.69911Q321.28125 213.33974 322.28125 212.08974Q323.28125 210.83974 325.26562 210.82411L325.46875 210.82411ZM324.04688 214.66786Q323.48438 214.66786 323.01562 214.99599Q322.54688 215.32411 322.35938 215.83974L322.35938 216.23036Q322.35938 217.29286 322.82812 217.93349Q323.3125 218.57411 324.01562 218.57411Q324.75 218.57411 325.17188 218.04286Q325.59375 217.49599 325.59375 216.62099Q325.59375 215.74599 325.17188 215.21474Q324.75 214.66786 324.04688 214.66786ZM333.5625 215.71474Q333.5625 217.62099 332.90625 218.55849Q332.26562 219.48036 330.875 219.48036Q329.51562 219.48036 328.85938 218.57411Q328.20312 217.66786 328.17188 215.85536L328.17188 214.41786Q328.17188 212.52724 328.8125 211.62099Q329.46875 210.69911 330.85938 210.69911Q332.23438 210.69911 332.89062 211.58974Q333.54688 212.46474 333.5625 214.30849L333.5625 215.71474ZM332.46875 214.23036Q332.46875 212.85536 332.07812 212.23036Q331.70312 211.58974 330.85938 211.58974Q330.03125 211.58974 329.64062 212.23036Q329.26562 212.85536 329.26562 214.15224L329.26562 215.88661Q329.26562 217.26161 329.65625 217.93349Q330.0625 218.58974 330.875 218.58974Q331.67188 218.58974 332.0625 217.96474Q332.45312 217.33974 332.46875 216.01161L332.46875 214.23036ZM339.78125 216.49599L340.96875 216.49599L340.96875 217.37099L339.78125 217.37099L339.78125 219.35536L338.70312 219.35536L338.70312 217.37099L334.8125 217.37099L334.8125 216.73036L338.625 210.82411L339.78125 210.82411L339.78125 216.49599ZM336.04688 216.49599L338.70312 216.49599L338.70312 212.30849L338.5625 212.54286L336.04688 216.49599Z" fill-rule="nonzero"/><path stroke="#ea4335" stroke-width="3.0" stroke-linejoin="round" stroke-linecap="round" d="M479.78125 164.3855L480.96875 164.3855L480.96875 165.2605L479.78125 165.2605L479.78125 167.24487L478.70312 167.24487L478.70312 165.2605L474.8125 165.2605L474.8125 164.61987L478.625 158.71362L479.78125 158.71362L479.78125 164.3855ZM476.04688 164.3855L478.70312 164.3855L478.70312 160.198L478.5625 160.43237L476.04688 164.3855ZM486.78125 164.3855L487.96875 164.3855L487.96875 165.2605L486.78125 165.2605L486.78125 167.24487L485.70312 167.24487L485.70312 165.2605L481.8125 165.2605L481.8125 164.61987L485.625 158.71362L486.78125 158.71362L486.78125 164.3855ZM483.04688 164.3855L485.70312 164.3855L485.70312 160.198L485.5625 160.43237L483.04688 164.3855ZM489.34375 166.68237Q489.34375 166.40112 489.5 166.21362Q489.67188 166.02612 490.0 166.02612Q490.34375 166.02612 490.51562 166.21362Q490.6875 166.40112 490.6875 166.68237Q490.6875 166.948 490.51562 167.1355Q490.34375 167.30737 490.0 167.30737Q489.67188 167.30737 489.5 167.1355Q489.34375 166.948 489.34375 166.68237ZM497.39062 160.93237Q497.39062 161.573 497.04688 162.073Q496.70312 162.573 496.14062 162.85425Q496.79688 163.1355 497.1875 163.698Q497.57812 164.24487 497.57812 164.948Q497.57812 166.04175 496.82812 166.71362Q496.09375 167.36987 494.875 167.36987Q493.64062 167.36987 492.89062 166.71362Q492.15625 166.04175 492.15625 164.948Q492.15625 164.24487 492.53125 163.698Q492.90625 163.1355 493.57812 162.85425Q493.01562 162.573 492.6875 162.073Q492.35938 161.573 492.35938 160.93237Q492.35938 159.85425 493.04688 159.22925Q493.73438 158.58862 494.875 158.58862Q496.0 158.58862 496.6875 159.22925Q497.39062 159.85425 497.39062 160.93237ZM496.5 164.91675Q496.5 164.198 496.04688 163.7605Q495.59375 163.30737 494.85938 163.30737Q494.125 163.30737 493.67188 163.7605Q493.23438 164.198 493.23438 164.93237Q493.23438 165.65112 493.67188 166.073Q494.10938 166.47925 494.875 166.47925Q495.625 166.47925 496.0625 166.05737Q496.5 165.6355 496.5 164.91675ZM494.875 159.47925Q494.23438 159.47925 493.82812 159.8855Q493.4375 160.27612 493.4375 160.96362Q493.4375 161.60425 493.82812 162.0105Q494.21875 162.41675 494.85938 162.41675Q495.51562 162.41675 495.90625 162.0105Q496.29688 161.60425 496.29688 160.96362Q496.29688 160.30737 495.89062 159.90112Q495.48438 159.47925 494.875 159.47925ZM504.39062 160.93237Q504.39062 161.573 504.04688 162.073Q503.70312 162.573 503.14062 162.85425Q503.79688 163.1355 504.1875 163.698Q504.57812 164.24487 504.57812 164.948Q504.57812 166.04175 503.82812 166.71362Q503.09375 167.36987 501.875 167.36987Q500.64062 167.36987 499.89062 166.71362Q499.15625 166.04175 499.15625 164.948Q499.15625 164.24487 499.53125 163.698Q499.90625 163.1355 500.57812 162.85425Q500.01562 162.573 499.6875 162.073Q499.35938 161.573 499.35938 160.93237Q499.35938 159.85425 500.04688 159.22925Q500.73438 158.58862 501.875 158.58862Q503.0 158.58862 503.6875 159.22925Q504.39062 159.85425 504.39062 160.93237ZM503.5 164.91675Q503.5 164.198 503.04688 163.7605Q502.59375 163.30737 501.85938 163.30737Q501.125 163.30737 500.67188 163.7605Q500.23438 164.198 500.23438 164.93237Q500.23438 165.65112 500.67188 166.073Q501.10938 166.47925 501.875 166.47925Q502.625 166.47925 503.0625 166.05737Q503.5 165.6355 503.5 164.91675ZM501.875 159.47925Q501.23438 159.47925 500.82812 159.8855Q500.4375 160.27612 500.4375 160.96362Q500.4375 161.60425 500.82812 162.0105Q501.21875 162.41675 501.85938 162.41675Q502.51562 162.41675 502.90625 162.0105Q503.29688 161.60425 503.29688 160.96362Q503.29688 160.30737 502.89062 159.90112Q502.48438 159.47925 501.875 159.47925ZM511.79688 167.24487L506.20312 167.24487L506.20312 166.46362L509.15625 163.18237Q509.8125 162.43237 510.0625 161.97925Q510.3125 161.5105 510.3125 161.0105Q510.3125 160.33862 509.90625 159.91675Q509.51562 159.47925 508.82812 159.47925Q508.03125 159.47925 507.57812 159.948Q507.125 160.40112 507.125 161.22925L506.04688 161.22925Q506.04688 160.04175 506.79688 159.323Q507.5625 158.58862 508.82812 158.58862Q510.03125 158.58862 510.71875 159.21362Q511.40625 159.83862 511.40625 160.8855Q511.40625 162.1355 509.79688 163.8855L507.51562 166.35425L511.79688 166.35425L511.79688 167.24487Z" fill-rule="nonzero"/><path fill="#ffffff" d="M479.78125 164.3855L480.96875 164.3855L480.96875 165.2605L479.78125 165.2605L479.78125 167.24487L478.70312 167.24487L478.70312 165.2605L474.8125 165.2605L474.8125 164.61987L478.625 158.71362L479.78125 158.71362L479.78125 164.3855ZM476.04688 164.3855L478.70312 164.3855L478.70312 160.198L478.5625 160.43237L476.04688 164.3855ZM486.78125 164.3855L487.96875 164.3855L487.96875 165.2605L486.78125 165.2605L486.78125 167.24487L485.70312 167.24487L485.70312 165.2605L481.8125 165.2605L481.8125 164.61987L485.625 158.71362L486.78125 158.71362L486.78125 164.3855ZM483.04688 164.3855L485.70312 164.3855L485.70312 160.198L485.5625 160.43237L483.04688 164.3855ZM489.34375 166.68237Q489.34375 166.40112 489.5 166.21362Q489.67188 166.02612 490.0 166.02612Q490.34375 166.02612 490.51562 166.21362Q490.6875 166.40112 490.6875 166.68237Q490.6875 166.948 490.51562 167.1355Q490.34375 167.30737 490.0 167.30737Q489.67188 167.30737 489.5 167.1355Q489.34375 166.948 489.34375 166.68237ZM497.39062 160.93237Q497.39062 161.573 497.04688 162.073Q496.70312 162.573 496.14062 162.85425Q496.79688 163.1355 497.1875 163.698Q497.57812 164.24487 497.57812 164.948Q497.57812 166.04175 496.82812 166.71362Q496.09375 167.36987 494.875 167.36987Q493.64062 167.36987 492.89062 166.71362Q492.15625 166.04175 492.15625 164.948Q492.15625 164.24487 492.53125 163.698Q492.90625 163.1355 493.57812 162.85425Q493.01562 162.573 492.6875 162.073Q492.35938 161.573 492.35938 160.93237Q492.35938 159.85425 493.04688 159.22925Q493.73438 158.58862 494.875 158.58862Q496.0 158.58862 496.6875 159.22925Q497.39062 159.85425 497.39062 160.93237ZM496.5 164.91675Q496.5 164.198 496.04688 163.7605Q495.59375 163.30737 494.85938 163.30737Q494.125 163.30737 493.67188 163.7605Q493.23438 164.198 493.23438 164.93237Q493.23438 165.65112 493.67188 166.073Q494.10938 166.47925 494.875 166.47925Q495.625 166.47925 496.0625 166.05737Q496.5 165.6355 496.5 164.91675ZM494.875 159.47925Q494.23438 159.47925 493.82812 159.8855Q493.4375 160.27612 493.4375 160.96362Q493.4375 161.60425 493.82812 162.0105Q494.21875 162.41675 494.85938 162.41675Q495.51562 162.41675 495.90625 162.0105Q496.29688 161.60425 496.29688 160.96362Q496.29688 160.30737 495.89062 159.90112Q495.48438 159.47925 494.875 159.47925ZM504.39062 160.93237Q504.39062 161.573 504.04688 162.073Q503.70312 162.573 503.14062 162.85425Q503.79688 163.1355 504.1875 163.698Q504.57812 164.24487 504.57812 164.948Q504.57812 166.04175 503.82812 166.71362Q503.09375 167.36987 501.875 167.36987Q500.64062 167.36987 499.89062 166.71362Q499.15625 166.04175 499.15625 164.948Q499.15625 164.24487 499.53125 163.698Q499.90625 163.1355 500.57812 162.85425Q500.01562 162.573 499.6875 162.073Q499.35938 161.573 499.35938 160.93237Q499.35938 159.85425 500.04688 159.22925Q500.73438 158.58862 501.875 158.58862Q503.0 158.58862 503.6875 159.22925Q504.39062 159.85425 504.39062 160.93237ZM503.5 164.91675Q503.5 164.198 503.04688 163.7605Q502.59375 163.30737 501.85938 163.30737Q501.125 163.30737 500.67188 163.7605Q500.23438 164.198 500.23438 164.93237Q500.23438 165.65112 500.67188 166.073Q501.10938 166.47925 501.875 166.47925Q502.625 166.47925 503.0625 166.05737Q503.5 165.6355 503.5 164.91675ZM501.875 159.47925Q501.23438 159.47925 500.82812 159.8855Q500.4375 160.27612 500.4375 160.96362Q500.4375 161.60425 500.82812 162.0105Q501.21875 162.41675 501.85938 162.41675Q502.51562 162.41675 502.90625 162.0105Q503.29688 161.60425 503.29688 160.96362Q503.29688 160.30737 502.89062 159.90112Q502.48438 159.47925 501.875 159.47925ZM511.79688 167.24487L506.20312 167.24487L506.20312 166.46362L509.15625 163.18237Q509.8125 162.43237 510.0625 161.97925Q510.3125 161.5105 510.3125 161.0105Q510.3125 160.33862 509.90625 159.91675Q509.51562 159.47925 508.82812 159.47925Q508.03125 159.47925 507.57812 159.948Q507.125 160.40112 507.125 161.22925L506.04688 161.22925Q506.04688 160.04175 506.79688 159.323Q507.5625 158.58862 508.82812 158.58862Q510.03125 158.58862 510.71875 159.21362Q511.40625 159.83862 511.40625 160.8855Q511.40625 162.1355 509.79688 163.8855L507.51562 166.35425L511.79688 166.35425L511.79688 167.24487Z" fill-rule="nonzero"/><path fill="#000000" d="M39.7 471.5656Q39.7 470.03436 40.0125 469.1125Q40.325 468.175 40.934376 467.675Q41.559376 467.175 42.496876 467.175Q43.184376 467.175 43.7 467.45624Q44.23125 467.7375 44.575 468.26874Q44.91875 468.78436 45.10625 469.53436Q45.29375 470.28436 45.29375 471.5656Q45.29375 473.08124 44.98125 474.0031Q44.684376 474.925 44.059376 475.4406Q43.45 475.9406 42.496876 475.9406Q41.2625 475.9406 40.54375 475.05Q39.7 473.9875 39.7 471.5656ZM40.778126 471.5656Q40.778126 473.675 41.278126 474.3781Q41.778126 475.08124 42.496876 475.08124Q43.23125 475.08124 43.715626 474.3781Q44.215626 473.675 44.215626 471.5656Q44.215626 469.4406 43.715626 468.7531Q43.23125 468.05 42.48125 468.05Q41.7625 468.05 41.325 468.65936Q40.778126 469.4406 40.778126 471.5656Z" fill-rule="nonzero"/><path fill="#000000" d="M36.66875 404.2L35.621876 404.2L35.621876 397.48126Q35.23125 397.84064 34.60625 398.21564Q33.996876 398.575 33.5125 398.7469L33.5125 397.73126Q34.3875 397.3094 35.04375 396.73126Q35.715626 396.1375 35.996876 395.575L36.66875 395.575L36.66875 404.2ZM39.7 399.96564Q39.7 398.4344 40.0125 397.5125Q40.325 396.575 40.934376 396.075Q41.559376 395.575 42.496876 395.575Q43.184376 395.575 43.7 395.85626Q44.23125 396.1375 44.575 396.66876Q44.91875 397.1844 45.10625 397.9344Q45.29375 398.6844 45.29375 399.96564Q45.29375 401.48126 44.98125 402.40314Q44.684376 403.325 44.059376 403.84064Q43.45 404.34064 42.496876 404.34064Q41.2625 404.34064 40.54375 403.45Q39.7 402.3875 39.7 399.96564ZM40.778126 399.96564Q40.778126 402.075 41.278126 402.77814Q41.778126 403.48126 42.496876 403.48126Q43.23125 403.48126 43.715626 402.77814Q44.215626 402.075 44.215626 399.96564Q44.215626 397.84064 43.715626 397.15314Q43.23125 396.45 42.48125 396.45Q41.7625 396.45 41.325 397.0594Q40.778126 397.84064 40.778126 399.96564Z" fill-rule="nonzero"/><path fill="#000000" d="M38.246876 331.58438L38.246876 332.6L32.559376 332.6Q32.559376 332.225 32.684376 331.86563Q32.903126 331.2875 33.371876 330.725Q33.85625 330.1625 34.7625 329.42813Q36.16875 328.27188 36.653126 327.6Q37.153126 326.92813 37.153126 326.33438Q37.153126 325.70938 36.7 325.2875Q36.246876 324.85 35.528126 324.85Q34.7625 324.85 34.309376 325.30313Q33.85625 325.75626 33.840626 326.56876L32.7625 326.45938Q32.871876 325.24063 33.590626 324.61563Q34.325 323.975 35.559376 323.975Q36.79375 323.975 37.5125 324.6625Q38.23125 325.35 38.23125 326.36563Q38.23125 326.88126 38.0125 327.38126Q37.809376 327.86563 37.309376 328.42813Q36.825 328.975 35.7 329.92813Q34.746876 330.725 34.465626 331.02188Q34.2 331.30313 34.028126 331.58438L38.246876 331.58438ZM39.7 328.36563Q39.7 326.83438 40.0125 325.9125Q40.325 324.975 40.934376 324.475Q41.559376 323.975 42.496876 323.975Q43.184376 323.975 43.7 324.25626Q44.23125 324.5375 44.575 325.06876Q44.91875 325.58438 45.10625 326.33438Q45.29375 327.08438 45.29375 328.36563Q45.29375 329.88126 44.98125 330.80313Q44.684376 331.725 44.059376 332.24063Q43.45 332.74063 42.496876 332.74063Q41.2625 332.74063 40.54375 331.85Q39.7 330.7875 39.7 328.36563ZM40.778126 328.36563Q40.778126 330.475 41.278126 331.17813Q41.778126 331.88126 42.496876 331.88126Q43.23125 331.88126 43.715626 331.17813Q44.215626 330.475 44.215626 328.36563Q44.215626 326.24063 43.715626 325.55313Q43.23125 324.85 42.48125 324.85Q41.7625 324.85 41.325 325.45938Q40.778126 326.24063 40.778126 328.36563Z" fill-rule="nonzero"/><path fill="#000000" d="M32.7 258.73438L33.7625 258.59375Q33.934376 259.48438 34.371876 259.89062Q34.809376 260.28125 35.434376 260.28125Q36.184376 260.28125 36.7 259.76562Q37.215626 259.25 37.215626 258.48438Q37.215626 257.76562 36.73125 257.29688Q36.2625 256.8125 35.528126 256.8125Q35.23125 256.8125 34.778126 256.9375L34.903126 256.0Q35.0125 256.01562 35.075 256.01562Q35.746876 256.01562 36.278126 255.67188Q36.825 255.3125 36.825 254.57812Q36.825 254.0 36.434376 253.625Q36.04375 253.23438 35.41875 253.23438Q34.809376 253.23438 34.3875 253.625Q33.98125 254.01562 33.871876 254.78125L32.809376 254.59375Q32.996876 253.54688 33.684376 252.96875Q34.371876 252.375 35.3875 252.375Q36.090626 252.375 36.684376 252.6875Q37.278126 252.98438 37.590626 253.5Q37.903126 254.01562 37.903126 254.60938Q37.903126 255.15625 37.60625 255.625Q37.309376 256.07812 36.73125 256.34375Q37.48125 256.51562 37.903126 257.07812Q38.325 257.625 38.325 258.46875Q38.325 259.59375 37.496876 260.375Q36.684376 261.15625 35.434376 261.15625Q34.309376 261.15625 33.559376 260.48438Q32.809376 259.79688 32.7 258.73438ZM39.7 256.76562Q39.7 255.23438 40.0125 254.3125Q40.325 253.375 40.934376 252.875Q41.559376 252.375 42.496876 252.375Q43.184376 252.375 43.7 252.65625Q44.23125 252.9375 44.575 253.46875Q44.91875 253.98438 45.10625 254.73438Q45.29375 255.48438 45.29375 256.76562Q45.29375 258.28125 44.98125 259.20312Q44.684376 260.125 44.059376 260.64062Q43.45 261.14062 42.496876 261.14062Q41.2625 261.14062 40.54375 260.25Q39.7 259.1875 39.7 256.76562ZM40.778126 256.76562Q40.778126 258.875 41.278126 259.57812Q41.778126 260.28125 42.496876 260.28125Q43.23125 260.28125 43.715626 259.57812Q44.215626 258.875 44.215626 256.76562Q44.215626 254.64062 43.715626 253.95312Q43.23125 253.25 42.48125 253.25Q41.7625 253.25 41.325 253.85938Q40.778126 254.64062 40.778126 256.76562Z" fill-rule="nonzero"/><path fill="#000000" d="M36.075 189.4L36.075 187.3375L32.35625 187.3375L32.35625 186.36874L36.278126 180.80624L37.1375 180.80624L37.1375 186.36874L38.29375 186.36874L38.29375 187.3375L37.1375 187.3375L37.1375 189.4L36.075 189.4ZM36.075 186.36874L36.075 182.50937L33.3875 186.36874L36.075 186.36874ZM39.7 185.16562Q39.7 183.63437 40.0125 182.7125Q40.325 181.775 40.934376 181.275Q41.559376 180.775 42.496876 180.775Q43.184376 180.775 43.7 181.05624Q44.23125 181.3375 44.575 181.86874Q44.91875 182.38437 45.10625 183.13437Q45.29375 183.88437 45.29375 185.16562Q45.29375 186.68124 44.98125 187.60312Q44.684376 188.525 44.059376 189.04062Q43.45 189.54062 42.496876 189.54062Q41.2625 189.54062 40.54375 188.65Q39.7 187.5875 39.7 185.16562ZM40.778126 185.16562Q40.778126 187.275 41.278126 187.97812Q41.778126 188.68124 42.496876 188.68124Q43.23125 188.68124 43.715626 187.97812Q44.215626 187.275 44.215626 185.16562Q44.215626 183.04062 43.715626 182.35312Q43.23125 181.65 42.48125 181.65Q41.7625 181.65 41.325 182.25937Q40.778126 183.04062 40.778126 185.16562Z" fill-rule="nonzero"/><path fill="#000000" d="M32.7 115.55L33.809376 115.45625Q33.934376 116.26875 34.371876 116.675Q34.825 117.08125 35.465626 117.08125Q36.215626 117.08125 36.746876 116.50313Q37.278126 115.925 37.278126 114.9875Q37.278126 114.08125 36.7625 113.56563Q36.2625 113.03438 35.434376 113.03438Q34.934376 113.03438 34.5125 113.26875Q34.10625 113.50313 33.871876 113.8625L32.8875 113.7375L33.715626 109.33125L37.996876 109.33125L37.996876 110.33125L34.559376 110.33125L34.10625 112.64375Q34.871876 112.09688 35.715626 112.09688Q36.840626 112.09688 37.60625 112.87813Q38.3875 113.65938 38.3875 114.89375Q38.3875 116.05 37.715626 116.90938Q36.8875 117.94063 35.465626 117.94063Q34.29375 117.94063 33.54375 117.28438Q32.809376 116.62813 32.7 115.55ZM39.7 113.56563Q39.7 112.03438 40.0125 111.1125Q40.325 110.175 40.934376 109.675Q41.559376 109.175 42.496876 109.175Q43.184376 109.175 43.7 109.45625Q44.23125 109.7375 44.575 110.26875Q44.91875 110.78438 45.10625 111.53438Q45.29375 112.28438 45.29375 113.56563Q45.29375 115.08125 44.98125 116.00313Q44.684376 116.925 44.059376 117.44063Q43.45 117.94063 42.496876 117.94063Q41.2625 117.94063 40.54375 117.05Q39.7 115.9875 39.7 113.56563ZM40.778126 113.56563Q40.778126 115.675 41.278126 116.37813Q41.778126 117.08125 42.496876 117.08125Q43.23125 117.08125 43.715626 116.37813Q44.215626 115.675 44.215626 113.56563Q44.215626 111.44063 43.715626 110.75313Q43.23125 110.05 42.48125 110.05Q41.7625 110.05 41.325 110.65938Q40.778126 111.44063 40.778126 113.56563Z" fill-rule="nonzero"/><path fill="#4285f4" d="M302.5 73.0C302.5 72.447716 302.94772 72.0 303.5 72.0L313.5 72.0C314.05228 72.0 314.5 72.447716 314.5 73.0L314.5 83.0C314.5 83.552284 314.05228 84.0 313.5 84.0L303.5 84.0C302.94772 84.0 302.5 83.552284 302.5 83.0Z" fill-rule="nonzero"/><path fill="#1a1a1a" d="M323.96875 85.0L323.96875 70.6875L325.85938 70.6875L325.85938 83.3125L332.90625 83.3125L332.90625 85.0L323.96875 85.0ZM334.82812 72.703125L334.82812 70.6875L336.59375 70.6875L336.59375 72.703125L334.82812 72.703125ZM334.82812 85.0L334.82812 74.625L336.59375 74.625L336.59375 85.0L334.82812 85.0ZM338.8125 85.0L338.8125 74.625L340.40625 74.625L340.40625 76.109375Q341.54688 74.390625 343.70312 74.390625Q344.64062 74.390625 345.42188 74.734375Q346.21875 75.0625 346.60938 75.609375Q347.0 76.15625 347.15625 76.90625Q347.25 77.40625 347.25 78.625L347.25 85.0L345.48438 85.0L345.48438 78.6875Q345.48438 77.609375 345.28125 77.078125Q345.07812 76.546875 344.54688 76.234375Q344.03125 75.921875 343.32812 75.921875Q342.20312 75.921875 341.39062 76.640625Q340.57812 77.34375 340.57812 79.328125L340.57812 85.0L338.8125 85.0ZM356.60938 85.0L356.60938 83.46875Q355.40625 85.234375 353.32812 85.234375Q352.40625 85.234375 351.60938 84.890625Q350.8125 84.53125 350.42188 84.0Q350.04688 83.46875 349.89062 82.6875Q349.78125 82.171875 349.78125 81.046875L349.78125 74.625L351.53125 74.625L351.53125 80.375Q351.53125 81.75 351.64062 82.234375Q351.8125 82.921875 352.34375 83.328125Q352.89062 83.71875 353.67188 83.71875Q354.46875 83.71875 355.15625 83.3125Q355.85938 82.90625 356.14062 82.21875Q356.4375 81.515625 356.4375 80.1875L356.4375 74.625L358.1875 74.625L358.1875 85.0L356.60938 85.0ZM359.64062 85.0L363.4375 79.609375L359.9375 74.625L362.125 74.625L363.71875 77.0625Q364.17188 77.75 364.4375 78.21875Q364.875 77.578125 365.23438 77.078125L366.98438 74.625L369.07812 74.625L365.5 79.515625L369.35938 85.0L367.20312 85.0L365.0625 81.78125L364.5 80.90625L361.78125 85.0L359.64062 85.0Z" fill-rule="nonzero"/><path fill="#ea4335" d="M385.5 73.0C385.5 72.447716 385.94772 72.0 386.5 72.0L396.5 72.0C397.05228 72.0 397.5 72.447716 397.5 73.0L397.5 83.0C397.5 83.552284 397.05228 84.0 396.5 84.0L386.5 84.0C385.94772 84.0 385.5 83.552284 385.5 83.0Z" fill-rule="nonzero"/><path fill="#1a1a1a" d="M409.54688 85.0L405.75 70.6875L407.6875 70.6875L409.85938 80.0625Q410.21875 81.546875 410.46875 83.0Q411.01562 80.703125 411.10938 80.34375L413.84375 70.6875L416.125 70.6875L418.17188 77.921875Q418.95312 80.625 419.29688 83.0Q419.5625 81.640625 420.0 79.875L422.25 70.6875L424.15625 70.6875L420.23438 85.0L418.40625 85.0L415.39062 74.09375Q415.0 72.71875 414.9375 72.40625Q414.70312 73.390625 414.51562 74.09375L411.48438 85.0L409.54688 85.0ZM425.82812 72.703125L425.82812 70.6875L427.59375 70.6875L427.59375 72.703125L425.82812 72.703125ZM425.82812 85.0L425.82812 74.625L427.59375 74.625L427.59375 85.0L425.82812 85.0ZM429.8125 85.0L429.8125 74.625L431.40625 74.625L431.40625 76.109375Q432.54688 74.390625 434.70312 74.390625Q435.64062 74.390625 436.42188 74.734375Q437.21875 75.0625 437.60938 75.609375Q438.0 76.15625 438.15625 76.90625Q438.25 77.40625 438.25 78.625L438.25 85.0L436.48438 85.0L436.48438 78.6875Q436.48438 77.609375 436.28125 77.078125Q436.07812 76.546875 435.54688 76.234375Q435.03125 75.921875 434.32812 75.921875Q433.20312 75.921875 432.39062 76.640625Q431.57812 77.34375 431.57812 79.328125L431.57812 85.0L429.8125 85.0ZM447.54688 85.0L447.54688 83.6875Q446.5625 85.234375 444.64062 85.234375Q443.40625 85.234375 442.35938 84.546875Q441.32812 83.859375 440.75 82.640625Q440.1875 81.421875 440.1875 79.828125Q440.1875 78.265625 440.70312 77.0Q441.21875 75.734375 442.25 75.0625Q443.29688 74.390625 444.5625 74.390625Q445.5 74.390625 446.23438 74.796875Q446.96875 75.1875 447.4375 75.8125L447.4375 70.6875L449.17188 70.6875L449.17188 85.0L447.54688 85.0ZM441.98438 79.828125Q441.98438 81.8125 442.82812 82.796875Q443.67188 83.78125 444.8125 83.78125Q445.96875 83.78125 446.76562 82.84375Q447.57812 81.90625 447.57812 79.96875Q447.57812 77.84375 446.75 76.84375Q445.9375 75.84375 444.73438 75.84375Q443.5625 75.84375 442.76562 76.8125Q441.98438 77.765625 441.98438 79.828125ZM451.17188 79.8125Q451.17188 76.9375 452.76562 75.546875Q454.10938 74.390625 456.03125 74.390625Q458.17188 74.390625 459.51562 75.796875Q460.875 77.203125 460.875 79.671875Q460.875 81.671875 460.28125 82.828125Q459.6875 83.96875 458.53125 84.609375Q457.39062 85.234375 456.03125 85.234375Q453.84375 85.234375 452.5 83.84375Q451.17188 82.4375 451.17188 79.8125ZM452.96875 79.8125Q452.96875 81.8125 453.82812 82.796875Q454.70312 83.78125 456.03125 83.78125Q457.34375 83.78125 458.20312 82.796875Q459.07812 81.796875 459.07812 79.75Q459.07812 77.828125 458.20312 76.84375Q457.32812 75.84375 456.03125 75.84375Q454.70312 75.84375 453.82812 76.84375Q452.96875 77.828125 452.96875 79.8125ZM464.73438 85.0L461.5625 74.625L463.375 74.625L465.03125 80.609375L465.64062 82.84375Q465.6875 82.671875 466.17188 80.703125L467.82812 74.625L469.64062 74.625L471.1875 80.640625L471.70312 82.625L472.29688 80.625L474.07812 74.625L475.78125 74.625L472.54688 85.0L470.71875 85.0L469.0625 78.78125L468.67188 77.015625L466.5625 85.0L464.73438 85.0ZM476.10938 81.90625L477.85938 81.625Q478.0 82.671875 478.67188 83.234375Q479.34375 83.78125 480.54688 83.78125Q481.75 83.78125 482.32812 83.296875Q482.92188 82.796875 482.92188 82.140625Q482.92188 81.546875 482.40625 81.203125Q482.04688 80.96875 480.60938 80.609375Q478.67188 80.109375 477.92188 79.765625Q477.1875 79.40625 476.79688 78.78125Q476.40625 78.140625 476.40625 77.375Q476.40625 76.6875 476.71875 76.09375Q477.04688 75.5 477.59375 75.109375Q478.0 74.8125 478.70312 74.609375Q479.42188 74.390625 480.23438 74.390625Q481.45312 74.390625 482.375 74.75Q483.29688 75.09375 483.73438 75.703125Q484.17188 76.296875 484.34375 77.296875L482.625 77.53125Q482.5 76.734375 481.9375 76.296875Q481.375 75.84375 480.35938 75.84375Q479.14062 75.84375 478.625 76.25Q478.10938 76.640625 478.10938 77.171875Q478.10938 77.515625 478.32812 77.796875Q478.53125 78.078125 479.0 78.265625Q479.26562 78.359375 480.54688 78.703125Q482.42188 79.203125 483.15625 79.53125Q483.89062 79.84375 484.3125 80.453125Q484.73438 81.046875 484.73438 81.953125Q484.73438 82.828125 484.21875 83.609375Q483.70312 84.390625 482.73438 84.8125Q481.76562 85.234375 480.54688 85.234375Q478.53125 85.234375 477.46875 84.390625Q476.40625 83.546875 476.10938 81.90625Z" fill-rule="nonzero"/><path fill="#757575" d="M30.3875 44.2L30.3875 31.575L25.66875 31.575L25.66875 29.8875L37.0125 29.8875L37.0125 31.575L32.278126 31.575L32.278126 44.2L30.3875 44.2ZM38.528126 31.903126L38.528126 29.8875L40.29375 29.8875L40.29375 31.903126L38.528126 31.903126ZM38.528126 44.2L38.528126 33.825L40.29375 33.825L40.29375 44.2L38.528126 44.2ZM45.403126 44.2L41.45 33.825L43.309376 33.825L45.54375 40.04375Q45.903126 41.04375 46.2 42.121876Q46.434376 41.309376 46.85625 40.153126L49.153126 33.825L50.965626 33.825L47.04375 44.2L45.403126 44.2ZM52.528126 31.903126L52.528126 29.8875L54.29375 29.8875L54.29375 31.903126L52.528126 31.903126ZM52.528126 44.2L52.528126 33.825L54.29375 33.825L54.29375 44.2L52.528126 44.2ZM62.934376 44.2L62.934376 35.2L61.3875 35.2L61.3875 33.825L62.934376 33.825L62.934376 32.73125Q62.934376 31.684376 63.121876 31.16875Q63.371876 30.48125 64.0125 30.059376Q64.65312 29.6375 65.80937 29.6375Q66.55937 29.6375 67.45 29.809376L67.18437 31.340626Q66.6375 31.246876 66.15312 31.246876Q65.35625 31.246876 65.0125 31.590626Q64.68437 31.934376 64.68437 32.871876L64.68437 33.825L66.71562 33.825L66.71562 35.2L64.68437 35.2L64.68437 44.2L62.934376 44.2ZM75.30937 44.2L75.30937 42.66875Q74.10625 44.434376 72.02812 44.434376Q71.10625 44.434376 70.30937 44.090626Q69.5125 43.73125 69.12187 43.2Q68.74687 42.66875 68.59062 41.8875Q68.48125 41.371876 68.48125 40.246876L68.48125 33.825L70.23125 33.825L70.23125 39.575Q70.23125 40.95 70.34062 41.434376Q70.5125 42.121876 71.04375 42.528126Q71.59062 42.91875 72.37187 42.91875Q73.16875 42.91875 73.85625 42.5125Q74.55937 42.10625 74.84062 41.41875Q75.1375 40.715626 75.1375 39.3875L75.1375 33.825L76.8875 33.825L76.8875 44.2L75.30937 44.2ZM79.48125 44.2L79.48125 29.8875L81.23125 29.8875L81.23125 44.2L79.48125 44.2ZM83.48125 44.2L83.48125 29.8875L85.23125 29.8875L85.23125 44.2L83.48125 44.2ZM95.1375 44.2L93.5125 44.2L93.5125 29.8875L95.2625 29.8875L95.2625 34.996876Q96.3875 33.590626 98.10625 33.590626Q99.05937 33.590626 99.91875 33.98125Q100.77812 34.371876 101.325 35.075Q101.87187 35.7625 102.18437 36.746876Q102.49687 37.73125 102.49687 38.85625Q102.49687 41.528126 101.18437 42.98125Q99.87187 44.434376 98.02812 44.434376Q96.18437 44.434376 95.1375 42.903126L95.1375 44.2ZM95.12187 38.934376Q95.12187 40.79375 95.62187 41.6375Q96.46562 42.98125 97.87187 42.98125Q99.02812 42.98125 99.85625 41.98125Q100.7 40.98125 100.7 38.996876Q100.7 36.965626 99.8875 36.0125Q99.09062 35.04375 97.95 35.04375Q96.79375 35.04375 95.95 36.04375Q95.12187 37.04375 95.12187 38.934376ZM111.30937 44.2L111.30937 42.66875Q110.10625 44.434376 108.02812 44.434376Q107.10625 44.434376 106.30937 44.090626Q105.5125 43.73125 105.12187 43.2Q104.74687 42.66875 104.59062 41.8875Q104.48125 41.371876 104.48125 40.246876L104.48125 33.825L106.23125 33.825L106.23125 39.575Q106.23125 40.95 106.34062 41.434376Q106.5125 42.121876 107.04375 42.528126Q107.59062 42.91875 108.37187 42.91875Q109.16875 42.91875 109.85625 42.5125Q110.55937 42.10625 110.84062 41.41875Q111.1375 40.715626 111.1375 39.3875L111.1375 33.825L112.8875 33.825L112.8875 44.2L111.30937 44.2ZM115.52812 31.903126L115.52812 29.8875L117.29375 29.8875L117.29375 31.903126L115.52812 31.903126ZM115.52812 44.2L115.52812 33.825L117.29375 33.825L117.29375 44.2L115.52812 44.2ZM119.48125 44.2L119.48125 29.8875L121.23125 29.8875L121.23125 44.2L119.48125 44.2ZM130.24687 44.2L130.24687 42.8875Q129.2625 44.434376 127.34062 44.434376Q126.10625 44.434376 125.05937 43.746876Q124.02812 43.059376 123.45 41.840626Q122.8875 40.621876 122.8875 39.028126Q122.8875 37.465626 123.40312 36.2Q123.91875 34.934376 124.95 34.2625Q125.99687 33.590626 127.2625 33.590626Q128.2 33.590626 128.93437 33.996876Q129.66875 34.3875 130.1375 35.0125L130.1375 29.8875L131.87187 29.8875L131.87187 44.2L130.24687 44.2ZM124.68437 39.028126Q124.68437 41.0125 125.52812 41.996876Q126.37187 42.98125 127.5125 42.98125Q128.66875 42.98125 129.46562 42.04375Q130.27812 41.10625 130.27812 39.16875Q130.27812 37.04375 129.45 36.04375Q128.6375 35.04375 127.43437 35.04375Q126.2625 35.04375 125.46562 36.0125Q124.68437 36.965626 124.68437 39.028126ZM140.52812 31.903126L140.52812 29.8875L142.29375 29.8875L142.29375 31.903126L140.52812 31.903126ZM140.52812 44.2L140.52812 33.825L142.29375 33.825L142.29375 44.2L140.52812 44.2ZM144.5125 44.2L144.5125 33.825L146.10625 33.825L146.10625 35.309376Q147.24687 33.590626 149.40312 33.590626Q150.34062 33.590626 151.12187 33.934376Q151.91875 34.2625 152.30937 34.809376Q152.7 35.35625 152.85625 36.10625Q152.95 36.60625 152.95 37.825L152.95 44.2L151.18437 44.2L151.18437 37.8875Q151.18437 36.809376 150.98125 36.278126Q150.77812 35.746876 150.24687 35.434376Q149.73125 35.121876 149.02812 35.121876Q147.90312 35.121876 147.09062 35.840626Q146.27812 36.54375 146.27812 38.528126L146.27812 44.2L144.5125 44.2ZM160.80937 41.10625L162.55937 40.825Q162.7 41.871876 163.37187 42.434376Q164.04375 42.98125 165.24687 42.98125Q166.45 42.98125 167.02812 42.496876Q167.62187 41.996876 167.62187 41.340626Q167.62187 40.746876 167.10625 40.403126Q166.74687 40.16875 165.30937 39.809376Q163.37187 39.309376 162.62187 38.965626Q161.8875 38.60625 161.49687 37.98125Q161.10625 37.340626 161.10625 36.575Q161.10625 35.8875 161.41875 35.29375Q161.74687 34.7 162.29375 34.309376Q162.7 34.0125 163.40312 33.809376Q164.12187 33.590626 164.93437 33.590626Q166.15312 33.590626 167.075 33.95Q167.99687 34.29375 168.43437 34.903126Q168.87187 35.496876 169.04375 36.496876L167.325 36.73125Q167.2 35.934376 166.6375 35.496876Q166.075 35.04375 165.05937 35.04375Q163.84062 35.04375 163.325 35.45Q162.80937 35.840626 162.80937 36.371876Q162.80937 36.715626 163.02812 36.996876Q163.23125 37.278126 163.7 37.465626Q163.96562 37.559376 165.24687 37.903126Q167.12187 38.403126 167.85625 38.73125Q168.59062 39.04375 169.0125 39.653126Q169.43437 40.246876 169.43437 41.153126Q169.43437 42.028126 168.91875 42.809376Q168.40312 43.590626 167.43437 44.0125Q166.46562 44.434376 165.24687 44.434376Q163.23125 44.434376 162.16875 43.590626Q161.10625 42.746876 160.80937 41.10625ZM178.62187 40.85625L180.43437 41.090626Q180.0125 42.66875 178.84062 43.559376Q177.68437 44.434376 175.87187 44.434376Q173.60625 44.434376 172.2625 43.04375Q170.93437 41.6375 170.93437 39.10625Q170.93437 36.48125 172.27812 35.04375Q173.62187 33.590626 175.77812 33.590626Q177.85625 33.590626 179.16875 35.0125Q180.49687 36.41875 180.49687 38.996876Q180.49687 39.153126 180.48125 39.465626L172.74687 39.465626Q172.84062 41.16875 173.71562 42.075Q174.59062 42.98125 175.8875 42.98125Q176.85625 42.98125 177.52812 42.48125Q178.21562 41.965626 178.62187 40.85625ZM172.84062 38.0125L178.6375 38.0125Q178.52812 36.715626 177.98125 36.059376Q177.1375 35.04375 175.79375 35.04375Q174.59062 35.04375 173.7625 35.85625Q172.93437 36.653126 172.84062 38.0125ZM189.29375 40.403126L191.0125 40.621876Q190.73125 42.41875 189.55937 43.434376Q188.40312 44.434376 186.7 44.434376Q184.575 44.434376 183.27812 43.04375Q181.98125 41.653126 181.98125 39.059376Q181.98125 37.371876 182.52812 36.121876Q183.09062 34.85625 184.23125 34.23125Q185.37187 33.590626 186.71562 33.590626Q188.40312 33.590626 189.46562 34.45Q190.54375 35.309376 190.85625 36.871876L189.1375 37.1375Q188.90312 36.090626 188.27812 35.575Q187.65312 35.04375 186.77812 35.04375Q185.45 35.04375 184.62187 35.996876Q183.79375 36.95 183.79375 38.996876Q183.79375 41.090626 184.59062 42.04375Q185.3875 42.98125 186.68437 42.98125Q187.71562 42.98125 188.40312 42.35625Q189.10625 41.715626 189.29375 40.403126ZM191.87187 39.0125Q191.87187 36.1375 193.46562 34.746876Q194.80937 33.590626 196.73125 33.590626Q198.87187 33.590626 200.21562 34.996876Q201.575 36.403126 201.575 38.871876Q201.575 40.871876 200.98125 42.028126Q200.3875 43.16875 199.23125 43.809376Q198.09062 44.434376 196.73125 44.434376Q194.54375 44.434376 193.2 43.04375Q191.87187 41.6375 191.87187 39.0125ZM193.66875 39.0125Q193.66875 41.0125 194.52812 41.996876Q195.40312 42.98125 196.73125 42.98125Q198.04375 42.98125 198.90312 41.996876Q199.77812 40.996876 199.77812 38.95Q199.77812 37.028126 198.90312 36.04375Q198.02812 35.04375 196.73125 35.04375Q195.40312 35.04375 194.52812 36.04375Q193.66875 37.028126 193.66875 39.0125ZM203.5125 44.2L203.5125 33.825L205.10625 33.825L205.10625 35.309376Q206.24687 33.590626 208.40312 33.590626Q209.34062 33.590626 210.12187 33.934376Q210.91875 34.2625 211.30937 34.809376Q211.7 35.35625 211.85625 36.10625Q211.95 36.60625 211.95 37.825L211.95 44.2L210.18437 44.2L210.18437 37.8875Q210.18437 36.809376 209.98125 36.278126Q209.77812 35.746876 209.24687 35.434376Q208.73125 35.121876 208.02812 35.121876Q206.90312 35.121876 206.09062 35.840626Q205.27812 36.54375 205.27812 38.528126L205.27812 44.2L203.5125 44.2ZM221.24687 44.2L221.24687 42.8875Q220.2625 44.434376 218.34062 44.434376Q217.10625 44.434376 216.05937 43.746876Q215.02812 43.059376 214.45 41.840626Q213.8875 40.621876 213.8875 39.028126Q213.8875 37.465626 214.40312 36.2Q214.91875 34.934376 215.95 34.2625Q216.99687 33.590626 218.2625 33.590626Q219.2 33.590626 219.93437 33.996876Q220.66875 34.3875 221.1375 35.0125L221.1375 29.8875L222.87187 29.8875L222.87187 44.2L221.24687 44.2ZM215.68437 39.028126Q215.68437 41.0125 216.52812 41.996876Q217.37187 42.98125 218.5125 42.98125Q219.66875 42.98125 220.46562 42.04375Q221.27812 41.10625 221.27812 39.16875Q221.27812 37.04375 220.45 36.04375Q219.6375 35.04375 218.43437 35.04375Q217.2625 35.04375 216.46562 36.0125Q215.68437 36.965626 215.68437 39.028126ZM224.80937 41.10625L226.55937 40.825Q226.7 41.871876 227.37187 42.434376Q228.04375 42.98125 229.24687 42.98125Q230.45 42.98125 231.02812 42.496876Q231.62187 41.996876 231.62187 41.340626Q231.62187 40.746876 231.10625 40.403126Q230.74687 40.16875 229.30937 39.809376Q227.37187 39.309376 226.62187 38.965626Q225.8875 38.60625 225.49687 37.98125Q225.10625 37.340626 225.10625 36.575Q225.10625 35.8875 225.41875 35.29375Q225.74687 34.7 226.29375 34.309376Q226.7 34.0125 227.40312 33.809376Q228.12187 33.590626 228.93437 33.590626Q230.15312 33.590626 231.075 33.95Q231.99687 34.29375 232.43437 34.903126Q232.87187 35.496876 233.04375 36.496876L231.325 36.73125Q231.2 35.934376 230.6375 35.496876Q230.075 35.04375 229.05937 35.04375Q227.84062 35.04375 227.325 35.45Q226.80937 35.840626 226.80937 36.371876Q226.80937 36.715626 227.02812 36.996876Q227.23125 37.278126 227.7 37.465626Q227.96562 37.559376 229.24687 37.903126Q231.12187 38.403126 231.85625 38.73125Q232.59062 39.04375 233.0125 39.653126Q233.43437 40.246876 233.43437 41.153126Q233.43437 42.028126 232.91875 42.809376Q232.40312 43.590626 231.43437 44.0125Q230.46562 44.434376 229.24687 44.434376Q227.23125 44.434376 226.16875 43.590626Q225.10625 42.746876 224.80937 41.10625Z" fill-rule="nonzero"/></svg>