<svg version="1.1" viewBox="0.0 0.0 788.0 504.0" fill="none" stroke="none" stroke-linecap="square" stroke-miterlimit="10" width="788" height="504" xmlns:xlink="http://www.w3.org/1999/xlink" xmlns="http://www.w3.org/2000/svg"><path fill="#ffffff" d="M0 0L788.0 0L788.0 504.0L0 504.0L0 0Z" fill-rule="nonzero"/><path stroke="#333333" stroke-width="1.0" stroke-linecap="butt" d="M52.5 471.5L762.5 471.5" fill-rule="nonzero"/><path stroke="#cccccc" stroke-width="1.0" stroke-linecap="butt" d="M52.5 400.5L762.5 400.5" fill-rule="nonzero"/><path stroke="#cccccc" stroke-width="1.0" stroke-linecap="butt" d="M52.5 328.5L762.5 328.5" fill-rule="nonzero"/><path stroke="#cccccc" stroke-width="1.0" stroke-linecap="butt" d="M52.5 257.5L762.5 257.5" fill-rule="nonzero"/><path stroke="#cccccc" stroke-width="1.0" stroke-linecap="butt" d="M52.5 185.5L762.5 185.5" fill-rule="nonzero"/><path stroke="#cccccc" stroke-width="1.0" stroke-linecap="butt" d="M52.5 113.5L762.5 113.5" fill-rule="nonzero"/><clipPath id="id_0"><path d="M52.2 113.8L762.8 113.8L762.8 471.8L52.2 471.8L52.2 113.8Z" clip-rule="nonzero"/></clipPath><path stroke="#000000" stroke-width="0.0" stroke-linecap="butt" stroke-opacity="0.0" clip-path="url(#id_0)" d="M407.0 472.0L237.0 472.0L237.0 214.0C237.0 212.89543 237.89543 212.0 239.0 212.0L405.0 212.0C406.10458 212.0 407.0 212.89543 407.0 214.0Z" fill-rule="nonzero"/><path fill="#4285f4" clip-path="url(#id_0)" d="M407.0 472.0L237.0 472.0L237.0 214.0C237.0 212.89543 237.89543 212.0 239.0 212.0L405.0 212.0C406.10458 212.0 407.0 212.89543 407.0 214.0Z" fill-rule="nonzero"/><path stroke="#000000" stroke-width="0.0" stroke-linecap="butt" stroke-opacity="0.0" clip-path="url(#id_0)" d="M578.0 472.0L408.0 472.0L408.0 145.0C408.0 143.89543 408.89542 143.0 410.0 143.0L576.0 143.0C577.10455 143.0 578.0 143.89543 578.0 145.0Z" fill-rule="nonzero"/><path fill="#ea4335" clip-path="url(#id_0)" d="M578.0 472.0L408.0 472.0L408.0 145.0C408.0 143.89543 408.89542 143.0 410.0 143.0L576.0 143.0C577.10455 143.0 578.0 143.89543 578.0 145.0Z" fill-rule="nonzero"/><path stroke="#4285f4" stroke-width="3.0" stroke-linejoin="round" stroke-linecap="round" d="M313.21875 220.66272L309.6875 228.5846L308.54688 228.5846L312.0625 220.94397L307.45312 220.94397L307.45312 220.05334L313.21875 220.05334L313.21875 220.66272ZM314.84375 228.0221Q314.84375 227.74084 315.0 227.55334Q315.17188 227.36584 315.5 227.36584Q315.84375 227.36584 316.01562 227.55334Q316.1875 227.74084 316.1875 228.0221Q316.1875 228.28772 316.01562 228.47522Q315.84375 228.6471 315.5 228.6471Q315.17188 228.6471 315.0 228.47522Q314.84375 228.28772 314.84375 228.0221ZM323.29688 228.5846L317.70312 228.5846L317.70312 227.80334L320.65625 224.5221Q321.3125 223.7721 321.5625 223.31897Q321.8125 222.85022 321.8125 222.35022Q321.8125 221.67834 321.40625 221.25647Q321.01562 220.81897 320.32812 220.81897Q319.53125 220.81897 319.07812 221.28772Q318.625 221.74084 318.625 222.56897L317.54688 222.56897Q317.54688 221.38147 318.29688 220.66272Q319.0625 219.92834 320.32812 219.92834Q321.53125 219.92834 322.21875 220.55334Q322.90625 221.17834 322.90625 222.22522Q322.90625 223.47522 321.29688 225.22522L319.01562 227.69397L323.29688 227.69397L323.29688 228.5846ZM328.96875 220.05334L328.96875 220.9596L328.76562 220.9596Q327.5 220.99084 326.75 221.72522Q326.0 222.44397 325.875 223.75647Q326.5625 222.99084 327.71875 222.99084Q328.82812 222.99084 329.5 223.7721Q330.17188 224.55334 330.17188 225.80334Q330.17188 227.11584 329.45312 227.91272Q328.73438 228.7096 327.51562 228.7096Q326.29688 228.7096 325.53125 227.7721Q324.78125 226.81897 324.78125 225.3346L324.78125 224.92834Q324.78125 222.56897 325.78125 221.31897Q326.78125 220.06897 328.76562 220.05334L328.96875 220.05334ZM327.54688 223.8971Q326.98438 223.8971 326.51562 224.22522Q326.04688 224.55334 325.85938 225.06897L325.85938 225.4596Q325.85938 226.5221 326.32812 227.16272Q326.8125 227.80334 327.51562 227.80334Q328.25 227.80334 328.67188 227.2721Q329.09375 226.72522 329.09375 225.85022Q329.09375 224.97522 328.67188 224.44397Q328.25 223.8971 327.54688 223.8971ZM333.28125 223.78772L334.09375 223.78772Q334.875 223.7721 335.3125 223.38147Q335.75 222.99084 335.75 222.31897Q335.75 220.81897 334.25 220.81897Q333.54688 220.81897 333.125 221.22522Q332.71875 221.63147 332.71875 222.28772L331.625 222.28772Q331.625 221.2721 332.35938 220.60022Q333.10938 219.92834 334.25 219.92834Q335.45312 219.92834 336.14062 220.56897Q336.82812 221.2096 336.82812 222.35022Q336.82812 222.91272 336.46875 223.42834Q336.10938 223.94397 335.48438 224.2096Q336.1875 224.42834 336.5625 224.94397Q336.95312 225.4596 336.95312 226.2096Q336.95312 227.35022 336.20312 228.03772Q335.45312 228.7096 334.25 228.7096Q333.0625 228.7096 332.29688 228.05334Q331.54688 227.3971 331.54688 226.3346L332.64062 226.3346Q332.64062 227.00647 333.07812 227.41272Q333.51562 227.81897 334.26562 227.81897Q335.04688 227.81897 335.45312 227.41272Q335.875 226.99084 335.875 226.22522Q335.875 225.49084 335.42188 225.10022Q334.96875 224.69397 334.09375 224.67834L333.28125 224.67834L333.28125 223.78772Z" fill-rule="nonzero"/><path fill="#ffffff" d="M313.21875 220.66272L309.6875 228.5846L308.54688 228.5846L312.0625 220.94397L307.45312 220.94397L307.45312 220.05334L313.21875 220.05334L313.21875 220.66272ZM314.84375 228.0221Q314.84375 227.74084 315.0 227.55334Q315.17188 227.36584 315.5 227.36584Q315.84375 227.36584 316.01562 227.55334Q316.1875 227.74084 316.1875 228.0221Q316.1875 228.28772 316.01562 228.47522Q315.84375 228.6471 315.5 228.6471Q315.17188 228.6471 315.0 228.47522Q314.84375 228.28772 314.84375 228.0221ZM323.29688 228.5846L317.70312 228.5846L317.70312 227.80334L320.65625 224.5221Q321.3125 223.7721 321.5625 223.31897Q321.8125 222.85022 321.8125 222.35022Q321.8125 221.67834 321.40625 221.25647Q321.01562 220.81897 320.32812 220.81897Q319.53125 220.81897 319.07812 221.28772Q318.625 221.74084 318.625 222.56897L317.54688 222.56897Q317.54688 221.38147 318.29688 220.66272Q319.0625 219.92834 320.32812 219.92834Q321.53125 219.92834 322.21875 220.55334Q322.90625 221.17834 322.90625 222.22522Q322.90625 223.47522 321.29688 225.22522L319.01562 227.69397L323.29688 227.69397L323.29688 228.5846ZM328.96875 220.05334L328.96875 220.9596L328.76562 220.9596Q327.5 220.99084 326.75 221.72522Q326.0 222.44397 325.875 223.75647Q326.5625 222.99084 327.71875 222.99084Q328.82812 222.99084 329.5 223.7721Q330.17188 224.55334 330.17188 225.80334Q330.17188 227.11584 329.45312 227.91272Q328.73438 228.7096 327.51562 228.7096Q326.29688 228.7096 325.53125 227.7721Q324.78125 226.81897 324.78125 225.3346L324.78125 224.92834Q324.78125 222.56897 325.78125 221.31897Q326.78125 220.06897 328.76562 220.05334L328.96875 220.05334ZM327.54688 223.8971Q326.98438 223.8971 326.51562 224.22522Q326.04688 224.55334 325.85938 225.06897L325.85938 225.4596Q325.85938 226.5221 326.32812 227.16272Q326.8125 227.80334 327.51562 227.80334Q328.25 227.80334 328.67188 227.2721Q329.09375 226.72522 329.09375 225.85022Q329.09375 224.97522 328.67188 224.44397Q328.25 223.8971 327.54688 223.8971ZM333.28125 223.78772L334.09375 223.78772Q334.875 223.7721 335.3125 223.38147Q335.75 222.99084 335.75 222.31897Q335.75 220.81897 334.25 220.81897Q333.54688 220.81897 333.125 221.22522Q332.71875 221.63147 332.71875 222.28772L331.625 222.28772Q331.625 221.2721 332.35938 220.60022Q333.10938 219.92834 334.25 219.92834Q335.45312 219.92834 336.14062 220.56897Q336.82812 221.2096 336.82812 222.35022Q336.82812 222.91272 336.46875 223.42834Q336.10938 223.94397 335.48438 224.2096Q336.1875 224.42834 336.5625 224.94397Q336.95312 225.4596 336.95312 226.2096Q336.95312 227.35022 336.20312 228.03772Q335.45312 228.7096 334.25 228.7096Q333.0625 228.7096 332.29688 228.05334Q331.54688 227.3971 331.54688 226.3346L332.64062 226.3346Q332.64062 227.00647 333.07812 227.41272Q333.51562 227.81897 334.26562 227.81897Q335.04688 227.81897 335.45312 227.41272Q335.875 226.99084 335.875 226.22522Q335.875 225.49084 335.42188 225.10022Q334.96875 224.69397 334.09375 224.67834L333.28125 224.67834L333.28125 223.78772Z" fill-rule="nonzero"/><path stroke="#ea4335" stroke-width="3.0" stroke-linejoin="round" stroke-linecap="round" d="M482.85938 156.1702Q482.53125 156.57645 482.04688 156.82645Q481.57812 157.06082 481.01562 157.06082Q480.28125 157.06082 479.73438 156.70145Q479.1875 156.34207 478.89062 155.68582Q478.59375 155.01395 478.59375 154.21707Q478.59375 153.37332 478.90625 152.68582Q479.23438 151.99832 479.82812 151.63895Q480.4375 151.26395 481.23438 151.26395Q482.5 151.26395 483.21875 152.21707Q483.95312 153.1702 483.95312 154.7952L483.95312 155.1077Q483.95312 157.6077 482.96875 158.74832Q481.98438 159.88895 480.0 159.9202L479.78125 159.9202L479.78125 159.01395L480.01562 159.01395Q481.35938 158.9827 482.07812 158.31082Q482.79688 157.63895 482.85938 156.1702ZM481.1875 156.1702Q481.73438 156.1702 482.1875 155.84207Q482.65625 155.49832 482.875 155.01395L482.875 154.57645Q482.875 153.51395 482.40625 152.84207Q481.9375 152.1702 481.23438 152.1702Q480.51562 152.1702 480.07812 152.71707Q479.65625 153.26395 479.65625 154.1702Q479.65625 155.0452 480.0625 155.6077Q480.48438 156.1702 481.1875 156.1702ZM485.84375 159.3577Q485.84375 159.07645 486.0 158.88895Q486.17188 158.70145 486.5 158.70145Q486.84375 158.70145 487.01562 158.88895Q487.1875 159.07645 487.1875 159.3577Q487.1875 159.62332 487.01562 159.81082Q486.84375 159.9827 486.5 159.9827Q486.17188 159.9827 486.0 159.81082Q485.84375 159.62332 485.84375 159.3577ZM492.26562 159.9202L491.1875 159.9202L491.1875 152.70145L489.0 153.49832L489.0 152.51395L492.10938 151.34207L492.26562 151.34207L492.26562 159.9202ZM500.89062 153.6077Q500.89062 154.24832 500.54688 154.74832Q500.20312 155.24832 499.64062 155.52957Q500.29688 155.81082 500.6875 156.37332Q501.07812 156.9202 501.07812 157.62332Q501.07812 158.71707 500.32812 159.38895Q499.59375 160.0452 498.375 160.0452Q497.14062 160.0452 496.39062 159.38895Q495.65625 158.71707 495.65625 157.62332Q495.65625 156.9202 496.03125 156.37332Q496.40625 155.81082 497.07812 155.52957Q496.51562 155.24832 496.1875 154.74832Q495.85938 154.24832 495.85938 153.6077Q495.85938 152.52957 496.54688 151.90457Q497.23438 151.26395 498.375 151.26395Q499.5 151.26395 500.1875 151.90457Q500.89062 152.52957 500.89062 153.6077ZM500.0 157.59207Q500.0 156.87332 499.54688 156.43582Q499.09375 155.9827 498.35938 155.9827Q497.625 155.9827 497.17188 156.43582Q496.73438 156.87332 496.73438 157.6077Q496.73438 158.32645 497.17188 158.74832Q497.60938 159.15457 498.375 159.15457Q499.125 159.15457 499.5625 158.7327Q500.0 158.31082 500.0 157.59207ZM498.375 152.15457Q497.73438 152.15457 497.32812 152.56082Q496.9375 152.95145 496.9375 153.63895Q496.9375 154.27957 497.32812 154.68582Q497.71875 155.09207 498.35938 155.09207Q499.01562 155.09207 499.40625 154.68582Q499.79688 154.27957 499.79688 153.63895Q499.79688 152.9827 499.39062 152.57645Q498.98438 152.15457 498.375 152.15457ZM506.26562 159.9202L505.1875 159.9202L505.1875 152.70145L503.0 153.49832L503.0 152.51395L506.10938 151.34207L506.26562 151.34207L506.26562 159.9202Z" fill-rule="nonzero"/><path fill="#ffffff" d="M482.85938 156.1702Q482.53125 156.57645 482.04688 156.82645Q481.57812 157.06082 481.01562 157.06082Q480.28125 157.06082 479.73438 156.70145Q479.1875 156.34207 478.89062 155.68582Q478.59375 155.01395 478.59375 154.21707Q478.59375 153.37332 478.90625 152.68582Q479.23438 151.99832 479.82812 151.63895Q480.4375 151.26395 481.23438 151.26395Q482.5 151.26395 483.21875 152.21707Q483.95312 153.1702 483.95312 154.7952L483.95312 155.1077Q483.95312 157.6077 482.96875 158.74832Q481.98438 159.88895 480.0 159.9202L479.78125 159.9202L479.78125 159.01395L480.01562 159.01395Q481.35938 158.9827 482.07812 158.31082Q482.79688 157.63895 482.85938 156.1702ZM481.1875 156.1702Q481.73438 156.1702 482.1875 155.84207Q482.65625 155.49832 482.875 155.01395L482.875 154.57645Q482.875 153.51395 482.40625 152.84207Q481.9375 152.1702 481.23438 152.1702Q480.51562 152.1702 480.07812 152.71707Q479.65625 153.26395 479.65625 154.1702Q479.65625 155.0452 480.0625 155.6077Q480.48438 156.1702 481.1875 156.1702ZM485.84375 159.3577Q485.84375 159.07645 486.0 158.88895Q486.17188 158.70145 486.5 158.70145Q486.84375 158.70145 487.01562 158.88895Q487.1875 159.07645 487.1875 159.3577Q487.1875 159.62332 487.01562 159.81082Q486.84375 159.9827 486.5 159.9827Q486.17188 159.9827 486.0 159.81082Q485.84375 159.62332 485.84375 159.3577ZM492.26562 159.9202L491.1875 159.9202L491.1875 152.70145L489.0 153.49832L489.0 152.51395L492.10938 151.34207L492.26562 151.34207L492.26562 159.9202ZM500.89062 153.6077Q500.89062 154.24832 500.54688 154.74832Q500.20312 155.24832 499.64062 155.52957Q500.29688 155.81082 500.6875 156.37332Q501.07812 156.9202 501.07812 157.62332Q501.07812 158.71707 500.32812 159.38895Q499.59375 160.0452 498.375 160.0452Q497.14062 160.0452 496.39062 159.38895Q495.65625 158.71707 495.65625 157.62332Q495.65625 156.9202 496.03125 156.37332Q496.40625 155.81082 497.07812 155.52957Q496.51562 155.24832 496.1875 154.74832Q495.85938 154.24832 495.85938 153.6077Q495.85938 152.52957 496.54688 151.90457Q497.23438 151.26395 498.375 151.26395Q499.5 151.26395 500.1875 151.90457Q500.89062 152.52957 500.89062 153.6077ZM500.0 157.59207Q500.0 156.87332 499.54688 156.43582Q499.09375 155.9827 498.35938 155.9827Q497.625 155.9827 497.17188 156.43582Q496.73438 156.87332 496.73438 157.6077Q496.73438 158.32645 497.17188 158.74832Q497.60938 159.15457 498.375 159.15457Q499.125 159.15457 499.5625 158.7327Q500.0 158.31082 500.0 157.59207ZM498.375 152.15457Q497.73438 152.15457 497.32812 152.56082Q496.9375 152.95145 496.9375 153.63895Q496.9375 154.27957 497.32812 154.68582Q497.71875 155.09207 498.35938 155.09207Q499.01562 155.09207 499.40625 154.68582Q499.79688 154.27957 499.79688 153.63895Q499.79688 152.9827 499.39062 152.57645Q498.98438 152.15457 498.375 152.15457ZM506.26562 159.9202L505.1875 159.9202L505.1875 152.70145L503.0 153.49832L503.0 152.51395L506.10938 151.34207L506.26562 151.34207L506.26562 159.9202Z" fill-rule="nonzero"/><path fill="#000000" d="M39.7 471.5656Q39.7 470.03436 40.0125 469.1125Q40.325 468.175 40.934376 467.675Q41.559376 467.175 42.496876 467.175Q43.184376 467.175 43.7 467.45624Q44.23125 467.7375 44.575 468.26874Q44.91875 468.78436 45.10625 469.53436Q45.29375 470.28436 45.29375 471.5656Q45.29375 473.08124 44.98125 474.0031Q44.684376 474.925 44.059376 475.4406Q43.45 475.9406 42.496876 475.9406Q41.2625 475.9406 40.54375 475.05Q39.7 473.9875 39.7 471.5656ZM40.778126 471.5656Q40.778126 473.675 41.278126 474.3781Q41.778126 475.08124 42.496876 475.08124Q43.23125 475.08124 43.715626 474.3781Q44.215626 473.675 44.215626 471.5656Q44.215626 469.4406 43.715626 468.7531Q43.23125 468.05 42.48125 468.05Q41.7625 468.05 41.325 468.65936Q40.778126 469.4406 40.778126 471.5656Z" fill-rule="nonzero"/><path fill="#000000" d="M45.246876 403.1844L45.246876 404.2L39.559376 404.2Q39.559376 403.825 39.684376 403.46564Q39.903126 402.8875 40.371876 402.325Q40.85625 401.7625 41.7625 401.02814Q43.16875 399.8719 43.653126 399.2Q44.153126 398.52814 44.153126 397.9344Q44.153126 397.3094 43.7 396.8875Q43.246876 396.45 42.528126 396.45Q41.7625 396.45 41.309376 396.90314Q40.85625 397.35626 40.840626 398.16876L39.7625 398.0594Q39.871876 396.84064 40.590626 396.21564Q41.325 395.575 42.559376 395.575Q43.79375 395.575 44.5125 396.2625Q45.23125 396.95 45.23125 397.96564Q45.23125 398.48126 45.0125 398.98126Q44.809376 399.46564 44.309376 400.02814Q43.825 400.575 42.7 401.52814Q41.746876 402.325 41.465626 402.6219Q41.2 402.90314 41.028126 403.1844L45.246876 403.1844Z" fill-rule="nonzero"/><path fill="#000000" d="M43.075 332.6L43.075 330.5375L39.35625 330.5375L39.35625 329.56876L43.278126 324.00626L44.1375 324.00626L44.1375 329.56876L45.29375 329.56876L45.29375 330.5375L44.1375 330.5375L44.1375 332.6L43.075 332.6ZM43.075 329.56876L43.075 325.70938L40.3875 329.56876L43.075 329.56876Z" fill-rule="nonzero"/><path fill="#000000" d="M45.16875 254.51562L44.121876 254.59375Q43.98125 253.96875 43.73125 253.6875Q43.29375 253.23438 42.66875 253.23438Q42.16875 253.23438 41.778126 253.51562Q41.29375 253.89062 40.996876 254.59375Q40.715626 255.28125 40.7 256.5625Q41.075 255.98438 41.621876 255.70312Q42.184376 255.42188 42.79375 255.42188Q43.840626 255.42188 44.575 256.20312Q45.325 256.98438 45.325 258.20312Q45.325 259.01562 44.965626 259.71875Q44.621876 260.40625 44.0125 260.78125Q43.403126 261.14062 42.6375 261.14062Q41.309376 261.14062 40.48125 260.17188Q39.653126 259.20312 39.653126 256.98438Q39.653126 254.48438 40.575 253.35938Q41.371876 252.375 42.73125 252.375Q43.746876 252.375 44.3875 252.95312Q45.04375 253.51562 45.16875 254.51562ZM40.871876 258.21875Q40.871876 258.76562 41.090626 259.26562Q41.325 259.75 41.73125 260.01562Q42.153126 260.28125 42.621876 260.28125Q43.278126 260.28125 43.7625 259.75Q44.246876 259.20312 44.246876 258.28125Q44.246876 257.39062 43.7625 256.875Q43.29375 256.35938 42.575 256.35938Q41.85625 256.35938 41.35625 256.875Q40.871876 257.39062 40.871876 258.21875Z" fill-rule="nonzero"/><path fill="#000000" d="M41.325 184.74374Q40.66875 184.49374 40.340626 184.05624Q40.028126 183.60312 40.028126 182.99374Q40.028126 182.05624 40.7 181.41562Q41.3875 180.775 42.496876 180.775Q43.621876 180.775 44.309376 181.43124Q44.996876 182.0875 44.996876 183.025Q44.996876 183.61874 44.684376 184.05624Q44.371876 184.49374 43.73125 184.74374Q44.528126 184.99374 44.934376 185.57187Q45.340626 186.15 45.340626 186.94687Q45.340626 188.04062 44.559376 188.79062Q43.79375 189.54062 42.5125 189.54062Q41.246876 189.54062 40.465626 188.79062Q39.684376 188.04062 39.684376 186.91562Q39.684376 186.07187 40.10625 185.50937Q40.54375 184.94687 41.325 184.74374ZM41.10625 182.94687Q41.10625 183.55624 41.496876 183.94687Q41.903126 184.3375 42.528126 184.3375Q43.1375 184.3375 43.528126 183.9625Q43.91875 183.57187 43.91875 183.00937Q43.91875 182.43124 43.5125 182.04062Q43.10625 181.63437 42.5125 181.63437Q41.903126 181.63437 41.496876 182.025Q41.10625 182.41562 41.10625 182.94687ZM40.778126 186.91562Q40.778126 187.36874 40.98125 187.79062Q41.2 188.2125 41.621876 188.44687Q42.04375 188.68124 42.528126 188.68124Q43.278126 188.68124 43.7625 188.19687Q44.2625 187.7125 44.2625 186.9625Q44.2625 186.19687 43.7625 185.69687Q43.2625 185.19687 42.496876 185.19687Q41.746876 185.19687 41.2625 185.69687Q40.778126 186.18124 40.778126 186.91562Z" fill-rule="nonzero"/><path fill="#000000" d="M36.66875 117.8L35.621876 117.8L35.621876 111.08125Q35.23125 111.44063 34.60625 111.81563Q33.996876 112.175 33.5125 112.34688L33.5125 111.33125Q34.3875 110.90938 35.04375 110.33125Q35.715626 109.7375 35.996876 109.175L36.66875 109.175L36.66875 117.8ZM39.7 113.56563Q39.7 112.03438 40.0125 111.1125Q40.325 110.175 40.934376 109.675Q41.559376 109.175 42.496876 109.175Q43.184376 109.175 43.7 109.45625Q44.23125 109.7375 44.575 110.26875Q44.91875 110.78438 45.10625 111.53438Q45.29375 112.28438 45.29375 113.56563Q45.29375 115.08125 44.98125 116.00313Q44.684376 116.925 44.059376 117.44063Q43.45 117.94063 42.496876 117.94063Q41.2625 117.94063 40.54375 117.05Q39.7 115.9875 39.7 113.56563ZM40.778126 113.56563Q40.778126 115.675 41.278126 116.37813Q41.778126 117.08125 42.496876 117.08125Q43.23125 117.08125 43.715626 116.37813Q44.215626 115.675 44.215626 113.56563Q44.215626 111.44063 43.715626 110.75313Q43.23125 110.05 42.48125 110.05Q41.7625 110.05 41.325 110.65938Q40.778126 111.44063 40.778126 113.56563Z" fill-rule="nonzero"/><path fill="#4285f4" d="M302.5 73.0C302.5 72.447716 302.94772 72.0 303.5 72.0L313.5 72.0C314.05228 72.0 314.5 72.447716 314.5 73.0L314.5 83.0C314.5 83.552284 314.05228 84.0 313.5 84.0L303.5 84.0C302.94772 84.0 302.5 83.552284 302.5 83.0Z" fill-rule="nonzero"/><path fill="#1a1a1a" d="M323.96875 85.0L323.96875 70.6875L325.85938 70.6875L325.85938 83.3125L332.90625 83.3125L332.90625 85.0L323.96875 85.0ZM334.82812 72.703125L334.82812 70.6875L336.59375 70.6875L336.59375 72.703125L334.82812 72.703125ZM334.82812 85.0L334.82812 74.625L336.59375 74.625L336.59375 85.0L334.82812 85.0ZM338.8125 85.0L338.8125 74.625L340.40625 74.625L340.40625 76.109375Q341.54688 74.390625 343.70312 74.390625Q344.64062 74.390625 345.42188 74.734375Q346.21875 75.0625 346.60938 75.609375Q347.0 76.15625 347.15625 76.90625Q347.25 77.40625 347.25 78.625L347.25 85.0L345.48438 85.0L345.48438 78.6875Q345.48438 77.609375 345.28125 77.078125Q345.07812 76.546875 344.54688 76.234375Q344.03125 75.921875 343.32812 75.921875Q342.20312 75.921875 341.39062 76.640625Q340.57812 77.34375 340.57812 79.328125L340.57812 85.0L338.8125 85.0ZM356.60938 85.0L356.60938 83.46875Q355.40625 85.234375 353.32812 85.234375Q352.40625 85.234375 351.60938 84.890625Q350.8125 84.53125 350.42188 84.0Q350.04688 83.46875 349.89062 82.6875Q349.78125 82.171875 349.78125 81.046875L349.78125 74.625L351.53125 74.625L351.53125 80.375Q351.53125 81.75 351.64062 82.234375Q351.8125 82.921875 352.34375 83.328125Q352.89062 83.71875 353.67188 83.71875Q354.46875 83.71875 355.15625 83.3125Q355.85938 82.90625 356.14062 82.21875Q356.4375 81.515625 356.4375 80.1875L356.4375 74.625L358.1875 74.625L358.1875 85.0L356.60938 85.0ZM359.64062 85.0L363.4375 79.609375L359.9375 74.625L362.125 74.625L363.71875 77.0625Q364.17188 77.75 364.4375 78.21875Q364.875 77.578125 365.23438 77.078125L366.98438 74.625L369.07812 74.625L365.5 79.515625L369.35938 85.0L367.20312 85.0L365.0625 81.78125L364.5 80.90625L361.78125 85.0L359.64062 85.0Z" fill-rule="nonzero"/><path fill="#ea4335" d="M385.5 73.0C385.5 72.447716 385.94772 72.0 386.5 72.0L396.5 72.0C397.05228 72.0 397.5 72.447716 397.5 73.0L397.5 83.0C397.5 83.552284 397.05228 84.0 396.5 84.0L386.5 84.0C385.94772 84.0 385.5 83.552284 385.5 83.0Z" fill-rule="nonzero"/><path fill="#1a1a1a" d="M409.54688 85.0L405.75 70.6875L407.6875 70.6875L409.85938 80.0625Q410.21875 81.546875 410.46875 83.0Q411.01562 80.703125 411.10938 80.34375L413.84375 70.6875L416.125 70.6875L418.17188 77.921875Q418.95312 80.625 419.29688 83.0Q419.5625 81.640625 420.0 79.875L422.25 70.6875L424.15625 70.6875L420.23438 85.0L418.40625 85.0L415.39062 74.09375Q415.0 72.71875 414.9375 72.40625Q414.70312 73.390625 414.51562 74.09375L411.48438 85.0L409.54688 85.0ZM425.82812 72.703125L425.82812 70.6875L427.59375 70.6875L427.59375 72.703125L425.82812 72.703125ZM425.82812 85.0L425.82812 74.625L427.59375 74.625L427.59375 85.0L425.82812 85.0ZM429.8125 85.0L429.8125 74.625L431.40625 74.625L431.40625 76.109375Q432.54688 74.390625 434.70312 74.390625Q435.64062 74.390625 436.42188 74.734375Q437.21875 75.0625 437.60938 75.609375Q438.0 76.15625 438.15625 76.90625Q438.25 77.40625 438.25 78.625L438.25 85.0L436.48438 85.0L436.48438 78.6875Q436.48438 77.609375 436.28125 77.078125Q436.07812 76.546875 435.54688 76.234375Q435.03125 75.921875 434.32812 75.921875Q433.20312 75.921875 432.39062 76.640625Q431.57812 77.34375 431.57812 79.328125L431.57812 85.0L429.8125 85.0ZM447.54688 85.0L447.54688 83.6875Q446.5625 85.234375 444.64062 85.234375Q443.40625 85.234375 442.35938 84.546875Q441.32812 83.859375 440.75 82.640625Q440.1875 81.421875 440.1875 79.828125Q440.1875 78.265625 440.70312 77.0Q441.21875 75.734375 442.25 75.0625Q443.29688 74.390625 444.5625 74.390625Q445.5 74.390625 446.23438 74.796875Q446.96875 75.1875 447.4375 75.8125L447.4375 70.6875L449.17188 70.6875L449.17188 85.0L447.54688 85.0ZM441.98438 79.828125Q441.98438 81.8125 442.82812 82.796875Q443.67188 83.78125 444.8125 83.78125Q445.96875 83.78125 446.76562 82.84375Q447.57812 81.90625 447.57812 79.96875Q447.57812 77.84375 446.75 76.84375Q445.9375 75.84375 444.73438 75.84375Q443.5625 75.84375 442.76562 76.8125Q441.98438 77.765625 441.98438 79.828125ZM451.17188 79.8125Q451.17188 76.9375 452.76562 75.546875Q454.10938 74.390625 456.03125 74.390625Q458.17188 74.390625 459.51562 75.796875Q460.875 77.203125 460.875 79.671875Q460.875 81.671875 460.28125 82.828125Q459.6875 83.96875 458.53125 84.609375Q457.39062 85.234375 456.03125 85.234375Q453.84375 85.234375 452.5 83.84375Q451.17188 82.4375 451.17188 79.8125ZM452.96875 79.8125Q452.96875 81.8125 453.82812 82.796875Q454.70312 83.78125 456.03125 83.78125Q457.34375 83.78125 458.20312 82.796875Q459.07812 81.796875 459.07812 79.75Q459.07812 77.828125 458.20312 76.84375Q457.32812 75.84375 456.03125 75.84375Q454.70312 75.84375 453.82812 76.84375Q452.96875 77.828125 452.96875 79.8125ZM464.73438 85.0L461.5625 74.625L463.375 74.625L465.03125 80.609375L465.64062 82.84375Q465.6875 82.671875 466.17188 80.703125L467.82812 74.625L469.64062 74.625L471.1875 80.640625L471.70312 82.625L472.29688 80.625L474.07812 74.625L475.78125 74.625L472.54688 85.0L470.71875 85.0L469.0625 78.78125L468.67188 77.015625L466.5625 85.0L464.73438 85.0ZM476.10938 81.90625L477.85938 81.625Q478.0 82.671875 478.67188 83.234375Q479.34375 83.78125 480.54688 83.78125Q481.75 83.78125 482.32812 83.296875Q482.92188 82.796875 482.92188 82.140625Q482.92188 81.546875 482.40625 81.203125Q482.04688 80.96875 480.60938 80.609375Q478.67188 80.109375 477.92188 79.765625Q477.1875 79.40625 476.79688 78.78125Q476.40625 78.140625 476.40625 77.375Q476.40625 76.6875 476.71875 76.09375Q477.04688 75.5 477.59375 75.109375Q478.0 74.8125 478.70312 74.609375Q479.42188 74.390625 480.23438 74.390625Q481.45312 74.390625 482.375 74.75Q483.29688 75.09375 483.73438 75.703125Q484.17188 76.296875 484.34375 77.296875L482.625 77.53125Q482.5 76.734375 481.9375 76.296875Q481.375 75.84375 480.35938 75.84375Q479.14062 75.84375 478.625 76.25Q478.10938 76.640625 478.10938 77.171875Q478.10938 77.515625 478.32812 77.796875Q478.53125 78.078125 479.0 78.265625Q479.26562 78.359375 480.54688 78.703125Q482.42188 79.203125 483.15625 79.53125Q483.89062 79.84375 484.3125 80.453125Q484.73438 81.046875 484.73438 81.953125Q484.73438 82.828125 484.21875 83.609375Q483.70312 84.390625 482.73438 84.8125Q481.76562 85.234375 480.54688 85.234375Q478.53125 85.234375 477.46875 84.390625Q476.40625 83.546875 476.10938 81.90625Z" fill-rule="nonzero"/><path fill="#757575" d="M30.3875 44.2L30.3875 31.575L25.66875 31.575L25.66875 29.8875L37.0125 29.8875L37.0125 31.575L32.278126 31.575L32.278126 44.2L30.3875 44.2ZM38.528126 31.903126L38.528126 29.8875L40.29375 29.8875L40.29375 31.903126L38.528126 31.903126ZM38.528126 44.2L38.528126 33.825L40.29375 33.825L40.29375 44.2L38.528126 44.2ZM45.403126 44.2L41.45 33.825L43.309376 33.825L45.54375 40.04375Q45.903126 41.04375 46.2 42.121876Q46.434376 41.309376 46.85625 40.153126L49.153126 33.825L50.965626 33.825L47.04375 44.2L45.403126 44.2ZM52.528126 31.903126L52.528126 29.8875L54.29375 29.8875L54.29375 31.903126L52.528126 31.903126ZM52.528126 44.2L52.528126 33.825L54.29375 33.825L54.29375 44.2L52.528126 44.2ZM62.528126 31.903126L62.528126 29.8875L64.29375 29.8875L64.29375 31.903126L62.528126 31.903126ZM62.528126 44.2L62.528126 33.825L64.29375 33.825L64.29375 44.2L62.528126 44.2ZM66.5125 44.2L66.5125 33.825L68.10625 33.825L68.10625 35.309376Q69.24687 33.590626 71.40312 33.590626Q72.34062 33.590626 73.12187 33.934376Q73.91875 34.2625 74.30937 34.809376Q74.7 35.35625 74.85625 36.10625Q74.95 36.60625 74.95 37.825L74.95 44.2L73.18437 44.2L73.18437 37.8875Q73.18437 36.809376 72.98125 36.278126Q72.77812 35.746876 72.24687 35.434376Q71.73125 35.121876 71.02812 35.121876Q69.90312 35.121876 69.09062 35.840626Q68.27812 36.54375 68.27812 38.528126L68.27812 44.2L66.5125 44.2ZM84.29375 40.403126L86.0125 40.621876Q85.73125 42.41875 84.55937 43.434376Q83.40312 44.434376 81.7 44.434376Q79.575 44.434376 78.27812 43.04375Q76.98125 41.653126 76.98125 39.059376Q76.98125 37.371876 77.52812 36.121876Q78.09062 34.85625 79.23125 34.23125Q80.37187 33.590626 81.71562 33.590626Q83.40312 33.590626 84.46562 34.45Q85.54375 35.309376 85.85625 36.871876L84.1375 37.1375Q83.90312 36.090626 83.27812 35.575Q82.65312 35.04375 81.77812 35.04375Q80.45 35.04375 79.62187 35.996876Q78.79375 36.95 78.79375 38.996876Q78.79375 41.090626 79.59062 42.04375Q80.3875 42.98125 81.68437 42.98125Q82.71562 42.98125 83.40312 42.35625Q84.10625 41.715626 84.29375 40.403126ZM87.49687 44.2L87.49687 33.825L89.075 33.825L89.075 35.403126Q89.68437 34.29375 90.2 33.95Q90.71562 33.590626 91.325 33.590626Q92.21562 33.590626 93.1375 34.153126L92.52812 35.79375Q91.8875 35.403126 91.24687 35.403126Q90.66875 35.403126 90.2 35.7625Q89.74687 36.10625 89.54375 36.715626Q89.2625 37.653126 89.2625 38.7625L89.2625 44.2L87.49687 44.2ZM101.62187 40.85625L103.43437 41.090626Q103.0125 42.66875 101.84062 43.559376Q100.68437 44.434376 98.87187 44.434376Q96.60625 44.434376 95.2625 43.04375Q93.93437 41.6375 93.93437 39.10625Q93.93437 36.48125 95.27812 35.04375Q96.62187 33.590626 98.77812 33.590626Q100.85625 33.590626 102.16875 35.0125Q103.49687 36.41875 103.49687 38.996876Q103.49687 39.153126 103.48125 39.465626L95.74687 39.465626Q95.84062 41.16875 96.71562 42.075Q97.59062 42.98125 98.8875 42.98125Q99.85625 42.98125 100.52812 42.48125Q101.21562 41.965626 101.62187 40.85625ZM95.84062 38.0125L101.6375 38.0125Q101.52812 36.715626 100.98125 36.059376Q100.1375 35.04375 98.79375 35.04375Q97.59062 35.04375 96.7625 35.85625Q95.93437 36.653126 95.84062 38.0125ZM105.5125 44.2L105.5125 33.825L107.09062 33.825L107.09062 35.278126Q107.575 34.528126 108.3875 34.059376Q109.2 33.590626 110.23125 33.590626Q111.3875 33.590626 112.12187 34.075Q112.85625 34.54375 113.16875 35.403126Q114.40312 33.590626 116.37187 33.590626Q117.91875 33.590626 118.74687 34.45Q119.575 35.309376 119.575 37.075L119.575 44.2L117.825 44.2L117.825 37.66875Q117.825 36.60625 117.65312 36.153126Q117.48125 35.684376 117.02812 35.403126Q116.59062 35.121876 115.98125 35.121876Q114.8875 35.121876 114.15312 35.85625Q113.43437 36.575 113.43437 38.16875L113.43437 44.2L111.68437 44.2L111.68437 37.465626Q111.68437 36.29375 111.24687 35.715626Q110.825 35.121876 109.84062 35.121876Q109.10625 35.121876 108.46562 35.5125Q107.84062 35.903126 107.55937 36.653126Q107.27812 37.403126 107.27812 38.825L107.27812 44.2L105.5125 44.2ZM129.62187 40.85625L131.43437 41.090626Q131.0125 42.66875 129.84062 43.559376Q128.68437 44.434376 126.87187 44.434376Q124.60625 44.434376 123.2625 43.04375Q121.93437 41.6375 121.93437 39.10625Q121.93437 36.48125 123.27812 35.04375Q124.62187 33.590626 126.77812 33.590626Q128.85625 33.590626 130.16875 35.0125Q131.49687 36.41875 131.49687 38.996876Q131.49687 39.153126 131.48125 39.465626L123.74687 39.465626Q123.84062 41.16875 124.71562 42.075Q125.59062 42.98125 126.8875 42.98125Q127.85625 42.98125 128.52812 42.48125Q129.21562 41.965626 129.62187 40.85625ZM123.84062 38.0125L129.6375 38.0125Q129.52812 36.715626 128.98125 36.059376Q128.1375 35.04375 126.79375 35.04375Q125.59062 35.04375 124.7625 35.85625Q123.93437 36.653126 123.84062 38.0125ZM133.5125 44.2L133.5125 33.825L135.10625 33.825L135.10625 35.309376Q136.24687 33.590626 138.40312 33.590626Q139.34062 33.590626 140.12187 33.934376Q140.91875 34.2625 141.30937 34.809376Q141.7 35.35625 141.85625 36.10625Q141.95 36.60625 141.95 37.825L141.95 44.2L140.18437 44.2L140.18437 37.8875Q140.18437 36.809376 139.98125 36.278126Q139.77812 35.746876 139.24687 35.434376Q138.73125 35.121876 138.02812 35.121876Q136.90312 35.121876 136.09062 35.840626Q135.27812 36.54375 135.27812 38.528126L135.27812 44.2L133.5125 44.2ZM148.35625 42.621876L148.60625 44.184376Q147.87187 44.340626 147.27812 44.340626Q146.325 44.340626 145.79375 44.04375Q145.27812 43.73125 145.05937 43.246876Q144.84062 42.746876 144.84062 41.16875L144.84062 35.2L143.55937 35.2L143.55937 33.825L144.84062 33.825L144.84062 31.2625L146.59062 30.2L146.59062 33.825L148.35625 33.825L148.35625 35.2L146.59062 35.2L146.59062 41.2625Q146.59062 42.0125 146.68437 42.23125Q146.77812 42.434376 146.98125 42.575Q147.2 42.7 147.59062 42.7Q147.87187 42.7 148.35625 42.621876ZM157.29375 42.91875Q156.30937 43.746876 155.40312 44.090626Q154.49687 44.434376 153.46562 44.434376Q151.7625 44.434376 150.84062 43.60625Q149.91875 42.7625 149.91875 41.465626Q149.91875 40.7 150.2625 40.075Q150.62187 39.45 151.18437 39.075Q151.74687 38.684376 152.45 38.48125Q152.96562 38.35625 154.0125 38.215626Q156.1375 37.965626 157.1375 37.621876Q157.15312 37.2625 157.15312 37.153126Q157.15312 36.090626 156.65312 35.6375Q155.98125 35.04375 154.65312 35.04375Q153.40312 35.04375 152.80937 35.48125Q152.23125 35.91875 151.95 37.028126L150.23125 36.79375Q150.46562 35.684376 150.99687 35.0125Q151.52812 34.325 152.54375 33.965626Q153.55937 33.590626 154.90312 33.590626Q156.23125 33.590626 157.05937 33.903126Q157.8875 34.215626 158.27812 34.7Q158.66875 35.16875 158.825 35.8875Q158.91875 36.340626 158.91875 37.5125L158.91875 39.85625Q158.91875 42.309376 159.02812 42.965626Q159.1375 43.60625 159.48125 44.2L157.6375 44.2Q157.37187 43.653126 157.29375 42.91875ZM157.1375 38.996876Q156.18437 39.3875 154.2625 39.653126Q153.18437 39.809376 152.73125 40.0125Q152.29375 40.2 152.04375 40.575Q151.79375 40.95 151.79375 41.41875Q151.79375 42.121876 152.325 42.590626Q152.85625 43.059376 153.8875 43.059376Q154.90312 43.059376 155.68437 42.621876Q156.48125 42.16875 156.85625 41.403126Q157.1375 40.79375 157.1375 39.6375L157.1375 38.996876ZM161.48125 44.2L161.48125 29.8875L163.23125 29.8875L163.23125 44.2L161.48125 44.2ZM173.1375 44.2L171.5125 44.2L171.5125 29.8875L173.2625 29.8875L173.2625 34.996876Q174.3875 33.590626 176.10625 33.590626Q177.05937 33.590626 177.91875 33.98125Q178.77812 34.371876 179.325 35.075Q179.87187 35.7625 180.18437 36.746876Q180.49687 37.73125 180.49687 38.85625Q180.49687 41.528126 179.18437 42.98125Q177.87187 44.434376 176.02812 44.434376Q174.18437 44.434376 173.1375 42.903126L173.1375 44.2ZM173.12187 38.934376Q173.12187 40.79375 173.62187 41.6375Q174.46562 42.98125 175.87187 42.98125Q177.02812 42.98125 177.85625 41.98125Q178.7 40.98125 178.7 38.996876Q178.7 36.965626 177.8875 36.0125Q177.09062 35.04375 175.95 35.04375Q174.79375 35.04375 173.95 36.04375Q173.12187 37.04375 173.12187 38.934376ZM189.30937 44.2L189.30937 42.66875Q188.10625 44.434376 186.02812 44.434376Q185.10625 44.434376 184.30937 44.090626Q183.5125 43.73125 183.12187 43.2Q182.74687 42.66875 182.59062 41.8875Q182.48125 41.371876 182.48125 40.246876L182.48125 33.825L184.23125 33.825L184.23125 39.575Q184.23125 40.95 184.34062 41.434376Q184.5125 42.121876 185.04375 42.528126Q185.59062 42.91875 186.37187 42.91875Q187.16875 42.91875 187.85625 42.5125Q188.55937 42.10625 188.84062 41.41875Q189.1375 40.715626 189.1375 39.3875L189.1375 33.825L190.8875 33.825L190.8875 44.2L189.30937 44.2ZM193.52812 31.903126L193.52812 29.8875L195.29375 29.8875L195.29375 31.903126L193.52812 31.903126ZM193.52812 44.2L193.52812 33.825L195.29375 33.825L195.29375 44.2L193.52812 44.2ZM197.48125 44.2L197.48125 29.8875L199.23125 29.8875L199.23125 44.2L197.48125 44.2ZM208.24687 44.2L208.24687 42.8875Q207.2625 44.434376 205.34062 44.434376Q204.10625 44.434376 203.05937 43.746876Q202.02812 43.059376 201.45 41.840626Q200.8875 40.621876 200.8875 39.028126Q200.8875 37.465626 201.40312 36.2Q201.91875 34.934376 202.95 34.2625Q203.99687 33.590626 205.2625 33.590626Q206.2 33.590626 206.93437 33.996876Q207.66875 34.3875 208.1375 35.0125L208.1375 29.8875L209.87187 29.8875L209.87187 44.2L208.24687 44.2ZM202.68437 39.028126Q202.68437 41.0125 203.52812 41.996876Q204.37187 42.98125 205.5125 42.98125Q206.66875 42.98125 207.46562 42.04375Q208.27812 41.10625 208.27812 39.16875Q208.27812 37.04375 207.45 36.04375Q206.6375 35.04375 205.43437 35.04375Q204.2625 35.04375 203.46562 36.0125Q202.68437 36.965626 202.68437 39.028126ZM218.52812 31.903126L218.52812 29.8875L220.29375 29.8875L220.29375 31.903126L218.52812 31.903126ZM218.52812 44.2L218.52812 33.825L220.29375 33.825L220.29375 44.2L218.52812 44.2ZM222.5125 44.2L222.5125 33.825L224.10625 33.825L224.10625 35.309376Q225.24687 33.590626 227.40312 33.590626Q228.34062 33.590626 229.12187 33.934376Q229.91875 34.2625 230.30937 34.809376Q230.7 35.35625 230.85625 36.10625Q230.95 36.60625 230.95 37.825L230.95 44.2L229.18437 44.2L229.18437 37.8875Q229.18437 36.809376 228.98125 36.278126Q228.77812 35.746876 228.24687 35.434376Q227.73125 35.121876 227.02812 35.121876Q225.90312 35.121876 225.09062 35.840626Q224.27812 36.54375 224.27812 38.528126L224.27812 44.2L222.5125 44.2ZM238.80937 41.10625L240.55937 40.825Q240.7 41.871876 241.37187 42.434376Q242.04375 42.98125 243.24687 42.98125Q244.45 42.98125 245.02812 42.496876Q245.62187 41.996876 245.62187 41.340626Q245.62187 40.746876 245.10625 40.403126Q244.74687 40.16875 243.30937 39.809376Q241.37187 39.309376 240.62187 38.965626Q239.8875 38.60625 239.49687 37.98125Q239.10625 37.340626 239.10625 36.575Q239.10625 35.8875 239.41875 35.29375Q239.74687 34.7 240.29375 34.309376Q240.7 34.0125 241.40312 33.809376Q242.12187 33.590626 242.93437 33.590626Q244.15312 33.590626 245.075 33.95Q245.99687 34.29375 246.43437 34.903126Q246.87187 35.496876 247.04375 36.496876L245.325 36.73125Q245.2 35.934376 244.6375 35.496876Q244.075 35.04375 243.05937 35.04375Q241.84062 35.04375 241.325 35.45Q240.80937 35.840626 240.80937 36.371876Q240.80937 36.715626 241.02812 36.996876Q241.23125 37.278126 241.7 37.465626Q241.96562 37.559376 243.24687 37.903126Q245.12187 38.403126 245.85625 38.73125Q246.59062 39.04375 247.0125 39.653126Q247.43437 40.246876 247.43437 41.153126Q247.43437 42.028126 246.91875 42.809376Q246.40312 43.590626 245.43437 44.0125Q244.46562 44.434376 243.24687 44.434376Q241.23125 44.434376 240.16875 43.590626Q239.10625 42.746876 238.80937 41.10625ZM256.6219 40.85625L258.4344 41.090626Q258.0125 42.66875 256.84064 43.559376Q255.68437 44.434376 253.87187 44.434376Q251.60625 44.434376 250.2625 43.04375Q248.93437 41.6375 248.93437 39.10625Q248.93437 36.48125 250.27812 35.04375Q251.62187 33.590626 253.77812 33.590626Q255.85625 33.590626 257.16876 35.0125Q258.4969 36.41875 258.4969 38.996876Q258.4969 39.153126 258.48126 39.465626L250.74687 39.465626Q250.84062 41.16875 251.71562 42.075Q252.59062 42.98125 253.8875 42.98125Q254.85625 42.98125 255.52812 42.48125Q256.21564 41.965626 256.6219 40.85625ZM250.84062 38.0125L256.6375 38.0125Q256.52814 36.715626 255.98125 36.059376Q255.1375 35.04375 253.79375 35.04375Q252.59062 35.04375 251.7625 35.85625Q250.93437 36.653126 250.84062 38.0125ZM267.29376 40.403126L269.0125 40.621876Q268.73126 42.41875 267.5594 43.434376Q266.40314 44.434376 264.7 44.434376Q262.575 44.434376 261.27814 43.04375Q259.98126 41.653126 259.98126 39.059376Q259.98126 37.371876 260.52814 36.121876Q261.09064 34.85625 262.23126 34.23125Q263.3719 33.590626 264.71564 33.590626Q266.40314 33.590626 267.46564 34.45Q268.54376 35.309376 268.85626 36.871876L267.1375 37.1375Q266.90314 36.090626 266.27814 35.575Q265.65314 35.04375 264.77814 35.04375Q263.45 35.04375 262.6219 35.996876Q261.79376 36.95 261.79376 38.996876Q261.79376 41.090626 262.59064 42.04375Q263.3875 42.98125 264.6844 42.98125Q265.71564 42.98125 266.40314 42.35625Q267.10626 41.715626 267.29376 40.403126ZM269.8719 39.0125Q269.8719 36.1375 271.46564 34.746876Q272.8094 33.590626 274.73126 33.590626Q276.8719 33.590626 278.21564 34.996876Q279.575 36.403126 279.575 38.871876Q279.575 40.871876 278.98126 42.028126Q278.3875 43.16875 277.23126 43.809376Q276.09064 44.434376 274.73126 44.434376Q272.54376 44.434376 271.2 43.04375Q269.8719 41.6375 269.8719 39.0125ZM271.66876 39.0125Q271.66876 41.0125 272.52814 41.996876Q273.40314 42.98125 274.73126 42.98125Q276.04376 42.98125 276.90314 41.996876Q277.77814 40.996876 277.77814 38.95Q277.77814 37.028126 276.90314 36.04375Q276.02814 35.04375 274.73126 35.04375Q273.40314 35.04375 272.52814 36.04375Q271.66876 37.028126 271.66876 39.0125ZM281.5125 44.2L281.5125 33.825L283.10626 33.825L283.10626 35.309376Q284.2469 33.590626 286.40314 33.590626Q287.34064 33.590626 288.1219 33.934376Q288.91876 34.2625 289.3094 34.809376Q289.7 35.35625 289.85626 36.10625Q289.95 36.60625 289.95 37.825L289.95 44.2L288.1844 44.2L288.1844 37.8875Q288.1844 36.809376 287.98126 36.278126Q287.77814 35.746876 287.2469 35.434376Q286.73126 35.121876 286.02814 35.121876Q284.90314 35.121876 284.09064 35.840626Q283.27814 36.54375 283.27814 38.528126L283.27814 44.2L281.5125 44.2ZM299.2469 44.2L299.2469 42.8875Q298.2625 44.434376 296.34064 44.434376Q295.10626 44.434376 294.0594 43.746876Q293.02814 43.059376 292.45 41.840626Q291.8875 40.621876 291.8875 39.028126Q291.8875 37.465626 292.40314 36.2Q292.91876 34.934376 293.95 34.2625Q294.9969 33.590626 296.2625 33.590626Q297.2 33.590626 297.9344 33.996876Q298.66876 34.3875 299.1375 35.0125L299.1375 29.8875L300.8719 29.8875L300.8719 44.2L299.2469 44.2ZM293.6844 39.028126Q293.6844 41.0125 294.52814 41.996876Q295.3719 42.98125 296.5125 42.98125Q297.66876 42.98125 298.46564 42.04375Q299.27814 41.10625 299.27814 39.16875Q299.27814 37.04375 298.45 36.04375Q297.6375 35.04375 296.4344 35.04375Q295.2625 35.04375 294.46564 36.0125Q293.6844 36.965626 293.6844 39.028126ZM302.8094 41.10625L304.5594 40.825Q304.7 41.871876 305.3719 42.434376Q306.04376 42.98125 307.2469 42.98125Q308.45 42.98125 309.02814 42.496876Q309.6219 41.996876 309.6219 41.340626Q309.6219 40.746876 309.10626 40.403126Q308.7469 40.16875 307.3094 39.809376Q305.3719 39.309376 304.6219 38.965626Q303.8875 38.60625 303.4969 37.98125Q303.10626 37.340626 303.10626 36.575Q303.10626 35.8875 303.41876 35.29375Q303.7469 34.7 304.29376 34.309376Q304.7 34.0125 305.40314 33.809376Q306.1219 33.590626 306.9344 33.590626Q308.15314 33.590626 309.075 33.95Q309.9969 34.29375 310.4344 34.903126Q310.8719 35.496876 311.04376 36.496876L309.325 36.73125Q309.2 35.934376 308.6375 35.496876Q308.075 35.04375 307.0594 35.04375Q305.84064 35.04375 305.325 35.45Q304.8094 35.840626 304.8094 36.371876Q304.8094 36.715626 305.02814 36.996876Q305.23126 37.278126 305.7 37.465626Q305.96564 37.559376 307.2469 37.903126Q309.1219 38.403126 309.85626 38.73125Q310.59064 39.04375 311.0125 39.653126Q311.4344 40.246876 311.4344 41.153126Q311.4344 42.028126 310.91876 42.809376Q310.40314 43.590626 309.4344 44.0125Q308.46564 44.434376 307.2469 44.434376Q305.23126 44.434376 304.16876 43.590626Q303.10626 42.746876 302.8094 41.10625Z" fill-rule="nonzero"/></svg>