<?xml version="1.0" encoding="UTF-8" standalone="no"?>
<!DOCTYPE svg PUBLIC "-//W3C//DTD SVG 1.1//EN" "http://www.w3.org/Graphics/SVG/1.1/DTD/svg11.dtd">
<svg width="100%" height="100%" viewBox="0 0 788 504" version="1.1" xmlns="http://www.w3.org/2000/svg" xmlns:xlink="http://www.w3.org/1999/xlink" xml:space="preserve" xmlns:serif="http://www.serif.com/" style="fill-rule:evenodd;clip-rule:evenodd;stroke-miterlimit:10;">
    <rect x="0" y="0" width="788" height="504" style="fill:rgb(18,18,18);fill-rule:nonzero;"/>
    <path d="M52.5,471.5L762.5,471.5" style="fill:none;fill-rule:nonzero;stroke:rgb(51,51,51);stroke-width:1px;"/>
    <path d="M52.5,412.5L762.5,412.5" style="fill:none;fill-rule:nonzero;stroke:rgb(204,204,204);stroke-width:1px;"/>
    <path d="M52.5,352.5L762.5,352.5" style="fill:none;fill-rule:nonzero;stroke:rgb(204,204,204);stroke-width:1px;"/>
    <path d="M52.5,292.5L762.5,292.5" style="fill:none;fill-rule:nonzero;stroke:rgb(204,204,204);stroke-width:1px;"/>
    <path d="M52.5,233.5L762.5,233.5" style="fill:none;fill-rule:nonzero;stroke:rgb(204,204,204);stroke-width:1px;"/>
    <path d="M52.5,173.5L762.5,173.5" style="fill:none;fill-rule:nonzero;stroke:rgb(204,204,204);stroke-width:1px;"/>
    <path d="M52.5,113.5L762.5,113.5" style="fill:none;fill-rule:nonzero;stroke:rgb(204,204,204);stroke-width:1px;"/>
    <clipPath id="_clip1">
        <rect x="52.2" y="113.8" width="710.6" height="358"/>
    </clipPath>
    <g clip-path="url(#_clip1)">
        <path d="M407,472L237,472L237,362C237,360.895 237.895,360 239,360L405,360C406.105,360 407,360.895 407,362L407,472Z" style="fill:none;fill-rule:nonzero;"/>
    </g>
    <clipPath id="_clip2">
        <rect x="52.2" y="113.8" width="710.6" height="358"/>
    </clipPath>
    <g clip-path="url(#_clip2)">
        <path d="M407,472L237,472L237,362C237,360.895 237.895,360 239,360L405,360C406.105,360 407,360.895 407,362L407,472Z" style="fill:rgb(66,133,244);fill-rule:nonzero;"/>
    </g>
    <clipPath id="_clip3">
        <rect x="52.2" y="113.8" width="710.6" height="358"/>
    </clipPath>
    <g clip-path="url(#_clip3)">
        <path d="M578,472L408,472L408,136C408,134.895 408.895,134 410,134L576,134C577.105,134 578,134.895 578,136L578,472Z" style="fill:none;fill-rule:nonzero;"/>
    </g>
    <clipPath id="_clip4">
        <rect x="52.2" y="113.8" width="710.6" height="358"/>
    </clipPath>
    <g clip-path="url(#_clip4)">
        <path d="M578,472L408,472L408,136C408,134.895 408.895,134 410,134L576,134C577.105,134 578,134.895 578,136L578,472Z" style="fill:rgb(234,67,53);fill-rule:nonzero;"/>
    </g>
    <path d="M309.281,372.256L310.094,372.256C310.615,372.246 311.021,372.11 311.313,371.85C311.604,371.59 311.75,371.235 311.75,370.788C311.75,369.788 311.25,369.288 310.25,369.288C309.781,369.288 309.406,369.423 309.125,369.694C308.854,369.965 308.719,370.319 308.719,370.756L307.625,370.756C307.625,370.079 307.87,369.517 308.359,369.069C308.859,368.621 309.49,368.397 310.25,368.397C311.052,368.397 311.682,368.61 312.141,369.038C312.599,369.465 312.828,370.058 312.828,370.819C312.828,371.194 312.708,371.553 312.469,371.897C312.229,372.241 311.901,372.501 311.484,372.678C311.953,372.824 312.313,373.069 312.563,373.413C312.823,373.756 312.953,374.178 312.953,374.678C312.953,375.439 312.703,376.048 312.203,376.506C311.703,376.954 311.052,377.178 310.25,377.178C309.458,377.178 308.807,376.959 308.297,376.522C307.797,376.084 307.547,375.511 307.547,374.803L308.641,374.803C308.641,375.251 308.786,375.61 309.078,375.881C309.37,376.152 309.766,376.288 310.266,376.288C310.786,376.288 311.182,376.152 311.453,375.881C311.734,375.6 311.875,375.204 311.875,374.694C311.875,374.204 311.724,373.829 311.422,373.569C311.12,373.298 310.677,373.157 310.094,373.147L309.281,373.147L309.281,372.256ZM314.844,376.491C314.844,376.303 314.896,376.147 315,376.022C315.115,375.897 315.281,375.834 315.5,375.834C315.729,375.834 315.901,375.897 316.016,376.022C316.13,376.147 316.188,376.303 316.188,376.491C316.188,376.668 316.13,376.819 316.016,376.944C315.901,377.058 315.729,377.116 315.5,377.116C315.281,377.116 315.115,377.058 315,376.944C314.896,376.819 314.844,376.668 314.844,376.491ZM323.219,369.131L319.688,377.053L318.547,377.053L322.063,369.413L317.453,369.413L317.453,368.522L323.219,368.522L323.219,369.131ZM326.281,372.256L327.094,372.256C327.615,372.246 328.021,372.11 328.313,371.85C328.604,371.59 328.75,371.235 328.75,370.788C328.75,369.788 328.25,369.288 327.25,369.288C326.781,369.288 326.406,369.423 326.125,369.694C325.854,369.965 325.719,370.319 325.719,370.756L324.625,370.756C324.625,370.079 324.87,369.517 325.359,369.069C325.859,368.621 326.49,368.397 327.25,368.397C328.052,368.397 328.682,368.61 329.141,369.038C329.599,369.465 329.828,370.058 329.828,370.819C329.828,371.194 329.708,371.553 329.469,371.897C329.229,372.241 328.901,372.501 328.484,372.678C328.953,372.824 329.313,373.069 329.563,373.413C329.823,373.756 329.953,374.178 329.953,374.678C329.953,375.439 329.703,376.048 329.203,376.506C328.703,376.954 328.052,377.178 327.25,377.178C326.458,377.178 325.807,376.959 325.297,376.522C324.797,376.084 324.547,375.511 324.547,374.803L325.641,374.803C325.641,375.251 325.786,375.61 326.078,375.881C326.37,376.152 326.766,376.288 327.266,376.288C327.786,376.288 328.182,376.152 328.453,375.881C328.734,375.6 328.875,375.204 328.875,374.694C328.875,374.204 328.724,373.829 328.422,373.569C328.12,373.298 327.677,373.157 327.094,373.147L326.281,373.147L326.281,372.256ZM335.859,373.303C335.641,373.574 335.37,373.793 335.047,373.959C334.734,374.116 334.391,374.194 334.016,374.194C333.526,374.194 333.099,374.074 332.734,373.834C332.37,373.595 332.089,373.256 331.891,372.819C331.693,372.371 331.594,371.881 331.594,371.35C331.594,370.788 331.698,370.277 331.906,369.819C332.125,369.36 332.432,369.012 332.828,368.772C333.234,368.522 333.703,368.397 334.234,368.397C335.078,368.397 335.74,368.715 336.219,369.35C336.708,369.985 336.953,370.845 336.953,371.928L336.953,372.241C336.953,373.907 336.625,375.121 335.969,375.881C335.313,376.642 334.323,377.032 333,377.053L332.781,377.053L332.781,376.147L333.016,376.147C333.911,376.126 334.599,375.892 335.078,375.444C335.557,374.996 335.818,374.282 335.859,373.303ZM334.188,373.303C334.552,373.303 334.885,373.194 335.188,372.975C335.5,372.746 335.729,372.47 335.875,372.147L335.875,371.709C335.875,371.001 335.719,370.423 335.406,369.975C335.094,369.527 334.703,369.303 334.234,369.303C333.755,369.303 333.37,369.485 333.078,369.85C332.797,370.215 332.656,370.699 332.656,371.303C332.656,371.886 332.792,372.366 333.063,372.741C333.344,373.116 333.719,373.303 334.188,373.303Z" style="fill:none;fill-rule:nonzero;stroke:rgb(66,133,244);stroke-width:3px;stroke-linecap:round;stroke-linejoin:round;"/>
    <path d="M309.281,372.256L310.094,372.256C310.615,372.246 311.021,372.11 311.313,371.85C311.604,371.59 311.75,371.235 311.75,370.788C311.75,369.788 311.25,369.288 310.25,369.288C309.781,369.288 309.406,369.423 309.125,369.694C308.854,369.965 308.719,370.319 308.719,370.756L307.625,370.756C307.625,370.079 307.87,369.517 308.359,369.069C308.859,368.621 309.49,368.397 310.25,368.397C311.052,368.397 311.682,368.61 312.141,369.038C312.599,369.465 312.828,370.058 312.828,370.819C312.828,371.194 312.708,371.553 312.469,371.897C312.229,372.241 311.901,372.501 311.484,372.678C311.953,372.824 312.313,373.069 312.563,373.413C312.823,373.756 312.953,374.178 312.953,374.678C312.953,375.439 312.703,376.048 312.203,376.506C311.703,376.954 311.052,377.178 310.25,377.178C309.458,377.178 308.807,376.959 308.297,376.522C307.797,376.084 307.547,375.511 307.547,374.803L308.641,374.803C308.641,375.251 308.786,375.61 309.078,375.881C309.37,376.152 309.766,376.288 310.266,376.288C310.786,376.288 311.182,376.152 311.453,375.881C311.734,375.6 311.875,375.204 311.875,374.694C311.875,374.204 311.724,373.829 311.422,373.569C311.12,373.298 310.677,373.157 310.094,373.147L309.281,373.147L309.281,372.256ZM314.844,376.491C314.844,376.303 314.896,376.147 315,376.022C315.115,375.897 315.281,375.834 315.5,375.834C315.729,375.834 315.901,375.897 316.016,376.022C316.13,376.147 316.188,376.303 316.188,376.491C316.188,376.668 316.13,376.819 316.016,376.944C315.901,377.058 315.729,377.116 315.5,377.116C315.281,377.116 315.115,377.058 315,376.944C314.896,376.819 314.844,376.668 314.844,376.491ZM323.219,369.131L319.688,377.053L318.547,377.053L322.063,369.413L317.453,369.413L317.453,368.522L323.219,368.522L323.219,369.131ZM326.281,372.256L327.094,372.256C327.615,372.246 328.021,372.11 328.313,371.85C328.604,371.59 328.75,371.235 328.75,370.788C328.75,369.788 328.25,369.288 327.25,369.288C326.781,369.288 326.406,369.423 326.125,369.694C325.854,369.965 325.719,370.319 325.719,370.756L324.625,370.756C324.625,370.079 324.87,369.517 325.359,369.069C325.859,368.621 326.49,368.397 327.25,368.397C328.052,368.397 328.682,368.61 329.141,369.038C329.599,369.465 329.828,370.058 329.828,370.819C329.828,371.194 329.708,371.553 329.469,371.897C329.229,372.241 328.901,372.501 328.484,372.678C328.953,372.824 329.313,373.069 329.563,373.413C329.823,373.756 329.953,374.178 329.953,374.678C329.953,375.439 329.703,376.048 329.203,376.506C328.703,376.954 328.052,377.178 327.25,377.178C326.458,377.178 325.807,376.959 325.297,376.522C324.797,376.084 324.547,375.511 324.547,374.803L325.641,374.803C325.641,375.251 325.786,375.61 326.078,375.881C326.37,376.152 326.766,376.288 327.266,376.288C327.786,376.288 328.182,376.152 328.453,375.881C328.734,375.6 328.875,375.204 328.875,374.694C328.875,374.204 328.724,373.829 328.422,373.569C328.12,373.298 327.677,373.157 327.094,373.147L326.281,373.147L326.281,372.256ZM335.859,373.303C335.641,373.574 335.37,373.793 335.047,373.959C334.734,374.116 334.391,374.194 334.016,374.194C333.526,374.194 333.099,374.074 332.734,373.834C332.37,373.595 332.089,373.256 331.891,372.819C331.693,372.371 331.594,371.881 331.594,371.35C331.594,370.788 331.698,370.277 331.906,369.819C332.125,369.36 332.432,369.012 332.828,368.772C333.234,368.522 333.703,368.397 334.234,368.397C335.078,368.397 335.74,368.715 336.219,369.35C336.708,369.985 336.953,370.845 336.953,371.928L336.953,372.241C336.953,373.907 336.625,375.121 335.969,375.881C335.313,376.642 334.323,377.032 333,377.053L332.781,377.053L332.781,376.147L333.016,376.147C333.911,376.126 334.599,375.892 335.078,375.444C335.557,374.996 335.818,374.282 335.859,373.303ZM334.188,373.303C334.552,373.303 334.885,373.194 335.188,372.975C335.5,372.746 335.729,372.47 335.875,372.147L335.875,371.709C335.875,371.001 335.719,370.423 335.406,369.975C335.094,369.527 334.703,369.303 334.234,369.303C333.755,369.303 333.37,369.485 333.078,369.85C332.797,370.215 332.656,370.699 332.656,371.303C332.656,371.886 332.792,372.366 333.063,372.741C333.344,373.116 333.719,373.303 334.188,373.303Z" style="fill:white;fill-rule:nonzero;"/>
    <path d="M478.766,151.125L477.688,151.125L477.688,143.907L475.5,144.703L475.5,143.719L478.609,142.547L478.766,142.547L478.766,151.125ZM485.766,151.125L484.688,151.125L484.688,143.907L482.5,144.703L482.5,143.719L485.609,142.547L485.766,142.547L485.766,151.125ZM489.344,150.563C489.344,150.375 489.396,150.219 489.5,150.094C489.615,149.969 489.781,149.907 490,149.907C490.229,149.907 490.401,149.969 490.516,150.094C490.63,150.219 490.688,150.375 490.688,150.563C490.688,150.74 490.63,150.891 490.516,151.016C490.401,151.131 490.229,151.188 490,151.188C489.781,151.188 489.615,151.131 489.5,151.016C489.396,150.891 489.344,150.74 489.344,150.563ZM493.781,146.328L494.594,146.328C495.115,146.318 495.521,146.183 495.813,145.922C496.104,145.662 496.25,145.308 496.25,144.86C496.25,143.86 495.75,143.36 494.75,143.36C494.281,143.36 493.906,143.495 493.625,143.766C493.354,144.037 493.219,144.391 493.219,144.828L492.125,144.828C492.125,144.151 492.37,143.589 492.859,143.141C493.359,142.693 493.99,142.469 494.75,142.469C495.552,142.469 496.182,142.683 496.641,143.11C497.099,143.537 497.328,144.131 497.328,144.891C497.328,145.266 497.208,145.625 496.969,145.969C496.729,146.313 496.401,146.573 495.984,146.75C496.453,146.896 496.813,147.141 497.063,147.485C497.323,147.828 497.453,148.25 497.453,148.75C497.453,149.511 497.203,150.12 496.703,150.578C496.203,151.026 495.552,151.25 494.75,151.25C493.958,151.25 493.307,151.032 492.797,150.594C492.297,150.157 492.047,149.584 492.047,148.875L493.141,148.875C493.141,149.323 493.286,149.683 493.578,149.953C493.87,150.224 494.266,150.36 494.766,150.36C495.286,150.36 495.682,150.224 495.953,149.953C496.234,149.672 496.375,149.276 496.375,148.766C496.375,148.276 496.224,147.901 495.922,147.641C495.62,147.37 495.177,147.23 494.594,147.219L493.781,147.219L493.781,146.328ZM502.766,151.125L501.688,151.125L501.688,143.907L499.5,144.703L499.5,143.719L502.609,142.547L502.766,142.547L502.766,151.125ZM511.797,151.125L506.203,151.125L506.203,150.344L509.156,147.063C509.594,146.563 509.896,146.162 510.063,145.86C510.229,145.547 510.313,145.224 510.313,144.891C510.313,144.443 510.177,144.078 509.906,143.797C509.646,143.506 509.286,143.36 508.828,143.36C508.297,143.36 507.88,143.516 507.578,143.828C507.276,144.131 507.125,144.558 507.125,145.11L506.047,145.11C506.047,144.318 506.297,143.683 506.797,143.203C507.307,142.714 507.984,142.469 508.828,142.469C509.63,142.469 510.26,142.677 510.719,143.094C511.177,143.511 511.406,144.068 511.406,144.766C511.406,145.599 510.87,146.599 509.797,147.766L507.516,150.235L511.797,150.235L511.797,151.125Z" style="fill:none;fill-rule:nonzero;stroke:rgb(234,67,53);stroke-width:3px;stroke-linecap:round;stroke-linejoin:round;"/>
    <path d="M478.766,151.125L477.688,151.125L477.688,143.907L475.5,144.703L475.5,143.719L478.609,142.547L478.766,142.547L478.766,151.125ZM485.766,151.125L484.688,151.125L484.688,143.907L482.5,144.703L482.5,143.719L485.609,142.547L485.766,142.547L485.766,151.125ZM489.344,150.563C489.344,150.375 489.396,150.219 489.5,150.094C489.615,149.969 489.781,149.907 490,149.907C490.229,149.907 490.401,149.969 490.516,150.094C490.63,150.219 490.688,150.375 490.688,150.563C490.688,150.74 490.63,150.891 490.516,151.016C490.401,151.131 490.229,151.188 490,151.188C489.781,151.188 489.615,151.131 489.5,151.016C489.396,150.891 489.344,150.74 489.344,150.563ZM493.781,146.328L494.594,146.328C495.115,146.318 495.521,146.183 495.813,145.922C496.104,145.662 496.25,145.308 496.25,144.86C496.25,143.86 495.75,143.36 494.75,143.36C494.281,143.36 493.906,143.495 493.625,143.766C493.354,144.037 493.219,144.391 493.219,144.828L492.125,144.828C492.125,144.151 492.37,143.589 492.859,143.141C493.359,142.693 493.99,142.469 494.75,142.469C495.552,142.469 496.182,142.683 496.641,143.11C497.099,143.537 497.328,144.131 497.328,144.891C497.328,145.266 497.208,145.625 496.969,145.969C496.729,146.313 496.401,146.573 495.984,146.75C496.453,146.896 496.813,147.141 497.063,147.485C497.323,147.828 497.453,148.25 497.453,148.75C497.453,149.511 497.203,150.12 496.703,150.578C496.203,151.026 495.552,151.25 494.75,151.25C493.958,151.25 493.307,151.032 492.797,150.594C492.297,150.157 492.047,149.584 492.047,148.875L493.141,148.875C493.141,149.323 493.286,149.683 493.578,149.953C493.87,150.224 494.266,150.36 494.766,150.36C495.286,150.36 495.682,150.224 495.953,149.953C496.234,149.672 496.375,149.276 496.375,148.766C496.375,148.276 496.224,147.901 495.922,147.641C495.62,147.37 495.177,147.23 494.594,147.219L493.781,147.219L493.781,146.328ZM502.766,151.125L501.688,151.125L501.688,143.907L499.5,144.703L499.5,143.719L502.609,142.547L502.766,142.547L502.766,151.125ZM511.797,151.125L506.203,151.125L506.203,150.344L509.156,147.063C509.594,146.563 509.896,146.162 510.063,145.86C510.229,145.547 510.313,145.224 510.313,144.891C510.313,144.443 510.177,144.078 509.906,143.797C509.646,143.506 509.286,143.36 508.828,143.36C508.297,143.36 507.88,143.516 507.578,143.828C507.276,144.131 507.125,144.558 507.125,145.11L506.047,145.11C506.047,144.318 506.297,143.683 506.797,143.203C507.307,142.714 507.984,142.469 508.828,142.469C509.63,142.469 510.26,142.677 510.719,143.094C511.177,143.511 511.406,144.068 511.406,144.766C511.406,145.599 510.87,146.599 509.797,147.766L507.516,150.235L511.797,150.235L511.797,151.125Z" style="fill:white;fill-rule:nonzero;"/>
    <path d="M39.7,471.566C39.7,470.545 39.804,469.727 40.013,469.113C40.221,468.488 40.528,468.008 40.934,467.675C41.351,467.342 41.872,467.175 42.497,467.175C42.955,467.175 43.356,467.269 43.7,467.456C44.054,467.644 44.346,467.915 44.575,468.269C44.804,468.612 44.981,469.034 45.106,469.534C45.231,470.034 45.294,470.711 45.294,471.566C45.294,472.576 45.19,473.389 44.981,474.003C44.783,474.618 44.476,475.097 44.059,475.441C43.653,475.774 43.132,475.941 42.497,475.941C41.674,475.941 41.023,475.644 40.544,475.05C39.981,474.342 39.7,473.18 39.7,471.566ZM40.778,471.566C40.778,472.972 40.945,473.909 41.278,474.378C41.611,474.847 42.018,475.081 42.497,475.081C42.986,475.081 43.393,474.847 43.716,474.378C44.049,473.909 44.216,472.972 44.216,471.566C44.216,470.149 44.049,469.211 43.716,468.753C43.393,468.284 42.981,468.05 42.481,468.05C42.002,468.05 41.617,468.253 41.325,468.659C40.96,469.18 40.778,470.149 40.778,471.566Z" style="fill:white;fill-rule:nonzero;"/>
    <path d="M45.247,415.118L45.247,416.133L39.559,416.133C39.559,415.883 39.601,415.639 39.684,415.399C39.83,415.014 40.059,414.633 40.372,414.258C40.695,413.883 41.158,413.451 41.763,412.961C42.7,412.191 43.33,411.581 43.653,411.133C43.986,410.685 44.153,410.264 44.153,409.868C44.153,409.451 44.002,409.102 43.7,408.821C43.398,408.529 43.007,408.383 42.528,408.383C42.018,408.383 41.611,408.534 41.309,408.836C41.007,409.139 40.851,409.56 40.841,410.102L39.763,409.993C39.835,409.18 40.111,408.566 40.591,408.149C41.08,407.722 41.736,407.508 42.559,407.508C43.382,407.508 44.033,407.737 44.513,408.196C44.992,408.654 45.231,409.222 45.231,409.899C45.231,410.243 45.158,410.581 45.013,410.915C44.877,411.238 44.643,411.586 44.309,411.961C43.986,412.326 43.45,412.826 42.7,413.461C42.065,413.993 41.653,414.357 41.466,414.555C41.289,414.743 41.143,414.93 41.028,415.118L45.247,415.118Z" style="fill:white;fill-rule:nonzero;"/>
    <path d="M43.075,356.467L43.075,354.404L39.356,354.404L39.356,353.435L43.278,347.873L44.138,347.873L44.138,353.435L45.294,353.435L45.294,354.404L44.138,354.404L44.138,356.467L43.075,356.467ZM43.075,353.435L43.075,349.576L40.388,353.435L43.075,353.435Z" style="fill:white;fill-rule:nonzero;"/>
    <path d="M45.169,290.316L44.122,290.394C44.028,289.977 43.898,289.675 43.731,289.488C43.44,289.185 43.085,289.034 42.669,289.034C42.335,289.034 42.039,289.128 41.778,289.316C41.455,289.566 41.195,289.925 40.997,290.394C40.809,290.852 40.71,291.508 40.7,292.363C40.95,291.977 41.257,291.691 41.622,291.503C41.997,291.316 42.388,291.222 42.794,291.222C43.492,291.222 44.085,291.482 44.575,292.003C45.075,292.524 45.325,293.191 45.325,294.003C45.325,294.545 45.205,295.05 44.966,295.519C44.736,295.977 44.419,296.331 44.013,296.581C43.606,296.821 43.148,296.941 42.638,296.941C41.752,296.941 41.033,296.618 40.481,295.972C39.929,295.326 39.653,294.264 39.653,292.784C39.653,291.118 39.96,289.909 40.575,289.159C41.106,288.503 41.825,288.175 42.731,288.175C43.408,288.175 43.96,288.368 44.388,288.753C44.825,289.128 45.085,289.649 45.169,290.316ZM40.872,294.019C40.872,294.383 40.945,294.732 41.091,295.066C41.247,295.389 41.46,295.639 41.731,295.816C42.013,295.993 42.309,296.081 42.622,296.081C43.059,296.081 43.44,295.904 43.763,295.55C44.085,295.185 44.247,294.696 44.247,294.081C44.247,293.487 44.085,293.019 43.763,292.675C43.45,292.331 43.054,292.159 42.575,292.159C42.096,292.159 41.69,292.331 41.356,292.675C41.033,293.019 40.872,293.467 40.872,294.019Z" style="fill:white;fill-rule:nonzero;"/>
    <path d="M41.325,232.477C40.888,232.31 40.559,232.081 40.341,231.79C40.132,231.487 40.028,231.133 40.028,230.727C40.028,230.102 40.252,229.576 40.7,229.149C41.158,228.722 41.757,228.508 42.497,228.508C43.247,228.508 43.851,228.727 44.309,229.165C44.768,229.602 44.997,230.133 44.997,230.758C44.997,231.154 44.893,231.498 44.684,231.79C44.476,232.081 44.158,232.31 43.731,232.477C44.263,232.644 44.664,232.92 44.934,233.305C45.205,233.691 45.341,234.149 45.341,234.68C45.341,235.409 45.08,236.024 44.559,236.524C44.049,237.024 43.367,237.274 42.513,237.274C41.669,237.274 40.986,237.024 40.466,236.524C39.945,236.024 39.684,235.399 39.684,234.649C39.684,234.086 39.825,233.618 40.106,233.243C40.398,232.868 40.804,232.612 41.325,232.477ZM41.106,230.68C41.106,231.086 41.236,231.42 41.497,231.68C41.768,231.941 42.111,232.071 42.528,232.071C42.934,232.071 43.268,231.946 43.528,231.696C43.789,231.435 43.919,231.118 43.919,230.743C43.919,230.357 43.783,230.034 43.513,229.774C43.242,229.503 42.908,229.368 42.513,229.368C42.106,229.368 41.768,229.498 41.497,229.758C41.236,230.019 41.106,230.326 41.106,230.68ZM40.778,234.649C40.778,234.951 40.846,235.243 40.981,235.524C41.127,235.805 41.341,236.024 41.622,236.18C41.903,236.336 42.205,236.415 42.528,236.415C43.028,236.415 43.44,236.253 43.763,235.93C44.096,235.607 44.263,235.196 44.263,234.696C44.263,234.185 44.096,233.764 43.763,233.43C43.429,233.097 43.007,232.93 42.497,232.93C41.997,232.93 41.585,233.097 41.263,233.43C40.94,233.753 40.778,234.159 40.778,234.649Z" style="fill:white;fill-rule:nonzero;"/>
    <path d="M36.669,177.467L35.622,177.467L35.622,170.748C35.361,170.987 35.023,171.232 34.606,171.482C34.2,171.722 33.835,171.899 33.513,172.014L33.513,170.998C34.096,170.717 34.606,170.383 35.044,169.998C35.492,169.602 35.809,169.217 35.997,168.842L36.669,168.842L36.669,177.467ZM39.7,173.232C39.7,172.211 39.804,171.394 40.013,170.779C40.221,170.154 40.528,169.675 40.934,169.342C41.351,169.008 41.872,168.842 42.497,168.842C42.955,168.842 43.356,168.935 43.7,169.123C44.054,169.31 44.346,169.581 44.575,169.935C44.804,170.279 44.981,170.701 45.106,171.201C45.231,171.701 45.294,172.378 45.294,173.232C45.294,174.243 45.19,175.055 44.981,175.67C44.783,176.284 44.476,176.764 44.059,177.107C43.653,177.441 43.132,177.607 42.497,177.607C41.674,177.607 41.023,177.31 40.544,176.717C39.981,176.008 39.7,174.847 39.7,173.232ZM40.778,173.232C40.778,174.639 40.945,175.576 41.278,176.045C41.611,176.514 42.018,176.748 42.497,176.748C42.986,176.748 43.393,176.514 43.716,176.045C44.049,175.576 44.216,174.639 44.216,173.232C44.216,171.816 44.049,170.878 43.716,170.42C43.393,169.951 42.981,169.717 42.481,169.717C42.002,169.717 41.617,169.92 41.325,170.326C40.96,170.847 40.778,171.816 40.778,173.232Z" style="fill:white;fill-rule:nonzero;"/>
    <path d="M36.669,117.8L35.622,117.8L35.622,111.081C35.361,111.321 35.023,111.566 34.606,111.816C34.2,112.055 33.835,112.232 33.513,112.347L33.513,111.331C34.096,111.05 34.606,110.717 35.044,110.331C35.492,109.935 35.809,109.55 35.997,109.175L36.669,109.175L36.669,117.8ZM45.247,116.784L45.247,117.8L39.559,117.8C39.559,117.55 39.601,117.305 39.684,117.066C39.83,116.68 40.059,116.3 40.372,115.925C40.695,115.55 41.158,115.118 41.763,114.628C42.7,113.857 43.33,113.248 43.653,112.8C43.986,112.352 44.153,111.93 44.153,111.534C44.153,111.118 44.002,110.769 43.7,110.488C43.398,110.196 43.007,110.05 42.528,110.05C42.018,110.05 41.611,110.201 41.309,110.503C41.007,110.805 40.851,111.227 40.841,111.769L39.763,111.659C39.835,110.847 40.111,110.232 40.591,109.816C41.08,109.389 41.736,109.175 42.559,109.175C43.382,109.175 44.033,109.404 44.513,109.863C44.992,110.321 45.231,110.889 45.231,111.566C45.231,111.909 45.158,112.248 45.013,112.581C44.877,112.904 44.643,113.253 44.309,113.628C43.986,113.993 43.45,114.493 42.7,115.128C42.065,115.659 41.653,116.024 41.466,116.222C41.289,116.409 41.143,116.597 41.028,116.784L45.247,116.784Z" style="fill:white;fill-rule:nonzero;"/>
    <path d="M302.5,73C302.5,72.448 302.948,72 303.5,72L313.5,72C314.052,72 314.5,72.448 314.5,73L314.5,83C314.5,83.552 314.052,84 313.5,84L303.5,84C302.948,84 302.5,83.552 302.5,83L302.5,73Z" style="fill:rgb(66,133,244);fill-rule:nonzero;"/>
    <path d="M323.969,85L323.969,70.688L325.859,70.688L325.859,83.313L332.906,83.313L332.906,85L323.969,85ZM334.828,72.703L334.828,70.688L336.594,70.688L336.594,72.703L334.828,72.703ZM334.828,85L334.828,74.625L336.594,74.625L336.594,85L334.828,85ZM338.813,85L338.813,74.625L340.406,74.625L340.406,76.109C341.167,74.964 342.266,74.391 343.703,74.391C344.328,74.391 344.901,74.505 345.422,74.734C345.953,74.953 346.349,75.245 346.609,75.609C346.87,75.974 347.052,76.406 347.156,76.906C347.219,77.24 347.25,77.813 347.25,78.625L347.25,85L345.484,85L345.484,78.688C345.484,77.969 345.417,77.432 345.281,77.078C345.146,76.724 344.901,76.443 344.547,76.234C344.203,76.026 343.797,75.922 343.328,75.922C342.578,75.922 341.932,76.161 341.391,76.641C340.849,77.109 340.578,78.005 340.578,79.328L340.578,85L338.813,85ZM356.609,85L356.609,83.469C355.807,84.646 354.714,85.234 353.328,85.234C352.714,85.234 352.141,85.12 351.609,84.891C351.078,84.651 350.682,84.354 350.422,84C350.172,83.646 349.995,83.208 349.891,82.688C349.818,82.344 349.781,81.797 349.781,81.047L349.781,74.625L351.531,74.625L351.531,80.375C351.531,81.292 351.568,81.911 351.641,82.234C351.755,82.693 351.99,83.057 352.344,83.328C352.708,83.589 353.151,83.719 353.672,83.719C354.203,83.719 354.698,83.583 355.156,83.313C355.625,83.042 355.953,82.677 356.141,82.219C356.339,81.75 356.438,81.073 356.438,80.188L356.438,74.625L358.188,74.625L358.188,85L356.609,85ZM359.641,85L363.438,79.609L359.938,74.625L362.125,74.625L363.719,77.063C364.021,77.521 364.26,77.906 364.438,78.219C364.729,77.792 364.995,77.411 365.234,77.078L366.984,74.625L369.078,74.625L365.5,79.516L369.359,85L367.203,85L365.063,81.781L364.5,80.906L361.781,85L359.641,85Z" style="fill:white;fill-rule:nonzero;"/>
    <path d="M385.5,73C385.5,72.448 385.948,72 386.5,72L396.5,72C397.052,72 397.5,72.448 397.5,73L397.5,83C397.5,83.552 397.052,84 396.5,84L386.5,84C385.948,84 385.5,83.552 385.5,83L385.5,73Z" style="fill:rgb(234,67,53);fill-rule:nonzero;"/>
    <path d="M409.547,85L405.75,70.688L407.688,70.688L409.859,80.063C410.099,81.052 410.302,82.031 410.469,83C410.833,81.469 411.047,80.583 411.109,80.344L413.844,70.688L416.125,70.688L418.172,77.922C418.693,79.724 419.068,81.417 419.297,83C419.474,82.094 419.708,81.052 420,79.875L422.25,70.688L424.156,70.688L420.234,85L418.406,85L415.391,74.094C415.13,73.177 414.979,72.615 414.938,72.406C414.781,73.063 414.641,73.625 414.516,74.094L411.484,85L409.547,85ZM425.828,72.703L425.828,70.688L427.594,70.688L427.594,72.703L425.828,72.703ZM425.828,85L425.828,74.625L427.594,74.625L427.594,85L425.828,85ZM429.813,85L429.813,74.625L431.406,74.625L431.406,76.109C432.167,74.964 433.266,74.391 434.703,74.391C435.328,74.391 435.901,74.505 436.422,74.734C436.953,74.953 437.349,75.245 437.609,75.609C437.87,75.974 438.052,76.406 438.156,76.906C438.219,77.24 438.25,77.813 438.25,78.625L438.25,85L436.484,85L436.484,78.688C436.484,77.969 436.417,77.432 436.281,77.078C436.146,76.724 435.901,76.443 435.547,76.234C435.203,76.026 434.797,75.922 434.328,75.922C433.578,75.922 432.932,76.161 432.391,76.641C431.849,77.109 431.578,78.005 431.578,79.328L431.578,85L429.813,85ZM447.547,85L447.547,83.688C446.891,84.719 445.922,85.234 444.641,85.234C443.818,85.234 443.057,85.005 442.359,84.547C441.672,84.089 441.135,83.453 440.75,82.641C440.375,81.828 440.188,80.891 440.188,79.828C440.188,78.786 440.359,77.844 440.703,77C441.047,76.156 441.563,75.51 442.25,75.063C442.948,74.615 443.719,74.391 444.563,74.391C445.188,74.391 445.745,74.526 446.234,74.797C446.724,75.057 447.125,75.396 447.438,75.813L447.438,70.688L449.172,70.688L449.172,85L447.547,85ZM441.984,79.828C441.984,81.151 442.266,82.141 442.828,82.797C443.391,83.453 444.052,83.781 444.813,83.781C445.583,83.781 446.234,83.469 446.766,82.844C447.307,82.219 447.578,81.26 447.578,79.969C447.578,78.552 447.302,77.51 446.75,76.844C446.208,76.177 445.536,75.844 444.734,75.844C443.953,75.844 443.297,76.167 442.766,76.813C442.245,77.448 441.984,78.453 441.984,79.828ZM451.172,79.813C451.172,77.896 451.703,76.474 452.766,75.547C453.661,74.776 454.75,74.391 456.031,74.391C457.458,74.391 458.62,74.859 459.516,75.797C460.422,76.734 460.875,78.026 460.875,79.672C460.875,81.005 460.677,82.057 460.281,82.828C459.885,83.589 459.302,84.182 458.531,84.609C457.771,85.026 456.937,85.234 456.031,85.234C454.573,85.234 453.396,84.771 452.5,83.844C451.615,82.906 451.172,81.563 451.172,79.813ZM452.969,79.813C452.969,81.146 453.255,82.141 453.828,82.797C454.411,83.453 455.146,83.781 456.031,83.781C456.906,83.781 457.63,83.453 458.203,82.797C458.786,82.13 459.078,81.115 459.078,79.75C459.078,78.469 458.786,77.5 458.203,76.844C457.62,76.177 456.896,75.844 456.031,75.844C455.146,75.844 454.411,76.177 453.828,76.844C453.255,77.5 452.969,78.49 452.969,79.813ZM464.734,85L461.563,74.625L463.375,74.625L465.031,80.609L465.641,82.844C465.672,82.729 465.849,82.016 466.172,80.703L467.828,74.625L469.641,74.625L471.188,80.641L471.703,82.625L472.297,80.625L474.078,74.625L475.781,74.625L472.547,85L470.719,85L469.063,78.781L468.672,77.016L466.563,85L464.734,85ZM476.109,81.906L477.859,81.625C477.953,82.323 478.224,82.859 478.672,83.234C479.12,83.599 479.745,83.781 480.547,83.781C481.349,83.781 481.943,83.62 482.328,83.297C482.724,82.964 482.922,82.578 482.922,82.141C482.922,81.745 482.75,81.432 482.406,81.203C482.167,81.047 481.568,80.849 480.609,80.609C479.318,80.276 478.422,79.995 477.922,79.766C477.432,79.526 477.057,79.198 476.797,78.781C476.536,78.354 476.406,77.885 476.406,77.375C476.406,76.917 476.51,76.49 476.719,76.094C476.938,75.698 477.229,75.37 477.594,75.109C477.865,74.911 478.234,74.745 478.703,74.609C479.182,74.464 479.693,74.391 480.234,74.391C481.047,74.391 481.76,74.51 482.375,74.75C482.99,74.979 483.443,75.297 483.734,75.703C484.026,76.099 484.229,76.63 484.344,77.297L482.625,77.531C482.542,77 482.313,76.589 481.938,76.297C481.563,75.995 481.036,75.844 480.359,75.844C479.547,75.844 478.969,75.979 478.625,76.25C478.281,76.51 478.109,76.818 478.109,77.172C478.109,77.401 478.182,77.609 478.328,77.797C478.464,77.984 478.688,78.141 479,78.266C479.177,78.328 479.693,78.474 480.547,78.703C481.797,79.036 482.667,79.313 483.156,79.531C483.646,79.74 484.031,80.047 484.313,80.453C484.594,80.849 484.734,81.349 484.734,81.953C484.734,82.536 484.563,83.089 484.219,83.609C483.875,84.13 483.38,84.531 482.734,84.813C482.089,85.094 481.359,85.234 480.547,85.234C479.203,85.234 478.177,84.953 477.469,84.391C476.76,83.828 476.307,83 476.109,81.906Z" style="fill:white;fill-rule:nonzero;"/>
    <path d="M26.106,39.606L27.888,39.45C27.971,40.158 28.164,40.742 28.466,41.2C28.778,41.658 29.257,42.033 29.903,42.325C30.559,42.606 31.299,42.747 32.122,42.747C32.841,42.747 33.476,42.643 34.028,42.434C34.58,42.216 34.992,41.919 35.263,41.544C35.533,41.169 35.669,40.757 35.669,40.309C35.669,39.861 35.539,39.471 35.278,39.138C35.018,38.804 34.591,38.523 33.997,38.294C33.611,38.138 32.757,37.903 31.434,37.591C30.122,37.278 29.205,36.981 28.684,36.7C27.997,36.346 27.486,35.903 27.153,35.372C26.82,34.841 26.653,34.247 26.653,33.591C26.653,32.861 26.856,32.184 27.263,31.559C27.669,30.934 28.268,30.46 29.059,30.138C29.851,29.804 30.726,29.638 31.684,29.638C32.747,29.638 33.684,29.809 34.497,30.153C35.309,30.497 35.929,31.002 36.356,31.669C36.794,32.325 37.028,33.075 37.059,33.919L35.247,34.059C35.153,33.153 34.825,32.471 34.263,32.013C33.7,31.544 32.867,31.309 31.763,31.309C30.617,31.309 29.778,31.523 29.247,31.95C28.726,32.367 28.466,32.867 28.466,33.45C28.466,33.971 28.653,34.398 29.028,34.731C29.393,35.065 30.346,35.403 31.888,35.747C33.429,36.091 34.486,36.393 35.059,36.653C35.893,37.039 36.507,37.528 36.903,38.122C37.299,38.705 37.497,39.382 37.497,40.153C37.497,40.914 37.278,41.632 36.841,42.309C36.403,42.986 35.773,43.513 34.95,43.888C34.138,44.263 33.221,44.45 32.2,44.45C30.908,44.45 29.825,44.263 28.95,43.888C28.075,43.502 27.388,42.929 26.888,42.169C26.388,41.408 26.127,40.554 26.106,39.606ZM38.872,39.013C38.872,37.096 39.403,35.674 40.466,34.747C41.361,33.976 42.45,33.591 43.731,33.591C45.158,33.591 46.32,34.059 47.216,34.997C48.122,35.934 48.575,37.226 48.575,38.872C48.575,40.205 48.377,41.257 47.981,42.028C47.585,42.789 47.002,43.382 46.231,43.809C45.471,44.226 44.638,44.434 43.731,44.434C42.273,44.434 41.096,43.971 40.2,43.044C39.315,42.106 38.872,40.763 38.872,39.013ZM40.669,39.013C40.669,40.346 40.955,41.341 41.528,41.997C42.111,42.653 42.846,42.981 43.731,42.981C44.606,42.981 45.33,42.653 45.903,41.997C46.486,41.33 46.778,40.315 46.778,38.95C46.778,37.669 46.486,36.7 45.903,36.044C45.32,35.377 44.596,35.044 43.731,35.044C42.846,35.044 42.111,35.377 41.528,36.044C40.955,36.7 40.669,37.69 40.669,39.013ZM57.294,40.403L59.013,40.622C58.825,41.82 58.341,42.757 57.559,43.434C56.789,44.101 55.835,44.434 54.7,44.434C53.283,44.434 52.143,43.971 51.278,43.044C50.414,42.117 49.981,40.789 49.981,39.059C49.981,37.934 50.164,36.955 50.528,36.122C50.903,35.278 51.471,34.648 52.231,34.231C52.992,33.804 53.82,33.591 54.716,33.591C55.841,33.591 56.757,33.877 57.466,34.45C58.184,35.023 58.648,35.83 58.856,36.872L57.138,37.138C56.981,36.44 56.695,35.919 56.278,35.575C55.861,35.221 55.361,35.044 54.778,35.044C53.893,35.044 53.174,35.361 52.622,35.997C52.07,36.632 51.794,37.632 51.794,38.997C51.794,40.393 52.059,41.408 52.591,42.044C53.122,42.669 53.82,42.981 54.684,42.981C55.372,42.981 55.945,42.773 56.403,42.356C56.872,41.929 57.169,41.278 57.294,40.403ZM60.528,44.2L60.528,29.888L62.294,29.888L62.294,38.044L66.45,33.825L68.716,33.825L64.763,37.669L69.122,44.2L66.95,44.2L63.528,38.903L62.294,40.091L62.294,44.2L60.528,44.2ZM77.622,40.856L79.434,41.091C79.153,42.143 78.622,42.966 77.841,43.559C77.07,44.143 76.08,44.434 74.872,44.434C73.361,44.434 72.158,43.971 71.263,43.044C70.377,42.106 69.934,40.794 69.934,39.106C69.934,37.356 70.382,36.002 71.278,35.044C72.174,34.075 73.341,33.591 74.778,33.591C76.164,33.591 77.294,34.065 78.169,35.013C79.054,35.95 79.497,37.278 79.497,38.997C79.497,39.101 79.492,39.257 79.481,39.466L71.747,39.466C71.809,40.601 72.132,41.471 72.716,42.075C73.299,42.679 74.023,42.981 74.888,42.981C75.533,42.981 76.08,42.815 76.528,42.481C76.986,42.138 77.351,41.596 77.622,40.856ZM71.841,38.013L77.638,38.013C77.565,37.148 77.346,36.497 76.981,36.059C76.419,35.382 75.69,35.044 74.794,35.044C73.992,35.044 73.315,35.315 72.763,35.856C72.21,36.388 71.903,37.106 71.841,38.013ZM85.356,42.622L85.606,44.184C85.117,44.289 84.674,44.341 84.278,44.341C83.643,44.341 83.148,44.242 82.794,44.044C82.45,43.835 82.205,43.57 82.059,43.247C81.914,42.914 81.841,42.221 81.841,41.169L81.841,35.2L80.559,35.2L80.559,33.825L81.841,33.825L81.841,31.263L83.591,30.2L83.591,33.825L85.356,33.825L85.356,35.2L83.591,35.2L83.591,41.263C83.591,41.763 83.622,42.085 83.684,42.231C83.747,42.367 83.846,42.481 83.981,42.575C84.127,42.658 84.33,42.7 84.591,42.7C84.778,42.7 85.033,42.674 85.356,42.622ZM96.247,44.2L92.45,29.888L94.388,29.888L96.559,39.263C96.799,40.252 97.002,41.231 97.169,42.2C97.533,40.669 97.747,39.783 97.809,39.544L100.544,29.888L102.825,29.888L104.872,37.122C105.393,38.924 105.768,40.617 105.997,42.2C106.174,41.294 106.408,40.252 106.7,39.075L108.95,29.888L110.856,29.888L106.934,44.2L105.106,44.2L102.091,33.294C101.83,32.377 101.679,31.815 101.638,31.606C101.481,32.263 101.341,32.825 101.216,33.294L98.184,44.2L96.247,44.2ZM119.622,40.856L121.434,41.091C121.153,42.143 120.622,42.966 119.841,43.559C119.07,44.143 118.08,44.434 116.872,44.434C115.361,44.434 114.158,43.971 113.263,43.044C112.377,42.106 111.934,40.794 111.934,39.106C111.934,37.356 112.382,36.002 113.278,35.044C114.174,34.075 115.341,33.591 116.778,33.591C118.164,33.591 119.294,34.065 120.169,35.013C121.054,35.95 121.497,37.278 121.497,38.997C121.497,39.101 121.492,39.257 121.481,39.466L113.747,39.466C113.809,40.601 114.132,41.471 114.716,42.075C115.299,42.679 116.023,42.981 116.888,42.981C117.533,42.981 118.08,42.815 118.528,42.481C118.986,42.138 119.351,41.596 119.622,40.856ZM113.841,38.013L119.638,38.013C119.565,37.148 119.346,36.497 118.981,36.059C118.419,35.382 117.69,35.044 116.794,35.044C115.992,35.044 115.315,35.315 114.763,35.856C114.21,36.388 113.903,37.106 113.841,38.013ZM130.294,42.919C129.637,43.471 129.007,43.861 128.403,44.091C127.799,44.32 127.153,44.434 126.466,44.434C125.33,44.434 124.455,44.158 123.841,43.606C123.226,43.044 122.919,42.33 122.919,41.466C122.919,40.955 123.033,40.492 123.263,40.075C123.502,39.658 123.809,39.325 124.184,39.075C124.559,38.815 124.981,38.617 125.45,38.481C125.794,38.398 126.315,38.309 127.013,38.216C128.429,38.049 129.471,37.851 130.137,37.622C130.148,37.382 130.153,37.226 130.153,37.153C130.153,36.445 129.986,35.94 129.653,35.638C129.205,35.242 128.539,35.044 127.653,35.044C126.82,35.044 126.205,35.19 125.809,35.481C125.424,35.773 125.138,36.289 124.95,37.028L123.231,36.794C123.387,36.054 123.643,35.46 123.997,35.013C124.351,34.554 124.867,34.205 125.544,33.966C126.221,33.716 127.007,33.591 127.903,33.591C128.789,33.591 129.507,33.695 130.059,33.903C130.611,34.111 131.018,34.377 131.278,34.7C131.539,35.013 131.721,35.408 131.825,35.888C131.888,36.19 131.919,36.731 131.919,37.513L131.919,39.856C131.919,41.492 131.955,42.528 132.028,42.966C132.101,43.393 132.252,43.804 132.481,44.2L130.637,44.2C130.46,43.835 130.346,43.408 130.294,42.919ZM130.137,38.997C129.502,39.257 128.544,39.476 127.263,39.653C126.544,39.757 126.033,39.877 125.731,40.013C125.44,40.138 125.21,40.325 125.044,40.575C124.877,40.825 124.794,41.106 124.794,41.419C124.794,41.888 124.971,42.278 125.325,42.591C125.679,42.903 126.2,43.059 126.888,43.059C127.565,43.059 128.164,42.914 128.684,42.622C129.216,42.32 129.606,41.914 129.856,41.403C130.044,40.997 130.137,40.408 130.137,39.638L130.137,38.997ZM138.356,42.622L138.606,44.184C138.117,44.289 137.674,44.341 137.278,44.341C136.643,44.341 136.148,44.242 135.794,44.044C135.45,43.835 135.205,43.57 135.059,43.247C134.914,42.914 134.841,42.221 134.841,41.169L134.841,35.2L133.559,35.2L133.559,33.825L134.841,33.825L134.841,31.263L136.591,30.2L136.591,33.825L138.356,33.825L138.356,35.2L136.591,35.2L136.591,41.263C136.591,41.763 136.622,42.085 136.684,42.231C136.747,42.367 136.846,42.481 136.981,42.575C137.127,42.658 137.33,42.7 137.591,42.7C137.778,42.7 138.033,42.674 138.356,42.622ZM140.513,44.2L140.513,29.888L142.278,29.888L142.278,35.013C143.101,34.065 144.138,33.591 145.388,33.591C146.148,33.591 146.809,33.742 147.372,34.044C147.945,34.346 148.351,34.768 148.591,35.309C148.841,35.841 148.966,36.611 148.966,37.622L148.966,44.2L147.216,44.2L147.216,37.622C147.216,36.747 147.023,36.111 146.638,35.716C146.252,35.309 145.716,35.106 145.028,35.106C144.507,35.106 144.012,35.242 143.544,35.513C143.085,35.783 142.757,36.153 142.559,36.622C142.372,37.08 142.278,37.716 142.278,38.528L142.278,44.2L140.513,44.2ZM158.622,40.856L160.434,41.091C160.153,42.143 159.622,42.966 158.841,43.559C158.07,44.143 157.08,44.434 155.872,44.434C154.361,44.434 153.158,43.971 152.263,43.044C151.377,42.106 150.934,40.794 150.934,39.106C150.934,37.356 151.382,36.002 152.278,35.044C153.174,34.075 154.341,33.591 155.778,33.591C157.164,33.591 158.294,34.065 159.169,35.013C160.054,35.95 160.497,37.278 160.497,38.997C160.497,39.101 160.492,39.257 160.481,39.466L152.747,39.466C152.809,40.601 153.132,41.471 153.716,42.075C154.299,42.679 155.023,42.981 155.887,42.981C156.533,42.981 157.08,42.815 157.528,42.481C157.986,42.138 158.351,41.596 158.622,40.856ZM152.841,38.013L158.637,38.013C158.565,37.148 158.346,36.497 157.981,36.059C157.419,35.382 156.69,35.044 155.794,35.044C154.992,35.044 154.315,35.315 153.762,35.856C153.21,36.388 152.903,37.106 152.841,38.013ZM162.497,44.2L162.497,33.825L164.075,33.825L164.075,35.403C164.481,34.664 164.856,34.179 165.2,33.95C165.544,33.71 165.919,33.591 166.325,33.591C166.919,33.591 167.523,33.778 168.137,34.153L167.528,35.794C167.101,35.533 166.674,35.403 166.247,35.403C165.861,35.403 165.512,35.523 165.2,35.763C164.898,35.992 164.679,36.309 164.544,36.716C164.356,37.341 164.262,38.023 164.262,38.763L164.262,44.2L162.497,44.2ZM175.934,44.2L175.934,35.2L174.387,35.2L174.387,33.825L175.934,33.825L175.934,32.731C175.934,32.033 175.997,31.513 176.122,31.169C176.289,30.71 176.585,30.341 177.012,30.059C177.44,29.778 178.039,29.638 178.809,29.638C179.309,29.638 179.856,29.695 180.45,29.809L180.184,31.341C179.82,31.278 179.476,31.247 179.153,31.247C178.622,31.247 178.242,31.361 178.012,31.591C177.794,31.82 177.684,32.247 177.684,32.872L177.684,33.825L179.716,33.825L179.716,35.2L177.684,35.2L177.684,44.2L175.934,44.2ZM188.309,44.2L188.309,42.669C187.507,43.846 186.414,44.434 185.028,44.434C184.414,44.434 183.841,44.32 183.309,44.091C182.778,43.851 182.382,43.554 182.122,43.2C181.872,42.846 181.695,42.408 181.591,41.888C181.518,41.544 181.481,40.997 181.481,40.247L181.481,33.825L183.231,33.825L183.231,39.575C183.231,40.492 183.268,41.111 183.341,41.434C183.455,41.893 183.69,42.257 184.044,42.528C184.408,42.789 184.851,42.919 185.372,42.919C185.903,42.919 186.398,42.783 186.856,42.513C187.325,42.242 187.653,41.877 187.841,41.419C188.039,40.95 188.137,40.273 188.137,39.388L188.137,33.825L189.887,33.825L189.887,44.2L188.309,44.2ZM192.481,44.2L192.481,29.888L194.231,29.888L194.231,44.2L192.481,44.2ZM196.481,44.2L196.481,29.888L198.231,29.888L198.231,44.2L196.481,44.2ZM208.137,44.2L206.512,44.2L206.512,29.888L208.262,29.888L208.262,34.997C209.012,34.059 209.96,33.591 211.106,33.591C211.742,33.591 212.346,33.721 212.919,33.981C213.492,34.242 213.96,34.606 214.325,35.075C214.69,35.533 214.976,36.091 215.184,36.747C215.393,37.403 215.497,38.106 215.497,38.856C215.497,40.638 215.059,42.013 214.184,42.981C213.309,43.95 212.257,44.434 211.028,44.434C209.799,44.434 208.835,43.924 208.137,42.903L208.137,44.2ZM208.122,38.934C208.122,40.174 208.289,41.075 208.622,41.638C209.184,42.533 209.934,42.981 210.872,42.981C211.643,42.981 212.304,42.648 212.856,41.981C213.419,41.315 213.7,40.32 213.7,38.997C213.7,37.643 213.429,36.648 212.887,36.013C212.356,35.367 211.71,35.044 210.95,35.044C210.179,35.044 209.512,35.377 208.95,36.044C208.398,36.71 208.122,37.674 208.122,38.934ZM224.309,44.2L224.309,42.669C223.507,43.846 222.414,44.434 221.028,44.434C220.414,44.434 219.841,44.32 219.309,44.091C218.778,43.851 218.382,43.554 218.122,43.2C217.872,42.846 217.695,42.408 217.591,41.888C217.518,41.544 217.481,40.997 217.481,40.247L217.481,33.825L219.231,33.825L219.231,39.575C219.231,40.492 219.268,41.111 219.341,41.434C219.455,41.893 219.69,42.257 220.044,42.528C220.408,42.789 220.851,42.919 221.372,42.919C221.903,42.919 222.398,42.783 222.856,42.513C223.325,42.242 223.653,41.877 223.841,41.419C224.039,40.95 224.137,40.273 224.137,39.388L224.137,33.825L225.887,33.825L225.887,44.2L224.309,44.2ZM228.528,31.903L228.528,29.888L230.294,29.888L230.294,31.903L228.528,31.903ZM228.528,44.2L228.528,33.825L230.294,33.825L230.294,44.2L228.528,44.2ZM232.481,44.2L232.481,29.888L234.231,29.888L234.231,44.2L232.481,44.2ZM243.247,44.2L243.247,42.888C242.591,43.919 241.622,44.434 240.341,44.434C239.518,44.434 238.757,44.205 238.059,43.747C237.372,43.289 236.835,42.653 236.45,41.841C236.075,41.028 235.887,40.091 235.887,39.028C235.887,37.986 236.059,37.044 236.403,36.2C236.747,35.356 237.262,34.71 237.95,34.263C238.648,33.815 239.419,33.591 240.262,33.591C240.887,33.591 241.445,33.726 241.934,33.997C242.424,34.257 242.825,34.596 243.137,35.013L243.137,29.888L244.872,29.888L244.872,44.2L243.247,44.2ZM237.684,39.028C237.684,40.351 237.966,41.341 238.528,41.997C239.091,42.653 239.752,42.981 240.512,42.981C241.283,42.981 241.934,42.669 242.466,42.044C243.007,41.419 243.278,40.46 243.278,39.169C243.278,37.752 243.002,36.71 242.45,36.044C241.908,35.377 241.236,35.044 240.434,35.044C239.653,35.044 238.997,35.367 238.466,36.013C237.945,36.648 237.684,37.653 237.684,39.028ZM253.528,31.903L253.528,29.888L255.294,29.888L255.294,31.903L253.528,31.903ZM253.528,44.2L253.528,33.825L255.294,33.825L255.294,44.2L253.528,44.2ZM257.512,44.2L257.512,33.825L259.106,33.825L259.106,35.309C259.867,34.164 260.966,33.591 262.403,33.591C263.028,33.591 263.601,33.705 264.122,33.934C264.653,34.153 265.049,34.445 265.309,34.809C265.57,35.174 265.752,35.606 265.856,36.106C265.919,36.44 265.95,37.013 265.95,37.825L265.95,44.2L264.184,44.2L264.184,37.888C264.184,37.169 264.117,36.632 263.981,36.278C263.846,35.924 263.601,35.643 263.247,35.434C262.903,35.226 262.497,35.122 262.028,35.122C261.278,35.122 260.632,35.361 260.091,35.841C259.549,36.309 259.278,37.205 259.278,38.528L259.278,44.2L257.512,44.2ZM273.809,41.106L275.559,40.825C275.653,41.523 275.924,42.059 276.372,42.434C276.82,42.799 277.445,42.981 278.247,42.981C279.049,42.981 279.643,42.82 280.028,42.497C280.424,42.164 280.622,41.778 280.622,41.341C280.622,40.945 280.45,40.632 280.106,40.403C279.867,40.247 279.268,40.049 278.309,39.809C277.018,39.476 276.122,39.195 275.622,38.966C275.132,38.726 274.757,38.398 274.497,37.981C274.236,37.554 274.106,37.085 274.106,36.575C274.106,36.117 274.21,35.69 274.419,35.294C274.638,34.898 274.929,34.57 275.294,34.309C275.565,34.111 275.934,33.945 276.403,33.809C276.882,33.664 277.393,33.591 277.934,33.591C278.747,33.591 279.46,33.71 280.075,33.95C280.69,34.179 281.143,34.497 281.434,34.903C281.726,35.299 281.929,35.83 282.044,36.497L280.325,36.731C280.242,36.2 280.013,35.789 279.638,35.497C279.263,35.195 278.736,35.044 278.059,35.044C277.247,35.044 276.669,35.179 276.325,35.45C275.981,35.71 275.809,36.018 275.809,36.372C275.809,36.601 275.882,36.809 276.028,36.997C276.164,37.184 276.388,37.341 276.7,37.466C276.877,37.528 277.393,37.674 278.247,37.903C279.497,38.236 280.367,38.513 280.856,38.731C281.346,38.94 281.731,39.247 282.013,39.653C282.294,40.049 282.434,40.549 282.434,41.153C282.434,41.736 282.263,42.289 281.919,42.809C281.575,43.33 281.08,43.731 280.434,44.013C279.789,44.294 279.059,44.434 278.247,44.434C276.903,44.434 275.877,44.153 275.169,43.591C274.46,43.028 274.007,42.2 273.809,41.106ZM291.622,40.856L293.434,41.091C293.153,42.143 292.622,42.966 291.841,43.559C291.07,44.143 290.08,44.434 288.872,44.434C287.361,44.434 286.158,43.971 285.263,43.044C284.377,42.106 283.934,40.794 283.934,39.106C283.934,37.356 284.382,36.002 285.278,35.044C286.174,34.075 287.341,33.591 288.778,33.591C290.164,33.591 291.294,34.065 292.169,35.013C293.054,35.95 293.497,37.278 293.497,38.997C293.497,39.101 293.492,39.257 293.481,39.466L285.747,39.466C285.809,40.601 286.132,41.471 286.716,42.075C287.299,42.679 288.023,42.981 288.888,42.981C289.533,42.981 290.08,42.815 290.528,42.481C290.986,42.138 291.351,41.596 291.622,40.856ZM285.841,38.013L291.638,38.013C291.565,37.148 291.346,36.497 290.981,36.059C290.419,35.382 289.69,35.044 288.794,35.044C287.992,35.044 287.315,35.315 286.763,35.856C286.21,36.388 285.903,37.106 285.841,38.013ZM302.294,40.403L304.013,40.622C303.825,41.82 303.341,42.757 302.559,43.434C301.789,44.101 300.835,44.434 299.7,44.434C298.283,44.434 297.143,43.971 296.278,43.044C295.414,42.117 294.981,40.789 294.981,39.059C294.981,37.934 295.164,36.955 295.528,36.122C295.903,35.278 296.471,34.648 297.231,34.231C297.992,33.804 298.82,33.591 299.716,33.591C300.841,33.591 301.757,33.877 302.466,34.45C303.184,35.023 303.648,35.83 303.856,36.872L302.138,37.138C301.981,36.44 301.695,35.919 301.278,35.575C300.861,35.221 300.361,35.044 299.778,35.044C298.893,35.044 298.174,35.361 297.622,35.997C297.07,36.632 296.794,37.632 296.794,38.997C296.794,40.393 297.059,41.408 297.591,42.044C298.122,42.669 298.82,42.981 299.684,42.981C300.372,42.981 300.945,42.773 301.403,42.356C301.872,41.929 302.169,41.278 302.294,40.403ZM304.872,39.013C304.872,37.096 305.403,35.674 306.466,34.747C307.361,33.976 308.45,33.591 309.731,33.591C311.158,33.591 312.32,34.059 313.216,34.997C314.122,35.934 314.575,37.226 314.575,38.872C314.575,40.205 314.377,41.257 313.981,42.028C313.585,42.789 313.002,43.382 312.231,43.809C311.471,44.226 310.638,44.434 309.731,44.434C308.273,44.434 307.096,43.971 306.2,43.044C305.315,42.106 304.872,40.763 304.872,39.013ZM306.669,39.013C306.669,40.346 306.955,41.341 307.528,41.997C308.111,42.653 308.846,42.981 309.731,42.981C310.606,42.981 311.33,42.653 311.903,41.997C312.486,41.33 312.778,40.315 312.778,38.95C312.778,37.669 312.486,36.7 311.903,36.044C311.32,35.377 310.596,35.044 309.731,35.044C308.846,35.044 308.111,35.377 307.528,36.044C306.955,36.7 306.669,37.69 306.669,39.013ZM316.513,44.2L316.513,33.825L318.106,33.825L318.106,35.309C318.867,34.164 319.966,33.591 321.403,33.591C322.028,33.591 322.601,33.705 323.122,33.934C323.653,34.153 324.049,34.445 324.309,34.809C324.57,35.174 324.752,35.606 324.856,36.106C324.919,36.44 324.95,37.013 324.95,37.825L324.95,44.2L323.184,44.2L323.184,37.888C323.184,37.169 323.117,36.632 322.981,36.278C322.846,35.924 322.601,35.643 322.247,35.434C321.903,35.226 321.497,35.122 321.028,35.122C320.278,35.122 319.632,35.361 319.091,35.841C318.549,36.309 318.278,37.205 318.278,38.528L318.278,44.2L316.513,44.2ZM334.247,44.2L334.247,42.888C333.591,43.919 332.622,44.434 331.341,44.434C330.518,44.434 329.757,44.205 329.059,43.747C328.372,43.289 327.835,42.653 327.45,41.841C327.075,41.028 326.888,40.091 326.888,39.028C326.888,37.986 327.059,37.044 327.403,36.2C327.747,35.356 328.263,34.71 328.95,34.263C329.648,33.815 330.419,33.591 331.263,33.591C331.888,33.591 332.445,33.726 332.934,33.997C333.424,34.257 333.825,34.596 334.138,35.013L334.138,29.888L335.872,29.888L335.872,44.2L334.247,44.2ZM328.684,39.028C328.684,40.351 328.966,41.341 329.528,41.997C330.091,42.653 330.752,42.981 331.513,42.981C332.283,42.981 332.934,42.669 333.466,42.044C334.007,41.419 334.278,40.46 334.278,39.169C334.278,37.752 334.002,36.71 333.45,36.044C332.908,35.377 332.236,35.044 331.434,35.044C330.653,35.044 329.997,35.367 329.466,36.013C328.945,36.648 328.684,37.653 328.684,39.028ZM337.809,41.106L339.559,40.825C339.653,41.523 339.924,42.059 340.372,42.434C340.82,42.799 341.445,42.981 342.247,42.981C343.049,42.981 343.643,42.82 344.028,42.497C344.424,42.164 344.622,41.778 344.622,41.341C344.622,40.945 344.45,40.632 344.106,40.403C343.867,40.247 343.268,40.049 342.309,39.809C341.018,39.476 340.122,39.195 339.622,38.966C339.132,38.726 338.757,38.398 338.497,37.981C338.236,37.554 338.106,37.085 338.106,36.575C338.106,36.117 338.21,35.69 338.419,35.294C338.638,34.898 338.929,34.57 339.294,34.309C339.565,34.111 339.934,33.945 340.403,33.809C340.882,33.664 341.393,33.591 341.934,33.591C342.747,33.591 343.46,33.71 344.075,33.95C344.69,34.179 345.143,34.497 345.434,34.903C345.726,35.299 345.929,35.83 346.044,36.497L344.325,36.731C344.242,36.2 344.013,35.789 343.638,35.497C343.263,35.195 342.736,35.044 342.059,35.044C341.247,35.044 340.669,35.179 340.325,35.45C339.981,35.71 339.809,36.018 339.809,36.372C339.809,36.601 339.882,36.809 340.028,36.997C340.164,37.184 340.388,37.341 340.7,37.466C340.877,37.528 341.393,37.674 342.247,37.903C343.497,38.236 344.367,38.513 344.856,38.731C345.346,38.94 345.731,39.247 346.013,39.653C346.294,40.049 346.434,40.549 346.434,41.153C346.434,41.736 346.263,42.289 345.919,42.809C345.575,43.33 345.08,43.731 344.434,44.013C343.789,44.294 343.059,44.434 342.247,44.434C340.903,44.434 339.877,44.153 339.169,43.591C338.46,43.028 338.007,42.2 337.809,41.106Z" style="fill:white;fill-rule:nonzero;"/>
</svg>
