<svg version="1.1" viewBox="0.0 0.0 788.0 504.0" fill="none" stroke="none" stroke-linecap="square" stroke-miterlimit="10" width="788" height="504" xmlns:xlink="http://www.w3.org/1999/xlink" xmlns="http://www.w3.org/2000/svg"><path fill="#ffffff" d="M0 0L788.0 0L788.0 504.0L0 504.0L0 0Z" fill-rule="nonzero"/><path stroke="#333333" stroke-width="1.0" stroke-linecap="butt" d="M52.5 471.5L762.5 471.5" fill-rule="nonzero"/><path stroke="#cccccc" stroke-width="1.0" stroke-linecap="butt" d="M52.5 412.5L762.5 412.5" fill-rule="nonzero"/><path stroke="#cccccc" stroke-width="1.0" stroke-linecap="butt" d="M52.5 352.5L762.5 352.5" fill-rule="nonzero"/><path stroke="#cccccc" stroke-width="1.0" stroke-linecap="butt" d="M52.5 292.5L762.5 292.5" fill-rule="nonzero"/><path stroke="#cccccc" stroke-width="1.0" stroke-linecap="butt" d="M52.5 233.5L762.5 233.5" fill-rule="nonzero"/><path stroke="#cccccc" stroke-width="1.0" stroke-linecap="butt" d="M52.5 173.5L762.5 173.5" fill-rule="nonzero"/><path stroke="#cccccc" stroke-width="1.0" stroke-linecap="butt" d="M52.5 113.5L762.5 113.5" fill-rule="nonzero"/><clipPath id="id_0"><path d="M52.2 113.8L762.8 113.8L762.8 471.8L52.2 471.8L52.2 113.8Z" clip-rule="nonzero"/></clipPath><path stroke="#000000" stroke-width="0.0" stroke-linecap="butt" stroke-opacity="0.0" clip-path="url(#id_0)" d="M407.0 472.0L237.0 472.0L237.0 362.0C237.0 360.89542 237.89543 360.0 239.0 360.0L405.0 360.0C406.10458 360.0 407.0 360.89542 407.0 362.0Z" fill-rule="nonzero"/><path fill="#4285f4" clip-path="url(#id_0)" d="M407.0 472.0L237.0 472.0L237.0 362.0C237.0 360.89542 237.89543 360.0 239.0 360.0L405.0 360.0C406.10458 360.0 407.0 360.89542 407.0 362.0Z" fill-rule="nonzero"/><path stroke="#000000" stroke-width="0.0" stroke-linecap="butt" stroke-opacity="0.0" clip-path="url(#id_0)" d="M578.0 472.0L408.0 472.0L408.0 136.0C408.0 134.89543 408.89542 134.0 410.0 134.0L576.0 134.0C577.10455 134.0 578.0 134.89543 578.0 136.0Z" fill-rule="nonzero"/><path fill="#ea4335" clip-path="url(#id_0)" d="M578.0 472.0L408.0 472.0L408.0 136.0C408.0 134.89543 408.89542 134.0 410.0 134.0L576.0 134.0C577.10455 134.0 578.0 134.89543 578.0 136.0Z" fill-rule="nonzero"/><path stroke="#4285f4" stroke-width="3.0" stroke-linejoin="round" stroke-linecap="round" d="M309.28125 372.2563L310.09375 372.2563Q310.875 372.24066 311.3125 371.85004Q311.75 371.4594 311.75 370.78754Q311.75 369.28754 310.25 369.28754Q309.54688 369.28754 309.125 369.6938Q308.71875 370.10004 308.71875 370.7563L307.625 370.7563Q307.625 369.74066 308.35938 369.0688Q309.10938 368.3969 310.25 368.3969Q311.45312 368.3969 312.14062 369.03754Q312.82812 369.67816 312.82812 370.8188Q312.82812 371.3813 312.46875 371.8969Q312.10938 372.41254 311.48438 372.67816Q312.1875 372.8969 312.5625 373.41254Q312.95312 373.92816 312.95312 374.67816Q312.95312 375.8188 312.20312 376.5063Q311.45312 377.17816 310.25 377.17816Q309.0625 377.17816 308.29688 376.5219Q307.54688 375.86566 307.54688 374.80316L308.64062 374.80316Q308.64062 375.47504 309.07812 375.8813Q309.51562 376.28754 310.26562 376.28754Q311.04688 376.28754 311.45312 375.8813Q311.875 375.4594 311.875 374.6938Q311.875 373.9594 311.42188 373.5688Q310.96875 373.16254 310.09375 373.1469L309.28125 373.1469L309.28125 372.2563ZM314.84375 376.49066Q314.84375 376.2094 315.0 376.0219Q315.17188 375.8344 315.5 375.8344Q315.84375 375.8344 316.01562 376.0219Q316.1875 376.2094 316.1875 376.49066Q316.1875 376.7563 316.01562 376.9438Q315.84375 377.11566 315.5 377.11566Q315.17188 377.11566 315.0 376.9438Q314.84375 376.7563 314.84375 376.49066ZM323.21875 369.1313L319.6875 377.05316L318.54688 377.05316L322.0625 369.41254L317.45312 369.41254L317.45312 368.5219L323.21875 368.5219L323.21875 369.1313ZM326.28125 372.2563L327.09375 372.2563Q327.875 372.24066 328.3125 371.85004Q328.75 371.4594 328.75 370.78754Q328.75 369.28754 327.25 369.28754Q326.54688 369.28754 326.125 369.6938Q325.71875 370.10004 325.71875 370.7563L324.625 370.7563Q324.625 369.74066 325.35938 369.0688Q326.10938 368.3969 327.25 368.3969Q328.45312 368.3969 329.14062 369.03754Q329.82812 369.67816 329.82812 370.8188Q329.82812 371.3813 329.46875 371.8969Q329.10938 372.41254 328.48438 372.67816Q329.1875 372.8969 329.5625 373.41254Q329.95312 373.92816 329.95312 374.67816Q329.95312 375.8188 329.20312 376.5063Q328.45312 377.17816 327.25 377.17816Q326.0625 377.17816 325.29688 376.5219Q324.54688 375.86566 324.54688 374.80316L325.64062 374.80316Q325.64062 375.47504 326.07812 375.8813Q326.51562 376.28754 327.26562 376.28754Q328.04688 376.28754 328.45312 375.8813Q328.875 375.4594 328.875 374.6938Q328.875 373.9594 328.42188 373.5688Q327.96875 373.16254 327.09375 373.1469L326.28125 373.1469L326.28125 372.2563ZM335.85938 373.30316Q335.53125 373.7094 335.04688 373.9594Q334.57812 374.1938 334.01562 374.1938Q333.28125 374.1938 332.73438 373.8344Q332.1875 373.47504 331.89062 372.8188Q331.59375 372.1469 331.59375 371.35004Q331.59375 370.5063 331.90625 369.8188Q332.23438 369.1313 332.82812 368.7719Q333.4375 368.3969 334.23438 368.3969Q335.5 368.3969 336.21875 369.35004Q336.95312 370.30316 336.95312 371.92816L336.95312 372.24066Q336.95312 374.74066 335.96875 375.8813Q334.98438 377.0219 333.0 377.05316L332.78125 377.05316L332.78125 376.1469L333.01562 376.1469Q334.35938 376.11566 335.07812 375.4438Q335.79688 374.7719 335.85938 373.30316ZM334.1875 373.30316Q334.73438 373.30316 335.1875 372.97504Q335.65625 372.6313 335.875 372.1469L335.875 371.7094Q335.875 370.6469 335.40625 369.97504Q334.9375 369.30316 334.23438 369.30316Q333.51562 369.30316 333.07812 369.85004Q332.65625 370.3969 332.65625 371.30316Q332.65625 372.17816 333.0625 372.74066Q333.48438 373.30316 334.1875 373.30316Z" fill-rule="nonzero"/><path fill="#ffffff" d="M309.28125 372.2563L310.09375 372.2563Q310.875 372.24066 311.3125 371.85004Q311.75 371.4594 311.75 370.78754Q311.75 369.28754 310.25 369.28754Q309.54688 369.28754 309.125 369.6938Q308.71875 370.10004 308.71875 370.7563L307.625 370.7563Q307.625 369.74066 308.35938 369.0688Q309.10938 368.3969 310.25 368.3969Q311.45312 368.3969 312.14062 369.03754Q312.82812 369.67816 312.82812 370.8188Q312.82812 371.3813 312.46875 371.8969Q312.10938 372.41254 311.48438 372.67816Q312.1875 372.8969 312.5625 373.41254Q312.95312 373.92816 312.95312 374.67816Q312.95312 375.8188 312.20312 376.5063Q311.45312 377.17816 310.25 377.17816Q309.0625 377.17816 308.29688 376.5219Q307.54688 375.86566 307.54688 374.80316L308.64062 374.80316Q308.64062 375.47504 309.07812 375.8813Q309.51562 376.28754 310.26562 376.28754Q311.04688 376.28754 311.45312 375.8813Q311.875 375.4594 311.875 374.6938Q311.875 373.9594 311.42188 373.5688Q310.96875 373.16254 310.09375 373.1469L309.28125 373.1469L309.28125 372.2563ZM314.84375 376.49066Q314.84375 376.2094 315.0 376.0219Q315.17188 375.8344 315.5 375.8344Q315.84375 375.8344 316.01562 376.0219Q316.1875 376.2094 316.1875 376.49066Q316.1875 376.7563 316.01562 376.9438Q315.84375 377.11566 315.5 377.11566Q315.17188 377.11566 315.0 376.9438Q314.84375 376.7563 314.84375 376.49066ZM323.21875 369.1313L319.6875 377.05316L318.54688 377.05316L322.0625 369.41254L317.45312 369.41254L317.45312 368.5219L323.21875 368.5219L323.21875 369.1313ZM326.28125 372.2563L327.09375 372.2563Q327.875 372.24066 328.3125 371.85004Q328.75 371.4594 328.75 370.78754Q328.75 369.28754 327.25 369.28754Q326.54688 369.28754 326.125 369.6938Q325.71875 370.10004 325.71875 370.7563L324.625 370.7563Q324.625 369.74066 325.35938 369.0688Q326.10938 368.3969 327.25 368.3969Q328.45312 368.3969 329.14062 369.03754Q329.82812 369.67816 329.82812 370.8188Q329.82812 371.3813 329.46875 371.8969Q329.10938 372.41254 328.48438 372.67816Q329.1875 372.8969 329.5625 373.41254Q329.95312 373.92816 329.95312 374.67816Q329.95312 375.8188 329.20312 376.5063Q328.45312 377.17816 327.25 377.17816Q326.0625 377.17816 325.29688 376.5219Q324.54688 375.86566 324.54688 374.80316L325.64062 374.80316Q325.64062 375.47504 326.07812 375.8813Q326.51562 376.28754 327.26562 376.28754Q328.04688 376.28754 328.45312 375.8813Q328.875 375.4594 328.875 374.6938Q328.875 373.9594 328.42188 373.5688Q327.96875 373.16254 327.09375 373.1469L326.28125 373.1469L326.28125 372.2563ZM335.85938 373.30316Q335.53125 373.7094 335.04688 373.9594Q334.57812 374.1938 334.01562 374.1938Q333.28125 374.1938 332.73438 373.8344Q332.1875 373.47504 331.89062 372.8188Q331.59375 372.1469 331.59375 371.35004Q331.59375 370.5063 331.90625 369.8188Q332.23438 369.1313 332.82812 368.7719Q333.4375 368.3969 334.23438 368.3969Q335.5 368.3969 336.21875 369.35004Q336.95312 370.30316 336.95312 371.92816L336.95312 372.24066Q336.95312 374.74066 335.96875 375.8813Q334.98438 377.0219 333.0 377.05316L332.78125 377.05316L332.78125 376.1469L333.01562 376.1469Q334.35938 376.11566 335.07812 375.4438Q335.79688 374.7719 335.85938 373.30316ZM334.1875 373.30316Q334.73438 373.30316 335.1875 372.97504Q335.65625 372.6313 335.875 372.1469L335.875 371.7094Q335.875 370.6469 335.40625 369.97504Q334.9375 369.30316 334.23438 369.30316Q333.51562 369.30316 333.07812 369.85004Q332.65625 370.3969 332.65625 371.30316Q332.65625 372.17816 333.0625 372.74066Q333.48438 373.30316 334.1875 373.30316Z" fill-rule="nonzero"/><path stroke="#ea4335" stroke-width="3.0" stroke-linejoin="round" stroke-linecap="round" d="M478.76562 151.12534L477.6875 151.12534L477.6875 143.90659L475.5 144.70346L475.5 143.71909L478.60938 142.54721L478.76562 142.54721L478.76562 151.12534ZM485.76562 151.12534L484.6875 151.12534L484.6875 143.90659L482.5 144.70346L482.5 143.71909L485.60938 142.54721L485.76562 142.54721L485.76562 151.12534ZM489.34375 150.56284Q489.34375 150.28159 489.5 150.09409Q489.67188 149.90659 490.0 149.90659Q490.34375 149.90659 490.51562 150.09409Q490.6875 150.28159 490.6875 150.56284Q490.6875 150.82846 490.51562 151.01596Q490.34375 151.18784 490.0 151.18784Q489.67188 151.18784 489.5 151.01596Q489.34375 150.82846 489.34375 150.56284ZM493.78125 146.32846L494.59375 146.32846Q495.375 146.31284 495.8125 145.92221Q496.25 145.53159 496.25 144.85971Q496.25 143.35971 494.75 143.35971Q494.04688 143.35971 493.625 143.76596Q493.21875 144.17221 493.21875 144.82846L492.125 144.82846Q492.125 143.81284 492.85938 143.14096Q493.60938 142.46909 494.75 142.46909Q495.95312 142.46909 496.64062 143.10971Q497.32812 143.75034 497.32812 144.89096Q497.32812 145.45346 496.96875 145.96909Q496.60938 146.48471 495.98438 146.75034Q496.6875 146.96909 497.0625 147.48471Q497.45312 148.00034 497.45312 148.75034Q497.45312 149.89096 496.70312 150.57846Q495.95312 151.25034 494.75 151.25034Q493.5625 151.25034 492.79688 150.59409Q492.04688 149.93784 492.04688 148.87534L493.14062 148.87534Q493.14062 149.54721 493.57812 149.95346Q494.01562 150.35971 494.76562 150.35971Q495.54688 150.35971 495.95312 149.95346Q496.375 149.53159 496.375 148.76596Q496.375 148.03159 495.92188 147.64096Q495.46875 147.23471 494.59375 147.21909L493.78125 147.21909L493.78125 146.32846ZM502.76562 151.12534L501.6875 151.12534L501.6875 143.90659L499.5 144.70346L499.5 143.71909L502.60938 142.54721L502.76562 142.54721L502.76562 151.12534ZM511.79688 151.12534L506.20312 151.12534L506.20312 150.34409L509.15625 147.06284Q509.8125 146.31284 510.0625 145.85971Q510.3125 145.39096 510.3125 144.89096Q510.3125 144.21909 509.90625 143.79721Q509.51562 143.35971 508.82812 143.35971Q508.03125 143.35971 507.57812 143.82846Q507.125 144.28159 507.125 145.10971L506.04688 145.10971Q506.04688 143.92221 506.79688 143.20346Q507.5625 142.46909 508.82812 142.46909Q510.03125 142.46909 510.71875 143.09409Q511.40625 143.71909 511.40625 144.76596Q511.40625 146.01596 509.79688 147.76596L507.51562 150.23471L511.79688 150.23471L511.79688 151.12534Z" fill-rule="nonzero"/><path fill="#ffffff" d="M478.76562 151.12534L477.6875 151.12534L477.6875 143.90659L475.5 144.70346L475.5 143.71909L478.60938 142.54721L478.76562 142.54721L478.76562 151.12534ZM485.76562 151.12534L484.6875 151.12534L484.6875 143.90659L482.5 144.70346L482.5 143.71909L485.60938 142.54721L485.76562 142.54721L485.76562 151.12534ZM489.34375 150.56284Q489.34375 150.28159 489.5 150.09409Q489.67188 149.90659 490.0 149.90659Q490.34375 149.90659 490.51562 150.09409Q490.6875 150.28159 490.6875 150.56284Q490.6875 150.82846 490.51562 151.01596Q490.34375 151.18784 490.0 151.18784Q489.67188 151.18784 489.5 151.01596Q489.34375 150.82846 489.34375 150.56284ZM493.78125 146.32846L494.59375 146.32846Q495.375 146.31284 495.8125 145.92221Q496.25 145.53159 496.25 144.85971Q496.25 143.35971 494.75 143.35971Q494.04688 143.35971 493.625 143.76596Q493.21875 144.17221 493.21875 144.82846L492.125 144.82846Q492.125 143.81284 492.85938 143.14096Q493.60938 142.46909 494.75 142.46909Q495.95312 142.46909 496.64062 143.10971Q497.32812 143.75034 497.32812 144.89096Q497.32812 145.45346 496.96875 145.96909Q496.60938 146.48471 495.98438 146.75034Q496.6875 146.96909 497.0625 147.48471Q497.45312 148.00034 497.45312 148.75034Q497.45312 149.89096 496.70312 150.57846Q495.95312 151.25034 494.75 151.25034Q493.5625 151.25034 492.79688 150.59409Q492.04688 149.93784 492.04688 148.87534L493.14062 148.87534Q493.14062 149.54721 493.57812 149.95346Q494.01562 150.35971 494.76562 150.35971Q495.54688 150.35971 495.95312 149.95346Q496.375 149.53159 496.375 148.76596Q496.375 148.03159 495.92188 147.64096Q495.46875 147.23471 494.59375 147.21909L493.78125 147.21909L493.78125 146.32846ZM502.76562 151.12534L501.6875 151.12534L501.6875 143.90659L499.5 144.70346L499.5 143.71909L502.60938 142.54721L502.76562 142.54721L502.76562 151.12534ZM511.79688 151.12534L506.20312 151.12534L506.20312 150.34409L509.15625 147.06284Q509.8125 146.31284 510.0625 145.85971Q510.3125 145.39096 510.3125 144.89096Q510.3125 144.21909 509.90625 143.79721Q509.51562 143.35971 508.82812 143.35971Q508.03125 143.35971 507.57812 143.82846Q507.125 144.28159 507.125 145.10971L506.04688 145.10971Q506.04688 143.92221 506.79688 143.20346Q507.5625 142.46909 508.82812 142.46909Q510.03125 142.46909 510.71875 143.09409Q511.40625 143.71909 511.40625 144.76596Q511.40625 146.01596 509.79688 147.76596L507.51562 150.23471L511.79688 150.23471L511.79688 151.12534Z" fill-rule="nonzero"/><path fill="#000000" d="M39.7 471.5656Q39.7 470.03436 40.0125 469.1125Q40.325 468.175 40.934376 467.675Q41.559376 467.175 42.496876 467.175Q43.184376 467.175 43.7 467.45624Q44.23125 467.7375 44.575 468.26874Q44.91875 468.78436 45.10625 469.53436Q45.29375 470.28436 45.29375 471.5656Q45.29375 473.08124 44.98125 474.0031Q44.684376 474.925 44.059376 475.4406Q43.45 475.9406 42.496876 475.9406Q41.2625 475.9406 40.54375 475.05Q39.7 473.9875 39.7 471.5656ZM40.778126 471.5656Q40.778126 473.675 41.278126 474.3781Q41.778126 475.08124 42.496876 475.08124Q43.23125 475.08124 43.715626 474.3781Q44.215626 473.675 44.215626 471.5656Q44.215626 469.4406 43.715626 468.7531Q43.23125 468.05 42.48125 468.05Q41.7625 468.05 41.325 468.65936Q40.778126 469.4406 40.778126 471.5656Z" fill-rule="nonzero"/><path fill="#000000" d="M45.246876 415.1177L45.246876 416.13333L39.559376 416.13333Q39.559376 415.75833 39.684376 415.39896Q39.903126 414.82083 40.371876 414.25833Q40.85625 413.69583 41.7625 412.96146Q43.16875 411.8052 43.653126 411.13333Q44.153126 410.46146 44.153126 409.8677Q44.153126 409.2427 43.7 408.82083Q43.246876 408.38333 42.528126 408.38333Q41.7625 408.38333 41.309376 408.83646Q40.85625 409.28958 40.840626 410.10208L39.7625 409.9927Q39.871876 408.77396 40.590626 408.14896Q41.325 407.50833 42.559376 407.50833Q43.79375 407.50833 44.5125 408.19583Q45.23125 408.88333 45.23125 409.89896Q45.23125 410.41458 45.0125 410.91458Q44.809376 411.39896 44.309376 411.96146Q43.825 412.50833 42.7 413.46146Q41.746876 414.25833 41.465626 414.5552Q41.2 414.83646 41.028126 415.1177L45.246876 415.1177Z" fill-rule="nonzero"/><path fill="#000000" d="M43.075 356.46667L43.075 354.40417L39.35625 354.40417L39.35625 353.43542L43.278126 347.87292L44.1375 347.87292L44.1375 353.43542L45.29375 353.43542L45.29375 354.40417L44.1375 354.40417L44.1375 356.46667L43.075 356.46667ZM43.075 353.43542L43.075 349.57605L40.3875 353.43542L43.075 353.43542Z" fill-rule="nonzero"/><path fill="#000000" d="M45.16875 290.3156L44.121876 290.39374Q43.98125 289.76874 43.73125 289.4875Q43.29375 289.03436 42.66875 289.03436Q42.16875 289.03436 41.778126 289.3156Q41.29375 289.6906 40.996876 290.39374Q40.715626 291.08124 40.7 292.3625Q41.075 291.78436 41.621876 291.5031Q42.184376 291.22186 42.79375 291.22186Q43.840626 291.22186 44.575 292.0031Q45.325 292.78436 45.325 294.0031Q45.325 294.8156 44.965626 295.51874Q44.621876 296.20624 44.0125 296.58124Q43.403126 296.9406 42.6375 296.9406Q41.309376 296.9406 40.48125 295.97186Q39.653126 295.0031 39.653126 292.78436Q39.653126 290.28436 40.575 289.15936Q41.371876 288.175 42.73125 288.175Q43.746876 288.175 44.3875 288.7531Q45.04375 289.3156 45.16875 290.3156ZM40.871876 294.01874Q40.871876 294.5656 41.090626 295.0656Q41.325 295.55 41.73125 295.8156Q42.153126 296.08124 42.621876 296.08124Q43.278126 296.08124 43.7625 295.55Q44.246876 295.0031 44.246876 294.08124Q44.246876 293.1906 43.7625 292.675Q43.29375 292.15936 42.575 292.15936Q41.85625 292.15936 41.35625 292.675Q40.871876 293.1906 40.871876 294.01874Z" fill-rule="nonzero"/><path fill="#000000" d="M41.325 232.47708Q40.66875 232.22708 40.340626 231.78958Q40.028126 231.33646 40.028126 230.72708Q40.028126 229.78958 40.7 229.14896Q41.3875 228.50833 42.496876 228.50833Q43.621876 228.50833 44.309376 229.16458Q44.996876 229.82083 44.996876 230.75833Q44.996876 231.35208 44.684376 231.78958Q44.371876 232.22708 43.73125 232.47708Q44.528126 232.72708 44.934376 233.3052Q45.340626 233.88333 45.340626 234.6802Q45.340626 235.77396 44.559376 236.52396Q43.79375 237.27396 42.5125 237.27396Q41.246876 237.27396 40.465626 236.52396Q39.684376 235.77396 39.684376 234.64896Q39.684376 233.8052 40.10625 233.2427Q40.54375 232.6802 41.325 232.47708ZM41.10625 230.6802Q41.10625 231.28958 41.496876 231.6802Q41.903126 232.07083 42.528126 232.07083Q43.1375 232.07083 43.528126 231.69583Q43.91875 231.3052 43.91875 230.7427Q43.91875 230.16458 43.5125 229.77396Q43.10625 229.3677 42.5125 229.3677Q41.903126 229.3677 41.496876 229.75833Q41.10625 230.14896 41.10625 230.6802ZM40.778126 234.64896Q40.778126 235.10208 40.98125 235.52396Q41.2 235.94583 41.621876 236.1802Q42.04375 236.41458 42.528126 236.41458Q43.278126 236.41458 43.7625 235.9302Q44.2625 235.44583 44.2625 234.69583Q44.2625 233.9302 43.7625 233.4302Q43.2625 232.9302 42.496876 232.9302Q41.746876 232.9302 41.2625 233.4302Q40.778126 233.91458 40.778126 234.64896Z" fill-rule="nonzero"/><path fill="#000000" d="M36.66875 177.46666L35.621876 177.46666L35.621876 170.74791Q35.23125 171.10728 34.60625 171.48228Q33.996876 171.84166 33.5125 172.01353L33.5125 170.99791Q34.3875 170.57603 35.04375 169.99791Q35.715626 169.40416 35.996876 168.84166L36.66875 168.84166L36.66875 177.46666ZM39.7 173.23228Q39.7 171.70103 40.0125 170.77916Q40.325 169.84166 40.934376 169.34166Q41.559376 168.84166 42.496876 168.84166Q43.184376 168.84166 43.7 169.12291Q44.23125 169.40416 44.575 169.93541Q44.91875 170.45103 45.10625 171.20103Q45.29375 171.95103 45.29375 173.23228Q45.29375 174.74791 44.98125 175.66978Q44.684376 176.59166 44.059376 177.10728Q43.45 177.60728 42.496876 177.60728Q41.2625 177.60728 40.54375 176.71666Q39.7 175.65416 39.7 173.23228ZM40.778126 173.23228Q40.778126 175.34166 41.278126 176.04478Q41.778126 176.74791 42.496876 176.74791Q43.23125 176.74791 43.715626 176.04478Q44.215626 175.34166 44.215626 173.23228Q44.215626 171.10728 43.715626 170.41978Q43.23125 169.71666 42.48125 169.71666Q41.7625 169.71666 41.325 170.32603Q40.778126 171.10728 40.778126 173.23228Z" fill-rule="nonzero"/><path fill="#000000" d="M36.66875 117.8L35.621876 117.8L35.621876 111.08125Q35.23125 111.44063 34.60625 111.81563Q33.996876 112.175 33.5125 112.34688L33.5125 111.33125Q34.3875 110.90938 35.04375 110.33125Q35.715626 109.7375 35.996876 109.175L36.66875 109.175L36.66875 117.8ZM45.246876 116.78438L45.246876 117.8L39.559376 117.8Q39.559376 117.425 39.684376 117.06563Q39.903126 116.4875 40.371876 115.925Q40.85625 115.3625 41.7625 114.62813Q43.16875 113.47188 43.653126 112.8Q44.153126 112.12813 44.153126 111.53438Q44.153126 110.90938 43.7 110.4875Q43.246876 110.05 42.528126 110.05Q41.7625 110.05 41.309376 110.50313Q40.85625 110.95625 40.840626 111.76875L39.7625 111.65938Q39.871876 110.44063 40.590626 109.81563Q41.325 109.175 42.559376 109.175Q43.79375 109.175 44.5125 109.8625Q45.23125 110.55 45.23125 111.56563Q45.23125 112.08125 45.0125 112.58125Q44.809376 113.06563 44.309376 113.62813Q43.825 114.175 42.7 115.12813Q41.746876 115.925 41.465626 116.22188Q41.2 116.50313 41.028126 116.78438L45.246876 116.78438Z" fill-rule="nonzero"/><path fill="#4285f4" d="M302.5 73.0C302.5 72.447716 302.94772 72.0 303.5 72.0L313.5 72.0C314.05228 72.0 314.5 72.447716 314.5 73.0L314.5 83.0C314.5 83.552284 314.05228 84.0 313.5 84.0L303.5 84.0C302.94772 84.0 302.5 83.552284 302.5 83.0Z" fill-rule="nonzero"/><path fill="#1a1a1a" d="M323.96875 85.0L323.96875 70.6875L325.85938 70.6875L325.85938 83.3125L332.90625 83.3125L332.90625 85.0L323.96875 85.0ZM334.82812 72.703125L334.82812 70.6875L336.59375 70.6875L336.59375 72.703125L334.82812 72.703125ZM334.82812 85.0L334.82812 74.625L336.59375 74.625L336.59375 85.0L334.82812 85.0ZM338.8125 85.0L338.8125 74.625L340.40625 74.625L340.40625 76.109375Q341.54688 74.390625 343.70312 74.390625Q344.64062 74.390625 345.42188 74.734375Q346.21875 75.0625 346.60938 75.609375Q347.0 76.15625 347.15625 76.90625Q347.25 77.40625 347.25 78.625L347.25 85.0L345.48438 85.0L345.48438 78.6875Q345.48438 77.609375 345.28125 77.078125Q345.07812 76.546875 344.54688 76.234375Q344.03125 75.921875 343.32812 75.921875Q342.20312 75.921875 341.39062 76.640625Q340.57812 77.34375 340.57812 79.328125L340.57812 85.0L338.8125 85.0ZM356.60938 85.0L356.60938 83.46875Q355.40625 85.234375 353.32812 85.234375Q352.40625 85.234375 351.60938 84.890625Q350.8125 84.53125 350.42188 84.0Q350.04688 83.46875 349.89062 82.6875Q349.78125 82.171875 349.78125 81.046875L349.78125 74.625L351.53125 74.625L351.53125 80.375Q351.53125 81.75 351.64062 82.234375Q351.8125 82.921875 352.34375 83.328125Q352.89062 83.71875 353.67188 83.71875Q354.46875 83.71875 355.15625 83.3125Q355.85938 82.90625 356.14062 82.21875Q356.4375 81.515625 356.4375 80.1875L356.4375 74.625L358.1875 74.625L358.1875 85.0L356.60938 85.0ZM359.64062 85.0L363.4375 79.609375L359.9375 74.625L362.125 74.625L363.71875 77.0625Q364.17188 77.75 364.4375 78.21875Q364.875 77.578125 365.23438 77.078125L366.98438 74.625L369.07812 74.625L365.5 79.515625L369.35938 85.0L367.20312 85.0L365.0625 81.78125L364.5 80.90625L361.78125 85.0L359.64062 85.0Z" fill-rule="nonzero"/><path fill="#ea4335" d="M385.5 73.0C385.5 72.447716 385.94772 72.0 386.5 72.0L396.5 72.0C397.05228 72.0 397.5 72.447716 397.5 73.0L397.5 83.0C397.5 83.552284 397.05228 84.0 396.5 84.0L386.5 84.0C385.94772 84.0 385.5 83.552284 385.5 83.0Z" fill-rule="nonzero"/><path fill="#1a1a1a" d="M409.54688 85.0L405.75 70.6875L407.6875 70.6875L409.85938 80.0625Q410.21875 81.546875 410.46875 83.0Q411.01562 80.703125 411.10938 80.34375L413.84375 70.6875L416.125 70.6875L418.17188 77.921875Q418.95312 80.625 419.29688 83.0Q419.5625 81.640625 420.0 79.875L422.25 70.6875L424.15625 70.6875L420.23438 85.0L418.40625 85.0L415.39062 74.09375Q415.0 72.71875 414.9375 72.40625Q414.70312 73.390625 414.51562 74.09375L411.48438 85.0L409.54688 85.0ZM425.82812 72.703125L425.82812 70.6875L427.59375 70.6875L427.59375 72.703125L425.82812 72.703125ZM425.82812 85.0L425.82812 74.625L427.59375 74.625L427.59375 85.0L425.82812 85.0ZM429.8125 85.0L429.8125 74.625L431.40625 74.625L431.40625 76.109375Q432.54688 74.390625 434.70312 74.390625Q435.64062 74.390625 436.42188 74.734375Q437.21875 75.0625 437.60938 75.609375Q438.0 76.15625 438.15625 76.90625Q438.25 77.40625 438.25 78.625L438.25 85.0L436.48438 85.0L436.48438 78.6875Q436.48438 77.609375 436.28125 77.078125Q436.07812 76.546875 435.54688 76.234375Q435.03125 75.921875 434.32812 75.921875Q433.20312 75.921875 432.39062 76.640625Q431.57812 77.34375 431.57812 79.328125L431.57812 85.0L429.8125 85.0ZM447.54688 85.0L447.54688 83.6875Q446.5625 85.234375 444.64062 85.234375Q443.40625 85.234375 442.35938 84.546875Q441.32812 83.859375 440.75 82.640625Q440.1875 81.421875 440.1875 79.828125Q440.1875 78.265625 440.70312 77.0Q441.21875 75.734375 442.25 75.0625Q443.29688 74.390625 444.5625 74.390625Q445.5 74.390625 446.23438 74.796875Q446.96875 75.1875 447.4375 75.8125L447.4375 70.6875L449.17188 70.6875L449.17188 85.0L447.54688 85.0ZM441.98438 79.828125Q441.98438 81.8125 442.82812 82.796875Q443.67188 83.78125 444.8125 83.78125Q445.96875 83.78125 446.76562 82.84375Q447.57812 81.90625 447.57812 79.96875Q447.57812 77.84375 446.75 76.84375Q445.9375 75.84375 444.73438 75.84375Q443.5625 75.84375 442.76562 76.8125Q441.98438 77.765625 441.98438 79.828125ZM451.17188 79.8125Q451.17188 76.9375 452.76562 75.546875Q454.10938 74.390625 456.03125 74.390625Q458.17188 74.390625 459.51562 75.796875Q460.875 77.203125 460.875 79.671875Q460.875 81.671875 460.28125 82.828125Q459.6875 83.96875 458.53125 84.609375Q457.39062 85.234375 456.03125 85.234375Q453.84375 85.234375 452.5 83.84375Q451.17188 82.4375 451.17188 79.8125ZM452.96875 79.8125Q452.96875 81.8125 453.82812 82.796875Q454.70312 83.78125 456.03125 83.78125Q457.34375 83.78125 458.20312 82.796875Q459.07812 81.796875 459.07812 79.75Q459.07812 77.828125 458.20312 76.84375Q457.32812 75.84375 456.03125 75.84375Q454.70312 75.84375 453.82812 76.84375Q452.96875 77.828125 452.96875 79.8125ZM464.73438 85.0L461.5625 74.625L463.375 74.625L465.03125 80.609375L465.64062 82.84375Q465.6875 82.671875 466.17188 80.703125L467.82812 74.625L469.64062 74.625L471.1875 80.640625L471.70312 82.625L472.29688 80.625L474.07812 74.625L475.78125 74.625L472.54688 85.0L470.71875 85.0L469.0625 78.78125L468.67188 77.015625L466.5625 85.0L464.73438 85.0ZM476.10938 81.90625L477.85938 81.625Q478.0 82.671875 478.67188 83.234375Q479.34375 83.78125 480.54688 83.78125Q481.75 83.78125 482.32812 83.296875Q482.92188 82.796875 482.92188 82.140625Q482.92188 81.546875 482.40625 81.203125Q482.04688 80.96875 480.60938 80.609375Q478.67188 80.109375 477.92188 79.765625Q477.1875 79.40625 476.79688 78.78125Q476.40625 78.140625 476.40625 77.375Q476.40625 76.6875 476.71875 76.09375Q477.04688 75.5 477.59375 75.109375Q478.0 74.8125 478.70312 74.609375Q479.42188 74.390625 480.23438 74.390625Q481.45312 74.390625 482.375 74.75Q483.29688 75.09375 483.73438 75.703125Q484.17188 76.296875 484.34375 77.296875L482.625 77.53125Q482.5 76.734375 481.9375 76.296875Q481.375 75.84375 480.35938 75.84375Q479.14062 75.84375 478.625 76.25Q478.10938 76.640625 478.10938 77.171875Q478.10938 77.515625 478.32812 77.796875Q478.53125 78.078125 479.0 78.265625Q479.26562 78.359375 480.54688 78.703125Q482.42188 79.203125 483.15625 79.53125Q483.89062 79.84375 484.3125 80.453125Q484.73438 81.046875 484.73438 81.953125Q484.73438 82.828125 484.21875 83.609375Q483.70312 84.390625 482.73438 84.8125Q481.76562 85.234375 480.54688 85.234375Q478.53125 85.234375 477.46875 84.390625Q476.40625 83.546875 476.10938 81.90625Z" fill-rule="nonzero"/><path fill="#757575" d="M26.10625 39.60625L27.8875 39.45Q28.0125 40.5125 28.465626 41.2Q28.934376 41.8875 29.903126 42.325Q30.8875 42.746876 32.121876 42.746876Q33.2 42.746876 34.028126 42.434376Q34.85625 42.10625 35.2625 41.54375Q35.66875 40.98125 35.66875 40.309376Q35.66875 39.6375 35.278126 39.1375Q34.8875 38.6375 33.996876 38.29375Q33.41875 38.059376 31.434376 37.590626Q29.465626 37.121876 28.684376 36.7Q27.653126 36.16875 27.153126 35.371876Q26.653126 34.575 26.653126 33.590626Q26.653126 32.496876 27.2625 31.559376Q27.871876 30.621876 29.059376 30.1375Q30.246876 29.6375 31.684376 29.6375Q33.278126 29.6375 34.496876 30.153126Q35.715626 30.66875 36.35625 31.66875Q37.0125 32.653126 37.059376 33.91875L35.246876 34.059376Q35.10625 32.7 34.2625 32.0125Q33.41875 31.309376 31.7625 31.309376Q30.04375 31.309376 29.246876 31.95Q28.465626 32.575 28.465626 33.45Q28.465626 34.23125 29.028126 34.73125Q29.575 35.23125 31.8875 35.746876Q34.2 36.2625 35.059376 36.653126Q36.309376 37.23125 36.903126 38.121876Q37.496876 38.996876 37.496876 40.153126Q37.496876 41.29375 36.840626 42.309376Q36.184376 43.325 34.95 43.8875Q33.73125 44.45 32.2 44.45Q30.2625 44.45 28.95 43.8875Q27.6375 43.309376 26.8875 42.16875Q26.1375 41.028126 26.10625 39.60625ZM38.871876 39.0125Q38.871876 36.1375 40.465626 34.746876Q41.809376 33.590626 43.73125 33.590626Q45.871876 33.590626 47.215626 34.996876Q48.575 36.403126 48.575 38.871876Q48.575 40.871876 47.98125 42.028126Q47.3875 43.16875 46.23125 43.809376Q45.090626 44.434376 43.73125 44.434376Q41.54375 44.434376 40.2 43.04375Q38.871876 41.6375 38.871876 39.0125ZM40.66875 39.0125Q40.66875 41.0125 41.528126 41.996876Q42.403126 42.98125 43.73125 42.98125Q45.04375 42.98125 45.903126 41.996876Q46.778126 40.996876 46.778126 38.95Q46.778126 37.028126 45.903126 36.04375Q45.028126 35.04375 43.73125 35.04375Q42.403126 35.04375 41.528126 36.04375Q40.66875 37.028126 40.66875 39.0125ZM57.29375 40.403126L59.0125 40.621876Q58.73125 42.41875 57.559376 43.434376Q56.403126 44.434376 54.7 44.434376Q52.575 44.434376 51.278126 43.04375Q49.98125 41.653126 49.98125 39.059376Q49.98125 37.371876 50.528126 36.121876Q51.090626 34.85625 52.23125 34.23125Q53.371876 33.590626 54.715626 33.590626Q56.403126 33.590626 57.465626 34.45Q58.54375 35.309376 58.85625 36.871876L57.1375 37.1375Q56.903126 36.090626 56.278126 35.575Q55.653126 35.04375 54.778126 35.04375Q53.45 35.04375 52.621876 35.996876Q51.79375 36.95 51.79375 38.996876Q51.79375 41.090626 52.590626 42.04375Q53.3875 42.98125 54.684376 42.98125Q55.715626 42.98125 56.403126 42.35625Q57.10625 41.715626 57.29375 40.403126ZM60.528126 44.2L60.528126 29.8875L62.29375 29.8875L62.29375 38.04375L66.45 33.825L68.71562 33.825L64.7625 37.66875L69.12187 44.2L66.95 44.2L63.528126 38.903126L62.29375 40.090626L62.29375 44.2L60.528126 44.2ZM77.62187 40.85625L79.43437 41.090626Q79.0125 42.66875 77.84062 43.559376Q76.68437 44.434376 74.87187 44.434376Q72.60625 44.434376 71.2625 43.04375Q69.93437 41.6375 69.93437 39.10625Q69.93437 36.48125 71.27812 35.04375Q72.62187 33.590626 74.77812 33.590626Q76.85625 33.590626 78.16875 35.0125Q79.49687 36.41875 79.49687 38.996876Q79.49687 39.153126 79.48125 39.465626L71.74687 39.465626Q71.84062 41.16875 72.71562 42.075Q73.59062 42.98125 74.8875 42.98125Q75.85625 42.98125 76.52812 42.48125Q77.21562 41.965626 77.62187 40.85625ZM71.84062 38.0125L77.6375 38.0125Q77.52812 36.715626 76.98125 36.059376Q76.1375 35.04375 74.79375 35.04375Q73.59062 35.04375 72.7625 35.85625Q71.93437 36.653126 71.84062 38.0125ZM85.35625 42.621876L85.60625 44.184376Q84.87187 44.340626 84.27812 44.340626Q83.325 44.340626 82.79375 44.04375Q82.27812 43.73125 82.05937 43.246876Q81.84062 42.746876 81.84062 41.16875L81.84062 35.2L80.55937 35.2L80.55937 33.825L81.84062 33.825L81.84062 31.2625L83.59062 30.2L83.59062 33.825L85.35625 33.825L85.35625 35.2L83.59062 35.2L83.59062 41.2625Q83.59062 42.0125 83.68437 42.23125Q83.77812 42.434376 83.98125 42.575Q84.2 42.7 84.59062 42.7Q84.87187 42.7 85.35625 42.621876ZM96.24687 44.2L92.45 29.8875L94.3875 29.8875L96.55937 39.2625Q96.91875 40.746876 97.16875 42.2Q97.71562 39.903126 97.80937 39.54375L100.54375 29.8875L102.825 29.8875L104.87187 37.121876Q105.65312 39.825 105.99687 42.2Q106.2625 40.840626 106.7 39.075L108.95 29.8875L110.85625 29.8875L106.93437 44.2L105.10625 44.2L102.09062 33.29375Q101.7 31.91875 101.6375 31.60625Q101.40312 32.590626 101.21562 33.29375L98.18437 44.2L96.24687 44.2ZM119.62187 40.85625L121.43437 41.090626Q121.0125 42.66875 119.84062 43.559376Q118.68437 44.434376 116.87187 44.434376Q114.60625 44.434376 113.2625 43.04375Q111.93437 41.6375 111.93437 39.10625Q111.93437 36.48125 113.27812 35.04375Q114.62187 33.590626 116.77812 33.590626Q118.85625 33.590626 120.16875 35.0125Q121.49687 36.41875 121.49687 38.996876Q121.49687 39.153126 121.48125 39.465626L113.74687 39.465626Q113.84062 41.16875 114.71562 42.075Q115.59062 42.98125 116.8875 42.98125Q117.85625 42.98125 118.52812 42.48125Q119.21562 41.965626 119.62187 40.85625ZM113.84062 38.0125L119.6375 38.0125Q119.52812 36.715626 118.98125 36.059376Q118.1375 35.04375 116.79375 35.04375Q115.59062 35.04375 114.7625 35.85625Q113.93437 36.653126 113.84062 38.0125ZM130.29375 42.91875Q129.30937 43.746876 128.40312 44.090626Q127.49687 44.434376 126.46562 44.434376Q124.7625 44.434376 123.84062 43.60625Q122.91875 42.7625 122.91875 41.465626Q122.91875 40.7 123.2625 40.075Q123.62187 39.45 124.18437 39.075Q124.74687 38.684376 125.45 38.48125Q125.96562 38.35625 127.0125 38.215626Q129.1375 37.965626 130.1375 37.621876Q130.15312 37.2625 130.15312 37.153126Q130.15312 36.090626 129.65312 35.6375Q128.98125 35.04375 127.65312 35.04375Q126.40312 35.04375 125.80937 35.48125Q125.23125 35.91875 124.95 37.028126L123.23125 36.79375Q123.46562 35.684376 123.99687 35.0125Q124.52812 34.325 125.54375 33.965626Q126.55937 33.590626 127.90312 33.590626Q129.23125 33.590626 130.05937 33.903126Q130.8875 34.215626 131.27812 34.7Q131.66875 35.16875 131.825 35.8875Q131.91875 36.340626 131.91875 37.5125L131.91875 39.85625Q131.91875 42.309376 132.02812 42.965626Q132.1375 43.60625 132.48125 44.2L130.6375 44.2Q130.37187 43.653126 130.29375 42.91875ZM130.1375 38.996876Q129.18437 39.3875 127.2625 39.653126Q126.18437 39.809376 125.73125 40.0125Q125.29375 40.2 125.04375 40.575Q124.79375 40.95 124.79375 41.41875Q124.79375 42.121876 125.325 42.590626Q125.85625 43.059376 126.8875 43.059376Q127.90312 43.059376 128.68437 42.621876Q129.48125 42.16875 129.85625 41.403126Q130.1375 40.79375 130.1375 39.6375L130.1375 38.996876ZM138.35625 42.621876L138.60625 44.184376Q137.87187 44.340626 137.27812 44.340626Q136.325 44.340626 135.79375 44.04375Q135.27812 43.73125 135.05937 43.246876Q134.84062 42.746876 134.84062 41.16875L134.84062 35.2L133.55937 35.2L133.55937 33.825L134.84062 33.825L134.84062 31.2625L136.59062 30.2L136.59062 33.825L138.35625 33.825L138.35625 35.2L136.59062 35.2L136.59062 41.2625Q136.59062 42.0125 136.68437 42.23125Q136.77812 42.434376 136.98125 42.575Q137.2 42.7 137.59062 42.7Q137.87187 42.7 138.35625 42.621876ZM140.5125 44.2L140.5125 29.8875L142.27812 29.8875L142.27812 35.0125Q143.5125 33.590626 145.3875 33.590626Q146.52812 33.590626 147.37187 34.04375Q148.23125 34.496876 148.59062 35.309376Q148.96562 36.10625 148.96562 37.621876L148.96562 44.2L147.21562 44.2L147.21562 37.621876Q147.21562 36.309376 146.6375 35.715626Q146.05937 35.10625 145.02812 35.10625Q144.24687 35.10625 143.54375 35.5125Q142.85625 35.91875 142.55937 36.621876Q142.27812 37.309376 142.27812 38.528126L142.27812 44.2L140.5125 44.2ZM158.62187 40.85625L160.43437 41.090626Q160.0125 42.66875 158.84062 43.559376Q157.68437 44.434376 155.87187 44.434376Q153.60625 44.434376 152.2625 43.04375Q150.93437 41.6375 150.93437 39.10625Q150.93437 36.48125 152.27812 35.04375Q153.62187 33.590626 155.77812 33.590626Q157.85625 33.590626 159.16875 35.0125Q160.49687 36.41875 160.49687 38.996876Q160.49687 39.153126 160.48125 39.465626L152.74687 39.465626Q152.84062 41.16875 153.71562 42.075Q154.59062 42.98125 155.8875 42.98125Q156.85625 42.98125 157.52812 42.48125Q158.21562 41.965626 158.62187 40.85625ZM152.84062 38.0125L158.6375 38.0125Q158.52812 36.715626 157.98125 36.059376Q157.1375 35.04375 155.79375 35.04375Q154.59062 35.04375 153.7625 35.85625Q152.93437 36.653126 152.84062 38.0125ZM162.49687 44.2L162.49687 33.825L164.075 33.825L164.075 35.403126Q164.68437 34.29375 165.2 33.95Q165.71562 33.590626 166.325 33.590626Q167.21562 33.590626 168.1375 34.153126L167.52812 35.79375Q166.8875 35.403126 166.24687 35.403126Q165.66875 35.403126 165.2 35.7625Q164.74687 36.10625 164.54375 36.715626Q164.2625 37.653126 164.2625 38.7625L164.2625 44.2L162.49687 44.2ZM175.93437 44.2L175.93437 35.2L174.3875 35.2L174.3875 33.825L175.93437 33.825L175.93437 32.73125Q175.93437 31.684376 176.12187 31.16875Q176.37187 30.48125 177.0125 30.059376Q177.65312 29.6375 178.80937 29.6375Q179.55937 29.6375 180.45 29.809376L180.18437 31.340626Q179.6375 31.246876 179.15312 31.246876Q178.35625 31.246876 178.0125 31.590626Q177.68437 31.934376 177.68437 32.871876L177.68437 33.825L179.71562 33.825L179.71562 35.2L177.68437 35.2L177.68437 44.2L175.93437 44.2ZM188.30937 44.2L188.30937 42.66875Q187.10625 44.434376 185.02812 44.434376Q184.10625 44.434376 183.30937 44.090626Q182.5125 43.73125 182.12187 43.2Q181.74687 42.66875 181.59062 41.8875Q181.48125 41.371876 181.48125 40.246876L181.48125 33.825L183.23125 33.825L183.23125 39.575Q183.23125 40.95 183.34062 41.434376Q183.5125 42.121876 184.04375 42.528126Q184.59062 42.91875 185.37187 42.91875Q186.16875 42.91875 186.85625 42.5125Q187.55937 42.10625 187.84062 41.41875Q188.1375 40.715626 188.1375 39.3875L188.1375 33.825L189.8875 33.825L189.8875 44.2L188.30937 44.2ZM192.48125 44.2L192.48125 29.8875L194.23125 29.8875L194.23125 44.2L192.48125 44.2ZM196.48125 44.2L196.48125 29.8875L198.23125 29.8875L198.23125 44.2L196.48125 44.2ZM208.1375 44.2L206.5125 44.2L206.5125 29.8875L208.2625 29.8875L208.2625 34.996876Q209.3875 33.590626 211.10625 33.590626Q212.05937 33.590626 212.91875 33.98125Q213.77812 34.371876 214.325 35.075Q214.87187 35.7625 215.18437 36.746876Q215.49687 37.73125 215.49687 38.85625Q215.49687 41.528126 214.18437 42.98125Q212.87187 44.434376 211.02812 44.434376Q209.18437 44.434376 208.1375 42.903126L208.1375 44.2ZM208.12187 38.934376Q208.12187 40.79375 208.62187 41.6375Q209.46562 42.98125 210.87187 42.98125Q212.02812 42.98125 212.85625 41.98125Q213.7 40.98125 213.7 38.996876Q213.7 36.965626 212.8875 36.0125Q212.09062 35.04375 210.95 35.04375Q209.79375 35.04375 208.95 36.04375Q208.12187 37.04375 208.12187 38.934376ZM224.30937 44.2L224.30937 42.66875Q223.10625 44.434376 221.02812 44.434376Q220.10625 44.434376 219.30937 44.090626Q218.5125 43.73125 218.12187 43.2Q217.74687 42.66875 217.59062 41.8875Q217.48125 41.371876 217.48125 40.246876L217.48125 33.825L219.23125 33.825L219.23125 39.575Q219.23125 40.95 219.34062 41.434376Q219.5125 42.121876 220.04375 42.528126Q220.59062 42.91875 221.37187 42.91875Q222.16875 42.91875 222.85625 42.5125Q223.55937 42.10625 223.84062 41.41875Q224.1375 40.715626 224.1375 39.3875L224.1375 33.825L225.8875 33.825L225.8875 44.2L224.30937 44.2ZM228.52812 31.903126L228.52812 29.8875L230.29375 29.8875L230.29375 31.903126L228.52812 31.903126ZM228.52812 44.2L228.52812 33.825L230.29375 33.825L230.29375 44.2L228.52812 44.2ZM232.48125 44.2L232.48125 29.8875L234.23125 29.8875L234.23125 44.2L232.48125 44.2ZM243.24687 44.2L243.24687 42.8875Q242.2625 44.434376 240.34062 44.434376Q239.10625 44.434376 238.05937 43.746876Q237.02812 43.059376 236.45 41.840626Q235.8875 40.621876 235.8875 39.028126Q235.8875 37.465626 236.40312 36.2Q236.91875 34.934376 237.95 34.2625Q238.99687 33.590626 240.2625 33.590626Q241.2 33.590626 241.93437 33.996876Q242.66875 34.3875 243.1375 35.0125L243.1375 29.8875L244.87187 29.8875L244.87187 44.2L243.24687 44.2ZM237.68437 39.028126Q237.68437 41.0125 238.52812 41.996876Q239.37187 42.98125 240.5125 42.98125Q241.66875 42.98125 242.46562 42.04375Q243.27812 41.10625 243.27812 39.16875Q243.27812 37.04375 242.45 36.04375Q241.6375 35.04375 240.43437 35.04375Q239.2625 35.04375 238.46562 36.0125Q237.68437 36.965626 237.68437 39.028126ZM253.52812 31.903126L253.52812 29.8875L255.29375 29.8875L255.29375 31.903126L253.52812 31.903126ZM253.52812 44.2L253.52812 33.825L255.29375 33.825L255.29375 44.2L253.52812 44.2ZM257.5125 44.2L257.5125 33.825L259.10626 33.825L259.10626 35.309376Q260.2469 33.590626 262.40314 33.590626Q263.34064 33.590626 264.1219 33.934376Q264.91876 34.2625 265.3094 34.809376Q265.7 35.35625 265.85626 36.10625Q265.95 36.60625 265.95 37.825L265.95 44.2L264.1844 44.2L264.1844 37.8875Q264.1844 36.809376 263.98126 36.278126Q263.77814 35.746876 263.2469 35.434376Q262.73126 35.121876 262.02814 35.121876Q260.90314 35.121876 260.09064 35.840626Q259.27814 36.54375 259.27814 38.528126L259.27814 44.2L257.5125 44.2ZM273.8094 41.10625L275.5594 40.825Q275.7 41.871876 276.3719 42.434376Q277.04376 42.98125 278.2469 42.98125Q279.45 42.98125 280.02814 42.496876Q280.6219 41.996876 280.6219 41.340626Q280.6219 40.746876 280.10626 40.403126Q279.7469 40.16875 278.3094 39.809376Q276.3719 39.309376 275.6219 38.965626Q274.8875 38.60625 274.4969 37.98125Q274.10626 37.340626 274.10626 36.575Q274.10626 35.8875 274.41876 35.29375Q274.7469 34.7 275.29376 34.309376Q275.7 34.0125 276.40314 33.809376Q277.1219 33.590626 277.9344 33.590626Q279.15314 33.590626 280.075 33.95Q280.9969 34.29375 281.4344 34.903126Q281.8719 35.496876 282.04376 36.496876L280.325 36.73125Q280.2 35.934376 279.6375 35.496876Q279.075 35.04375 278.0594 35.04375Q276.84064 35.04375 276.325 35.45Q275.8094 35.840626 275.8094 36.371876Q275.8094 36.715626 276.02814 36.996876Q276.23126 37.278126 276.7 37.465626Q276.96564 37.559376 278.2469 37.903126Q280.1219 38.403126 280.85626 38.73125Q281.59064 39.04375 282.0125 39.653126Q282.4344 40.246876 282.4344 41.153126Q282.4344 42.028126 281.91876 42.809376Q281.40314 43.590626 280.4344 44.0125Q279.46564 44.434376 278.2469 44.434376Q276.23126 44.434376 275.16876 43.590626Q274.10626 42.746876 273.8094 41.10625ZM291.6219 40.85625L293.4344 41.090626Q293.0125 42.66875 291.84064 43.559376Q290.6844 44.434376 288.8719 44.434376Q286.60626 44.434376 285.2625 43.04375Q283.9344 41.6375 283.9344 39.10625Q283.9344 36.48125 285.27814 35.04375Q286.6219 33.590626 288.77814 33.590626Q290.85626 33.590626 292.16876 35.0125Q293.4969 36.41875 293.4969 38.996876Q293.4969 39.153126 293.48126 39.465626L285.7469 39.465626Q285.84064 41.16875 286.71564 42.075Q287.59064 42.98125 288.8875 42.98125Q289.85626 42.98125 290.52814 42.48125Q291.21564 41.965626 291.6219 40.85625ZM285.84064 38.0125L291.6375 38.0125Q291.52814 36.715626 290.98126 36.059376Q290.1375 35.04375 288.79376 35.04375Q287.59064 35.04375 286.7625 35.85625Q285.9344 36.653126 285.84064 38.0125ZM302.29376 40.403126L304.0125 40.621876Q303.73126 42.41875 302.5594 43.434376Q301.40314 44.434376 299.7 44.434376Q297.575 44.434376 296.27814 43.04375Q294.98126 41.653126 294.98126 39.059376Q294.98126 37.371876 295.52814 36.121876Q296.09064 34.85625 297.23126 34.23125Q298.3719 33.590626 299.71564 33.590626Q301.40314 33.590626 302.46564 34.45Q303.54376 35.309376 303.85626 36.871876L302.1375 37.1375Q301.90314 36.090626 301.27814 35.575Q300.65314 35.04375 299.77814 35.04375Q298.45 35.04375 297.6219 35.996876Q296.79376 36.95 296.79376 38.996876Q296.79376 41.090626 297.59064 42.04375Q298.3875 42.98125 299.6844 42.98125Q300.71564 42.98125 301.40314 42.35625Q302.10626 41.715626 302.29376 40.403126ZM304.8719 39.0125Q304.8719 36.1375 306.46564 34.746876Q307.8094 33.590626 309.73126 33.590626Q311.8719 33.590626 313.21564 34.996876Q314.575 36.403126 314.575 38.871876Q314.575 40.871876 313.98126 42.028126Q313.3875 43.16875 312.23126 43.809376Q311.09064 44.434376 309.73126 44.434376Q307.54376 44.434376 306.2 43.04375Q304.8719 41.6375 304.8719 39.0125ZM306.66876 39.0125Q306.66876 41.0125 307.52814 41.996876Q308.40314 42.98125 309.73126 42.98125Q311.04376 42.98125 311.90314 41.996876Q312.77814 40.996876 312.77814 38.95Q312.77814 37.028126 311.90314 36.04375Q311.02814 35.04375 309.73126 35.04375Q308.40314 35.04375 307.52814 36.04375Q306.66876 37.028126 306.66876 39.0125ZM316.5125 44.2L316.5125 33.825L318.10626 33.825L318.10626 35.309376Q319.2469 33.590626 321.40314 33.590626Q322.34064 33.590626 323.1219 33.934376Q323.91876 34.2625 324.3094 34.809376Q324.7 35.35625 324.85626 36.10625Q324.95 36.60625 324.95 37.825L324.95 44.2L323.1844 44.2L323.1844 37.8875Q323.1844 36.809376 322.98126 36.278126Q322.77814 35.746876 322.2469 35.434376Q321.73126 35.121876 321.02814 35.121876Q319.90314 35.121876 319.09064 35.840626Q318.27814 36.54375 318.27814 38.528126L318.27814 44.2L316.5125 44.2ZM334.2469 44.2L334.2469 42.8875Q333.2625 44.434376 331.34064 44.434376Q330.10626 44.434376 329.0594 43.746876Q328.02814 43.059376 327.45 41.840626Q326.8875 40.621876 326.8875 39.028126Q326.8875 37.465626 327.40314 36.2Q327.91876 34.934376 328.95 34.2625Q329.9969 33.590626 331.2625 33.590626Q332.2 33.590626 332.9344 33.996876Q333.66876 34.3875 334.1375 35.0125L334.1375 29.8875L335.8719 29.8875L335.8719 44.2L334.2469 44.2ZM328.6844 39.028126Q328.6844 41.0125 329.52814 41.996876Q330.3719 42.98125 331.5125 42.98125Q332.66876 42.98125 333.46564 42.04375Q334.27814 41.10625 334.27814 39.16875Q334.27814 37.04375 333.45 36.04375Q332.6375 35.04375 331.4344 35.04375Q330.2625 35.04375 329.46564 36.0125Q328.6844 36.965626 328.6844 39.028126ZM337.8094 41.10625L339.5594 40.825Q339.7 41.871876 340.3719 42.434376Q341.04376 42.98125 342.2469 42.98125Q343.45 42.98125 344.02814 42.496876Q344.6219 41.996876 344.6219 41.340626Q344.6219 40.746876 344.10626 40.403126Q343.7469 40.16875 342.3094 39.809376Q340.3719 39.309376 339.6219 38.965626Q338.8875 38.60625 338.4969 37.98125Q338.10626 37.340626 338.10626 36.575Q338.10626 35.8875 338.41876 35.29375Q338.7469 34.7 339.29376 34.309376Q339.7 34.0125 340.40314 33.809376Q341.1219 33.590626 341.9344 33.590626Q343.15314 33.590626 344.075 33.95Q344.9969 34.29375 345.4344 34.903126Q345.8719 35.496876 346.04376 36.496876L344.325 36.73125Q344.2 35.934376 343.6375 35.496876Q343.075 35.04375 342.0594 35.04375Q340.84064 35.04375 340.325 35.45Q339.8094 35.840626 339.8094 36.371876Q339.8094 36.715626 340.02814 36.996876Q340.23126 37.278126 340.7 37.465626Q340.96564 37.559376 342.2469 37.903126Q344.1219 38.403126 344.85626 38.73125Q345.59064 39.04375 346.0125 39.653126Q346.4344 40.246876 346.4344 41.153126Q346.4344 42.028126 345.91876 42.809376Q345.40314 43.590626 344.4344 44.0125Q343.46564 44.434376 342.2469 44.434376Q340.23126 44.434376 339.16876 43.590626Q338.10626 42.746876 337.8094 41.10625Z" fill-rule="nonzero"/></svg>